<svg height="512pt" viewBox="0 -23 512.00156 512" width="512pt" xmlns="http://www.w3.org/2000/svg"><path d="m479.347656 88.328125v-58.21875h-215.851562v58.21875c0 12.605469-4.457032 24.808594-12.582032 34.449219s-12.582031 21.839844-12.582031 34.449218v222.050782c0 40.378906 32.730469 73.109375 73.105469 73.109375h119.96875c40.375 0 73.105469-32.730469 73.105469-73.109375v-222.050782c0-12.609374-4.457031-24.808593-12.582031-34.449218s-12.582032-21.84375-12.582032-34.449219zm0 0" fill="#efe2dd"/><g fill="#e1d3ce"><path d="m491.929688 122.777344c-8.125-9.640625-12.582032-21.84375-12.582032-34.449219v-58.21875h-70.265625v74.515625c0 12.609375 4.457031 24.8125 12.582031 34.449219 8.125 9.640625 12.582032 21.84375 12.582032 34.453125v174.644531c0 40.378906-32.730469 73.109375-73.105469 73.109375h-109.523437c13.226562 18.804688 35.082031 31.105469 59.820312 31.105469h119.96875c40.375 0 73.105469-32.730469 73.105469-73.109375v-222.050782c0-12.609374-4.457031-24.808593-12.582031-34.449218zm0 0"/><path d="m475.664062 44.007812h-208.484374c-9.460938 0-17.125-7.667968-17.125-17.125v-2.269531c0-9.457031 7.664062-17.125 17.125-17.125h208.484374c9.460938 0 17.125 7.667969 17.125 17.125v2.269531c0 9.457032-7.664062 17.125-17.125 17.125zm0 0"/><path d="m475.664062 98.375h-208.484374c-9.460938 0-17.125-7.667969-17.125-17.125v-2.269531c0-9.457031 7.664062-17.125 17.125-17.125h208.484374c9.460938 0 17.125 7.667969 17.125 17.125v2.269531c0 9.457031-7.664062 17.125-17.125 17.125zm0 0"/></g><path d="m474.53125 7.488281h-65.886719c10.085938 0 18.261719 8.175781 18.261719 18.257813 0 10.085937-8.175781 18.261718-18.261719 18.261718h65.886719c10.085938 0 18.257812-8.175781 18.257812-18.261718 0-10.082032-8.171874-18.257813-18.257812-18.257813zm0 0" fill="#cdbfba"/><path d="m474.53125 61.855469h-65.886719c10.085938 0 18.261719 8.175781 18.261719 18.261719 0 10.082031-8.175781 18.257812-18.261719 18.257812h65.886719c10.085938 0 18.257812-8.175781 18.257812-18.257812 0-10.085938-8.171874-18.261719-18.257812-18.261719zm0 0" fill="#cdbfba"/><path d="m238.332031 194.703125v184.574219c0 40.378906 32.730469 73.109375 73.105469 73.109375h119.96875c40.375 0 73.105469-32.730469 73.105469-73.109375v-184.574219zm0 0" fill="#fa9775"/><path d="m504.511719 379.277344v-184.574219h-70.265625v153.46875c0 40.378906-32.730469 73.109375-73.105469 73.109375h-109.523437c13.226562 18.804688 35.082031 31.105469 59.820312 31.105469h119.96875c40.375 0 73.105469-32.730469 73.105469-73.109375zm0 0" fill="#f78157"/><path d="m504.511719 176.320312c-3.933594-1.828124-9.410157-3.707031-17.535157-3.707031-10.582031 0-16.683593 3.1875-20.71875 5.296875-2.617187 1.371094-3.160156 1.652344-5.875 1.652344-2.710937 0-3.253906-.285156-5.871093-1.652344-4.035157-2.109375-10.132813-5.296875-20.714844-5.296875-10.585937 0-16.683594 3.1875-20.722656 5.296875-2.613281 1.371094-3.160157 1.652344-5.871094 1.652344-2.714844 0-3.257813-.285156-5.875-1.652344-4.035156-2.109375-10.136719-5.296875-20.71875-5.296875s-16.683594 3.1875-20.71875 5.296875c-2.617187 1.371094-3.160156 1.652344-5.875 1.652344-2.710937 0-3.253906-.285156-5.871094-1.652344-4.035156-2.109375-10.136719-5.296875-20.71875-5.296875-10.585937 0-16.683593 3.1875-20.71875 5.296875-2.617187 1.371094-3.160156 1.652344-5.875 1.652344-2.710937 0-3.257812-.285156-5.871093-1.652344-4.039063-2.109375-10.136719-5.296875-20.71875-5.296875-10.582032 0-16.679688 3.1875-20.71875 5.296875-2.617188 1.371094-3.164063 1.652344-5.875 1.652344-2.710938 0-3.257813-.285156-5.871094-1.652344-1.007813-.523437-2.144532-1.117187-3.445313-1.714844v34.464844c2.65625.570313 5.722657.941406 9.316407.941406 10.582031 0 16.679687-3.1875 20.71875-5.296874 2.617187-1.367188 3.164062-1.652344 5.875-1.652344 2.710937 0 3.253906.285156 5.871093 1.652344 4.039063 2.109374 10.136719 5.296874 20.71875 5.296874 10.585938 0 16.683594-3.1875 20.71875-5.296874 2.617188-1.367188 3.164063-1.652344 5.875-1.652344 2.714844 0 3.257813.285156 5.875 1.652344 4.035157 2.109374 10.136719 5.296874 20.71875 5.296874s16.683594-3.1875 20.71875-5.296874c2.617188-1.371094 3.160157-1.652344 5.875-1.652344 2.710938 0 3.253907.285156 5.871094 1.652344 4.035156 2.109374 10.136719 5.296874 20.71875 5.296874 10.585937 0 16.683594-3.1875 20.71875-5.296874 2.617187-1.367188 3.164063-1.652344 5.875-1.652344 2.714844 0 3.257813.285156 5.875 1.652344 4.035156 2.109374 10.132813 5.296874 20.714844 5.296874s16.683593-3.1875 20.71875-5.296874c2.617187-1.371094 3.160156-1.652344 5.875-1.652344 2.710937 0 3.257812.285156 5.871093 1.652344 2.710938 1.414062 6.359376 3.316406 11.664063 4.414062v-34.398438zm0 0" fill="#fff5f5"/><path d="m504.511719 176.320312c-3.933594-1.828124-9.410157-3.707031-17.535157-3.707031-10.582031 0-16.683593 3.1875-20.71875 5.296875-2.617187 1.371094-3.160156 1.652344-5.875 1.652344-2.710937 0-3.253906-.285156-5.871093-1.652344-3.976563-2.078125-9.972657-5.203125-20.285157-5.289062.007813.300781.019532.601562.019532.90625v31.132812c2.3125.035156 2.964844.359375 5.421875 1.644532 4.035156 2.109374 10.132812 5.300781 20.714843 5.300781 10.585938 0 16.683594-3.191407 20.722657-5.300781 2.613281-1.367188 3.15625-1.652344 5.871093-1.652344 2.714844 0 3.257813.285156 5.871094 1.652344 2.710938 1.417968 6.363282 3.316406 11.664063 4.414062zm0 0" fill="#efe2dd"/><path d="m134.035156 223.566406-124.285156 154.265625c-3.089844 3.835938-2.992188 9.34375.257812 13.046875 15.898438 18.097656 66.765626 66.929688 152.789063 66.929688 86.027344 0 136.894531-48.832032 152.789063-66.929688 3.25-3.703125 3.351562-9.210937.257812-13.046875l-124.285156-154.265625c-14.785156-18.351562-42.738282-18.351562-57.523438 0zm0 0" fill="#ff6930"/><path d="m315.84375 377.832031-124.285156-154.265625c-12.941406-16.066406-35.984375-18.066406-51.441406-6l120.28125 149.296875c3.09375 3.835938 2.992187 9.34375-.257813 13.046875-15.898437 18.097656-66.761719 66.929688-152.789063 66.929688-4.59375 0-9.082031-.144532-13.476562-.414063 19.707031 6.832031 42.671875 11.382813 68.921875 11.382813 86.027344 0 136.890625-48.832032 152.789063-66.929688 3.25-3.703125 3.347656-9.210937.257812-13.046875zm0 0" fill="#ff5426"/><path d="m315.84375 377.832031-35.78125-44.414062c-16.765625 17.566406-55.816406 51.214843-117.265625 51.214843s-100.5-33.648437-117.265625-51.214843l-35.78125 44.414062c-3.089844 3.835938-2.992188 9.34375.257812 13.046875 15.898438 18.097656 66.765626 66.929688 152.789063 66.929688 86.027344 0 136.894531-48.832032 152.789063-66.929688 3.25-3.703125 3.347656-9.210937.257812-13.046875zm0 0" fill="#deecf1"/><path d="m306.734375 366.527344c-.078125 0-7.4375 8.800781-16.464844 16.949218-9.753906 8.804688-20.1875 18.058594-36.371093 27.261719-27.566407 15.667969-58.21875 23.613281-91.101563 23.613281-32.886719 0-63.535156-7.945312-91.101563-23.613281-16.1875-9.203125-28.328124-20.039062-36.371093-27.261719-8.046875-7.21875-16.355469-17.089843-16.355469-17.089843l-.351562.4375-8.867188 11.007812c-3.089844 3.835938-2.992188 9.34375.257812 13.046875 15.898438 18.097656 66.765626 66.933594 152.789063 66.933594 86.027344 0 136.894531-48.835938 152.789063-66.933594 3.25-3.703125 3.351562-9.210937.257812-13.046875zm0 0" fill="#24d3b5"/><path d="m315.84375 377.832031-35.78125-44.414062c-6.183594 6.480469-15.410156 15.148437-27.667969 23.511719l8.003907 9.933593c3.09375 3.835938 2.992187 9.34375-.257813 13.046875-15.898437 18.097656-66.761719 66.929688-152.789063 66.929688-4.59375 0-9.082031-.144532-13.476562-.410156 19.707031 6.832031 42.671875 11.382812 68.921875 11.382812 86.027344 0 136.890625-48.835938 152.789063-66.933594 3.25-3.703125 3.347656-9.210937.257812-13.046875zm0 0" fill="#a8d3d8"/><path d="m315.84375 377.832031-9.105469-11.304687c-.078125 0-7.4375 8.800781-16.46875 16.949218-9.753906 8.804688-20.183593 18.058594-36.371093 27.261719-22.164063 12.597657-46.324219 20.191407-72.03125 22.691407-20.914063 7.945312-45.746094 13.410156-74.515626 13.410156-4.59375 0-9.082031-.144532-13.476562-.410156 19.707031 6.832031 42.675781 11.382812 68.921875 11.382812 86.027344 0 136.894531-48.835938 152.789063-66.933594 3.25-3.703125 3.347656-9.210937.257812-13.046875zm0 0" fill="#199a8e"/><path d="m497.65625 117.949219c-3.941406-4.671875-6.902344-10.140625-8.722656-15.972657 6.816406-4.375 11.34375-12.015624 11.34375-20.695312v-2.328125c0-9.546875-5.472656-17.832031-13.441406-21.902344v-8.238281c7.96875-4.070312 13.441406-12.355469 13.441406-21.902344v-2.328125c0-13.554687-11.027344-24.582031-24.582032-24.582031h-208.546874c-13.554688 0-24.582032 11.027344-24.582032 24.582031v2.328125c0 9.546875 5.472656 17.832032 13.441406 21.902344v8.238281c-7.96875 4.070313-13.441406 12.355469-13.441406 21.902344v2.324219c0 8.6875 4.53125 16.332031 11.355469 20.707031-1.816406 5.832031-4.78125 11.273437-8.734375 15.964844-9.25 10.972656-14.34375 24.921875-14.34375 39.277343v103.164063l-33.453125-41.523437c-8.476563-10.519532-21.085937-16.554688-34.59375-16.554688s-26.117187 6.035156-34.59375 16.554688l-14.28125 17.730468c-2.59375 3.21875-2.085937 7.933594 1.132813 10.527344 3.222656 2.59375 7.933593 2.085938 10.527343-1.132812l14.285157-17.730469c5.617187-6.972657 13.972656-10.972657 22.929687-10.972657s17.3125 4 22.933594 10.972657l84.300781 104.636719c-21.804688 21.1875-57.066406 44.246093-107.234375 44.246093-50.171875 0-85.429687-23.058593-107.234375-44.246093l48.585938-60.304688c2.59375-3.21875 2.085937-7.933594-1.132813-10.527344-3.222656-2.597656-7.933594-2.085937-10.527344 1.132813l-88.570312 109.933593c-5.394531 6.699219-5.199219 16.238282.464843 22.6875 8.027344 9.136719 25.457032 26.71875 52.019532 41.820313 32.285156 18.351563 68.082031 27.65625 106.394531 27.65625 35.082031 0 68.042969-7.824219 98.140625-23.230469 14.285156 11.507813 32.011719 17.804688 50.5 17.804688h119.96875c44.4375 0 80.59375-36.152344 80.59375-80.59375v-29.945313c0-4.132812-3.351562-7.484375-7.488281-7.484375-4.132813 0-7.484375 3.351563-7.484375 7.484375v29.945313c0 36.183594-29.4375 65.621094-65.621094 65.621094h-119.96875c-12.980469 0-25.496094-3.820313-36.15625-10.871094 23.140625-14.210938 38.535156-29.789063 45.929688-38.207032 1.414062-1.613281 2.492187-3.417968 3.21875-5.324218 2.195312-5.71875 1.289062-12.339844-2.753907-17.363282l-9.109375-11.304687s0 0-.003906-.003906l-26.667969-33.101563s0 0-.003906-.003906l-40.070313-49.738281v-59.9375c.605469.019531 1.207032.046875 1.828126.046875 12.417968 0 19.78125-3.851563 24.1875-6.152344.582031-.304688 1.234374-.648438 1.539062-.777344.125-.011718.378906-.023437.867188-.023437.484374 0 .742187.011719.867187.023437.300781.132813.953125.472656 1.535156.777344 4.398438 2.300781 11.761719 6.152344 24.1875 6.152344 12.421875 0 19.785157-3.851563 24.191407-6.152344.582031-.304688 1.234374-.644531 1.535156-.777344.125-.011718.382812-.023437.867187-.023437.488281 0 .742188.011719.867188.023437.300781.132813.953125.472656 1.535156.777344 4.402344 2.300781 11.765625 6.152344 24.191406 6.152344 12.421875 0 19.785157-3.851563 24.1875-6.152344.582031-.304688 1.234375-.644531 1.535157-.777344.125-.011718.382812-.023437.867187-.023437.488281 0 .742187.011719.867187.023437.300782.132813.953126.472656 1.535157.777344 4.402343 2.300781 11.765625 6.152344 24.191406 6.152344 12.421875 0 19.785156-3.851563 24.1875-6.152344.585937-.304688 1.238281-.644531 1.539063-.777344.125-.011718.382812-.023437.867187-.023437s.742187.011719.867187.023437c.300782.132813.953126.472656 1.535157.777344 4.398437 2.300781 11.757812 6.152344 24.1875 6.152344 12.421875 0 19.789062-3.851563 24.1875-6.152344.582031-.304688 1.234375-.644531 1.535156-.777344.128906-.007812.382813-.019531.871094-.019531.484375 0 .738281.011719.867187.019531.300782.132813.949219.472656 1.535156.777344 1.875.980469 4.382813 2.285156 7.644532 3.441406v98.128906c0 4.136719 3.351562 7.488282 7.488281 7.488282 4.132813 0 7.484375-3.351563 7.484375-7.488282v-157.28125c0-14.351562-5.09375-28.300781-14.34375-39.277343zm-451.519531 226.648437c21.078125 20.039063 60.277343 47.519532 116.660156 47.519532s95.582031-27.480469 116.65625-47.519532l17.457031 21.667969c-2.902344 3.164063-7.046875 7.488281-11.660156 11.652344-8.949219 8.082031-19.097656 17.238281-35.054688 26.308593-26.421874 15.023438-55.828124 22.636719-87.398437 22.636719s-60.976563-7.613281-87.402344-22.632812c-15.664062-8.90625-27.34375-19.390625-35.070312-26.324219-4.199219-3.769531-8.53125-8.371094-11.570313-11.730469l9.007813-11.179687zm263.824219 41.339844c-8.609376 9.800781-25.261719 26.175781-50.210938 39.957031-.957031.289063-1.863281.769531-2.660156 1.445313-24.011719 12.777344-55.367188 22.984375-94.292969 22.984375-14.054687 0-27.125-1.332031-39.21875-3.632813-2.199219-.417968-4.363281-.867187-6.5-1.347656-7.46875-1.683594-14.542969-3.730469-21.226563-6.054688-2.863281-.996093-5.65625-2.039062-8.378906-3.128906-1.8125-.726562-3.59375-1.472656-5.34375-2.234375-34.121094-14.859375-56.132812-36.1875-66.496094-47.984375-.421874-.484375-.640624-1.082031-.648437-1.6875-.011719-.605468.1875-1.21875.59375-1.722656l3.667969-4.550781c3.121094 3.382812 7.101562 7.503906 11.074218 11.070312 7.707032 6.917969 20.605469 18.496094 37.671876 28.195313 28.710937 16.320312 60.605468 24.59375 94.800781 24.59375 34.199219 0 66.09375-8.273438 94.800781-24.59375 17.378906-9.875 28.640625-20.042969 37.691406-28.210938 4.265625-3.851562 8.136719-7.796875 11.121094-10.980468l3.601562 4.472656.003907.003906c.203125.25.355469.53125.453125.824219.097656.289062.144531.59375.140625.898437-.007813.453125-.128907.902344-.371094 1.304688-.078125.132812-.167969.257812-.273437.378906zm-42.8125-295.046875c-5.296876 0-9.609376-4.3125-9.609376-9.609375v-2.328125c0-5.300781 4.3125-9.609375 9.609376-9.609375h50.945312c4.136719 0 7.488281-3.351562 7.488281-7.488281 0-4.132813-3.351562-7.484375-7.488281-7.484375h-47.113281v-2.875h200.882812v2.875h-119.253906c-4.136719 0-7.488281 3.351562-7.488281 7.484375 0 4.136719 3.351562 7.488281 7.488281 7.488281h123.085937c5.296876 0 9.609376 4.3125 9.609376 9.609375v2.328125c0 5.296875-4.3125 9.609375-9.609376 9.609375zm-9.609376-66.308594c0-5.296875 4.3125-9.605469 9.609376-9.605469h208.546874c5.296876 0 9.609376 4.308594 9.609376 9.605469v2.328125c0 5.300782-4.3125 9.609375-9.609376 9.609375h-208.546874c-5.296876 0-9.609376-4.3125-9.609376-9.609375zm-.902343 103.019531c5.375-6.375 9.367187-13.792968 11.757812-21.738281h206.070313c2.394531 7.941407 6.390625 15.390625 11.742187 21.738281 6.976563 8.277344 10.820313 18.800782 10.820313 29.625v8.828126c-2.878906-.5625-6.210938-.929688-10.050782-.929688-12.421874 0-19.785156 3.851562-24.1875 6.152344-.582031.304687-1.234374.644531-1.535156.777344-.128906.011718-.382812.023437-.867187.023437s-.742188-.011719-.867188-.023437c-.300781-.132813-.949219-.472657-1.535156-.777344-4.402344-2.300782-11.765625-6.152344-24.1875-6.152344s-19.789063 3.851562-24.191406 6.152344c-.582031.304687-1.234375.644531-1.535157.777344-.125.011718-.382812.023437-.867187.023437-.488281 0-.742187-.011719-.867187-.023437-.300782-.132813-.957032-.472657-1.546876-.78125-4.398437-2.300782-11.761718-6.148438-24.179687-6.148438-12.421875 0-19.785156 3.851562-24.191406 6.152344-.582031.304687-1.230469.644531-1.535157.777344-.125.011718-.378906.023437-.867187.023437-.484375 0-.738281-.011719-.863281-.023437-.304688-.132813-.957032-.472657-1.539063-.777344-4.402343-2.300782-11.765625-6.152344-24.1875-6.152344s-19.789062 3.851562-24.191406 6.152344c-.582031.304687-1.234375.644531-1.535156.777344-.125.011718-.382813.023437-.867188.023437-.488281 0-.742187-.011719-.867187-.023437-.300782-.132813-.953125-.472657-1.539063-.78125-4.398437-2.296876-11.765625-6.148438-24.183593-6.148438-12.417969 0-19.78125 3.847656-24.1875 6.152344-.585938.304687-1.238282.644531-1.542969.777344-.125.011718-.378907.023437-.867188.023437-.484375 0-.738281-.011719-.863281-.023437-.203125-.089844-.570312-.273438-.964844-.480469v-14.347657c.003906-10.828124 3.84375-21.347656 10.820313-29.625zm239.679687 72.0625c-3.234375-1.6875-4.980468-2.5-9.339844-2.5-4.355468 0-6.105468.8125-9.34375 2.503907-3.789062 1.980469-8.503906 4.445312-17.25 4.445312-8.746093 0-13.457031-2.464843-17.25-4.449219-3.234374-1.6875-4.980468-2.5-9.335937-2.5-4.359375 0-6.109375.8125-9.347656 2.503907-3.789063 1.980469-8.503907 4.445312-17.246094 4.445312-8.746094 0-13.464844-2.464843-17.257813-4.449219-3.234374-1.6875-4.980468-2.5-9.335937-2.5-4.359375 0-6.105469.8125-9.34375 2.503907-3.789063 1.980469-8.503906 4.445312-17.25 4.445312-8.742187 0-13.460937-2.464843-17.253906-4.449219-3.234375-1.6875-4.980469-2.5-9.335938-2.5-4.363281 0-6.109375.8125-9.347656 2.503907-3.789063 1.980469-8.503906 4.445312-17.246094 4.445312-8.746093 0-13.460937-2.464843-17.253906-4.449219-3.234375-1.6875-4.980469-2.5-9.335937-2.5-4.363282 0-6.109376.8125-9.347657 2.503907-3.789062 1.980469-8.507812 4.445312-17.25 4.445312-.621093 0-1.230469-.011719-1.828125-.035156v-17.085937c.558594.039062 1.164063.058593 1.828125.058593 4.359375 0 6.109375-.8125 9.351563-2.507812 3.789062-1.980469 8.503906-4.445313 17.246094-4.445313 8.738281 0 13.457031 2.464844 17.246093 4.449219 3.234375 1.691406 4.984375 2.503906 9.34375 2.503906s6.105469-.8125 9.339844-2.503906c3.789063-1.980469 8.507813-4.445313 17.253906-4.445313 8.742188 0 13.457031 2.464844 17.25 4.445313 3.234375 1.691406 4.984375 2.507813 9.339844 2.507813 4.359375 0 6.105469-.816407 9.34375-2.507813 3.789063-1.980469 8.507813-4.445313 17.25-4.445313 8.738281 0 13.457031 2.464844 17.246094 4.445313 3.234375 1.691406 4.984375 2.507813 9.347656 2.507813 4.355469 0 6.105469-.8125 9.34375-2.507813 3.789063-1.980469 8.503906-4.445313 17.25-4.445313 8.742187 0 13.457031 2.464844 17.25 4.449219 3.234375 1.691407 4.980469 2.503907 9.335937 2.503907 4.359376 0 6.109376-.816407 9.34375-2.507813 3.789063-1.980469 8.507813-4.445313 17.25-4.445313 4.210938 0 7.46875.582032 10.050782 1.351563v18.585937c-.242188-.128906-.480469-.253906-.710938-.375zm0 0"/><path d="m322.140625 250.25c0 4.945312-4.011719 8.953125-8.957031 8.953125-4.945313 0-8.953125-4.007813-8.953125-8.953125s4.007812-8.957031 8.953125-8.957031c4.945312 0 8.957031 4.011719 8.957031 8.957031zm0 0"/><path d="m357.253906 241.292969c0 4.773437-3.867187 8.644531-8.640625 8.644531-4.769531 0-8.640625-3.871094-8.640625-8.644531 0-4.769531 3.871094-8.640625 8.640625-8.640625 4.773438 0 8.640625 3.871094 8.640625 8.640625zm0 0"/><path d="m396.972656 300.851562c0 4.945313-4.007812 8.953126-8.957031 8.953126-4.945313 0-8.953125-4.007813-8.953125-8.953126 0-4.945312 4.007812-8.957031 8.953125-8.957031 4.949219 0 8.957031 4.011719 8.957031 8.957031zm0 0"/><path d="m407.644531 150.730469c0 4.769531-3.867187 8.640625-8.640625 8.640625-4.773437 0-8.640625-3.871094-8.640625-8.640625 0-4.773438 3.867188-8.644531 8.640625-8.644531 4.773438 0 8.640625 3.871093 8.640625 8.644531zm0 0"/><path d="m375.40625 397.765625c0 4.945313-4.007812 8.953125-8.953125 8.953125s-8.957031-4.007812-8.957031-8.953125 4.011718-8.957031 8.957031-8.957031 8.953125 4.011718 8.953125 8.957031zm0 0"/><path d="m153.523438 301.371094c0-8.59375-3.785157-15.558594-8.457032-15.558594-4.667968 0-8.453125 6.964844-8.453125 15.558594s3.785157 15.558594 8.453125 15.558594c4.671875 0 8.457032-6.964844 8.457032-15.558594zm0 0"/><path d="m125.796875 331.480469c0-8.59375-3.785156-15.5625-8.453125-15.5625s-8.453125 6.96875-8.453125 15.5625c0 8.589843 3.785156 15.558593 8.453125 15.558593s8.453125-6.96875 8.453125-15.558593zm0 0"/><path d="m203.699219 341.058594c-6.078125-6.074219-13.679688-8.324219-16.980469-5.023438-3.300781 3.300782-1.050781 10.902344 5.023438 16.980469 6.078124 6.074219 13.679687 8.324219 16.980468 5.023437 3.300782-3.300781 1.050782-10.902343-5.023437-16.980468zm0 0"/></svg>