<svg height="512pt" viewBox="-88 0 512 512.001" width="512pt" xmlns="http://www.w3.org/2000/svg"><path d="m129.246094 97.410156v-30.328125h-75.9375v30.328125c0 37.160156-6.542969 74.03125-19.332032 108.925782l-17.089843 46.621093c-6.21875 16.972657-9.402344 34.910157-9.402344 52.988281v178.90625c0 10.863282 8.804687 19.667969 19.664063 19.667969h128.257812c10.859375 0 19.667969-8.804687 19.667969-19.667969v-178.90625c0-18.078124-3.1875-36.015624-9.40625-52.992187l-17.089844-46.621094c-12.789063-34.890625-19.332031-71.761719-19.332031-108.921875zm0 0" fill="#9c5e5e"/><path d="m165.667969 252.953125-17.089844-46.621094c-12.789063-34.890625-19.332031-71.761719-19.332031-108.925781v-30.324219h-49.550782v8.132813c0 37.160156 6.542969 74.03125 19.332032 108.925781l17.089844 46.621094c6.21875 16.972656 9.40625 34.910156 9.40625 52.988281v147.015625c0 28.476563-23.085938 51.558594-51.558594 51.558594h-66.480469v2.527343c0 10.863282 8.804687 19.667969 19.664063 19.667969h128.257812c10.859375 0 19.664062-8.804687 19.664062-19.667969v-178.90625c0-18.078124-3.183593-36.015624-9.402343-52.992187zm0 0" fill="#855151"/><path d="m208.324219 457.328125c0 22.222656-18.015625 47.191406-40.234375 47.191406-22.222656 0-40.238282-24.96875-40.238282-47.191406s18.015626-29.59375 40.238282-29.59375c22.21875 0 40.234375 7.371094 40.234375 29.59375zm0 0" fill="#d93131"/><path d="m314.839844 431.453125c15.710937 15.714844 20.628906 46.109375 4.917968 61.820313-15.710937 15.710937-46.105468 10.792968-61.816406-4.917969-15.714844-15.714844-8.191406-33.664063 7.523438-49.378907 15.710937-15.710937 33.660156-23.234374 49.375-7.523437zm0 0" fill="#d93131"/><path d="m174.726562 427.976562c8.171876 4.535157 13.308594 12.164063 13.308594 24.03125 0 21.335938-16.609375 45.191407-37.601562 47.058594 5.328125 3.417969 11.320312 5.453125 17.65625 5.453125 22.21875 0 40.234375-24.972656 40.234375-47.191406 0-19.960937-14.535157-27.933594-33.597657-29.351563zm0 0" fill="#cb2c2c"/><path d="m314.839844 431.453125c-7.511719-7.507813-15.53125-9.699219-23.574219-8.238281 1.105469.871094 2.203125 1.835937 3.285156 2.917968 15.714844 15.714844 20.632813 46.109376 4.921875 61.820313-7.300781 7.300781-17.773437 10.140625-28.464844 9.519531 16.066407 7.757813 36.714844 7.835938 48.75-4.199218 15.710938-15.710938 10.792969-46.105469-4.917968-61.820313zm0 0" fill="#cb2c2c"/><path d="m53.308594 67.082031v30.328125c0 36.128906-6.203125 71.976563-18.300782 106.007813h112.539063c-12.097656-34.027344-18.300781-69.878907-18.300781-106.007813v-30.328125zm0 0" fill="#d93131"/><path d="m79.695312 67.082031v8.132813c0 37.160156 6.542969 74.03125 19.332032 108.925781l7.066406 19.277344h41.449219c-12.09375-34.027344-18.296875-69.878907-18.296875-106.007813v-30.328125zm0 0" fill="#cb2c2c"/><path d="m117.191406 355.980469c-1.328125.632812-2.941406.191406-3.703125-1.066407-4.632812-7.613281-13.023437-12.410156-22.027343-12.410156-9.007813 0-17.394532 4.796875-22.03125 12.410156-.761719 1.257813-2.375 1.699219-3.703126 1.066407l-37.632812-18c-1.492188-.710938-2.09375-2.527344-1.316406-3.988281 12.605468-23.75 37.667968-38.933594 64.683594-38.933594 27.011718 0 52.074218 15.183594 64.683593 38.933594.773438 1.460937.175781 3.277343-1.316406 3.988281zm0 0" fill="#d9ab5e"/><path d="m156.144531 333.992188c-12.609375-23.75-37.671875-38.933594-64.683593-38.933594-1.175782 0-2.34375.039062-3.507813.097656 19.578125 2.773438 37.628906 13.421875 49.394531 29.789062.96875 1.34375.617188 3.226563-.765625 4.132813l-29.058593 19.09375c2.34375 1.867187 4.378906 4.136719 5.964843 6.742187.765625 1.257813 2.378907 1.699219 3.703125 1.066407l37.636719-18c1.492187-.710938 2.089844-2.53125 1.316406-3.988281zm0 0" fill="#ca9d56"/><path d="m124.933594 75.074219h-67.3125c-5.523438 0-9.824219-4.792969-9.234375-10.28125l3.421875-31.730469h78.9375l3.421875 31.730469c.589843 5.488281-3.710938 10.28125-9.234375 10.28125zm0 0" fill="#d93131"/><path d="m134.167969 64.792969-3.425781-31.730469h-21.050782l3.421875 31.730469c.589844 5.492187-3.710937 10.28125-9.234375 10.28125h21.054688c5.523437 0 9.824218-4.792969 9.234375-10.28125zm0 0" fill="#cb2c2c"/><path d="m51.324219 37.050781h5.054687c1.121094 0 2.203125-.464843 2.945313-1.304687 1.5-1.6875 3.34375-2.6875 5.339843-2.6875 2 0 3.84375 1 5.339844 2.6875.746094.839844 1.824219 1.304687 2.949219 1.304687h10.347656c1.121094 0 2.199219-.464843 2.945313-1.304687 1.496094-1.6875 3.339844-2.6875 5.339844-2.6875 1.996093 0 3.84375 1 5.339843 2.6875.746094.839844 1.824219 1.304687 2.945313 1.304687h10.347656c1.121094 0 2.203125-.464843 2.945312-1.304687 1.5-1.6875 3.34375-2.6875 5.339844-2.6875 2 0 3.84375 1 5.339844 2.6875.746094.839844 1.824219 1.304687 2.949219 1.304687h4.4375c1.652343 0 2.992187-1.339843 2.992187-2.992187v-23.585938c0-1.652344-1.339844-2.992187-2.992187-2.992187h-79.902344c-1.652344 0-2.992187 1.339843-2.992187 2.992187v23.585938c-.003907 1.652344 1.335937 2.992187 2.988281 2.992187zm0 0" fill="#d9ab5e"/><path d="m131.226562 7.480469h-26.503906c2.804688 0 5.074219 2.273437 5.074219 5.074219v24.496093h.421875c1.121094 0 2.199219-.464843 2.945312-1.304687 1.496094-1.6875 3.339844-2.6875 5.339844-2.6875 1.996094 0 3.84375 1 5.339844 2.6875.746094.839844 1.824219 1.304687 2.945312 1.304687h4.441407c1.652343 0 2.992187-1.339843 2.992187-2.992187v-23.585938c0-1.652344-1.339844-2.992187-2.996094-2.992187zm0 0" fill="#ca9d56"/><path d="m335.503906 455.246094c-.871094-4.039063-4.855468-6.605469-8.886718-5.738282-4.039063.871094-6.609376 4.847657-5.742188 8.886719 2.574219 11.945313.175781 23.003907-6.40625 29.585938-12.832031 12.832031-38.519531 7.800781-51.238281-4.917969-5.566407-5.566406-7.476563-11.210938-6.015625-17.765625 1.199218-5.351563 4.75-11.390625 10.332031-17.640625.988281 1.160156 1.980469 2.3125 2.988281 3.4375 1.476563 1.65625 3.523438 2.5 5.582032 2.5 1.773437 0 3.554687-.625 4.980468-1.902344 3.082032-2.75 3.351563-7.480468.597656-10.5625-1.078124-1.207031-2.148437-2.441406-3.203124-3.6875 16.773437-12.726562 25.765624-5.265625 28.992187-2.585937 3.179687 2.640625 7.898437 2.203125 10.535156-.972657 2.640625-3.179687 2.203125-7.898437-.976562-10.539062-8.402344-6.980469-25.058594-14.921875-47.757813 2.335938-.1875-.261719-.382812-.515626-.570312-.777344-20.445313-28.542969-32.050782-60.558594-32.929688-90.601563 15.363282-9.792969 32.203125-14.117187 48.976563-11.34375 4.082031.675781 7.929687-2.085937 8.601562-6.160156.675781-4.078125-2.082031-7.929687-6.160156-8.605469-28.082031-4.640625-56.851563 6.480469-81.007813 31.320313-20.152343 20.71875-35.09375 49.007812-42.921874 80.851562-11.351563.546875-20.636719 3.066407-27.644532 7.515625-9.980468 6.335938-15.257812 16.515625-15.257812 29.445313 0 12.695312 4.898437 26.042969 13.445312 36.628906.867188 1.078125 1.769532 2.09375 2.683594 3.082031h-109.351562c-6.71875 0-12.183594-5.464844-12.183594-12.183594v-178.90625c0-17.253906 3.011718-34.214843 8.949218-50.414062l16.359376-44.632812h16.589843c4.132813 0 7.480469-3.351563 7.480469-7.484376 0-4.128906-3.347656-7.480468-7.480469-7.480468h-11.417969c10.183594-31.871094 15.347657-64.949219 15.347657-98.527344v-14.851562h60.96875v14.851562c0 33.578125 5.164062 66.65625 15.347656 98.527344h-45.832031c-4.132813 0-7.480469 3.351562-7.480469 7.480468 0 4.132813 3.347656 7.484376 7.480469 7.484376h51.003906l16.359375 44.632812c5.9375 16.199219 8.949219 33.160156 8.949219 50.414062v40.988282c0 4.128906 3.351562 7.480468 7.484375 7.480468 4.128906 0 7.480469-3.351562 7.480469-7.480468v-40.988282c0-19.015624-3.316407-37.710937-9.863282-55.5625l-17.089844-46.625c-12.523437-34.171874-18.875-69.953124-18.875-106.347656v-19.734375c.230469-.226562.46875-.441406.683594-.683593 3.175782-3.535157 4.703125-8.273438 4.195313-13l-2.488281-23.066407c1.605468-1.839843 2.585937-4.238281 2.585937-6.867187v-23.585938c0-5.773437-4.699219-10.472656-10.476563-10.472656h-79.898437c-5.777344 0-10.476563 4.699219-10.476563 10.472656v23.585938c0 2.628906.980469 5.027344 2.585938 6.867187l-2.488281 23.066407c-.507813 4.726562 1.019531 9.460937 4.195312 13 .21875.238281.453125.457031.683594.683593v19.730469c0 36.398438-6.351563 72.179688-18.875 106.351562l-17.089844 46.621094c-6.542969 17.855469-9.863281 36.550782-9.863281 55.566406v178.90625c0 14.96875 12.179688 27.148438 27.148438 27.148438h128.257812c1.835938 0 3.675781-.1875 5.460938-.550781.121093-.023438.234374-.054688.347656-.085938 2.265625.417969 4.5625.636719 6.875.636719 12.707031 0 24.875-6.40625 34.269531-18.042969 8.542969-10.585937 13.445313-23.9375 13.445313-36.628906 0-12.929687-5.277344-23.113281-15.257813-29.445313-5.796875-3.679687-13.15625-6.035156-21.949219-7.050781 8.289063-31.429687 23.839844-57.898437 42.9375-75.488281 3.058594 29.789062 15.214844 60.625 35.011719 88.273438.523437.726562 1.066406 1.441406 1.59375 2.164062-8.390625 8.882812-13.613281 17.703125-15.527344 26.253906-2.578125 11.535156.890625 22.46875 10.035157 31.609375 8.976562 8.976563 21.878906 14.953125 35.40625 16.394531 2.101562.226563 4.167968.335938 6.199218.335938 12.304688 0 23.078125-4.09375 30.796875-11.808594 10.191407-10.195312 14.097657-26.386718 10.453125-43.320312zm-262.550781-410.714844h10.347656c3.144531 0 6.140625-1.285156 8.285157-3.542969 2.140624 2.257813 5.136718 3.542969 8.285156 3.542969h10.347656c3.144531 0 6.140625-1.285156 8.285156-3.542969 1.597656 1.683594 3.671875 2.824219 5.925782 3.296875l2.296874 21.308594c.074219.664062-.203124 1.128906-.449218 1.398438-.246094.273437-.675782.601562-1.34375.601562h-67.3125c-.664063 0-1.097656-.328125-1.34375-.601562-.242188-.273438-.519532-.734376-.449219-1.398438l2.289063-21.207031c2.492187-.382813 4.808593-1.5625 6.550781-3.398438 2.136719 2.257813 5.136719 3.542969 8.285156 3.542969zm-17.136719-29.566406h70.921875v13.355468c-2.464843-1.785156-5.300781-2.742187-8.234375-2.742187-3.558594 0-6.96875 1.40625-9.753906 3.988281h-7.414062c-2.789063-2.582031-6.195313-3.988281-9.75-3.988281-3.558594 0-6.96875 1.40625-9.753907 3.988281h-7.414062c-2.789063-2.582031-6.199219-3.988281-9.753907-3.988281-3.179687 0-6.242187 1.125-8.847656 3.210937zm145.023438 442.363281c0 17.984375-14.609375 39.707031-32.75 39.707031-18.144532 0-32.753906-21.722656-32.753906-39.707031 0-4.984375.011718-19.238281 24.785156-21.734375-.039063.234375-.082032.46875-.121094.703125-.671875 4.078125 2.085938 7.929687 6.160156 8.601563.414063.070312.824219.101562 1.230469.101562 3.597656 0 6.765625-2.597656 7.371094-6.261719.179687-1.074219.367187-2.140625.5625-3.207031 25.496093 2.289062 25.515625 16.765625 25.515625 21.796875zm0 0"/><path d="m158.054688 344.730469c2.539062-1.214844 4.503906-3.445313 5.386718-6.125.882813-2.675781.628906-5.636719-.691406-8.125-14.050781-26.464844-41.367188-42.902344-71.292969-42.902344-29.921875 0-57.242187 16.441406-71.289062 42.90625-1.320313 2.484375-1.574219 5.445313-.691407 8.121094.882813 2.675781 2.84375 4.910156 5.386719 6.125l37.636719 17.996093c1.457031.699219 2.996094 1.03125 4.511719 1.03125 3.503906 0 6.878906-1.777343 8.808593-4.953124 3.308594-5.441407 9.300782-8.820313 15.636719-8.820313 6.335938 0 12.324219 3.378906 15.636719 8.824219 2.769531 4.542968 8.496094 6.226562 13.320312 3.921875zm-40.601563 2.832031c-6.269531-7.824219-15.886719-12.542969-25.992187-12.542969-10.109376 0-19.726563 4.71875-25.992188 12.542969l-29.6875-14.195312c11.914062-18.867188 33.269531-30.828126 55.679688-30.828126 22.410156 0 43.765624 11.960938 55.675781 30.828126zm0 0"/></svg>