<svg height="511pt" viewBox="-53 0 511 511.99797" width="511pt" xmlns="http://www.w3.org/2000/svg"><path d="m317.574219 98.011719 10.320312-21.511719-53.867187-25.839844-10.320313 21.511719c-12.644531 26.359375-29.835937 50.289063-50.78125 70.6875l-27.984375 27.257813c-10.191406 9.921874-18.554687 21.5625-24.707031 34.386718l-60.878906 126.910156c-3.699219 7.707032-.449219 16.949219 7.257812 20.644532l90.980469 43.644531c7.703125 3.695313 16.945312.445313 20.640625-7.257813l60.882813-126.910156c6.152343-12.824218 9.996093-26.632812 11.359374-40.789062l3.746094-38.886719c2.800782-29.101563 10.707032-57.488281 23.351563-83.847656zm0 0" fill="#9c5e5e"/><path d="m290.480469 220.746094 3.742187-38.886719c2.800782-29.105469 10.707032-57.488281 23.351563-83.847656l10.320312-21.511719-35.148437-16.863281-2.765625 5.769531c-12.648438 26.359375-20.550781 54.742188-23.351563 83.847656l-3.746094 38.886719c-1.363281 14.15625-5.207031 27.964844-11.359374 40.789063l-50.027344 104.289062c-9.691406 20.195312-33.921875 28.714844-54.117188 19.027344l-47.164062-22.625-.859375 1.792968c-3.695313 7.707032-.445313 16.949219 7.257812 20.644532l90.980469 43.644531c7.707031 3.695313 16.945312.445313 20.644531-7.257813l60.878907-126.910156c6.152343-12.824218 10-26.632812 11.363281-40.789062zm0 0" fill="#855151"/><path d="m274.027344 50.660156-10.320313 21.511719c-12.292969 25.628906-28.894531 48.949219-49.054687 68.96875l79.828125 38.296875c3-28.253906 10.796875-55.796875 23.09375-81.425781l10.320312-21.511719zm0 0" fill="#d9ab5e"/><path d="m292.746094 59.636719-2.765625 5.769531c-12.648438 26.359375-20.550781 54.742188-23.351563 83.847656l-1.550781 16.078125 29.402344 14.105469c3-28.253906 10.796875-55.796875 23.09375-81.425781l10.320312-21.515625zm0 0" fill="#ca9d56"/><path d="m322.117188 80.703125-47.75-22.90625c-3.917969-1.882813-5.339844-6.742187-3.050782-10.4375l13.226563-21.34375 55.992187 26.859375-8.371094 23.675781c-1.449218 4.097657-6.128906 6.03125-10.046874 4.152344zm0 0" fill="#9c5e5e"/><path d="m332.164062 76.550781 8.371094-23.675781-14.9375-7.164062-8.367187 23.675781c-1.449219 4.09375-6.132813 6.027343-10.050781 4.148437l14.9375 7.167969c3.917968 1.878906 8.597656-.054687 10.046874-4.152344zm0 0" fill="#855151"/><path d="m282.839844 28.679688 56.679687 27.191406c1.171875.5625 2.582031.070312 3.140625-1.101563l8.027344-16.730469c.5625-1.171874.066406-2.582031-1.105469-3.140624l-56.679687-27.191407c-1.171875-.5625-2.578125-.070312-3.140625 1.101563l-8.023438 16.730468c-.5625 1.171876-.070312 2.578126 1.101563 3.140626zm0 0" fill="#d9ab5e"/><path d="m349.582031 34.894531-14.503906-6.957031-7.09375 14.785156c-.5625 1.171875-1.96875 1.664063-3.140625 1.101563l-42.171875-20.230469-.9375 1.945312c-.558594 1.171876-.066406 2.578126 1.105469 3.140626l56.679687 27.191406c1.171875.5625 2.578125.066406 3.140625-1.105469l8.027344-16.730469c.5625-1.171875.066406-2.578125-1.105469-3.140625zm0 0" fill="#ca9d56"/><path d="m328.925781 202.851562h-81.550781c-1.273438 0-2.304688 2.296876-2.304688 5.128907v50.5c0 2.835937 1.03125 5.128906 2.304688 5.128906h81.550781c1.269531 0 2.304688-2.292969 2.304688-5.128906v-50.5c0-2.832031-1.035157-5.128907-2.304688-5.128907zm0 0" fill="#e6e2e6"/><path d="m327.925781 202.851562h-18.925781c1.824219 0 3.304688 2.296876 3.304688 5.128907v50.5c0 2.835937-1.480469 5.128906-3.304688 5.128906h18.925781c1.824219 0 3.304688-2.292969 3.304688-5.128906v-50.5c0-2.832031-1.480469-5.128907-3.304688-5.128907zm0 0" fill="#d8d1d7"/><path d="m229.105469 273.570312h-106.527344c-3.589844 0-6.5-2.910156-6.5-6.5v-44.769531c0-3.589843 2.910156-6.5 6.5-6.5h106.527344c3.589843 0 6.5 2.910157 6.5 6.5v44.769531c0 3.589844-2.910157 6.5-6.5 6.5zm0 0" fill="#e6e2e6"/><path d="m229.132812 215.800781h-15.9375c3.578126 0 6.476563 2.898438 6.476563 6.472657v44.824218c0 3.574219-2.902344 6.472656-6.476563 6.472656h15.9375c3.578126 0 6.472657-2.898437 6.472657-6.472656v-44.824218c0-3.574219-2.898438-6.472657-6.472657-6.472657zm0 0" fill="#d8d1d7"/><path d="m284.796875 289.90625-31.65625-31.660156c-2.539063-2.539063-2.539063-6.652344 0-9.191406l31.65625-31.65625c2.539063-2.539063 6.65625-2.539063 9.191406 0l31.660157 31.65625c2.539062 2.539062 2.539062 6.652343 0 9.191406l-31.660157 31.660156c-2.535156 2.535156-6.652343 2.535156-9.191406 0zm0 0" fill="#e6e2e6"/><path d="m325.667969 249.070312-31.695313-31.691406c-2.527344-2.53125-6.628906-2.53125-9.15625 0l-6.378906 6.378906 25.316406 25.3125c2.527344 2.53125 2.527344 6.628907 0 9.15625l-25.316406 25.316407 6.378906 6.378906c2.527344 2.527344 6.628906 2.527344 9.15625 0l31.695313-31.691406c2.527343-2.53125 2.527343-6.628907 0-9.160157zm0 0" fill="#d8d1d7"/><path d="m60.945312 228.710938 22.386719-38.773438c1.796875-3.109375 5.769531-4.171875 8.878907-2.378906l38.773437 22.386718c3.109375 1.796876 4.171875 5.769532 2.378906 8.878907l-22.386719 38.773437c-1.792968 3.109375-5.769531 4.175782-8.878906 2.378906l-38.773437-22.386718c-3.109375-1.792969-4.171875-5.769532-2.378907-8.878906zm0 0" fill="#e6e2e6"/><path d="m131.007812 209.957031-14.226562-8.210937-20.757812 35.953125c-1.789063 3.097656-5.746094 4.15625-8.84375 2.371093l-24.59375-14.199218-1.652344 2.863281c-1.789063 3.097656-.726563 7.054687 2.371094 8.84375l38.816406 22.410156c3.097656 1.789063 7.054687.726563 8.84375-2.371093l22.410156-38.816407c1.789062-3.09375.726562-7.054687-2.367188-8.84375zm0 0" fill="#d8d1d7"/><path d="m150.308594 246.757812-31.65625-31.660156c-2.539063-2.539062-2.539063-6.652344 0-9.191406l31.65625-31.660156c2.539062-2.535156 6.65625-2.535156 9.191406 0l31.660156 31.660156c2.535156 2.539062 2.535156 6.652344 0 9.191406l-31.660156 31.660156c-2.535156 2.535157-6.652344 2.535157-9.191406 0zm0 0" fill="#e6e2e6"/><path d="m232.503906 260.519531-31.65625-31.65625c-2.539062-2.539062-2.539062-6.65625 0-9.191406l31.65625-31.660156c2.539063-2.535157 6.65625-2.535157 9.191406 0l31.660157 31.660156c2.539062 2.535156 2.539062 6.652344 0 9.191406l-31.660157 31.65625c-2.535156 2.539063-6.652343 2.539063-9.191406 0zm0 0" fill="#e6e2e6"/><path d="m273.375 219.6875-10.363281-10.363281-29.300781 29.300781c-2.527344 2.527344-6.628907 2.527344-9.15625 0l-21.332032-21.332031-2.394531 2.394531c-2.527344 2.527344-2.527344 6.628906 0 9.15625l31.695313 31.695312c2.527343 2.527344 6.628906 2.527344 9.15625 0l31.695312-31.695312c2.527344-2.527344 2.527344-6.625 0-9.15625zm0 0" fill="#d8d1d7"/><path d="m191.175781 205.921875-10.363281-10.363281-29.296875 29.300781c-2.53125 2.527344-6.628906 2.527344-9.15625 0l-21.332031-21.332031-2.394532 2.394531c-2.527343 2.527344-2.527343 6.628906 0 9.15625l31.695313 31.695313c2.527344 2.527343 6.625 2.527343 9.15625 0l31.691406-31.695313c2.53125-2.527344 2.53125-6.625 0-9.15625zm0 0" fill="#d8d1d7"/><path d="m306.355469 504.527344h-209.214844c-3.773437 0-6.933594-2.863282-7.300781-6.621094l-23.949219-244.171875c-.425781-4.3125 2.964844-8.050781 7.300781-8.050781h259.03125c4.355469 0 7.753906 3.773437 7.292969 8.109375l-25.867187 244.171875c-.394532 3.730468-3.542969 6.5625-7.292969 6.5625zm0 0" fill="#b9acac"/><path d="m332.222656 245.683594h-58.300781l-24.25 228.921875c-.394531 3.734375-3.542969 6.566406-7.296875 6.566406h-154.175781l1.640625 16.734375c.371094 3.757812 3.527344 6.621094 7.300781 6.621094h209.214844c3.753906 0 6.902343-2.832032 7.296875-6.5625l25.867187-244.171875c.457031-4.335938-2.941406-8.109375-7.296875-8.109375zm0 0" fill="#9e9797"/><path d="m379.960938 267.867188h-34.421876l1.40625-13.289063c.441407-4.167969-.914062-8.347656-3.714843-11.460937-1.289063-1.429688-2.835938-2.566407-4.53125-3.390626v-31.746093c0-7.300781-4.109375-12.597657-9.773438-12.597657h-28.5l1.234375-12.808593c2.726563-28.316407 10.347656-55.679688 22.652344-81.332031l6.429688-13.40625c.058593-.023438.121093-.039063.179687-.0625 3.871094-1.601563 6.890625-4.78125 8.289063-8.730469l5.863281-16.585938c1.878906-.976562 3.394531-2.515625 4.324219-4.457031l8.027343-16.730469c2.339844-4.882812.273438-10.765625-4.609375-13.109375l-56.679687-27.1875c-2.367188-1.132812-5.03125-1.28125-7.507813-.410156-2.476562.867188-4.46875 2.652344-5.601562 5.015625l-8.023438 16.730469c-.933594 1.945312-1.1875 4.085937-.769531 6.164062l-9.265625 14.953125c-2.207031 3.5625-2.796875 7.90625-1.625 11.929688.019531.058593.046875.117187.0625.175781l-6.433594 13.410156c-.75 1.566406-1.515625 3.121094-2.296875 4.664063-1.867187 3.683593-.394531 8.175781 3.289063 10.039062 1.082031.550781 2.234375.808594 3.367187.808594 2.726563 0 5.355469-1.5 6.671875-4.097656.832032-1.640625 1.644532-3.292969 2.441406-4.953125l4.367188-9.109375 40.398438 19.378906-4.371094 9.105469c-11.183594 23.316406-18.710938 47.964844-22.464844 73.441406l-61.148438-29.332031c8.09375-8.730469 15.601563-18.03125 22.394532-27.777344 2.359375-3.386719 1.527344-8.042969-1.855469-10.402344-3.386719-2.355469-8.042969-1.527343-10.402344 1.859375-8.730469 12.53125-18.707031 24.285156-29.644531 34.941406l-27.988281 27.253907c-3.230469 3.144531-6.28125 6.496093-9.171875 9.972656l-5.789063-5.789063c-2.636719-2.632812-6.136719-4.085937-9.863281-4.085937-3.722656 0-7.226562 1.449219-9.859375 4.085937l-25.667969 25.667969-23.453125-13.539062c-3.226562-1.863281-6.984375-2.355469-10.582031-1.390625-3.597656.960937-6.605469 3.269531-8.464844 6.496094l-22.414062 38.820312c-1.863282 3.226562-2.359375 6.984375-1.394532 10.582031.964844 3.597657 3.273438 6.605469 6.496094 8.464844l1.324219.765625c-1.882813 2.824219-2.773437 6.234375-2.4375 9.652344l1.316406 13.402344h-34.257812c-13.792969 0-25.011719 11.222656-25.011719 25.015624 0 13.792969 11.21875 25.011719 25.011719 25.011719h39.164062l10.570313 107.761719c.402344 4.105469 4.0625 7.105469 8.164062 6.703125 4.105469-.402344 7.109375-4.054687 6.707032-8.164063l-2.742188-27.941406h229.539062l-10.679687 100.804688h-208.972656l-3.953125-40.3125c-.402344-4.105469-4.046875-7.109375-8.164063-6.703125-4.105469.402343-7.109375 4.058593-6.707031 8.164062l3.96875 40.429688c.746094 7.617187 7.082031 13.359375 14.734375 13.359375h209.214844c7.59375 0 13.921875-5.691406 14.722656-13.246094l19.160156-180.855469h39.722657c13.792968 0 25.015624-11.21875 25.015624-25.011719 0-13.792968-11.222656-25.015624-25.015624-25.015624zm-102.199219-216.726563 7.933593-12.804687 44.507813 21.351562-5.019531 14.199219zm16.523437-34.488281 47.453125 22.765625-3.597656 7.507812-47.457031-22.765625zm-220.945312 236.5h258.730468l-9.988281 94.292968h-239.496093zm133.476562-28.886719 30.285156-30.285156 30.273438 30.273437-7.578125 7.578125c-.078125.082031-.148437.167969-.222656.25l-6.132813 6.128907h-32.679687zm-15.296875 1.039063c.238281 3.214843 1.570313 6.367187 4.027344 8.824218l4.082031 4.082032h-21.019531zm132.238281 11.292968-11.957031-11.957031c-2.917969-2.917969-7.648437-2.917969-10.566406 0s-2.917969 7.648437 0 10.5625l3.003906 3.007813h-29.667969l4.082032-4.082032c.082031-.082031.152344-.171875.230468-.253906l.679688-.679688c.84375-.847656 1.4375-1.847656 1.792969-2.910156 2.480469-5.183594 1.589843-11.589844-2.699219-15.878906l-4.085938-4.085938h17.617188c.007812 0 .015625.003907.023438.003907.003906 0 .011718-.003907.019531-.003907h31.527343zm-133.605468-61.128906 26-25.320312 70.367187 33.753906-1.105469 11.480468h-25.785156l-12.667968-12.671874c-5.4375-5.4375-14.285157-5.4375-19.722657 0l-26.746093 26.746093c-.246094-3.328125-1.644532-6.429687-4.03125-8.816406l-15.296876-15.292969c2.808594-3.460937 5.804688-6.777344 8.988282-9.878906zm-35.246094 4.746094 30.285156 30.285156-27.710937 27.710938h-5.152344l-27.710937-27.710938zm-65.589844 14.300781 20.578125 11.878906c-1.464843 4.78125-.316406 10.195313 3.457031 13.96875l17.847657 17.847657h-51.859375l-11.4375-6.601563zm-63.804687 108.4375c-5.550781 0-10.070313-4.515625-10.070313-10.070313 0-5.554687 4.519532-10.074218 10.070313-10.074218h35.722656l1.976563 20.144531zm60.398437 78.359375-1.855468-18.925781h236.445312l-2.003906 18.925781zm294.050782-78.359375h-38.140626l2.132813-20.144531h36.007813c5.554687 0 10.074218 4.519531 10.074218 10.074218 0 5.554688-4.519531 10.070313-10.074218 10.070313zm0 0"/></svg>