<svg height="511pt" viewBox="0 -26 511.9999 511" width="511pt" xmlns="http://www.w3.org/2000/svg"><path d="m493.371094 8.058594h-230.238282c-6.113281 0-11.070312 4.957031-11.070312 11.070312v115.445313c0 18.472656 4.199219 36.703125 12.277344 53.3125 8.078125 16.613281 12.277344 34.84375 12.277344 53.3125v116.328125c0 6.113281 4.953124 11.070312 11.070312 11.070312h181.132812c6.113282 0 11.070313-4.957031 11.070313-11.070312v-116.328125c0-18.46875 4.199219-36.699219 12.273437-53.3125 8.078126-16.609375 12.277344-34.839844 12.277344-53.3125v-115.445313c0-6.113281-4.957031-11.070312-11.070312-11.070312zm0 0" fill="#efe2dd"/><path d="m493.371094 8.058594h-63.738282v105.753906c0 18.472656-4.195312 36.703125-12.273437 53.3125-8.078125 16.613281-12.277344 34.84375-12.277344 53.316406v87.082032c0 22.261718-18.050781 40.3125-40.3125 40.3125h-88.15625v9.691406c0 6.113281 4.957031 11.070312 11.070313 11.070312h181.136718c6.113282 0 11.070313-4.957031 11.070313-11.070312v-116.328125c0-18.296875 3.980469-36.429688 12.050781-52.851563 8.222656-16.734375 12.5-35.128906 12.5-53.773437v-115.445313c0-6.113281-4.957031-11.070312-11.070312-11.070312zm0 0" fill="#e1d3ce"/><path d="m503.757812 147.371094c.445313-4.242188.683594-8.511719.683594-12.796875v-32.90625c-21.050781-1.761719-22.761718-14.28125-46.976562-14.28125-26.042969 0-26.042969 14.492187-52.089844 14.492187-26.042969 0-26.042969-14.492187-52.082031-14.492187-26.042969 0-26.042969 14.492187-52.085938 14.492187-25.015625 0-26.011719-13.371094-49.144531-14.421875v47.117188c0 4.285156.238281 8.558593.683594 12.796875zm0 0" fill="#fff5f5"/><path d="m457.464844 87.382812c-14.207032 0-20.667969 4.316407-27.832032 8.234376v18.195312c0 11.386719-1.597656 22.679688-4.714843 33.558594h78.839843c.445313-4.242188.683594-8.511719.683594-12.796875v-32.90625c-21.050781-1.761719-22.761718-14.285157-46.976562-14.285157zm0 0" fill="#efe2dd"/><path d="m252.257812 141.367188c.898438 16.132812 4.996094 31.949218 12.082032 46.519531 8.078125 16.609375 12.277344 34.839843 12.277344 53.3125v116.328125c0 6.113281 4.957031 11.070312 11.070312 11.070312h181.132812c6.113282 0 11.070313-4.957031 11.070313-11.070312v-116.328125c0-18.46875 4.199219-36.699219 12.273437-53.3125 7.085938-14.570313 11.1875-30.386719 12.085938-46.519531zm0 0" fill="#ffa812"/><path d="m426.476562 141.367188c-2.058593 8.871093-5.109374 17.515624-9.117187 25.757812-8.078125 16.613281-12.277344 34.84375-12.277344 53.3125v87.082031c0 22.265625-18.050781 40.316407-40.3125 40.316407h-88.15625v9.691406c0 6.113281 4.957031 11.070312 11.070313 11.070312h181.136718c6.113282 0 11.070313-4.957031 11.070313-11.070312v-116.609375c0-18.589844 4.496094-36.828125 12.542969-53.585938 6.921875-14.417969 10.925781-30.035156 11.816406-45.964843zm0 0" fill="#ff9a00"/><path d="m288.65625 451.824219c-3.238281 0-6.515625-.820313-9.523438-2.550781-1.59375-.914063-13.460937-7.84375-29.582031-19.957032-.277343-.207031-.644531-.261718-.964843-.136718-37.25 14.472656-78.339844 14.496093-115.597657.078124-.324219-.125-.695312-.070312-.96875.136719-15.757812 11.984375-27.316406 18.871094-28.882812 19.792969-9.121094 5.351562-20.855469 2.296875-26.207031-6.824219-5.355469-9.117187-2.300782-20.851562 6.820312-26.207031.195312-.117188 3.765625-2.253906 9.542969-6.175781.59375-.402344.601562-1.269531.007812-1.667969-9.039062-6.097656-19.941406-14.453125-30.863281-25.238281-34.753906-34.300781-53.714844-77.222657-54.84375-124.117188-.765625-31.820312 11.507812-63.046875 33.679688-85.667969 21.839843-22.292968 50.921874-34.554687 81.921874-34.554687h.441407c24.449219.09375 47.140625 7.832031 65.8125 20.941406.695312.488281 1.613281.488281 2.308593 0 19.128907-13.476562 41.878907-20.804687 65.753907-20.9375.21875 0 .445312-.003906.664062-.003906 30.945313 0 59.984375 12.210937 81.839844 34.429687 22.167969 22.539063 34.476563 53.652344 33.773437 85.367188-1.035156 46.558594-19.957031 89.4375-54.722656 124.003906-10.933594 10.871094-21.847656 19.328125-30.890625 25.511719-.589843.402344-.578125 1.269531.019531 1.667969 6.058594 4.042968 9.816407 6.234375 10.023438 6.351562 9.167969 5.273438 12.328125 16.976563 7.058594 26.144532-3.542969 6.164062-9.992188 9.613281-16.621094 9.613281zm-119.828125-52.074219c14.441406 2.644531 29.234375 2.648438 43.675781.007812.804688-.144531 1.101563-1.140624.519532-1.710937-7.292969-7.136719-14.621094-14.945313-21.644532-23.382813-.402344-.484374-1.140625-.480468-1.539062 0-7 8.429688-14.285156 16.238282-21.535156 23.378907-.578126.570312-.277344 1.5625.523437 1.707031zm-45.628906-222.714844c-20.625 0-39.996094 8.183594-54.574219 23.058594-15.191406 15.507812-23.269531 36.085938-22.746094 57.945312 1.820313 75.667969 61.183594 114.882813 79.761719 125.316407.746094.417969 1.664063.324219 2.308594-.242188 12.71875-11.179687 26.394531-24.855469 38.40625-40.511719.742187-.96875.816406-2.289062.210937-3.347656-14.296875-24.953125-24.046875-53.476562-24.046875-84.859375 0-22.902343 6.621094-44.804687 18.953125-63.503906.964844-1.460937.457032-3.445313-1.078125-4.292969-10.964843-6.046875-23.542969-9.511718-36.902343-9.5625-.097657 0-.195313 0-.292969 0zm91.617187 165.640625c12.023438 15.65625 25.738282 29.277344 38.527344 40.398438.648438.5625 1.570312.652343 2.316406.222656 7.789063-4.480469 22.609375-13.996094 37.296875-28.816406 27.417969-27.660157 41.730469-60.230469 42.542969-96.800781.480469-21.75-7.609375-42.226563-22.789062-57.65625-14.589844-14.835938-33.945313-22.988282-54.542969-22.988282-.148438 0-.292969 0-.441407 0-13.335937.078125-25.890624 3.558594-36.835937 9.621094-1.53125.847656-2.035156 2.828125-1.070313 4.292969 12.023438 18.238281 19.03125 40.050781 19.03125 63.445312 0 31.308594-9.847656 59.882813-24.246093 84.929688-.605469 1.0625-.53125 2.382812.210937 3.351562zm-23.238281-124.386719c-.375-.707031-1.402344-.707031-1.773437 0-5.734376 10.792969-8.984376 23.085938-8.984376 36.105469 0 15.757813 3.324219 30.789063 8.859376 44.894531.332031.847657 1.542968.847657 1.878906.003907 5.613281-14.152344 8.996094-29.191407 8.996094-44.898438 0-13.023437-3.25-25.316406-8.976563-36.105469zm0 0" fill="#e75920"/><path d="m340.015625 173.167969c-21.855469-22.21875-50.894531-34.429688-81.839844-34.429688-.21875 0-.445312 0-.664062 0-1.671875.011719-3.335938.066407-4.996094.144531 22.441406 4.410157 43.058594 15.480469 59.574219 32.269532 22.167968 22.535156 34.476562 53.648437 33.773437 85.363281-1.035156 46.558594-19.957031 89.4375-54.722656 124.003906-10.449219 10.390625-20.878906 18.574219-29.675781 24.675781-1.171875.8125-1.136719 2.550782.054687 3.335938 5.320313 3.511719 8.582031 5.414062 8.769531 5.523438 9.171876 5.269531 12.332032 16.972656 7.0625 26.144531-1.195312 2.074219-2.722656 3.835937-4.476562 5.269531 3.421875 2.15625 5.632812 3.445312 6.257812 3.804688 3.007813 1.726562 6.285157 2.550781 9.523438 2.550781 6.632812 0 13.078125-3.449219 16.621094-9.609375 5.269531-9.167969 2.109375-20.875-7.058594-26.144532-.207031-.121093-3.964844-2.3125-10.023438-6.351562-.59375-.398438-.605468-1.269531-.015624-1.671875 9.042968-6.183594 19.953124-14.640625 30.886718-25.511719 34.765625-34.566406 53.6875-77.445312 54.722656-124.003906.703126-31.714844-11.605468-62.828125-33.773437-85.363281zm0 0" fill="#c84b1a"/><path d="m493.371094.5h-230.238282c-10.269531 0-18.625 8.355469-18.625 18.628906v112.804688c-19.304687 2.113281-37.683593 8.703125-53.910156 19.386718-19.941406-13.097656-42.996094-20.050781-66.9375-20.140624h-.464844c-33.042968 0-64.054687 13.078124-87.324218 36.820312-23.585938 24.070312-36.648438 57.289062-35.8359378 91.140625 1.1757818 48.890625 20.9179688 93.609375 57.0898438 129.316406 7.421875 7.328125 15.449219 14.1875 23.953125 20.476563-.75.464844-1.152344.703125-1.15625.707031-12.699219 7.453125-16.96875 23.851563-9.515625 36.550781 7.457031 12.703125 23.851562 16.96875 36.558594 9.515625 1.242187-.730469 11.96875-7.101562 26.730468-18.109375 36.972657 13.390625 77.25 13.363282 114.207032-.085937 15.179687 11.1875 26.191406 17.585937 27.460937 18.316406 4.046875 2.328125 8.644531 3.554687 13.292969 3.554687 9.542969 0 18.421875-5.136718 23.171875-13.402343 7.339844-12.765625 2.921875-29.125-9.832031-36.457031-.015625-.007813-.5625-.324219-1.574219-.945313 8.507813-6.363281 16.546875-13.296875 23.976563-20.683594 3.835937-3.816406 7.476562-7.734375 10.941406-11.742187h133.480468c10.269532 0 18.628907-8.355469 18.628907-18.625v-29.890625c0-4.175781-3.386719-7.558594-7.558594-7.558594-4.175781 0-7.5625 3.382813-7.5625 7.558594v29.890625c0 1.933594-1.574219 3.507812-3.507813 3.507812h-121.605468c21.605468-30.414062 33.308594-65.242187 34.132812-102.335937.746094-33.742188-12.351562-66.847657-35.941406-90.832031-22.929688-23.3125-53.34375-36.292969-85.78125-36.667969v-35.101563c4.664062 1.148438 8.09375 3.050782 11.863281 5.144532 6.910157 3.839843 14.742188 8.195312 29.722657 8.195312 14.980468 0 22.808593-4.355469 29.71875-8.203125 6.066406-3.375 11.304687-6.292969 22.363281-6.292969 11.0625 0 16.300781 2.917969 22.367187 6.292969 6.90625 3.84375 14.734375 8.203125 29.71875 8.203125s22.8125-4.355469 29.722656-8.203125c6.066407-3.375 11.304688-6.292969 22.367188-6.292969s16.304688 2.917969 22.375 6.292969c4.597656 2.554687 9.679688 5.371094 17.039062 6.945313v25.628906h-153.367187c-4.175781 0-7.558594 3.382812-7.558594 7.558594 0 4.175781 3.382813 7.558593 7.558594 7.558593h152.441406c-1.574219 12.355469-5.152343 24.476563-10.589843 35.65625-8.527344 17.539063-13.035157 37.117188-13.035157 56.617188v54.175781c0 4.175781 3.382813 7.558594 7.558594 7.558594s7.558594-3.382813 7.558594-7.558594v-54.175781c0-17.222657 3.980469-34.515625 11.515625-50.003907 8.527344-17.542968 13.035156-37.121093 13.035156-56.621093v-115.445313c0-10.273437-8.355469-18.628906-18.628906-18.628906zm-127.140625 257.863281c-.988281 44.566407-19.140625 85.652344-52.492188 118.8125-9.058593 9.007813-19.097656 17.296875-29.832031 24.632813-2.347656 1.609375-3.742188 4.269531-3.722656 7.113281.015625 2.851563 1.441406 5.5 3.8125 7.082031 6.480468 4.324219 10.40625 6.59375 10.453125 6.621094 2.683593 1.542969 4.609375 4.039062 5.414062 7.027344.808594 2.988281.402344 6.113281-1.140625 8.796875-2.0625 3.585937-5.917968 5.816406-10.066406 5.816406-2.007812 0-4-.535156-5.761719-1.546875-1.269531-.730469-12.871093-7.472656-28.804687-19.445312-1.515625-1.136719-3.308594-1.726563-5.132813-1.726563-1.042969 0-2.097656.191406-3.113281.585937-35.5 13.792969-74.613281 13.820313-110.136719.070313-2.75-1.058594-5.914062-.609375-8.265625 1.175781-15.542968 11.816406-26.890625 18.558594-28.132812 19.285156-5.511719 3.234376-12.628906 1.386719-15.863282-4.125-3.234374-5.511718-1.382812-12.628906 4.140626-15.871093.035156-.019531 3.785156-2.246094 9.949218-6.433594 2.359375-1.597656 3.765625-4.253906 3.765625-7.105469-.003906-2.84375-1.414062-5.492187-3.777343-7.082031-10.714844-7.226563-20.734376-15.421875-29.777344-24.347656-33.332032-32.902344-51.519532-74.023438-52.597656-118.921875-.714844-29.792969 10.773437-59.023438 31.519531-80.199219 20.402343-20.816406 47.578125-32.28125 76.527343-32.28125h.410157c22.121093.082031 43.386719 6.847656 61.5 19.566406 3.292969 2.3125 7.714843 2.308594 11.003906-.007812 17.988281-12.667969 39.234375-19.433594 61.453125-19.558594h.613281c28.894531 0 56.046875 11.425781 76.453125 32.171875 20.742188 21.089844 32.261719 50.210938 31.601563 79.894531zm120.960937-170.339843c-6.910156-3.84375-14.742187-8.199219-29.726562-8.199219s-22.8125 4.359375-29.71875 8.203125c-6.070313 3.375-11.308594 6.292968-22.371094 6.292968-11.058594 0-16.296875-2.917968-22.363281-6.292968-6.90625-3.84375-14.738281-8.203125-29.71875-8.203125-14.984375 0-22.8125 4.359375-29.71875 8.203125-6.066407 3.375-11.308594 6.292968-22.367188 6.292968-11.058593 0-16.304687-2.914062-22.375-6.292968-5.054687-2.808594-10.65625-5.914063-19.210937-7.359375v-61.539063c0-1.9375 1.578125-3.511718 3.511718-3.511718h230.238282c1.9375 0 3.511718 1.574218 3.511718 3.511718v73.425782c-3.601562-1.152344-6.519531-2.769532-9.691406-4.53125zm0 0"/><path d="m376.292969 118.359375c0 4.511719-3.65625 8.167969-8.167969 8.167969-4.507812 0-8.167969-3.65625-8.167969-8.167969s3.660157-8.167969 8.167969-8.167969c4.511719 0 8.167969 3.65625 8.167969 8.167969zm0 0"/><path d="m422.117188 176.921875c0 4.511719-3.65625 8.167969-8.167969 8.167969s-8.167969-3.65625-8.167969-8.167969 3.65625-8.167969 8.167969-8.167969 8.167969 3.65625 8.167969 8.167969zm0 0"/><path d="m449.664062 193.871094c0 4.511718-3.65625 8.167968-8.167968 8.167968-4.511719 0-8.167969-3.65625-8.167969-8.167968 0-4.511719 3.65625-8.167969 8.167969-8.167969 4.511718 0 8.167968 3.65625 8.167968 8.167969zm0 0"/><path d="m173.125 335.496094c-15.292969-26.691406-23.046875-53.980469-23.046875-81.101563 0-21.257812 6.121094-41.78125 17.703125-59.339843 1.613281-2.445313 2.132812-5.484376 1.429688-8.332032-.703126-2.863281-2.589844-5.320312-5.167969-6.742187-12.359375-6.816407-26.371094-10.449219-40.511719-10.5h-.332031c-22.671875 0-43.96875 8.992187-59.972657 25.324219-16.632812 16.976562-25.480468 39.496093-24.90625 63.417968.597657 24.726563 7.117188 48.003906 19.382813 69.175782 2.09375 3.609374 6.71875 4.839843 10.332031 2.75 3.609375-2.09375 4.84375-6.71875 2.75-10.332032-10.980468-18.949218-16.816406-39.796875-17.351562-61.960937-.472656-19.800781 6.835937-38.433594 20.589844-52.46875 13.136718-13.40625 30.601562-20.789063 49.175781-20.789063h.261719c10.011718.035156 19.9375 2.253906 28.980468 6.445313-11.453125 19.046875-17.484375 40.84375-17.484375 63.351562 0 28.886719 7.925781 57.796875 23.558594 85.972657-9.195313 11.65625-20.132813 23.210937-32.582031 34.417968-8.679688-5.207031-22.492188-14.710937-35.804688-29.003906-2.84375-3.054688-7.628906-3.222656-10.683594-.378906-3.054687 2.84375-3.222656 7.628906-.378906 10.683594 16.617188 17.84375 33.992188 28.875 42.871094 33.859374 1.460938.820313 3.074219 1.222657 4.675781 1.222657 2.277344 0 4.535157-.808594 6.324219-2.375 15.285156-13.4375 28.542969-27.429688 39.414062-41.589844 2.601563-3.390625 2.90625-7.984375.773438-11.707031zm0 0"/><path d="m190.605469 307.484375h.011719c3.539062 0 6.664062-2.121094 7.964843-5.402344 6.324219-15.941406 9.53125-31.984375 9.53125-47.6875 0-13.789062-3.410156-27.5-9.859375-39.648437v-.003906c-1.488281-2.800782-4.386718-4.542969-7.566406-4.542969-3.175781 0-6.074219 1.742187-7.5625 4.542969-6.453125 12.152343-9.867188 25.867187-9.867188 39.65625 0 15.75 3.15625 31.78125 9.382813 47.65625 1.292969 3.289062 4.421875 5.421874 7.964844 5.429687zm.082031-70.839844c1.523438 5.777344 2.308594 11.753907 2.308594 17.75 0 7.21875-.78125 14.546875-2.332032 21.917969-1.519531-7.355469-2.289062-14.679688-2.289062-21.917969 0-5.996093.785156-11.972656 2.3125-17.75zm0 0"/><path d="m257.683594 169.480469c-14.125.078125-28.117188 3.730469-40.457032 10.566406-2.574218 1.421875-4.449218 3.878906-5.152343 6.738281-.699219 2.847656-.175781 5.878906 1.433593 8.324219 11.636719 17.648437 17.785157 38.148437 17.785157 59.285156 0 27.027344-7.820313 54.335938-23.238281 81.167969-2.144532 3.722656-1.839844 8.324219.765624 11.71875 10.890626 14.179688 24.199219 28.140625 39.558594 41.496094 1.78125 1.550781 4.023438 2.347656 6.28125 2.347656 1.636719 0 3.285156-.417969 4.769532-1.273438 7.921874-4.554687 23.503906-14.519531 38.898437-30.046874 28.824219-29.082032 43.871094-63.382813 44.730469-101.953126.527344-23.808593-8.335938-46.230468-24.957032-63.125-16.011718-16.28125-37.296874-25.246093-59.929687-25.246093zm-2.386719 205.242187c-12.484375-11.128906-23.441406-22.632812-32.636719-34.277344 15.761719-28.308593 23.75-57.246093 23.75-86.050781 0-22.410156-6.058594-44.1875-17.570312-63.304687 8.078125-3.761719 16.859375-5.933594 25.769531-6.390625.921875 2.1875 1.898437 4.363281 2.929687 6.492187 7.535157 15.492188 11.515626 32.78125 11.515626 50.007813v116.324219c0 2.371093.453124 4.667968 1.292968 6.808593-5.785156 4.457031-11.019531 7.921875-15.050781 10.390625zm72.644531-117.207031c-.765625 34.570313-14.34375 65.40625-40.351562 91.644531-1.140625 1.148438-2.277344 2.253906-3.414063 3.335938v-111.296875c0-19-4.292969-38.066407-12.398437-55.253907 13.371094 2.691407 25.671875 9.339844 35.546875 19.378907 13.734375 13.960937 21.054687 32.496093 20.617187 52.191406zm0 0"/><path d="m197.191406 369.824219c-1.632812-1.957031-4.03125-3.082031-6.582031-3.082031h-.003906c-2.550781.003906-4.953125 1.128906-6.582031 3.09375-6.390626 7.699218-13.464844 15.378906-21.023438 22.820312-2.285156 2.253906-3.117188 5.558594-2.175781 8.625.945312 3.066406 3.488281 5.328125 6.640625 5.90625h.003906c7.703125 1.410156 15.460938 2.113281 23.21875 2.113281 7.742188 0 15.488281-.703125 23.175781-2.105469 3.160157-.578124 5.707031-2.847656 6.648438-5.917968.941406-3.078125.097656-6.382813-2.199219-8.632813-7.609375-7.445312-14.714844-15.121093-21.121094-22.820312zm-14.289062 24.089843c2.648437-2.820312 5.222656-5.660156 7.714844-8.511718 2.507812 2.855468 5.097656 5.695312 7.761718 8.519531-5.15625.351563-10.320312.347656-15.476562-.007813zm0 0"/><path d="m103.636719 161.160156c0 4.511719-3.65625 8.167969-8.167969 8.167969s-8.167969-3.65625-8.167969-8.167969c0-4.511718 3.65625-8.167968 8.167969-8.167968s8.167969 3.65625 8.167969 8.167968zm0 0"/><path d="m130.621094 157.832031c0 4.511719-3.65625 8.167969-8.167969 8.167969s-8.167969-3.65625-8.167969-8.167969 3.65625-8.167969 8.167969-8.167969 8.167969 3.65625 8.167969 8.167969zm0 0"/><path d="m175.566406 300.007812c0 4.511719-3.65625 8.167969-8.167968 8.167969-4.507813 0-8.167969-3.65625-8.167969-8.167969 0-4.511718 3.660156-8.167968 8.167969-8.167968 4.511718 0 8.167968 3.65625 8.167968 8.167968zm0 0"/><path d="m195.496094 348.898438c0 4.511718-3.65625 8.167968-8.167969 8.167968s-8.167969-3.65625-8.167969-8.167968c0-4.511719 3.65625-8.167969 8.167969-8.167969s8.167969 3.65625 8.167969 8.167969zm0 0"/><path d="m251.527344 159.847656c0 4.511719-3.65625 8.167969-8.167969 8.167969s-8.167969-3.65625-8.167969-8.167969c0-4.511718 3.65625-8.167968 8.167969-8.167968s8.167969 3.65625 8.167969 8.167968zm0 0"/><path d="m203.664062 190.671875c0 4.511719-3.65625 8.167969-8.167968 8.167969-4.511719 0-8.167969-3.65625-8.167969-8.167969s3.65625-8.167969 8.167969-8.167969c4.511718 0 8.167968 3.65625 8.167968 8.167969zm0 0"/><path d="m41.152344 227.128906c0 4.511719-3.65625 8.167969-8.167969 8.167969s-8.167969-3.65625-8.167969-8.167969c0-4.511718 3.65625-8.167968 8.167969-8.167968s8.167969 3.65625 8.167969 8.167968zm0 0"/><path d="m334.445312 346.882812c0 4.511719-3.660156 8.167969-8.167968 8.167969-4.511719 0-8.167969-3.65625-8.167969-8.167969 0-4.511718 3.65625-8.167968 8.167969-8.167968 4.507812 0 8.167968 3.65625 8.167968 8.167968zm0 0"/></svg>