<svg height="512pt" viewBox="0 -5 512 512" width="512pt" xmlns="http://www.w3.org/2000/svg"><path d="m191.59375 127.605469-21.496094-21.5-53.828125 53.828125 21.496094 21.5c26.34375 26.339844 47.839844 57.117187 63.507813 90.917968l20.9375 45.160157c7.621093 16.441406 18.078124 31.414062 30.894531 44.230469l126.820312 126.820312c7.699219 7.699219 20.183594 7.699219 27.882813 0l90.917968-90.917969c7.699219-7.699219 7.699219-20.179687 0-27.878906l-126.824218-126.824219c-12.8125-12.8125-27.785156-23.273437-44.226563-30.894531l-45.164062-20.933594c-33.796875-15.667969-64.574219-37.167969-90.917969-63.507812zm0 0" fill="#9c5e5e"/><path d="m327.675781 212.046875-45.164062-20.933594c-33.796875-15.667969-64.574219-37.167969-90.917969-63.507812l-21.496094-21.5-35.121094 35.125 5.761719 5.761719c26.34375 26.34375 57.117188 47.84375 90.917969 63.511718l45.164062 20.933594c16.441407 7.621094 31.414063 18.078125 44.226563 30.894531l104.214844 104.214844c20.183593 20.183594 20.183593 52.910156 0 73.09375l-47.125 47.128906 1.792969 1.792969c7.699218 7.699219 20.179687 7.699219 27.878906 0l90.917968-90.917969c7.699219-7.699219 7.699219-20.179687 0-27.878906l-126.824218-126.824219c-12.8125-12.8125-27.785156-23.273437-44.226563-30.894531zm0 0" fill="#855151"/><path d="m172.707031 114.828125-47.714843 47.714844c-3.917969 3.917969-10.359376 3.570312-13.832032-.742188l-20.070312-24.921875 55.957031-55.953125 24.917969 20.066407c4.3125 3.476562 4.65625 9.917968.742187 13.835937zm0 0" fill="#9c5e5e"/><path d="m171.964844 100.992188-24.921875-20.066407-14.925781 14.925781 24.921874 20.066407c4.3125 3.472656 4.65625 9.917969.742188 13.832031l14.925781-14.921875c3.914063-3.917969 3.570313-10.359375-.742187-13.835937zm0 0" fill="#855151"/><path d="m127.804688 69.878906-47.761719 47.761719c-3.621094 3.625-3.621094 9.5 0 13.121094l15.199219 15.199219c1.121093 1.121093 2.9375 1.121093 4.058593 0l56.824219-56.824219c1.121094-1.121094 1.121094-2.9375 0-4.058594l-15.199219-15.199219c-3.621093-3.621094-9.496093-3.621094-13.121093 0zm0 0" fill="#eab765"/><path d="m127.804688 69.882812-10.878907 10.878907 15.089844 15.089843c1.121094 1.125 1.121094 2.941407 0 4.0625l-41.410156 41.410157 4.636719 4.636719c1.121093 1.121093 2.9375 1.121093 4.0625 0l56.820312-56.820313c1.121094-1.125 1.121094-2.941406 0-4.0625l-15.199219-15.199219c-3.621093-3.621094-9.496093-3.621094-13.121093.003906zm0 0" fill="#ca9d56"/><path d="m265.988281 374.628906 118.796875-118.800781 73.292969 73.296875-118.796875 118.796875zm0 0" fill="#eab765"/><path d="m349.664062 290.953125 35.121094-35.125 73.296875 73.296875-35.125 35.121094zm0 0" fill="#ca9d56"/><path d="m375.96875 166.125 21.496094-21.496094-53.828125-53.828125-21.496094 21.496094c-26.34375 26.34375-57.121094 47.839844-90.917969 63.507813l-45.164062 20.9375c-16.441406 7.621093-31.414063 18.078124-44.230469 30.894531l-126.820313 126.824219c-7.699218 7.695312-7.699218 20.179687 0 27.878906l90.917969 90.917968c7.699219 7.699219 20.183594 7.699219 27.882813 0l126.820312-126.824218c12.816406-12.8125 23.273438-27.785156 30.894532-44.226563l20.9375-45.164062c15.667968-33.796875 37.164062-64.574219 63.507812-90.917969zm0 0" fill="#9c5e5e"/><path d="m291.523438 302.207031 20.9375-45.164062c15.667968-33.796875 37.164062-64.574219 63.507812-90.917969l21.496094-21.496094-35.125-35.121094-5.761719 5.761719c-26.34375 26.34375-47.839844 57.117188-63.507813 90.917969l-20.9375 45.164062c-7.621093 16.441407-18.078124 31.414063-30.894531 44.226563l-104.214843 104.214844c-20.183594 20.183593-52.910157 20.183593-73.09375 0l-47.128907-47.128907-1.792969 1.796876c-7.699218 7.695312-7.699218 20.179687 0 27.878906l90.917969 90.917968c7.699219 7.699219 20.183594 7.699219 27.882813 0l126.820312-126.824218c12.816406-12.8125 23.273438-27.785156 30.894532-44.226563zm0 0" fill="#855151"/><path d="m343.636719 90.800781-21.496094 21.496094c-25.613281 25.613281-55.421875 46.628906-88.117187 62.175781l79.773437 79.769532c15.546875-32.695313 36.558594-62.503907 62.171875-88.117188l21.496094-21.496094zm0 0" fill="#eab765"/><path d="m362.339844 109.507812-5.761719 5.761719c-26.34375 26.34375-47.839844 57.117188-63.507813 90.917969l-8.660156 18.675781 29.382813 29.378907c15.546875-32.695313 36.5625-62.503907 62.175781-88.117188l21.496094-21.496094zm0 0" fill="#ca9d56"/><path d="m388.742188 147.238281-47.714844-47.714843c-3.914063-3.917969-3.566406-10.363282.742187-13.832032l24.921875-20.070312 55.953125 55.953125-20.066406 24.921875c-3.472656 4.3125-9.917969 4.65625-13.835937.742187zm0 0" fill="#eab765"/><path d="m402.578125 146.496094 20.066406-24.921875-14.921875-14.921875-20.070312 24.917968c-3.472656 4.3125-9.917969 4.660157-13.832032.746094l14.925782 14.921875c3.914062 3.914063 10.359375 3.570313 13.832031-.742187zm0 0" fill="#ca9d56"/><path d="m504.5 280.75c0 9.101562-7.378906 16.480469-16.484375 16.480469-9.101563 0-16.480469-7.378907-16.480469-16.480469 0-9.105469 7.378906-16.484375 16.480469-16.484375 9.105469 0 16.484375 7.378906 16.484375 16.484375zm0 0" fill="#ffea7e"/><path d="m494.027344 265.414062c.5 1.574219.773437 3.25.773437 4.988282 0 9.105468-7.378906 16.484375-16.480469 16.484375-2.125 0-4.148437-.417969-6.011718-1.148438 2.113281 6.664063 8.34375 11.492188 15.707031 11.492188 9.101563 0 16.484375-7.378907 16.484375-16.480469 0-6.980469-4.34375-12.933594-10.472656-15.335938zm0 0" fill="#ffe02f"/><path d="m224.699219 23.984375c0 9.101563-7.378907 16.480469-16.484375 16.480469-9.101563 0-16.480469-7.378906-16.480469-16.480469 0-9.105469 7.378906-16.484375 16.480469-16.484375 9.105468 0 16.484375 7.378906 16.484375 16.484375zm0 0" fill="#ffea7e"/><path d="m214.226562 8.648438c.5 1.574218.773438 3.246093.773438 4.988281 0 9.101562-7.378906 16.480469-16.484375 16.480469-2.121094 0-4.144531-.414063-6.011719-1.144532 2.117188 6.664063 8.347656 11.492188 15.710938 11.492188 9.101562 0 16.480468-7.378906 16.480468-16.484375.003907-6.976563-4.339843-12.929688-10.46875-15.332031zm0 0" fill="#ffe02f"/><path d="m273.988281 112.308594-17.265625-17.265625c-2.34375-2.34375-2.34375-6.140625 0-8.484375l17.265625-17.265625c2.34375-2.34375 6.140625-2.34375 8.484375 0l17.265625 17.265625c2.34375 2.34375 2.34375 6.140625 0 8.484375l-17.265625 17.265625c-2.339844 2.34375-6.140625 2.34375-8.484375 0zm0 0" fill="#2dd2e3"/><path d="m297.15625 83.976562-14.683594 14.683594c-2.339844 2.34375-6.140625 2.34375-8.484375 0l-14.683593-14.683594-2.582032 2.582032c-2.34375 2.34375-2.34375 6.140625 0 8.488281l17.265625 17.265625c2.34375 2.339844 6.140625 2.339844 8.484375 0l17.265625-17.265625c2.34375-2.34375 2.34375-6.144531 0-8.488281zm0 0" fill="#00c8de"/><path d="m238.632812 466.132812h-24.417968c-3.3125 0-6-2.6875-6-6v-24.417968c0-3.316406 2.6875-6 6-6h24.417968c3.316407 0 6 2.683594 6 6v24.417968c0 3.3125-2.683593 6-6 6zm0 0" fill="#ffa812"/><path d="m234.984375 429.710938v20.769531c0 3.3125-2.6875 6-6 6h-20.769531v3.648437c0 3.316406 2.6875 6 6 6h24.417968c3.316407 0 6-2.683594 6-6v-24.417968c0-3.3125-2.683593-6-6-6zm0 0" fill="#fc8900"/><path d="m26.523438 102.4375-17.265626-17.269531c-2.34375-2.34375-2.34375-6.140625 0-8.484375l17.265626-17.265625c2.34375-2.34375 6.140624-2.34375 8.484374 0l17.265626 17.265625c2.34375 2.34375 2.34375 6.140625 0 8.484375l-17.265626 17.265625c-2.34375 2.34375-6.140624 2.34375-8.484374.003906zm0 0" fill="#ffa812"/><path d="m49.695312 74.101562-14.6875 14.683594c-2.34375 2.34375-6.140624 2.34375-8.484374 0l-14.683594-14.683594-2.582032 2.582032c-2.34375 2.34375-2.34375 6.140625 0 8.488281l17.265626 17.265625c2.34375 2.339844 6.140624 2.339844 8.484374 0l17.265626-17.265625c2.34375-2.34375 2.34375-6.144531 0-8.488281zm0 0" fill="#fc8900"/><path d="m434.453125 166.347656 1.949219 7.957032c3.15625 12.894531 12.121094 21.984374 24.261718 27.359374 1.148438.765626 1.148438 2.453126 0 3.222657-12.140624 5.371093-21.105468 14.460937-24.261718 27.359375l-1.949219 7.953125c-.398437 1.640625-2.726563 1.640625-3.128906 0l-1.945313-7.953125c-3.160156-12.898438-12.121094-21.988282-24.265625-27.359375-1.148437-.769531-1.148437-2.457031 0-3.222657 12.144531-5.375 21.105469-14.464843 24.265625-27.359374l1.945313-7.957032c.402343-1.636718 2.730469-1.636718 3.128906 0zm0 0" fill="#ffe02f"/><path d="m442.273438 201.664062c-7.695313-3.40625-14.105469-8.308593-18.578126-14.722656-4.472656 6.414063-10.886718 11.316406-18.582031 14.722656-1.148437.765626-1.148437 2.453126 0 3.222657 7.695313 3.402343 14.109375 8.304687 18.582031 14.71875 4.472657-6.414063 10.882813-11.316407 18.578126-14.71875 1.148437-.769531 1.148437-2.457031 0-3.222657zm0 0" fill="#ffea7e"/><path d="m81.46875 220.730469 3.164062 12.929687c5.132813 20.960938 19.699219 35.738282 39.433594 44.472656 1.867188 1.246094 1.867188 3.988282 0 5.234376-19.734375 8.730468-34.300781 23.507812-39.433594 44.46875l-3.164062 12.929687c-.652344 2.664063-4.4375 2.664063-5.085938 0l-3.167968-12.929687c-5.128906-20.960938-19.699219-35.738282-39.433594-44.46875-1.867188-1.246094-1.867188-3.992188 0-5.234376 19.734375-8.734374 34.300781-23.507812 39.433594-44.472656l3.167968-12.929687c.648438-2.660157 4.433594-2.660157 5.085938 0zm0 0" fill="#ffe02f"/><path d="m94.175781 278.132812c-12.507812-5.535156-22.929687-13.503906-30.199219-23.929687-7.269531 10.425781-17.691406 18.394531-30.195312 23.929687-1.871094 1.246094-1.871094 3.988282 0 5.234376 12.503906 5.53125 22.925781 13.503906 30.195312 23.929687 7.269532-10.425781 17.691407-18.394531 30.199219-23.929687 1.867188-1.246094 1.867188-3.988282 0-5.234376zm0 0" fill="#ffea7e"/><path d="m391.660156 48.84375 47.761719 47.761719c3.625 3.625 3.625 9.5 0 13.121093l-15.199219 15.199219c-1.121094 1.121094-2.9375 1.121094-4.058594 0l-56.824218-56.824219c-1.121094-1.121093-1.121094-2.9375 0-4.058593l15.199218-15.199219c3.621094-3.621094 9.496094-3.621094 13.121094 0zm0 0" fill="#ff6930"/><path d="m439.421875 96.605469-10.800781-10.800781c-.171875.203124-.34375.398437-.535156.589843l-15.195313 15.195313c-1.121094 1.121094-2.941406 1.121094-4.0625 0l-41.519531-41.515625-3.96875 3.96875c-1.121094 1.121093-1.121094 2.9375 0 4.0625l56.824218 56.820312c1.121094 1.121094 2.9375 1.121094 4.058594 0l15.199219-15.199219c3.621094-3.621093 3.621094-9.496093 0-13.121093zm0 0" fill="#ff5426"/><path d="m377.207031 237.636719c-9.335937-9.335938-19.765625-17.449219-31.054687-24.234375.359375-.515625.703125-1.035156 1.066406-1.546875 10.167969-14.410157 21.582031-27.953125 34.050781-40.425781l13.96875-13.96875c.03125 0 .0625.003906.089844.003906.300781 0 .601563-.007813.902344-.023438 4.753906-.257812 9.199219-2.53125 12.1875-6.242187l14.46875-17.964844c2.507812-.164063 4.847656-1.210937 6.640625-3.003906l15.195312-15.199219c3.171875-3.167969 4.914063-7.382812 4.914063-11.863281 0-4.484375-1.742188-8.695313-4.914063-11.867188l-47.757812-47.761719c-6.542969-6.539062-17.1875-6.539062-23.730469 0l-15.199219 15.203126c-1.84375 1.84375-2.835937 4.214843-3 6.632812l-17.96875 14.472656c-3.710937 2.988282-5.988281 7.429688-6.242187 12.1875-.015625.328125 0 .648438 0 .972656l-13.988281 13.984376c-12.476563 12.476562-26.023438 23.847656-40.414063 34.046874-10.332031 7.289063-21.121094 13.933594-32.320313 19.925782-16.941406-11.296875-32.8125-24.273438-47.203124-38.664063l-13.988282-13.988281c0-.324219.015625-.648438 0-.972656-.257812-4.757813-2.53125-9.199219-6.242187-12.1875l-12.386719-9.972656c-.378906-2.039063-1.359375-3.910157-2.855469-5.40625l-15.195312-15.195313c-3.167969-3.171875-7.382813-4.914063-11.863281-4.914063-4.480469 0-8.695313 1.742188-11.863282 4.914063l-47.761718 47.757813c-3.171876 3.171874-4.914063 7.382812-4.914063 11.867187 0 4.480469 1.742187 8.695313 4.914063 11.863281l15.199218 15.199219c1.527344 1.527344 3.417969 2.476563 5.398438 2.847656l9.976562 12.390625c2.988282 3.710938 7.433594 5.988282 12.191406 6.242188.300782.015625.597657.023437.898438.023437.03125 0 .058594-.003906.089844-.003906l13.96875 13.96875c6.914062 6.914063 13.542968 14.21875 19.792968 21.78125-5.515624 4.25-10.769531 8.855469-15.730468 13.820313l-32.550782 32.550781c-5.316406-5.972657-9.734374-13.511719-12.058593-23.007813l-3.164063-12.929687s0 0 0-.003907c-1.113281-4.539062-5.152344-7.710937-9.828125-7.710937s-8.714843 3.171875-9.828125 7.714844l-3.164062 12.929687c-5.410156 22.085938-22.117188 33.613282-35.1875 39.394532-.390625.171874-.765625.378906-1.125.617187-2.964844 1.976563-4.738282 5.289063-4.738282 8.855469 0 3.570312 1.769532 6.882812 4.738282 8.863281.355468.238281.734375.445313 1.125.617187 7.179687 3.175782 15.457031 8.09375 22.355468 15.535157l-43.398437 43.394531c-10.609375 10.609375-10.609375 27.875 0 38.488281l12.535156 12.535157c1.464844 1.460937 3.386719 2.195312 5.304688 2.195312s3.839843-.734375 5.304687-2.199219c2.925782-2.929687 2.925782-7.675781 0-10.605469l-12.535156-12.535156c-4.761719-4.761718-4.761719-12.511718 0-17.273437l41.484375-41.480469c1.707031 3.429688 3.117187 7.199219 4.132813 11.339844l3.164062 12.929687c1.113281 4.542969 5.152344 7.714844 9.828125 7.714844s8.71875-3.171875 9.828125-7.714844l3.164062-12.929687c5.40625-22.085938 22.117188-33.613282 35.183594-39.394532.394532-.171874.769532-.378906 1.128906-.617187 2.964844-1.980469 4.738282-5.292969 4.738282-8.863281 0-3.566406-1.773438-6.878906-4.742188-8.855469-.355468-.238281-.734375-.445313-1.125-.617187-3.746094-1.660157-7.792968-3.792969-11.789062-6.507813l31.824218-31.824219c12.226563-12.230468 26.386719-22.121094 42.078126-29.394531l43.234374-20.042969 72.3125 72.3125-20.039062 43.234375c-7.273438 15.691407-17.164062 29.847657-29.394531 42.082031l-126.820313 126.820313c-2.308594 2.308594-5.375 3.578125-8.636718 3.578125-3.261719 0-6.332032-1.273438-8.636719-3.578125l-54.382813-54.382813c-2.925781-2.925781-7.675781-2.925781-10.605468 0-2.929688 2.929688-2.929688 7.679688 0 10.609376l54.378906 54.378906c5.140625 5.140625 11.976562 7.972656 19.246094 7.972656 7.269531 0 14.105468-2.832031 19.242187-7.972656l110.105469-110.101563 125.410156 125.40625c5.140625 5.140625 11.972656 7.972657 19.242188 7.972657 7.269531 0 14.105468-2.832032 19.246093-7.972657l90.914063-90.914062c5.140625-5.140625 7.972656-11.976563 7.972656-19.246094s-2.832031-14.101563-7.972656-19.242187zm-298.28125 82.921875c-2.050781-6.199219-4.914062-11.953125-8.539062-17.230469-2.34375-3.40625-4.976563-6.582031-7.898438-9.523437-4.910156-4.960938-10.667969-9.332032-17.226562-13.054688 16.617187-9.4375 28.105469-23.007812 33.664062-39.808594 5.554688 16.800782 17.042969 30.371094 33.664063 39.808594-16.621094 9.433594-28.109375 23.007812-33.664063 39.808594zm304.914063-266.410156c.695312-.691407 1.824218-.691407 2.515625 0l47.761719 47.757812c.429687.433594.523437.925781.523437 1.261719 0 .335937-.089844.824219-.523437 1.257812l-11.921876 11.921875-50.277343-50.273437zm-45.867188 52.925781 18.761719 18.765625c1.464844 1.460937 3.386719 2.195312 5.304687 2.195312 1.917969 0 3.839844-.734375 5.304688-2.195312 2.925781-2.933594 2.925781-7.679688 0-10.609375l-21.015625-21.011719c-.726563-.726562-.71875-1.988281.148437-2.6875l16.441407-13.242188 47.058593 47.058594-13.242187 16.441406c-1.617187 2.011719-4.714844-1.417968-5.21875-2.386718-2.929687-2.925782-7.675781-2.925782-10.605469.003906-2.929687 2.929688-2.929687 7.675781 0 10.605469l.28125.28125-10.527344 10.527343c-10.335937 10.335938-19.988281 21.386719-28.839843 33.019532-.101563.132812-.195313.265625-.296875.394531-7.476563 9.855469-14.453125 20.210937-20.734375 30.886719-3.179688 5.378906-6.21875 10.851562-9.09375 16.421875l-64.976563-64.980469c5.558594-2.863281 11.015625-5.894531 16.378906-9.066406 23.429688-13.84375 45.101563-30.65625 64.339844-49.894532zm-170.042968 1.074219c.019531.367187-.054688.902343-.527344 1.375l-47.714844 47.714843c-.941406.753907-1.835938.703125-2.6875-.144531l-8.128906-10.09375 48.292968-48.292969 10.097657 8.128907c.515625.417968.648437.945312.667969 1.3125zm-82.582032 17.3125c-.429687-.429688-.519531-.921876-.519531-1.257813s.089844-.828125.519531-1.257813l47.761719-47.761718c.429687-.429688.921875-.519532 1.257813-.519532.335937 0 .824218.089844 1.257812.519532l11.921875 11.921875-50.273437 50.277343zm97.558594 64.476562c-6.339844 2.9375-12.449219 6.269531-18.3125 9.964844-6.773438-8.261719-13.988281-16.242188-21.523438-23.773438l-10.527343-10.53125 43.21875-43.21875 10.53125 10.527344c13.09375 13.09375 27.359375 25.066406 42.503906 35.75-.246094.113281-.484375.234375-.730469.347656zm83.027344 161.800781c13.480468-13.480469 24.378906-29.085937 32.394531-46.378906l20.933594-45.164063c.421875-.910156.863281-1.804687 1.292969-2.710937.003906-.007813.007812-.011719.011718-.019531 5.175782-10.886719 10.964844-21.402344 17.316406-31.539063 10.453126 6.222657 20.09375 13.699219 28.714844 22.320313l7.585938 7.582031-108.191406 108.191406-6.171876-6.171875zm227.488281 40.601563-90.917969 90.917968c-2.308594 2.308594-5.375 3.578126-8.636718 3.578126-3.261719 0-6.332032-1.273438-8.636719-3.578126l-35.335938-35.335937 29.226563-29.230469c2.929687-2.929687 2.929687-7.675781 0-10.605468-2.925782-2.929688-7.675782-2.929688-10.605469 0l-29.230469 29.226562-62.683594-62.683594 108.1875-108.191406 62.6875 62.683594-55.316406 55.320312c-2.929687 2.929688-2.929687 7.675782 0 10.605469 1.464844 1.464844 3.386719 2.195313 5.304688 2.195313 1.917968 0 3.839844-.730469 5.300781-2.195313l55.320313-55.316406 35.335937 35.335937c2.304687 2.308594 3.574219 5.375 3.574219 8.636719.003906 3.265625-1.265625 6.332031-3.574219 8.636719zm0 0"/><path d="m488.015625 304.730469c13.226563 0 23.984375-10.757813 23.984375-23.980469s-10.757812-23.984375-23.984375-23.984375c-13.222656 0-23.980469 10.761719-23.980469 23.984375s10.757813 23.980469 23.980469 23.980469zm0-32.964844c4.953125 0 8.984375 4.03125 8.984375 8.984375s-4.03125 8.980469-8.984375 8.980469-8.980469-4.027344-8.980469-8.980469 4.027344-8.984375 8.980469-8.984375zm0 0"/><path d="m208.214844 47.964844c13.226562 0 23.984375-10.757813 23.984375-23.980469 0-13.226563-10.757813-23.984375-23.984375-23.984375-13.222656 0-23.980469 10.757812-23.980469 23.984375 0 13.222656 10.757813 23.980469 23.980469 23.980469zm0-32.964844c4.953125 0 8.984375 4.027344 8.984375 8.984375 0 4.949219-4.03125 8.980469-8.984375 8.980469s-8.980469-4.027344-8.980469-8.980469 4.027344-8.984375 8.980469-8.984375zm0 0"/><path d="m268.683594 117.613281c2.632812 2.632813 6.089844 3.945313 9.546875 3.945313s6.914062-1.3125 9.546875-3.945313l17.265625-17.265625c2.550781-2.550781 3.953125-5.941406 3.953125-9.546875s-1.402344-6.996093-3.953125-9.546875l-17.265625-17.265625c-5.265625-5.261719-13.828125-5.261719-19.09375 0l-17.265625 17.265625c-2.550781 2.550782-3.953125 5.941406-3.953125 9.546875s1.402344 6.996094 3.953125 9.546875zm9.546875-41.957031 15.144531 15.144531-15.144531 15.144531-15.144531-15.144531zm0 0"/><path d="m238.632812 422.210938h-24.417968c-7.441406 0-13.5 6.058593-13.5 13.5v24.417968c0 7.445313 6.058594 13.5 13.5 13.5h24.417968c7.445313 0 13.5-6.054687 13.5-13.5v-24.417968c0-7.441407-6.054687-13.5-13.5-13.5zm-1.5 36.421874h-21.417968v-21.417968h21.417968zm0 0"/><path d="m21.21875 107.738281c2.632812 2.632813 6.089844 3.949219 9.546875 3.949219s6.914063-1.316406 9.546875-3.949219l17.265625-17.265625c2.550781-2.546875 3.953125-5.9375 3.953125-9.546875 0-3.605469-1.402344-6.996093-3.953125-9.542969l-17.265625-17.269531c-5.261719-5.261719-13.828125-5.261719-19.09375 0l-17.265625 17.265625c-2.550781 2.550782-3.953125 5.941406-3.953125 9.546875 0 3.609375 1.402344 6.996094 3.953125 9.546875zm9.546875-41.957031 15.144531 15.144531-15.144531 15.144531-15.144531-15.144531zm0 0"/><path d="m441.738281 164.5625c-1-4.085938-4.636719-6.945312-8.847656-6.945312s-7.851563 2.859374-8.851563 6.945312l-1.945312 7.957031c-2.449219 9.992188-9.179688 17.492188-20.011719 22.285157-.394531.171874-.769531.378906-1.128906.617187-2.628906 1.757813-4.199219 4.691406-4.199219 7.855469 0 3.160156 1.570313 6.097656 4.203125 7.851562.355469.234375.734375.441406 1.125.613282 10.832031 4.792968 17.566407 12.289062 20.011719 22.285156l1.945312 7.957031c1.003907 4.089844 4.640626 6.945313 8.851563 6.945313s7.847656-2.855469 8.847656-6.945313l1.949219-7.957031c2.445312-9.992188 9.179688-17.492188 20.011719-22.285156.390625-.171876.765625-.378907 1.121093-.613282 2.632813-1.753906 4.207032-4.691406 4.207032-7.851562 0-3.164063-1.570313-6.097656-4.203125-7.855469-.355469-.238281-.730469-.445313-1.125-.617187-10.832031-4.792969-17.566407-12.289063-20.011719-22.285157zm-8.847656 55.753906c-3.472656-6.742187-8.613281-12.480468-15.265625-17.042968 6.652344-4.5625 11.792969-10.300782 15.265625-17.042969 3.472656 6.742187 8.609375 12.480469 15.261719 17.042969-6.652344 4.5625-11.789063 10.300781-15.261719 17.042968zm0 0"/></svg>