<svg height="512pt" viewBox="-128 0 512 512" width="512pt" xmlns="http://www.w3.org/2000/svg"><path d="m249.230469 454.855469-7.625-158.894531c-1.390625-28.945313-19.304688-53.332032-44.355469-64.222657-9.351562-4.066406-15.5625-12.964843-16.105469-23.152343-.035156-.648438-.082031-1.300782-.140625-1.953126l-13.746094-152.65625c-.089843-1.03125-.953124-1.820312-1.988281-1.820312-7.023437 0-13.050781-5.488281-13.1875-12.511719-.128906-6.527343 4.652344-11.96875 10.898438-12.882812 1.023437-.148438 1.726562-1.121094 1.636719-2.152344l-1.027344-11.40625c-.289063-3.203125-2.976563-5.65625-6.191406-5.65625h-57.964844c-3.214844 0-5.902344 2.453125-6.191406 5.65625l-1.027344 11.40625c-.089844 1.03125.613281 2 1.640625 2.152344 6.246093.917969 11.023437 6.355469 10.894531 12.882812-.136719 7.023438-6.164062 12.511719-13.1875 12.511719-1.03125 0-1.898438.789062-1.988281 1.820312l-13.746094 152.65625c-.054687.605469-.097656 1.210938-.132813 1.816407-.570312 10.167969-6.738281 19.074219-16.105468 23.066406-25.394532 10.808594-43.574219 35.445313-44.882813 64.679687l-7.113281 158.8125c-1.207031 26.945313 20.3125 49.449219 47.285156 49.449219h147.074219c27.03125 0 48.574219-22.601562 47.277344-49.601562zm0 0" fill="#ffa812"/><path d="m249.230469 454.855469-7.625-158.894531c-1.390625-28.945313-19.304688-53.332032-44.355469-64.222657-9.351562-4.066406-15.5625-12.964843-16.105469-23.152343-.035156-.648438-.082031-1.300782-.140625-1.953126l-13.746094-152.65625c-.089843-1.03125-.953124-1.820312-1.988281-1.820312-7.023437 0-13.050781-5.488281-13.1875-12.511719-.128906-6.527343 4.652344-11.96875 10.898438-12.882812 1.023437-.148438 1.726562-1.121094 1.636719-2.152344l-1.027344-11.40625c-.289063-3.203125-2.976563-5.65625-6.191406-5.65625h-41.261719l16.316406 181.230469c.058594.65625.105469 1.308594.136719 1.957031.542968 10.183594 6.757812 19.082031 16.109375 23.148437 25.050781 10.890626 42.964843 35.28125 44.355469 64.222657l7.625 158.898437c1.296874 27-20.246094 49.597656-47.277344 49.597656h-135.546875c8.652343 10.855469 21.988281 17.851563 37.023437 17.851563h147.074219c27.03125.003906 48.574219-22.597656 47.277344-49.597656zm0 0" fill="#ff9a00"/><path d="m8.5625 433.398438h239.636719l-6-125.089844h-228.035157zm0 0" fill="#efe2dd"/><path d="m200.507812 433.398438h47.691407l-6-125.089844h-47.695313zm0 0" fill="#e1d3ce"/><path d="m165.269531 52.15625c-7.023437 0-13.050781-5.492188-13.1875-12.511719-.128906-6.53125 4.652344-11.96875 10.898438-12.882812 1.023437-.152344 1.726562-1.121094 1.636719-2.152344l-1.027344-11.40625c-.289063-3.203125-2.976563-5.660156-6.191406-5.660156h-57.964844c-3.214844 0-5.902344 2.457031-6.191406 5.660156l-1.027344 11.40625c-.089844 1.03125.613281 2 1.640625 2.152344 6.246093.914062 11.023437 6.351562 10.894531 12.882812-.136719 7.023438-6.164062 12.511719-13.1875 12.511719-1.03125 0-1.898438.789062-1.988281 1.820312l-11.304688 125.550782h100.292969l-11.304688-125.550782c-.089843-1.03125-.953124-1.820312-1.988281-1.820312zm0 0" fill="#efe2dd"/><path d="m165.269531 52.15625c-7.023437 0-13.050781-5.492188-13.1875-12.511719-.128906-6.53125 4.652344-11.96875 10.898438-12.882812 1.023437-.152344 1.726562-1.121094 1.636719-2.152344l-1.027344-11.40625c-.289063-3.203125-2.976563-5.660156-6.191406-5.660156h-41.261719l15.484375 171.984375h46.941406l-11.304688-125.550782c-.089843-1.03125-.953124-1.820312-1.988281-1.820312zm0 0" fill="#e1d3ce"/><path d="m256.765625 454.496094-7.625-158.898438c-1.496094-31.199218-20.226563-58.320312-48.882813-70.777344-6.753906-2.9375-11.191406-9.3125-11.582031-16.632812-.039062-.742188-.09375-1.484375-.160156-2.234375l-6.757813-75.042969c-.371093-4.152344-4.046874-7.207031-8.1875-6.839844-4.152343.375-7.214843 4.042969-6.839843 8.191407l3.578125 39.71875h-83.785156l10.164062-112.917969c8.792969-2.222656 15.425781-10.019531 15.605469-19.269531.164062-8.359375-4.8125-15.785157-12.160157-19.011719l.515626-5.691406h55.535156l.511718 5.695312c-7.347656 3.222656-12.320312 10.648438-12.15625 19.007813.179688 9.25 6.808594 17.046875 15.601563 19.269531l3.414063 37.917969c.375 4.148437 4.042968 7.21875 8.191406 6.835937 4.148437-.375 7.210937-4.042968 6.835937-8.191406l-3.808593-42.324219c-.445313-4.953125-4.53125-8.691406-9.503907-8.691406-3.003906 0-5.589843-2.339844-5.644531-5.113281-.050781-2.625 1.863281-4.890625 4.453125-5.269532 4.96875-.734374 8.503906-5.253906 8.050781-10.296874l-1.023437-11.402344c-.648438-7.144532-6.539063-12.527344-13.707031-12.527344h-57.964844c-7.167969 0-13.0625 5.382812-13.703125 12.527344l-1.027344 11.40625c-.453125 5.039062 3.082031 9.558594 8.054687 10.292968 2.589844.378907 4.5 2.644532 4.449219 5.269532-.054687 2.773437-2.640625 5.113281-5.644531 5.113281-4.976562 0-9.0625 3.738281-9.503906 8.6875l-13.742188 152.660156c-.0625.691407-.113281 1.382813-.152344 2.070313-.410156 7.351562-4.828124 13.691406-11.53125 16.542968-28.652343 12.199219-48.070312 40.183594-49.464843 71.285157l-7.1093752 158.8125c-.6796878 15.109375 4.7070312 29.449219 15.1562502 40.382812 10.453125 10.929688 24.539062 16.949219 39.664062 16.949219h129.535156c4.167969 0 7.546876-3.378906 7.546876-7.546875s-3.378907-7.542969-7.546876-7.542969h-129.535156c-10.964844 0-21.179687-4.363281-28.757812-12.289062-7.578125-7.925782-11.480469-18.324219-10.988282-29.277344l.644532-14.402344h225.234375l.683593 14.273438c.835938 17.457031-9.613281 33.234375-26 39.265625-3.910156 1.4375-5.914062 5.773437-4.476562 9.683593 1.121094 3.050782 4.007812 4.941407 7.078125 4.941407.867187 0 1.746094-.148438 2.605469-.464844 22.605468-8.3125 37.019531-30.074219 35.863281-54.144531zm-180.355469-138.640625h158.597656l5.277344 110h-223.832031l4.925781-110h21.070313c4.167969 0 7.546875-3.378907 7.546875-7.546875 0-4.167969-3.378906-7.542969-7.546875-7.542969h-20.394531l.191406-4.234375c1.132812-25.339844 16.953125-48.136719 40.300781-58.078125 12.023437-5.117187 19.949219-16.453125 20.683594-29.582031.027343-.519532.066406-1.042969.113281-1.5625l1.824219-20.238282h86.5l1.820312 20.238282c.050781.558594.089844 1.121094.121094 1.679687.695313 13.070313 8.601563 24.4375 20.632813 29.667969 23.347656 10.152344 38.609374 32.246094 39.828124 57.664062l.210938 4.445313h-157.871094c-4.167968 0-7.546875 3.375-7.546875 7.542969.003907 4.167968 3.378907 7.546875 7.546875 7.546875zm0 0"/><path d="m97.230469 360.480469h62.371093c4.167969 0 7.542969-3.375 7.542969-7.542969s-3.375-7.546875-7.542969-7.546875h-62.371093c-4.164063 0-7.542969 3.378906-7.542969 7.546875s3.378906 7.542969 7.542969 7.542969zm0 0"/><path d="m48.578125 384.007812c0 4.167969 3.375 7.542969 7.542969 7.542969h144.589844c4.167968 0 7.542968-3.375 7.542968-7.542969 0-4.167968-3.375-7.546874-7.542968-7.546874h-144.589844c-4.167969.003906-7.542969 3.378906-7.542969 7.546874zm0 0"/></svg>