<svg id="Capa_1" enable-background="new 0 0 512 512" height="512" viewBox="0 0 512 512" width="512" xmlns="http://www.w3.org/2000/svg"><g><g><path d="m197.5 161.502c-34.794 0-63-28.206-63-63 0-34.794 28.206-63 63-63 34.794 0 63 28.206 63 63 0 34.794-28.206 63-63 63z" fill="#ffc269"/><path d="m260.5 98.502h-30c0-17.4-7.05-33.14-18.45-44.55-8.02-8.01-18.18-13.88-29.55-16.65 4.8-1.18 9.83-1.8 15-1.8 17.4 0 33.14 7.05 44.55 18.45 11.4 11.41 18.45 27.15 18.45 44.55z" fill="#ffa95f"/><path d="m197.5 131.502c-18.225 0-33-14.775-33-33 0-18.225 14.775-33 33-33 18.225 0 33 14.775 33 33 0 18.226-14.774 33-33 33z" fill="#ffe07d"/><path d="m367.499 98.502h-159.999c-5.523 0-10 4.477-10 10v232.056c0 37.865 27.005 69.408 62.804 76.454 7.042 1.386 12.13 7.538 12.13 14.715v7.173c0 19.909-9.876 38.522-26.362 49.683l-10.007 6.775c-4.081 2.763-2.125 9.14 2.803 9.14h97.262c4.929 0 6.884-6.377 2.803-9.14l-10.008-6.776c-16.486-11.162-26.361-29.774-26.361-49.683v-7.174c0-7.177 5.088-13.329 12.13-14.715 35.799-7.045 62.804-38.589 62.804-76.454v-232.054c.001-5.523-4.476-10-9.999-10z" fill="#cdf2f9"/><path d="m377.499 108.502v79h-30v-79c0-5.52-4.48-10-10-10h30c5.52 0 10 4.48 10 10z" fill="#b1f1f1"/><path d="m377.499 217.502v123.059c0 37.86-27.01 69.41-62.8 76.45-7.05 1.39-12.13 7.54-12.13 14.72v7.17c0 19.91 9.87 38.52 26.36 49.68l10 6.78c4.09 2.76 2.13 9.14-2.8 9.14h-97.259c-4.93 0-6.89-6.38-2.8-9.14l10-6.78c16.49-11.16 26.36-29.77 26.36-49.68v-7.17c0-7.18-5.08-13.33-12.13-14.72-35.79-7.04-62.8-38.59-62.8-76.45v-123.059z" fill="#ffe07d"/><path d="m377.499 217.502v123.059c0 37.86-27.01 69.41-62.8 76.45-7.05 1.39-12.13 7.54-12.13 14.72v7.17c0 19.91 9.87 38.52 26.36 49.68l10 6.78c4.09 2.76 2.13 9.14-2.8 9.14h-30c4.93 0 6.89-6.38 2.8-9.14l-10-6.78c-16.49-11.16-26.36-29.77-26.36-49.68v-7.17c0-7.18 5.08-13.33 12.13-14.72 35.79-7.04 62.8-38.59 62.8-76.45v-123.059z" fill="#ffd064"/><path d="m197.5 187.502h179.999v30h-179.999z" fill="#faf2f3"/><path d="m347.499 187.502h30v30h-30z" fill="#f0e5e0"/><path d="m346.57 98.502-28.1 89h-31.41l28.1-89z" fill="#b1f1f1"/><path d="m318.47 187.502-9.47 30h-31.41l9.47-30z" fill="#f0e5e0"/><path d="m309 217.502-18.79 59.51c-.83 2.63-3.64 4.09-6.26 3.26l-19.04-6.01c-2.63-.83-4.09-3.64-3.26-6.27l15.94-50.49z" fill="#ffd064"/><path d="m371.349 20.013-24.78 78.49h-31.41l27.63-87.51c.83-2.63 3.64-4.09 6.26-3.26l19.04 6.01c2.63.83 4.09 3.64 3.26 6.27z" fill="#c3aff0"/></g><g><path d="m377.498 313.052c4.142 0 7.5-3.358 7.5-7.5v-197.054c0-9.649-7.85-17.5-17.5-17.5h-10.701l21.701-68.735c2.074-6.568-1.582-13.598-8.15-15.672l-19.036-6.01c-6.565-2.072-13.598 1.582-15.673 8.151l-25.973 82.267h-42.075c-1.711-16.238-8.938-31.274-20.734-42.84-13.258-13-30.786-20.159-49.356-20.159-38.874 0-70.499 31.626-70.499 70.499 0 18.461 7.087 35.915 19.955 49.147 11.579 11.907 26.705 19.214 43.044 20.938v171.969c0 40.712 28.958 75.96 68.856 83.812 3.522.693 6.078 3.787 6.078 7.356v7.173c0 17.443-8.623 33.694-23.066 43.473l-10.008 6.775c-10.152 6.368-4.965 23.27 7.008 22.851h97.261c11.976.419 17.157-16.485 7.008-22.851l-10.008-6.775c-14.443-9.779-23.066-26.03-23.066-43.472v-7.174c0-3.569 2.556-6.663 6.079-7.356 39.897-7.852 68.855-43.1 68.855-83.812 0-4.142-3.358-7.5-7.5-7.5s-7.5 3.358-7.5 7.5c0 33.564-23.867 62.623-56.752 69.095-10.535 2.073-18.182 11.357-18.182 22.074v7.174c0 22.426 11.086 43.32 29.656 55.893l3.257 2.206h-80.957l3.257-2.206c18.57-12.572 29.657-33.467 29.657-55.893v-7.173c0-10.717-7.646-20.001-18.181-22.074-32.884-6.472-56.752-35.53-56.752-69.095v-115.558h62.361l-12.861 40.736c-2.074 6.568 1.582 13.598 8.15 15.672l19.037 6.01c1.247.394 2.51.581 3.753.581 5.305 0 10.239-3.41 11.919-8.732l17.133-54.267h55.506v80.556c0 4.142 3.357 7.5 7.499 7.5zm-9.999-207.054c1.378 0 2.5 1.122 2.5 2.5v71.499h-41.299l23.362-73.999zm-70.202 73.999 23.362-73.999h15.673l-23.362 73.999zm10.938 15-4.736 15h-15.673l4.736-15zm40.952-179.358 14.252 4.499-22.371 70.859h-15.673zm-207.185 82.859c0-30.603 24.897-55.499 55.499-55.499 27.832 0 51.27 21.016 54.975 47.999h-15.167c-3.507-18.914-19.987-33-39.809-33-22.331 0-40.499 18.168-40.499 40.499 0 19.904 14.061 36.323 33 39.811v15.187c-27.343-3.629-47.999-26.757-47.999-54.997zm47.999 10v14.39c-10.495-3.177-18-12.851-18-24.39 0-14.06 11.439-25.5 25.5-25.5 11.491 0 21.195 7.517 24.385 18h-14.385c-9.65 0-17.5 7.85-17.5 17.5zm15 101.498v-15h18.962c4.142 0 7.5-3.358 7.5-7.5s-3.358-7.5-7.5-7.5h-18.962v-71.499c0-1.378 1.122-2.5 2.5-2.5h97.43l-23.362 73.999h-22.606c-4.142 0-7.5 3.358-7.5 7.5s3.358 7.5 7.5 7.5h17.871l-4.736 15zm78.811 62.359-14.252-4.499 13.531-42.86h15.673zm35.416-62.359 4.736-15h46.035v15z"/><path d="m347.499 334.217c0-5.514-4.486-10-10-10s-10 4.486-10 10 4.486 9.999 10 9.999c5.514.001 10-4.485 10-9.999z"/><path d="m287.5 338.217c-5.514 0-10 4.486-10 10s4.486 9.999 10 9.999 10-4.486 10-10c-.001-5.513-4.486-9.999-10-9.999z"/><path d="m247.5 334.217c0-5.514-4.486-10-10-10s-10 4.486-10 10 4.486 9.999 10 9.999 10-4.485 10-9.999z"/><path d="m317.499 369.217c0 5.514 4.486 9.999 10 9.999s10-4.486 10-10-4.486-10-10-10-10 4.487-10 10.001z"/><path d="m287.5 373.217c-5.514 0-10 4.486-10 10s4.486 9.999 10 9.999 10-4.486 10-10c-.001-5.513-4.486-9.999-10-9.999z"/><path d="m247.5 379.217c5.514 0 10-4.486 10-10s-4.486-10-10-10-10 4.486-10 10 4.486 10 10 10z"/></g></g></svg>