<svg id="Capa_1" enable-background="new 0 0 512 512" height="512" viewBox="0 0 512 512" width="512" xmlns="http://www.w3.org/2000/svg"><g><g><path d="m393.427 243.5h60.121c1.963 0 3.19 1.059 3.748 1.69s1.456 1.98 1.214 3.928l-14.787 118.708c-2.179 17.487-17.11 30.674-34.732 30.674h-22.532l-2.752 30h25.283c32.727 0 60.457-24.49 64.502-56.965l14.787-118.708c1.24-9.954-1.856-19.976-8.496-27.495-6.641-7.52-16.203-11.832-26.235-11.832h-55.764z" fill="#b1f1f1"/><path d="m359 504.5h-152.637c-12.656 0-23.316-9.458-24.822-22.024l-40.018-333.786c-.714-5.952 3.934-11.19 9.929-11.19h262.459c5.995 0 10.643 5.238 9.929 11.19l-40.018 333.786c-1.506 12.566-12.166 22.024-24.822 22.024z" fill="#cdf2f9"/><path d="m423.84 148.69-4.77 39.81h-30l4.77-39.81c.71-5.95-3.93-11.19-9.93-11.19h30c6 0 10.64 5.24 9.93 11.19z" fill="#b1f1f1"/><path d="m419.07 188.5-35.25 293.98c-1.5 12.56-12.16 22.02-24.82 22.02h-152.64c-12.65 0-23.31-9.46-24.82-22.02l-35.25-293.98z" fill="#fff3d2"/><path d="m419.07 188.5-35.25 293.98c-1.5 12.56-12.16 22.02-24.82 22.02h-30c12.66 0 23.32-9.46 24.82-22.02l35.25-293.98z" fill="#ffe6ae"/><path d="m258.601 395.5c-.02 0 .159 0 .159 0-3.571.005-6.746-2.258-7.915-5.632-11.767-33.973-44.039-58.368-82.014-58.368h-28.063c-35.713 0-66.356 21.648-79.557 52.534-2.521 5.899-7.714 10.237-13.938 11.793l-7.709 1.927c-7.822 1.956-14.086 8.096-15.683 15.999-2.268 11.22 4.706 21.75 15.306 24.4l8.086 2.022c6.224 1.556 11.417 5.893 13.938 11.793 13.201 30.885 43.844 52.534 79.557 52.534h28.063c37.975 0 70.248-24.395 82.014-58.368 1.169-3.374 4.344-5.637 7.915-5.632h-.159c12.426 0 22.5-10.074 22.5-22.5 0-12.428-10.074-22.502-22.5-22.502z" fill="#ffe07d"/><path d="m281.1 418c0 12.38-9.98 22.41-22.34 22.5-3.57 0-6.75 2.26-7.91 5.63-11.77 33.97-44.04 58.37-82.02 58.37h-28.06c-.31 0-.63 0-.94-.01 37.54-.42 69.35-24.69 81.02-58.36 1.16-3.37 4.34-5.63 7.91-5.63 12.36-.09 22.34-10.12 22.34-22.5s-9.98-22.41-22.34-22.5c-3.57 0-6.75-2.26-7.91-5.63-11.67-33.67-43.48-57.94-81.02-58.36.31-.01.63-.01.94-.01h28.06c37.98 0 70.25 24.4 82.02 58.37 1.16 3.37 4.34 5.63 7.91 5.63 12.36.09 22.34 10.12 22.34 22.5z" fill="#ffd064"/><path d="m188.336 418c-2.904 0-5.168 2.464-4.99 5.362 2.769 45.275 40.365 81.138 86.336 81.138 45.972 0 83.567-35.863 86.336-81.138.177-2.898-2.087-5.362-4.99-5.362z" fill="#b3e59f"/><path d="m356.02 423.36c-1.38 22.64-11.48 42.92-26.97 57.55s-36.39 23.59-59.37 23.59c-5.11 0-10.13-.44-15-1.3 17.02-2.97 32.33-10.92 44.37-22.29 15.49-14.63 25.59-34.91 26.97-57.55.18-2.9-2.09-5.36-4.99-5.36h30c2.9 0 5.17 2.46 4.99 5.36z" fill="#9bcf84"/><path d="m326.182 418c0 15.6-6.32 29.72-16.55 39.95s-24.35 16.55-39.95 16.55c-31.2 0-56.5-25.3-56.5-56.5z" fill="#f0ffdc"/></g><g><path d="m485.404 220.368c-8.064-9.131-19.676-14.368-31.858-14.368h-29.026l6.764-56.417c1.442-10.089-7.187-19.814-17.375-19.583h-262.458c-10.188-.23-18.817 9.495-17.375 19.583l20.91 174.417h-14.22c-19.128 0-37.536 5.714-53.234 16.525-3.411 2.349-4.272 7.019-1.923 10.431 2.35 3.41 7.019 4.273 10.431 1.923 13.185-9.08 28.65-13.879 44.727-13.879h28.063c33.771 0 63.881 21.429 74.927 53.323 2.16 6.236 7.949 10.471 14.507 10.67.11.005.223.007.334.007h.002c5.584 0 10.434 2.996 13.017 7.5h-83.282c-3.428 0-6.74 1.432-9.089 3.929-2.364 2.514-3.6 5.938-3.388 9.392 1.547 25.285 13.094 47.752 30.626 63.687-11.511 6.232-24.366 9.492-37.655 9.492h-28.063c-31.682 0-60.203-18.833-72.66-47.981-3.406-7.969-10.515-13.995-19.016-16.121l-8.086-2.021c-6.904-1.726-11.197-8.595-9.773-15.639.991-4.908 4.976-8.915 10.149-10.208l7.711-1.928c8.5-2.125 15.608-8.152 19.015-16.122 1.616-3.783 3.551-7.474 5.749-10.97 2.204-3.506 1.148-8.137-2.357-10.341-3.508-2.204-8.138-1.149-10.342 2.358-2.616 4.161-4.919 8.555-6.843 13.059-1.573 3.68-4.885 6.47-8.859 7.464l-7.711 1.927c-10.757 2.689-19.084 11.242-21.215 21.789-3.016 14.92 6.138 29.487 20.839 33.162l8.086 2.021c3.976.994 7.287 3.785 8.86 7.464 14.821 34.679 48.756 57.087 86.453 57.087h28.063c8.125 0 16.111-1.04 23.818-3.044 4.279 1.991 8.969 3.044 13.714 3.044h152.637c16.439 0 30.312-12.309 32.269-28.631l5.679-47.369h12.043c36.503 0 67.433-27.315 71.944-63.538l14.787-118.708c1.506-12.087-2.254-24.256-10.316-33.386zm-66.278 30.632h31.591l-14.438 115.899c-1.712 13.74-13.444 24.101-27.29 24.101h-6.648zm-175.215 190.403c3.337 2.386 8.044 1.636 10.46-1.76l10.067-14.143h10.485l10.068 14.143c2.418 3.397 7.122 4.146 10.46 1.76 3.374-2.402 4.162-7.085 1.761-10.459l-3.875-5.443h24.766c-1.569 10.239-6.33 19.701-13.775 27.146-9.257 9.255-21.562 14.353-34.648 14.353-24.298 0-44.758-18.09-48.409-41.5h24.754l-3.875 5.443c-2.402 3.375-1.613 8.058 1.761 10.46zm-52.879-15.903h15.083c1.68 14.443 8.188 27.801 18.695 38.133 12.044 11.844 27.979 18.367 44.87 18.367 17.093 0 33.164-6.658 45.254-18.747 10.278-10.278 16.646-23.499 18.307-37.753h15.089c-3.793 40.3-37.848 71.5-78.649 71.5s-74.857-31.199-78.649-71.5zm185.342 56.083c-1.054 8.789-8.524 15.417-17.376 15.417h-38.436c24.334-15.711 41.056-42.363 42.941-73.181.572-6.996-5.454-13.461-12.478-13.319h-63.368c-3.284-12.933-14.848-22.358-28.743-22.499-.051-.001-.103-.001-.156-.001h-.012c-.367 0-.695-.236-.816-.587-12.997-37.529-48.192-62.857-87.834-63.388l-15.349-128.025h194.805c4.143 0 7.5-3.358 7.5-7.5s-3.357-7.5-7.5-7.5h-196.603l-3.981-33.203c.056-1.858.643-2.522 2.482-2.797h262.46c1.839.276 2.427.939 2.482 2.798l-3.981 33.202h-27.859c-4.143 0-7.5 3.358-7.5 7.5s3.357 7.5 7.5 7.5h26.061zm104.461-229.683-14.787 118.708c-3.578 28.728-28.108 50.392-57.059 50.392h-10.244l1.798-15h8.446c21.398 0 39.529-16.013 42.175-37.247l14.787-118.709c1.066-7.227-5.105-14.208-12.404-14.044h-32.622l1.798-15h30.824c7.883 0 15.396 3.389 20.613 9.296s7.65 13.783 6.675 21.604z"/><path d="m347.224 110.745c2.899 2.962 7.647 3.012 10.606.116 2.961-2.896 3.013-7.645.116-10.606l-9.893-10.111c-2.077-2.124-3.079-5.034-2.748-7.986.331-2.951 1.952-5.567 4.448-7.178l3.5-2.259c6.297-4.063 10.387-10.664 11.222-18.111.834-7.447-1.692-14.79-6.933-20.146l-9.893-10.111c-2.897-2.96-7.646-3.013-10.606-.116-2.961 2.896-3.013 7.645-.116 10.606l9.893 10.111c2.077 2.123 3.079 5.033 2.748 7.985-.331 2.951-1.952 5.568-4.447 7.178l-3.5 2.258c-6.296 4.062-10.387 10.664-11.222 18.11-.835 7.447 1.691 14.791 6.932 20.147z"/><path d="m283.965 110.745c2.899 2.962 7.647 3.012 10.606.116 2.961-2.896 3.013-7.645.116-10.606l-12.772-13.055c-3.143-3.212-4.658-7.615-4.157-12.08s2.953-8.423 6.729-10.859l4.52-2.917c7.576-4.889 12.498-12.832 13.502-21.792 1.005-8.961-2.035-17.796-8.341-24.242l-12.773-13.055c-2.897-2.96-7.646-3.013-10.606-.116-2.961 2.896-3.013 7.645-.116 10.606l12.772 13.055c3.143 3.212 4.658 7.615 4.157 12.08s-2.953 8.423-6.729 10.859l-4.52 2.917c-7.576 4.889-12.498 12.832-13.502 21.792-1.005 8.961 2.035 17.796 8.341 24.242z"/><path d="m217.709 110.745c2.899 2.962 7.647 3.012 10.606.116 2.961-2.896 3.013-7.645.116-10.606l-9.893-10.111c-2.077-2.124-3.079-5.034-2.748-7.986.331-2.951 1.952-5.567 4.448-7.178l3.5-2.259c6.297-4.063 10.387-10.664 11.222-18.111.834-7.447-1.692-14.79-6.933-20.146l-9.892-10.111c-2.897-2.961-7.644-3.013-10.606-.117-2.961 2.896-3.013 7.645-.116 10.606l9.892 10.112c2.077 2.123 3.079 5.033 2.748 7.985-.331 2.951-1.952 5.568-4.447 7.178l-3.5 2.258c-6.296 4.062-10.387 10.664-11.222 18.11-.835 7.447 1.691 14.791 6.932 20.147z"/></g></g></svg>