<svg id="Capa_1" enable-background="new 0 0 512 512" height="512" viewBox="0 0 512 512" width="512" xmlns="http://www.w3.org/2000/svg"><g><g><path d="m255.711 369.845.748 1.629c1.171 2.553 3.379 4.481 6.066 5.299l.682.207c5.768 1.755 8.607 8.245 5.979 13.672-1.277 2.638-1.309 5.709-.087 8.373l16.691 36.378c1.134 2.471 3.016 4.524 5.38 5.867l.746.424c4.983 2.831 7.516 8.597 6.231 14.182-.642 2.79-.343 5.713.851 8.315l12.83 27.964c4.693 10.23 16.571 14.998 27.035 10.852 9.954-3.944 15.396-14.699 12.677-25.055l-20.11-76.581-20.57-75.772-55.149-6.115z" fill="#be785a"/><path d="m271.776 336.091-16.234 35.384c-1.171 2.553-3.379 4.481-6.066 5.299l-.682.207c-5.768 1.755-8.607 8.245-5.979 13.672 1.277 2.638 1.309 5.709.087 8.373l-16.691 36.378c-1.134 2.471-3.016 4.524-5.38 5.867l-.746.424c-4.983 2.831-7.516 8.597-6.231 14.182.642 2.79.343 5.713-.851 8.315l-12.83 27.964c-4.693 10.23-16.571 14.998-27.035 10.852-9.954-3.944-15.396-14.699-12.677-25.055l20.11-76.581 71.283-111.39 31.987 23.618z" fill="#ce845c"/><path d="m343.85 134.256v48.403c0 9.181-4.204 17.857-11.411 23.546l-7.43 5.866c-2.483 1.96-5.69 2.754-8.8 2.179-6.358-1.176-12.35 3.369-12.932 9.808l-.078.864c-.271 3.002-1.766 5.761-4.132 7.629l-12.961 10.233c-4.804 3.793-7.607 9.577-7.607 15.698v12.491c0 9.031 6.052 16.942 14.769 19.304l22.785 6.175c6.734 1.825 12.621 5.94 16.649 11.636l31.509 44.565c1.956 2.767 2.989 6.081 2.95 9.47l-.006.506c-.081 7.043 4.43 13.319 11.132 15.487 3.306 1.069 6.176 3.181 8.182 6.017l37.71 53.335c6.178 8.737 4.858 20.712-3.074 27.894-8.338 7.55-21.126 7.254-29.107-.672l-3.734-3.709c-1.964-1.951-2.992-4.654-2.82-7.417.341-5.485-3.977-10.138-9.472-10.209l-1.634-.021c-2.495-.032-4.881-1.033-6.651-2.792l-57.233-56.847c-1.889-1.876-3.034-4.373-3.223-7.029l-.111-1.556c-.411-5.778-5.231-10.249-11.024-10.226-2.922.012-5.728-1.139-7.801-3.198l-8.753-8.694c-5.928-5.888-9.132-13.981-8.84-22.331l.012-.33c.291-8.327-6.381-15.236-14.714-15.236-8.332 0-15.004 6.909-14.714 15.236l.012.33c.291 8.35-2.913 16.443-8.84 22.331l-8.753 8.694c-2.073 2.059-4.879 3.209-7.801 3.198-5.793-.023-10.613 4.448-11.024 10.226l-.111 1.556c-.189 2.655-1.334 5.153-3.223 7.029l-57.233 56.847c-1.771 1.759-4.156 2.76-6.651 2.792l-1.634.021c-5.495.07-9.812 4.724-9.472 10.209.172 2.763-.856 5.466-2.82 7.417l-3.734 3.709c-7.981 7.927-20.769 8.222-29.107.672-7.932-7.182-9.252-19.157-3.074-27.894l37.709-53.335c2.006-2.837 4.876-4.948 8.182-6.017 6.701-2.168 11.213-8.444 11.132-15.487l-.006-.506c-.039-3.389.994-6.703 2.95-9.47l31.509-44.565c4.028-5.697 9.915-9.811 16.649-11.636l22.785-6.175c8.717-2.362 14.769-10.273 14.769-19.304v-12.491c0-6.121-2.803-11.905-7.607-15.698l-12.961-10.233c-2.366-1.868-3.86-4.627-4.132-7.629l-.078-.864c-.582-6.439-6.574-10.984-12.932-9.808-3.11.575-6.317-.219-8.8-2.179l-7.43-5.866c-7.206-5.689-11.411-14.365-11.411-23.546v-48.403l37.851 12.693v28.701c0 1.53.701 2.977 1.902 3.925l35.706 28.184c7.266 5.735 17.517 5.735 24.783 0l35.706-28.184c1.201-.948 1.902-2.394 1.902-3.925v-24.65z" fill="#e29a6c"/><path d="m421.1 465.36c-4.04 3.66-9.12 5.48-14.19 5.48-5.4 0-10.8-2.06-14.91-6.15l-.1-.1c7.22-7.23 8.25-18.68 2.28-27.12l-37.71-53.34c-1.01-1.41-2.23-2.65-3.61-3.67s-2.92-1.81-4.57-2.34c-6.7-2.17-11.22-8.45-11.13-15.49v-.51c.04-3.39-.99-6.7-2.95-9.47l-31.51-44.56c-4.03-5.7-9.91-9.81-16.65-11.64l-22.78-6.17c-8.72-2.37-14.77-10.28-14.77-19.31v-12.49c0-6.12 2.8-11.9 7.61-15.7l12.96-10.23c2.36-1.87 3.86-4.63 4.13-7.63l.08-.86c.52-5.75 5.35-10 10.91-10 .67 0 1.34.06 2.02.19 3.11.58 6.32-.22 8.8-2.18l7.43-5.86c7.21-5.69 11.41-14.37 11.41-23.55v-35.13l30-13.27v48.4c0 9.18-4.2 17.86-11.41 23.55l-7.43 5.86c-2.48 1.96-5.69 2.76-8.8 2.18-.68-.13-1.35-.19-2.02-.19-5.56 0-10.39 4.25-10.91 10l-.08.86c-.27 3-1.77 5.76-4.13 7.63l-12.96 10.23c-4.81 3.8-7.61 9.58-7.61 15.7v12.49c0 9.03 6.05 16.94 14.77 19.31l22.78 6.17c6.74 1.83 12.62 5.94 16.65 11.64l31.51 44.56c1.96 2.77 2.99 6.08 2.95 9.47v.51c-.09 7.04 4.43 13.32 11.13 15.49 1.65.53 3.19 1.32 4.57 2.34s2.6 2.26 3.61 3.67l37.71 53.34c6.18 8.74 4.86 20.71-3.08 27.89z" fill="#ce845c"/><path d="m406 70.5c-2.54 0-5.023.239-7.431.693-1.395.263-2.65-.819-2.597-2.237.019-.483.028-.968.028-1.456 0-22.091-17.909-40-40-40-10.739 0-20.484 4.237-27.668 11.126-1.193 1.144-3.164.569-3.572-1.033-4.408-17.299-20.088-30.093-38.76-30.093-11.147 0-21.222 4.565-28.475 11.922-.839.851-2.21.851-3.05 0-7.253-7.357-17.328-11.922-28.475-11.922-18.672 0-34.352 12.794-38.76 30.093-.408 1.601-2.379 2.176-3.572 1.033-7.184-6.889-16.929-11.126-27.668-11.126-22.091 0-40 17.909-40 40 0 .488.009.973.027 1.456.053 1.419-1.202 2.5-2.597 2.237-2.407-.454-4.89-.693-7.43-.693-22.091 0-40 17.909-40 40 0 22.091 17.909 40 40 40 7.327 0 14.192-1.972 20.097-5.411 1.131-.659 2.566-.175 3.077 1.029 6.084 14.329 20.278 24.382 36.826 24.382 11.147 0 21.222-4.565 28.475-11.922.839-.851 2.21-.851 3.05 0 7.253 7.356 17.328 11.922 28.475 11.922 11.147 0 21.222-4.565 28.475-11.922.839-.851 2.21-.851 3.05 0 7.253 7.356 17.328 11.922 28.475 11.922 11.147 0 21.222-4.565 28.475-11.922.839-.851 2.21-.851 3.05 0 7.253 7.356 17.328 11.922 28.475 11.922 16.548 0 30.742-10.053 36.826-24.382.512-1.205 1.946-1.688 3.077-1.029 5.906 3.439 12.771 5.411 20.097 5.411 22.091 0 40-17.909 40-40 0-22.091-17.909-40-40-40z" fill="#ccf49f"/><g fill="#b3e59f"><path d="m380.8 150.21c-3.06 5.4-7.33 10.01-12.46 13.47-6.38 4.31-14.06 6.82-22.34 6.82-5.32 0-10.38-1.03-15.01-2.91 2.6-1.05 5.06-2.36 7.35-3.91 6.38-4.3 11.44-10.4 14.49-17.56.51-1.21 1.94-1.69 3.07-1.03 5.91 3.44 12.77 5.41 20.1 5.41 1.62 0 3.23-.1 4.8-.29z"/><path d="m320.83 27.83c-3.49.45-6.85 1.36-10 2.65-4.67 1.92-8.91 4.7-12.5 8.15-1.19 1.14-3.16.56-3.57-1.04-3.16-12.38-12.09-22.46-23.76-27.18 4.63-1.88 9.69-2.91 15-2.91 14.94 0 27.96 8.19 34.83 20.33z"/><path d="m446 110.5c0 11.04-4.48 21.04-11.72 28.28s-17.24 11.72-28.28 11.72c-5.31 0-10.37-1.03-15-2.92 5.01-2.02 9.52-5.04 13.28-8.8 7.24-7.24 11.72-17.24 11.72-28.28s-4.48-21.04-11.72-28.28-17.24-11.72-28.28-11.72c-2.54 0-5.02.24-7.43.69-1.4.27-2.65-.82-2.6-2.23.02-.49.03-.97.03-1.46 0-11.04-4.48-21.04-11.72-28.28-3.76-3.76-8.27-6.78-13.28-8.81 4.63-1.88 9.69-2.91 15-2.91 11.04 0 21.04 4.48 28.28 11.72s11.72 17.24 11.72 28.28c0 .49-.01.97-.03 1.46-.05 1.41 1.2 2.5 2.6 2.23 2.41-.45 4.89-.69 7.43-.69 11.04 0 21.04 4.48 28.28 11.72s11.72 17.24 11.72 28.28z"/></g></g><path d="m290.755 248.67 12.961-10.232c3.965-3.13 6.499-7.811 6.954-12.84.154-2.685 1.375-4.216 4.176-3.973 5.232.968 10.634-.368 14.811-3.667l7.43-5.866c9.064-7.157 14.264-17.885 14.264-29.433v-4.982c15.034-1.693 28.343-10.423 35.856-23.547 5.907 2.543 12.309 3.87 18.793 3.87 26.191 0 47.5-21.309 47.5-47.5s-21.309-47.5-47.501-47.5c-.901 0-1.804.026-2.704.077-2.238-24.126-22.595-43.077-47.295-43.077-9.594 0-18.802 2.853-26.604 8.148-7.515-16.903-24.38-28.148-43.396-28.148-11.074 0-21.552 3.758-30 10.676-8.45-6.918-18.927-10.676-30-10.676-19.017 0-35.881 11.246-43.395 28.148-7.803-5.296-17.011-8.148-26.605-8.148-2.719 0-5.446.232-8.106.69-4.082.703-6.821 4.582-6.119 8.664.703 4.082 4.583 6.819 8.664 6.119 1.822-.314 3.693-.473 5.561-.473 8.416 0 16.398 3.21 22.476 9.039 5.026 5.115 14.471 2.403 16.031-4.594 3.668-14.393 16.618-24.445 31.493-24.445 8.76 0 16.976 3.44 23.136 9.69 3.6 3.802 10.131 3.802 13.73-.003 6.158-6.247 14.374-9.687 23.134-9.687 14.875 0 27.825 10.052 31.492 24.446 1.561 6.996 11.005 9.708 16.031 4.593 6.078-5.829 14.061-9.039 22.477-9.039 17.921 0 32.5 14.58 32.5 32.5 0 .396-.008.791-.022 1.177-.11 2.969 1.113 5.779 3.356 7.711 2.244 1.932 5.207 2.725 8.125 2.175 1.983-.374 4.016-.563 6.041-.563 17.921 0 32.5 14.58 32.5 32.5s-14.579 32.5-32.5 32.5c-5.744 0-11.389-1.519-16.323-4.392-2.397-1.396-5.279-1.696-7.905-.822-2.631.875-4.763 2.843-5.85 5.401-5.11 12.036-16.855 19.813-29.922 19.813-8.76 0-16.975-3.44-23.135-9.688-3.597-3.804-10.135-3.804-13.731.001-6.158 6.247-14.374 9.686-23.134 9.686s-16.975-3.44-23.135-9.688c-3.597-3.804-10.135-3.804-13.731.001-6.158 6.247-14.374 9.686-23.134 9.686s-16.975-3.44-23.135-9.688c-3.597-3.804-10.135-3.804-13.731.001-6.158 6.247-14.374 9.686-23.134 9.686-13.066 0-24.811-7.777-29.922-19.814-2.094-5.255-8.932-7.536-13.755-4.578-4.935 2.873-10.579 4.392-16.323 4.392-17.921 0-32.5-14.58-32.5-32.5s14.58-32.497 32.501-32.497c2.026 0 4.059.189 6.043.564 5.913 1.275 11.86-3.848 11.479-9.881-.015-.392-.022-.787-.022-1.183 0-5.357 1.329-10.664 3.843-15.347 1.959-3.65.588-8.196-3.062-10.156-3.65-1.959-8.195-.588-10.155 3.061-2.985 5.561-4.829 11.717-5.419 18.018-.901-.051-1.805-.077-2.707-.077-26.191 0-47.5 21.308-47.5 47.5s21.308 47.5 47.5 47.5c6.484 0 12.885-1.327 18.793-3.87 7.514 13.125 20.823 21.854 35.856 23.547v4.982c0 11.548 5.199 22.276 14.264 29.433l7.43 5.865c4.178 3.3 9.577 4.636 14.811 3.668 2.8-.244 4.022 1.288 4.176 3.972.455 5.03 2.989 9.71 6.954 12.841l12.961 10.232c3.021 2.385 4.755 5.961 4.755 9.811v12.491c0 5.631-3.796 10.592-9.23 12.065l-22.785 6.174c-8.397 2.275-15.788 7.441-20.81 14.545l-31.51 44.566c-2.887 4.083-4.383 8.885-4.324 13.886l.005.505c.044 3.781-2.344 7.103-5.94 8.266-4.815 1.558-9.076 4.691-11.998 8.824l-37.709 53.334c-8.359 11.823-6.568 28.066 4.164 37.784 11.297 10.229 28.614 9.828 39.426-.911l3.735-3.71c3.496-3.473 5.325-8.286 5.02-13.203-.09-2.184 2.03-2.368 3.717-2.265 4.467-.058 8.672-1.823 11.84-4.97l15.604-15.499-11.997 45.683c-3.679 14.01 3.702 28.598 17.168 33.932 3.461 1.371 7.034 2.022 10.553 2.022 10.894 0 21.257-6.246 26.061-16.72l12.83-27.962c1.874-4.083 2.352-8.745 1.344-13.125-.537-2.336.543-4.796 2.626-5.979l.747-.424c3.753-2.132 6.689-5.334 8.492-9.26l16.691-36.379c2.163-4.717 2.106-10.099-.153-14.767-.71-1.873.277-2.991 2.094-3.436 1.553-.473 3.003-1.175 4.341-2.04 1.339.865 2.79 1.568 4.344 2.041 1.818.448 2.797 1.561 2.091 3.434-2.261 4.669-2.317 10.051-.153 14.769l16.691 36.381c1.802 3.924 4.738 7.125 8.492 9.258l.744.423c2.085 1.185 3.165 3.644 2.627 5.981-1.007 4.38-.529 9.042 1.345 13.123l12.83 27.964c4.806 10.475 15.167 16.72 26.061 16.72 3.518 0 7.093-.652 10.553-2.022 13.466-5.334 20.847-19.922 17.168-33.932l-11.997-45.682 15.603 15.498c3.169 3.147 7.374 4.913 11.841 4.971 1.689-.103 3.805.08 3.717 2.264-.306 4.917 1.523 9.73 5.02 13.204l3.734 3.709c5.575 5.538 12.879 8.326 20.196 8.326 6.873 0 13.759-2.461 19.229-7.415 10.732-9.717 12.523-25.961 4.164-37.783l-37.709-53.335c-2.922-4.132-7.183-7.266-11.998-8.823-3.597-1.164-5.984-4.485-5.941-8.265l.006-.507c.059-5-1.437-9.802-4.324-13.886l-11.295-15.974c-2.392-3.382-7.07-4.186-10.454-1.794-3.382 2.392-4.186 7.072-1.794 10.454l11.295 15.973c1.051 1.487 1.595 3.234 1.574 5.054l-.007.508c-.117 10.386 6.442 19.512 16.323 22.708 1.753.567 3.304 1.708 4.367 3.211l37.709 53.335c3.983 5.633 3.131 13.373-1.984 18.004-5.383 4.874-13.636 4.684-18.787-.434l-3.733-3.708c-.433-.43-.658-1.024-.621-1.631.289-4.654-1.363-9.283-4.535-12.701-3.171-3.418-7.664-5.413-12.325-5.472-.935-.042-2.41.177-3.097-.635l-57.232-56.846c-1.045-.914-1.072-2.52-1.138-3.797-.688-9.656-8.788-17.194-18.46-17.194-.028 0-.058.002-.09 0-.933 0-1.81-.362-2.472-1.018l-8.752-8.694c-4.432-4.401-6.848-10.506-6.631-16.744l.012-.335c.212-6.079-1.998-11.837-6.225-16.212-4.226-4.375-9.902-6.785-15.984-6.785s-11.759 2.41-15.984 6.785c-4.227 4.375-6.436 10.133-6.225 16.217l.012.325c.217 6.243-2.199 12.347-6.631 16.749l-8.751 8.692c-.663.658-1.54 1.02-2.473 1.02-.028.002-.06 0-.09 0-9.671 0-17.772 7.539-18.46 17.196-.066 1.278-.093 2.879-1.137 3.794l-57.234 56.847c-.682.81-2.165.592-3.095.634-4.662.06-9.155 2.054-12.326 5.472-3.172 3.418-4.824 8.047-4.535 12.702.037.607-.188 1.201-.62 1.63l-3.734 3.709c-5.152 5.118-13.405 5.308-18.787.434-5.115-4.631-5.968-12.371-1.984-18.005l37.709-53.334c1.063-1.504 2.614-2.645 4.367-3.212 9.881-3.197 16.44-12.322 16.323-22.71l-.007-.506c-.021-1.82.523-3.567 1.574-5.053l31.51-44.565c3.014-4.262 7.447-7.361 12.486-8.727l22.785-6.174c11.956-3.243 20.306-14.157 20.306-26.545v-12.491c0-8.469-3.812-16.336-10.46-21.584l-12.961-10.232c-.747-.589-1.224-1.471-1.31-2.418l-.078-.863c-.467-5.165-3.105-9.926-7.237-13.06-4.134-3.135-9.43-4.39-14.528-3.448-.981.183-2-.069-2.788-.691l-7.43-5.865c-5.439-4.294-8.559-10.731-8.559-17.661v-5.642c7.454-1.531 14.406-4.826 20.35-9.693.813.666 1.651 1.293 2.5 1.899v6.426c0 3.85 1.733 7.426 4.756 9.812l35.706 28.184c5.016 3.959 11.026 5.938 17.038 5.938 6.011 0 12.022-1.979 17.038-5.938l35.707-28.184c3.021-2.386 4.755-5.962 4.755-9.811v-6.426c.849-.607 1.687-1.234 2.5-1.9 5.946 4.867 12.897 8.162 20.35 9.693v5.642c0 6.929-3.119 13.366-8.559 17.66l-7.43 5.866c-.786.621-1.8.874-2.788.69-5.099-.943-10.395.313-14.528 3.448-4.132 3.134-6.77 7.895-7.237 13.06l-.078.864c-.086.947-.562 1.829-1.31 2.418l-12.961 10.232c-6.647 5.248-10.46 13.115-10.46 21.584v12.491c0 12.388 8.351 23.302 20.307 26.542l22.785 6.174c5.039 1.366 9.473 4.465 12.486 8.727 2.404 3.405 7.109 4.169 10.453 1.794 3.383-2.391 4.187-7.071 1.795-10.454-5.022-7.104-12.413-12.27-20.81-14.545l-22.785-6.174c-5.435-1.473-9.23-6.434-9.23-12.065v-12.491c.001-3.848 1.734-7.424 4.756-9.809zm-16.497 109.642 8.753 8.695c3.51 3.486 8.206 5.417 13.116 5.375 2.602-.07 3.775 2.525 3.622 4.813.317 4.465 2.241 8.662 5.419 11.819l20.648 20.509 18.47 70.331c1.753 6.68-1.766 13.635-8.186 16.178-6.759 2.676-14.426-.402-17.456-7.007l-12.83-27.965c-.501-1.09-.628-2.334-.359-3.504 2.013-8.746-2.031-17.951-9.835-22.386l-.745-.423c-1.003-.57-1.788-1.426-2.27-2.473l-16.689-36.377c-.29-.632-.283-1.353.021-1.979 2.208-4.562 2.31-9.843.278-14.487-2.03-4.644-5.977-8.153-10.829-9.629l-.679-.206c-.016-.005-.029-.014-.045-.019l6.674-14.547c.908 1.144 1.877 2.244 2.922 3.282zm-106.544 121.543 18.469-70.331 20.65-20.51c3.177-3.156 5.101-7.353 5.418-11.818-.155-2.325 1.039-4.918 3.698-4.813 4.919 0 9.548-1.907 13.041-5.376l8.752-8.693c7.386-7.336 11.414-17.51 11.051-27.918l-.012-.325c-.068-1.976.65-3.847 2.023-5.27 2.7-2.921 7.691-2.921 10.391 0 1.373 1.422 2.092 3.294 2.023 5.265l-.012.335c-.068 1.956.019 3.904.254 5.827l-14.737 32.12c-.356.868-1.26 1.256-2.113 1.458-4.85 1.475-8.796 4.984-10.826 9.628-2.031 4.644-1.93 9.924.279 14.488.303.625.31 1.345.021 1.976l-16.689 36.376c-.482 1.05-1.268 1.906-2.27 2.475l-.748.425c-7.802 4.434-11.846 13.639-9.834 22.384.27 1.17.143 2.415-.358 3.506l-12.83 27.964c-3.031 6.606-10.697 9.684-17.456 7.007-6.419-2.546-9.938-9.501-8.185-16.18zm96.031-277.984c-4.561 3.6-10.93 3.6-15.49 0l-31.351-24.747c2.966.572 6.007.875 9.096.875 11.073 0 21.551-3.758 30-10.676 8.45 6.917 18.928 10.676 30 10.676 3.09 0 6.13-.303 9.096-.875z"/></g></svg>