<svg id="Capa_1" enable-background="new 0 0 512 512" height="512" viewBox="0 0 512 512" width="512" xmlns="http://www.w3.org/2000/svg"><g><g><path d="m327.939 504.5h-143.878c-12.604 0-23.238-9.383-24.806-21.89l-37.255-297.11h268l-37.255 297.11c-1.568 12.507-12.202 21.89-24.806 21.89z" fill="#faf2f3"/><path d="m390 185.5-9.48 75.62c-8.46-6.02-18.29-9.95-28.53-11.74l8.01-63.88z" fill="#f0e5e0"/><path d="m374.92 305.75-22.18 176.86c-1.56 12.51-12.2 21.89-24.8 21.89h-143.88c-12.6 0-23.24-9.38-24.8-21.89l-25.88-206.37c11.51-16.95 31.69-28.17 52.31-27.6 14.02.38 27.96 5.06 39.22 13.46 11.43 8.52 19.86 20.42 28.51 32.05 10.21 13.72 20.7 27.05 36.7 33.98 15.66 6.77 33.87 5.97 49.7.21.8-.29 1.59-.59 2.38-.91 12.32-4.94 23.12-12.64 32.72-21.68z" fill="#b3e59f"/><path d="m374.92 305.75-5.08 40.52c-9.73 6.24-20.51 10.88-31.71 13.65l4.07-32.49c12.32-4.94 23.12-12.64 32.72-21.68z" fill="#9bcf84"/><path d="m369.84 346.27-17.1 136.34c-1.56 12.51-12.2 21.89-24.8 21.89h-143.88c-12.6 0-23.24-9.38-24.8-21.89l-21.07-168.04c5.03-6.38 10.55-12.37 16.12-18.29 8.31-8.83 17.51-18 30.57-17.65 8.04.22 15.89 2.89 22.1 7.52 7.08 5.28 13.6 14.08 20.5 23.39l1.87 2.52c9.82 13.19 24.65 33.12 48.87 43.61 29.8 12.88 64.71 7.85 91.62-9.4z" fill="#ccf49f"/><path d="m369.84 346.27-17.1 136.34c-1.56 12.51-12.2 21.89-24.8 21.89h-30c12.6 0 23.24-9.38 24.8-21.89l15.39-122.69c11.2-2.77 21.98-7.41 31.71-13.65z" fill="#b3e59f"/><path d="m380.52 261.12-5.6 44.63c-9.6 9.04-20.4 16.74-32.72 21.68-.79.32-1.58.62-2.38.91-15.83 5.76-34.04 6.56-49.7-.21-16-6.93-26.49-20.26-36.7-33.98 16.91-7.83 33.15-25.93 48.75-35.65 23.52-14.65 55.83-13.41 78.35 2.62z" fill="#9bcf84"/><path d="m380.52 261.12-5.6 44.63c-9.6 9.04-20.4 16.74-32.72 21.68l9.79-78.05c10.24 1.79 20.07 5.72 28.53 11.74z" fill="#87bf6a"/><path d="m382.308 130.5h-252.617c-9.666 0-17.948 6.912-19.677 16.422l-3.799 20.894c-1.674 9.208 5.399 17.683 14.758 17.683h270.054c9.359 0 16.432-8.476 14.758-17.683l-3.799-20.894c-1.729-9.51-10.012-16.422-19.678-16.422z" fill="#fc8d94"/><path d="m391.03 185.5h-30c9.36 0 16.43-8.48 14.75-17.68l-3.79-20.9c-1.73-9.51-10.02-16.42-19.68-16.42h30c9.66 0 17.95 6.91 19.68 16.42l3.79 20.9c1.68 9.2-5.39 17.68-14.75 17.68z" fill="#f77289"/><path d="m281 100.5h-50c-5.523 0-10 4.477-10 10v20h70v-20c0-5.523-4.477-10-10-10z" fill="#ffc7ce"/><path d="m291 110.5v20h-30v-20c0-5.52-4.48-10-10-10h30c5.52 0 10 4.48 10 10z" fill="#f4b0be"/><path d="m241 37.5v63h30v-61c0-1.105.895-2 2-2h53c2.761 0 5-2.239 5-5v-20c0-2.761-2.239-5-5-5h-55c-16.569 0-30 13.431-30 30z" fill="#ffe07d"/><path d="m331 12.5v20c0 2.76-2.24 5-5 5h-30c2.76 0 5-2.24 5-5v-20c0-2.76-2.24-5-5-5h30c2.76 0 5 2.24 5 5z" fill="#ffd064"/><path d="m266 234.5h-20c-2.761 0-5-2.239-5-5v-44h30v44c0 2.761-2.239 5-5 5z" fill="#f0e5e0"/></g><g><path d="m413.164 166.475-3.799-20.895c-2.379-13.083-13.758-22.58-27.056-22.58h-83.809v-12.5c0-9.649-7.851-17.5-17.5-17.5h-2.5v-48h47.5c6.893 0 12.5-5.607 12.5-12.5v-20c0-6.893-5.607-12.5-12.5-12.5h-55c-20.678 0-37.5 16.822-37.5 37.5v55.5h-2.5c-9.649 0-17.5 7.851-17.5 17.5v12.5h-83.809c-13.298 0-24.677 9.497-27.056 22.581l-3.799 20.895c-1.197 6.583.575 13.305 4.862 18.441 3.043 3.646 7.101 6.182 11.591 7.35l36.524 291.277c2.035 16.222 15.898 28.456 32.248 28.456h94.595c4.142 0 7.5-3.358 7.5-7.5s-3.358-7.5-7.5-7.5h-94.595c-8.804 0-16.269-6.587-17.364-15.323l-20.674-164.874c4.514-5.503 9.454-10.818 13.748-15.383 8.301-8.82 15.377-15.533 24.903-15.293 6.512.179 12.842 2.322 17.822 6.035 6.19 4.617 12.385 12.976 18.96 21.848l1.891 2.547c10.292 13.824 25.844 34.714 51.897 45.998 12.274 5.305 25.506 7.922 38.922 7.922 15.631 0 31.506-3.568 46.404-10.559l-15.268 121.76c-1.095 8.735-8.56 15.323-17.364 15.323h-14.283c-4.142 0-7.5 3.358-7.5 7.5s3.358 7.5 7.5 7.5h14.283c16.35 0 30.213-12.234 32.248-28.457l36.524-291.277c4.49-1.169 8.548-3.704 11.591-7.35 4.287-5.137 6.06-11.859 4.863-18.442zm-164.664-128.975c0-12.407 10.093-22.5 22.5-22.5h52.5v15h-50.5c-5.238 0-9.5 4.262-9.5 9.5v53.5h-15zm-20 73c0-1.378 1.122-2.5 2.5-2.5h50c1.378 0 2.5 1.122 2.5 2.5v12.5h-55zm52.701 238.288c-22.371-9.689-36.483-28.645-45.828-41.197l-1.881-2.534c-7.235-9.762-14.068-18.982-22.029-24.919-7.437-5.544-16.804-8.742-26.382-9.004-16.956-.443-28.564 11.858-36.233 20.008-1.695 1.802-3.489 3.718-5.325 5.722l-2.333-18.609c10.659-14.121 27.512-22.574 44.297-22.116 12.639.343 25.047 4.595 34.941 11.976 9.734 7.256 17.212 17.346 25.13 28.027l1.846 2.487c11.519 15.479 22.46 28.902 39.741 36.387 8.323 3.598 17.627 5.399 27.234 5.399 9.256 0 18.794-1.673 27.998-5.022.888-.322 1.766-.655 2.616-1 6.934-2.78 13.608-6.418 20.158-10.985l-2.301 18.354c-25.526 15.111-56.649 17.831-81.649 7.026zm86.62-46.694c-9.32 8.433-18.617 14.448-28.439 18.385-.703.285-1.406.552-2.127.813-15.201 5.531-31.296 5.515-44.154-.044-11.495-4.979-20.042-13.969-28.441-24.706 7.718-4.803 15.107-10.967 22.311-16.977 6.711-5.6 13.051-10.89 19.164-14.698 19.649-12.24 46.387-12.111 66.359-.038zm23.206-124.094h-200.288c-4.142 0-7.5 3.358-7.5 7.5s3.358 7.5 7.5 7.5h42.761v36.5c0 6.893 5.607 12.5 12.5 12.5h20c6.893 0 12.5-5.607 12.5-12.5v-36.5h103.001l-7.003 55.852c-23.893-11.678-53.824-10.713-76.294 3.283-6.994 4.358-14.034 10.232-20.842 15.913-7.168 5.981-14.534 12.126-21.764 16.453-7.606-10.22-15.634-20.534-26.202-28.412-12.349-9.212-27.798-14.52-43.498-14.945-17.026-.471-34.056 6.114-47.138 17.727l-8.26-65.87h25.239c4.142 0 7.5-3.358 7.5-7.5s-3.358-7.5-7.5-7.5h-34.766c-5.604.083-8.432-3.624-7.379-8.841l3.799-20.895c1.082-5.948 6.253-10.264 12.298-10.264h252.617c6.045 0 11.217 4.316 12.298 10.264l3.799 20.895c1.133 4.614-1.59 8.84-7.378 8.84zm-142.527 15h15v34h-15z"/><circle cx="283" cy="432.5" r="10"/><circle cx="229" cy="432.5" r="10"/><circle cx="208" cy="367.5" r="10"/><circle cx="256" cy="392.5" r="10"/><circle cx="326" cy="413.5" r="10"/><circle cx="186" cy="413.5" r="10"/><circle cx="316" cy="459.5" r="10"/><circle cx="256" cy="472.5" r="10"/><circle cx="196" cy="459.5" r="10"/></g></g></svg>