<svg id="Capa_1" enable-background="new 0 0 512 512" height="512" viewBox="0 0 512 512" width="512" xmlns="http://www.w3.org/2000/svg"><g><g><path d="m109 202.5 16.138 34.883c9.132 19.74 13.862 41.23 13.862 62.981v134.136c0 38.66 31.34 70 70 70h94c38.66 0 70-31.34 70-70v-134.137c0-21.75 4.73-43.24 13.862-62.981l16.138-34.882z" fill="#cdf2f9"/><path d="m403 202.5-16.14 34.88c-9.13 19.74-13.86 41.23-13.86 62.98v22.17c0-14.05-11.39-25.44-25.43-25.44-1.55 0-3.07.14-4.54.41.39-20.77 5.1-41.24 13.83-60.12l16.14-34.88z" fill="#b1f1f1"/><path d="m373 337.5v97c0 38.66-31.34 70-70 70h-94c-38.66 0-70-31.34-70-70v-97z" fill="#faf2f3"/><path d="m373 337.5v97c0 38.66-31.34 70-70 70h-30c38.66 0 70-31.34 70-70v-97z" fill="#f0e5e0"/><path d="m366.915 157.5h-221.83c-13.136 0-24.744 8.545-28.646 21.088l-7.439 23.912h294l-7.439-23.912c-3.902-12.543-15.51-21.088-28.646-21.088z" fill="#71ddf9"/><path d="m403 202.5h-30l-7.44-23.91c-3.9-12.54-15.51-21.09-28.64-21.09h30c13.13 0 24.74 8.55 28.64 21.09z" fill="#23c7f7"/><path d="m271 127.5h-30v-115c0-2.761 2.239-5 5-5h20c2.761 0 5 2.239 5 5z" fill="#c3aff0"/><path d="m241 202.5v55c0 2.761 2.239 5 5 5h20c2.761 0 5-2.239 5-5v-55z" fill="#b1f1f1"/><path d="m325.57 500.78c-7.08 2.41-14.67 3.72-22.57 3.72h-94c-7.9 0-15.49-1.31-22.57-3.72 18.76-16.88 43.14-26.28 68.5-26.28h2.14c13.59 0 26.89 2.7 39.2 7.8 10.67 4.42 20.6 10.64 29.3 18.48z" fill="#f0e5e0"/><path d="m325.57 500.78c-7.08 2.41-14.67 3.72-22.57 3.72h-30c15.14 0 29.16-4.81 40.61-12.98 4.19 2.77 8.19 5.86 11.96 9.26z" fill="#e2d6d1"/><path d="m373 322.53v14.97h-234v-14.97c0-14.05 11.39-25.44 25.43-25.44 7.6 0 14.42 3.33 19.08 8.62 2.04 2.31 5.59 2.31 7.63 0 2.33-2.65 5.2-4.8 8.44-6.29 3.24-1.5 6.84-2.33 10.64-2.33 7.6 0 14.41 3.33 19.07 8.62 2.05 2.31 5.59 2.31 7.63 0 4.66-5.29 11.48-8.62 19.08-8.62s14.42 3.33 19.08 8.62c2.04 2.31 5.58 2.31 7.63 0 2.33-2.65 5.2-4.8 8.43-6.29 3.24-1.5 6.84-2.33 10.64-2.33 7.6 0 14.42 3.33 19.08 8.62 2.04 2.31 5.59 2.31 7.63 0 4.66-5.29 11.48-8.62 19.08-8.62 14.04 0 25.43 11.39 25.43 25.44z" fill="#fff"/><path d="m373 322.53v14.97h-30v-37.14c0-.95.01-1.91.03-2.86 1.47-.27 2.99-.41 4.54-.41 14.04 0 25.43 11.39 25.43 25.44z" fill="#f7f7f7"/><path d="m281 127.5h-50c-5.523 0-10 4.477-10 10v20h70v-20c0-5.523-4.477-10-10-10z" fill="#faf2f3"/><path d="m291 137.5v20h-30v-20c0-5.52-4.48-10-10-10h30c5.52 0 10 4.48 10 10z" fill="#f0e5e0"/></g><g><path d="m410.155 204.724c.459-1.444.442-3.009.006-4.452l-7.439-23.912c-4.905-15.767-19.295-26.36-35.807-26.36h-68.415v-12.5c0-9.649-7.851-17.5-17.5-17.5h-2.5v-107.5c0-6.893-5.607-12.5-12.5-12.5h-20c-6.893 0-12.5 5.607-12.5 12.5v107.5h-2.5c-9.649 0-17.5 7.851-17.5 17.5v12.5h-68.415c-16.512 0-30.902 10.593-35.807 26.36l-7.439 23.912c-.545 1.762-.41 3.697.355 5.377l16.138 34.883c8.615 18.623 13.169 39.312 13.169 59.832v99.136c0 4.142 3.358 7.5 7.5 7.5s7.5-3.358 7.5-7.5v-54.5h219v89.5c0 25.938-15.885 48.231-38.435 57.675-8.406-6.953-17.779-12.601-27.925-16.804-13.407-5.555-27.562-8.371-42.071-8.371h-2.14c-25.624 0-50.316 8.915-69.994 25.176-22.551-9.444-38.436-31.738-38.436-57.676 0-4.142-3.358-7.5-7.5-7.5s-7.5 3.358-7.5 7.5c0 42.734 34.766 77.5 77.5 77.5h94c42.734 0 77.5-34.766 77.5-77.5v-134.137c0-20.519 4.554-41.208 13.169-59.832l16.138-34.883c.124-.303.25-.611.348-.924zm-201.156 292.276c-1.654 0-3.289-.084-4.911-.211 15.116-9.598 32.704-14.789 50.841-14.789h2.14c12.529 0 24.752 2.432 36.33 7.229 5.085 2.106 9.94 4.637 14.542 7.557-1.632.128-3.277.214-4.942.214zm39.5-482h15v105h-15zm-20 122.5c0-1.378 1.122-2.5 2.5-2.5h50c1.378 0 2.5 1.122 2.5 2.5v12.5h-55zm-82 192.5v-7.473c0-9.89 8.045-17.935 17.935-17.935 5.143 0 10.046 2.215 13.454 6.077 2.397 2.717 5.837 4.274 9.438 4.274 3.602 0 7.042-1.559 9.437-4.274 3.407-3.862 8.311-6.077 13.454-6.077s10.046 2.215 13.453 6.076c2.396 2.717 5.836 4.275 9.438 4.275s7.042-1.558 9.438-4.274c3.407-3.862 8.311-6.077 13.454-6.077s10.046 2.215 13.453 6.076c2.396 2.717 5.836 4.275 9.438 4.275s7.042-1.558 9.438-4.274c3.407-3.862 8.311-6.077 13.454-6.077s10.046 2.215 13.453 6.076c2.396 2.717 5.836 4.275 9.438 4.275s7.042-1.558 9.438-4.274c3.407-3.862 8.311-6.077 13.454-6.077 9.889 0 17.935 8.045 17.935 17.935v7.473zm233.556-95.766c-8.771 18.959-13.722 39.856-14.451 60.759-5.186-3.409-11.383-5.4-18.04-5.4-8.568 0-16.773 3.345-22.891 9.258-6.118-5.913-14.323-9.258-22.892-9.258s-16.773 3.345-22.892 9.258c-6.118-5.913-14.323-9.258-22.891-9.258s-16.773 3.345-22.891 9.258c-6.118-5.913-14.323-9.258-22.892-9.258-8.568 0-16.772 3.346-22.891 9.258-6.118-5.913-14.323-9.258-22.892-9.258-6.656 0-12.854 1.991-18.04 5.4-.729-20.903-5.68-41.8-14.45-60.759l-11.21-24.234h112.767v47.5c0 6.893 5.607 12.5 12.5 12.5h20c6.893 0 12.5-5.607 12.5-12.5v-55c0-4.142-3.358-7.5-7.5-7.5h-151.812l4.413-14.184c2.943-9.46 11.577-15.816 21.484-15.816h221.83c9.907 0 18.541 6.356 21.484 15.816l4.413 14.184h-86.812c-4.142 0-7.5 3.358-7.5 7.5s3.358 7.5 7.5 7.5h85.267zm-131.556 20.766v-45h15v45z"/><circle cx="335.999" cy="377" r="10"/><circle cx="253.499" cy="367" r="10"/><circle cx="175.999" cy="377" r="10"/><circle cx="295.999" cy="407" r="10"/><circle cx="215.999" cy="407" r="10"/><circle cx="255.999" cy="442" r="10"/><circle cx="195.999" cy="452" r="10"/><circle cx="315.999" cy="452" r="10"/></g></g></svg>