<svg id="Capa_1" enable-background="new 0 0 512 512" height="512" viewBox="0 0 512 512" width="512" xmlns="http://www.w3.org/2000/svg"><g><g><path d="m371.377 444.501h-230.754c-12.913 0-24.377-8.263-28.461-20.513l-1.846-5.538c-.648-1.943.798-3.949 2.846-3.949h285.675c2.048 0 3.494 2.006 2.846 3.949l-1.846 5.538c-4.083 12.25-15.547 20.513-28.46 20.513z" fill="#faf2f3"/><path d="m401.68 418.451-1.84 5.54c-4.09 12.25-15.55 20.51-28.46 20.51h-30c12.91 0 24.37-8.26 28.46-20.51l1.84-5.54c.65-1.94-.79-3.95-2.84-3.95h30c2.05 0 3.49 2.01 2.84 3.95z" fill="#f0e5e0"/><path d="m125.978 359.447c-11.615 6.714-25.098 10.556-39.478 10.556-43.63 0-79-35.369-79-79 0-43.63 35.369-79 79-79 14.548 0 28.177 3.932 39.883 10.792l-12.486 27.577c-7.82-5.283-17.248-8.368-27.396-8.368-27.062 0-49 21.938-49 49 0 27.062 21.938 49 49 49 10.592 0 20.399-3.361 28.413-9.074z" fill="#b1f1f1"/><path d="m392.5 252.503h14c13.807 0 25-11.193 25-25v-2c0-19.33 15.67-35 35-35h29.18c4.871 0 8.82 3.949 8.82 8.82 0 6.852-3.871 13.116-10 16.18-6.129 3.064-10 9.328-10 16.18v30.82c0 46.944-38.056 85-85 85h-13z" fill="#cdf2f9"/><path d="m504.5 199.323c0 3.42-.97 6.7-2.7 9.51-1.74 2.81-4.24 5.14-7.3 6.67s-5.56 3.86-7.3 6.67c-1.73 2.81-2.7 6.09-2.7 9.51v3.82h-30v-3.82c0-3.42.97-6.7 2.7-9.51 1.74-2.81 4.24-5.14 7.3-6.67s5.56-3.86 7.3-6.67c1.73-2.81 2.7-6.09 2.7-9.51 0-4.78-3.8-8.67-8.55-8.81.18-.01.37-.01.55-.01h29.18c4.87 0 8.82 3.95 8.82 8.82z" fill="#b1f1f1"/><path d="m484.5 235.503v27c0 46.94-38.06 85-85 85h-13l6-95h14c11.01 0 20.36-7.11 23.69-17z" fill="#e29a6c"/><path d="m484.5 235.503v27c0 46.94-38.06 85-85 85h-13l.11-1.73c38.74-7.91 67.89-42.19 67.89-83.27v-27z" fill="#ce845c"/><path d="m293 414.503h-74c-60.751 0-110-49.249-110-110v-27c0-60.751 49.249-110 110-110h74c60.751 0 110 49.249 110 110v27c0 60.751-49.249 110-110 110z" fill="#cdf2f9"/><path d="m400.14 252.503h-30c-11.31-48.7-54.99-85-107.14-85h30c52.15 0 95.83 36.3 107.14 85z" fill="#b1f1f1"/><path d="m403 277.503v27c0 60.75-49.25 110-110 110h-74c-60.75 0-110-49.25-110-110v-27c0-8.6.99-16.97 2.86-25h288.28c1.87 8.03 2.86 16.4 2.86 25z" fill="#e29a6c"/><path d="m403 277.503v27c0 60.75-49.25 110-110 110h-30c60.75 0 110-49.25 110-110v-27c0-8.6-.99-16.97-2.86-25h30c1.87 8.03 2.86 16.4 2.86 25z" fill="#ce845c"/><path d="m219 137.503h74v30h-74z" fill="#a4e8f9"/><path d="m301.5 107.503h-21.006c-3.767 0-6.122-3.978-4.417-7.337 1.664-3.278 2.549-7.018 2.409-10.978-.405-11.452-9.613-20.931-21.051-21.64-13.076-.811-23.935 9.554-23.935 22.455 0 3.667.878 7.128 2.435 10.186 1.704 3.348-.667 7.314-4.424 7.314h-21.011c-8.284 0-15 6.716-15 15 0 8.284 6.716 15 15 15h91c8.284 0 15-6.716 15-15 0-8.284-6.716-15-15-15z" fill="#cdf2f9"/><path d="m316.5 122.503c0 8.28-6.72 15-15 15h-30c8.28 0 15-6.72 15-15 0-4.14-1.68-7.89-4.4-10.6-2.71-2.72-6.46-4.4-10.6-4.4h-21.01c-3.76 0-6.12-3.98-4.41-7.34 1.66-3.27 2.55-7.02 2.41-10.98-.22-6.27-3.09-11.96-7.52-15.92 4.31-3.88 10.13-6.11 16.46-5.72 11.44.71 20.65 10.19 21.06 21.64.14 3.96-.75 7.71-2.41 10.98-1.71 3.36.65 7.34 4.41 7.34h21.01c4.14 0 7.89 1.68 10.6 4.4 2.72 2.71 4.4 6.46 4.4 10.6z" fill="#b1f1f1"/><path d="m263 137.503h30v30h-30z" fill="#71ddf9"/><g fill="#ce845c"><path d="m262.161 311.164-4.747-4.747c-.781-.781-2.047-.781-2.828 0l-4.747 4.747c-5.659 5.659-8.839 13.335-8.839 21.339 0 8.004 3.179 15.679 8.839 21.339l4.747 4.747c.781.781 2.047.781 2.828 0l4.747-4.747c5.659-5.659 8.839-13.335 8.839-21.339 0-8.004-3.179-15.679-8.839-21.339z"/><path d="m321.826 293.297-1.318-6.583c-.217-1.083.485-2.137 1.568-2.354l6.583-1.318c7.848-1.571 15.998.039 22.659 4.477 6.66 4.438 11.285 11.34 12.856 19.188l1.318 6.583c.217 1.083-.485 2.137-1.568 2.354l-6.583 1.318c-7.848 1.571-15.998-.039-22.659-4.477-6.66-4.438-11.285-11.34-12.856-19.188z"/><path d="m190.174 293.297 1.318-6.583c.217-1.083-.485-2.137-1.568-2.354l-6.583-1.318c-7.848-1.571-15.998.039-22.659 4.477-6.66 4.438-11.285 11.34-12.856 19.188l-1.318 6.583c-.217 1.083.485 2.137 1.568 2.354l6.583 1.318c7.848 1.571 15.998-.039 22.659-4.477 6.66-4.438 11.285-11.34 12.856-19.188z"/><path d="m296.826 371.709-1.318 6.583c-.217 1.083.485 2.137 1.568 2.354l6.583 1.318c7.848 1.571 15.998-.039 22.659-4.477 6.66-4.438 11.285-11.34 12.856-19.188l1.318-6.583c.217-1.083-.485-2.137-1.568-2.354l-6.583-1.318c-7.848-1.571-15.998.039-22.659 4.477-6.66 4.438-11.285 11.34-12.856 19.188z"/><path d="m215.174 371.709 1.318 6.583c.217 1.083-.485 2.137-1.568 2.354l-6.583 1.318c-7.848 1.571-15.998-.039-22.659-4.477-6.66-4.438-11.285-11.34-12.856-19.188l-1.318-6.583c-.217-1.083.485-2.137 1.568-2.354l6.583-1.318c7.848-1.571 15.998.039 22.659 4.477 6.66 4.438 11.285 11.34 12.856 19.188z"/></g></g><g><path d="m495.681 183.001h-29.181c-23.435 0-42.5 19.065-42.5 42.5v2c0 9.649-7.851 17.5-17.5 17.5h-.575c-13.468-46.723-55.214-81.575-105.425-84.754v-15.246h1c12.406 0 22.5-10.093 22.5-22.5s-10.094-22.5-22.5-22.5h-17.213c1.246-3.535 1.828-7.304 1.693-11.08-.538-15.24-12.873-27.917-28.082-28.862-8.359-.518-16.346 2.35-22.441 8.079-6.01 5.648-9.457 13.617-9.457 21.863 0 3.404.587 6.801 1.714 10h-17.214c-12.407 0-22.5 10.093-22.5 22.5s10.093 22.5 22.5 22.5h1v15.246c-37.411 2.369-70.125 22.315-89.943 51.662-10.969-4.856-22.99-7.408-35.057-7.408-47.696 0-86.5 38.803-86.5 86.499s38.804 86.5 86.5 86.5c12.067 0 24.087-2.552 35.057-7.407 10.269 15.206 24.004 27.884 40.057 36.907h-48.452c-6.947-.187-12.335 7.29-9.961 13.82l1.846 5.539c5.112 15.337 19.409 25.641 35.576 25.641h189.135c4.143 0 7.5-3.358 7.5-7.5s-3.357-7.5-7.5-7.5h-189.135c-9.564 0-18.038-6.011-21.213-15h99.59 74 99.591c-3.177 8.989-11.65 15-21.214 15h-6.619c-4.143 0-7.5 3.358-7.5 7.5s3.357 7.5 7.5 7.5h6.619c16.166 0 30.463-10.304 35.576-25.642l1.846-5.539c2.373-6.532-3.014-14.006-9.961-13.82h-48.451c21.112-11.867 38.208-30.061 48.694-52h.419c51.005 0 92.5-41.495 92.5-92.5v-30.82c0-4.037 2.243-7.667 5.854-9.472 8.726-4.361 14.146-13.131 14.146-22.887 0-8.999-7.321-16.319-16.319-16.319zm-285.181-53c-4.136 0-7.5-3.364-7.5-7.5s3.364-7.5 7.5-7.5h21.01c4.375 0 8.351-2.224 10.634-5.948 2.299-3.75 2.476-8.336.474-12.268-1.074-2.11-1.619-4.392-1.619-6.784 0-4.184 1.68-8.066 4.73-10.933 3.047-2.863 7.037-4.299 11.24-4.037 7.593.471 13.752 6.805 14.021 14.421.092 2.582-.447 5.044-1.601 7.317-2.003 3.945-1.822 8.542.481 12.295 2.282 3.717 6.253 5.936 10.622 5.936h21.008c4.136 0 7.5 3.364 7.5 7.5s-3.364 7.5-7.5 7.5h-47.5c-4.142 0-7.5 3.358-7.5 7.5s3.358 7.5 7.5 7.5h31.5v15h-59v-22.5c0-4.142-3.358-7.5-7.5-7.5h-8.5zm8.5 45h74c45.164 0 83.595 29.363 97.216 70h-268.432c13.621-40.637 52.052-70 97.216-70zm-115.007 153.617c-5.452 2.535-11.417 3.883-17.493 3.883-22.883-.001-41.5-18.617-41.5-41.501s18.617-41.5 41.5-41.5c6.067 0 12.044 1.344 17.494 3.878-1.632 7.788-2.494 15.856-2.494 24.122v27c0 8.265.862 16.331 2.493 24.118zm-17.493 33.882c-39.425 0-71.5-32.074-71.5-71.5s32.075-71.5 71.5-71.5c9.563 0 18.763 1.835 27.428 5.45-2.236 4.453-4.197 9.067-5.861 13.819-6.805-2.806-14.143-4.269-21.567-4.269-31.154 0-56.5 25.346-56.5 56.5s25.346 56.5 56.5 56.5c7.435 0 14.761-1.468 21.565-4.275 1.664 4.754 3.626 9.37 5.863 13.825-8.665 3.616-17.865 5.45-27.428 5.45zm206.5 44.5h-74c-56.519 0-102.5-45.981-102.5-102.5v-27c0-5.965.518-11.811 1.501-17.5h275.999c.983 5.689 1.501 11.535 1.501 17.5v27c-.001 56.519-45.982 102.5-102.501 102.5zm112.087-67.223c3.514-11.14 5.413-22.99 5.413-35.277v-27c0-5.987-.453-11.87-1.321-17.619 11.177-.917 20.771-7.504 25.88-16.881h41.941v19.5c0 40.854-31.78 74.401-71.913 77.277zm86.059-130.985c-7.612 3.805-12.705 10.966-13.882 19.208h-38.276c.003-.167.013-.332.013-.5v-2c0-15.164 12.337-27.5 27.5-27.5h29.181c.728 0 1.319.592 1.319 1.32-.001 4.037-2.244 7.667-5.855 9.472z"/><path d="m262.718 301.111c-3.705-3.704-9.731-3.704-13.435 0l-4.747 4.747c-7.116 7.116-11.036 16.578-11.036 26.643 0 10.064 3.919 19.526 11.036 26.642l4.747 4.747c3.704 3.704 9.73 3.704 13.435 0l4.747-4.747c7.116-7.117 11.035-16.579 11.035-26.642 0-10.064-3.919-19.526-11.035-26.642zm-5.86 47.425-.858.858-.858-.858c-4.283-4.283-6.642-9.978-6.642-16.036s2.359-11.752 6.642-16.036l.858-.858.858.858c4.283 4.283 6.642 9.978 6.642 16.036s-2.359 11.752-6.642 16.036z"/><path d="m371.528 305.233c-1.977-9.869-7.677-18.377-16.052-23.957-8.376-5.581-18.424-7.566-28.29-5.59l-6.582 1.318c-5.137 1.028-8.479 6.043-7.45 11.181l1.318 6.583h-.001c1.977 9.869 7.677 18.377 16.052 23.957 6.262 4.173 13.457 6.335 20.814 6.335 2.483 0 4.985-.247 7.476-.745l6.582-1.318c5.137-1.028 8.479-6.043 7.45-11.181zm-15.66 4.373c-5.939 1.188-11.987-.006-17.027-3.365-5.04-3.358-8.472-8.479-9.66-14.419h-.001l-.237-1.189 1.189-.238c5.938-1.191 11.986.005 17.027 3.365 5.04 3.358 8.472 8.479 9.661 14.419l.237 1.189z"/><path d="m197.528 294.768 1.318-6.583c1.028-5.137-2.315-10.152-7.451-11.18l-6.582-1.318c-9.868-1.976-19.916.009-28.29 5.59-8.375 5.581-14.076 14.088-16.051 23.957l-1.318 6.583c-1.106 4.986 2.423 10.282 7.451 11.18l6.582 1.318c2.491.499 4.992.745 7.476.745 7.357 0 14.554-2.163 20.814-6.335 8.375-5.581 14.075-14.089 16.051-23.957zm-24.369 11.474c-5.04 3.359-11.087 4.553-17.027 3.365l-1.189-.238.238-1.189c1.189-5.94 4.62-11.061 9.661-14.419 5.041-3.36 11.086-4.552 17.027-3.365l1.189.238-.238 1.189c-1.19 5.939-4.62 11.06-9.661 14.419z"/><path d="m340.396 342.004-6.583-1.318c-9.867-1.975-19.915.009-28.289 5.59-8.376 5.58-14.076 14.088-16.052 23.957l-1.319 6.583c-1.028 5.137 2.314 10.152 7.45 11.18l6.583 1.318c2.491.499 4.991.745 7.476.745 7.356 0 14.554-2.163 20.813-6.335 8.376-5.58 14.076-14.088 16.052-23.957l1.319-6.583c1.028-5.137-2.314-10.152-7.45-11.18zm-8.577 14.818c-1.188 5.94-4.62 11.061-9.661 14.419-5.041 3.36-11.093 4.553-17.026 3.365l-1.189-.238.237-1.189h.001c1.188-5.94 4.62-11.061 9.661-14.419 5.041-3.36 11.091-4.552 17.026-3.365l1.189.238z"/><path d="m222.528 370.233c-1.976-9.868-7.676-18.376-16.051-23.957-8.375-5.582-18.426-7.566-28.29-5.59l-6.582 1.318c-5.136 1.027-8.479 6.043-7.451 11.181l1.318 6.583c1.976 9.868 7.676 18.376 16.051 23.957 6.262 4.173 13.458 6.335 20.815 6.335 2.483 0 4.985-.247 7.475-.745l6.582-1.318c5.029-.898 8.557-6.194 7.451-11.181zm-15.66 4.373c-5.941 1.189-11.987-.006-17.027-3.365-5.041-3.359-8.471-8.479-9.661-14.419l-.238-1.189 1.19-.238c5.939-1.191 11.986.006 17.027 3.365s8.471 8.479 9.661 14.419l.238 1.189z"/><path d="m488.077 165.746c2.899 2.962 7.647 3.012 10.606.116 2.961-2.896 3.013-7.645.116-10.606l-5.713-5.838c-2.075-2.328.506-4.093 2.456-5.179 4.438-2.864 7.322-7.517 7.91-12.767.589-5.25-1.192-10.426-4.887-14.202l-5.711-5.838c-2.896-2.959-7.645-3.015-10.606-.117-2.961 2.896-3.013 7.645-.116 10.606l5.712 5.838c.727.743.752 1.598.702 2.041s-.264 1.271-1.137 1.834l-2.021 1.305c-4.438 2.864-7.322 7.517-7.91 12.767-.589 5.25 1.192 10.426 4.887 14.202z"/><path d="m450.687 165.746c2.899 2.962 7.647 3.012 10.606.116 2.961-2.896 3.013-7.645.116-10.606l-5.713-5.838c-1.142-1.582-1.03-2.585.437-3.875l2.02-1.304c4.438-2.864 7.321-7.517 7.91-12.767s-1.191-10.426-4.887-14.203l-5.712-5.838c-2.896-2.96-7.645-3.013-10.605-.116-2.961 2.897-3.013 7.646-.115 10.606l5.711 5.837c.727.743.752 1.598.702 2.041s-.264 1.271-1.138 1.835l-2.019 1.304c-4.439 2.864-7.323 7.517-7.912 12.767s1.192 10.426 4.887 14.202z"/></g></g></svg>