<svg id="Capa_1" enable-background="new 0 0 512 512" height="512" viewBox="0 0 512 512" width="512" xmlns="http://www.w3.org/2000/svg"><g><g><path d="m151.5 379.189h-55.642c-24.682 0-46.951-13.675-58.115-35.687l-27.507-54.23c-3.971-7.83-3.6-16.971.994-24.453 4.594-7.481 12.579-11.948 21.358-11.948h70.142l1.626 30.076h-60.34c-1.496 0-2.465 1.578-1.788 2.912l22.338 44.039c5.979 11.788 18.075 19.216 31.293 19.216h32.811z" fill="#ce845c"/><path d="m306.5 414.03h-62c-82.843 0-150-67.157-150-150v-38h362v38c0 82.843-67.157 150-150 150z" fill="#e29a6c"/><path d="m456.5 226.03v38c0 82.84-67.16 150-150 150h-30c82.84 0 150-67.16 150-150v-38z" fill="#ce845c"/><path d="m404.877 444.03h-278.754c-12.913 0-24.377-8.263-28.461-20.513l-1.846-5.538c-.648-1.943.798-3.949 2.846-3.949h333.675c2.048 0 3.494 2.006 2.846 3.949l-1.846 5.538c-4.083 12.25-15.547 20.513-28.46 20.513z" fill="#faf2f3"/><path d="m456.5 196.03h-362c-8.284 0-15 6.716-15 15 0 8.284 6.716 15 15 15h362c8.284 0 15-6.716 15-15 0-8.284-6.716-15-15-15z" fill="#ce845c"/><path d="m471.5 211.03c0 8.28-6.72 15-15 15h-30c8.28 0 15-6.72 15-15 0-4.14-1.68-7.89-4.4-10.61-2.71-2.71-6.46-4.39-10.6-4.39h30c4.14 0 7.89 1.68 10.6 4.39 2.72 2.72 4.4 6.47 4.4 10.61z" fill="#be785a"/><path d="m346.1 292.928 16.454 9.5c43.046 24.853 57.795 79.896 32.942 122.942l-5 8.66-20.785-12c-43.046-24.853-57.795-79.896-32.942-122.942l2.5-4.33c1.382-2.392 4.44-3.211 6.831-1.83z" fill="#9bcf84"/><path d="m434.897 292.928-16.454 9.5c-43.046 24.853-57.795 79.896-32.942 122.942l5 8.66 20.785-12c43.046-24.853 57.795-79.896 32.942-122.942l-2.5-4.33c-1.382-2.392-4.44-3.211-6.831-1.83z" fill="#b3e59f"/><path d="m411.28 422.03-20.78 12s-.672-.852-.328-2.801c40.2-24.46 47.558-86.029 26.448-127.719.6-.36 1.21-.73 1.82-1.08l16.46-9.5c2.39-1.38 5.45-.56 6.83 1.83l2.5 4.33c24.85 43.04 10.1 98.09-32.95 122.94z" fill="#9bcf84"/><path d="m300.5 344.03h-19c-2.761 0-5 2.239-5 5v5c0 49.706 40.294 90 90 90h24v-10c0-49.705-40.294-90-90-90z" fill="#ccf49f"/><path d="m499.5 344.03h-19c-49.706 0-90 40.294-90 90v10h24c49.706 0 90-40.294 90-90v-5c0-2.761-2.239-5-5-5z" fill="#ccf49f"/><path d="m504.5 349.03v5c0 49.71-40.29 90-90 90h-24v-.2c46.91-3.08 84-42.11 84-89.8v-5c0-2.03-1.21-3.78-2.95-4.56 2.94-.29 5.93-.44 8.95-.44h19c2.76 0 5 2.24 5 5z" fill="#b3e59f"/></g><g><path d="m340.046 171.216c2.899 2.962 7.647 3.012 10.606.116 2.961-2.896 3.013-7.645.116-10.606l-9.892-10.111c-2.077-2.123-3.079-5.033-2.748-7.985.331-2.951 1.952-5.568 4.447-7.178l3.501-2.259c6.297-4.063 10.387-10.664 11.221-18.111s-1.692-14.789-6.932-20.146l-9.892-10.111c-2.896-2.96-7.645-3.013-10.606-.116-2.961 2.896-3.013 7.645-.116 10.606l9.892 10.111c2.077 2.123 3.079 5.033 2.748 7.985-.331 2.951-1.952 5.568-4.447 7.178l-3.501 2.259c-6.297 4.063-10.387 10.664-11.222 18.111-.834 7.447 1.692 14.789 6.933 20.146z"/><path d="m276.789 171.216c2.899 2.962 7.647 3.012 10.606.116 2.961-2.896 3.013-7.645.116-10.606l-12.772-13.055c-3.143-3.212-4.658-7.615-4.157-12.08s2.953-8.423 6.728-10.859l4.519-2.916c7.576-4.889 12.498-12.831 13.502-21.792 1.005-8.961-2.035-17.796-8.341-24.241l-12.772-13.055c-2.897-2.96-7.645-3.013-10.606-.116-2.961 2.896-3.013 7.645-.116 10.606l12.772 13.055c3.143 3.212 4.658 7.615 4.157 12.08s-2.953 8.423-6.728 10.859l-4.519 2.916c-7.576 4.889-12.497 12.831-13.502 21.792-1.004 8.961 2.036 17.796 8.341 24.241z"/><path d="m210.533 171.216c2.898 2.963 7.647 3.012 10.606.117 2.961-2.897 3.013-7.645.117-10.606l-9.892-10.112c-2.077-2.123-3.079-5.033-2.748-7.985s1.952-5.568 4.448-7.178l3.499-2.259c6.296-4.062 10.387-10.663 11.222-18.11s-1.692-14.789-6.932-20.146l-9.892-10.111c-2.896-2.961-7.645-3.013-10.606-.117-2.961 2.897-3.013 7.645-.117 10.606l9.892 10.112c2.077 2.123 3.079 5.033 2.748 7.985s-1.952 5.568-4.448 7.178l-3.499 2.259c-6.296 4.062-10.387 10.663-11.222 18.11s1.692 14.789 6.932 20.146z"/><path d="m499.5 336.529h-19c-5.763 0-11.41.506-16.902 1.47-.613-9.842-2.723-19.525-6.251-28.733.086-.216.185-.423.252-.651 4.248-14.418 6.401-29.419 6.401-44.586v-31.79c8.729-3.096 15-11.432 15-21.21 0-12.407-10.094-22.5-22.5-22.5h-361.994c-12.407 0-22.5 10.093-22.5 22.5 0 9.777 6.27 18.114 15 21.21v31.79c0 3.839.145 7.645.417 11.416h-43.4c-3.329 0-6.357 1.694-8.099 4.531-1.743 2.837-1.884 6.304-.378 9.273l22.338 44.038c7.297 14.386 21.85 23.322 37.981 23.322h21.31c3.851 5.282 8.022 10.317 12.485 15.075h-33.796c-21.841 0-41.546-12.1-51.426-31.579l-27.507-54.23c-2.783-5.487-2.523-11.893.696-17.135 3.22-5.243 8.814-8.372 14.967-8.372h26.912c4.142 0 7.5-3.358 7.5-7.5s-3.358-7.5-7.5-7.5h-26.912c-11.406 0-21.779 5.803-27.749 15.523-5.969 9.72-6.452 21.596-1.292 31.769l27.507 54.23c12.45 24.546 37.281 39.793 64.803 39.793h47.587c.703 0 1.38-.104 2.025-.284 9.77 7.922 20.502 14.698 31.993 20.125h-78.8c-6.947-.187-12.335 7.29-9.961 13.82l1.846 5.538c5.112 15.337 19.409 25.641 35.575 25.641h288.373c53.761 0 97.499-43.738 97.499-97.499v-5c0-6.888-5.607-12.495-12.5-12.495zm-132.022 26.712c-9.988-9.455-21.968-16.823-35.237-21.404.365-13.662 4.133-27.059 11.026-39l1.25-2.165 14.29 8.25c8.677 5.01 16.215 11.406 22.48 19.035-6.81 10.681-11.538 22.662-13.809 35.284zm54.716-54.319 14.289-8.25 1.25 2.165c6.894 11.941 10.662 25.339 11.026 39.001-26.325 9.089-47.576 29.154-58.257 54.7-2.588-6.191-5.798-12.058-9.55-17.527.506-28.887 16.181-55.62 41.242-70.089zm-327.688-105.391h361.995c4.136 0 7.5 3.364 7.5 7.5s-3.364 7.5-7.5 7.5h-26.977c-4.143 0-7.5 3.358-7.5 7.5s3.357 7.5 7.5 7.5h19.477v30.5c0 8.423-.74 16.785-2.194 25.003-3.847-4.404-10.405-5.634-15.659-2.601l-16.454 9.5c-9.193 5.308-17.311 12.018-24.164 19.76-6.922-7.818-15.031-14.453-24.223-19.76l-16.454-9.499c-5.748-3.482-13.837-1.313-17.076 4.575l-2.5 4.33c-7.567 13.106-11.944 27.703-12.876 42.661-5.49-.963-11.136-1.469-16.898-1.469h-19c-6.892 0-12.5 5.607-12.5 12.5v5c0 19.315 5.646 37.335 15.373 52.499h-39.873c-78.574 0-142.498-63.924-142.498-142.498v-30.5h292.518c4.143 0 7.5-3.358 7.5-7.5s-3.357-7.5-7.5-7.5h-300.017c-4.136 0-7.5-3.364-7.5-7.5s3.364-7.501 7.5-7.501zm1.358 138.081c-10.45 0-19.877-5.789-24.603-15.108l-18.29-36.058h36.262c3.107 18.317 9.382 35.568 18.249 51.166zm30.264 94.916c-9.564 0-18.037-6.011-21.213-15h191.3c5.486 5.71 11.66 10.753 18.385 15zm157.875-82.499v-2.5h16.5c45.49 0 82.499 37.009 82.499 82.499v2.5h-16.5c-45.49 0-82.499-37.009-82.499-82.499zm212.997 0c0 45.49-37.009 82.499-82.499 82.499h-16.5v-2.5c0-45.49 37.009-82.499 82.499-82.499h16.5z"/></g></g></svg>