<svg id="Capa_1" enable-background="new 0 0 512 512" height="512" viewBox="0 0 512 512" width="512" xmlns="http://www.w3.org/2000/svg"><g><g><path d="m389.5 424.5h45c22.091 0 40-17.909 40-40v-127c0-22.091-17.909-40-40-40h-45v30h45c5.523 0 10 4.477 10 10v127c0 5.523-4.477 10-10 10h-45z" fill="#fff3d2"/><path d="m324.5 504.5h-155c-35.899 0-65-29.102-65-65v-292c0-5.523 4.477-10 10-10h265c5.523 0 10 4.477 10 10v292c0 35.899-29.102 65-65 65z" fill="#fff3d2"/><path d="m389.5 147.5v41h-30v-41c0-5.52-4.48-10-10-10h30c5.52 0 10 4.48 10 10z" fill="#ffe6ae"/><path d="m389.5 188.5v251c0 35.9-29.1 65-65 65h-155c-35.9 0-65-29.1-65-65v-251z" fill="#ccf49f"/><path d="m389.5 188.5v251c0 35.9-29.1 65-65 65h-30c35.9 0 65-29.1 65-65v-251z" fill="#b3e59f"/><path d="m172.5 419.5c-27.614 0-50-22.386-50-50 0-27.614 22.386-50 50-50 27.614 0 50 22.386 50 50 0 27.614-22.386 50-50 50z" fill="#ad96ed"/><path d="m87.5 504.5c-27.614 0-50-22.386-50-50 0-27.614 22.386-50 50-50 27.614 0 50 22.386 50 50 0 27.614-22.386 50-50 50z" fill="#ad96ed"/><path d="m87.5 419.5c-27.614 0-50-22.386-50-50 0-27.614 22.386-50 50-50 27.614 0 50 22.386 50 50 0 27.614-22.386 50-50 50z" fill="#c3aff0"/><path d="m172.5 504.5c-27.614 0-50-22.386-50-50 0-27.614 22.386-50 50-50 27.614 0 50 22.386 50 50 0 27.614-22.386 50-50 50z" fill="#c3aff0"/><path d="m130 447c-19.33 0-35-15.67-35-35 0-19.33 15.67-35 35-35 19.33 0 35 15.67 35 35 0 19.33-15.67 35-35 35z" fill="#fff"/><path d="m165 412c0 9.66-3.92 18.42-10.25 24.75s-15.09 10.25-24.75 10.25c-5.36 0-10.45-1.21-15-3.37 3.64-1.73 6.94-4.07 9.75-6.88 6.33-6.33 10.25-15.09 10.25-24.75s-3.92-18.42-10.25-24.75c-2.81-2.81-6.11-5.15-9.75-6.88 4.55-2.16 9.64-3.37 15-3.37 9.66 0 18.42 3.92 24.75 10.25s10.25 15.09 10.25 24.75z" fill="#f7f7f7"/><path d="m189.5 263.5h10c11.046 0 20 8.954 20 20v7c0 1.657-1.343 3-3 3h-7c-11.046 0-20-8.954-20-20z" fill="#9bcf84"/><path d="m179.5 263.5h10v10c0 11.046-8.954 20-20 20h-7c-1.657 0-3-1.343-3-3v-7c0-11.046 8.954-20 20-20z" fill="#b3e59f"/><path d="m209.5 233.5h7c1.657 0 3 1.343 3 3v7c0 11.046-8.954 20-20 20h-10v-10c0-11.046 8.954-20 20-20z" fill="#b3e59f"/><path d="m162.5 233.5h7c11.046 0 20 8.954 20 20v10h-10c-11.046 0-20-8.954-20-20v-7c0-1.657 1.343-3 3-3z" fill="#9bcf84"/><path d="m304.5 429.5h10c11.046 0 20 8.954 20 20v7c0 1.657-1.343 3-3 3h-7c-11.046 0-20-8.954-20-20z" fill="#9bcf84"/><path d="m294.5 429.5h10v10c0 11.046-8.954 20-20 20h-7c-1.657 0-3-1.343-3-3v-7c0-11.046 8.954-20 20-20z" fill="#b3e59f"/><path d="m324.5 399.5h7c1.657 0 3 1.343 3 3v7c0 11.046-8.954 20-20 20h-10v-10c0-11.046 8.954-20 20-20z" fill="#b3e59f"/><path d="m277.5 399.5h7c11.046 0 20 8.954 20 20v10h-10c-11.046 0-20-8.954-20-20v-7c0-1.657 1.343-3 3-3z" fill="#9bcf84"/><path d="m304.5 310.5h10c11.046 0 20 8.954 20 20v7c0 1.657-1.343 3-3 3h-7c-11.046 0-20-8.954-20-20z" fill="#9bcf84"/><path d="m294.5 310.5h10v10c0 11.046-8.954 20-20 20h-7c-1.657 0-3-1.343-3-3v-7c0-11.046 8.954-20 20-20z" fill="#b3e59f"/><path d="m324.5 280.5h7c1.657 0 3 1.343 3 3v7c0 11.046-8.954 20-20 20h-10v-10c0-11.046 8.954-20 20-20z" fill="#b3e59f"/><path d="m277.5 280.5h7c11.046 0 20 8.954 20 20v10h-10c-11.046 0-20-8.954-20-20v-7c0-1.657 1.343-3 3-3z" fill="#9bcf84"/></g><g><path d="m311.544 110.745c2.899 2.962 7.647 3.012 10.606.116 2.961-2.896 3.013-7.645.116-10.606l-9.893-10.111c-2.077-2.123-3.079-5.033-2.748-7.985.331-2.951 1.952-5.568 4.447-7.178l3.501-2.259c6.297-4.063 10.387-10.664 11.222-18.111.834-7.447-1.692-14.79-6.933-20.146l-9.893-10.111c-2.897-2.96-7.645-3.013-10.606-.116-2.961 2.896-3.013 7.645-.116 10.606l9.893 10.111c2.077 2.123 3.079 5.033 2.748 7.985-.331 2.951-1.952 5.568-4.447 7.178l-3.501 2.259c-6.297 4.063-10.387 10.664-11.222 18.111-.834 7.447 1.692 14.79 6.933 20.146z"/><path d="m248.285 110.745c2.899 2.962 7.647 3.012 10.606.116 2.961-2.896 3.013-7.645.116-10.606l-12.772-13.055c-3.143-3.212-4.658-7.615-4.157-12.08s2.953-8.423 6.729-10.859l4.52-2.917c7.576-4.889 12.498-12.832 13.502-21.792 1.005-8.961-2.035-17.796-8.341-24.242l-12.773-13.055c-2.897-2.96-7.646-3.014-10.606-.116-2.961 2.896-3.013 7.645-.116 10.606l12.772 13.055c3.143 3.212 4.658 7.615 4.157 12.08s-2.953 8.423-6.729 10.859l-4.52 2.917c-7.576 4.889-12.498 12.832-13.502 21.792-1.005 8.961 2.035 17.796 8.341 24.242z"/><path d="m182.029 110.745c2.899 2.962 7.647 3.012 10.606.116 2.961-2.896 3.013-7.645.116-10.606l-9.893-10.111c-2.077-2.123-3.079-5.033-2.748-7.985.331-2.951 1.952-5.568 4.447-7.178l3.501-2.259c6.297-4.063 10.387-10.664 11.222-18.111.834-7.447-1.692-14.79-6.933-20.146l-9.893-10.111c-2.897-2.96-7.645-3.013-10.606-.116-2.961 2.896-3.013 7.645-.116 10.606l9.893 10.111c2.077 2.123 3.079 5.033 2.748 7.985-.331 2.951-1.952 5.568-4.447 7.178l-3.501 2.259c-6.297 4.063-10.387 10.664-11.222 18.111-.834 7.447 1.692 14.79 6.933 20.146z"/><path d="m474.5 347.894c4.143 0 7.5-3.358 7.5-7.5v-82.894c0-26.191-21.309-47.5-47.5-47.5h-37.5v-62.5c0-9.649-7.851-17.5-17.5-17.5h-265c-9.649 0-17.5 7.851-17.5 17.5v165.299c-3.093-.517-6.263-.799-9.5-.799-31.706 0-57.5 25.794-57.5 57.5 0 16.815 7.256 31.966 18.8 42.489-11.878 10.828-18.8 26.236-18.8 42.511 0 31.706 25.794 57.5 57.5 57.5 14.367 0 27.92-5.302 38.329-14.627 12.535 9.474 27.8 14.627 43.671 14.627h155c39.977 0 72.5-32.523 72.5-72.5v-7.5h37.5c26.191 0 47.5-21.309 47.5-47.5v-9.106c0-4.142-3.357-7.5-7.5-7.5s-7.5 3.358-7.5 7.5v9.106c0 17.92-14.579 32.5-32.5 32.5h-37.5v-15h37.5c9.649 0 17.5-7.851 17.5-17.5v-127c0-9.649-7.851-17.5-17.5-17.5h-37.5v-15h37.5c17.921 0 32.5 14.58 32.5 32.5v82.894c0 4.142 3.357 7.5 7.5 7.5zm-429.5 21.606c0-23.435 19.065-42.5 42.5-42.5s42.5 19.065 42.5 42.5c-9.014 0-17.375 2.829-24.259 7.634l-12.937-12.937c-2.93-2.929-7.678-2.929-10.607 0s-2.929 7.678 0 10.606l12.937 12.938c-4.805 6.884-7.634 15.245-7.634 24.259-23.435 0-42.5-19.065-42.5-42.5zm127.5 127.5c-23.435 0-42.5-19.065-42.5-42.5 9.014 0 17.375-2.829 24.259-7.634l12.937 12.937c2.93 2.929 7.677 2.929 10.607 0 2.929-2.929 2.929-7.678 0-10.606l-12.938-12.938c4.805-6.885 7.634-15.246 7.634-24.259 23.435 0 42.5 19.065 42.5 42.5.001 23.435-19.064 42.5-42.499 42.5zm-70-85c0-15.164 12.337-27.5 27.5-27.5s27.5 12.336 27.5 27.5-12.337 27.5-27.5 27.5-27.5-12.336-27.5-27.5zm95.899-8.812c-7.79-3.948-16.585-6.188-25.899-6.188-.904 0-1.809.029-2.714.071-1.253-3.329-2.915-6.457-4.92-9.33l12.938-12.938c2.929-2.929 2.929-7.678 0-10.606-2.93-2.929-7.678-2.929-10.607 0l-12.937 12.937c-2.873-2.005-6.001-3.667-9.33-4.92.042-.905.071-1.811.071-2.714 0-9.318-2.242-18.117-6.193-25.909 8.032-10.435 20.438-16.591 33.692-16.591 23.435 0 42.5 19.065 42.5 42.5 0 13.288-6.157 25.656-16.601 33.688zm-153.399 51.312c0-13.214 6.178-25.654 16.605-33.685 7.789 3.946 16.583 6.185 25.895 6.185.902 0 1.806-.042 2.708-.084 1.254 3.334 2.917 6.467 4.925 9.344l-12.937 12.938c-2.929 2.929-2.929 7.678 0 10.606 2.93 2.929 7.677 2.929 10.607 0l12.937-12.937c2.873 2.005 6.001 3.667 9.33 4.92-.042.904-.071 1.809-.071 2.714 0 9.313 2.239 18.107 6.186 25.896-8.029 10.447-20.381 16.603-33.685 16.603-23.435 0-42.5-19.065-42.5-42.5zm279.5 42.5h-113.311c11.55-10.524 18.811-25.68 18.811-42.5 0-16.818-7.259-31.971-18.806-42.495 11.894-10.814 18.806-26.138 18.806-42.505 0-31.706-25.794-57.5-57.5-57.5-16.327 0-31.684 6.919-42.505 18.807-5.043-5.534-11.152-10.075-17.995-13.312v-121.495h12.42c4.143 0 7.5-3.358 7.5-7.5s-3.357-7.5-7.5-7.5h-12.42v-33.5c0-1.378 1.121-2.5 2.5-2.5h265c1.379 0 2.5 1.122 2.5 2.5v33.5h-222.58c-4.143 0-7.5 3.358-7.5 7.5s3.357 7.5 7.5 7.5h222.58v243.5c0 31.706-25.794 57.5-57.5 57.5zm110-242c1.379 0 2.5 1.122 2.5 2.5v127c0 1.378-1.121 2.5-2.5 2.5h-37.5v-132z"/><path d="m216.5 226h-7c-7.875 0-14.982 3.332-20 8.655-5.018-5.323-12.125-8.655-20-8.655h-7c-5.79 0-10.5 4.71-10.5 10.5v7c0 7.875 3.333 14.982 8.655 20-5.323 5.018-8.655 12.125-8.655 20v7c0 5.79 4.71 10.5 10.5 10.5h7c7.875 0 14.982-3.332 20-8.655 5.018 5.323 12.125 8.655 20 8.655h7c5.79 0 10.5-4.71 10.5-10.5v-7c0-7.875-3.333-14.982-8.655-20 5.323-5.018 8.655-12.125 8.655-20v-7c0-5.789-4.71-10.5-10.5-10.5zm-49.5 17.5v-2.5h2.5c6.893 0 12.5 5.607 12.5 12.5v2.5h-2.5c-6.893 0-12.5-5.607-12.5-12.5zm2.5 42.5h-2.5v-2.5c0-6.893 5.607-12.5 12.5-12.5h2.5v2.5c0 6.893-5.607 12.5-12.5 12.5zm42.5-2.5v2.5h-2.5c-6.893 0-12.5-5.607-12.5-12.5v-2.5h2.5c6.893 0 12.5 5.607 12.5 12.5zm-15-27.5v-2.5c0-6.893 5.607-12.5 12.5-12.5h2.5v2.5c0 6.893-5.607 12.5-12.5 12.5z"/><path d="m331.5 392h-7c-7.875 0-14.982 3.332-20 8.655-5.018-5.323-12.125-8.655-20-8.655h-7c-5.79 0-10.5 4.71-10.5 10.5v7c0 7.875 3.333 14.982 8.655 20-5.323 5.018-8.655 12.125-8.655 20v7c0 5.79 4.71 10.5 10.5 10.5h7c7.875 0 14.982-3.332 20-8.655 5.018 5.323 12.125 8.655 20 8.655h7c5.79 0 10.5-4.71 10.5-10.5v-7c0-7.875-3.333-14.982-8.655-20 5.323-5.018 8.655-12.125 8.655-20v-7c0-5.79-4.71-10.5-10.5-10.5zm-49.5 17.5v-2.5h2.5c6.893 0 12.5 5.607 12.5 12.5v2.5h-2.5c-6.893 0-12.5-5.607-12.5-12.5zm2.5 42.5h-2.5v-2.5c0-6.893 5.607-12.5 12.5-12.5h2.5v2.5c0 6.893-5.607 12.5-12.5 12.5zm42.5-2.5v2.5h-2.5c-6.893 0-12.5-5.607-12.5-12.5v-2.5h2.5c6.893 0 12.5 5.607 12.5 12.5zm-15-27.5v-2.5c0-6.893 5.607-12.5 12.5-12.5h2.5v2.5c0 6.893-5.607 12.5-12.5 12.5z"/><path d="m331.5 273h-7c-7.875 0-14.982 3.332-20 8.655-5.018-5.323-12.125-8.655-20-8.655h-7c-5.79 0-10.5 4.71-10.5 10.5v7c0 7.875 3.333 14.982 8.655 20-5.323 5.018-8.655 12.125-8.655 20v7c0 5.79 4.71 10.5 10.5 10.5h7c7.875 0 14.982-3.332 20-8.655 5.018 5.323 12.125 8.655 20 8.655h7c5.79 0 10.5-4.71 10.5-10.5v-7c0-7.875-3.333-14.982-8.655-20 5.323-5.018 8.655-12.125 8.655-20v-7c0-5.789-4.71-10.5-10.5-10.5zm-49.5 17.5v-2.5h2.5c6.893 0 12.5 5.607 12.5 12.5v2.5h-2.5c-6.893 0-12.5-5.607-12.5-12.5zm2.5 42.5h-2.5v-2.5c0-6.893 5.607-12.5 12.5-12.5h2.5v2.5c0 6.893-5.607 12.5-12.5 12.5zm42.5-2.5v2.5h-2.5c-6.893 0-12.5-5.607-12.5-12.5v-2.5h2.5c6.893 0 12.5 5.607 12.5 12.5zm-15-27.5v-2.5c0-6.893 5.607-12.5 12.5-12.5h2.5v2.5c0 6.893-5.607 12.5-12.5 12.5z"/></g></g></svg>