<svg id="Capa_1" enable-background="new 0 0 512 512" height="512" viewBox="0 0 512 512" width="512" xmlns="http://www.w3.org/2000/svg"><g><g><path d="m241 106.5v-59c0-22.091 17.909-40 40-40h40c2.761 0 5 2.239 5 5v20c0 2.761-2.239 5-5 5h-40c-5.523 0-10 4.477-10 10v59z" fill="#fc8d94"/><path d="m326 12.5v20c0 2.76-2.24 5-5 5h-30c2.76 0 5-2.24 5-5v-20c0-2.76-2.24-5-5-5h30c2.76 0 5 2.24 5 5z" fill="#f77289"/><path d="m138.242 191.944c-1.537-3.635-2.388-7.631-2.388-11.826 0-13.697 9.066-25.271 21.523-29.062 2.574-.783 4.259-3.182 4.255-5.873 0-.017 0-.033 0-.05 0-16.779 13.602-30.382 30.381-30.382 2.862 0 5.631.397 8.256 1.137 2.807.792 5.735-.465 7.069-3.058 5.043-9.794 15.251-16.492 27.025-16.492 6.752 0 12.988 2.205 18.031 5.931 2.149 1.588 5.06 1.588 7.209 0 5.043-3.727 11.279-5.931 18.031-5.931 11.774 0 21.982 6.699 27.025 16.492 1.335 2.593 4.263 3.85 7.069 3.058 2.625-.74 5.394-1.137 8.256-1.137 16.779 0 30.381 13.602 30.381 30.382v.05c-.005 2.691 1.681 5.089 4.255 5.873 12.457 3.791 21.523 15.365 21.523 29.062 0 3.275-.518 6.428-1.477 9.384l-113.108 22.143z" fill="#ccf49f"/><path d="m376.15 180.12c0 3.27-.52 6.43-1.48 9.38h-30c.96-2.95 1.48-6.11 1.48-9.38 0-13.7-9.07-25.27-21.53-29.06-2.57-.79-4.26-3.19-4.25-5.88v-.05c0-8.39-3.4-15.99-8.9-21.48-5.5-5.5-13.09-8.9-21.48-8.9-2.87 0-5.64.4-8.26 1.14-2.81.79-5.73-.47-7.07-3.06-2.52-4.89-6.33-9.02-10.99-11.92-.34-.21-.68-.42-1.03-.61 4.43-2.52 9.54-3.96 15-3.96 5.88 0 11.38 1.68 16.03 4.57 4.66 2.9 8.47 7.03 10.99 11.92 1.34 2.59 4.26 3.85 7.07 3.06 2.62-.74 5.39-1.14 8.26-1.14 8.39 0 15.98 3.4 21.48 8.9 5.5 5.49 8.9 13.09 8.9 21.48v.05c-.01 2.69 1.68 5.09 4.25 5.88 12.46 3.79 21.53 15.36 21.53 29.06z" fill="#b3e59f"/><path d="m188.133 504.5h135.734c7.518 0 13.875-5.565 14.868-13.018l30.265-226.982h-226l30.264 226.982c.994 7.453 7.351 13.018 14.869 13.018z" fill="#fff3d2"/><path d="m369 264.5-5.44 40.83c-5.18-4.26-11.82-6.83-19.06-6.83-3.61 0-7.08.64-10.28 1.82l4.78-35.82z" fill="#ffe6ae"/><path d="m363.56 305.33-7.03 52.74c-4.27-2.88-9.42-4.56-14.97-4.57-14.79-.03-27.05 12.18-27.06 26.97v.22c0 .52-.53.85-.99.62-3.62-1.79-7.69-2.81-12.01-2.81-14.36 0-26.1 11.21-26.95 25.35-.03.56-.71.83-1.12.46-4.77-4.23-11.05-6.81-17.93-6.81-6.44 0-12.36 2.26-17 6.02-.42.34-1.07.08-1.12-.46-1.22-13.77-12.79-24.56-26.88-24.56-4.32 0-8.39 1.02-12.01 2.81-.46.23-.99-.1-.99-.62v-.22c-.01-14.79-12.27-27-27.06-26.97-5.55.01-10.7 1.69-14.97 4.57l-7.03-52.74c5.18-4.26 11.82-6.83 19.06-6.83 15.63 0 28.47 11.96 29.86 27.23.12 1.25 1.31 2.07 2.52 1.75 2.43-.64 4.99-.98 7.62-.98 12.35 0 22.95 7.47 27.55 18.13.5 1.17 2.01 1.57 3.03.81 5.01-3.73 11.21-5.94 17.92-5.94s12.91 2.21 17.92 5.94c1.02.76 2.53.36 3.03-.81 4.6-10.66 15.2-18.13 27.55-18.13 2.63 0 5.19.34 7.62.98 1.21.32 2.4-.5 2.52-1.75 1.39-15.27 14.23-27.23 29.86-27.23 7.24 0 13.88 2.57 19.06 6.83z" fill="#ffc269"/><path d="m363.56 305.33-7.03 52.74c-4.27-2.88-9.42-4.56-14.97-4.57-5.54-.01-10.73 1.7-15.04 4.61l7.7-57.79c3.2-1.18 6.67-1.82 10.28-1.82 7.24 0 13.88 2.57 19.06 6.83z" fill="#ffa95f"/><path d="m121.864 189.5h268.273c3.077 0 5.423 2.752 4.937 5.79l-9.726 60.79c-.776 4.851-4.961 8.42-9.874 8.42h-238.947c-4.913 0-9.098-3.569-9.874-8.42l-9.726-60.79c-.487-3.038 1.86-5.79 4.937-5.79z" fill="#fff3d2"/><path d="m395.07 195.29-6.16 38.5-9.54-6.86c-5.27-3.79-11.45-5.68-17.63-5.68-.27 0-.55 0-.82.01l4.15-25.97c.49-3.04-1.86-5.79-4.93-5.79h30c3.07 0 5.42 2.75 4.93 5.79z" fill="#ffe6ae"/><path d="m388.91 233.79-3.56 22.29c-.78 4.85-4.96 8.42-9.88 8.42h-238.94c-4.92 0-9.1-3.57-9.88-8.42l-3.56-22.29 9.53-6.86c10.53-7.57 24.72-7.57 35.25 0 5.27 3.79 11.45 5.68 17.63 5.68s12.36-1.89 17.62-5.68 11.44-5.68 17.62-5.68 12.36 1.89 17.63 5.68 11.45 5.68 17.63 5.68 12.36-1.89 17.62-5.68 11.44-5.68 17.62-5.68 12.36 1.89 17.63 5.68 11.45 5.68 17.63 5.68 12.36-1.89 17.62-5.68 11.44-5.68 17.62-5.68 12.36 1.89 17.63 5.68z" fill="#ffe6ae"/><path d="m388.91 233.79-3.56 22.29c-.78 4.85-4.96 8.42-9.88 8.42h-30c4.92 0 9.1-3.57 9.88-8.42l5.57-34.82c.27-.01.55-.01.82-.01 6.18 0 12.36 1.89 17.63 5.68z" fill="#ffd385"/><path d="m356.53 358.07-17.79 133.41c-1 7.45-7.35 13.02-14.87 13.02h-135.74c-7.52 0-13.87-5.57-14.87-13.02l-17.79-133.41c4.274-2.879 9.42-4.557 14.966-4.57 14.789-.034 27.051 12.184 27.064 26.973 0 .073 0 .147-.001.22-.003.52.529.851.995.619 3.613-1.797 7.689-2.813 12.006-2.813 14.086 0 25.656 10.792 26.884 24.559.048.54.693.806 1.114.464 4.642-3.766 10.558-6.023 17.003-6.023 6.879 0 13.163 2.577 17.925 6.811.418.372 1.09.098 1.124-.461.856-14.144 12.595-25.35 26.951-25.35 4.317 0 8.392 1.016 12.006 2.813.466.232.998-.099.995-.619 0-.073-.001-.147-.001-.22.013-14.789 12.275-27.008 27.064-26.973 5.545.013 10.691 1.691 14.965 4.57z" fill="#e29a6c"/><path d="m356.53 358.07-17.79 133.41c-1 7.45-7.35 13.02-14.87 13.02h-30c7.52 0 13.87-5.57 14.87-13.02l17.78-133.37c4.31-2.91 9.5-4.62 15.04-4.61 5.55.01 10.7 1.69 14.97 4.57z" fill="#ce845c"/><g fill="#6f6571"><circle cx="221" cy="459.5" r="15"/><circle cx="291" cy="459.5" r="15"/></g></g><g><path d="m390.15 182h-6.545c.031-.626.054-1.253.054-1.881 0-16.421-10.317-30.711-25.789-35.901-.488-20.467-17.289-36.965-37.871-36.965-3.111 0-6.201.379-9.2 1.129-6.546-11.831-18.762-19.208-32.285-19.512v-41.37c0-1.378 1.122-2.5 2.5-2.5h40c6.893 0 12.5-5.607 12.5-12.5v-20c0-6.893-5.607-12.5-12.5-12.5h-40c-26.191 0-47.5 21.309-47.5 47.5v41.368c-13.524.304-25.74 7.682-32.285 19.512-3-.75-6.089-1.129-9.201-1.129-20.562 0-37.349 16.467-37.869 36.965-15.472 5.19-25.791 19.481-25.791 35.902 0 .629.032 1.255.063 1.881h-6.554c-7.468-.179-13.699 7.129-12.343 14.475l9.727 60.79c1.361 8.507 8.582 14.685 17.186 14.731l29.397 220.478c1.484 11.132 11.072 19.527 22.303 19.527h82.746c4.142 0 7.5-3.358 7.5-7.5s-3.358-7.5-7.5-7.5h-82.746c-3.744 0-6.939-2.798-7.435-6.509l-17.097-128.227c2.172-.821 4.491-1.258 6.852-1.264h.045c5.132 0 10.003 2.038 13.719 5.742 3.725 3.713 5.779 8.592 5.783 13.731-.349 5.989 6.547 10.4 11.833 7.555 2.707-1.346 5.623-2.028 8.667-2.028 10 0 18.527 7.786 19.413 17.721.354 6.343 8.514 9.786 13.31 5.626 3.505-2.844 7.75-4.347 12.277-4.347 4.781 0 9.376 1.746 12.945 4.918 4.817 4.57 13.416.991 13.591-5.616.62-10.262 9.17-18.302 19.464-18.302 3.044 0 5.96.683 8.666 2.028 5.285 2.843 12.178-1.56 11.834-7.548.004-5.146 2.058-10.025 5.783-13.738 3.727-3.715 8.596-5.779 13.764-5.742 2.366.005 4.682.436 6.853 1.256l-17.098 128.235c-.495 3.71-3.691 6.509-7.435 6.509h-17.988c-4.142 0-7.5 3.358-7.5 7.5s3.358 7.5 7.5 7.5h17.988c11.23 0 20.818-8.395 22.303-19.526l29.397-220.478c8.605-.045 15.825-6.224 17.186-14.731l9.727-60.791c1.246-9.499-5.022-14.474-12.344-14.474zm-109.136-167h37.5v15h-37.5c-9.649 0-17.5 7.851-17.5 17.5v44.064c-2.624 1.058-5.138 2.414-7.5 4.063-2.362-1.649-4.876-3.005-7.5-4.063v-44.064c0-17.92 14.579-32.5 32.5-32.5zm-137.645 165.119c0-10.142 6.513-18.937 16.207-21.887 5.735-1.745 9.582-6.994 9.572-13.098 0-12.617 10.265-22.882 22.881-22.882 2.114 0 4.207.288 6.219.855 6.194 1.749 12.831-1.128 15.774-6.842 3.946-7.665 11.747-12.426 20.357-12.426 4.929 0 9.623 1.543 13.573 4.462 4.823 3.564 11.303 3.564 16.124 0 3.951-2.919 8.645-4.463 13.574-4.463 8.61 0 16.411 4.761 20.357 12.426 2.942 5.713 9.574 8.593 15.773 6.842 2.013-.567 4.106-.855 6.22-.855 12.617 0 22.881 10.265 22.881 22.919-.01 6.067 3.837 11.315 9.572 13.061 9.693 2.95 16.207 11.745 16.207 21.887 0 .629-.035 1.256-.086 1.881h-225.12c-.051-.623-.085-1.25-.085-1.88zm243.849 16.881-3.78 23.626c-13.126-9.235-30.627-9.172-43.683.215-7.922 5.697-18.568 5.699-26.493 0-13.16-9.463-30.845-9.462-44.007 0-7.922 5.697-18.568 5.699-26.493 0-13.16-9.463-30.845-9.462-44.007 0-7.922 5.697-18.568 5.699-26.493 0-13.051-9.385-30.547-9.451-43.674-.219l-3.779-23.622zm-45.623 149c-.028 0-.053 0-.081 0-9.129 0-17.76 3.592-24.308 10.119-4.402 4.388-7.479 9.721-9.033 15.521-2.173-.426-4.397-.64-6.659-.64-14.516 0-27.071 9.04-32.126 21.909-4.334-1.904-9.052-2.909-13.874-2.909-4.472 0-8.888.878-12.988 2.542-5.105-12.773-17.512-21.542-32.012-21.542-2.262 0-4.486.214-6.66.639-1.553-5.799-4.631-11.132-9.033-15.521-6.548-6.526-15.178-10.118-24.308-10.118-.026 0-.054 0-.08 0-3 .007-5.966.413-8.829 1.177l-5.106-38.293c3.346-1.889 7.094-2.884 11.016-2.884 11.702 0 21.33 8.775 22.396 20.413.388 5.708 6.396 9.91 11.892 8.323 1.859-.489 3.781-.736 5.712-.736 8.988 0 17.098 5.337 20.662 13.598 2.208 5.518 9.737 7.529 14.405 3.852 3.905-2.911 8.55-4.45 13.434-4.45s9.529 1.539 13.434 4.45c4.696 3.684 12.189 1.661 14.406-3.854 3.562-8.259 11.672-13.596 20.661-13.596 1.932 0 3.854.248 5.712.736 5.495 1.585 11.505-2.615 11.892-8.325 1.064-11.636 10.692-20.411 22.394-20.411 3.913 0 7.664 1.003 11.015 2.893l-5.105 38.29c-2.861-.763-5.822-1.176-8.829-1.183zm33.891-89h-169.581c-4.142 0-7.5 3.358-7.5 7.5s3.358 7.5 7.5 7.5h154.542l-2.846 21.344c-4.144-1.545-8.554-2.344-13.088-2.344-17.487 0-32.196 11.763-36.334 28.179-1.217-.119-2.44-.179-3.666-.179-12.849 0-24.621 6.542-31.456 17.085-5.243-2.686-11.036-4.085-17.044-4.085s-11.802 1.399-17.044 4.085c-6.836-10.544-18.606-17.085-31.455-17.085-1.226 0-2.449.06-3.666.179-4.138-16.418-18.847-28.179-36.334-28.179-4.544 0-8.949.802-13.088 2.344l-2.846-21.344h19.325c4.142 0 7.5-3.358 7.5-7.5s-3.358-7.5-7.5-7.5h-34.364c-1.235 0-2.273-.885-2.469-2.105l-2.836-17.722 5.776-4.154c7.925-5.698 18.571-5.697 26.493 0 13.16 9.464 30.846 9.465 44.007 0 7.925-5.698 18.571-5.697 26.493 0 13.16 9.464 30.846 9.465 44.007 0 7.925-5.698 18.571-5.697 26.493 0 13.16 9.464 30.846 9.465 44.007 0 7.924-5.697 18.571-5.697 26.493 0l5.784 4.159-2.835 17.717c-.194 1.22-1.232 2.105-2.468 2.105z"/><path d="m221.014 437c-12.407 0-22.5 10.093-22.5 22.5s10.093 22.5 22.5 22.5 22.5-10.093 22.5-22.5-10.094-22.5-22.5-22.5zm0 30c-4.136 0-7.5-3.364-7.5-7.5s3.364-7.5 7.5-7.5 7.5 3.364 7.5 7.5-3.365 7.5-7.5 7.5z"/><path d="m313.514 459.5c0-12.407-10.093-22.5-22.5-22.5s-22.5 10.093-22.5 22.5 10.093 22.5 22.5 22.5 22.5-10.093 22.5-22.5zm-22.5 7.5c-4.136 0-7.5-3.364-7.5-7.5s3.364-7.5 7.5-7.5 7.5 3.364 7.5 7.5-3.365 7.5-7.5 7.5z"/></g></g></svg>