<svg id="Capa_1" enable-background="new 0 0 512 512" height="512" viewBox="0 0 512 512" width="512" xmlns="http://www.w3.org/2000/svg"><g><g><path d="m329.939 474.5h-147.878c-7.487 0-13.827-5.521-14.857-12.936l-38.204-275.064h254l-38.203 275.064c-1.03 7.415-7.371 12.936-14.858 12.936z" fill="#faf2f3"/><path d="m383 186.5-8.33 60h-30l8.33-60z" fill="#f0e5e0"/><path d="m374.67 246.5-29.87 215.06c-1.03 7.42-7.37 12.94-14.86 12.94h-147.88c-7.49 0-13.83-5.52-14.86-12.94l-29.87-215.06z" fill="#cdf2f9"/><path d="m354.29 393.17-9.49 68.39c-1.03 7.42-7.37 12.94-14.86 12.94h-30c7.49 0 13.83-5.52 14.86-12.94l7.47-53.82c3.14 1.76 6.77 2.76 10.63 2.76 5.46 0 10.49-2.01 14.35-5.36 3.5-3.04 6.04-7.2 7.04-11.97z" fill="#b1f1f1"/><path d="m374.67 246.5-20.36 146.6c-1 4.8-3.54 8.98-7.06 12.04-3.86 3.35-8.89 5.36-14.35 5.36-12.07 0-21.87-9.79-21.87-21.87v-4.63c0-4.84-1.96-9.21-5.12-12.38-3.17-3.16-7.55-5.12-12.38-5.12-9.66 0-17.5 7.83-17.5 17.5v31.47c0 5.53-2.24 10.54-5.87 14.16-3.62 3.63-8.63 5.87-14.16 5.87-11.06 0-20.03-8.97-20.03-20.03v-31.47c0-4.84-1.96-9.21-5.13-12.38-3.16-3.16-7.54-5.12-12.37-5.12-9.67 0-17.5 7.83-17.5 17.5v4.63c0 6.04-2.45 11.51-6.41 15.47-3.96 3.95-9.42 6.4-15.46 6.4-10.42 0-19.31-7.33-21.41-17.4l-20.36-146.6z" fill="#71ddf9"/><path d="m374.67 246.5-20.36 146.6v.02c-.01.02-.01.03-.02.05-1 4.77-3.54 8.93-7.04 11.97-3.86 3.35-8.89 5.36-14.35 5.36-3.86 0-7.49-1-10.63-2.76l2.04-14.62c0-.01 0-.01 0-.02l20.36-146.6z" fill="#23c7f7"/><path d="m314 504.5h-116c-5.523 0-10-4.477-10-10v-20h136v20c0 5.523-4.477 10-10 10z" fill="#faf2f3"/><path d="m324 474.5v20c0 5.52-4.48 10-10 10h-30c5.52 0 10-4.48 10-10v-20z" fill="#f0e5e0"/><path d="m376.136 131.5h-240.272c-12.082 0-22.435 8.641-24.597 20.528l-3.053 16.789c-1.674 9.208 5.399 17.683 14.758 17.683h266.054c9.359 0 16.432-8.476 14.758-17.683l-3.053-16.789c-2.16-11.887-12.513-20.528-24.595-20.528z" fill="#6f6571"/><path d="m389.03 186.5h-30c9.36 0 16.43-8.48 14.75-17.68l-3.05-16.79c-2.16-11.89-12.51-20.53-24.59-20.53h30c12.08 0 22.43 8.64 24.59 20.53l3.05 16.79c1.68 9.2-5.39 17.68-14.75 17.68z" fill="#5d5360"/><path d="m315 86.5h-118c-24.853 0-45 20.147-45 45h208c0-24.853-20.147-45-45-45z" fill="#8c868e"/><path d="m246 321.5h20c2.761 0 5-2.239 5-5v-70h-30v70c0 2.761 2.239 5 5 5z" fill="#23c7f7"/><path d="m241 186.5h30v60h-30z" fill="#f0e5e0"/><path d="m271 86.5h-30v-74c0-2.761 2.239-5 5-5h20c2.761 0 5 2.239 5 5z" fill="#c3aff0"/><path d="m360 131.5h-30c0-12.42-5.04-23.68-13.18-31.82s-19.4-13.18-31.82-13.18h30c12.42 0 23.68 5.04 31.82 13.18s13.18 19.4 13.18 31.82z" fill="#7a767c"/></g><g><path d="m411.164 167.475-3.053-16.789c-2.811-15.463-16.259-26.686-31.976-26.686h-9.18c-3.651-25.407-25.554-45-51.955-45h-36.5v-66.5c0-6.893-5.608-12.5-12.5-12.5h-20c-6.893 0-12.5 5.607-12.5 12.5v66.5h-36.5c-26.402 0-48.304 19.593-51.956 45h-9.18c-15.716 0-29.164 11.223-31.976 26.687l-3.052 16.789c-1.197 6.583.575 13.305 4.862 18.441 4.179 5.007 10.268 7.925 16.769 8.07l37.307 268.61c1.465 10.542 10.238 18.596 20.726 19.332v12.571c0 9.649 7.851 17.5 17.5 17.5h116c9.649 0 17.5-7.851 17.5-17.5v-12.573c10.487-.736 19.261-8.79 20.726-19.332l29.576-212.95c.444-.957.698-2.02.698-3.145 0-.397-.04-.784-.099-1.165l7.132-51.349c6.501-.145 12.59-3.062 16.769-8.069 4.287-5.137 6.059-11.858 4.862-18.442zm-162.664-152.475h15v64h-15zm119.636 224h-89.636v-45h95.886zm-21.232 152.874c-1.51 6.551-7.266 11.126-14 11.126-7.924 0-14.371-6.447-14.371-14.371v-4.629c0-13.785-11.215-25-25-25s-25 11.215-25 25v31.466c0 6.911-5.622 12.534-12.533 12.534s-12.533-5.623-12.533-12.534v-31.466c0-13.785-11.215-25-25-25s-25 11.215-25 25v4.629c0 7.924-6.447 14.371-14.371 14.371-6.682 0-12.429-4.532-13.976-11.022-.005-.021-.013-.041-.018-.062l-19.155-137.916h87.553v62.5c0 6.893 5.607 12.5 12.5 12.5h20c6.893 0 12.5-5.607 12.5-12.5v-62.5h87.553zm-98.404-137.874h15v60h-15zm15-15h-15v-45h15zm-30 0h-89.636l-6.25-45h95.886zm96.439 228h-94.303c-4.142 0-7.5 3.358-7.5 7.5s3.358 7.5 7.5 7.5h80.864v12.5c0 1.378-1.121 2.5-2.5 2.5h-116c-1.378 0-2.5-1.122-2.5-2.5v-12.5h5.137c4.142 0 7.5-3.358 7.5-7.5s-3.358-7.5-7.5-7.5h-18.577c-3.723 0-6.917-2.781-7.429-6.468l-6.185-44.534c3.318 1.284 6.907 2.002 10.65 2.002 16.195 0 29.371-13.176 29.371-29.371v-4.629c0-5.514 4.486-10 10-10s10 4.486 10 10v31.466c0 15.182 12.351 27.534 27.533 27.534s27.533-12.352 27.533-27.534v-31.466c0-5.514 4.486-10 10-10s10 4.486 10 10v4.629c0 16.195 13.176 29.371 29.371 29.371 3.745 0 7.333-.714 10.648-1.993l-6.184 44.524c-.513 3.688-3.706 6.469-7.429 6.469zm59.087-288h-266.053c-5.686-.853-7.557-3.094-7.379-8.842l3.052-16.789c1.514-8.326 8.755-14.37 17.218-14.37h162.9c4.143 0 7.5-3.358 7.5-7.5s-3.357-7.5-7.5-7.5h-138.51c3.484-17.096 18.635-30 36.745-30h118c18.11 0 33.261 12.904 36.745 30h-17.981c-4.143 0-7.5 3.358-7.5 7.5s3.357 7.5 7.5 7.5h42.371c8.463 0 15.704 6.043 17.218 14.37l3.053 16.789c1.257 5.734-1.342 8.842-7.379 8.842z"/><path d="m208.5 269c-5.514 0-10 4.486-10 10s4.486 10 10 10 10-4.486 10-10-4.486-10-10-10z"/><path d="m193.5 317c-5.514 0-10 4.486-10 10s4.486 10 10 10 10-4.486 10-10-4.486-10-10-10z"/><path d="m313.5 279c0-5.514-4.486-10-10-10s-10 4.486-10 10 4.486 10 10 10 10-4.486 10-10z"/><path d="m318.5 317c-5.514 0-10 4.486-10 10s4.486 10 10 10 10-4.486 10-10-4.487-10-10-10z"/><path d="m206 432c-5.514 0-10 4.486-10 10s4.486 10 10 10 10-4.486 10-10-4.486-10-10-10z"/><path d="m306 432c-5.514 0-10 4.486-10 10s4.486 10 10 10 10-4.486 10-10-4.487-10-10-10z"/></g></g></svg>