<svg id="Capa_1" enable-background="new 0 0 512 512" height="512" viewBox="0 0 512 512" width="512" xmlns="http://www.w3.org/2000/svg"><g><g><path d="m155 504.5h202c22.091 0 40-17.909 40-40v-274c0-22.091-17.909-40-40-40h-202c-22.091 0-40 17.909-40 40v274c0 22.091 17.909 40 40 40z" fill="#ead1ff"/><path d="m397 244.51v118.09l-17.63-12.67c-3.77-2.71-8-4.45-12.37-5.22v-128.33c.59-.05 1.19-.07 1.8-.07 7.78 0 14.84 3.16 19.94 8.26 5.1 5.11 8.26 12.15 8.26 19.94z" fill="#d6bdef"/><path d="m397 362.6v101.9c0 22.09-17.91 40-40 40h-202c-22.09 0-40-17.91-40-40v-101.9l17.63-12.67c10.53-7.57 24.71-7.57 35.24 0h.01c10.53 7.57 24.71 7.57 35.24 0h.01c10.53-7.57 24.71-7.57 35.24 0h.01c10.53 7.57 24.71 7.57 35.24 0h.01c10.53-7.57 24.71-7.57 35.24 0h.01c10.53 7.57 24.71 7.57 35.24 0h.01c10.53-7.57 24.71-7.57 35.24 0z" fill="#c3aff0"/><path d="m397 362.6v101.9c0 22.09-17.91 40-40 40h-30c22.09 0 40-17.91 40-40v-119.79c4.37.77 8.6 2.51 12.37 5.22z" fill="#ad96ed"/><path d="m397 190.5v54.01c0-7.79-3.16-14.83-8.26-19.94-5.1-5.1-12.16-8.26-19.94-8.26-15.57 0-28.2 12.63-28.2 28.2v.98c0 7.79-3.16 14.83-8.26 19.94-5.1 5.1-12.16 8.26-19.94 8.26-15.57 0-28.2-12.63-28.2-28.2v-.98c0-7.79-3.16-14.83-8.26-19.94-5.1-5.1-12.16-8.26-19.94-8.26-15.57 0-28.2 12.63-28.2 28.2v.98c0 7.79-3.16 14.83-8.26 19.94-5.1 5.1-12.16 8.26-19.94 8.26-15.57 0-28.2-12.63-28.2-28.2v-.98c0-7.79-3.16-14.83-8.26-19.94-5.1-5.1-12.16-8.26-19.94-8.26-15.57 0-28.2 12.63-28.2 28.2v-54.01c0-22.09 17.91-40 40-40h202c22.09 0 40 17.91 40 40z" fill="#faf2f3"/><path d="m397 190.5v54.01c0-7.79-3.16-14.83-8.26-19.94-5.1-5.1-12.16-8.26-19.94-8.26-.61 0-1.21.02-1.8.07v-25.88c0-22.09-17.91-40-40-40h30c22.09 0 40 17.91 40 40z" fill="#f0e5e0"/><path d="m169 120.5h174v30h-174z" fill="#f0e5e0"/><path d="m313 120.5h30v30h-30z" fill="#e2d6d1"/><path d="m164 90.5h184c5.523 0 10 4.477 10 10v10c0 5.523-4.477 10-10 10h-184c-5.523 0-10-4.477-10-10v-10c0-5.523 4.477-10 10-10z" fill="#faf2f3"/><path d="m358 100.5v10c0 5.52-4.48 10-10 10h-30c5.52 0 10-4.48 10-10v-10c0-5.52-4.48-10-10-10h30c5.52 0 10 4.48 10 10z" fill="#f0e5e0"/><path d="m183.736 90.501-21.469-70.729c-.803-2.644.69-5.439 3.335-6.242l19.153-5.814c2.644-.803 5.439.69 6.242 3.335l24.116 79.451z" fill="#fc8d94"/><path d="m183.74 90.5 9.1 30h31.38l-9.1-30z" fill="#f0e5e0"/><path d="m192.84 120.5 9.11 30h31.38l-9.11-30z" fill="#e2d6d1"/><path d="m201.95 150.5 26.59 87.61c1.2-5.22 3.86-9.88 7.52-13.54 4.51-4.51 10.56-7.5 17.28-8.13l-20.01-65.94z" fill="#f0e5e0"/><g fill="#6f6571"><path d="m293.5 414.5c-8.284 0-15-6.716-15-15 0-8.284 6.716-15 15-15 8.284 0 15 6.716 15 15 0 8.284-6.716 15-15 15z"/><path d="m218.5 414.5c-8.284 0-15-6.716-15-15 0-8.284 6.716-15 15-15 8.284 0 15 6.716 15 15 0 8.284-6.716 15-15 15z"/><path d="m331 474.5c-8.284 0-15-6.716-15-15 0-8.284 6.716-15 15-15 8.284 0 15 6.716 15 15 0 8.284-6.716 15-15 15z"/><path d="m256 474.5c-8.284 0-15-6.716-15-15 0-8.284 6.716-15 15-15 8.284 0 15 6.716 15 15 0 8.284-6.716 15-15 15z"/><path d="m181 474.5c-8.284 0-15-6.716-15-15 0-8.284 6.716-15 15-15 8.284 0 15 6.716 15 15 0 8.284-6.716 15-15 15z"/></g></g><g><path d="m357 143h-6.5v-15.2c8.466-1.22 15-8.502 15-17.3v-10c0-9.649-7.851-17.5-17.5-17.5h-127.327l-22.5-74.126c-2.003-6.596-8.991-10.337-15.597-8.333l-19.153 5.814c-6.471 1.819-10.418 9.206-8.333 15.596l18.53 61.049h-9.62c-9.649 0-17.5 7.851-17.5 17.5v10c0 8.798 6.534 16.081 15 17.3v15.2h-6.5c-26.191 0-47.5 21.309-47.5 47.5v219c0 4.142 3.357 7.5 7.5 7.5s7.5-3.358 7.5-7.5v-43.052l14.504-10.429c7.923-5.698 18.569-5.697 26.492 0 13.162 9.464 30.846 9.464 44.008 0 7.922-5.698 18.568-5.697 26.492 0 13.162 9.464 30.846 9.464 44.008 0 7.923-5.698 18.569-5.697 26.492 0 13.162 9.464 30.846 9.464 44.008 0 7.923-5.698 18.569-5.697 26.492 0l14.504 10.429v98.052c0 17.92-14.579 32.5-32.5 32.5h-202c-17.921 0-32.5-14.58-32.5-32.5v-20c0-4.142-3.357-7.5-7.5-7.5s-7.5 3.358-7.5 7.5v20c0 26.191 21.309 47.5 47.5 47.5h202c26.191 0 47.5-21.309 47.5-47.5v-274c0-26.191-21.309-47.5-47.5-47.5zm32.5 47.5v24.955c-5.844-4.175-12.987-6.641-20.7-6.641-19.686 0-35.7 16.015-35.7 35.7v.973c0 11.414-9.285 20.7-20.699 20.7s-20.7-9.286-20.7-20.7v-.973c0-18.708-14.467-34.09-32.8-35.572l-15.463-50.942h113.562c17.921 0 32.5 14.58 32.5 32.5zm-158.812 28.866-18.627-61.366h15.701l16.072 52.951c-4.994 1.816-9.471 4.716-13.146 8.415zm-12.032-91.366 4.553 15h-15.7l-4.553-15zm-20.254-15-4.553-15h15.701l4.553 15zm149.598-15c1.379 0 2.5 1.122 2.5 2.5v10c0 1.378-1.121 2.5-2.5 2.5h-26.549c-4.143 0-7.5 3.358-7.5 7.5s3.357 7.5 7.5 7.5h14.049v15h-96.615l-4.553-15h52.12c4.143 0 7.5-3.358 7.5-7.5s-3.357-7.5-7.5-7.5h-56.673l-4.553-15zm-177.832-78.017 14.376-4.364 20.453 67.381h-15.701zm-8.668 80.517c0-1.378 1.121-2.5 2.5-2.5h14.173l4.553 15h-18.726c-1.379 0-2.5-1.122-2.5-2.5zm15 27.5h10.779l4.553 15h-15.332zm-21.5 30h41.385l24.432 80.493c-.334 1.959-.518 3.968-.518 6.02v.973c0 11.414-9.286 20.7-20.7 20.7s-20.699-9.286-20.699-20.7v-.973c0-19.685-16.015-35.7-35.7-35.7-7.713 0-14.857 2.467-20.7 6.641v-24.954c0-17.92 14.579-32.5 32.5-32.5zm228.754 185.84c-13.162-9.463-30.846-9.463-44.008 0-7.922 5.698-18.57 5.697-26.492 0-13.162-9.463-30.846-9.463-44.008 0-7.922 5.698-18.57 5.697-26.492 0-13.162-9.463-30.846-9.463-44.008 0-7.922 5.698-18.57 5.697-26.492 0-13.162-9.463-30.846-9.463-44.008 0l-5.746 4.132v-103.458c0-11.414 9.286-20.7 20.7-20.7s20.7 9.286 20.7 20.7v.973c0 19.685 16.015 35.7 35.699 35.7 19.686 0 35.7-16.015 35.7-35.7v-.973c0-11.414 9.286-20.7 20.7-20.7s20.7 9.286 20.7 20.7v.973c0 19.685 16.015 35.7 35.7 35.7s35.699-16.015 35.699-35.7v-.973c0-11.414 9.286-20.7 20.7-20.7s20.7 9.286 20.7 20.7v103.458z"/><circle cx="256" cy="310" r="10"/><circle cx="351" cy="310" r="10"/><circle cx="161" cy="310" r="10"/><circle cx="351" cy="399" r="10"/><path d="m293.5 377c-12.406 0-22.5 10.093-22.5 22.5s10.094 22.5 22.5 22.5 22.5-10.093 22.5-22.5-10.094-22.5-22.5-22.5zm0 30c-4.136 0-7.5-3.364-7.5-7.5s3.364-7.5 7.5-7.5 7.5 3.364 7.5 7.5-3.364 7.5-7.5 7.5z"/><path d="m218.5 377c-12.406 0-22.5 10.093-22.5 22.5s10.094 22.5 22.5 22.5 22.5-10.093 22.5-22.5-10.094-22.5-22.5-22.5zm0 30c-4.136 0-7.5-3.364-7.5-7.5s3.364-7.5 7.5-7.5 7.5 3.364 7.5 7.5-3.364 7.5-7.5 7.5z"/><path d="m308.5 459.5c0 12.407 10.094 22.5 22.5 22.5s22.5-10.093 22.5-22.5-10.094-22.5-22.5-22.5-22.5 10.093-22.5 22.5zm30 0c0 4.136-3.364 7.5-7.5 7.5s-7.5-3.364-7.5-7.5 3.364-7.5 7.5-7.5 7.5 3.364 7.5 7.5z"/><path d="m233.5 459.5c0 12.407 10.094 22.5 22.5 22.5s22.5-10.093 22.5-22.5-10.094-22.5-22.5-22.5-22.5 10.093-22.5 22.5zm30 0c0 4.136-3.364 7.5-7.5 7.5s-7.5-3.364-7.5-7.5 3.364-7.5 7.5-7.5 7.5 3.364 7.5 7.5z"/><path d="m158.5 459.5c0 12.407 10.094 22.5 22.5 22.5s22.5-10.093 22.5-22.5-10.094-22.5-22.5-22.5-22.5 10.093-22.5 22.5zm30 0c0 4.136-3.364 7.5-7.5 7.5s-7.5-3.364-7.5-7.5 3.364-7.5 7.5-7.5 7.5 3.364 7.5 7.5z"/><circle cx="161" cy="399" r="10"/></g></g></svg>