<svg id="Capa_1" enable-background="new 0 0 512 512" height="512" viewBox="0 0 512 512" width="512" xmlns="http://www.w3.org/2000/svg"><g><g><path d="m348.519 431.485h45.009c22.096 0 40.008-17.912 40.008-40.008v-114.024c0-22.096-17.912-40.008-40.008-40.008h-45.009l8.002 30.006h32.007c8.286 0 15.003 6.717 15.003 15.003v104.022c0 8.286-6.717 15.003-15.003 15.003h-35.008z" fill="#f0e5e0"/><path d="m188.282 309.053-18.738-6.82c-2.594-.944-3.931-3.812-2.987-6.406l103.745-285.037c.944-2.594 3.812-3.931 6.406-2.987l18.738 6.82c2.594.944 3.931 3.812 2.987 6.406l-103.745 285.037c-.944 2.593-3.812 3.931-6.406 2.987z" fill="#fc8d94"/><path d="m328.515 164.429h-220.046l-17.966 20.961c-7.769 9.064-12.04 20.608-12.04 32.546v256.557c0 16.572 13.434 30.006 30.006 30.006h220.046c16.572 0 30.006-13.434 30.006-30.006v-256.557c0-11.938-4.27-23.482-12.04-32.546z" fill="#faf2f3"/><path d="m358.521 217.94v19.504s-9.472 5.891-30.006 13.643v-33.147c0-11.943-4.271-23.485-12.043-32.547l-17.964-20.964h30.006l17.964 20.964c7.772 9.062 12.043 20.605 12.043 32.547z" fill="#f0e5e0"/><path d="m358.521 317.461v157.033c0 16.573-13.433 30.006-30.006 30.006h-220.046c-16.573 0-30.006-13.433-30.006-30.006v-207.043s80.327 50.01 280.058 50.01z" fill="#e29a6c"/><path d="m358.521 317.461v157.033c0 16.573-13.433 30.006-30.006 30.006h-30.006c16.573 0 30.006-13.433 30.006-30.006v-157.423c9.682.26 19.684.39 30.006.39z" fill="#ce845c"/><path d="m358.521 287.455v30.006c-199.732 0-280.059-50.01-280.059-50.01v-30.006c.001-.001 80.328 50.01 280.059 50.01z" fill="#ce845c"/><path d="m358.521 287.455v30.006c-10.322 0-20.324-.13-30.006-.39v-30.006c9.682.26 19.684.39 30.006.39z" fill="#be785a"/><path d="m358.521 237.444v50.01c-55.672 0-102.061-3.881-140.029-9.492 98.241-14.502 140.029-40.518 140.029-40.518z" fill="#be785a"/><path d="m358.521 237.444v50.01c-10.322 0-20.314-.13-30.006-.38v-35.988c20.534-7.751 30.006-13.642 30.006-13.642z" fill="#ad6b53"/><path d="m334.016 493.498c0 3.861-.81 7.522-2.26 10.832-1.07.11-2.15.17-3.241.17h-220.046c-1.09 0-2.17-.06-3.241-.17-1.45-3.311-2.26-6.981-2.26-10.832 0-7.462 3.021-14.203 7.912-19.094s11.632-7.912 19.094-7.912h.04c1.7 0 2.951-1.52 2.591-3.181-.41-1.88-.63-3.821-.63-5.821 0-7.462 3.021-14.203 7.912-19.094s11.632-7.912 19.094-7.912c3.031 0 5.951.5 8.672 1.43 1.4.47 2.941-.31 3.341-1.74 1.59-5.681 4.991-10.602 9.552-14.113 4.551-3.501 10.252-5.581 16.443-5.581 7.722 0 14.683 3.241 19.604 8.442 1.03 1.09 2.771 1.09 3.801 0 2.46-2.601 5.431-4.711 8.752-6.171s6.991-2.27 10.852-2.27c12.383 0 22.815 8.332 25.995 19.694.4 1.43 1.94 2.21 3.341 1.74 2.721-.93 5.641-1.43 8.672-1.43 14.913 0 27.006 12.092 27.006 27.006 0 2-.22 3.941-.63 5.821-.36 1.66.89 3.181 2.591 3.181h.04c14.911-.001 27.003 12.092 27.003 27.005z" fill="#6f6571"/><path d="m334.02 493.5c0 3.86-.81 7.52-2.26 10.83-1.07.11-2.15.17-3.24.17h-30c15.72 0 28.61-12.08 29.89-27.48 3.52 4.56 5.61 10.27 5.61 16.48z" fill="#5d5360"/><path d="m323.514 74.41h-210.044c-2.762 0-5.001 2.239-5.001 5.001v25.005h220.046v-25.005c0-2.762-2.239-5.001-5.001-5.001z" fill="#f0e5e0"/><path d="m328.515 79.411v25.005h-30.006v-25.005c0-2.761-2.24-5.001-5.001-5.001h30.006c2.761 0 5.001 2.241 5.001 5.001z" fill="#e2d6d1"/><path d="m108.469 134.423h220.046v30.006h-220.046z" fill="#f0e5e0"/><path d="m328.515 104.416h-220.046c-8.286 0-15.003 6.717-15.003 15.003 0 8.286 6.717 15.003 15.003 15.003h220.046c8.286 0 15.003-6.717 15.003-15.003 0-8.285-6.717-15.003-15.003-15.003z" fill="#faf2f3"/><path d="m343.518 119.42c0 8.282-6.721 15.003-15.003 15.003h-30.006c8.282 0 15.003-6.721 15.003-15.003 0-4.141-1.68-7.892-4.401-10.602-2.711-2.721-6.461-4.401-10.602-4.401h30.006c4.141 0 7.892 1.68 10.602 4.401 2.721 2.71 4.401 6.461 4.401 10.602z" fill="#f0e5e0"/><path d="m246.238 164.429-40.588 111.523c-10.662-1.77-20.584-3.661-29.806-5.631l38.538-105.892z" fill="#f0e5e0"/><path d="m279.005 74.41-10.922 30.006h-31.857l10.922-30.006z" fill="#e2d6d1"/><path d="m257.16 134.423-10.922 30.006h-31.857l10.923-30.006z" fill="#e2d6d1"/><path d="m268.083 104.416-10.923 30.007h-31.856l10.922-30.007z" fill="#f0e5e0"/><path d="m298.509 134.423h30.006v30.006h-30.006z" fill="#e2d6d1"/><g fill="#5d5360"><path d="m268.503 481.995c-5.515 0-10.002-4.487-10.002-10.002s4.487-10.002 10.002-10.002 10.002 4.487 10.002 10.002c0 5.516-4.487 10.002-10.002 10.002z"/><path d="m218.492 481.995c-5.515 0-10.002-4.487-10.002-10.002s4.487-10.002 10.002-10.002 10.002 4.487 10.002 10.002c0 5.516-4.487 10.002-10.002 10.002z"/><path d="m168.482 481.995c-5.515 0-10.002-4.487-10.002-10.002s4.487-10.002 10.002-10.002 10.002 4.487 10.002 10.002c0 5.516-4.487 10.002-10.002 10.002z"/></g><path d="m326.192 386.011-14.145 14.145c-1.953 1.953-5.12 1.953-7.073 0l-14.145-14.145c-1.953-1.953-1.953-5.12 0-7.073l14.145-14.145c1.953-1.953 5.12-1.953 7.073 0l14.145 14.145c1.953 1.953 1.953 5.12 0 7.073z" fill="#fff3d2"/><path d="m236.174 366.007-14.145 14.145c-1.953 1.953-5.12 1.953-7.073 0l-14.145-14.145c-1.953-1.953-1.953-5.12 0-7.073l14.145-14.145c1.953-1.953 5.12-1.953 7.073 0l14.145 14.145c1.953 1.953 1.953 5.12 0 7.073z" fill="#fff3d2"/><path d="m151.156 386.011-14.145 14.145c-1.953 1.953-5.12 1.953-7.073 0l-14.145-14.145c-1.953-1.953-1.953-5.12 0-7.073l14.145-14.145c1.953-1.953 5.12-1.953 7.073 0l14.145 14.145c1.953 1.953 1.953 5.12 0 7.073z" fill="#fff3d2"/></g><g><path d="m393.529 229.944h-27.507v-12.008c0-13.719-4.917-27.011-13.845-37.427l-16.161-18.854v-21.022c8.731-3.096 15.003-11.434 15.003-21.213s-6.272-18.117-15.003-21.213v-18.796c0-6.893-5.608-12.501-12.501-12.501h-33.8l15.766-43.316c2.429-6.266-1.108-13.851-7.469-16.02l-18.738-6.82c-6.473-2.357-13.66.994-16.018 7.47l-21.36 58.686h-128.426c-6.893 0-12.501 5.608-12.501 12.501v18.795c-8.731 3.096-15.003 11.434-15.003 21.213s6.272 18.117 15.003 21.214v21.022l-16.161 18.854c-8.928 10.416-13.845 23.708-13.845 37.427v256.557c0 20.681 16.825 37.506 37.506 37.506h23.294c4.142 0 7.5-3.358 7.5-7.5s-3.358-7.5-7.5-7.5h-20.977c-.208-1.148-.319-2.317-.319-3.502 0-10.755 8.75-19.505 19.532-19.505 6.301.173 11.44-6.168 9.928-12.292-.301-1.373-.454-2.789-.454-4.21 0-10.755 8.75-19.506 19.506-19.506 2.143 0 4.25.347 6.261 1.03 5.278 1.918 11.564-1.372 12.97-6.811 2.348-8.375 10.069-14.224 18.777-14.224 5.408 0 10.437 2.166 14.16 6.096 3.793 4.175 10.895 4.174 14.689.001 3.723-3.932 8.752-6.097 14.16-6.097 8.708 0 16.429 5.849 18.777 14.224 1.406 5.438 7.692 8.727 12.969 6.811 2.012-.684 4.119-1.03 6.262-1.03 10.755 0 19.506 8.75 19.506 19.506 0 1.421-.153 2.837-.454 4.209-1.507 6.142 3.624 12.467 9.955 12.293 10.755 0 19.505 8.75 19.505 19.505 0 1.187-.117 2.355-.325 3.502h-159.42c-4.142 0-7.5 3.358-7.5 7.5s3.358 7.5 7.5 7.5h161.744c20.681 0 37.506-16.825 37.506-37.506v-35.509h27.507c26.196 0 47.508-21.312 47.508-47.508v-114.023c.001-26.197-21.311-47.509-47.507-47.509zm-307.566 19.839c28.301 13.309 110.454 44.165 265.059 45.139v15.011c-167.294-1.059-246.911-37.295-265.059-46.883zm128.629-107.86-5.462 15.006h-93.161v-15.006zm15.963 0h15.894l-5.462 15.006h-15.894zm26.816-30.007-5.462 15.006h-15.894l5.462-15.006zm-10.435-15 5.462-15.006h15.894l-5.462 15.006zm74.079 60.013h-64.065l5.462-15.006h58.603zm-85.487 15-34.798 95.605c-5.027-.883-9.989-1.812-14.879-2.788l33.782-92.817zm115.494 107.997c-28.671-.181-56.054-1.394-82.056-3.629 41.702-9.345 68.279-19.998 82.056-26.49zm0-61.99v15.105c-11.747 6.182-53.325 25.54-132.649 37.358-.861-.129-1.723-.257-2.581-.389l35.699-98.082h73.575l15.722 18.342c6.599 7.701 10.234 17.526 10.234 27.666zm-22.507-91.013h-60.644l5.462-15.006h55.182c4.137 0 7.503 3.366 7.503 7.503 0 4.136-3.366 7.503-7.503 7.503zm-7.5-45.013v15.006h-42.222l5.462-15.006zm-44.521-66.204 14.035 5.108-16.777 46.096h-15.894zm-40.059 66.204-5.462 15.006h-115.004v-15.006zm-127.966 30.006h117.045l-5.462 15.006h-111.583c-4.137 0-7.503-3.366-7.503-7.503s3.366-7.503 7.503-7.503zm-12.272 78.355 15.722-18.342h91.753l-32.635 89.664c-6.662-1.505-13.195-3.096-19.579-4.784-36.666-9.693-57.524-19.545-65.494-23.761v-15.112c-.001-10.14 3.633-19.965 10.233-27.665zm254.825 284.223c0 7.576-3.766 14.284-9.52 18.365-.309-16.874-12.785-30.831-29.045-33.431.036-.645.054-1.291.054-1.937 0-19.027-15.479-34.506-34.506-34.506-2.167 0-4.316.201-6.426.601-5.442-12.337-17.816-20.605-31.582-20.605-7.819 0-15.432 2.702-21.504 7.53-6.072-4.829-13.685-7.53-21.504-7.53-13.766 0-26.139 8.268-31.581 20.605-2.111-.4-4.259-.601-6.427-.601-19.026 0-34.505 15.479-34.505 34.506 0 .644.018 1.289.054 1.931-16.243 2.586-28.736 16.549-29.045 33.436-5.754-4.081-9.52-10.789-9.52-18.364v-194.708c28.269 13.276 110.539 44.173 265.059 45.148v149.56zm75.015-83.017c0 17.925-14.583 32.508-32.508 32.508h-27.507v-15.006h22.506c12.408 0 22.503-10.095 22.503-22.503v-4.495c0-4.142-3.358-7.5-7.5-7.5s-7.5 3.358-7.5 7.5v4.495c0 4.137-3.366 7.503-7.503 7.503h-22.506v-119.028h22.506c4.137 0 7.503 3.366 7.503 7.503v64.52c0 4.142 3.358 7.5 7.5 7.5s7.5-3.358 7.5-7.5v-64.52c0-12.408-10.095-22.503-22.503-22.503h-22.506v-15.006h27.507c17.925 0 32.508 14.583 32.508 32.508z"/><path d="m278.503 471.993c0-5.514-4.486-10-10-10s-10 4.486-10 10 4.486 10.001 10 10.001 10-4.487 10-10.001z"/><path d="m228.493 471.993c0-5.514-4.486-10-10-10s-10 4.486-10 10 4.486 10.001 10 10.001 10-4.487 10-10.001z"/><path d="m168.482 481.994c5.514 0 10.001-4.486 10.001-10.001 0-5.514-4.486-10-10.001-10s-10.001 4.486-10.001 10 4.486 10.001 10.001 10.001z"/><path d="m317.35 359.489c-4.874-4.873-12.805-4.873-17.679 0l-14.145 14.145c-4.85 4.653-4.851 13.026 0 17.68l14.145 14.145c4.874 4.874 12.805 4.874 17.679 0l14.145-14.145c4.85-4.653 4.849-13.027 0-17.679zm-8.839 33.596-10.611-10.61 10.611-10.611 10.611 10.611z"/><path d="m227.332 339.486c-4.653-4.85-13.027-4.849-17.679 0l-14.146 14.146c-4.873 4.874-4.873 12.804 0 17.679l14.146 14.145c4.874 4.874 12.804 4.873 17.679 0l14.145-14.145c4.875-4.874 4.875-12.805 0-17.679zm-8.84 33.595-10.611-10.611 10.611-10.611 10.611 10.611z"/><path d="m142.313 359.489c-4.874-4.873-12.805-4.873-17.679 0l-14.145 14.145c-4.85 4.653-4.851 13.026 0 17.68l14.145 14.145c4.874 4.874 12.805 4.874 17.679 0l14.145-14.145c4.85-4.653 4.849-13.027 0-17.679zm-8.838 33.596-10.611-10.611 10.611-10.611 10.611 10.611z"/></g></g></svg>