<svg id="Capa_1" enable-background="new 0 0 512 512" height="512" viewBox="0 0 512 512" width="512" xmlns="http://www.w3.org/2000/svg"><g><g><path d="m282.878 275.32 92.555-254.292c.944-2.594-.393-5.462-2.987-6.406l-18.738-6.82c-2.594-.944-5.462.393-6.406 2.987l-94.129 258.618z" fill="#6f6571"/><path d="m204.066 504.5h103.867c19.852 0 36.7-14.559 39.577-34.201l34.99-238.799h-253l34.989 238.799c2.878 19.642 19.726 34.201 39.577 34.201z" fill="#cdf2f9"/><path d="m382.5 231.5-20.6 140.57c-2.2-8.94-10.27-15.57-19.89-15.57h-2.94c-1.72 0-3.39.23-4.98.67l18.41-125.67z" fill="#b1f1f1"/><path d="m382.367 186.5h-252.734c-7.518 0-13.875 5.565-14.868 13.018l-2.755 20.661c-.799 5.995 3.864 11.322 9.912 11.322h268.156c6.048 0 10.712-5.327 9.912-11.322l-2.755-20.661c-.993-7.453-7.35-13.018-14.868-13.018z" fill="#71ddf9"/><path d="m390.08 231.5h-30c6.05 0 10.71-5.33 9.91-11.32l-2.75-20.66c-.99-7.41-7.28-12.96-14.74-13.02h30c7.46.06 13.75 5.61 14.74 13.02l2.75 20.66c.8 5.99-3.86 11.32-9.91 11.32z" fill="#23c7f7"/><path d="m256 47.5c-69.864 0-126.5 56.636-126.5 126.5v12.5h253v-12.5c0-69.864-56.636-126.5-126.5-126.5z" fill="#faf2f3"/><path d="m382.5 174v12.5h-30v-12.5c0-64.79-48.71-118.2-111.5-125.62 4.92-.58 9.93-.88 15-.88 69.86 0 126.5 56.64 126.5 126.5z" fill="#f0e5e0"/><path d="m314.5 141.5c0-8.284-6.716-15-15-15h-6.641c-11.411 0-22.006-5.914-27.996-15.627l-4.608-7.472c-1.953-3.167-6.558-3.167-8.512 0l-4.608 7.472c-5.989 9.713-16.585 15.627-27.996 15.627h-6.645c-8.283 0-14.997 6.715-14.996 14.998.001 8.285-6.715 15.002-15 15.002-8.284 0-15 6.716-15 15v15h177v-15c0-8.284-6.716-15-15-15-8.282 0-14.998-6.716-14.998-15z" fill="#fff"/><path d="m314.5 276.5c0 8.284-6.716 15-15 15h-6.641c-11.411 0-22.006 5.914-27.996 15.627l-4.608 7.472c-1.953 3.167-6.558 3.167-8.512 0l-4.608-7.472c-5.989-9.713-16.585-15.627-27.996-15.627h-6.645c-8.283 0-14.997-6.715-14.996-14.998.001-8.285-6.715-15.002-15-15.002-8.284 0-15-6.716-15-15v-15h177v15c0 8.284-6.716 15-15 15-8.282 0-14.998 6.716-14.998 15z" fill="#b1f1f1"/><path d="m361.9 372.07-14.39 98.23c-2.88 19.64-19.72 34.2-39.58 34.2h-103.86c-19.86 0-36.7-14.56-39.58-34.2l-14.39-98.23c2.2-8.94 10.27-15.57 19.89-15.57h2.94c9.35 0 17.31 6.82 18.74 16.06l.22 1.39c1.33 8.56 8.7 14.88 17.36 14.88h1.2c7.63 0 14.39-4.93 16.73-12.19l3.75-11.68c3.39-10.55 13.2-17.7 24.28-17.7h1.58c11.08 0 20.89 7.15 24.28 17.7l3.75 11.68c2.34 7.26 9.1 12.19 16.73 12.19h1.2c8.66 0 16.03-6.32 17.36-14.88l.22-1.39c1.43-9.24 9.39-16.06 18.74-16.06h2.94c9.62 0 17.69 6.63 19.89 15.57z" fill="#71ddf9"/><path d="m361.9 372.07-14.39 98.23c-2.88 19.64-19.72 34.2-39.58 34.2h-30c19.86 0 36.7-14.56 39.58-34.2l16.58-113.13c1.59-.44 3.26-.67 4.98-.67h2.94c9.62 0 17.69 6.63 19.89 15.57z" fill="#23c7f7"/></g><g><path d="m407.425 219.187-2.754-20.661c-1.132-8.487-6.98-15.37-14.67-18.168v-6.358c0-32.567-11.683-62.453-31.071-85.7l23.551-64.706c2.357-6.475-.993-13.662-7.469-16.02l-18.738-6.82c-6.474-2.358-13.66.994-16.018 7.47l-17.965 49.356c-19.56-11.182-42.192-17.58-66.291-17.58-73.888 0-134 60.112-134 134v6.359c-7.69 2.797-13.538 9.68-14.67 18.168l-2.755 20.661c-.667 5 .856 10.045 4.18 13.84 3.323 3.796 8.122 5.973 13.167 5.973h1.097l34.049 232.386c3.393 23.153 23.598 40.613 46.999 40.613h103.867c23.401 0 43.606-17.46 46.999-40.614l34.049-232.386h1.097c5.044 0 9.844-2.177 13.167-5.972 3.322-3.796 4.846-8.841 4.179-13.841zm-53.931-203.481 14.035 5.108-20.126 55.296c-3.863-3.609-7.938-6.993-12.206-10.131zm-97.494 39.294c65.617 0 119 53.383 119 119v5h-23v-7.5c0-12.407-10.093-22.5-22.5-22.5-4.136 0-7.5-3.364-7.5-7.5 0-12.407-10.093-22.5-22.5-22.5h-6.641c-8.875 0-16.954-4.51-21.612-12.063l-4.607-7.472c-4.489-7.829-16.791-7.828-21.279 0l-4.607 7.472c-4.659 7.553-12.739 12.063-21.613 12.063h-6.645c-6.009 0-11.659 2.34-15.908 6.59s-6.588 9.9-6.588 15.909c0 2.003-.78 3.887-2.196 5.304-1.417 1.417-3.3 2.197-5.304 2.197-12.407 0-22.5 10.093-22.5 22.5v7.5h-23v-5c0-65.617 53.384-119 119-119zm84.091 414.211c-2.321 15.843-16.146 27.789-32.157 27.789h-103.867c-16.011 0-29.836-11.946-32.157-27.789l-14.152-96.585c1.822-5.124 6.717-8.626 12.232-8.626h2.94c5.693 0 10.458 4.083 11.332 9.734l.217 1.367c1.911 12.301 12.328 21.229 24.771 21.229h1.2c10.923 0 20.515-6.988 23.871-17.397l3.75-11.679c2.401-7.473 9.289-12.494 17.139-12.494h1.58c7.851 0 14.738 5.021 17.139 12.493l3.753 11.689c3.353 10.401 12.945 17.389 23.868 17.389h1.2c12.442 0 22.859-8.928 24.768-21.207l.224-1.417c.871-5.625 5.635-9.707 11.328-9.707h2.94c5.511 0 10.41 3.506 12.232 8.628zm16.967-115.801c-4.393-2.807-9.582-4.41-15.048-4.41h-2.94c-13.144 0-24.142 9.426-26.147 22.386l-.224 1.412c-.768 4.943-4.952 8.532-9.949 8.532h-1.2c-4.389 0-8.244-2.81-9.589-6.982l-3.75-11.682c-4.402-13.701-17.029-22.906-31.42-22.906h-1.58c-14.392 0-27.019 9.205-31.421 22.908l-3.747 11.671c-1.348 4.182-5.203 6.991-9.592 6.991h-1.2c-4.997 0-9.181-3.588-9.952-8.554l-.216-1.363c-2.011-12.987-13.01-22.413-26.153-22.413h-2.94c-5.469 0-10.656 1.603-15.047 4.408l-16.764-114.408h21.821v7.5c0 12.407 10.093 22.5 22.5 22.5 2.003 0 3.887.78 5.304 2.197s2.196 3.301 2.196 5.304c0 6.009 2.339 11.659 6.588 15.909s9.899 6.59 15.908 6.59h6.645c8.875 0 16.954 4.51 21.612 12.063l4.607 7.472c4.489 7.829 16.791 7.828 21.279 0l4.607-7.472c4.66-7.553 12.739-12.063 21.614-12.063h6.641c12.407 0 22.5-10.093 22.5-22.5 0-4.136 3.364-7.5 7.5-7.5 12.407 0 22.5-10.093 22.5-22.5v-7.5h21.821zm34.901-130.263c-.279.318-.894.853-1.881.853h-187.578c-4.142 0-7.5 3.358-7.5 7.5s3.358 7.5 7.5 7.5h134.5v7.5c0 4.136-3.364 7.5-7.5 7.5-12.407 0-22.5 10.093-22.5 22.5 0 4.136-3.364 7.5-7.5 7.5h-6.641c-14.117 0-26.97 7.174-34.38 19.19l-2.479 4.021-2.48-4.021c-7.41-12.017-20.263-19.19-34.38-19.19h-6.645c-2.002 0-3.885-.78-5.301-2.196s-2.194-3.299-2.194-5.301c0-6.011-2.339-11.662-6.589-15.912s-9.9-6.591-15.911-6.591c-4.136 0-7.5-3.364-7.5-7.5v-15c0-4.142-3.358-7.5-7.5-7.5h-45.578c-1.851-.278-2.448-.959-2.479-2.831l2.755-20.661c.495-3.71 3.691-6.509 7.435-6.509h179.867c4.142 0 7.5-3.358 7.5-7.5s-3.358-7.5-7.5-7.5h-134.5v-7.5c0-4.136 3.364-7.5 7.5-7.5 6.011 0 11.661-2.341 15.911-6.591s6.589-9.901 6.589-15.912c-.084-4.03 3.467-7.58 7.496-7.497h6.645c14.117 0 26.97-7.174 34.38-19.19l2.48-4.021 2.479 4.021c7.41 12.017 20.263 19.19 34.38 19.19h6.641c4.136 0 7.5 3.364 7.5 7.5 0 12.407 10.093 22.5 22.5 22.5 4.136 0 7.5 3.364 7.5 7.5v15c0 4.142 3.358 7.5 7.5 7.5h37.867c3.744 0 6.939 2.798 7.435 6.509l2.754 20.661c.13.978-.319 1.659-.598 1.978z"/><path d="m202 427c-5.514 0-10 4.486-10 10s4.486 10 10 10 10-4.486 10-10-4.486-10-10-10z"/><path d="m256 392c-5.514 0-10 4.486-10 10s4.486 10 10 10 10-4.486 10-10-4.486-10-10-10z"/><path d="m256 462c-5.514 0-10 4.486-10 10s4.486 10 10 10 10-4.486 10-10-4.486-10-10-10z"/><path d="m310 427c-5.514 0-10 4.486-10 10s4.486 10 10 10 10-4.486 10-10-4.486-10-10-10z"/></g></g></svg>