<svg id="Capa_1" enable-background="new 0 0 512 512" height="512" viewBox="0 0 512 512" width="512" xmlns="http://www.w3.org/2000/svg"><g><g><path d="m180.5 171.5c-33.689 0-61-27.311-61-61 0-33.689 27.311-61 61-61 33.689 0 61 27.311 61 61 0 33.689-27.311 61-61 61z" fill="#fc8d94"/><path d="m241.5 110.5h-30c0-16.84-6.83-32.1-17.87-43.13-7.64-7.65-17.31-13.27-28.13-16.01 4.8-1.21 9.82-1.86 15-1.86 16.84 0 32.1 6.83 43.13 17.87 11.04 11.03 17.87 26.29 17.87 43.13z" fill="#f77289"/><path d="m180.5 141.5c-17.121 0-31-13.879-31-31 0-17.121 13.879-31 31-31 17.121 0 31 13.879 31 31 0 17.121-13.879 31-31 31z" fill="#ffc7ce"/><path d="m352.5 504.5h-132c-22.091 0-40-17.909-40-40v-344c0-5.523 4.477-10 10-10h192c5.523 0 10 4.477 10 10v344c0 22.091-17.909 40-40 40z" fill="#faf2f3"/><path d="m392.5 419.5v45c0 22.09-17.91 40-40 40h-30c22.09 0 40-17.91 40-40v-6.26c17.25-4.44 30-20.11 30-38.74z" fill="#f0e5e0"/><path d="m352.5 459.5h-132c-22.091 0-40-17.909-40-40v-299c0-5.523 4.477-10 10-10h192c5.523 0 10 4.477 10 10v299c0 22.091-17.909 40-40 40z" fill="#ead1ff"/><path d="m392.5 120.5v80.5h-30v-80.5c0-5.52-4.48-10-10-10h30c5.52 0 10 4.48 10 10z" fill="#d6bdef"/><path d="m392.5 231v188.5c0 22.09-17.91 40-40 40h-132c-22.09 0-40-17.91-40-40v-188.5z" fill="#c3aff0"/><path d="m392.5 231v188.5c0 18.63-12.75 34.3-30 38.74v-227.24z" fill="#ad96ed"/><path d="m180.5 201h212v30h-212z" fill="#fff"/><path d="m362.5 201h30v30h-30z" fill="#f7f7f7"/><path d="m279.32 333.536-28.284 28.284c-1.953 1.953-5.118 1.953-7.071 0l-28.284-28.284c-1.953-1.953-1.953-5.118 0-7.071l28.284-28.284c1.953-1.953 5.118-1.953 7.071 0l28.284 28.284c1.952 1.952 1.952 5.118 0 7.071z" fill="#ad96ed"/><path d="m357.32 397.536-28.284 28.284c-1.953 1.953-5.118 1.953-7.071 0l-28.284-28.284c-1.953-1.953-1.953-5.118 0-7.071l28.284-28.284c1.953-1.953 5.118-1.953 7.071 0l28.284 28.284c1.952 1.952 1.952 5.118 0 7.071z" fill="#ad96ed"/><path d="m332 319.5c-8.284 0-15-6.716-15-15 0-8.284 6.716-15 15-15 8.284 0 15 6.716 15 15 0 8.284-6.716 15-15 15z" fill="#6f6571"/><path d="m241 429.5c-8.284 0-15-6.716-15-15 0-8.284 6.716-15 15-15 8.284 0 15 6.716 15 15 0 8.284-6.716 15-15 15z" fill="#6f6571"/><path d="m293.168 271.198-18.725-6.815c-2.585-.941-3.918-3.8-2.977-6.385l89.98-247.219c.941-2.585 3.8-3.918 6.385-2.977l18.725 6.815c2.585.941 3.918 3.8 2.977 6.385l-89.98 247.219c-.941 2.585-3.799 3.918-6.385 2.977z" fill="#cdf2f9"/><path d="m356.95 110.5-32.93 90.5h-31.8l32.94-90.5z" fill="#d6bdef"/><path d="m324.02 201-10.92 30h-31.8l10.92-30z" fill="#f7f7f7"/><path d="m313.1 231-13.55 37.22c-.94 2.59-3.8 3.92-6.38 2.98l-18.73-6.82c-2.58-.94-3.91-3.8-2.97-6.38l9.83-27z" fill="#ad96ed"/></g><g><path d="m400 231v-110.5c0-9.649-7.851-17.5-17.5-17.5h-14.83l28.911-79.432c2.425-6.258-1.108-13.833-7.46-15.999l-18.725-6.815c-6.471-2.354-13.644.994-15.998 7.46l-34.499 94.786h-71.31c-3.761-34.217-32.958-61-68.09-61-37.772 0-68.5 30.729-68.5 68.5 0 17.952 6.896 34.92 19.416 47.781 11.199 11.503 25.802 18.581 41.584 20.296v285.923c0 26.191 21.309 47.5 47.5 47.5 4.143 0 7.5-3.358 7.5-7.5s-3.357-7.5-7.5-7.5c-17.921 0-32.5-14.58-32.5-32.5v-10.406c8.504 7.994 19.936 12.906 32.5 12.906h132c12.564 0 23.996-4.912 32.5-12.906v10.406c0 17.92-14.579 32.5-32.5 32.5h-97c-4.143 0-7.5 3.358-7.5 7.5s3.357 7.5 7.5 7.5h97c26.191 0 47.5-21.309 47.5-47.5v-198.5c0-4.142-3.357-7.5-7.5-7.5s-7.5 3.358-7.5 7.5v153.5c0 17.92-14.579 32.5-32.5 32.5h-132c-17.921 0-32.5-14.58-32.5-32.5v-181h82.582l-6.163 16.932c-2.425 6.258 1.108 13.833 7.46 15.999l18.724 6.815c6.303 2.342 13.652-.932 15.999-7.46l11.751-32.286h74.148c4.143 0 7.5-3.358 7.5-7.5zm-17.5-113c1.379 0 2.5 1.122 2.5 2.5v73h-50.269l27.48-75.5zm-79.577 75.5 27.48-75.5h15.845l-27.479 75.5zm10.386 15-5.459 15h-15.845l5.459-15zm54.324-192.79 13.991 5.093-29.917 82.197h-15.845zm-80.673 177.79h-98.96v-73c0-1.378 1.121-2.5 2.5-2.5h123.94zm-113.96-73v12.249c-9.317-3.156-16-12.001-16-22.249 0-12.958 10.542-23.5 23.5-23.5 10.334 0 19.147 6.658 22.278 16h-12.278c-9.649 0-17.5 7.85-17.5 17.5zm-46-10c0-29.5 24-53.5 53.5-53.5 26.873 0 49.285 20.068 52.958 46h-15.188c-3.494-17.772-19.127-31-37.77-31-21.229 0-38.5 17.271-38.5 38.5 0 18.495 13.279 34.235 31 37.756v15.22c-26.227-3.615-46-25.835-46-52.976zm61 113v-15h93.501l-5.46 15zm105.367 39.789-13.991-5.093 7.169-19.697h15.845zm30.445-39.789 5.46-15h55.728v15z"/><path d="m288.284 330c0-3.339-1.301-6.479-3.661-8.839l-28.284-28.284c-4.651-4.85-13.026-4.85-17.677 0l-28.286 28.285c-4.872 4.874-4.872 12.803.001 17.677l28.284 28.284c4.652 4.85 13.026 4.849 17.678 0l28.284-28.284c2.36-2.361 3.661-5.5 3.661-8.839zm-40.784 24.748-24.749-24.748 24.749-24.749 24.748 24.749z"/><path d="m316.661 431.122c4.652 4.85 13.026 4.849 17.678 0l28.284-28.284c4.849-4.653 4.849-13.026 0-17.678l-28.284-28.284c-4.651-4.85-13.026-4.85-17.677 0l-28.286 28.285c-4.872 4.874-4.872 12.803.001 17.677zm8.839-61.871 24.748 24.749-24.748 24.748-24.749-24.748z"/><path d="m354.5 304.5c0-12.407-10.094-22.5-22.5-22.5s-22.5 10.093-22.5 22.5 10.094 22.5 22.5 22.5 22.5-10.093 22.5-22.5zm-30 0c0-4.136 3.364-7.5 7.5-7.5s7.5 3.364 7.5 7.5-3.364 7.5-7.5 7.5-7.5-3.364-7.5-7.5z"/><path d="m218.5 414.5c0 12.407 10.094 22.5 22.5 22.5s22.5-10.093 22.5-22.5-10.094-22.5-22.5-22.5-22.5 10.093-22.5 22.5zm30 0c0 4.136-3.364 7.5-7.5 7.5s-7.5-3.364-7.5-7.5 3.364-7.5 7.5-7.5 7.5 3.364 7.5 7.5z"/></g></g></svg>