<svg id="Capa_1" enable-background="new 0 0 512 512" height="512" viewBox="0 0 512 512" width="512" xmlns="http://www.w3.org/2000/svg"><g><g><path d="m400.56 125.197-9.62 12.759c-19.759 26.206-18.657 62.622 2.65 87.585 23.5 27.534 36.41 62.546 36.41 98.744v60.215c0 66.274-53.726 120-120 120h-108c-66.274 0-120-53.726-120-120v-60.215c0-36.198 12.91-71.21 36.409-98.743 21.307-24.964 22.408-61.379 2.65-87.585l-9.62-12.759 144.561-14.698z" fill="#fff3d2"/><path d="m430 324.28v60.22c0 66.27-53.73 120-120 120h-30c66.27 0 120-53.73 120-120v-60.22c0-18.1-3.23-35.9-9.39-52.62-6.17-16.72-15.27-32.36-27.02-46.12-21.31-24.96-22.41-61.38-2.65-87.58l9.62-12.76h30l-9.62 12.76c-19.76 26.2-18.66 62.62 2.65 87.58 11.75 13.76 20.85 29.4 27.02 46.12 6.16 16.72 9.39 34.52 9.39 52.62z" fill="#ffe6ae"/><path d="m111 125.5h290c8.284 0 15-6.716 15-15 0-8.284-6.716-15-15-15h-290c-8.284 0-15 6.716-15 15 0 8.284 6.716 15 15 15z" fill="#ffe6ae"/><path d="m416 110.5c0 8.28-6.72 15-15 15h-30c8.28 0 15-6.72 15-15 0-4.14-1.68-7.89-4.4-10.6-2.71-2.72-6.46-4.4-10.6-4.4h30c4.14 0 7.89 1.68 10.6 4.4 2.72 2.71 4.4 6.46 4.4 10.6z" fill="#ffd385"/><path d="m430 324.28v60.22c0 66.27-53.73 120-120 120h-108c-66.27 0-120-53.73-120-120v-60.22c0-15.49 2.36-30.75 6.91-45.31 3.39-2.98 6.97-5.77 10.7-8.32 23.16-15.84 52.31-22.65 80.08-18.71 23.24 3.29 44.57 13.58 65.95 23.75 20.22 9.62 40.47 19.13 62.4 22.52 39.29 6.07 81.05-10.12 106.7-40.32 9.97 20.55 15.26 43.23 15.26 66.39z" fill="#ccf49f"/><path d="m430 324.28v60.22c0 66.27-53.73 120-120 120h-30c66.27 0 120-53.73 120-120v-60.22c0-15.9-2.49-31.56-7.28-46.47 8.16-5.67 15.59-12.36 22.02-19.92 9.97 20.55 15.26 43.23 15.26 66.39z" fill="#b3e59f"/><path d="m414.74 257.89c-25.65 30.2-67.41 46.39-106.7 40.32-21.93-3.39-42.18-12.9-62.4-22.52 20.55-10.26 40.49-21.92 62.35-28.89 24.99-7.97 52.21-9.46 77.64-2.98 9.48 2.42 18.69 5.97 27.34 10.54.61 1.17 1.2 2.35 1.77 3.53z" fill="#b3e59f"/><path d="m414.74 257.89c-6.43 7.56-13.86 14.25-22.02 19.92-.65-2.07-1.36-4.12-2.11-6.15-3.87-10.48-8.89-20.54-14.98-29.97 3.36.58 6.69 1.29 10 2.13 9.48 2.42 18.69 5.97 27.34 10.54.61 1.17 1.2 2.35 1.77 3.53z" fill="#9bcf84"/><path d="m256 391.18c-27.614 0-50-22.386-50-50v-5c0-2.761 2.239-5 5-5h90c2.761 0 5 2.239 5 5v5c0 27.614-22.386 50-50 50z" fill="#9bcf84"/><path d="m236 331.18v10c0 11.046 8.954 20 20 20 11.046 0 20-8.954 20-20v-10z" fill="#b3e59f"/><path d="m140.467 433.713c19.526 19.526 51.184 19.526 70.711 0l3.536-3.536c1.953-1.953 1.953-5.118 0-7.071l-63.64-63.64c-1.953-1.953-5.118-1.953-7.071 0l-3.536 3.536c-19.526 19.527-19.526 51.185 0 70.711z" fill="#9bcf84"/><path d="m168.751 377.145-7.071 7.071c-7.81 7.81-7.81 20.474 0 28.284 7.81 7.81 20.474 7.81 28.284 0l7.071-7.071z" fill="#b3e59f"/><path d="m371.533 433.713c-19.526 19.526-51.184 19.526-70.711 0l-3.536-3.536c-1.953-1.953-1.953-5.118 0-7.071l63.64-63.64c1.953-1.953 5.118-1.953 7.071 0l3.536 3.536c19.526 19.527 19.526 51.185 0 70.711z" fill="#9bcf84"/><path d="m343.249 377.145 7.071 7.071c7.81 7.81 7.81 20.474 0 28.284-7.81 7.81-20.474 7.81-28.284 0l-7.071-7.071z" fill="#b3e59f"/><path d="m266 228.5h-20c-2.761 0-5-2.239-5-5v-211c0-2.761 2.239-5 5-5h20c2.761 0 5 2.239 5 5v211c0 2.761-2.239 5-5 5z" fill="#fc8d94"/><path d="m241 95.5h30v30h-30z" fill="#ffd385"/><path d="m271 125.5v98c0 2.76-2.24 5-5 5h-20c-2.76 0-5-2.24-5-5v-98z" fill="#ffe6ae"/></g><g><path d="m399.295 220.673c-19.172-22.463-20.145-54.621-2.365-78.201l7.321-9.71c10.872-1.58 19.25-10.96 19.25-22.262 0-12.406-10.093-22.5-22.5-22.5h-122.501v-75.5c0-6.893-5.607-12.5-12.5-12.5h-20c-6.893 0-12.5 5.607-12.5 12.5v75.5h-122.5c-12.407 0-22.5 10.094-22.5 22.5 0 11.302 8.378 20.682 19.25 22.262l7.321 9.709c17.78 23.58 16.807 55.738-2.365 78.201-24.638 28.866-38.206 65.663-38.206 103.613v60.215c0 70.304 57.196 127.5 127.5 127.5 4.142 0 7.5-3.357 7.5-7.5s-3.358-7.5-7.5-7.5c-62.033 0-112.5-50.468-112.5-112.5v-60.215c0-13.991 2.036-27.808 5.954-41.039 2.703-2.284 5.515-4.44 8.39-6.405 21.614-14.782 48.875-21.149 74.795-17.476 21.688 3.07 41.575 12.532 62.63 22.55l1.149.547c19.253 9.16 41.076 19.543 64.477 23.16 5.83.9 11.717 1.34 17.619 1.34 32.135-.002 64.504-13.048 87.915-35.675 6.601 16.757 10.071 34.73 10.071 52.998v60.215c0 62.033-50.467 112.5-112.5 112.5h-73c-4.142 0-7.5 3.357-7.5 7.5s3.358 7.5 7.5 7.5h73c70.304 0 127.5-57.196 127.5-127.5v-60.215c0-37.95-13.568-74.747-38.205-103.612zm-150.795-205.673h15v73h-15zm0 118h15v88h-15zm15-15h-15v-15h15zm-152.5-15h122.5v15h-122.5c-4.136 0-7.5-3.364-7.5-7.5s3.364-7.5 7.5-7.5zm-5.549 155.298c5.088-9.925 11.331-19.295 18.663-27.886 11.409-13.367 17.985-30.403 18.516-47.97.532-17.566-5.002-34.968-15.583-49.001l-.332-.44h106.785v90.5c0 6.893 5.607 12.5 12.5 12.5h20c6.893 0 12.5-5.607 12.5-12.5v-120.501h122.5c4.136 0 7.5 3.364 7.5 7.5s-3.364 7.5-7.5 7.5h-95c-4.142 0-7.5 3.357-7.5 7.5s3.358 7.5 7.5 7.5h79.285l-.332.44c-10.581 14.033-16.115 31.435-15.583 49.001.531 17.566 7.107 34.603 18.516 47.97 2.239 2.623 4.372 5.322 6.407 8.083-2.253-.706-4.523-1.358-6.81-1.942-26.199-6.678-54.475-5.604-81.771 3.102-17.398 5.548-33.612 13.957-49.293 22.09-3.565 1.849-7.226 3.746-10.873 5.596-20.474-9.733-41.662-19.55-64.802-22.826-25.686-3.644-52.522 1.361-75.293 13.784zm203.735 32.5c-16.189-2.502-31.587-8.596-46.509-15.402.215-.112.434-.225.648-.336 15.82-8.205 30.762-15.954 46.944-21.114 24.618-7.853 50.037-8.839 73.507-2.858 6.998 1.786 13.83 4.237 20.383 7.284-24.425 25.031-60.971 37.677-94.973 32.426z"/><circle cx="388" cy="324.5" r="10"/><path d="m301 323.681h-90c-6.893 0-12.5 5.607-12.5 12.5v5c0 31.706 25.794 57.5 57.5 57.5s57.5-25.794 57.5-57.5v-5c0-6.893-5.607-12.5-12.5-12.5zm-57.5 15h25v2.5c0 6.893-5.607 12.5-12.5 12.5s-12.5-5.607-12.5-12.5zm55 2.5c0 23.435-19.065 42.5-42.5 42.5s-42.5-19.065-42.5-42.5v-2.5h15v2.5c0 15.163 12.336 27.5 27.5 27.5s27.5-12.337 27.5-27.5v-2.5h15z"/><path d="m175.822 455.857c15.359 0 29.798-5.98 40.658-16.841l3.537-3.536c4.872-4.874 4.872-12.803-.001-17.678l-45.959-45.958c-.001-.001-.002-.003-.003-.004s-.003-.002-.004-.003l-17.675-17.674c-4.875-4.873-12.803-4.872-17.678.001l-3.535 3.535c-10.86 10.86-16.841 25.3-16.841 40.658s5.981 29.798 16.841 40.659c10.862 10.861 25.301 16.841 40.66 16.841zm-8.839-66.337 1.768-1.768 17.677 17.677-1.768 1.768c-4.874 4.875-12.804 4.875-17.678 0-4.872-4.874-4.872-12.804.001-17.677zm-21.212-21.214 1.768-1.768 10.607 10.606-1.768 1.768c-5.194 5.194-8.055 12.101-8.055 19.445 0 7.346 2.86 14.252 8.055 19.446 5.194 5.193 12.1 8.054 19.445 8.054s14.251-2.86 19.446-8.055l1.767-1.768 10.607 10.606-1.768 1.768c-16.571 16.572-43.533 16.572-60.104 0-8.027-8.026-12.448-18.699-12.448-30.052-.001-11.35 4.42-22.023 12.448-30.05z"/><path d="m373.3 354.163c-4.874-4.873-12.803-4.873-17.677 0l-63.641 63.641c-4.872 4.874-4.872 12.803.001 17.678l3.535 3.535c10.86 10.86 25.3 16.841 40.659 16.841s29.798-5.98 40.659-16.841c10.86-10.861 16.841-25.301 16.841-40.659s-5.981-29.798-16.841-40.657zm-28.283 35.357c4.874 4.873 4.874 12.804 0 17.677-4.874 4.875-12.804 4.875-17.678 0l-1.768-1.768 17.677-17.677zm21.213 38.889c-16.571 16.572-43.534 16.572-60.105 0l-1.767-1.768 10.606-10.606 1.768 1.768c5.194 5.193 12.1 8.054 19.445 8.054s14.251-2.86 19.445-8.054 8.055-12.101 8.055-19.446-2.86-14.251-8.055-19.445l-1.768-1.768 10.607-10.606 1.768 1.769c8.027 8.026 12.448 18.699 12.448 30.051.001 11.352-4.42 22.025-12.447 30.051z"/><circle cx="186" cy="295.5" r="10"/><circle cx="116" cy="329.5" r="10"/><circle cx="294" cy="472.137" r="10"/><circle cx="218" cy="472.137" r="10"/></g></g></svg>