<svg id="Capa_1" enable-background="new 0 0 512 512" height="512" viewBox="0 0 512 512" width="512" xmlns="http://www.w3.org/2000/svg"><g><g><path d="m331.119 504.5h-150.241c-21.246 0-38.785-16.609-39.941-37.823l-17.938-329.177h266l-17.939 329.177c-1.156 21.214-18.695 37.823-39.941 37.823z" fill="#fff3d2"/><path d="m388.999 137.5-2.51 46h-30l2.51-46z" fill="#ffe6ae"/><path d="m386.489 183.5-15.43 283.18c-1.15 21.21-18.69 37.82-39.94 37.82h-150.24c-21.25 0-38.79-16.61-39.94-37.82l-15.43-283.18z" fill="#ffc269"/><path d="m386.489 183.5-15.43 283.18c-1.15 21.21-18.69 37.82-39.94 37.82h-30c21.25 0 38.79-16.61 39.94-37.82l15.43-283.18z" fill="#ffa95f"/><path d="m377.523 395.5h-243.049c-5.314 0-9.7-4.156-9.986-9.462l-7.922-147c-.309-5.726 4.251-10.538 9.986-10.538h258.893c5.734 0 10.294 4.812 9.986 10.538l-7.922 147c-.286 5.306-4.672 9.462-9.986 9.462z" fill="#ffe07d"/><path d="m395.429 239.04-7.92 147c-.29 5.3-4.67 9.46-9.99 9.46h-30c5.32 0 9.7-4.16 9.99-9.46l7.92-147c.31-5.73-4.25-10.54-9.98-10.54h30c5.73 0 10.29 4.81 9.98 10.54z" fill="#ffd064"/><path d="m227.499 330.747v32.253h57v-32.253c0-24.146-9.702-47.279-26.926-64.2l-.172-.169c-.778-.764-2.025-.764-2.803 0l-.172.169c-17.225 16.921-26.927 40.054-26.927 64.2z" fill="#fff3d2"/><path d="m185.999 313.5h20c27.614 0 50 22.386 50 50v3h-22c-27.614 0-50-22.386-50-50v-1c0-1.105.895-2 2-2z" fill="#fff"/><path d="m325.999 313.5h-20c-27.614 0-50 22.386-50 50v3h22c27.614 0 50-22.386 50-50v-1c0-1.105-.896-2-2-2z" fill="#fff"/><g fill="#6f6571"><circle cx="255.999" cy="459.5" r="15"/><circle cx="315.999" cy="439.5" r="15"/><circle cx="195.999" cy="439.5" r="15"/><path d="m401.288 107.5h-290.578c-3.024 0-5.356 2.663-4.956 5.661l1.51 11.322c.994 7.452 7.35 13.018 14.868 13.018h267.734c7.518 0 13.875-5.565 14.868-13.018l1.51-11.322c.399-2.998-1.932-5.661-4.956-5.661z"/></g><path d="m406.249 113.16-1.51 11.32c-1 7.45-7.35 13.02-14.87 13.02h-30c7.52 0 13.87-5.57 14.87-13.02l1.51-11.32c.39-3-1.94-5.66-4.96-5.66h30c3.02 0 5.35 2.66 4.96 5.66z" fill="#5d5360"/><path d="m389.948 21.011-31.478 86.489h-31.821l35.2-96.718c.94-2.59 3.8-3.92 6.39-2.98l18.73 6.82c2.589.94 3.919 3.799 2.979 6.389z" fill="#fc8d94"/><path d="m347.549 137.5-16.74 46h-31.82l16.74-46z" fill="#ffe6ae"/></g><g><path d="m277.987 374.004c31.705 0 57.498-25.793 57.498-57.498v-1c0-5.238-4.262-9.5-9.5-9.5h-19.999c-5.771 0-11.341.864-16.6 2.453-4.214-17.837-13.461-34.377-26.567-47.254l-.173-.17c-3.67-3.606-9.644-3.605-13.309-.007l-.179.176c-13.111 12.881-22.352 29.418-26.566 47.256-5.26-1.589-10.831-2.453-16.602-2.453h-20c-5.238 0-9.5 4.262-9.5 9.5v1c0 31.705 25.794 57.498 57.498 57.498h43.999zm42.263-52.998c-2.254 21.327-20.348 37.999-42.262 37.999h-14.263c2.254-21.327 20.348-37.999 42.262-37.999zm-64.262-45.239c9.818 11.004 16.576 24.6 19.435 39.071-8.034 5.064-14.728 12.056-19.434 20.327-4.707-8.271-11.4-15.263-19.434-20.327 2.859-14.474 9.615-28.069 19.433-39.071zm-64.262 45.239h14.263c21.915 0 40.009 16.671 42.262 37.999h-14.263c-21.914 0-40.008-16.672-42.262-37.999z"/><path d="m233.489 459.502c0 12.406 10.093 22.499 22.499 22.499s22.499-10.093 22.499-22.499-10.093-22.499-22.499-22.499-22.499 10.093-22.499 22.499zm29.999 0c0 4.136-3.364 7.5-7.5 7.5s-7.5-3.364-7.5-7.5 3.364-7.5 7.5-7.5 7.5 3.364 7.5 7.5z"/><path d="m315.986 462.001c12.406 0 22.499-10.093 22.499-22.499s-10.093-22.499-22.499-22.499-22.499 10.093-22.499 22.499 10.093 22.499 22.499 22.499zm0-29.999c4.136 0 7.5 3.364 7.5 7.5s-3.364 7.5-7.5 7.5-7.5-3.364-7.5-7.5 3.365-7.5 7.5-7.5z"/><path d="m173.491 439.502c0 12.406 10.093 22.499 22.499 22.499s22.499-10.093 22.499-22.499-10.093-22.499-22.499-22.499-22.499 10.093-22.499 22.499zm29.999 0c0 4.136-3.364 7.5-7.5 7.5s-7.5-3.364-7.5-7.5 3.364-7.5 7.5-7.5 7.5 3.365 7.5 7.5z"/><path d="m401.273 100.012h-32.106l27.817-76.427c2.349-6.472-1.002-13.65-7.464-15.997l-18.735-6.821c-6.261-2.422-13.838 1.112-15.998 7.465l-33.402 91.78h-210.682c-7.34-.169-13.528 6.899-12.39 14.152l1.509 11.321c1.197 8.978 7.668 16.167 16.018 18.617l4.26 78.163c-2.346.932-4.497 2.349-6.257 4.206-3.29 3.473-5.029 8.203-4.772 12.978l.824 15.285c.223 4.137 3.74 7.299 7.893 7.086 4.136-.223 7.308-3.757 7.085-7.892l-.824-15.285c.169-1.788.72-2.369 2.496-2.635h258.886c1.776.265 2.327.846 2.496 2.635l-7.922 146.996c-.071 1.326-1.168 2.365-2.496 2.365h-243.042c-1.328 0-2.425-1.039-2.496-2.365l-5.213-96.72c-.224-4.138-3.755-7.295-7.893-7.086-4.136.223-7.308 3.757-7.085 7.892l5.213 96.72c.415 7.712 5.788 14.021 12.923 15.942l3.526 64.699c1.372 25.185 22.205 44.914 47.428 44.914h85.118c4.142 0 7.5-3.357 7.5-7.5 0-4.142-3.358-7.5-7.5-7.5h-85.118c-17.258 0-31.512-13.499-32.451-30.731l-3.448-63.267h222.034l-3.448 63.267c-.939 17.233-15.193 30.731-32.451 30.731h-30.12c-4.142 0-7.5 3.357-7.5 7.5 0 4.142 3.358 7.5 7.5 7.5h30.12c25.223 0 46.056-19.729 47.428-44.914l3.526-64.699c7.135-1.921 12.508-8.23 12.923-15.942l7.922-146.996c.257-4.775-1.482-9.506-4.772-12.978-1.761-1.858-3.911-3.275-6.257-4.206l4.259-78.163c8.35-2.449 14.821-9.639 16.018-18.617l1.509-11.321c.996-7.464-2.615-14.152-12.389-14.152zm-33.251-84.287 14.005 5.098-28.822 79.189h-15.858zm-232.969 205.284-1.635-29.999h245.139l-1.635 29.999zm244.322-44.999h-37.868l11.282-30.999h28.275zm-53.831 0h-15.856l11.282-30.999h15.857zm-31.819 0h-161.124l-1.689-30.999h174.096zm103.561-52.507c-.495 3.711-3.691 6.509-7.434 6.509h-267.727c-3.744 0-6.94-2.798-7.434-6.509l-1.132-8.491h284.859z"/></g></g></svg>