<svg id="Capa_1" enable-background="new 0 0 512 512" height="512" viewBox="0 0 512 512" width="512" xmlns="http://www.w3.org/2000/svg"><g><g><path d="m335.544 474.5h-159.088c-12.773 0-23.491-9.628-24.857-22.327l-27.599-256.673h264l-27.599 256.673c-1.366 12.699-12.084 22.327-24.857 22.327z" fill="#c3aff0"/><path d="m364.25 416.38-3.85 35.79c-1.36 12.7-12.08 22.33-24.86 22.33h-30c12.78 0 23.5-9.63 24.86-22.33l2.73-25.4c3.17 1.76 6.79 2.75 10.46 2.75 4.77 0 10.2-1.68 13.68-4.53 2.72-2.23 5.47-5.18 6.98-8.61z" fill="#ad96ed"/><path d="m331.12 185.613 59.914-164.612c.941-2.585-.392-5.444-2.977-6.385l-18.725-6.815c-2.585-.941-5.444.392-6.385 2.977l-62.729 172.347z" fill="#6f6571"/><path d="m376.8 158.198c1.738-4.05 2.7-8.512 2.7-13.198 0-18.501-14.999-33.5-33.5-33.5-2.14 0-4.231.209-6.259.593.493-2.287.759-4.658.759-7.093 0-18.501-14.999-33.5-33.5-33.5-7.02 0-13.533 2.163-18.916 5.854-4.144-13.798-16.937-23.854-32.084-23.854-15.147 0-27.94 10.056-32.084 23.854-5.383-3.691-11.896-5.854-18.916-5.854-18.501 0-33.5 14.999-33.5 33.5 0 2.435.266 4.806.759 7.093-2.029-.384-4.119-.593-6.259-.593-18.501 0-33.5 14.999-33.5 33.5 0 4.224.782 8.266 2.209 11.988z" fill="#fc8d94"/><path d="m379.5 145c0 4.69-.96 9.15-2.7 13.2l-29.94-.15c1.7-4.01 2.64-8.42 2.64-13.05 0-9.25-3.75-17.62-9.81-23.69-6.07-6.06-14.44-9.81-23.69-9.81-2.14 0-4.23.21-6.26.59.49-2.28.76-4.66.76-7.09 0-9.25-3.75-17.62-9.81-23.69-2.53-2.52-5.46-4.65-8.68-6.27 1.57-.8 3.22-1.46 4.92-2 3.18-1 6.56-1.54 10.07-1.54 9.25 0 17.62 3.75 23.69 9.81 6.06 6.07 9.81 14.44 9.81 23.69 0 2.43-.27 4.81-.76 7.09 2.03-.38 4.12-.59 6.26-.59 9.25 0 17.62 3.75 23.69 9.81 6.06 6.07 9.81 14.44 9.81 23.69z" fill="#f77289"/><path d="m373.2 333.09-5.88 54.72v.04l-3.07 28.53c-1.51 3.43-4.26 6.38-6.98 8.61-3.48 2.85-8.91 4.53-13.68 4.53-9.53 0-18.74-6.73-20.61-16.08l-1.98-9.88c-.94-4.68-3.45-8.7-6.93-11.55-3.47-2.85-7.91-4.53-12.67-4.53-9.54 0-17.74 6.73-19.61 16.08l-1.15 5.76c-1.18 5.87-4.34 10.92-8.71 14.5s-9.94 5.7-15.93 5.7c-11.98 0-22.29-8.46-24.64-20.2l-1.15-5.76c-.93-4.68-3.45-8.7-6.93-11.55s-7.91-4.53-12.68-4.53c-9.53 0-17.73 6.73-19.6 16.08l-1.98 9.88c-.94 4.68-3.46 8.7-6.93 11.55-3.48 2.85-9.91 4.53-14.68 4.53-8.38 0-16.52-5.21-19.62-12.82l-3.11-28.85v-.04l-5.88-54.72c2.8 9.25 11.36 15.71 21.2 15.71 5.28 0 10.2-1.86 14.05-5.02s6.65-7.62 7.69-12.8l2.19-10.96c2.07-10.36 11.17-17.82 21.74-17.82 5.29 0 10.2 1.86 14.06 5.02 3.85 3.16 6.65 7.62 7.68 12.8l1.28 6.39c2.6 13.02 14.03 22.39 27.31 22.39 6.64 0 12.82-2.34 17.66-6.31s8.35-9.57 9.65-16.08l1.28-6.39c2.07-10.36 11.17-17.82 21.74-17.82 5.29 0 10.2 1.86 14.06 5.02 3.85 3.16 6.65 7.62 7.68 12.8l2.19 10.96c2.08 10.36 11.18 17.82 21.74 17.82 5.28 0 10.2-1.86 14.06-5.02 3.32-2.72 5.85-6.41 7.14-10.69z" fill="#faf2f3"/><path d="m373.2 333.09-5.88 54.72v.04l-3.07 28.53c-1.51 3.43-4.26 6.38-6.98 8.61-3.48 2.85-8.91 4.53-13.68 4.53-3.67 0-7.29-.99-10.46-2.75l8.65-80.47c3.08 1.61 6.56 2.5 10.22 2.5 5.28 0 10.2-1.86 14.06-5.02 3.32-2.72 5.85-6.41 7.14-10.69z" fill="#f0e5e0"/><path d="m317.467 504.5h-122.934c-7.897 0-14.441-6.123-14.967-14.002l-1.066-15.998h155l-1.067 15.998c-.525 7.879-7.069 14.002-14.966 14.002z" fill="#ad96ed"/><path d="m333.5 474.5-1.07 16c-.52 7.88-7.07 14-14.96 14h-30c7.89 0 14.44-6.12 14.96-14l1.07-16z" fill="#9b89e0"/><path d="m394.078 150.5h-276.156c-6.048 0-10.712 5.327-9.912 11.322l3.333 25c.662 4.968 4.9 8.678 9.912 8.678h269.49c5.012 0 9.25-3.71 9.912-8.678l3.333-25c.8-5.995-3.864-11.322-9.912-11.322z" fill="#faf2f3"/><path d="m403.99 161.82-3.33 25c-.67 4.97-4.9 8.68-9.92 8.68h-30c5.02 0 9.25-3.71 9.92-8.68l3.33-25c.8-5.99-3.86-11.32-9.91-11.32h30c6.05 0 10.71 5.33 9.91 11.32z" fill="#f0e5e0"/><path d="m388 195.5-14.8 137.59c-1.29 4.28-3.82 7.97-7.14 10.69-3.86 3.16-8.78 5.02-14.06 5.02-10.56 0-19.66-7.46-21.74-17.82l-2.19-10.96c-1.03-5.18-3.83-9.64-7.68-12.8-3.86-3.16-8.77-5.02-14.06-5.02-10.57 0-19.67 7.46-21.74 17.82l-1.28 6.39c-1.3 6.51-4.81 12.11-9.65 16.08s-11.02 6.31-17.66 6.31c-13.28 0-24.71-9.37-27.31-22.39l-1.28-6.39c-1.03-5.18-3.83-9.64-7.68-12.8-3.86-3.16-8.77-5.02-14.06-5.02-10.57 0-19.67 7.46-21.74 17.82l-2.19 10.96c-1.04 5.18-3.84 9.64-7.69 12.8s-8.77 5.02-14.05 5.02c-9.84 0-18.4-6.46-21.2-15.71l-14.8-137.59z" fill="#ffc7ce"/><path d="m388 195.5-14.8 137.59c-1.29 4.28-3.82 7.97-7.14 10.69-3.86 3.16-8.78 5.02-14.06 5.02-3.66 0-7.14-.89-10.22-2.5l16.22-150.8z" fill="#f4b0be"/><g fill="#6f6571"><circle cx="253.5" cy="270.5" r="15"/><circle cx="332" cy="240.5" r="15"/><circle cx="180" cy="240.5" r="15"/></g></g><g><path d="m394.13 142.999h-7.127c-.686-14.204-8.633-26.533-20.201-33.349l31.33-86.083c2.428-6.256-1.109-13.836-7.459-15.999l-18.724-6.815c-6.467-2.352-13.645.992-15.999 7.46l-23.519 64.618c-6.987-5.524-15.802-8.832-25.38-8.832-5.283 0-10.443 1.002-15.26 2.937-7.161-12.654-20.826-20.937-35.74-20.937s-28.58 8.282-35.74 20.937c-4.816-1.935-9.978-2.937-15.26-2.937-22.289 0-40.481 17.879-40.989 40.048-21.025 1.008-37.947 17.928-38.962 38.952h-7.127c-10.277-.237-18.94 9.658-17.347 19.813l3.334 25c.971 7.281 6.405 13.039 13.301 14.693l8.65 80.443c.426 4.133 4.212 7.115 8.259 6.655 4.119-.443 7.098-4.141 6.655-8.259l-8.424-78.345h247.301l-13.816 128.49c-.878 2.537-2.441 4.78-4.525 6.487-8.127 7.032-21.861 2.139-23.694-8.467l-2.189-10.953c-2.491-13.566-15.292-24.063-29.096-23.857-14.097 0-26.333 10.03-29.094 23.846-.781 11.555-8.624 23.099-21.236 22.754-9.67 0-18.063-6.88-19.956-16.362l-1.278-6.381c-2.491-13.566-15.293-24.063-29.096-23.857-14.097 0-26.333 10.03-29.094 23.85l-2.189 10.954c-1.249 6.707-7.549 11.898-14.386 11.796-6.163 0-11.703-3.885-13.784-9.666-.014-.038-.032-.073-.046-.111l-1.652-15.367c-.443-4.119-4.147-7.099-8.259-6.655-4.119.442-7.098 4.141-6.655 8.259l14.539 135.215c1.598 14.858 12.964 26.429 27.315 28.638l.626 9.385c.785 11.777 10.647 21.003 22.45 21.003h122.934c11.804 0 21.665-9.226 22.45-21.003l.626-9.385c14.352-2.209 25.717-13.78 27.315-28.638l26.932-250.47c6.897-1.653 12.332-7.412 13.302-14.693l3.333-24.999c.91-10.361-5.357-19.813-17.349-19.813zm-24.946-127.289 13.991 5.093-30.481 83.745c-1.526-.25-3.077-.425-4.654-.501-.147-6.395-1.772-12.428-4.535-17.783zm-203.133 103.289c1.607 0 3.245.155 4.865.462 5.083 1.114 9.969-3.898 8.726-8.95-.392-1.817-.591-3.672-.591-5.512 0-14.337 11.664-26 26-26 5.269 0 10.343 1.569 14.676 4.54 3.988 2.895 10.135.725 11.423-4.029 3.272-10.899 13.512-18.511 24.9-18.511 11.389 0 21.628 7.612 24.901 18.511 1.288 4.756 7.438 6.924 11.424 4.028 4.331-2.97 9.406-4.539 14.675-4.539 14.337 0 26 11.663 26 26 0 1.838-.199 3.692-.591 5.512-1.243 5.053 3.641 10.064 8.725 8.95 1.622-.307 3.259-.462 4.866-.462 13.663 0 24.89 10.595 25.916 24h-231.831c1.026-13.405 12.253-24 25.916-24zm-6 237.3c6.846 0 13.526-2.387 18.808-6.723 5.288-4.34 8.94-10.421 10.286-17.128l2.19-10.96c2.61-15.39 26.185-15.356 28.772.003l1.279 6.387c3.289 16.468 17.868 28.421 34.665 28.421 19.377.418 34.45-16.163 35.944-34.811 1.365-6.831 7.415-11.789 14.386-11.789 6.831-.101 13.15 5.079 14.386 11.788l2.19 10.968c2.774 13.815 15.01 23.844 29.094 23.844 3.939 0 7.816-.815 11.415-2.314l-6.479 60.254c-2.46 4.349-7.611 7.899-13.346 7.78-6.201 0-12.147-4.509-13.257-10.053l-1.98-9.885c-2.346-12.597-14.149-22.28-26.952-22.103-13.062 0-24.402 9.298-26.965 22.111l-1.148 5.752c-.803 3.991-2.973 7.605-6.11 10.176-3.149 2.58-7.119 4.001-11.177 4.001-8.373 0-15.642-5.96-17.285-14.167l-1.149-5.755c-2.31-12.587-14.175-22.304-26.966-22.118-13.056 0-24.392 9.298-26.954 22.107l-1.979 9.878c-1.303 6.793-7.126 9.947-14.257 10.056-5.079 0-10.128-3.054-12.3-7.347l-6.524-60.677c3.549 1.486 7.414 2.304 11.413 2.304zm175.544 110.701h-24.773c-4.143 0-7.5 3.357-7.5 7.5s3.357 7.5 7.5 7.5h14.713l-.533 7.999c-.262 3.926-3.549 7.001-7.483 7.001h-122.935c-3.935 0-7.222-3.075-7.483-7.001l-.533-7.999h89.254c4.143 0 7.5-3.357 7.5-7.5s-3.357-7.5-7.5-7.5h-99.315c-8.961 0-16.442-6.719-17.4-15.629l-1.74-16.185c3.186 1.184 6.601 1.833 10.094 1.833 5.887 0 14.179-1.926 19.44-6.234 4.893-4.019 8.274-9.654 9.523-15.871l1.98-9.884c2.226-13.12 22.29-13.09 24.501-.003l1.151 5.766c3.042 15.196 16.498 26.227 31.994 26.227 7.515 0 14.859-2.627 20.683-7.397 5.811-4.76 9.827-11.445 11.312-18.833l1.15-5.759c2.232-13.114 22.286-13.098 24.502.003l1.979 9.878c2.521 12.604 14.543 22.108 27.965 22.108 3.755 0 7.617-.776 11.125-2.119l-1.771 16.47c-.958 8.91-8.438 15.629-17.4 15.629zm61.012-306.171-3.333 25.001c-.164 1.236-1.229 2.169-2.478 2.169h-269.49c-1.248 0-2.313-.933-2.478-2.17l-3.334-25c.031-1.871.628-2.552 2.479-2.83h276.157c1.85.277 2.448.959 2.477 2.83z"/><path d="m253.551 292.999c12.406 0 22.5-10.094 22.5-22.5s-10.094-22.5-22.5-22.5c-12.407 0-22.5 10.094-22.5 22.5 0 12.407 10.093 22.5 22.5 22.5zm0-30c4.136 0 7.5 3.364 7.5 7.5s-3.364 7.5-7.5 7.5-7.5-3.364-7.5-7.5c0-4.135 3.364-7.5 7.5-7.5z"/><path d="m354.551 240.499c0-12.406-10.094-22.5-22.5-22.5s-22.5 10.094-22.5 22.5 10.094 22.5 22.5 22.5 22.5-10.093 22.5-22.5zm-30 0c0-4.136 3.364-7.5 7.5-7.5s7.5 3.364 7.5 7.5-3.364 7.5-7.5 7.5-7.5-3.364-7.5-7.5z"/><path d="m180.051 262.999c12.407 0 22.5-10.094 22.5-22.5s-10.093-22.5-22.5-22.5-22.5 10.094-22.5 22.5 10.093 22.5 22.5 22.5zm0-30c4.136 0 7.5 3.364 7.5 7.5s-3.364 7.5-7.5 7.5-7.5-3.364-7.5-7.5 3.364-7.5 7.5-7.5z"/></g></g></svg>