<svg id="Capa_1" enable-background="new 0 0 512 512" height="512" viewBox="0 0 512 512" width="512" xmlns="http://www.w3.org/2000/svg"><g><g><path d="m358 504.5h-132c-22.091 0-40-17.909-40-40v-344c0-5.523 4.477-10 10-10h192c5.523 0 10 4.477 10 10v344c0 22.091-17.909 40-40 40z" fill="#faf2f3"/><path d="m398 419.5v45c0 22.09-17.91 40-40 40h-30c22.09 0 40-17.91 40-40v-6.26c17.25-4.44 30-20.11 30-38.74z" fill="#f0e5e0"/><path d="m358 459.5h-132c-22.091 0-40-17.909-40-40v-299c0-5.523 4.477-10 10-10h192c5.523 0 10 4.477 10 10v299c0 22.091-17.909 40-40 40z" fill="#fff3d2"/><path d="m398 120.5v102.27c0-13.22-10.72-23.94-23.94-23.94-2.09 0-4.13.27-6.06.78v-79.11c0-5.52-4.48-10-10-10h30c5.52 0 10 4.48 10 10z" fill="#ffe6ae"/><path d="m362.46 110.5-27.53 75.64c-.63-.05-1.26-.08-1.9-.08-3.83 0-7.44.9-10.65 2.5-1.992.996-3.828 2.263-5.459 3.75-1.386 1.264-3.569.941-4.556-.654-2.063-3.334-4.92-6.123-8.305-8.106l26.59-73.05z" fill="#ffe6ae"/><path d="m398 280.328v139.172c0 22.091-17.909 40-40 40h-132c-22.091 0-40-17.909-40-40v-139.172c0-13.214 10.468-24.357 23.681-24.497 5.013-.053 9.672 1.44 13.539 4.027 1.708 1.143 4.055.197 4.563-1.794 1.114-4.374 3.431-8.268 6.577-11.304 4.31-4.15 10.16-6.7 16.61-6.7 5.584 0 10.713 1.913 14.783 5.121 1.53 1.206 3.75.639 4.578-1.124 3.821-8.137 12.09-13.767 21.669-13.767 9.58 0 17.849 5.631 21.669 13.769.828 1.763 3.049 2.33 4.578 1.124 1.476-1.163 3.089-2.157 4.812-2.953 3.04-1.39 6.41-2.17 9.97-2.17 11.17 0 20.548 7.655 23.187 18.005.508 1.991 2.855 2.937 4.563 1.794 3.867-2.588 8.526-4.08 13.539-4.027 13.214.139 23.682 11.282 23.682 24.496z" fill="#fc8d94"/><path d="m398 279.77v139.73c0 18.63-12.75 34.3-30 38.74v-201.63c1.93-.51 3.96-.78 6.06-.78 13.22 0 23.94 10.72 23.94 23.94z" fill="#f77289"/><path d="m398 223.341v56.428c0-13.22-10.72-23.94-23.94-23.94-4.92 0-9.49 1.489-13.293 4.038-1.699 1.138-4.034.245-4.533-1.738-2.616-10.383-12.01-18.07-23.203-18.07-3.56 0-6.93.78-9.97 2.17-1.723.796-3.337 1.79-4.812 2.953-1.53 1.206-3.751.639-4.578-1.124-3.821-8.138-12.09-13.769-21.669-13.769s-17.847 5.63-21.669 13.767c-.828 1.763-3.049 2.33-4.578 1.124-4.071-3.208-9.199-5.121-14.783-5.121-6.45 0-12.3 2.55-16.61 6.7-3.162 3.052-5.486 6.969-6.594 11.369-.499 1.983-2.835 2.877-4.533 1.738-3.803-2.548-8.373-4.037-13.293-4.037-13.22 0-23.94 10.72-23.94 23.94v-56.428c0-13.289 10.581-24.473 23.87-24.511 5.218-.015 10.049 1.646 13.988 4.474 1.637 1.175 3.906.458 4.591-1.437 1.408-3.896 3.797-7.319 6.872-9.976 4.19-3.63 9.66-5.83 15.65-5.83 6.205 0 11.857 2.368 16.109 6.246 1.381 1.259 3.565.951 4.547-.639 4.216-6.826 11.766-11.377 20.374-11.377 8.61 0 16.16 4.552 20.376 11.379.982 1.59 3.166 1.898 4.547.639 1.631-1.487 3.467-2.753 5.458-3.749 3.21-1.6 6.82-2.5 10.65-2.5 10.365 0 19.192 6.59 22.523 15.805.685 1.895 2.954 2.613 4.591 1.438 3.938-2.827 8.769-4.488 13.986-4.473 13.285.038 23.866 11.223 23.866 24.511z" fill="#ffc7ce"/><path d="m398 222.77v57c0-13.22-10.72-23.94-23.94-23.94-2.1 0-4.13.27-6.06.78v-57c1.93-.51 3.97-.78 6.06-.78 13.22 0 23.94 10.72 23.94 23.94z" fill="#f4b0be"/><path d="m362.459 110.5 32.574-89.498c.941-2.585-.392-5.444-2.977-6.385l-18.725-6.815c-2.585-.941-5.444.392-6.385 2.977l-36.295 99.721z" fill="#ffc269"/><path d="m119 191.5h7c33.137 0 60-26.863 60-60v-21h-12c-33.137 0-60 26.863-60 60v16c0 2.761 2.239 5 5 5z" fill="#ccf49f"/><path d="m253 29.5h-7c-33.137 0-60 26.863-60 60v21h12c33.137 0 60-26.863 60-60v-16c0-2.761-2.239-5-5-5z" fill="#ccf49f"/><path d="m258 34.5v16c0 33.14-26.86 60-60 60h-12v-2.75c24.35-7.64 42-30.38 42-57.25v-16c0-.75-.17-1.46-.46-2.1 5.81-1.88 12.02-2.9 18.46-2.9h7c2.76 0 5 2.24 5 5z" fill="#b3e59f"/><path d="m119 29.5h7c33.137 0 60 26.863 60 60v21h-12c-33.137 0-60-26.863-60-60v-16c0-2.761 2.239-5 5-5z" fill="#b3e59f"/><g fill="#f77289"><path d="m298.213 351.713-4.799-4.799c-.781-.781-2.047-.781-2.828 0l-4.799 4.799c-5.626 5.626-8.787 13.257-8.787 21.213v5.147c0 7.956 3.161 15.587 8.787 21.213l4.799 4.799c.781.781 2.047.781 2.828 0l4.799-4.799c5.626-5.626 8.787-13.257 8.787-21.213v-5.147c0-7.956-3.161-15.587-8.787-21.213z"/><path d="m327.951 420.728.592 6.761c.096 1.1 1.066 1.914 2.167 1.818l6.761-.592c7.926-.693 15.252-4.507 20.367-10.602l3.309-3.943c5.114-6.095 7.598-13.972 6.904-21.898l-.591-6.761c-.096-1.1-1.066-1.914-2.167-1.818l-6.761.592c-7.926.693-15.252 4.507-20.367 10.602l-3.309 3.943c-5.115 6.095-7.599 13.972-6.905 21.898z"/><path d="m256.049 420.728-.592 6.761c-.096 1.1-1.066 1.914-2.167 1.818l-6.761-.592c-7.926-.693-15.252-4.507-20.367-10.602l-3.309-3.943c-5.114-6.095-7.598-13.972-6.904-21.898l.592-6.761c.096-1.1 1.066-1.914 2.167-1.818l6.761.592c7.926.693 15.252 4.507 20.367 10.602l3.309 3.943c5.114 6.095 7.598 13.972 6.904 21.898z"/></g></g><g><circle cx="242.5" cy="353.005" r="10"/><circle cx="240.5" cy="306.006" r="10"/><path d="m387.996 103.012h-14.83l28.909-79.429c2.428-6.256-1.109-13.836-7.459-15.999l-18.723-6.815c-6.257-2.424-13.833 1.107-15.999 7.46l-34.498 94.783h-85.036c15.32-12.384 25.14-31.312 25.14-52.498v-16c0-6.892-5.607-12.5-12.5-12.5h-7c-26.101 0-48.773 14.902-59.998 36.635-11.225-21.734-33.897-36.635-59.998-36.635h-7c-6.892 0-12.5 5.607-12.5 12.5v16c0 26.101 14.902 48.773 36.635 59.998-21.733 11.225-36.635 33.897-36.635 59.998v16c0 6.892 5.607 12.5 12.5 12.5h7c21.187 0 40.114-9.82 52.498-25.138v290.63c0 26.191 21.308 47.499 47.499 47.499 4.142 0 7.5-3.357 7.5-7.5s-3.357-7.5-7.5-7.5c-17.92 0-32.499-14.579-32.499-32.499v-10.406c8.503 7.994 19.935 12.906 32.499 12.906h131.996c12.564 0 23.996-4.912 32.499-12.906v10.406c0 17.92-14.579 32.499-32.499 32.499h-96.997c-4.142 0-7.5 3.357-7.5 7.5s3.357 7.5 7.5 7.5h96.997c26.191 0 47.499-21.308 47.499-47.499v-125.936c0-4.142-3.357-7.5-7.5-7.5s-7.5 3.357-7.5 7.5v80.937c0 17.92-14.579 32.499-32.499 32.499h-131.996c-17.92 0-32.499-14.579-32.499-32.499v-139.727c0-9.062 7.373-16.435 16.435-16.435 3.267 0 6.421.956 9.121 2.766 2.821 1.89 6.402 2.287 9.581 1.07 3.176-1.221 5.567-3.914 6.397-7.207 1.841-7.3 8.392-12.398 15.932-12.398 3.722 0 7.23 1.214 10.148 3.513 2.524 1.985 5.763 2.699 8.882 1.962 3.144-.744 5.739-2.853 7.12-5.79 2.7-5.743 8.542-9.454 14.881-9.454s12.181 3.711 14.881 9.456c1.381 2.934 3.975 5.044 7.12 5.788 3.123.738 6.359.023 8.884-1.965 2.915-2.296 6.424-3.51 10.145-3.51 7.54 0 14.091 5.098 15.932 12.399.83 3.292 3.222 5.985 6.397 7.206 3.179 1.22 6.759.82 9.582-1.071 2.699-1.809 5.853-2.765 9.12-2.765 9.062 0 16.435 7.373 16.435 16.435v23.79c0 4.142 3.357 7.5 7.5 7.5s7.5-3.357 7.5-7.5v-183.054c.001-9.65-7.85-17.5-17.499-17.5zm0 15c1.379 0 2.5 1.121 2.5 2.5v75.484c-4.785-2.947-10.414-4.652-16.435-4.652-4.802 0-9.455 1.073-13.698 3.136-3.523-6.185-9.047-10.944-15.543-13.585l22.887-62.882h20.289zm-58.369 60.767c-4.943.536-9.673 2.214-13.817 4.934-.871-1.016-1.806-1.96-2.787-2.847l22.877-62.854h15.844zm43.502-163.053 13.991 5.093-29.916 82.194h-15.844zm-127.129 21.288h4.5v13.5c0 28.947-23.551 52.498-52.498 52.498h-4.5v-13.5c0-28.947 23.551-52.498 52.498-52.498zm-124.496 13.5v-13.5h4.5c28.947 0 52.498 23.551 52.498 52.498v13.5h-4.5c-28.947 0-52.498-23.551-52.498-52.498zm4.5 133.496h-4.5v-13.5c0-28.947 23.551-52.498 52.498-52.498h4.5v13.5c0 28.947-23.551 52.498-52.498 52.498zm67.498-65.998h4.5 121.936l-20.286 55.736c-2.467-.613-5.03-.942-7.653-.942-9.294 0-17.888 4.003-23.812 10.908-5.087-3.339-11.05-5.139-17.219-5.139-11.398 0-21.814 6.218-27.333 15.905-4.242-2.062-8.896-3.136-13.698-3.136-6.021 0-11.65 1.704-16.435 4.652v-64.484zm180.559 130.33c-4.321 0-8.543.877-12.448 2.564-5.036-11.025-16.102-18.333-28.583-18.333-5.29 0-10.51 1.356-15.117 3.879-5.805-8.422-15.507-13.648-25.914-13.648s-20.111 5.226-25.914 13.648c-4.607-2.522-9.828-3.879-15.117-3.879-12.481 0-23.548 7.309-28.583 18.333-3.905-1.687-8.127-2.564-12.448-2.564-6.021 0-11.65 1.704-16.435 4.652v-30.215c0-9.062 7.373-16.435 16.435-16.435 3.445 0 6.742 1.056 9.532 3.051 2.718 1.944 6.096 2.495 9.27 1.507 3.169-.985 5.636-3.348 6.767-6.479 2.345-6.488 8.558-10.847 15.461-10.847 4.1 0 8.029 1.522 11.059 4.286 2.312 2.109 5.413 3.068 8.514 2.636 3.1-.435 5.823-2.212 7.467-4.875 3.023-4.894 8.254-7.816 13.991-7.816s10.967 2.922 13.99 7.814c1.644 2.665 4.367 4.442 7.468 4.877 3.099.432 6.202-.527 8.513-2.635 3.031-2.765 6.96-4.287 11.06-4.287 6.903 0 13.117 4.359 15.461 10.846 1.132 3.133 3.599 5.495 6.767 6.48 3.174.988 6.554.437 9.268-1.505 2.792-1.997 6.089-3.053 9.534-3.053 9.062 0 16.435 7.373 16.435 16.435v30.215c-4.783-2.948-10.412-4.652-16.433-4.652z"/><path d="m269.5 372.931v5.146c0 10.016 3.9 19.434 10.983 26.517l4.799 4.799c3.705 3.703 9.73 3.703 13.435 0l4.799-4.799c7.083-7.083 10.983-16.5 10.983-26.517v-5.146c0-10.016-3.9-19.434-10.983-26.517l-4.799-4.799c-3.705-3.703-9.73-3.703-13.435 0l-4.799 4.799c-7.083 7.083-10.983 16.501-10.983 26.517zm14.999 0c0-6.01 2.341-11.661 6.591-15.91l.909-.91.909.91c4.25 4.249 6.591 9.9 6.591 15.91v5.146c0 6.01-2.341 11.661-6.591 15.91l-.909.91-.909-.91c-4.25-4.249-6.591-9.9-6.591-15.91z"/><path d="m321.069 428.149c.434 4.936 4.591 8.669 9.453 8.669.277 0 .557-.013.838-.037l6.761-.591c9.977-.873 19.019-5.58 25.457-13.254l3.309-3.942c6.439-7.674 9.505-17.394 8.632-27.372l-.593-6.764c-.458-5.218-5.082-9.083-10.291-8.632l-6.761.591c-9.977.873-19.019 5.58-25.457 13.254l-3.309 3.942c-6.439 7.672-9.505 17.393-8.632 27.371v.001zm19.529-24.495 3.309-3.942c3.863-4.604 9.288-7.428 15.274-7.952l1.282-.112.112 1.282c.523 5.986-1.315 11.819-5.179 16.423l-3.309 3.942c-3.863 4.604-9.288 7.428-15.274 7.952l-1.282.112-.112-1.283v.001c-.524-5.987 1.316-11.819 5.179-16.423z"/><path d="m219.366 376.226c-5.223-.453-9.836 3.415-10.295 8.635l-.592 6.762c-.873 9.978 2.192 19.7 8.632 27.37l3.309 3.944c6.438 7.673 15.48 12.38 25.457 13.253l6.758.591c.281.024.561.036.838.036 4.865 0 9.022-3.732 9.457-8.671l.592-6.762v-.001c.873-9.977-2.192-19.698-8.632-27.37l-3.308-3.944c-6.438-7.673-15.48-12.38-25.457-13.253zm20.725 23.484 3.308 3.944c3.863 4.603 5.702 10.436 5.179 16.421l-.112 1.283-1.282-.112c-5.986-.523-11.411-3.348-15.274-7.951l-3.309-3.944c-3.863-4.603-5.703-10.435-5.179-16.421l.112-1.283 1.282.112c5.987.524 11.412 3.348 15.275 7.951z"/><circle cx="291.999" cy="313.006" r="10"/><circle cx="343.497" cy="306.006" r="10"/><circle cx="341.497" cy="353.005" r="10"/></g></g></svg>