<svg id="Capa_1" enable-background="new 0 0 512 512" height="512" viewBox="0 0 512 512" width="512" xmlns="http://www.w3.org/2000/svg"><g><g><path d="m181.639 231.25v233.25c0 22.091 17.909 40 40 40h132c22.091 0 40-17.909 40-40v-233.25z" fill="#faf2f3"/><path d="m393.639 419.5v45c0 22.09-17.91 40-40 40h-30c22.09 0 40-17.91 40-40v-6.26c17.25-4.44 30-20.11 30-38.74z" fill="#f0e5e0"/><path d="m393.639 231.25v-110.75c0-5.523-4.477-10-10-10h-192c-5.523 0-10 4.477-10 10v110.75z" fill="#cdf2f9"/><path d="m393.639 120.5v80.5h-30v-80.5c0-5.52-4.48-10-10-10h30c5.52 0 10 4.48 10 10z" fill="#b1f1f1"/><path d="m393.639 231v188.5c0 22.09-17.91 40-40 40h-132c-22.09 0-40-17.91-40-40v-188.5z" fill="#71ddf9"/><path d="m294.311 271.198-18.725-6.815c-2.585-.941-3.918-3.8-2.977-6.385l89.98-247.219c.941-2.585 3.8-3.918 6.385-2.977l18.725 6.815c2.585.941 3.918 3.8 2.977 6.385l-89.98 247.219c-.942 2.585-3.8 3.918-6.385 2.977z" fill="#6f6571"/><path d="m185.178 106.964c13.668 13.668 35.829 13.668 49.497 0 13.668-13.668 13.668-35.829 0-49.497-13.668-13.668-35.829-13.668-49.497 0-13.669 13.668-13.669 35.829 0 49.497z" fill="#ad96ed"/><path d="m178.107 114.036c13.668 13.668 13.668 35.829 0 49.497-13.668 13.668-35.829 13.668-49.497 0-13.668-13.668-13.668-35.829 0-49.497 13.667-13.669 35.828-13.669 49.497 0z" fill="#ad96ed"/><path d="m185.178 114.036c-13.668 13.668-13.668 35.829 0 49.497 13.668 13.668 35.829 13.668 49.497 0 13.668-13.668 13.668-35.829 0-49.497-13.668-13.669-35.829-13.669-49.497 0z" fill="#c3aff0"/><path d="m178.107 106.964c-13.668 13.668-35.829 13.668-49.497 0-13.668-13.668-13.668-35.829 0-49.497 13.668-13.668 35.829-13.668 49.497 0 13.668 13.668 13.668 35.829 0 49.497z" fill="#c3aff0"/><path d="m160.429 89.287c-11.716 11.716-11.716 30.711 0 42.426 11.716 11.716 30.711 11.716 42.426 0 11.716-11.716 11.716-30.711 0-42.426-11.715-11.716-30.71-11.716-42.426 0z" fill="#fff"/><path d="m211.639 110.5c0 7.68-2.92 15.36-8.78 21.21-5.86 5.86-13.54 8.79-21.22 8.79-5.18 0-10.37-1.34-14.99-4.01 2.22-1.29 4.31-2.88 6.21-4.78 5.86-5.85 8.78-13.53 8.78-21.21s-2.92-15.36-8.78-21.21c-1.9-1.9-3.99-3.49-6.21-4.78 4.62-2.67 9.81-4.01 14.99-4.01 7.68 0 15.36 2.93 21.22 8.79 5.86 5.85 8.78 13.53 8.78 21.21z" fill="#f7f7f7"/><path d="m358.099 110.5-32.93 90.5h-31.81l32.94-90.5z" fill="#b1f1f1"/><path d="m314.159 231.25-13.46 36.97c-.94 2.59-3.8 3.92-6.39 2.98l-18.72-6.82c-2.59-.94-3.92-3.8-2.98-6.38l9.74-26.75z" fill="#23c7f7"/><path d="m243.318 294.36c-.625.625-1.171 1.298-1.676 1.991-.505-.693-1.051-1.365-1.676-1.991-6.479-6.479-16.985-6.48-23.464 0-6.479 6.479-6.479 16.985 0 23.464.625.625 1.298 1.171 1.991 1.676-.693.505-1.365 1.051-1.991 1.676-6.479 6.479-6.479 16.985 0 23.464 6.48 6.48 16.985 6.479 23.464 0 .625-.625 1.172-1.298 1.676-1.991.505.693 1.051 1.365 1.676 1.991 6.48 6.48 16.985 6.479 23.464 0 6.48-6.48 6.48-16.985 0-23.464-.625-.625-1.298-1.171-1.991-1.676.693-.505 1.365-1.051 1.991-1.676 6.48-6.48 6.48-16.985 0-23.464-6.479-6.48-16.984-6.48-23.464 0z" fill="#cdf2f9"/><path d="m335.318 374.36c-.625.625-1.171 1.298-1.676 1.991-.505-.693-1.051-1.365-1.676-1.991-6.479-6.479-16.985-6.48-23.464 0-6.479 6.479-6.479 16.985 0 23.464.625.625 1.298 1.171 1.991 1.676-.693.505-1.365 1.051-1.991 1.676-6.479 6.479-6.479 16.985 0 23.464 6.48 6.48 16.985 6.479 23.464 0 .625-.625 1.172-1.298 1.676-1.991.505.693 1.051 1.365 1.676 1.991 6.48 6.48 16.985 6.479 23.464 0 6.48-6.48 6.48-16.985 0-23.464-.625-.625-1.298-1.171-1.991-1.676.693-.505 1.365-1.051 1.991-1.676 6.48-6.48 6.48-16.985 0-23.464-6.479-6.48-16.984-6.48-23.464 0z" fill="#cdf2f9"/><path d="m327.642 334.5c-8.284 0-15-6.716-15-15 0-8.284 6.716-15 15-15 8.284 0 15 6.716 15 15 0 8.284-6.716 15-15 15z" fill="#6f6571"/><path d="m247.642 414.5c-8.284 0-15-6.716-15-15 0-8.284 6.716-15 15-15 8.284 0 15 6.716 15 15 0 8.284-6.716 15-15 15z" fill="#6f6571"/><path d="m181.642 201h212v30h-212z" fill="#fff"/><path d="m363.639 201h30v30h-30z" fill="#f7f7f7"/><path d="m325.169 201-10.92 30h-31.81l10.92-30z" fill="#f7f7f7"/><path d="m393.639 231v188.5c0 18.63-12.75 34.3-30 38.74v-227.24z" fill="#23c7f7"/></g><g><path d="m401.126 231.009v-110.497c0-9.649-7.85-17.499-17.499-17.499h-14.83l28.91-79.431c2.353-6.468-.994-13.644-7.46-15.997l-18.723-6.814c-6.256-2.43-13.835 1.109-15.999 7.459l-34.498 94.783h-74.051c9.068-16.186 6.74-37.085-7.01-50.835-15.994-15.993-41.664-16.545-58.334-1.663-16.669-14.882-42.339-14.33-58.335 1.663-15.994 15.994-16.545 41.667-1.664 58.335-14.881 16.668-14.33 42.341 1.664 58.335 8.286 8.285 19.168 12.427 30.051 12.427 7.178 0 14.352-1.814 20.785-5.418v288.645c0 26.191 21.308 47.499 47.499 47.499 4.142 0 7.5-3.357 7.5-7.5 0-4.142-3.357-7.5-7.5-7.5-17.92 0-32.499-14.579-32.499-32.499v-10.406c8.503 7.994 19.935 12.906 32.499 12.906h131.996c12.564 0 23.996-4.912 32.499-12.906v10.406c0 17.92-14.579 32.499-32.499 32.499h-96.997c-4.142 0-7.5 3.357-7.5 7.5 0 4.142 3.357 7.5 7.5 7.5h96.997c26.191 0 47.499-21.308 47.499-47.499v-198.494c0-4.142-3.357-7.5-7.5-7.5s-7.5 3.357-7.5 7.5v153.495c0 17.92-14.579 32.499-32.499 32.499h-131.996c-17.92 0-32.499-14.579-32.499-32.499v-180.994h82.579l-6.163 16.933c-2.353 6.468.994 13.644 7.46 15.997l18.723 6.814c6.248 2.429 13.839-1.109 15.999-7.459l11.751-32.285h74.146c4.141 0 7.498-3.358 7.498-7.5zm-17.499-112.997c1.379 0 2.5 1.121 2.5 2.5v72.998h-50.268l27.479-75.498zm-79.575 75.498 27.479-75.498h15.844l-27.479 75.498zm10.385 14.999-5.459 15h-15.844l5.46-15zm54.323-192.783 13.991 5.093-29.916 82.194h-15.844zm-80.67 177.784h-98.957v-17.653c6.433 3.604 13.605 5.418 20.783 5.418 10.883 0 21.766-4.142 30.052-12.427 8.027-8.028 12.448-18.7 12.448-30.052 0-7.4-1.89-14.505-5.421-20.784h68.575zm-122.366-67.089c-8.773-8.772-8.773-23.045 0-31.817 4.386-4.387 10.147-6.58 15.909-6.58 5.763 0 11.524 2.193 15.91 6.58 8.773 8.772 8.773 23.045 0 31.817-8.771 8.772-23.047 8.774-31.819 0zm63.636-7.07c10.722 10.721 10.722 28.168 0 38.889-10.721 10.723-28.169 10.721-38.888 0-2.943-2.942-5.146-6.476-6.499-10.328 6.427-.398 12.77-2.431 18.339-6.115l5.484 5.483c2.929 2.928 7.677 2.928 10.606-.001s2.929-7.678-.001-10.606l-5.482-5.482c3.683-5.569 5.716-11.912 6.115-18.339 3.85 1.353 7.383 3.555 10.326 6.499zm0-56.566c10.577 10.576 10.713 27.693.421 38.446-4.125-2.183-8.595-3.677-13.247-4.408-.946-2.423-2.147-4.769-3.616-6.989l5.483-5.483c2.929-2.93 2.929-7.677 0-10.607-2.93-2.928-7.678-2.928-10.607 0l-5.483 5.483c-2.22-1.468-4.565-2.669-6.988-3.615-.731-4.652-2.227-9.122-4.41-13.248 10.754-10.292 27.873-10.155 38.447.421zm-95.455 0c10.721-10.722 28.169-10.72 38.888 0 2.943 2.943 5.146 6.476 6.499 10.329-6.427.398-12.77 2.431-18.339 6.114l-5.484-5.483c-2.928-2.928-7.677-2.929-10.606.001-2.929 2.929-2.929 7.677.001 10.606l5.482 5.482c-3.683 5.569-5.716 11.912-6.115 18.339-3.851-1.352-7.383-3.553-10.327-6.498-10.721-10.722-10.721-28.169.001-38.89zm0 95.456c-10.577-10.576-10.713-27.693-.421-38.446 4.125 2.183 8.594 3.676 13.247 4.407.947 2.423 2.147 4.769 3.616 6.99l-5.483 5.483c-2.929 2.93-2.929 7.678 0 10.607 2.93 2.928 7.677 2.928 10.607 0l5.483-5.483c2.22 1.468 4.565 2.668 6.987 3.615.731 4.652 2.228 9.122 4.412 13.248-5.141 4.924-11.862 7.634-19.003 7.634-7.345-.001-14.251-2.861-19.445-8.055zm55.228 65.268v-15h93.498l-5.46 15zm105.363 39.788-13.991-5.093 7.169-19.696h15.844zm30.444-39.788 5.46-15h55.727v15z"/><path d="m272.074 289.063c-8.263-8.261-21.083-9.257-30.442-2.983-9.362-6.272-22.181-5.278-30.443 2.983-8.262 8.263-9.257 21.083-2.983 30.443-6.273 9.36-5.279 22.18 2.983 30.443 8.261 8.26 21.081 9.256 30.443 2.983 4.039 2.707 8.723 4.061 13.407 4.061 6.17 0 12.338-2.349 17.036-7.045 8.262-8.263 9.257-21.083 2.983-30.443 6.272-9.359 5.278-22.179-2.984-30.442zm-11.709 36.505c.46.335.82.635 1.102.917 3.546 3.545 3.546 9.312 0 12.857-3.545 3.545-9.313 3.545-12.856 0-.283-.282-.581-.641-.912-1.097-1.411-1.94-3.665-3.09-6.063-3.091-.002 0-.003 0-.004 0-2.397 0-4.651 1.146-6.062 3.085-.335.46-.635.82-.918 1.103-3.543 3.545-9.311 3.545-12.856 0-3.546-3.545-3.546-9.312 0-12.857.279-.28.642-.581 1.105-.92 1.936-1.412 3.082-3.665 3.081-6.062-.001-2.396-1.147-4.649-3.085-6.059-.46-.335-.82-.635-1.102-.917-3.546-3.545-3.546-9.312 0-12.857 3.545-3.545 9.313-3.545 12.856 0 .283.282.583.643.918 1.103 1.411 1.938 3.664 3.085 6.062 3.085h.004c2.398-.001 4.652-1.15 6.063-3.091.331-.456.629-.814.912-1.097 3.543-3.545 9.311-3.545 12.856 0 3.546 3.545 3.546 9.312 0 12.857-.281.282-.642.582-1.102.917-1.938 1.411-3.085 3.664-3.085 6.062s1.148 4.651 3.086 6.062z"/><path d="m364.071 369.06c-8.263-8.262-21.084-9.258-30.442-2.983-9.362-6.273-22.181-5.278-30.443 2.983-8.262 8.263-9.257 21.083-2.983 30.443-6.273 9.36-5.279 22.18 2.983 30.443 8.262 8.26 21.08 9.256 30.443 2.983 4.039 2.707 8.723 4.061 13.407 4.061 6.17 0 12.338-2.349 17.036-7.045 8.262-8.263 9.257-21.083 2.983-30.443 6.273-9.359 5.278-22.178-2.984-30.442zm-11.709 36.506c.46.335.82.635 1.102.917 3.546 3.545 3.546 9.312 0 12.857-3.545 3.545-9.313 3.545-12.856 0-.283-.282-.581-.641-.912-1.097-1.411-1.94-3.665-3.09-6.063-3.091-.002 0-.003 0-.004 0-2.397 0-4.651 1.146-6.062 3.085-.335.46-.635.82-.918 1.103-3.543 3.545-9.311 3.545-12.856 0-3.546-3.545-3.546-9.312 0-12.857.279-.28.642-.581 1.105-.92 1.936-1.412 3.082-3.665 3.081-6.062-.001-2.396-1.147-4.649-3.085-6.059-.46-.335-.82-.635-1.102-.917-3.546-3.545-3.546-9.312 0-12.857 3.545-3.545 9.313-3.545 12.856 0 .283.282.583.643.918 1.103 1.411 1.938 3.664 3.085 6.062 3.085h.004c2.398-.001 4.652-1.15 6.063-3.091.331-.456.629-.814.912-1.097 3.543-3.545 9.311-3.545 12.856 0 3.546 3.545 3.546 9.312 0 12.857-.281.282-.642.582-1.102.917-1.938 1.411-3.085 3.664-3.085 6.062.002 2.398 1.148 4.651 3.086 6.062z"/><path d="m350.128 319.506c0-12.406-10.093-22.499-22.499-22.499s-22.499 10.093-22.499 22.499 10.093 22.499 22.499 22.499 22.499-10.093 22.499-22.499zm-29.999 0c0-4.136 3.364-7.5 7.5-7.5s7.5 3.364 7.5 7.5-3.364 7.5-7.5 7.5-7.5-3.364-7.5-7.5z"/><path d="m225.132 399.504c0 12.406 10.093 22.499 22.499 22.499s22.499-10.093 22.499-22.499-10.093-22.499-22.499-22.499-22.499 10.093-22.499 22.499zm29.999 0c0 4.136-3.364 7.5-7.5 7.5s-7.5-3.364-7.5-7.5 3.364-7.5 7.5-7.5 7.5 3.364 7.5 7.5z"/></g></g></svg>