<svg id="Capa_1" enable-background="new 0 0 512.16 512.16" height="512" viewBox="0 0 512.16 512.16" width="512" xmlns="http://www.w3.org/2000/svg"><g><g><path d="m471.888 255.861-216.019 216.018c-43.59 43.59-114.263 43.59-157.853 0l-57.743-57.743c-43.59-43.59-43.59-114.263 0-157.853l216.018-216.019c43.59-43.59 114.263-43.59 157.853 0l57.743 57.743c43.591 43.591 43.591 114.264.001 157.854z" fill="#f2d59c"/><path d="m471.888 98.007-57.743-57.743c-12.951-12.95-28.292-22.053-44.603-27.308 5.125 3.622 10.015 7.72 14.603 12.308l57.743 57.743c43.59 43.59 43.59 114.264 0 157.854l-216.019 216.018c-30.639 30.639-74.66 39.742-113.25 27.308 43.566 30.793 104.248 26.694 143.25-12.308l216.019-216.019c43.59-43.589 43.59-114.262 0-157.853z" fill="#ecc372"/><g><path d="m468.682 169.234-299.44 299.44c-34.729 34.729-91.036 34.729-125.765 0-34.729-34.729-34.729-91.036 0-125.765l299.44-299.44c34.729-34.729 91.036-34.729 125.765 0 34.729 34.73 34.729 91.036 0 125.765z" fill="#e17f85"/><path d="m468.682 43.47c-11.191-11.191-24.628-18.754-38.856-22.733 3.074 2.358 6.042 4.919 8.856 7.733 34.729 34.729 34.729 91.036 0 125.765l-299.44 299.439c-23.538 23.538-56.983 31.101-86.908 22.733 34.868 26.744 84.993 24.182 116.908-7.733l299.44-299.439c34.729-34.73 34.729-91.036 0-125.765z" fill="#de646e"/><g><path d="m404.579 180.35c-17.623 17.623-32.887 21.315-45.152 24.282-10.225 2.473-17.612 4.26-28.019 14.667s-12.193 17.793-14.666 28.017c-2.966 12.265-6.658 27.529-24.28 45.151s-32.885 21.313-45.15 24.279c-10.223 2.473-17.61 4.259-28.016 14.665s-12.191 17.792-14.664 28.015c-2.966 12.264-6.657 27.528-24.279 45.149-17.621 17.621-32.885 21.313-45.149 24.279-10.223 2.473-17.61 4.259-28.016 14.665-7.087 7.087-18.579 7.087-25.666 0s-7.087-18.579 0-25.666c17.622-17.622 32.885-21.313 45.15-24.279 10.223-2.473 17.61-4.259 28.016-14.665 10.405-10.405 12.191-17.792 14.664-28.015 2.966-12.265 6.658-27.528 24.279-45.149 17.622-17.622 32.885-21.313 45.15-24.279 10.223-2.473 17.61-4.259 28.016-14.665 10.407-10.407 12.193-17.793 14.666-28.017 2.966-12.265 6.658-27.529 24.28-45.151s32.886-21.315 45.151-24.281c10.225-2.473 17.612-4.26 28.02-14.668 10.407-10.407 12.194-17.795 14.667-28.019 2.967-12.265 6.659-27.529 24.281-45.151 7.087-7.087 18.579-7.087 25.666 0s7.087 18.579 0 25.666c-10.407 10.407-12.194 17.795-14.667 28.019-2.967 12.265-6.659 27.528-24.282 45.151z" fill="#de646e"/></g><g><path d="m389.579 165.35c-17.623 17.623-32.887 21.315-45.152 24.282-10.225 2.473-17.612 4.26-28.019 14.667s-12.193 17.793-14.666 28.017c-2.966 12.265-6.658 27.529-24.28 45.151s-32.885 21.313-45.15 24.279c-10.223 2.473-17.61 4.259-28.016 14.665s-12.191 17.792-14.664 28.015c-2.966 12.264-6.657 27.528-24.279 45.149-17.621 17.621-32.885 21.313-45.149 24.279-10.223 2.473-17.61 4.259-28.016 14.665-7.087 7.087-18.579 7.087-25.666 0s-7.087-18.579 0-25.666c17.622-17.622 32.885-21.313 45.15-24.279 10.223-2.473 17.61-4.259 28.016-14.665 10.405-10.405 12.191-17.792 14.664-28.015 2.966-12.265 6.658-27.528 24.279-45.149 17.622-17.622 32.885-21.313 45.15-24.279 10.223-2.473 17.61-4.259 28.016-14.665 10.407-10.407 12.193-17.793 14.666-28.017 2.966-12.265 6.658-27.529 24.28-45.151s32.886-21.315 45.151-24.281c10.225-2.473 17.612-4.26 28.02-14.668 10.407-10.407 12.194-17.795 14.667-28.019 2.967-12.265 6.659-27.529 24.281-45.151 7.087-7.087 18.579-7.087 25.666 0s7.087 18.579 0 25.666c-10.407 10.407-12.194 17.795-14.667 28.019-2.967 12.265-6.659 27.528-24.282 45.151z" fill="#ffe07d"/></g></g></g><path d="m500.306 125.309c6.081-30.556-2.685-63.507-26.32-87.142s-56.586-32.401-87.142-26.32c-45.607-21.98-99.881-12.863-135.857 23.112l-91.342 91.341c-2.929 2.929-2.929 7.678 0 10.606 2.929 2.929 7.678 2.929 10.606 0l91.342-91.342c27.361-27.361 66.83-36.947 102.88-26.326-9.72 4.6-18.83 10.899-26.859 18.928l-299.439 299.44c-8.029 8.029-14.328 17.139-18.928 26.859-10.62-36.049-1.035-75.519 26.326-102.88l99.934-99.934c2.929-2.929 2.929-7.678 0-10.606-2.929-2.929-7.678-2.929-10.606 0l-99.934 99.934c-35.976 35.976-45.092 90.25-23.112 135.856-6.081 30.556 2.685 63.507 26.32 87.142 18.799 18.799 43.492 28.198 68.186 28.198 6.346 0 12.69-.632 18.935-1.873 16.524 7.967 34.179 11.859 51.699 11.858 30.837-.002 61.234-12.031 84.179-34.975l216.02-216.02c35.975-35.975 45.092-90.25 23.112-135.856zm-33.719 125.25-216.02 216.02c-20.06 20.06-46.624 30.575-73.582 30.573-9.817 0-19.687-1.403-29.313-4.24 9.726-4.601 18.84-10.902 26.873-18.935l163.983-163.983c2.929-2.929 2.929-7.678 0-10.606-2.929-2.929-7.678-2.929-10.606 0l-163.983 163.983c-31.749 31.749-83.409 31.749-115.158 0s-31.749-83.409 0-115.158l299.44-299.44c31.749-31.749 83.409-31.749 115.158 0s31.749 83.409 0 115.158l-110.893 110.893c-2.929 2.929-2.929 7.678 0 10.606 2.929 2.929 7.678 2.929 10.606 0l110.893-110.893c8.029-8.029 14.328-17.139 18.928-26.859 10.62 36.05 1.035 75.519-26.326 102.881zm-45.436-128.597c2.347-9.704 3.763-15.561 12.681-24.479 10-10 10-26.272 0-36.273-10.001-10-26.273-10-36.273 0-19.113 19.113-23.249 36.208-26.268 48.691-2.348 9.705-3.765 15.563-12.681 24.479-8.917 8.917-14.775 10.334-24.482 12.682-12.482 3.02-29.577 7.156-48.689 26.268-19.113 19.112-23.248 36.208-26.268 48.693-2.347 9.703-3.764 15.56-12.679 24.475-8.916 8.916-14.773 10.332-24.479 12.679-12.482 3.019-29.577 7.153-48.688 26.266-19.11 19.109-23.245 36.204-26.266 48.689-2.346 9.703-3.763 15.56-12.677 24.474-8.915 8.915-14.771 10.331-24.476 12.679-12.482 3.019-29.577 7.153-48.69 26.266-10 10-10 26.272 0 36.273s26.272 10 36.273 0c8.915-8.915 14.772-10.332 24.478-12.679 12.482-3.019 29.577-7.154 48.688-26.265 19.112-19.113 23.247-36.208 26.265-48.69 2.346-9.703 3.763-15.56 12.677-24.474 8.917-8.916 14.773-10.332 24.48-12.679 12.481-3.02 29.576-7.154 48.686-26.266 19.113-19.113 23.248-36.208 26.268-48.692 2.347-9.703 3.764-15.56 12.679-24.476 8.917-8.917 14.774-10.333 24.479-12.681 12.482-3.019 29.578-7.154 48.691-26.268 19.116-19.114 23.251-36.21 26.271-48.692zm-78.486 60.38c-10.55 2.552-19.662 4.755-31.56 16.654-11.897 11.897-14.101 21.007-16.653 31.558-2.888 11.943-6.162 25.479-22.293 41.61-16.129 16.129-29.665 19.404-41.609 22.293-10.548 2.551-19.659 4.754-31.557 16.652-11.896 11.896-14.099 21.006-16.65 31.555-2.888 11.942-6.161 25.478-22.292 41.609-16.13 16.13-29.666 19.403-41.609 22.292-10.549 2.551-19.66 4.755-31.557 16.652-4.152 4.152-10.908 4.151-15.06 0-4.152-4.152-4.152-10.908 0-15.06 16.131-16.13 29.667-19.404 41.611-22.293 10.549-2.551 19.659-4.755 31.555-16.651s14.099-21.006 16.651-31.558c2.889-11.942 6.163-25.477 22.292-41.605 16.13-16.13 29.666-19.404 41.61-22.292 10.549-2.552 19.659-4.755 31.557-16.652 11.896-11.896 14.101-21.006 16.653-31.558 2.889-11.943 6.163-25.479 22.293-41.61 16.131-16.13 29.667-19.405 41.611-22.295 10.55-2.551 19.661-4.755 31.56-16.654 11.898-11.898 14.102-21.009 16.654-31.56 2.889-11.943 6.163-25.479 22.294-41.611 4.152-4.152 10.908-4.152 15.06 0s4.152 10.908 0 15.06c-11.9 11.9-14.103 21.01-16.654 31.56-2.889 11.942-6.164 25.479-22.295 41.611-16.133 16.129-29.67 19.404-41.612 22.293z"/></g></svg>