<svg id="Capa_1" enable-background="new 0 0 512 512" height="512" viewBox="0 0 512 512" width="512" xmlns="http://www.w3.org/2000/svg"><g><g><g><circle cx="256" cy="256" fill="#ecf4ff" r="248.5"/><path d="m256 7.5c-5.038 0-10.036.168-15 .463 130.256 7.758 233.5 115.832 233.5 248.037s-103.244 240.279-233.5 248.037c4.964.295 9.962.463 15 .463 137.243 0 248.5-111.257 248.5-248.5s-111.257-248.5-248.5-248.5z" fill="#ddeafb"/><circle cx="256" cy="256" fill="#cbe2ff" r="181.321"/><path d="m256 74.679c-5.052 0-10.053.217-15 .622 93.122 7.627 166.321 85.611 166.321 180.7s-73.199 173.071-166.321 180.698c4.947.405 9.948.622 15 .622 100.141 0 181.321-81.18 181.321-181.321s-81.18-181.321-181.321-181.321z" fill="#9dc6fb"/></g><circle cx="303.869" cy="92.131" fill="#b3e59f" r="43"/><circle cx="293.022" cy="79.525" fill="#95d6a4" r="7.5"/><path d="m386.242 427.85c-10.493 0-19-8.507-19-19v-34c0-10.493 8.507-19 19-19 10.493 0 19 8.507 19 19v34c0 10.494-8.507 19-19 19z" fill="#c6855b"/><path d="m386.242 355.85c-.022 0-.043.003-.065.003.029.429.065.855.065 1.291v34c0 10.471-8.472 18.961-18.935 18.997.667 9.889 8.877 17.709 18.935 17.709 10.493 0 19-8.506 19-19v-34c0-10.493-8.507-19-19-19z" fill="#c17e4e"/><path d="m186.698 353.663c7.42 7.42 7.42 19.45 0 26.87l-24.042 24.042c-7.42 7.42-19.45 7.42-26.87 0-7.42-7.42-7.42-19.45 0-26.87l24.042-24.042c7.42-7.42 19.45-7.42 26.87 0z" fill="#c6855b"/><path d="m186.698 353.663c-2.778-2.778-6.201-4.515-9.787-5.213 1.167 5.994-.57 12.44-5.213 17.083l-24.042 24.042c-4.642 4.642-11.089 6.379-17.083 5.212.698 3.586 2.435 7.01 5.213 9.788 7.42 7.42 19.45 7.42 26.87 0l24.042-24.042c7.42-7.42 7.42-19.45 0-26.87z" fill="#c17e4e"/><path d="m160.776 179.618-17.136 17.136c-1.953 1.953-5.118 1.953-7.071 0l-62.533-62.534c-1.953-1.953-1.953-5.118 0-7.071l22.808-22.808c2.079-2.079 5.494-1.924 7.376.334l56.861 68.205c1.656 1.987 1.523 4.909-.305 6.738z" fill="#e17f85"/><path d="m161.081 172.881-56.861-68.206c-1.882-2.258-5.297-2.413-7.376-.333l-8.477 8.477 50.072 60.062c1.656 1.986 1.524 4.908-.305 6.737l-9.35 9.35 7.786 7.786c1.953 1.953 5.118 1.953 7.071 0l17.136-17.136c1.827-1.829 1.96-4.751.304-6.737z" fill="#de646e"/><path d="m87.77 310.608-17.765 3.11c-2.024.354-3.953-.999-4.307-3.024l-11.349-64.831c-.354-2.024.999-3.953 3.024-4.307l23.646-4.139c2.155-.377 4.169 1.177 4.35 3.358l5.468 65.86c.159 1.918-1.171 3.641-3.067 3.973z" fill="#e17f85"/><path d="m85.369 240.775c-.181-2.18-2.195-3.735-4.35-3.358l-9.544 1.671 3.571 43.012c.608 7.318-4.466 13.892-11.7 15.158l2.352 13.436c.354 2.024 2.283 3.378 4.307 3.024l17.765-3.11c1.896-.332 3.226-2.055 3.067-3.974z" fill="#de646e"/><path d="m422.122 230.671 17.765-3.11c2.024-.354 3.953.999 4.307 3.024l11.349 64.831c.354 2.024-.999 3.953-3.024 4.307l-23.646 4.139c-2.155.377-4.169-1.177-4.35-3.358l-5.468-65.86c-.159-1.917 1.171-3.641 3.067-3.973z" fill="#e17f85"/><path d="m455.544 295.416-11.349-64.831c-.354-2.024-2.283-3.378-4.307-3.024l-8.341 1.46 6.528 37.294c1.718 9.812-4.844 19.159-14.657 20.877l1.105 13.313c.181 2.18 2.195 3.735 4.35 3.357l23.646-4.139c2.025-.354 3.379-2.282 3.025-4.307z" fill="#de646e"/><g><g><path d="m352.709 300.453c.748 9.771-13.876 17.969-16.389 26.986-2.568 9.212 5.693 23.693.245 31.55-5.38 7.759-21.975 5.274-29.649 11.155-7.441 5.703-9.165 22.379-18.289 25.805-8.703 3.268-21.04-8.015-30.861-7.266s-20.297 13.77-29.396 11.86c-9.54-2.003-13.782-18.224-22.005-22.733-8.48-4.65-24.504.322-31.002-6.531-6.58-6.94-.619-22.505-4.559-31.221-3.857-8.531-19.558-14.417-20.306-24.189-.748-9.771 13.876-17.969 16.389-26.986 2.568-9.212-5.693-23.693-.245-31.55 5.38-7.759 21.975-5.274 29.649-11.155 7.441-5.703 9.165-22.379 18.289-25.805 8.703-3.268 21.04 8.015 30.861 7.266s20.297-13.77 29.396-11.86c9.54 2.003 13.782 18.224 22.005 22.733 8.48 4.65 24.504-.322 31.002 6.531 6.58 6.94.619 22.505 4.559 31.221 3.857 8.532 19.558 14.418 20.306 24.189z" fill="#b3e59f"/></g><g><path d="m215.441 227.64c4.068-.31 8.25-2.727 12.399-5.315-4.779-1.971-9.38-3.407-13.259-1.95-2.759 1.036-4.839 3.286-6.607 6.075 2.577.847 5.096 1.371 7.467 1.19z" fill="#aad541"/><path d="m336.319 327.439c2.514-9.017 17.137-17.215 16.389-26.986s-16.449-15.658-20.306-24.188c-3.94-8.716 2.021-24.281-4.559-31.221-6.498-6.853-22.522-1.881-31.002-6.531-8.223-4.508-12.464-20.73-22.005-22.733-6.223-1.307-13.091 4.371-19.953 8.331 3.842 5.395 7.247 11.82 11.957 14.402 8.48 4.65 24.504-.322 31.002 6.531 6.58 6.94.619 22.505 4.559 31.221 3.857 8.531 19.558 14.417 20.306 24.188s-13.875 17.969-16.389 26.986c-2.568 9.212 5.693 23.693.245 31.55-5.38 7.758-21.975 5.274-29.649 11.155-5.191 3.979-7.602 13.294-11.682 19.729 8.099 2.664 16.792 8.554 23.393 6.075 9.125-3.426 10.848-20.102 18.289-25.805 7.674-5.881 24.269-3.396 29.649-11.155 5.449-7.855-2.812-22.336-.244-31.549z" fill="#95d6a4"/></g><g><path d="m385.664 314.258c-9.517 1.831-19.064 3.459-28.633 4.883-1.425-9.572-2.85-19.144-4.274-28.716 9.162-1.364 18.302-2.922 27.415-4.675 7.669-1.475 15.107 3.458 16.746 11.094.02.095.041.189.061.284 1.69 7.87-3.411 15.609-11.315 17.13z" fill="#f7f6f7"/><path d="m154.968 319.142c-9.569-1.425-19.115-3.052-28.633-4.883-7.904-1.521-13.005-9.26-11.315-17.13.02-.095.041-.189.061-.284 1.639-7.636 9.077-12.57 16.746-11.095 9.113 1.753 18.253 3.311 27.415 4.675-1.424 9.573-2.849 19.144-4.274 28.717z" fill="#f7f6f7"/><path d="m346.394 337.455c-60.011 7.782-120.778 7.782-180.789 0-7.197-.933-12.235-7.58-11.166-14.758 1.79-12.027 3.58-24.055 5.37-36.082 1.036-6.959 7.441-11.839 14.42-10.941 54.289 6.987 109.253 6.987 163.542 0 6.978-.898 13.384 3.981 14.42 10.941 1.79 12.027 3.58 24.055 5.37 36.082 1.068 7.178-3.97 13.824-11.167 14.758z" fill="#e17f85"/><path d="m357.561 322.697c-1.79-12.027-3.58-24.055-5.37-36.082-1.04-6.99-7.488-11.832-14.497-10.931-4.876.627-9.759 1.178-14.645 1.692.021.144.043.288.064.433 3.636 24.429-13.54 45.935-38.151 48.004-43.482 3.655-87.221 3.246-130.648-1.206-.006 6.411 4.741 12 11.293 12.849 60.035 7.785 120.827 7.782 180.861-.009 7.169-.932 12.157-7.599 11.093-14.75z" fill="#de646e"/></g><g><path d="m385.664 260.829c-9.517 1.831-19.064 3.459-28.633 4.883-1.425-9.572-2.85-19.144-4.274-28.716 9.162-1.364 18.302-2.922 27.415-4.675 7.669-1.475 15.107 3.459 16.746 11.094.02.095.041.189.061.284 1.69 7.87-3.411 15.609-11.315 17.13z" fill="#f7f6f7"/><path d="m154.968 265.712c-9.569-1.424-19.115-3.052-28.633-4.883-7.904-1.521-13.005-9.26-11.315-17.13.02-.095.041-.189.061-.284 1.639-7.636 9.077-12.57 16.746-11.095 9.113 1.753 18.253 3.311 27.415 4.675-1.424 9.573-2.849 19.145-4.274 28.717z" fill="#f7f6f7"/><path d="m346.394 284.025c-60.011 7.782-120.778 7.782-180.789 0-7.197-.933-12.235-7.58-11.166-14.758 1.79-12.027 3.58-24.055 5.37-36.082 1.036-6.959 7.441-11.839 14.42-10.941 54.289 6.987 109.253 6.987 163.542 0 6.978-.898 13.384 3.982 14.42 10.941 1.79 12.027 3.58 24.055 5.37 36.082 1.068 7.178-3.97 13.825-11.167 14.758z" fill="#e17f85"/><path d="m357.561 269.268c-1.79-12.027-3.58-24.055-5.37-36.082-1.04-6.99-7.489-11.832-14.499-10.931-4.875.627-9.758 1.178-14.644 1.691.021.144.043.288.064.433 3.636 24.429-13.54 45.935-38.151 48.004-43.482 3.655-87.221 3.246-130.648-1.206-.006 6.411 4.741 12 11.293 12.849 60.035 7.785 120.827 7.782 180.861-.009 7.17-.931 12.158-7.598 11.094-14.749z" fill="#de646e"/></g><g><path d="m385.664 207.4c-9.517 1.831-19.064 3.459-28.633 4.883-1.425-9.572-2.85-19.144-4.274-28.716 9.162-1.364 18.302-2.922 27.415-4.675 7.669-1.475 15.107 3.459 16.746 11.094.02.095.041.189.061.284 1.69 7.87-3.411 15.609-11.315 17.13z" fill="#f7f6f7"/><path d="m154.968 212.283c-9.569-1.425-19.115-3.052-28.633-4.883-7.904-1.521-13.005-9.26-11.315-17.13.02-.095.041-.189.061-.284 1.639-7.636 9.077-12.57 16.746-11.095 9.113 1.753 18.253 3.311 27.415 4.675-1.424 9.573-2.849 19.145-4.274 28.717z" fill="#f7f6f7"/><path d="m346.394 230.596c-60.011 7.782-120.778 7.782-180.789 0-7.197-.933-12.235-7.58-11.166-14.758 1.79-12.027 3.58-24.055 5.37-36.082 1.036-6.959 7.441-11.839 14.42-10.941 54.289 6.987 109.253 6.987 163.542 0 6.978-.898 13.384 3.981 14.42 10.941 1.79 12.027 3.58 24.055 5.37 36.082 1.068 7.178-3.97 13.825-11.167 14.758z" fill="#e17f85"/><path d="m357.561 215.838c-1.79-12.027-3.58-24.055-5.37-36.082-1.04-6.99-7.488-11.832-14.497-10.931-4.876.627-9.759 1.178-14.645 1.692.021.144.043.288.064.433 3.636 24.429-13.54 45.935-38.151 48.004-43.482 3.655-87.221 3.246-130.648-1.206-.006 6.411 4.741 12 11.293 12.849 60.035 7.785 120.827 7.782 180.861-.009 7.169-.932 12.157-7.598 11.093-14.75z" fill="#de646e"/></g></g><path d="m215.719 119.981c-7.42 7.42-19.45 7.42-26.87 0l-24.042-24.042c-7.42-7.42-7.42-19.45 0-26.87 7.42-7.42 19.45-7.42 26.87 0l24.042 24.042c7.42 7.42 7.42 19.45 0 26.87z" fill="#c6855b"/><path d="m215.719 93.111-24.042-24.042c-7.42-7.42-19.45-7.42-26.87 0-.53.53-1.012 1.09-1.466 1.664l22.378 22.378c6.89 6.89 7.371 17.749 1.467 25.207l1.663 1.663c7.42 7.42 19.45 7.42 26.87 0s7.42-19.45 0-26.87z" fill="#c17e4e"/><path d="m448.245 152.632c4.806 9.328 1.139 20.786-8.189 25.592l-30.225 15.571c-9.328 4.806-20.786 1.139-25.592-8.189-4.806-9.328-1.139-20.786 8.189-25.592l30.225-15.571c9.328-4.806 20.786-1.139 25.592 8.189z" fill="#c6855b"/><path d="m448.245 152.632c-4.806-9.329-16.263-12.995-25.592-8.189l-7.488 3.858c1.194 1.266 2.243 2.707 3.08 4.332 4.805 9.328 1.139 20.786-8.189 25.592l-22.737 11.713c5.662 6.005 14.808 7.826 22.512 3.858l30.225-15.571c9.328-4.807 12.994-16.265 8.189-25.593z" fill="#c17e4e"/><path d="m316.481 454.139-20.414 13.058c-2.326 1.488-5.418.809-6.906-1.518l-47.654-74.498c-1.488-2.326-.809-5.418 1.518-6.906l27.172-17.381c2.476-1.584 5.779-.7 7.132 1.909l40.897 78.82c1.19 2.297.433 5.122-1.745 6.516z" fill="#e17f85"/><path d="m318.224 447.624-40.896-78.82c-1.354-2.609-4.656-3.494-7.132-1.909l-12.069 7.72 30.098 58.009c1.191 2.296.435 5.121-1.744 6.515l-10.146 6.49 12.826 20.051c1.488 2.326 4.58 3.005 6.906 1.518l20.414-13.059c2.178-1.394 2.935-4.219 1.743-6.515z" fill="#de646e"/></g><path d="m294.702 107.8c0 4.142 3.358 7.5 7.5 7.5s7.5-3.358 7.5-7.5-3.358-7.5-7.5-7.5-7.5 3.358-7.5 7.5zm168.23 186.324-11.349-64.832c-.517-2.953-2.153-5.527-4.606-7.249-1.678-1.178-3.602-1.846-5.594-1.995-1.957-10.137-4.746-20.104-8.339-29.774l10.447-5.382c6.293-3.242 10.946-8.74 13.104-15.481 2.157-6.742 1.561-13.92-1.682-20.213-6.691-12.99-22.707-18.114-35.693-11.422l-11.451 5.899c-14.471-19.494-32.781-36.257-53.467-48.915 1.456-28.771-21.475-53.128-50.432-53.128-18.792 0-35.207 10.325-43.903 25.592-17.948-.376-35.871 1.8-53.104 6.424l-9.881-9.881c-10.333-10.333-27.143-10.334-37.478 0-8.768 8.769-10.091 22.201-3.978 32.382-10.573 6.654-20.458 14.331-29.527 22.943l-16.013-19.207c-2.242-2.695-5.537-4.333-9.041-4.494-3.498-.163-6.931 1.168-9.41 3.647l-22.785 22.795c-2.373 2.361-3.68 5.505-3.68 8.852s1.307 6.49 3.666 8.838l23.122 23.122c-12.273 21.496-20.046 44.761-23.153 69.313l-12.626 2.21c-6.095 1.067-10.186 6.894-9.118 12.988l11.349 64.832c.517 2.953 2.153 5.527 4.606 7.249 2.457 1.725 5.458 2.382 8.382 1.869l6.979-1.222c9.409 26.159 24.672 50.129 44.48 69.862-.394 7.519 2.386 14.783 7.729 20.126 6.744 6.745 16.953 9.393 26.17 6.706 23.089 14.333 48.456 23.335 75.471 26.746.319.041.636.06.949.06 3.723 0 6.953-2.771 7.432-6.562.519-4.109-2.393-7.862-6.502-8.38-22.568-2.849-43.888-9.936-63.525-21.086 0 0 23.207-23.359 23.951-24.346 3.321.136 6.583.421 8.324 1.377 2.035 1.115 4.552 4.898 6.772 8.236 4.215 6.334 8.992 13.515 17.293 15.255 5.102 1.07 10.133-.458 14.656-2.822l41.364 64.663c3.621 5.725 11.538 7.5 17.266 3.795l20.414-13.058c5.484-3.508 7.358-10.51 4.36-16.287l-5.351-10.313c14.343-5.115 27.939-11.931 40.629-20.352 2.208 12.399 13.059 21.845 26.082 21.845 14.612 0 26.5-11.888 26.5-26.5v-34c0-3.702-.766-7.228-2.143-10.431 11.713-16.656 20.562-34.901 26.361-54.357l16.853-2.95c6.096-1.067 10.187-6.894 9.12-12.987zm-36.844-143.014c5.54-2.859 12.546-.761 15.49 4.957 1.406 2.73 1.666 5.845.729 8.771s-2.956 5.312-5.687 6.718l-16.583 8.543c-.001 0-.002 0-.003.001l-13.639 7.026c-5.558 2.899-12.63.593-15.489-4.957-2.904-5.637-.681-12.585 4.956-15.489zm-122.219-94.479c19.575 0 35.5 15.925 35.5 35.5s-15.925 35.5-35.5 35.5-35.5-15.925-35.5-35.5 15.925-35.5 35.5-35.5zm-133.758 17.741c4.484-4.483 11.78-4.483 16.263 0l24.042 24.042c4.484 4.484 4.484 11.78 0 16.264-4.482 4.484-11.78 4.483-16.263 0l-24.042-24.042c-4.484-4.484-4.484-11.78 0-16.264zm-4.39 33.087 17.825 17.825c10.334 10.333 27.144 10.334 37.478 0 10.996-10.997 10.043-29.141-1.734-39.211 11.487-2.467 23.23-3.753 35.064-3.864-.642 3.209-.984 6.526-.984 9.921 0 27.846 22.654 50.5 50.5 50.5 21.411 0 39.74-13.401 47.074-32.25 16.54 10.831 31.281 24.547 43.298 40.263l-5.248 2.704c-7.604 3.917-12.506 11.029-13.927 18.857-5.427 1.01-10.888 1.974-16.35 2.851-3.088-8.977-12.211-14.93-21.902-13.678-22.525 2.899-45.458 4.599-68.159 5.053-4.142.083-7.432 3.507-7.349 7.648.082 4.142 3.528 7.426 7.647 7.349 23.24-.464 46.716-2.205 69.774-5.173 2.902-.374 5.61 1.694 6.045 4.606l4.837 32.499c.001.007.001.014.002.021.001.008.003.016.005.024.542 3.688.826 9.104-4.186 9.754-59.34 7.694-119.52 7.694-178.859 0-5.011-.65-5.022-5.897-4.185-9.766 0-.001.001-.003.001-.005 0-.001 0-.003 0-.005l4.84-32.522c.435-2.914 3.147-4.983 6.045-4.607 19.735 2.541 39.824 4.187 59.707 4.893 4.099.159 7.615-3.089 7.762-7.229.147-4.139-3.089-7.614-7.229-7.761-19.423-.69-39.047-2.298-58.326-4.78-4.299-.555-8.481.312-12.078 2.224l-27.492-32.974c9.169-8.804 19.257-16.565 30.104-23.167zm220.886 91.616c-.712.453-16.307 3.527-23.268 4.641l-2.066-13.88c5.153-.829 10.302-1.736 15.427-2.681 2.041 4.877 5.55 9.082 9.907 11.92zm-5.017 40.611c3.625-.701 7.218 1.68 7.998 5.316l.059.271c.809 3.678-1.688 7.477-5.399 8.191-6.909 1.329-13.915 2.562-20.909 3.683l-2.065-13.881c6.796-1.092 13.603-2.289 20.316-3.58zm-36.164 36.906c-59.339 7.693-119.514 7.693-178.845.001-2.993-.388-5.182-3.231-4.723-6.219l4.777-32.098c29.656 3.76 59.509 5.654 89.364 5.654s59.709-1.894 89.365-5.654l4.777 32.1c.458 2.971-1.736 5.83-4.715 6.216zm-.002 53.421c-59.335 7.702-119.51 7.703-178.853 0-2.985-.387-5.171-3.23-4.713-6.208l4.775-32.096c29.656 3.76 59.508 5.653 89.365 5.653 29.855 0 59.711-1.894 89.369-5.653l4.775 32.099c.457 2.966-1.737 5.818-4.718 6.205zm-264.313-199.328 19.096-19.105 19.48 23.364c.026.031.051.062.077.092l33.341 39.989c-6.641-1.066-13.295-2.236-19.86-3.499-3.658-.705-7.301-.429-10.652.638zm69.617 112.581-2.066 13.881c-6.992-1.121-13.998-2.353-20.909-3.683-3.712-.714-6.212-4.494-5.402-8.178l.064-.297c.778-3.622 4.366-6.001 7.995-5.304 6.717 1.293 13.524 2.49 20.318 3.581zm-.001-53.43-2.066 13.881c-6.992-1.121-13.997-2.353-20.908-3.683-3.712-.714-6.212-4.494-5.402-8.178l.064-.297c.778-3.623 4.366-6 7.995-5.304 6.717 1.294 13.523 2.491 20.317 3.581zm-78.293 115.843-10.046-57.387c1.28-.266 14.665-2.512 15.85-2.774l4.84 58.298zm56.282 68.669c-15.587-16.763-27.757-36.494-35.693-57.843 3.512-2.15 5.649-6.132 5.288-10.491l-5.469-65.862c-.261-3.134-1.838-6.033-4.328-7.954-1.312-1.013-2.825-1.701-4.414-2.056 2.946-19.871 9.238-38.798 18.786-56.47l7.725 7.725c-1.326 2.097-2.311 4.449-2.857 6.994l-.066.304c-2.606 11.748 5.353 23.784 17.231 26.069 7.239 1.393 14.578 2.682 21.9 3.85.13 3.247 1.04 6.393 2.659 9.23-5.433-.902-10.864-1.856-16.235-2.889-11.585-2.231-23.02 5.347-25.49 16.865l-.066.304c-2.606 11.748 5.353 23.784 17.231 26.069 7.239 1.393 14.578 2.682 21.901 3.85.13 3.247 1.04 6.393 2.659 9.231-5.433-.903-10.864-1.856-16.234-2.889-11.585-2.23-23.02 5.347-25.49 16.865l-.066.304c-2.606 11.747 5.353 23.784 17.231 26.069 7.239 1.393 14.578 2.682 21.901 3.85.165 4.118 1.567 8.084 4.111 11.451 2.468 3.266 5.77 5.655 9.54 6.969-2.161 1.192-4.166 2.686-5.945 4.464 0 0-25.255 25.317-25.81 25.991zm22.011-77.653-2.065 13.881c-6.992-1.121-13.997-2.353-20.909-3.683-3.712-.714-6.212-4.494-5.402-8.178l.064-.297c.778-3.623 4.366-6 7.995-5.304 6.717 1.293 13.523 2.49 20.317 3.581zm6.629 102.572c-4.405 4.448-11.856 4.407-16.263 0-2.176-2.176-3.374-5.062-3.374-8.126 0-3.071 1.198-5.961 3.374-8.137l23.454-23.454c.041 6.041.913 12.189 5.372 16.893 1.798 1.895 3.876 3.216 6.115 4.146zm81.626-21.309c-4.822 3.084-6.801 8.947-5.209 14.174-1.585.767-2.999 1.248-3.864 1.068-2.301-.482-5.401-5.142-7.892-8.885-3.335-5.011-6.782-10.193-12.048-13.079-5.387-2.957-11.706-3.135-17.816-3.308-4.178-.118-9.9-.279-11.351-1.808-1.51-1.593-1.3-7.368-1.146-11.585.094-2.597.186-5.269.061-7.875 25.347 2.74 50.812 4.13 76.283 4.129 24.854 0 49.711-1.328 74.45-3.937.537 3.286.841 6.57-.055 7.864-1.2 1.73-6.827 2.756-10.935 3.504-6.012 1.095-12.229 2.228-17.104 5.966-5.19 3.979-7.822 10.297-10.582 16.178l-7.792-15.017c-1.613-3.109-4.48-5.412-7.864-6.317-3.386-.906-7.017-.341-9.966 1.545zm55.149 81.574c-.003-.036-44.96-70.286-44.96-70.286l22.761-14.559s32.895 63.39 38.584 74.364zm103.611-50.682c0 6.341-5.159 11.5-11.5 11.5s-11.5-5.159-11.5-11.5v-34c0-6.341 5.159-11.5 11.5-11.5s11.5 5.159 11.5 11.5zm13.839-173.584 5.469 65.862c.261 3.134 1.838 6.033 4.328 7.954.05.039.104.072.155.109-4.933 15.384-11.965 29.916-20.984 43.371-4.13-2.661-9.039-4.211-14.306-4.211-14.612 0-26.5 11.888-26.5 26.5v20.62c-14.417 10.755-30.256 19.115-47.193 24.931l-12.574-24.234c2.555-3.347 4.388-7.285 6.072-10.913 1.686-3.633 3.597-7.751 5.437-9.162 2.002-1.536 6.605-2.374 10.667-3.114 7.424-1.353 15.838-2.886 20.573-9.716 3.816-5.507 3.608-11.964 2.646-18.133 6.205-.716 11.804-3.05 15.7-8.205 2.544-3.367 3.947-7.333 4.111-11.451 7.325-1.168 14.664-2.457 21.9-3.85 11.798-2.27 19.815-14.333 17.227-26.09l-.057-.263c-2.477-11.539-13.92-19.118-25.495-16.886-5.367 1.033-10.799 1.986-16.234 2.89 1.62-2.838 2.529-5.984 2.659-9.231 7.325-1.168 14.665-2.457 21.901-3.85 11.798-2.27 19.815-14.333 17.227-26.09l-.057-.263c-2.477-11.54-13.92-19.115-25.495-16.886-5.368 1.033-10.799 1.986-16.235 2.89 1.619-2.838 2.529-5.985 2.66-9.232 7.29-1.161 14.627-2.45 21.895-3.848 6.663-1.28 12.215-5.574 15.243-11.383 3.77-.167 7.492-1.141 10.946-2.92l6.335-3.264c2.938 8.17 5.258 16.561 6.935 25.087l-5.705.999c-.001 0-.001 0-.001 0-5.758 1.008-9.732 6.159-9.25 11.982zm-50.308 61.428c6.798-1.091 13.604-2.288 20.317-3.58 3.625-.7 7.218 1.68 7.998 5.316l.059.271c.809 3.678-1.688 7.477-5.399 8.191-6.909 1.329-13.915 2.562-20.909 3.683zm70.382-.932-4.84-58.298c.954-.31 9.749-1.584 10.644-1.863l10.046 57.387zm-111.77-201.237c4.142 0 7.5-3.358 7.5-7.5s-3.358-7.5-7.5-7.5-7.5 3.358-7.5 7.5 3.358 7.5 7.5 7.5zm-26.863-7.5c4.142 0 7.5-3.358 7.5-7.5s-3.358-7.5-7.5-7.5-7.5 3.358-7.5 7.5 3.357 7.5 7.5 7.5zm143.998-12.045c-48.352-48.351-112.64-74.98-181.02-74.98s-132.668 26.629-181.02 74.98c-48.351 48.353-74.98 112.64-74.98 181.02s26.629 132.667 74.98 181.02c48.352 48.351 112.64 74.98 181.02 74.98s132.668-26.629 181.02-74.98c48.351-48.353 74.98-112.64 74.98-181.02s-26.629-132.667-74.98-181.02zm-10.607 351.433c-45.519 45.519-106.039 70.587-170.413 70.587s-124.894-25.068-170.413-70.587-70.587-106.039-70.587-170.413 25.068-124.894 70.587-170.413 106.039-70.587 170.413-70.587 124.894 25.068 170.413 70.587 70.587 106.039 70.587 170.413-25.068 124.894-70.587 170.413z"/></g></svg>