<svg id="Capa_1" enable-background="new 0 0 512.002 512.002" height="512" viewBox="0 0 512.002 512.002" width="512" xmlns="http://www.w3.org/2000/svg"><g><g><g><g><circle cx="299.175" cy="180.002" fill="#f2d59c" r="86.5"/></g><g><circle cx="299.175" cy="180.002" fill="#f2d59c" r="56.5"/></g><g><circle cx="299.175" cy="180.002" fill="#f2d59c" r="26.5"/></g></g><g><path d="m427.99 324.759h-343.959c-7.285 0-12.126-7.541-9.092-14.164l53.512-116.828h255.118l53.512 116.828c3.034 6.624-1.806 14.164-9.091 14.164z" fill="#efc2c6"/><path d="m437.081 310.595-53.512-116.828h-30l53.512 116.828c3.034 6.624-1.806 14.164-9.092 14.164h30c7.286 0 12.126-7.54 9.092-14.164z" fill="#eab2b7"/><path d="m345.375 504.502h-178.729c-9.938 0-18.369-7.298-19.794-17.134l-39.207-270.735c-.749-5.175.545-10.119 3.23-14.078 3.572-5.267 9.606 6.211 16.564 6.211h257.143c6.957 0 12.991-11.478 16.564-6.211 2.685 3.958 3.979 8.903 3.23 14.078l-39.207 270.735c-1.425 9.837-9.856 17.134-19.794 17.134z" fill="#e17f85"/><path d="m384.582 208.767h-30-227.144c-6.855 0-12.813-11.581-16.404-6.443-2.793 3.996-4.153 9.033-3.389 14.309l2.179 15.049 66.51 88.792c1.887 2.535 4.861 4.028 8.021 4.028h143.31c3.16 0 6.134-1.494 8.021-4.028l24.507-32.714c1.271-1.696 3.966-.578 3.662 1.52l-28.687 198.089c-1.424 9.836-9.855 17.134-19.793 17.134h30c9.938 0 18.369-7.298 19.793-17.134l37.027-255.676 2.181-15.059c.749-5.175-.545-10.119-3.23-14.077-3.573-5.268-9.607 6.21-16.564 6.21z" fill="#de646e"/><path d="m110.879 202.559 65.455 87.915c1.887 2.535 4.861 4.028 8.021 4.028h143.31c3.16 0 6.134-1.494 8.021-4.028l65.455-87.915c-3.572-5.267-9.602-8.792-16.559-8.792h-257.144c-6.957 0-12.986 3.525-16.559 8.792z" fill="#f7f6f7"/><path d="m384.582 193.767h-30c.07 0 .139 0 .208.001 9.442.096 14.665 11.055 9.026 18.629l-58.131 78.077c-1.887 2.535-4.861 4.028-8.021 4.028h30c3.16 0 6.134-1.494 8.021-4.028l65.455-87.915c-3.571-5.267-9.601-8.792-16.558-8.792z" fill="#edebed"/><path d="m321.868 432.586h-131.715c-4.418 0-8-3.582-8-8v-50.529c0-4.418 3.582-8 8-8h131.715c4.418 0 8 3.582 8 8v50.529c0 4.419-3.582 8-8 8z" fill="#f7f6f7"/><path d="m321.868 366.057h-30c4.418 0 8 3.582 8 8v50.529c0 4.418-3.582 8-8 8h30c4.418 0 8-3.582 8-8v-50.529c0-4.418-3.582-8-8-8z" fill="#edebed"/></g></g><path d="m321.868 440.086c8.547 0 15.5-6.953 15.5-15.5v-50.529c0-8.547-6.953-15.5-15.5-15.5h-131.715c-8.547 0-15.5 6.953-15.5 15.5v50.529c0 8.547 6.953 15.5 15.5 15.5zm-132.215-15.5v-50.529c0-.276.224-.5.5-.5h131.715c.276 0 .5.224.5.5v50.529c0 .276-.224.5-.5.5h-131.715c-.276 0-.5-.224-.5-.5zm106.493-187.951h-80.272c-4.142 0-7.5 3.358-7.5 7.5s3.358 7.5 7.5 7.5h80.272c4.142 0 7.5-3.358 7.5-7.5s-3.357-7.5-7.5-7.5zm147.753 70.835-34.265-74.822 2.164-14.939c1.145-7.904-1.196-15.9-6.423-21.939-3.365-3.888-7.708-6.701-12.505-8.216.2-2.501.301-5.023.301-7.551 0-29.083-13.141-56.062-36.055-74.021-3.259-2.555-7.974-1.984-10.529 1.276s-1.984 7.974 1.276 10.529c19.261 15.097 30.308 37.773 30.308 62.216 0 2.099-.084 4.192-.248 6.265h-15.063c.204-2.078.311-4.169.311-6.265 0-35.29-28.71-64-64-64s-64 28.71-64 64c0 2.097.107 4.188.31 6.265h-15.063c-.163-2.073-.247-4.166-.247-6.265 0-43.561 35.439-79 79-79 6.786 0 13.521.86 20.019 2.556 4.006 1.048 8.105-1.354 9.151-5.363 1.046-4.008-1.355-8.105-5.363-9.151-7.734-2.019-15.744-3.042-23.807-3.042-51.832 0-94 42.168-94 94 0 2.096.086 4.186.224 6.265h-24.738l-45.807-91.074v-87.692c0-4.142-3.358-7.5-7.5-7.5s-7.5 3.358-7.5 7.5v57.868l-30.8-61.238c-1.861-3.701-6.37-5.193-10.07-3.33-3.7 1.861-5.191 6.37-3.33 10.07l44.2 87.881v88.587c-5.074 1.456-9.676 4.353-13.204 8.429-5.227 6.039-7.568 14.035-6.423 21.939l2.164 14.939-34.267 74.827c-5.254 11.213 3.351 24.898 15.911 24.788h32.782l12.08 83.417c.593 4.1 4.394 6.941 8.497 6.348 4.1-.593 6.941-4.398 6.348-8.497l-27.737-191.535 54.319 72.959c3.287 4.414 8.534 7.049 14.037 7.049h143.31c5.503 0 10.75-2.635 14.037-7.049l54.319-72.959-38.275 264.3c-.884 6.104-6.203 10.708-12.371 10.708h-178.731c-6.168 0-11.487-4.604-12.371-10.708l-5.397-37.27c-.593-4.099-4.399-6.945-8.497-6.347-4.1.593-6.941 4.398-6.348 8.498l5.397 37.269c1.945 13.431 13.645 23.559 27.216 23.559h178.729c13.571 0 25.271-10.128 27.216-23.559l22.618-156.182h32.782c12.399.092 21.162-13.543 15.908-24.793zm-359.869 9.792c-2.018-.079-3.039-1.675-2.271-3.547l24.591-53.697 8.29 57.244zm215.14-186.26c27.019 0 49 21.981 49 49 0 2.102-.141 4.194-.407 6.265h-15.192c.386-2.058.599-4.152.599-6.265 0-18.748-15.252-34-34-34s-34 15.252-34 34c0 2.113.213 4.208.599 6.265h-15.192c-.266-2.071-.407-4.164-.407-6.265 0-27.018 21.982-49 49-49zm19 49c0 2.145-.366 4.262-1.067 6.265h-35.865c-.701-2.003-1.067-4.12-1.067-6.265 0-10.477 8.523-19 19-19s18.999 8.524 18.999 19zm-183.32-51.424 29.016 57.69h-29.016zm194.82 157.417c-.47.631-1.219 1.007-2.005 1.007h-143.31c-.786 0-1.536-.376-2.005-1.007l-61.617-82.76c1.985-1.264 4.301-1.967 6.706-1.967h257.144c2.405 0 4.72.704 6.706 1.967zm98.32 31.267h-30.61l8.29-57.244 24.588 53.692c.779 1.893-.247 3.472-2.268 3.552z"/></g></svg>