<svg id="Capa_1" enable-background="new 0 0 511.888 511.888" height="512" viewBox="0 0 511.888 511.888" width="512" xmlns="http://www.w3.org/2000/svg"><g><g><g><g><path d="m421.56 456.867c58.709 0 98.823-60.419 76.728-115.711-16.68-41.742-39.227-87.699-69.881-134.836-30.896-47.509-63.841-86.707-94.975-118.512-42.794-43.718-112.184-43.718-154.978 0-31.133 31.805-64.079 71.003-94.975 118.512-30.653 47.137-53.2 93.094-69.881 134.836-22.095 55.291 18.019 115.711 76.728 115.711z" fill="#f7f6f7"/><path d="m498.288 341.157c-16.68-41.742-39.227-87.699-69.881-134.836-30.896-47.509-63.841-86.707-94.975-118.512-25.221-25.766-59.68-36.34-92.489-31.734 22.859 3.208 44.916 13.782 62.489 31.734 31.134 31.805 64.079 71.002 94.975 118.512 30.653 47.137 53.201 93.094 69.881 134.836 22.095 55.291-18.019 115.71-76.728 115.71h30c58.709 0 98.823-60.419 76.728-115.71z" fill="#edebed"/><path d="m307.195 456.867h-102.502v-148.138c0-11.987 9.717-21.704 21.704-21.704h59.094c11.987 0 21.704 9.717 21.704 21.704z" fill="#655e67"/><path d="m285.491 287.025h-30c11.987 0 21.704 9.717 21.704 21.704v148.138h30v-148.138c0-11.987-9.717-21.704-21.704-21.704z" fill="#544f56"/></g></g></g><path d="m272.74 190.217c6.091 0 11.046 4.955 11.046 11.046 0 4.142 3.357 7.5 7.5 7.5s7.5-3.358 7.5-7.5c0-14.362-11.685-26.046-26.046-26.046-4.143 0-7.5 3.358-7.5 7.5s3.357 7.5 7.5 7.5zm6.434-72.041c1.424 2.271 3.864 3.516 6.36 3.516 1.361 0 2.74-.371 3.979-1.147 3.509-2.201 4.569-6.83 2.368-10.338-7.631-12.167-23.735-15.856-35.905-8.227-3.509 2.201-4.569 6.83-2.368 10.339s6.828 4.569 10.339 2.369c5.158-3.236 11.99-1.672 15.227 3.488zm-60.703 129.859c4.143 0 7.5-3.358 7.5-7.5 0-6.091 4.955-11.046 11.046-11.046 4.143 0 7.5-3.358 7.5-7.5s-3.357-7.5-7.5-7.5c-14.361 0-26.046 11.684-26.046 26.046 0 4.143 3.358 7.5 7.5 7.5zm129.269-87.818c-4.143 0-7.5 3.358-7.5 7.5s3.357 7.5 7.5 7.5c6.091 0 11.046 4.955 11.046 11.046 0 4.142 3.357 7.5 7.5 7.5s7.5-3.358 7.5-7.5c0-14.362-11.685-26.046-26.046-26.046zm0 210c-4.143 0-7.5 3.358-7.5 7.5s3.357 7.5 7.5 7.5c6.091 0 11.046 4.955 11.046 11.046 0 4.142 3.357 7.5 7.5 7.5s7.5-3.358 7.5-7.5c0-14.362-11.685-26.046-26.046-26.046zm157.513-31.844c-19.011-47.575-42.75-93.379-70.558-136.142-9.593-14.751-19.812-29.351-30.373-43.394-2.487-3.309-7.189-3.977-10.502-1.486-3.311 2.49-3.976 7.191-1.486 10.502 10.357 13.772 20.379 28.09 29.787 42.556 27.272 41.939 50.556 86.866 69.202 133.53 9.571 23.951 6.669 50.972-7.764 72.282-14.267 21.064-36.864 33.146-61.999 33.146h-106.865v-140.638c0-16.103-13.101-29.204-29.204-29.204h-59.094c-16.104 0-29.204 13.101-29.204 29.204v38.988c0 4.142 3.357 7.5 7.5 7.5s7.5-3.358 7.5-7.5v-38.988c0-7.832 6.372-14.204 14.204-14.204h59.094c7.832 0 14.204 6.372 14.204 14.204v140.638h-87.502v-66.65c0-4.142-3.357-7.5-7.5-7.5s-7.5 3.358-7.5 7.5v66.65h-106.865c-25.135 0-47.732-12.081-61.999-33.146-14.433-21.31-17.335-48.331-7.764-72.282 18.646-46.665 41.93-91.591 69.202-133.53 27.355-42.064 58.997-81.547 94.047-117.354 19.275-19.691 44.892-30.535 72.13-30.535s52.854 10.844 72.13 30.535c14.856 15.177 29.251 31.178 42.782 47.558 2.639 3.193 7.367 3.642 10.559 1.005 3.193-2.638 3.644-7.366 1.006-10.559-13.799-16.703-28.478-33.02-43.628-48.497-22.12-22.597-51.543-35.042-82.849-35.042s-60.729 12.444-82.849 35.042c-35.742 36.513-68.008 76.776-95.902 119.669-27.808 42.762-51.547 88.567-70.558 136.142-11.42 28.578-7.953 60.824 9.274 86.26 16.851 24.88 44.671 39.734 74.418 39.734h331.233c29.747 0 57.567-14.854 74.418-39.734 17.228-25.435 20.694-57.682 9.275-86.26zm-157.513-28.156c-4.143 0-7.5 3.358-7.5 7.5s3.357 7.5 7.5 7.5c6.091 0 11.046 4.955 11.046 11.046 0 4.142 3.357 7.5 7.5 7.5s7.5-3.358 7.5-7.5c0-14.362-11.685-26.046-26.046-26.046zm-125.723-170.727c4.143 0 7.5-3.358 7.5-7.5s-3.357-7.5-7.5-7.5c-14.361 0-26.046 11.684-26.046 26.046 0 4.142 3.357 7.5 7.5 7.5s7.5-3.358 7.5-7.5c0-6.091 4.955-11.046 11.046-11.046zm121.769 121.773c0 4.142 3.357 7.5 7.5 7.5s7.5-3.358 7.5-7.5c0-14.362-11.685-26.046-26.046-26.046-4.143 0-7.5 3.358-7.5 7.5s3.357 7.5 7.5 7.5c6.091 0 11.046 4.955 11.046 11.046zm-237.815 9.272c0-6.091 4.955-11.046 11.046-11.046 4.143 0 7.5-3.358 7.5-7.5s-3.357-7.5-7.5-7.5c-14.361 0-26.046 11.684-26.046 26.046 0 4.142 3.357 7.5 7.5 7.5s7.5-3.357 7.5-7.5zm-18.954 123.955c-14.361 0-26.046 11.684-26.046 26.046 0 4.142 3.357 7.5 7.5 7.5s7.5-3.358 7.5-7.5c0-6.091 4.955-11.046 11.046-11.046 4.143 0 7.5-3.358 7.5-7.5s-3.357-7.5-7.5-7.5zm335.723-69.273c-4.143 0-7.5 3.358-7.5 7.5s3.357 7.5 7.5 7.5c6.091 0 11.046 4.955 11.046 11.046 0 4.142 3.357 7.5 7.5 7.5s7.5-3.358 7.5-7.5c0-14.362-11.685-26.046-26.046-26.046zm-279.269 78.546c4.143 0 7.5-3.358 7.5-7.5 0-6.091 4.955-11.046 11.046-11.046 4.143 0 7.5-3.358 7.5-7.5s-3.357-7.5-7.5-7.5c-14.361 0-26.046 11.684-26.046 26.046 0 4.142 3.358 7.5 7.5 7.5zm264.269-153.546c-4.143 0-7.5 3.358-7.5 7.5s3.357 7.5 7.5 7.5c6.091 0 11.046 4.955 11.046 11.046 0 4.142 3.357 7.5 7.5 7.5s7.5-3.358 7.5-7.5c0-14.362-11.685-26.046-26.046-26.046zm15 150c-4.143 0-7.5 3.358-7.5 7.5s3.357 7.5 7.5 7.5c6.091 0 11.046 4.955 11.046 11.046 0 4.142 3.357 7.5 7.5 7.5s7.5-3.358 7.5-7.5c0-14.362-11.685-26.046-26.046-26.046zm-277.5-198.954c0-6.091 4.955-11.046 11.046-11.046 4.143 0 7.5-3.358 7.5-7.5s-3.357-7.5-7.5-7.5c-14.361 0-26.046 11.684-26.046 26.046 0 4.142 3.357 7.5 7.5 7.5s7.5-3.358 7.5-7.5zm33.546 86.454c0-4.142-3.357-7.5-7.5-7.5-14.361 0-26.046 11.684-26.046 26.046 0 4.142 3.357 7.5 7.5 7.5s7.5-3.358 7.5-7.5c0-6.091 4.955-11.046 11.046-11.046 4.142 0 7.5-3.358 7.5-7.5zm-91.769 37.5c-14.361 0-26.046 11.684-26.046 26.046 0 4.142 3.357 7.5 7.5 7.5s7.5-3.358 7.5-7.5c0-6.091 4.955-11.046 11.046-11.046 4.143 0 7.5-3.358 7.5-7.5s-3.357-7.5-7.5-7.5z"/></g></svg>