<svg id="Capa_1" enable-background="new 0 0 512.057 512.057" height="512" viewBox="0 0 512.057 512.057" width="512" xmlns="http://www.w3.org/2000/svg"><g><g><g><path d="m366.479 101.225c-4.148-12.673 7.299-33.485-.434-44.027-7.798-10.631-31.153-5.974-41.86-13.706-10.584-7.643-13.489-31.314-26.197-35.409-12.25-3.946-28.388 13.439-41.96 13.439s-29.71-17.386-41.96-13.439c-12.708 4.094-15.613 27.766-26.197 35.408-10.707 7.731-34.062 3.074-41.86 13.706-7.733 10.542 3.714 31.354-.434 44.028-4.006 12.239-25.675 22.195-25.675 35.764s21.669 23.524 25.675 35.764c4.148 12.673-7.299 33.485.434 44.027 7.798 10.631 31.153 5.975 41.86 13.706 10.584 7.643 13.489 31.314 26.197 35.409 12.25 3.946 28.388-13.439 41.96-13.439s29.71 17.386 41.96 13.439c12.708-4.094 15.613-27.766 26.197-35.408 10.707-7.731 34.062-3.074 41.86-13.706 7.733-10.542-3.714-31.354.434-44.028 4.006-12.239 25.675-22.195 25.675-35.764s-21.669-23.524-25.675-35.764z" fill="#b3e59f"/><g><path d="m256.029 21.523c.662 1.273 2.111 1.965 3.501 1.609 2.959-.757 5.8-.905 8.458-.049 12.708 4.094 15.613 27.766 26.197 35.409 10.707 7.731 34.062 3.075 41.86 13.706 7.733 10.542-3.714 31.354.434 44.027 4.006 12.24 25.675 22.195 25.675 35.764s-21.669 23.524-25.675 35.764c-3.463 10.581 3.937 26.832 1.976 38.046 10.573-1.645 22.455-2.017 27.59-9.018 7.733-10.542-3.714-31.354.434-44.028 4.006-12.239 25.675-22.195 25.675-35.764s-21.669-23.524-25.675-35.764c-4.148-12.673 7.299-33.485-.434-44.027-7.798-10.631-31.153-5.974-41.86-13.706-10.584-7.643-13.489-31.314-26.197-35.409-12.25-3.946-28.388 13.44-41.959 13.44z" fill="#95d6a4"/></g><ellipse cx="278.837" cy="133.716" fill="#e17f85" rx="67.21" ry="66.859"/><path d="m278.837 66.858c-5.159 0-10.175.597-15 1.692 29.894 6.782 52.21 33.373 52.21 65.166s-22.315 58.384-52.21 65.167c4.825 1.095 9.841 1.692 15 1.692 37.119 0 67.21-29.934 67.21-66.858s-30.091-66.859-67.21-66.859z" fill="#de646e"/><ellipse cx="223.529" cy="178.481" fill="#e17f85" rx="67.21" ry="66.859"/><path d="m223.529 111.622c-5.159 0-10.175.598-15 1.692 29.894 6.783 52.21 33.373 52.21 65.166s-22.315 58.384-52.21 65.167c4.825 1.095 9.841 1.692 15 1.692 37.119 0 67.21-29.934 67.21-66.859 0-36.924-30.091-66.858-67.21-66.858z" fill="#de646e"/><path d="m385.927 146.186-153.568 93.762 158.931 212.645.721-302.984c.008-3.127-3.415-5.053-6.084-3.423z" fill="#f2d59c"/><path d="m391.957 172.504.055-22.895c.007-3.127-3.415-5.053-6.084-3.423l-153.568 93.763 15.396 20.6z" fill="#ecc372"/><path d="m304.591 118.775 49.881 46.616-101.156 61.762 39.929-105.751c1.756-4.652 7.705-6.029 11.346-2.627z" fill="#ffe07d"/><path d="m304.591 118.775c-3.641-3.402-9.589-2.025-11.346 2.627l-4.132 10.944c17.773 16.61 14.815 45.588-5.947 58.265l-20.862 12.737-8.988 23.804 101.156-61.762z" fill="#ffd064"/><path d="m362.029 504.558h-212c-16.569 0-30-13.361-30-29.843v-326.434c0-2.806 2.814-4.74 5.434-3.734l52.932 20.326c128.737 49.436 213.635 172.566 213.635 309.841-.001 16.482-13.433 29.844-30.001 29.844z" fill="#f2d59c"/><path d="m178.394 164.873-52.932-20.326c-2.62-1.006-5.434.928-5.434 3.734v5.7l28.365 10.893c128.737 49.437 213.635 172.566 213.635 309.841 0 16.481-13.431 29.843-30 29.843h30c16.569 0 30-13.361 30-29.843.001-137.276-84.897-260.405-213.634-309.842z" fill="#ecc372"/></g></g><path d="m399.509 149.634c.006-1.832-.447-3.592-1.241-5.175.922-2.476 1.391-4.95 1.391-7.469 0-10.805-8.386-18.792-15.785-25.839-4.468-4.256-9.088-8.656-10.267-12.254-1.282-3.916-.143-10.423.958-16.717 1.725-9.858 3.68-21.032-2.469-29.417-6.197-8.445-17.494-9.955-27.462-11.287-6.289-.84-12.792-1.709-16.057-4.069-3.178-2.292-6.01-8.127-8.749-13.77-4.422-9.11-9.434-19.437-19.543-22.697-9.718-3.126-19.603 2.169-28.325 6.84-5.728 3.068-11.651 6.24-15.932 6.24-4.28 0-10.204-3.172-15.932-6.24-8.722-4.671-18.608-9.967-28.331-6.838-10.103 3.259-15.115 13.585-19.537 22.695-2.739 5.643-5.571 11.478-8.753 13.773-3.261 2.356-9.764 3.226-16.053 4.066-9.968 1.332-21.265 2.842-27.463 11.288-6.148 8.384-4.193 19.558-2.468 29.416 1.101 6.293 2.24 12.801.958 16.715-1.179 3.6-5.799 8-10.268 12.256-7.399 7.047-15.785 15.034-15.785 25.839 0 2.216.383 4.447 1.12 6.673-.632 1.438-.99 3.002-.99 4.619v156.823c0 4.142 3.358 7.5 7.5 7.5s7.5-3.358 7.5-7.5v-151.73l48.177 18.5c61.649 24.232 113.745 64.322 151.608 119.237 37.431 54.287 57.215 117.776 57.215 183.603 0 12.32-10.093 22.343-22.5 22.343h-212c-12.407 0-22.5-10.023-22.5-22.343v-134.61c0-4.142-3.358-7.5-7.5-7.5s-7.5 3.358-7.5 7.5v134.61c0 20.591 16.822 37.343 37.5 37.343h212c20.678 0 37.5-16.752 37.5-37.343.003-7.458-.017-325.081-.017-325.081zm-143.233 48.442c-23.09-16.353-48.293-29.874-75.194-40.205l-11.689-4.489c9.705-20.753 30.65-34.264 54.136-34.264 21.342 0 40.778 11.155 51.494 29.315zm12.521 9.305 31.202-82.626 42.142 39.38-72.236 44.101c-.367-.289-.74-.568-1.108-.855zm115.18 165.797c-10.067-31.972-24.924-62.458-44.315-90.581-16.529-23.973-35.861-45.499-57.53-64.252l102.361-62.493zm-28.548-217.156-4.198-3.923c1.531-5.965 2.318-12.125 2.318-18.38 0-30.419-18.294-57.471-46.606-68.918-3.838-1.554-8.211.301-9.764 4.142-1.553 3.84.302 8.211 4.142 9.764 22.615 9.144 37.228 30.737 37.228 55.012 0 2.089-.118 4.163-.333 6.218l-28.5-26.631c-3.544-3.321-8.486-4.645-13.22-3.541-4.724 1.102-8.562 4.463-10.264 8.985l-4.8 12.711c-13.293-16.266-32.941-26.262-54.391-27.251 9.098-15.664 25.208-26.757 43.494-29.282 4.104-.567 6.97-4.353 6.404-8.456-.567-4.103-4.352-6.967-8.456-6.404-26.123 3.608-48.707 21.195-58.732 45.325-23.948 4.436-44.319 20.256-54.379 42.606-.498-.698-27.974-9.98-27.974-11.01 0-4.376 5.658-9.766 11.13-14.977 5.812-5.536 11.823-11.261 14.178-18.45 2.447-7.477.98-15.86-.438-23.968-1.208-6.906-2.578-14.733-.212-17.958 2.419-3.297 10.354-4.357 17.355-5.293 8.127-1.086 16.531-2.209 22.846-6.771 6.244-4.505 9.916-12.07 13.467-19.385 3.111-6.41 6.638-13.676 10.642-14.968 3.656-1.174 10.56 2.521 16.65 5.784 7.359 3.941 14.969 8.017 23.014 8.017 8.044 0 15.654-4.076 23.014-8.017 6.09-3.262 12.994-6.958 16.644-5.786 4.01 1.293 7.537 8.56 10.648 14.97 3.551 7.315 7.223 14.88 13.463 19.382 6.319 4.565 14.723 5.688 22.85 6.774 7.001.936 14.936 1.996 17.354 5.292 2.367 3.227.997 11.054-.211 17.959-1.418 8.108-2.886 16.492-.438 23.97 2.354 7.187 8.365 12.912 14.177 18.448 5.472 5.211 11.13 10.601 11.13 14.977-.002.545-27.291 17.909-29.232 19.033zm-135.347 206.13c-2.929-2.929-7.678-2.929-10.606 0-12.477 12.477-12.477 32.778 0 45.255 2.929 2.929 7.677 2.929 10.606 0s2.929-7.678 0-10.606c-6.628-6.628-6.628-17.414 0-24.042 2.929-2.93 2.929-7.679 0-10.607zm-55.607 90.255c2.929 2.929 7.677 2.929 10.606 0s2.929-7.678 0-10.606c-6.628-6.628-6.628-17.414 0-24.042 2.929-2.929 2.929-7.678 0-10.606-2.929-2.929-7.678-2.929-10.606 0-12.477 12.475-12.477 32.777 0 45.254zm10.607-135.255c-2.929-2.929-7.678-2.929-10.606 0-12.477 12.477-12.477 32.778 0 45.255 2.929 2.929 7.677 2.929 10.606 0s2.929-7.678 0-10.606c-6.628-6.628-6.628-17.414 0-24.042 2.929-2.93 2.929-7.679 0-10.607z"/></g></svg>