<svg id="Capa_1" enable-background="new 0 0 512 512" height="512" viewBox="0 0 512 512" width="512" xmlns="http://www.w3.org/2000/svg"><g><g><circle cx="255.744" cy="256" fill="#ecf4ff" r="248.5"/><path d="m255.744 7.5c-5.038 0-10.036.168-15 .463 130.256 7.758 233.5 115.832 233.5 248.037s-103.244 240.279-233.5 248.037c4.964.295 9.962.463 15 .463 137.243 0 248.5-111.257 248.5-248.5s-111.257-248.5-248.5-248.5z" fill="#ddeafb"/><g><g><path d="m463.489 258.037c0 21.086-23.132 38.239-29.357 57.259-6.445 19.695 1.847 47.16-10.17 63.543-12.118 16.521-40.89 16.864-57.529 28.878-16.448 11.877-25.784 39.137-45.533 45.499-19.038 6.133-42.458-10.335-63.55-10.335-21.091 0-44.512 16.468-63.549 10.335-19.749-6.362-29.085-33.622-45.534-45.499-16.639-12.015-45.411-12.357-57.529-28.878-12.017-16.383-3.724-43.848-10.17-63.543-6.225-19.021-29.357-36.173-29.357-57.259s23.132-38.239 29.357-57.259c6.445-19.695-1.847-47.16 10.17-63.543 12.118-16.521 40.89-16.864 57.529-28.878 16.448-11.877 25.784-39.137 45.533-45.499 19.038-6.133 42.458 10.335 63.549 10.335s44.512-16.468 63.549-10.335c19.749 6.362 29.085 33.622 45.534 45.499 16.639 12.015 45.411 12.357 57.529 28.878 12.017 16.383 3.724 43.848 10.17 63.543 6.225 19.02 29.358 36.173 29.358 57.259z" fill="#b3e59f"/></g><g><path d="m434.132 200.778c-6.445-19.695 1.848-47.16-10.17-63.543-12.118-16.521-40.89-16.863-57.529-28.878-16.449-11.877-25.784-39.137-45.534-45.499-8.143-2.624-17.09-1.107-26.312 1.482 17.291 8.33 26.456 32.904 41.845 44.017 16.639 12.015 45.411 12.357 57.529 28.878 12.017 16.383 3.724 43.848 10.17 63.543 6.225 19.021 29.357 36.173 29.357 57.259s-23.132 38.239-29.357 57.259c-6.445 19.695 1.847 47.16-10.17 63.543-12.118 16.521-40.89 16.864-57.529 28.878-15.39 11.112-24.554 35.687-41.845 44.017 9.222 2.589 18.168 4.105 26.312 1.482 19.749-6.362 29.085-33.622 45.533-45.499 16.639-12.015 45.411-12.357 57.529-28.878 12.017-16.383 3.724-43.848 10.17-63.543 6.225-19.021 29.357-36.173 29.357-57.259s-23.132-38.239-29.356-57.259z" fill="#95d6a4"/></g><g><g><g><circle cx="183.35" cy="252.146" fill="#d9f0a0" r="68.5"/><path d="m183.35 183.646c-5.155 0-10.17.588-15 1.667 30.613 6.842 53.5 34.156 53.5 66.833s-22.887 59.99-53.5 66.833c4.83 1.08 9.845 1.667 15 1.667 37.832 0 68.5-30.668 68.5-68.5s-30.669-68.5-68.5-68.5z" fill="#b3e59f"/></g></g><g><g><circle cx="338.35" cy="310.037" fill="#d9f0a0" r="68.5"/><path d="m338.35 241.537c-5.155 0-10.17.588-15 1.667 30.613 6.842 53.5 34.156 53.5 66.833s-22.887 59.99-53.5 66.833c4.83 1.08 9.845 1.667 15 1.667 37.832 0 68.5-30.668 68.5-68.5s-30.669-68.5-68.5-68.5z" fill="#b3e59f"/></g></g><g><g><circle cx="288.35" cy="187.928" fill="#d9f0a0" r="68.5"/><path d="m288.35 119.428c-5.155 0-10.17.588-15 1.667 30.613 6.842 53.5 34.156 53.5 66.833s-22.887 59.99-53.5 66.833c4.83 1.08 9.845 1.667 15 1.667 37.832 0 68.5-30.668 68.5-68.5s-30.669-68.5-68.5-68.5z" fill="#b3e59f"/></g></g></g><circle cx="257.35" cy="68.5" fill="#e17f85" r="26"/><path d="m266.636 44.214c1.104 2.884 1.714 6.013 1.714 9.286 0 14.359-11.641 26-26 26-3.273 0-6.401-.61-9.286-1.714 3.739 9.772 13.199 16.714 24.286 16.714 14.359 0 26-11.641 26-26 0-11.087-6.942-20.547-16.714-24.286z" fill="#de646e"/><circle cx="62.35" cy="258.037" fill="#e17f85" r="26"/><path d="m71.636 233.751c1.104 2.884 1.714 6.013 1.714 9.286 0 14.359-11.641 26-26 26-3.273 0-6.401-.61-9.286-1.714 3.739 9.772 13.199 16.714 24.286 16.714 14.359 0 26-11.641 26-26 0-11.087-6.942-20.547-16.714-24.286z" fill="#de646e"/><circle cx="449.138" cy="258.037" fill="#e17f85" r="26"/><path d="m458.424 233.751c1.104 2.884 1.714 6.013 1.714 9.286 0 14.359-11.641 26-26 26-3.273 0-6.401-.61-9.286-1.714 3.739 9.772 13.199 16.714 24.286 16.714 14.359 0 26-11.641 26-26 0-11.087-6.942-20.547-16.714-24.286z" fill="#de646e"/><circle cx="257.35" cy="443.5" fill="#e17f85" r="26"/><path d="m266.636 419.214c1.104 2.884 1.714 6.013 1.714 9.286 0 14.359-11.641 26-26 26-3.273 0-6.401-.61-9.286-1.714 3.739 9.772 13.199 16.714 24.286 16.714 14.359 0 26-11.641 26-26 0-11.087-6.942-20.547-16.714-24.286z" fill="#de646e"/></g></g><path d="m338.35 355.037c4.142 0 7.5-3.358 7.5-7.5s-3.358-7.5-7.5-7.5-7.5 3.358-7.5 7.5 3.358 7.5 7.5 7.5zm-50-197.109c4.142 0 7.5-3.358 7.5-7.5s-3.358-7.5-7.5-7.5-7.5 3.358-7.5 7.5 3.358 7.5 7.5 7.5zm0 75c4.142 0 7.5-3.358 7.5-7.5s-3.358-7.5-7.5-7.5-7.5 3.358-7.5 7.5 3.358 7.5 7.5 7.5zm-37.5-37.5c4.142 0 7.5-3.358 7.5-7.5s-3.358-7.5-7.5-7.5-7.5 3.358-7.5 7.5 3.358 7.5 7.5 7.5zm75 0c4.142 0 7.5-3.358 7.5-7.5s-3.358-7.5-7.5-7.5-7.5 3.358-7.5 7.5 3.358 7.5 7.5 7.5zm110.914-120.448c-48.352-48.351-112.64-74.98-181.02-74.98-64.907 0-126.812 24.331-174.311 68.511-47.249 43.948-75.99 103.459-80.925 167.571-.318 4.131 2.771 7.736 6.901 8.054 4.133.323 7.735-2.772 8.054-6.901 4.646-60.346 31.703-116.365 76.186-157.74 44.714-41.591 102.991-64.495 164.095-64.495 64.374 0 124.895 25.068 170.413 70.587s70.587 106.039 70.587 170.413-25.068 124.895-70.587 170.413-106.039 70.587-170.413 70.587c-61.657 0-120.322-23.268-165.187-65.516-44.672-42.066-71.42-98.85-75.317-159.887-.264-4.134-3.833-7.267-7.962-7.007-4.134.264-7.271 3.828-7.007 7.962 4.14 64.848 32.552 125.168 80.002 169.852 47.66 44.88 109.976 69.596 175.471 69.596 68.38 0 132.668-26.629 181.02-74.98s74.98-112.64 74.98-181.02-26.629-132.668-74.98-181.02zm-375.824 221.686c5.292 7.312 10.292 14.22 12.501 20.962 2.349 7.18 2.443 15.981 2.545 25.301.153 14.211.312 28.906 8.707 40.345 8.459 11.53 22.468 16.118 36.015 20.556 8.813 2.887 17.137 5.612 23.171 9.968 5.905 4.266 11.043 11.234 16.482 18.613 8.515 11.551 17.318 23.495 31.139 27.945 11.816 3.805 23.724.784 35.445-2.816 5.321 11.476 16.945 19.46 30.405 19.46s25.084-7.984 30.405-19.461c7.922 2.437 15.957 4.552 23.886 4.552 3.887 0 7.748-.508 11.558-1.735 13.821-4.45 22.625-16.395 31.14-27.945 5.439-7.379 10.577-14.348 16.48-18.611 6.037-4.357 14.36-7.083 23.173-9.97 13.548-4.438 27.557-9.025 36.016-20.555 8.394-11.439 8.553-26.134 8.707-40.344.101-9.319.196-18.122 2.544-25.3 2.204-6.731 7.192-13.625 12.474-20.923 1.522-2.103 3.066-4.27 4.584-6.459 14.023-4.001 24.323-16.922 24.323-32.211s-10.3-28.21-24.323-32.211c-1.518-2.19-3.062-4.357-4.584-6.459-5.281-7.298-10.27-14.191-12.474-20.921-2.348-7.18-2.443-15.982-2.544-25.302-.154-14.21-.313-28.904-8.707-40.343-8.459-11.53-22.468-16.118-36.016-20.556-8.812-2.887-17.136-5.612-23.171-9.968-5.905-4.266-11.043-11.234-16.482-18.613-8.515-11.551-17.318-23.495-31.14-27.945-11.112-3.578-22.661-1.038-34.01 2.381-4.387-13.395-16.998-23.101-31.839-23.101s-27.452 9.705-31.839 23.099c-11.349-3.42-22.897-5.96-34.01-2.38-13.821 4.45-22.625 16.395-31.14 27.945-5.439 7.379-10.577 14.348-16.481 18.612-6.035 4.356-14.359 7.082-23.172 9.969-13.547 4.438-27.556 9.025-36.015 20.555-8.395 11.439-8.554 26.135-8.707 40.346-.102 9.319-.196 18.121-2.543 25.296-2.211 6.747-7.211 13.654-12.503 20.967-1.315 1.816-2.648 3.683-3.968 5.566-15.924 2.581-28.123 16.421-28.123 33.062s12.199 30.481 28.123 33.062c1.32 1.884 2.654 3.751 3.968 5.567zm196.41 165.334c-10.201 0-18.5-8.299-18.5-18.5s8.299-18.5 18.5-18.5 18.5 8.299 18.5 18.5-8.299 18.5-18.5 18.5zm191.789-222.463c10.201 0 18.5 8.299 18.5 18.5s-8.299 18.5-18.5 18.5-18.5-8.299-18.5-18.5 8.298-18.5 18.5-18.5zm-191.789-189.537c10.201 0 18.5 8.299 18.5 18.5s-8.299 18.5-18.5 18.5-18.5-8.299-18.5-18.5 8.298-18.5 18.5-18.5zm-169.651 153.108c3.064-9.372 3.177-19.758 3.286-29.801.134-12.385.26-24.082 5.802-31.634 5.61-7.647 16.772-11.303 28.59-15.174 9.516-3.116 19.354-6.339 27.283-12.062 7.808-5.638 13.892-13.892 19.775-21.873 7.43-10.08 14.447-19.601 23.663-22.568 7.861-2.53 17.657.122 28.112 3.396 2.376 16.16 16.33 28.608 33.14 28.608s30.764-12.447 33.139-28.608c10.456-3.274 20.254-5.926 28.112-3.396 9.216 2.968 16.233 12.488 23.663 22.568 5.884 7.981 11.968 16.235 19.776 21.875 7.929 5.722 17.768 8.944 27.282 12.061 11.818 3.87 22.98 7.526 28.591 15.175 5.541 7.55 5.667 19.247 5.802 31.632.108 10.043.221 20.429 3.287 29.805 2.649 8.087 7.73 15.538 12.904 22.73-13.995 4.02-24.268 16.927-24.268 32.196s10.273 28.176 24.268 32.196c-5.175 7.192-10.255 14.643-12.904 22.732-3.066 9.374-3.179 19.76-3.287 29.803-.135 12.385-.261 24.082-5.802 31.633-5.61 7.647-16.772 11.304-28.591 15.174-9.515 3.116-19.354 6.339-27.283 12.062-7.808 5.638-13.892 13.892-19.775 21.873-7.43 10.08-14.447 19.601-23.664 22.568-7.772 2.502-17.442-.067-27.768-3.29-.382-18.143-15.249-32.789-33.482-32.789s-33.101 14.646-33.482 32.789c-10.326 3.223-19.997 5.793-27.769 3.29-9.216-2.968-16.233-12.488-23.663-22.568-5.884-7.981-11.968-16.235-19.776-21.874-7.929-5.723-17.767-8.945-27.282-12.062-11.817-3.871-22.979-7.526-28.59-15.175-5.542-7.551-5.668-19.248-5.802-31.633-.109-10.043-.222-20.429-3.288-29.806-2.755-8.407-8.135-16.129-13.52-23.587 12.651-4.792 21.672-17.028 21.672-31.337s-9.021-26.545-21.672-31.337c5.384-7.458 10.764-15.18 13.521-23.592zm-43.849 54.929c0-10.201 8.299-18.5 18.5-18.5s18.5 8.299 18.5 18.5-8.299 18.5-18.5 18.5-18.5-8.299-18.5-18.5zm244.5-62.609c4.142 0 7.5-3.358 7.5-7.5s-3.358-7.5-7.5-7.5-7.5 3.358-7.5 7.5 3.358 7.5 7.5 7.5zm12.5 122.109c4.142 0 7.5-3.358 7.5-7.5s-3.358-7.5-7.5-7.5-7.5 3.358-7.5 7.5 3.358 7.5 7.5 7.5zm-117.5 10.61c39.913 0 72.715-30.934 75.747-70.083 9.01 3.772 18.891 5.863 29.253 5.863 16.732 0 32.208-5.447 44.777-14.644 1.709-.147 3.448-.247 5.223-.247 33.636 0 61 27.364 61 61s-27.364 61-61 61-61-27.364-61-61c0-7.102 1.207-14.056 3.589-20.669 1.403-3.897-.619-8.194-4.516-9.598-3.897-1.401-8.194.618-9.598 4.516-2.97 8.248-4.476 16.912-4.476 25.751 0 41.906 34.094 76 76 76s76-34.094 76-76c0-38.57-28.888-70.499-66.16-75.342 10.11-12.907 16.16-29.139 16.16-46.768 0-41.906-34.094-76-76-76-39.907 0-72.706 30.925-75.746 70.066-9.21-3.844-19.132-5.846-29.254-5.846-41.906 0-76 34.094-76 76s34.094 76.001 76.001 76.001zm105-201.219c33.636 0 61 27.364 61 61s-27.364 61-61 61-61-27.364-61-61 27.364-61 61-61zm-105 64.219c10.505 0 20.736 2.685 29.806 7.778 3.047 20.925 14.654 39.099 31.14 50.872 1.284 34.373-26.422 63.35-60.946 63.35-33.636 0-61-27.364-61-61s27.364-61 61-61zm200 118.89c0-4.142-3.358-7.5-7.5-7.5s-7.5 3.358-7.5 7.5 3.358 7.5 7.5 7.5 7.5-3.358 7.5-7.5zm-45-30c4.142 0 7.5-3.358 7.5-7.5s-3.358-7.5-7.5-7.5-7.5 3.358-7.5 7.5 3.358 7.5 7.5 7.5zm0 37.5c4.142 0 7.5-3.358 7.5-7.5s-3.358-7.5-7.5-7.5-7.5 3.358-7.5 7.5 3.358 7.5 7.5 7.5zm-117.5-57.891c4.142 0 7.5-3.358 7.5-7.5s-3.358-7.5-7.5-7.5-7.5 3.358-7.5 7.5 3.358 7.5 7.5 7.5zm-37.5 0c4.142 0 7.5-3.358 7.5-7.5s-3.358-7.5-7.5-7.5-7.5 3.358-7.5 7.5 3.358 7.5 7.5 7.5zm0-37.5c4.142 0 7.5-3.358 7.5-7.5s-3.358-7.5-7.5-7.5-7.5 3.358-7.5 7.5 3.358 7.5 7.5 7.5zm-37.5 37.5c4.142 0 7.5-3.358 7.5-7.5s-3.358-7.5-7.5-7.5-7.5 3.358-7.5 7.5 3.358 7.5 7.5 7.5zm37.5 37.5c4.142 0 7.5-3.358 7.5-7.5s-3.358-7.5-7.5-7.5-7.5 3.358-7.5 7.5 3.358 7.5 7.5 7.5z"/></g></svg>