<svg id="Capa_1" enable-background="new 0 0 512.025 512.025" height="512" viewBox="0 0 512.025 512.025" width="512" xmlns="http://www.w3.org/2000/svg"><g><g><g><path d="m127.438 42.32 32.635 132.631c1.815 7.377-4.852 14.045-12.229 12.229l-132.632-32.634c-7.645-1.881-10.299-11.394-4.732-16.961l99.997-99.997c5.567-5.567 15.08-2.913 16.961 4.732z" fill="#ffe07d"/><path d="m160.073 174.951-32.635-132.631c-1.881-7.645-11.394-10.299-16.961-4.732l-11.399 11.399 30.994 125.965c.68 2.763.169 5.425-1.122 7.581l18.893 4.648c7.377 1.815 14.045-4.852 12.23-12.23z" fill="#ffd064"/></g><g><path d="m384.587 55.871-32.635 132.631c-1.815 7.377 4.852 14.045 12.229 12.229l132.631-32.635c7.645-1.881 10.299-11.394 4.732-16.961l-99.997-99.997c-5.565-5.566-15.078-2.912-16.96 4.733z" fill="#ffe07d"/><path d="m501.545 151.136-99.997-99.997c-5.567-5.567-15.08-2.913-16.961 4.732l-1.64 6.667 88.598 88.598c5.567 5.567 2.913 15.081-4.732 16.961l-113.739 27.986c2.157 3.6 6.493 5.784 11.107 4.649l132.631-32.635c7.647-1.88 10.301-11.394 4.733-16.961z" fill="#ffd064"/></g><path d="m427.773 272.481c26.13 2.033 48.9-17.888 50.153-44.239 1.159-24.378-17.153-45.779-41.431-48.445-2.356-.259-4.688-.336-6.981-.244-5.017.201-9.378-3.198-10.387-8.114-2.682-13.073-13.718-23.45-27.825-24.548-1.248-.097-2.484-.117-3.703-.065-3.087.131-6.11-1.09-8.115-3.44-7.75-9.08-18.967-15.202-31.815-16.202-1.819-.142-3.621-.175-5.401-.107-5.077.194-9.462-3.265-10.502-8.234-2.726-13.015-13.738-23.33-27.8-24.424-11.245-.875-21.547 4.391-27.612 12.975-3.022 4.278-8.914 5.419-13.421 2.748-5.939-3.519-12.754-5.768-20.104-6.339-14.368-1.118-27.716 4.405-37.032 13.983-3.168 3.257-8.218 3.921-12.136 1.618-3.91-2.298-8.39-3.766-13.218-4.142-9.708-.755-18.715 3.065-24.899 9.646-2.719 2.893-6.806 4.166-10.591 2.962-3.341-1.062-6.854-1.763-10.501-2.046-23.922-1.861-44.944 14.678-49.344 37.552-.713 3.705-3.311 6.801-6.929 7.879-23.776 7.086-41.901 28.174-43.942 54.37-2.648 33.991 22.781 63.691 56.797 66.337z" fill="#ccf49f"/><g><path d="m436.495 179.797c-2.357-.258-4.688-.335-6.981-.244-5.017.201-9.378-3.198-10.387-8.113-2.682-13.073-13.718-23.451-27.825-24.548-1.248-.097-2.484-.117-3.703-.065-3.087.131-6.11-1.09-8.115-3.439-7.75-9.08-18.967-15.203-31.815-16.202-1.819-.142-3.621-.175-5.401-.107-5.077.194-9.462-3.265-10.502-8.234-2.726-13.015-13.738-23.33-27.8-24.424-11.245-.875-21.547 4.391-27.612 12.975-.568.804-1.237 1.496-1.979 2.074 13.864 1.262 24.692 11.488 27.39 24.375 1.041 4.969 5.426 8.428 10.502 8.234 1.78-.067 3.582-.034 5.401.107 12.848 1 24.064 7.122 31.815 16.202 2.005 2.349 5.028 3.571 8.115 3.439 1.22-.052 2.455-.032 3.703.065 14.107 1.097 25.144 11.475 27.825 24.548 1.008 4.915 5.369 8.314 10.387 8.113 2.294-.092 4.625-.015 6.981.244 24.277 2.666 42.589 24.067 41.43 48.445-.538 11.319-5.054 21.445-12.094 29.161 22.593-2.137 40.972-20.563 42.094-44.161 1.161-24.377-17.152-45.779-41.429-48.445z" fill="#b3e59f"/></g><g><path d="m391.949 479.982c-20.034 15.886-44.85 24.531-70.418 24.531h-131.037c-25.568 0-50.384-8.645-70.418-24.531-52.157-41.358-82.564-104.276-82.564-170.84v-40.212h437v40.212c.001 66.564-30.406 129.482-82.563 170.84z" fill="#ecf4ff"/><path d="m444.513 268.93v40.212c0 66.564-30.407 129.482-82.564 170.84-20.034 15.886-44.85 24.531-70.418 24.531h30c25.568 0 50.384-8.646 70.418-24.531 52.157-41.357 82.564-104.275 82.564-170.84v-40.212z" fill="#ddeafb"/><path d="m37.513 223.93h437c16.569 0 30 13.431 30 30 0 16.569-13.431 30-30 30h-437c-16.569 0-30-13.431-30-30 0-16.569 13.431-30 30-30z" fill="#cbe2ff"/><path d="m474.513 223.93h-30c16.569 0 30 13.432 30 30 0 16.568-13.431 30-30 30h30c16.569 0 30-13.432 30-30 0-16.569-13.432-30-30-30z" fill="#bed8fb"/></g><g><path d="m244.883 139.713-70.708-116.861c-4.076-6.736.774-15.339 8.647-15.339h141.417c7.873 0 12.723 8.604 8.647 15.339l-70.708 116.861c-2.019-.62-4.916-1.272-8.437-1.298-3.725-.027-6.778.659-8.858 1.298z" fill="#ffe07d"/><path d="m324.239 7.513h-30c7.873 0 12.723 8.604 8.647 15.339l-64.356 106.362 6.353 10.499c2.08-.639 5.133-1.325 8.858-1.298 3.521.025 6.418.678 8.437 1.298l70.708-116.861c4.076-6.736-.774-15.339-8.647-15.339z" fill="#ffd064"/></g></g><path d="m465.747 154.17c2.929-2.929 2.929-7.678 0-10.607s-7.678-2.929-10.607 0-2.929 7.678 0 10.607 7.678 2.929 10.607 0zm-31.416-21.365c2.929-2.929 2.929-7.678 0-10.607s-7.678-2.929-10.607 0-2.929 7.678 0 10.607 7.678 2.929 10.607 0zm-220.841-105.334c-4.142 0-7.5 3.358-7.5 7.5s3.358 7.5 7.5 7.5 7.5-3.358 7.5-7.5-3.357-7.5-7.5-7.5zm-101.357 56.369c2.929-2.929 2.929-7.678 0-10.606-2.929-2.929-7.678-2.929-10.607 0s-2.929 7.678 0 10.606c2.929 2.929 7.678 2.929 10.607 0zm298.367 13.551c2.929-2.929 2.929-7.678 0-10.606-2.929-2.929-7.678-2.929-10.607 0s-2.929 7.677 0 10.606 7.678 2.929 10.607 0zm-152.068-34.219c4.142 0 7.5-3.358 7.5-7.5s-3.358-7.5-7.5-7.5-7.5 3.358-7.5 7.5 3.358 7.5 7.5 7.5zm34.273-21.784c4.142 0 7.5-3.358 7.5-7.5s-3.358-7.5-7.5-7.5-7.5 3.358-7.5 7.5 3.358 7.5 7.5 7.5zm-36.024 50.756c0-4.142-3.358-7.5-7.5-7.5s-7.5 3.358-7.5 7.5 3.358 7.5 7.5 7.5c4.143 0 7.5-3.358 7.5-7.5zm52.832 52.869c-4.142 0-7.5 3.358-7.5 7.5s3.358 7.5 7.5 7.5 7.5-3.358 7.5-7.5-3.358-7.5-7.5-7.5zm15 45c-4.142 0-7.5 3.358-7.5 7.5s3.358 7.5 7.5 7.5 7.5-3.358 7.5-7.5-3.358-7.5-7.5-7.5zm60-15c-4.142 0-7.5 3.358-7.5 7.5s3.358 7.5 7.5 7.5 7.5-3.358 7.5-7.5-3.358-7.5-7.5-7.5zm100.315 42.871c-2.13-13.694-9.508-25.836-20.043-34.184l33.817-8.324c6.255-1.537 11.023-6.157 12.755-12.358 1.732-6.205.046-12.63-4.511-17.188l-99.99-99.99c-4.556-4.554-10.978-6.241-17.179-4.515-6.204 1.729-10.831 6.494-12.378 12.757l-16.74 68.036c-5.903-1.883-12.306-2.812-18.566-2.529-1.448.065-2.598-.886-2.89-2.28-3.595-17.168-18.696-29.841-36.189-30.434l36.385-60.138c3.337-5.513 3.441-12.153.278-17.765-3.162-5.609-8.895-8.959-15.334-8.959h-141.421c-6.437 0-12.168 3.348-15.332 8.954-3.165 5.608-3.067 12.249.266 17.769l45.905 75.861c-4.88 2.62-9.372 5.979-13.253 9.966-.741.764-2.01.922-2.941.375-5.026-2.956-10.556-4.689-16.446-5.152-10.098-.787-19.92 2.406-27.578 8.822l-18.718-76.084c-1.545-6.255-6.172-11.021-12.376-12.749-6.2-1.728-12.624-.039-17.179 4.515l-99.99 99.99c-4.557 4.558-6.243 10.982-4.512 17.188 1.731 6.202 6.5 10.822 12.753 12.358l44.126 10.861c-15.494 10.228-26.366 26.371-29.824 45.048-15.944 4.317-27.709 18.904-27.709 36.195 0 18.11 12.904 33.261 30 36.745v18.468c0 33.784 7.769 67.718 22.467 98.134 14.699 30.418 36.461 57.592 62.935 78.584 21.282 16.864 47.946 26.152 75.079 26.152h131.039c27.133 0 53.796-9.288 75.081-26.154 23.85-18.915 43.328-42.057 57.895-68.784 1.982-3.637.642-8.192-2.996-10.174-3.636-1.984-8.192-.641-10.174 2.996-13.599 24.949-31.782 46.553-54.043 64.208-18.643 14.772-41.998 22.908-65.763 22.908h-131.041c-23.765 0-47.12-8.136-65.761-22.907-24.711-19.595-45.025-44.961-58.747-73.356-13.721-28.392-20.973-60.069-20.973-91.606v-17.714h39.5c4.143 0 7.5-3.357 7.5-7.5s-3.357-7.5-7.5-7.5h-47c-12.406 0-22.5-10.094-22.5-22.5s10.094-22.5 22.5-22.5c2.351 0 437.44-.106 439.559.149.049.006.096.014.145.019 11.135 1.341 19.796 10.841 19.796 22.332 0 12.406-10.094 22.5-22.5 22.5h-355c-4.143 0-7.5 3.357-7.5 7.5s3.357 7.5 7.5 7.5h347.5v17.713c0 23.876-4.02 47.396-11.946 69.908-1.376 3.907.676 8.189 4.583 9.565 3.812 1.342 8.173-.629 9.565-4.583 8.492-24.117 12.798-49.313 12.798-74.891v-18.468c17.096-3.484 30-18.635 30-36.745.001-17.099-11.508-31.552-27.184-36.045zm-92.964-160.212c.63-2.138 2.744-2.745 4.385-1.226l99.99 99.989c1.533 1.655.941 3.753-1.22 4.375l-51.343 12.638c-2.088-.492-4.218-.874-6.391-1.113-2.703-.286-5.419-.379-8.072-.276-1.333.052-2.476-.82-2.743-2.122-3.412-16.648-17.634-29.199-34.572-30.521-1.79-.14-5.435.591-6.714-.905-3.206-3.753-6.853-6.989-10.827-9.687zm-211.271-38.697c-1.073-1.948-.02-3.879 2.229-3.963h141.421c2.277.097 3.295 2 2.223 3.957l-64.007 105.792c-2.53-.197-5.068-.279-7.603-.24-3.32.046-6.643.301-9.943.746zm-163.59 128.285c-2.15-.617-2.749-2.72-1.217-4.373l99.99-99.99c1.677-1.522 3.757-.92 4.383 1.218l18.36 74.629c-28.754-4.154-55.285 14.885-60.769 43.201-.017.089-.055.164-.079.249zm26.378 69.17c4.791-18.053 18.594-32.518 36.951-37.991 6.195-1.847 10.889-7.115 12.146-13.648 4.397-22.866 28.012-36.789 50.213-29.767 6.48 2.05 13.498.146 18.315-4.972 4.888-5.195 11.758-7.858 18.849-7.312 3.592.283 6.958 1.335 10.012 3.131 6.955 4.083 15.72 2.902 21.3-2.855 2.987-3.067 6.48-5.616 10.277-7.557l8.088 13.366c-3.72 1.236-7.353 2.729-10.857 4.472-3.709 1.844-5.221 6.345-3.377 10.055 1.865 3.753 6.411 5.188 10.055 3.377 9.199-4.573 19.474-7.064 29.711-7.206 13.714-.177 24.787 3.815 31.612 7.207 3.711 1.843 8.212.33 10.055-3.379s.33-8.211-3.379-10.055c-4.818-2.394-9.868-4.311-15.048-5.741l14.536-24.025c3.326-1.343 6.935-1.906 10.546-1.627 10.278.796 18.93 8.395 21.038 18.479 1.789 8.553 9.437 14.518 18.146 14.198 1.505-.061 3.03-.031 4.522.083 5.236.408 10.234 1.833 14.776 4.159.103.062.214.115.32.173 4.362 2.286 8.296 5.404 11.597 9.266 4.408 5.159 10.424 5.604 16.936 6.111 10.32.805 18.979 8.444 21.057 18.583 1.751 8.513 9.346 14.434 18.03 14.094 1.928-.074 3.91-.007 5.866.201 16.283 1.791 29.572 13.775 33.564 29.182h-425.857zm44.921-97.176c2.929-2.929 2.929-7.678 0-10.606-2.929-2.929-7.678-2.929-10.607 0s-2.929 7.678 0 10.606 7.678 2.928 10.607 0zm26.211 70.759c-4.142 0-7.5 3.358-7.5 7.5s3.358 7.5 7.5 7.5 7.5-3.358 7.5-7.5-3.358-7.5-7.5-7.5zm-68.235-60c-2.929 2.929-2.929 7.678 0 10.606s7.678 2.929 10.607 0 2.929-7.678 0-10.606c-2.929-2.93-7.678-2.93-10.607 0zm128.235 30c-4.142 0-7.5 3.358-7.5 7.5s3.358 7.5 7.5 7.5 7.5-3.358 7.5-7.5-3.358-7.5-7.5-7.5zm60 30c-4.142 0-7.5 3.358-7.5 7.5s3.358 7.5 7.5 7.5 7.5-3.358 7.5-7.5-3.358-7.5-7.5-7.5z"/></g></svg>