<svg id="Capa_1" enable-background="new 0 0 511.992 511.992" height="512" viewBox="0 0 511.992 511.992" width="512" xmlns="http://www.w3.org/2000/svg"><g><g><g><g><path d="m119.388 440.091c.162 15.549 11.58 28.684 26.955 31.008l57.385 8.676-.777-74.576-53.59 2.912c-16.939.922-30.15 15.017-29.973 31.98z" fill="#f2d59c"/><path d="m202.951 405.2-14.679.798c.239 22.955-20.134 40.665-42.832 37.233l-14.097-2.131c-4.302-.65-8.293-2.148-11.816-4.308-.101 1.086-.151 2.186-.139 3.299.162 15.549 11.58 28.684 26.955 31.008l57.385 8.677z" fill="#ecc372"/><path d="m440.16 119.319c15.549.162 28.684 11.58 31.008 26.955l8.676 57.385-74.576-.777 2.912-53.59c.923-16.939 15.017-30.15 31.98-29.973z" fill="#f2d59c"/><path d="m471.12 145.949c-2.315-15.311-15.474-26.63-30.959-26.63-1.113-.011-2.213.038-3.299.139 2.159 3.522 3.657 7.514 4.308 11.816l2.131 14.097c3.432 22.698-14.278 43.071-37.233 42.832l-.798 14.679 74.576.777z" fill="#ecc372"/></g><g><path d="m318.523 306.195 47.949-47.949c3.38-5.528 7.84-14.352 10.079-25.985 1.532-7.959 1.632-15.194 1.12-21.272-.602-7.158 5.081-13.274 12.264-13.199 34.165.356 68.329.712 102.494 1.068 7.313.076 12.919 6.524 11.958 13.775-2.567 19.357-6.771 41.257-13.601 64.863-7.147 24.705-15.693 46.176-24.091 64.176l-59.776 59.776z" fill="#f2d59c"/><path d="m492.43 198.858c-6.654-.069-13.307-.139-19.961-.208 1.556 2.351 2.322 5.249 1.918 8.297-2.567 19.357-6.771 41.257-13.601 64.862-7.147 24.705-15.693 46.176-24.091 64.176l-46.953 46.953 17.177 18.509 59.776-59.776c8.398-18 16.944-39.471 24.091-64.176 6.829-23.606 11.034-45.505 13.601-64.863.962-7.25-4.644-13.698-11.957-13.774z" fill="#ecc372"/><path d="m406.92 401.447-65.107 65.107c-18.9 9.078-42.397 18.602-70.092 26.189-21.539 5.901-41.479 9.497-59.085 11.661-7.202.885-13.559-4.718-13.635-11.974-.358-34.381-.717-68.762-1.075-103.142-.074-7.098 5.905-12.696 12.992-12.283 5.331.31 11.479.184 18.203-.823 13.096-1.963 23.099-6.477 29.266-9.851l60.137-60.137z" fill="#f2d59c"/><path d="m406.92 401.447-15.303-16.49-73.094-78.763-60.137 60.137c-5.436 2.973-13.854 6.831-24.739 9.048 9.491 14.701 20.324 29.944 32.729 45.374 6.036 7.508 12.095 14.628 18.131 21.376 5.373 6.007 2.69 15.557-5.029 17.874-3.125.938-6.308 1.853-9.55 2.741-21.539 5.901-41.479 9.497-59.085 11.661-5.107.628-9.776-2.014-12.095-6.187.084 8.072.168 16.143.252 24.214.076 7.28 6.471 12.855 13.697 11.965 17.591-2.165 37.51-5.759 59.023-11.653 27.695-7.587 51.192-17.111 70.092-26.189l6.789-6.789z" fill="#ecc372"/><path d="m262.137 373.047c-7.213-11.298-3.997-26.241 7.212-33.593 11.117-7.292 23.818-16.945 36.697-29.531 14.65-14.317 25.6-28.589 33.617-40.824 7.328-11.183 22.215-14.412 33.518-7.269 15.664 9.9 32.011 21.394 48.55 34.744 16.239 13.107 30.594 26.33 43.238 39.177 7.94 8.068 9.339 20.515 3.309 30.094-10.171 16.156-24.586 35.827-44.447 55.858-20.694 20.871-41.107 35.885-57.724 46.358-9.628 6.067-22.144 4.64-30.214-3.385-12.962-12.89-26.292-27.476-39.516-43.923-13.061-16.245-24.398-32.291-34.24-47.706z" fill="#f2d59c"/><path d="m465.043 335.827c-12.661-12.87-27.041-26.12-43.312-39.252-16.54-13.349-32.886-24.844-48.55-34.744-8.923-5.64-20.078-4.81-27.986 1.292 15.052 9.608 30.702 20.672 46.537 33.452.221.178.441.356.661.534 36.411 29.488 39.903 83.75 7.859 117.933-2.074 2.213-4.214 4.434-6.422 6.66-19.823 19.992-39.377 34.599-55.595 44.999 8.014 6.179 19.128 6.869 27.871 1.359 16.618-10.472 37.03-25.487 57.724-46.358 19.864-20.033 34.28-39.706 44.451-55.863 6.007-9.542 4.67-21.974-3.238-30.012z" fill="#ecc372"/></g></g><g><g><path d="m392.602 71.902c-.162-15.549-11.58-28.684-26.955-31.008l-57.385-8.676.777 74.576 53.59-2.912c16.939-.922 30.15-15.017 29.973-31.98z" fill="#f2d59c"/><path d="m309.039 106.794 14.679-.798c-.239-22.955 20.134-40.665 42.832-37.233l14.097 2.131c4.302.65 8.293 2.148 11.816 4.308.101-1.086.151-2.186.139-3.299-.162-15.549-11.58-28.684-26.955-31.008l-57.385-8.677z" fill="#ecc372"/><path d="m71.83 392.675c-15.549-.162-28.684-11.58-31.008-26.955l-8.676-57.385 74.576.777-2.912 53.59c-.922 16.939-15.017 30.15-31.98 29.973z" fill="#f2d59c"/><path d="m40.87 366.045c2.315 15.311 15.474 26.63 30.959 26.63 1.113.011 2.213-.038 3.299-.139-2.159-3.522-3.657-7.514-4.308-11.816l-2.131-14.097c-3.432-22.698 14.278-43.071 37.233-42.832l.798-14.679-74.576-.777z" fill="#ecc372"/></g><g><path d="m193.467 205.799-47.949 47.949c-3.38 5.528-7.84 14.352-10.079 25.985-1.532 7.959-1.632 15.194-1.12 21.272.602 7.158-5.081 13.274-12.264 13.199-34.165-.356-68.329-.712-102.494-1.068-7.313-.076-12.919-6.524-11.958-13.775 2.567-19.357 6.771-41.257 13.601-64.863 7.147-24.705 15.693-46.176 24.091-64.176l59.776-59.776z" fill="#f2d59c"/><path d="m19.56 313.135c6.654.069 13.307.139 19.961.208-1.556-2.351-2.322-5.249-1.918-8.297 2.567-19.357 6.771-41.257 13.601-64.862 7.147-24.705 15.693-46.176 24.091-64.176l46.953-46.953-17.177-18.509-59.776 59.776c-8.398 18-16.944 39.471-24.091 64.176-6.829 23.606-11.034 45.505-13.601 64.863-.962 7.25 4.644 13.698 11.957 13.774z" fill="#ecc372"/><path d="m105.07 110.546 65.107-65.107c18.9-9.078 42.397-18.602 70.092-26.189 21.539-5.901 41.479-9.497 59.085-11.661 7.202-.885 13.559 4.718 13.635 11.974.358 34.381.717 68.761 1.075 103.142.074 7.098-5.905 12.696-12.992 12.283-5.331-.31-11.478-.184-18.203.823-13.096 1.963-23.099 6.477-29.266 9.851l-60.137 60.137z" fill="#f2d59c"/><path d="m105.07 110.546 15.303 16.49 73.094 78.763 60.137-60.137c5.436-2.973 13.854-6.831 24.739-9.048-9.491-14.701-20.324-29.944-32.729-45.374-6.036-7.508-12.095-14.628-18.131-21.376-5.373-6.007-2.69-15.557 5.029-17.874 3.125-.938 6.308-1.853 9.55-2.741 21.539-5.901 41.479-9.497 59.085-11.661 5.107-.628 9.776 2.014 12.095 6.187-.084-8.072-.168-16.143-.252-24.214-.076-7.28-6.471-12.855-13.697-11.965-17.591 2.165-37.509 5.759-59.023 11.653-27.695 7.587-51.192 17.111-70.092 26.189l-6.789 6.789z" fill="#ecc372"/><path d="m249.853 138.946c7.213 11.298 3.997 26.241-7.212 33.593-11.117 7.292-23.818 16.945-36.697 29.531-14.65 14.317-25.6 28.589-33.617 40.824-7.328 11.183-22.215 14.412-33.518 7.269-15.664-9.9-32.011-21.394-48.55-34.744-16.239-13.107-30.594-26.33-43.238-39.177-7.94-8.068-9.339-20.515-3.308-30.094 10.171-16.156 24.586-35.827 44.447-55.858 20.694-20.871 41.107-35.885 57.724-46.358 9.628-6.067 22.144-4.64 30.214 3.385 12.962 12.89 26.292 27.476 39.516 43.923 13.06 16.245 24.397 32.291 34.239 47.706z" fill="#f2d59c"/><path d="m46.947 176.167c12.661 12.87 27.041 26.12 43.312 39.252 16.54 13.349 32.886 24.844 48.55 34.744 8.923 5.64 20.078 4.81 27.986-1.292-15.052-9.608-30.702-20.672-46.537-33.452-.221-.178-.441-.356-.661-.534-36.411-29.488-39.903-83.75-7.859-117.933 2.074-2.213 4.214-4.434 6.422-6.661 19.823-19.992 39.377-34.599 55.595-44.999-8.014-6.179-19.128-6.869-27.871-1.359-16.618 10.472-37.03 25.487-57.724 46.358-19.864 20.033-34.28 39.706-44.451 55.863-6.007 9.542-4.67 21.975 3.238 30.013z" fill="#ecc372"/></g></g></g><path d="m121.982 321.707c.064 0 .127.001.191.001 11.251 0 20.556-10.096 19.615-21.328-.541-6.456-.201-12.925 1.011-19.226 1.335-6.933 3.695-13.582 7.021-19.821 11.161.68 22.3-4.44 28.779-14.328 9.34-14.253 20.304-27.567 32.587-39.571 10.932-10.683 22.898-20.314 35.569-28.624 9.832-6.449 14.941-17.529 14.342-28.56 7.226-3.466 14.903-5.826 22.871-7.025 5.523-.82 11.133-1.071 16.674-.751 11.168.646 21.09-8.633 20.922-19.846l-.094-8.994 41.561-2.269c20.999-1.14 37.284-18.505 37.073-39.536-.198-19.336-14.22-35.464-33.338-38.349l-46.208-6.986-.073-7.001c-.05-11.582-10.634-20.757-22.047-19.351-20.284 2.5-40.522 6.493-60.157 11.871-22.407 6.146-44.387 14.193-65.419 23.897-9.713-4.774-21.382-4.37-30.976 1.677-7.263 4.577-14.463 9.522-21.399 14.697-3.32 2.477-4.003 7.177-1.526 10.497s7.175 4.003 10.497 1.526c6.622-4.941 13.494-9.661 20.426-14.029 6.688-4.214 15.293-3.245 20.927 2.357 13.712 13.636 26.82 28.206 38.959 43.304 12.016 14.945 23.375 30.772 33.763 47.043 4.963 7.774 2.719 18.22-5.003 23.285-13.478 8.839-26.204 19.081-37.826 30.439-13.058 12.761-24.715 26.917-34.649 42.077-5.125 7.821-15.333 10.033-23.237 5.039-16.587-10.483-32.685-22.003-47.847-34.24-14.881-12.01-29.214-24.998-42.603-38.601-5.539-5.628-6.487-14.197-2.307-20.838 12.329-19.585 26.939-37.946 43.424-54.572 3.006-3.032 6.114-6.043 9.235-8.95 3.032-2.823 3.201-7.568.378-10.6-2.822-3.032-7.568-3.201-10.6-.378-3.267 3.042-6.519 6.193-9.665 9.366-17.257 17.404-32.555 36.629-45.469 57.143-6.039 9.593-6.412 21.293-1.606 31.016-8.6 19.181-15.925 39.086-21.759 59.244-6.241 21.574-10.895 43.767-13.831 65.96-1.516 11.461 7.689 22.143 19.318 22.264 2.315.024 4.631.049 6.946.072l6.975 46.126c2.884 19.12 19.008 33.143 38.341 33.342 20.985.216 38.408-16.021 39.544-37.071l2.26-41.486c2.812.029 5.62.058 8.43.088zm242.544-273.394c11.802 1.781 20.457 11.736 20.579 23.669.13 12.981-9.923 23.702-22.889 24.406l-40.903 2.233-.596-56.931zm-143.067 38.228c-11.16-13.881-23.121-27.323-35.606-40.038 18.236-8.014 37.152-14.746 56.394-20.023 18.936-5.187 38.458-9.039 58.018-11.449 3.173-.391 5.052 1.471 5.221 4.614l1.08 103.136c-.018 3.25-2.456 4.87-5.055 4.719-6.566-.382-13.209-.083-19.762.891-8.701 1.309-17.095 3.795-25.055 7.382-10.336-17.143-22.785-33.746-35.235-49.232zm-125.143 275.75c-.701 12.961-11.45 23.019-24.414 22.886-11.93-.123-21.881-8.777-23.662-20.581l-6.613-43.728c18.968.196 37.939.395 56.912.594zm-76.669-56.655c-3.185-.033-5.025-2.138-4.607-5.296 2.838-21.452 7.336-42.903 13.37-63.759 4.94-17.068 10.989-33.949 17.998-50.339 12.415 12.289 25.555 24.048 39.141 35.013 15.609 12.598 32.181 24.457 49.254 35.247.162.103.33.188.493.287-3.358 6.829-5.784 14.041-7.225 21.53-1.472 7.646-1.885 15.49-1.228 23.323.268 3.188-1.534 5.064-4.659 5.064-.016 0-.033 0-.049-.001-34.171-.359-68.332-.718-102.488-1.069zm472.855-114.279c-2.315-.024-4.631-.049-6.946-.072l-6.975-46.127c-2.902-19.264-19.269-33.343-38.744-33.343-20.852 0-38.008 16.21-39.141 37.074l-2.26 41.486c-2.982-.003-5.49-.043-8.429-.088-.063-.001-.126-.001-.19-.001-11.366 0-20.563 10.019-19.616 21.327.541 6.457.201 12.925-1.011 19.226-1.334 6.934-3.695 13.582-7.02 19.819-11.11-.672-22.303 4.447-28.78 14.331-9.341 14.254-20.304 27.567-32.587 39.57-10.931 10.683-22.898 20.313-35.568 28.624-9.832 6.449-14.942 17.529-14.342 28.56-7.226 3.465-14.902 5.826-22.871 7.025-5.523.822-11.133 1.074-16.674.751-11.259-.657-21.086 8.575-20.923 19.846l.094 8.994-41.561 2.269c-20.999 1.141-37.284 18.506-37.073 39.536.198 19.337 14.221 35.465 33.338 38.349l46.208 6.986.073 7c.038 11.458 10.601 20.762 22.047 19.352 20.287-2.499 40.525-6.493 60.157-11.871 22.41-6.146 44.392-14.193 65.424-23.897 9.875 4.846 21.51 4.287 30.972-1.676 21.28-13.41 41.147-29.365 59.052-47.423 2.917-2.941 2.896-7.689-.045-10.606-2.941-2.916-7.689-2.896-10.606.046-17.104 17.25-36.079 32.489-56.397 45.294-6.689 4.214-15.293 3.243-20.927-2.358-13.71-13.633-26.818-28.203-38.959-43.305-12.017-14.945-23.376-30.772-33.763-47.042-4.964-7.774-2.719-18.221 5.003-23.285 13.478-8.841 26.204-19.081 37.826-30.438 13.057-12.761 24.714-26.918 34.648-42.078 5.125-7.822 15.332-10.034 23.238-5.039 16.585 10.481 32.683 22.001 47.847 34.24 14.876 12.007 29.21 24.994 42.603 38.601 5.539 5.629 6.488 14.197 2.307 20.838-6.285 9.984-13.246 19.764-20.688 29.065-2.587 3.234-2.063 7.954 1.171 10.542 3.235 2.588 7.955 2.063 10.542-1.171 7.793-9.742 15.084-19.984 21.669-30.444 6.039-9.592 6.412-21.292 1.606-31.017 8.6-19.181 15.925-39.085 21.759-59.244 6.241-21.573 10.895-43.766 13.831-65.959 1.529-11.565-7.746-22.147-19.319-22.267zm-345.039 272.323c-11.801-1.78-20.456-11.734-20.579-23.669-.13-12.981 9.923-23.701 22.889-24.405l40.903-2.233.596 56.93zm143.068-38.228c11.162 13.884 23.122 27.325 35.605 40.038-18.235 8.014-37.151 14.746-56.393 20.023-18.933 5.186-38.455 9.038-58.018 11.449-3.121.385-5.067-1.453-5.221-4.614l-1.08-103.136c.028-3.193 2.468-4.87 5.054-4.719 6.565.383 13.209.083 19.763-.891 8.701-1.31 17.095-3.796 25.054-7.382 10.392 17.23 22.742 33.691 35.236 49.232zm125.143-275.749c.704-12.964 11.404-23.033 24.414-22.887 11.93.123 21.881 8.778 23.662 20.582l6.613 43.728c-18.969-.197-37.94-.395-56.912-.594zm81.276 61.95c-2.838 21.453-7.336 42.905-13.37 63.759-4.94 17.069-10.989 33.949-17.998 50.339-12.418-12.291-25.558-24.05-39.141-35.012-15.611-12.601-32.183-24.46-49.254-35.248-.162-.102-.327-.194-.49-.292 3.357-6.827 5.781-14.037 7.222-21.525 1.472-7.646 1.885-15.49 1.228-23.324-.258-3.081 1.587-4.985 4.708-5.063 29.739-.746 59.489.625 89.224.931h.006.002c4.418.045 8.838.093 13.255.138 3.247.033 5.024 2.156 4.608 5.297z"/></g></svg>