<svg id="Capa_1" enable-background="new 0 0 512 512" height="512" viewBox="0 0 512 512" width="512" xmlns="http://www.w3.org/2000/svg"><g><g><g><circle cx="256" cy="256" fill="#ecf4ff" r="248.5"/><path d="m256 7.5c-5.038 0-10.036.168-15 .463 130.256 7.758 233.5 115.832 233.5 248.037s-103.244 240.279-233.5 248.037c4.964.295 9.962.463 15 .463 137.243 0 248.5-111.257 248.5-248.5s-111.257-248.5-248.5-248.5z" fill="#ddeafb"/><circle cx="256" cy="256" fill="#cbe2ff" r="181.321"/><path d="m256 74.679c-5.052 0-10.053.217-15 .622 93.122 7.627 166.321 85.611 166.321 180.7s-73.199 173.071-166.321 180.698c4.947.405 9.948.622 15 .622 100.141 0 181.321-81.18 181.321-181.321s-81.18-181.321-181.321-181.321z" fill="#bed8fb"/></g><path d="m273.37 285.795c-1.329 10.791-12.025 17.718-22.464 14.678-58.777-17.114-98.16-74.78-90.437-137.502 7.723-62.722 59.919-109.112 121.091-111.456 10.865-.416 19.561 8.898 18.232 19.69z" fill="#f2d59c"/><g><circle cx="175.578" cy="388.801" fill="#ffe07d" r="62.463"/><path d="m175.578 326.338c-5.172 0-10.194.641-15 1.826 27.25 6.719 47.463 31.312 47.463 60.637s-20.213 53.917-47.463 60.637c4.806 1.185 9.828 1.826 15 1.826 34.497 0 62.463-27.965 62.463-62.462 0-34.498-27.966-62.464-62.463-62.464z" fill="#ffd064"/><path d="m175.578 458.764c-38.578 0-69.963-31.385-69.963-69.963 0-38.577 31.385-69.962 69.963-69.962 38.577 0 69.962 31.385 69.962 69.962 0 38.578-31.385 69.963-69.962 69.963zm0-124.925c-30.307 0-54.963 24.656-54.963 54.962 0 30.307 24.656 54.963 54.963 54.963 30.306 0 54.962-24.656 54.962-54.963 0-30.306-24.656-54.962-54.962-54.962z" fill="#f7f6f7"/></g><g><path d="m268.265 374.634c-2.944-1.856-2.098-6.332 1.3-7.086 20.023-4.444 30.488-12.971 36.406-20.226 15.027-18.42 8.958-38.707 26.307-49.816 8.507-5.447 21.389-7.884 29.666-2.238 12.806 8.735 8.342 32.563 7.836 35.263-4.99 26.633-31.337 53.709-63.809 54.853-16.197.57-29.335-5.472-37.706-10.75z" fill="#b3e59f"/></g><g><path d="m277.463 71.205c.993-8.062-3.611-15.297-10.532-18.27-54.685 8.53-99.362 52.381-106.461 110.036-7.397 60.073 28.42 115.502 83.098 135.113 3.966-2.718 6.827-7.045 7.473-12.29z" fill="#ecc372"/><path d="m221.04 285.795c-1.329 10.791-12.025 17.718-22.464 14.678-58.777-17.114-98.16-74.78-90.437-137.502 7.723-62.722 59.919-109.112 121.091-111.456 10.865-.416 19.561 8.898 18.232 19.69z" fill="#f2d59c"/></g><g><g><path d="m357.752 92.924c0-2.904 2.466-5.186 5.363-4.994 41.644 2.759 74.567 37.411 74.567 79.753s-32.924 76.994-74.567 79.753c-2.897.192-5.363-2.09-5.363-4.994z" fill="#ffe07d"/></g></g></g><path d="m378.342 314.734c-.489-8.579-2.85-15.597-6.891-20.707l9.52-15.772c2.141-3.546 1.001-8.156-2.545-10.297-3.547-2.14-8.156-1.001-10.297 2.545l-9.175 15.2c-10.417-3.018-22.518.234-30.72 5.486-11.872 7.602-14.933 18.422-17.894 28.886-2.232 7.894-4.342 15.349-10.181 22.505-6.938 8.503-17.777 14.44-32.221 17.646-4.55 1.01-8.004 4.627-8.801 9.214-.79 4.548 1.222 9.077 5.126 11.538 9.416 5.935 24.643 12.51 41.971 11.9 16.897-.595 33.586-7.631 46.99-19.812 12.421-11.287 21.142-26.287 23.927-41.154 1.074-5.726 1.496-11.827 1.191-17.178zm-15.934 14.415c-4.239 22.628-27.122 47.696-56.701 48.738-9.966.352-18.783-2.218-25.688-5.391 13.553-4.327 24.213-11.18 31.764-20.435 7.803-9.564 10.56-19.308 12.991-27.903 2.596-9.177 4.472-15.807 11.549-20.337 6.301-4.036 16.028-6.019 21.395-2.359 6.05 4.129 6.716 16.88 4.69 27.687zm-177.522-182.331c-4.142 0-7.5 3.358-7.5 7.5s3.358 7.5 7.5 7.5 7.5-3.358 7.5-7.5-3.358-7.5-7.5-7.5zm31.717-62.079c0-4.142-3.358-7.5-7.5-7.5s-7.5 3.358-7.5 7.5 3.358 7.5 7.5 7.5 7.5-3.358 7.5-7.5zm220.417-9.759c-48.352-48.351-112.64-74.98-181.02-74.98s-132.668 26.629-181.02 74.98-74.98 112.64-74.98 181.02 26.629 132.668 74.98 181.02 112.64 74.98 181.02 74.98 132.668-26.629 181.02-74.98 74.98-112.64 74.98-181.02-26.629-132.668-74.98-181.02zm-10.607 351.433c-45.518 45.519-106.039 70.587-170.413 70.587s-124.895-25.068-170.413-70.587-70.587-106.039-70.587-170.413 25.068-124.895 70.587-170.413 106.039-70.587 170.413-70.587 124.895 25.068 170.413 70.587 70.587 106.039 70.587 170.413-25.068 124.895-70.587 170.413zm-243.335-206.674c4.142 0 7.5-3.358 7.5-7.5s-3.358-7.5-7.5-7.5-7.5 3.358-7.5 7.5 3.358 7.5 7.5 7.5zm-11.475-105c0-4.142-3.358-7.5-7.5-7.5s-7.5 3.358-7.5 7.5 3.358 7.5 7.5 7.5 7.5-3.358 7.5-7.5zm13.283 150c0 4.142 3.358 7.5 7.5 7.5s7.5-3.358 7.5-7.5-3.358-7.5-7.5-7.5-7.5 3.358-7.5 7.5zm-35.783-80.892c0-4.142-3.358-7.5-7.5-7.5s-7.5 3.358-7.5 7.5 3.358 7.5 7.5 7.5 7.5-3.358 7.5-7.5zm296.08-16.163c0-46.015-36.331-84.103-81.573-87.237-3.453-.239-6.88.996-9.401 3.356-2.379 2.228-3.782 5.327-3.927 8.571-13.628-7.876-28.126-13.975-43.298-18.214 1.46-7.924-.689-16.07-6.155-22.016-5.006-5.445-12.111-8.401-19.558-8.118-11.905.459-23.629 2.492-34.924 6.046-4.793-4.114-10.976-6.297-17.403-6.05-31.564 1.209-61.877 13.651-85.353 35.035-19.062 17.364-32.634 39.797-39.276 64.484-24.295 32.71-37.135 71.56-37.135 112.459 0 42.259 14.3 83.522 40.34 116.64-1.233 5.191-1.905 10.598-1.905 16.161 0 38.578 31.385 69.963 69.963 69.963 17.497 0 33.5-6.471 45.781-17.126 11.359 2.106 22.992 3.183 34.641 3.183 31.959 0 63.542-8.134 91.336-23.522 3.624-2.007 4.935-6.57 2.929-10.194-2.006-3.623-6.568-4.933-10.194-2.929-25.576 14.161-54.646 21.646-84.07 21.646-7.619 0-15.229-.5-22.744-1.481 7.74-11.257 12.284-24.875 12.284-39.539 0-38.577-31.385-69.962-69.962-69.962-26.719 0-49.978 15.061-61.759 37.133-20.476-29.123-31.64-64.157-31.64-99.973 0-26.812 5.998-52.663 17.52-76.199.17 19.144 4.403 38.043 12.533 55.474 1.752 3.755 6.214 5.38 9.967 3.627 3.754-1.751 5.378-6.213 3.627-9.967-9.447-20.256-12.989-42.749-10.243-65.047 3.49-28.348 17.024-54.537 38.109-73.742 20.863-19.005 47.792-30.062 75.825-31.137 6.11-.234 11.306 5.128 10.502 11.278l-26.423 214.591c-.365 2.96-1.936 5.492-4.424 7.131-2.501 1.648-5.599 2.107-8.5 1.263-21.825-6.354-41.315-18.8-56.362-35.989-2.73-3.118-7.469-3.432-10.583-.704-3.117 2.729-3.432 7.467-.704 10.583 16.936 19.348 38.878 33.356 63.456 40.513 7.071 2.059 14.745.944 20.944-3.139 2.738-1.803 5.053-4.1 6.862-6.735 7.821 4.084 16.039 7.396 24.526 9.869 7.07 2.06 14.742.946 20.941-3.135 6.131-4.036 10.162-10.531 11.061-17.819l24.315-197.49c15.961 4.687 31.095 11.624 45.124 20.702v132.515c0 3.442 1.442 6.768 3.956 9.121 2.522 2.361 5.964 3.589 9.403 3.356 24.627-1.665 48.025-14.371 62.813-33.258 2.253 11.254 3.396 22.747 3.396 34.338 0 51.384-22.562 99.86-61.901 132.999-3.168 2.669-3.572 7.4-.904 10.568 2.68 3.182 7.416 3.56 10.568.904 42.73-35.996 67.237-88.654 67.237-144.472 0-17.832-2.485-35.455-7.38-52.433 4.974-10.98 7.742-23.137 7.742-35.882zm-269.605 166.155c30.306 0 54.962 24.656 54.962 54.962 0 30.307-24.656 54.963-54.962 54.963-30.307 0-54.963-24.656-54.963-54.963 0-30.306 24.656-54.962 54.963-54.962zm116.769-263.545-26.42 214.588c-.365 2.957-1.936 5.487-4.423 7.125-2.501 1.647-5.599 2.106-8.495 1.263-8.383-2.443-16.465-5.812-24.099-10.017l25.997-211.13c.367-2.976.186-5.948-.484-8.793 8.916-2.499 18.106-3.956 27.427-4.315 3.034-.102 5.912 1.079 7.938 3.282 2.014 2.191 2.923 5.032 2.559 7.997zm72.905 25.342c12.89 1.326 24.741 6.056 34.699 13.233l-34.699 39.074zm0 144.094v-52.307l34.699 39.074c-9.959 7.178-21.81 11.907-34.699 13.233zm45.907-23.204-36.714-41.343h55.338c-1.642 15.787-8.399 30.157-18.624 41.343zm-36.715-56.342 36.715-41.344c10.226 11.187 16.982 25.557 18.624 41.344z"/></g></svg>