<svg id="Capa_1" enable-background="new 0 0 511.995 511.995" height="512" viewBox="0 0 511.995 511.995" width="512" xmlns="http://www.w3.org/2000/svg"><g><g><g><g><path d="m353.403 124.763c-7.905-1.702-16.792-2.234-26.438-.623-22.596 3.773-37.036 17.242-43.633 24.934-5.662 6.604-4.893 16.566 1.717 22.253 6.608 5.688 16.558 4.946 22.221-1.657 3.825-4.461 12.154-12.263 24.964-14.401 20.213-3.379 35.438 10.538 37.107 12.136 6.299 6.03 16.276 5.817 22.281-.474s5.765-16.28-.535-22.31c-3.343-3.199-17.217-15.451-37.684-19.858z" fill="#ffe07d"/></g><g><path d="m391.087 144.622c-3.342-3.199-17.217-15.452-37.684-19.858-7.905-1.702-16.792-2.234-26.438-.623-1.157.193-2.286.417-3.4.66 20.377 4.437 34.189 16.63 37.522 19.821 5.19 4.967 6.257 12.617 3.118 18.677 2.825 1.958 4.623 3.615 5.136 4.106 6.299 6.03 16.276 5.817 22.281-.474s5.765-16.279-.535-22.309z" fill="#ffd064"/></g><g><path d="m353.403 323.561c-7.905 1.702-16.792 2.234-26.438.623-22.596-3.773-37.036-17.242-43.633-24.934-5.662-6.604-4.893-16.566 1.717-22.253 6.608-5.688 16.558-4.946 22.221 1.657 3.825 4.461 12.154 12.263 24.964 14.401 20.213 3.379 35.438-10.538 37.107-12.136 6.299-6.03 16.276-5.817 22.281.474s5.765 16.28-.535 22.31c-3.343 3.199-17.217 15.451-37.684 19.858z" fill="#ffe07d"/></g><g><path d="m391.622 281.393c-6.005-6.291-15.982-6.504-22.281-.474-.513.491-2.311 2.147-5.136 4.106 3.139 6.06 2.072 13.71-3.118 18.677-3.333 3.191-17.145 15.385-37.522 19.821 1.114.242 2.244.467 3.4.66 9.646 1.611 18.533 1.08 26.438-.623 20.467-4.407 34.341-16.659 37.684-19.858 6.3-6.029 6.54-16.017.535-22.309z" fill="#ffd064"/></g><path d="m404.819 397.112-131.411-.199c-4.064-.006-7.364-3.306-7.37-7.37l-.025-16.521c-.006-3.759 2.822-6.909 6.558-7.307l131.389-13.982c4.351-.463 8.153 2.952 8.16 7.329l.046 30.702c.007 4.064-3.282 7.354-7.347 7.348z" fill="#e17f85"/><path d="m412.121 359.062c-.007-4.376-3.809-7.792-8.16-7.329l-23.646 2.516c1.115 1.287 1.802 2.961 1.805 4.812l.046 30.702c.006 3.793-2.86 6.91-6.547 7.304l29.199.044c4.064.006 7.354-3.284 7.348-7.348z" fill="#de646e"/><path d="m404.557 245.459-131.411-.199c-4.064-.006-7.364-3.306-7.37-7.37l-.025-16.521c-.006-3.759 2.822-6.909 6.558-7.307l131.389-13.982c4.351-.463 8.153 2.952 8.16 7.329l.046 30.702c.007 4.064-3.283 7.354-7.347 7.348z" fill="#e17f85"/><path d="m411.858 207.409c-.007-4.376-3.809-7.792-8.16-7.329l-23.646 2.516c1.115 1.287 1.802 2.961 1.805 4.812l.046 30.702c.006 3.793-2.86 6.91-6.547 7.304l29.199.044c4.064.006 7.354-3.284 7.348-7.348z" fill="#de646e"/><circle cx="337.757" cy="65.497" fill="#b3e59f" r="32"/><path d="m337.757 33.497c-1.963 0-3.882.187-5.748.525 7.045 5.87 11.532 14.708 11.532 24.595 0 15.709-11.324 28.766-26.252 31.475 5.548 4.622 12.682 7.405 20.468 7.405 17.673 0 32-14.327 32-32 0-17.674-14.326-32-32-32z" fill="#95d6a4"/><circle cx="143.828" cy="65.497" fill="#b3e59f" r="32"/><g><path d="m187.828 176.329c0 9.558-7.119 17.643-16.609 18.783-8.288.996-17.456 1.638-27.371 1.639-9.931.001-19.112-.642-27.41-1.639-9.49-1.14-16.61-9.225-16.61-18.783v-21.449c0-9.633 7.229-17.756 16.805-18.805 8.274-.907 17.345-1.482 27.102-1.486 9.827-.004 18.96.573 27.285 1.485 9.577 1.049 16.809 9.171 16.809 18.806v21.449z" fill="#c6855b"/><path d="m171.019 136.074c-8.325-.912-17.458-1.489-27.285-1.485-5.17.002-10.141.168-14.909.455 4.231.255 8.304.604 12.193 1.03 9.577 1.05 16.809 9.172 16.809 18.806v21.449c0 9.558-7.119 17.643-16.609 18.783-3.934.473-8.073.862-12.39 1.145 4.788.313 9.797.495 15.019.495 9.916-.001 19.083-.644 27.371-1.639 9.49-1.14 16.609-9.225 16.609-18.783v-21.45c.001-9.634-7.23-17.756-16.808-18.806z" fill="#c17e4e"/><path d="m187.828 371.329c0 9.558-7.119 17.643-16.609 18.783-8.288.996-17.456 1.638-27.371 1.639-9.931.001-19.112-.642-27.41-1.639-9.49-1.14-16.61-9.225-16.61-18.783v-21.449c0-9.633 7.229-17.756 16.805-18.805 8.274-.907 17.345-1.482 27.102-1.486 9.827-.004 18.96.573 27.285 1.485 9.577 1.049 16.809 9.171 16.809 18.806v21.449z" fill="#c6855b"/><path d="m171.019 331.074c-8.325-.912-17.458-1.489-27.285-1.485-5.17.002-10.141.168-14.909.455 4.231.255 8.304.604 12.193 1.03 9.577 1.05 16.809 9.172 16.809 18.806v21.449c0 9.558-7.119 17.643-16.609 18.783-3.934.473-8.073.862-12.39 1.145 4.788.313 9.797.495 15.019.495 9.916-.001 19.083-.644 27.371-1.639 9.49-1.14 16.609-9.225 16.609-18.783v-21.45c.001-9.634-7.23-17.756-16.808-18.806z" fill="#c17e4e"/></g><ellipse cx="143.828" cy="263.17" fill="#e17f85" rx="27.574" ry="42.689"/><path d="m143.828 220.481c-5.533 0-10.682 2.533-15 6.877 7.566 7.611 12.574 20.802 12.574 35.812s-5.008 28.201-12.574 35.812c4.318 4.344 9.467 6.877 15 6.877 15.229 0 27.574-19.112 27.574-42.689s-12.345-42.689-27.574-42.689z" fill="#de646e"/><path d="m143.828 33.497c-1.963 0-3.882.187-5.748.525 7.045 5.87 11.532 14.708 11.532 24.595 0 15.709-11.324 28.766-26.252 31.475 5.548 4.622 12.682 7.405 20.468 7.405 17.673 0 32-14.327 32-32 0-17.674-14.327-32-32-32z" fill="#95d6a4"/></g></g><path d="m419.621 359.055c-.006-4.209-1.807-8.236-4.94-11.05-3.133-2.812-7.329-4.171-11.513-3.727l-56.535 6.017-.032-18.065c2.803-.293 5.599-.734 8.381-1.333 22.203-4.781 37.218-17.874 41.291-21.772 9.274-8.876 9.622-23.638.775-32.906-8.764-9.182-23.749-9.466-32.894-.712-.401.384-7.411 6.979-17.641 9.552l-.06-32.184 58.093.088h.026c3.963 0 7.688-1.542 10.49-4.343 2.808-2.808 4.351-6.543 4.345-10.517l-.046-30.701c-.006-4.208-1.808-8.235-4.941-11.05-3.133-2.812-7.331-4.172-11.512-3.726l-56.554 6.018-.068-35.427c10.352 2.532 17.466 9.222 17.871 9.61 9.098 8.71 24.148 8.447 32.892-.714 8.847-9.269 8.5-24.03-.774-32.906-4.073-3.898-19.088-16.991-41.291-21.772-2.916-.628-5.849-1.066-8.788-1.357l-.023-11.988c17.751-3.867 31.087-19.696 31.087-38.589 0-18.941-13.404-34.805-31.223-38.621l-.037-19.394c-.01-4.137-3.367-7.486-7.502-7.486h-.015c-4.142.008-7.494 3.372-7.486 7.515l.036 19.069c-18.587 3.203-32.777 19.428-32.777 38.916 0 19.536 14.259 35.794 32.914 38.94l.023 11.611c-1.824.174-3.646.391-5.464.694-24.932 4.163-40.832 18.985-48.091 27.45-8.34 9.727-7.21 24.449 2.518 32.819 9.568 8.232 24.573 7.148 32.808-2.46 2.935-3.425 9.072-9.223 18.319-11.435l.071 37.12-10.269 1.093c-4.119.438-7.103 4.133-6.665 8.252.438 4.118 4.134 7.104 8.251 6.664l81.686-8.693.046 30.406s-131.093-.203-131.129-.198l-.025-16.255 14.083-1.499c4.119-.438 7.103-4.133 6.664-8.252s-4.131-7.095-8.252-6.664l-14.23 1.515c-7.573.806-13.276 7.157-13.265 14.776l.025 16.521c.013 8.181 6.679 14.847 14.859 14.858l58.317.088.06 32.419c-9.377-2.17-15.587-8.042-18.548-11.496-8.259-9.637-23.211-10.716-32.806-2.46-9.729 8.371-10.859 23.094-2.519 32.82 7.259 8.465 23.159 23.287 48.09 27.45 1.954.327 3.912.569 5.871.746l.035 19.56-59.857 6.37c-7.574.806-13.276 7.158-13.265 14.776l.025 16.52c.012 8.182 6.678 14.848 14.859 14.859l58.334.088.034 18.128c-22.555 3.786-38.811 24.42-37.189 47.504 1.563 22.233 19.461 40.181 41.631 41.745 12.406.875 24.549-3.332 33.719-11.888 9.087-8.478 14.289-20.485 14.271-32.945-.006-4.139-3.362-7.489-7.5-7.489h-.01c-4.142.006-7.496 3.368-7.49 7.511.012 8.43-3.363 16.228-9.503 21.955-6.094 5.685-14.059 8.49-22.429 7.894-14.764-1.042-26.684-13.008-27.727-27.834-1.099-15.653 10.095-29.612 25.488-31.779 6.693-.945 11.74-6.773 11.74-13.569l-.036-19.209 58.077.088h.022c3.965 0 7.691-1.543 10.493-4.345 2.807-2.808 4.35-6.542 4.343-10.515zm-106.364-293.555c0-13.51 10.991-24.5 24.5-24.5s24.5 10.99 24.5 24.5-10.99 24.5-24.5 24.5-24.5-10.99-24.5-24.5zm25.125 81.76c-2.386.008-4.847.191-7.382.615-15.15 2.529-24.938 11.685-29.422 16.916-2.922 3.409-8.239 3.777-11.636.854-3.47-2.985-3.88-8.228-.916-11.686 5.935-6.92 18.916-19.036 39.175-22.419 3.441-.575 6.899-.862 10.356-.862 4.438 0 8.874.474 13.268 1.42 18.825 4.054 31.688 15.659 34.077 17.944 3.307 3.165 3.439 8.42.295 11.713-3.095 3.241-8.44 3.328-11.667.237-1.342-1.283-17.111-14.795-36.148-14.732zm-10.182 169.53c-20.259-3.383-33.24-15.499-39.175-22.419-2.965-3.458-2.554-8.7.917-11.687 3.412-2.936 8.71-2.559 11.635.854 4.485 5.233 14.273 14.389 29.421 16.918 2.773.463 5.435.635 8.044.624 19.323-.081 33.934-13.254 35.485-14.74 3.253-3.116 8.569-3.012 11.669.235 3.144 3.293 3.011 8.548-.296 11.713-2.388 2.285-15.251 13.891-34.076 17.944-7.816 1.684-15.764 1.872-23.624.558zm-54.661 72.626-.025-16.255c.219-.054 131.107-13.953 131.107-13.953l.046 30.407zm-101.703-260.794c-6.819-.747-13.724-1.218-20.612-1.417l-.043-22.902c18.278-3.457 32.148-19.536 32.148-38.803 0-19.318-13.944-35.431-32.294-38.829l-.037-19.186c-.008-4.136-3.365-7.485-7.5-7.485h-.015c-4.142.008-7.494 3.372-7.486 7.515l.037 19.261c-18.06 3.629-31.706 19.611-31.706 38.724 0 19.164 13.72 35.178 31.852 38.75l.044 22.962c-6.82.203-13.656.67-20.407 1.411-13.391 1.467-23.488 12.756-23.488 26.26v21.449c0 13.364 9.98 24.641 23.215 26.229 6.881.827 13.855 1.348 20.817 1.569l.017 9.954c-9.753 2.9-18.087 11.462-23.081 24.134-1.519 3.854.374 8.209 4.228 9.728 3.853 1.517 8.208-.374 9.728-4.228 3.825-9.705 10.178-15.734 16.578-15.734 10.693 0 20.074 16.443 20.074 35.188 0 18.746-9.38 35.189-20.074 35.189-8.269 0-16.27-10.174-19.024-24.19-.799-4.064-4.739-6.71-8.806-5.913-4.064.799-6.712 4.741-5.913 8.806 3.6 18.314 13.812 31.56 26.473 35.255l.017 9.878c-6.936.197-13.892.672-20.758 1.425-13.391 1.467-23.488 12.756-23.488 26.26v21.449c0 13.364 9.98 24.641 23.215 26.229 7 .841 14.096 1.372 21.178 1.585l.044 23.486c-22.555 3.786-38.811 24.42-37.189 47.504 1.563 22.233 19.461 40.181 41.631 41.745 12.407.876 24.549-3.332 33.719-11.888 9.087-8.478 14.289-20.485 14.271-32.945-.006-4.139-3.362-7.489-7.5-7.489h-.011c-4.142.006-7.496 3.368-7.49 7.511.012 8.43-3.363 16.228-9.503 21.955-6.093 5.684-14.053 8.492-22.429 7.894-14.764-1.042-26.684-13.008-27.727-27.834-1.099-15.653 10.095-29.612 25.488-31.779 6.693-.945 11.74-6.773 11.74-13.569l-.046-24.625c6.814-.229 13.645-.74 20.392-1.55 13.235-1.589 23.215-12.865 23.215-26.229v-21.448c0-13.504-10.099-24.794-23.492-26.262-6.7-.734-13.493-1.195-20.261-1.4l-.017-10.047c15.827-4.913 27.344-24.672 27.344-49.001 0-24.422-11.605-44.242-27.525-49.059l-.017-9.986c6.934-.222 13.887-.742 20.753-1.566 13.235-1.589 23.215-12.865 23.215-26.229v-21.448c-.002-13.506-10.101-24.796-23.494-26.264zm-1.634 209.91c5.773.633 10.126 5.513 10.126 11.352v21.448c0 5.778-4.3 10.651-10.003 11.337-17.542 2.107-35.498 2.104-52.994 0-5.703-.686-10.003-5.559-10.003-11.337v-21.449c0-5.838 4.351-10.718 10.122-11.35 8.724-.955 17.604-1.44 26.383-1.44 8.777 0 17.65.484 26.369 1.439zm-50.874-273.032c0-13.51 10.991-24.5 24.5-24.5s24.5 10.99 24.5 24.5-10.99 24.5-24.5 24.5-24.5-10.99-24.5-24.5zm61 110.832c0 5.778-4.3 10.651-10.003 11.337-17.542 2.106-35.498 2.103-52.994 0-5.703-.686-10.003-5.559-10.003-11.337v-21.449c0-5.838 4.351-10.718 10.122-11.35 17.49-1.915 35.262-1.918 52.751-.001 5.773.633 10.126 5.513 10.126 11.352v21.448z"/></g></svg>