<svg id="Capa_1" enable-background="new 0 0 512.012 512.012" height="512" viewBox="0 0 512.012 512.012" width="512" xmlns="http://www.w3.org/2000/svg"><g><g><ellipse cx="392.868" cy="106.432" fill="#e4926a" rx="74.743" ry="74.6"/><path d="m392.868 31.833c-5.138 0-10.154.519-15 1.504 34.091 6.932 59.743 37.023 59.743 73.096s-25.653 66.163-59.743 73.095c4.846.985 9.862 1.504 15 1.504 41.28 0 74.743-33.399 74.743-74.6s-33.464-74.599-74.743-74.599z" fill="#e17c48"/><g><path d="m383.407 137.058c1.142 14.916-21.181 27.43-25.019 41.194-3.921 14.062 8.69 36.168.374 48.161-8.212 11.843-33.545 8.051-45.259 17.028-11.358 8.705-13.99 34.161-27.918 39.391-13.285 4.988-32.118-12.235-47.109-11.092s-30.984 21.02-44.874 18.104c-14.563-3.057-21.038-27.82-33.59-34.702-12.944-7.098-37.406.491-47.325-9.97-10.045-10.594-.944-34.354-6.959-47.659-5.887-13.023-29.856-22.008-30.997-36.924-1.142-14.916 21.181-27.43 25.019-41.194 3.921-14.062-8.69-36.168-.374-48.161 8.212-11.843 33.545-8.051 45.259-17.028 11.358-8.705 13.99-34.161 27.918-39.391 13.285-4.988 32.118 12.235 47.109 11.092s30.984-21.02 44.874-18.104c14.563 3.057 21.038 27.82 33.59 34.702 12.944 7.098 37.406-.491 47.325 9.97 10.045 10.594.944 34.354 6.959 47.659 5.887 13.023 29.855 22.008 30.997 36.924z" fill="#b3e59f"/></g><path d="m38.687 378.953 267.253 23.212-60.565-182.362-116.027-64.948-99.321 209.022c-3.167 6.664 1.298 14.436 8.66 15.076z" fill="#ffe07d"/><g><path d="m299.257 181.032c36.479 0 66.837-26.09 73.408-60.59-7.555-6.695-16.878-12.838-20.255-20.308-6.015-13.305 3.086-37.065-6.959-47.659-9.919-10.461-34.381-2.872-47.325-9.97-3.734-2.047-6.928-5.681-9.959-9.85-36.019 5.348-63.653 36.339-63.653 73.777-.001 41.201 33.463 74.6 74.743 74.6z" fill="#95d6a4"/><ellipse cx="329.257" cy="106.432" fill="#e17f85" rx="74.743" ry="74.6"/><path d="m329.257 31.833c-5.138 0-10.154.519-15 1.504 34.09 6.932 59.743 37.023 59.743 73.096s-25.653 66.163-59.743 73.095c4.846.985 9.862 1.504 15 1.504 41.28 0 74.743-33.399 74.743-74.6s-33.464-74.599-74.743-74.599z" fill="#de646e"/><ellipse cx="329.257" cy="106.432" fill="#efc2c6" rx="42.938" ry="42.855"/></g><g><path d="m305.94 402.164-60.565-182.361-116.027-64.948-62.273 131.053v95.51z" fill="#ffd064"/><path d="m65.27 159.607c.005 14.877 5.928 29.143 16.468 39.663 9.821 9.802 15.338 23.096 15.338 36.957v236.54c0 17.532 14.24 31.745 31.806 31.745h290.492c17.566 0 31.806-14.213 31.806-31.745v-236.54c0-13.862 5.517-27.156 15.338-36.957 10.544-10.524 16.468-24.798 16.468-39.681 0-30.992-25.173-56.117-56.225-56.117h-305.266c-31.06 0-56.235 25.136-56.225 56.135z" fill="#f2d59c"/><path d="m426.759 103.473h-30c31.052 0 56.225 25.124 56.225 56.117 0 14.883-5.924 29.157-16.468 39.681-9.821 9.802-15.338 23.096-15.338 36.958v236.54c0 17.532-14.24 31.745-31.806 31.745h30c17.566 0 31.806-14.212 31.806-31.745v-236.54c0-13.862 5.517-27.156 15.338-36.958 10.544-10.524 16.468-24.797 16.468-39.681 0-30.993-25.173-56.117-56.225-56.117z" fill="#ecc372"/><g fill="#f9f0d9"><ellipse cx="144.817" cy="393.406" rx="15.903" ry="15.872"/><ellipse cx="208.428" cy="441.023" rx="15.903" ry="15.872"/><ellipse cx="144.817" cy="456.895" rx="15.903" ry="15.872"/></g></g></g><path d="m474.38 117.379c.482-3.612.729-7.28.729-10.947 0-45.27-36.893-82.1-82.24-82.1-11.065 0-21.746 2.147-31.805 6.373-9.955-4.167-20.725-6.373-31.805-6.373-11.449 0-22.565 2.357-32.795 6.799-2.138-2.578-4.255-5.746-6.453-9.05-6.013-9.04-12.828-19.286-23.934-21.619-10.5-2.199-20.162 3.872-29.504 9.745-6.135 3.856-12.479 7.844-17.482 8.228s-11.884-2.6-18.534-5.482c-10.125-4.389-20.594-8.927-30.645-5.16-10.619 3.99-15.797 15.158-20.367 25.011-2.9 6.253-5.898 12.719-9.464 15.455-3.82 2.923-11.023 4.236-17.989 5.506-10.584 1.929-22.58 4.116-28.875 13.195-7.276 10.493-3.417 24.43-1.305 36.262-5.633 2.955-10.852 6.769-15.48 11.389-12.04 12.021-18.667 28.003-18.662 45.001.005 16.988 6.635 32.958 18.669 44.969 5.605 5.594 9.531 12.412 11.555 19.845l-33.26 69.988c-1.778 3.741-.187 8.215 3.555 9.993 3.67 1.744 8.197.234 9.993-3.555l21.293-44.807v119.799l-50.236-4.362c-2.382-.302-3.482-2.177-2.536-4.389l16.627-34.987c1.778-3.741.187-8.215-3.555-9.993-3.743-1.778-8.216-.186-9.993 3.555l-16.627 34.987c-5.36 11.023 2.36 24.791 14.785 25.771l51.535 4.475v81.869c0 21.64 17.632 39.245 39.306 39.245h290.491c21.673 0 39.306-17.605 39.306-39.245v-116.335c0-4.142-3.358-7.5-7.5-7.5s-7.5 3.358-7.5 7.5v116.332c0 13.369-10.903 24.245-24.306 24.245h-290.491c-13.402 0-24.306-10.876-24.306-24.245v-236.54c0-15.966-6.229-30.977-17.54-42.266-9.196-9.178-14.262-21.379-14.266-34.356-.004-12.986 5.06-25.197 14.26-34.382 9.22-9.205 21.351-14.263 34.464-14.25h305.264c26.867 0 48.725 21.81 48.725 48.617 0 12.983-5.066 25.19-14.266 34.372-11.311 11.289-17.54 26.299-17.54 42.266v85.208c0 4.142 3.358 7.5 7.5 7.5s7.5-3.358 7.5-7.5v-85.208c0-11.955 4.665-23.194 13.136-31.649 12.039-12.016 18.669-27.994 18.669-44.989.003-16.187-6.093-30.971-16.101-42.211zm-352.886-21.406c-5.234 0-10.37.631-15.326 1.847-1.542-8.126-3.654-17.947-.626-22.314 2.762-3.983 11.138-5.51 19.239-6.986 8.714-1.588 17.726-3.231 24.423-8.357 6.498-4.987 10.285-13.153 13.948-21.05 3.522-7.596 7.165-15.45 12.028-17.277 4.375-1.639 12.018 1.674 19.409 4.879 8.323 3.608 16.919 7.343 25.643 6.676 8.705-.668 16.645-5.658 24.323-10.484 6.821-4.288 13.873-8.722 18.441-7.764 5.095 1.07 9.889 8.277 14.524 15.246 1.807 2.717 3.647 5.476 5.617 8.073-3.859 2.617-7.531 5.559-10.951 8.849-13.614 13.096-22.153 30.167-24.502 48.663h-126.19zm173.92 0c4.499-14.455 18.074-24.891 33.845-24.891s29.346 10.437 33.845 24.891zm83.177 0c-4.858-22.858-25.307-39.891-49.332-39.891s-44.475 17.033-49.332 39.891h-17.094c5.113-33.684 33.159-56.641 66.427-56.641 32.707 0 61.208 22.524 66.417 56.641zm48.168 0h-15.935c-2.349-18.497-10.886-35.566-24.497-48.662-2.426-2.334-4.986-4.484-7.64-6.482 4.617-.988 9.353-1.497 14.182-1.497 36.727 0 66.652 29.541 67.214 66.06-9.703-5.968-21.116-9.419-33.324-9.419zm-241.734 345.049c0 12.888 10.499 23.373 23.403 23.373s23.403-10.485 23.403-23.373c0-12.887-10.499-23.372-23.403-23.372s-23.403 10.485-23.403 23.372zm31.806 0c0 4.617-3.77 8.373-8.403 8.373s-8.403-3.756-8.403-8.373c0-4.616 3.77-8.372 8.403-8.372s8.403 3.756 8.403 8.372zm-72.014-7.5c-12.904 0-23.403 10.485-23.403 23.373 0 12.887 10.499 23.372 23.403 23.372s23.403-10.485 23.403-23.372c0-12.888-10.499-23.373-23.403-23.373zm0 31.745c-4.633 0-8.403-3.756-8.403-8.372 0-4.617 3.77-8.373 8.403-8.373s8.403 3.756 8.403 8.373c0 4.616-3.77 8.372-8.403 8.372zm0-95.233c-12.904 0-23.403 10.485-23.403 23.372 0 12.888 10.499 23.373 23.403 23.373s23.403-10.485 23.403-23.373-10.499-23.372-23.403-23.372zm0 31.744c-4.633 0-8.403-3.756-8.403-8.373 0-4.616 3.77-8.372 8.403-8.372s8.403 3.756 8.403 8.372c0 4.617-3.77 8.373-8.403 8.373z"/></g></svg>