<svg id="Capa_1" enable-background="new 0 0 512.005 512.005" height="512" viewBox="0 0 512.005 512.005" width="512" xmlns="http://www.w3.org/2000/svg"><g><g><g><circle cx="211.003" cy="113.175" fill="#e17f85" r="36"/><circle cx="301.003" cy="113.175" fill="#e17f85" r="36"/><path d="m213.095 77.24c-8.164 9.732-13.093 22.267-13.093 35.935s4.929 26.203 13.093 35.936c18.907-1.085 33.907-16.756 33.907-35.935s-14.999-34.852-33.907-35.936z" fill="#de646e"/><path d="m312.003 113.174c0-13.668-4.928-26.202-13.093-35.935-18.908 1.084-33.907 16.756-33.907 35.935s14.999 34.85 33.907 35.935c8.164-9.732 13.093-22.266 13.093-35.935z" fill="#de646e"/><circle cx="256.003" cy="113.175" fill="#e17f85" r="36"/></g><g><path d="m456.819 434.832h-401.633c-11.718 0-22.379-6.73-27.353-17.267l-20.041-42.46c-.939-1.989.523-4.273 2.735-4.273h490.951c2.212 0 3.674 2.284 2.735 4.273l-20.041 42.46c-4.973 10.537-15.634 17.267-27.353 17.267z" fill="#ecf4ff"/><path d="m501.478 370.832h-30c2.212 0 3.674 2.284 2.735 4.273l-20.041 42.459c-4.974 10.537-15.635 17.267-27.353 17.267h30c11.718 0 22.379-6.73 27.353-17.267l20.041-42.459c.939-1.989-.522-4.273-2.735-4.273z" fill="#ddeafb"/><path d="m429.552 370.832h-347.098c-13.07 0-23.666-10.595-23.666-23.666 0-13.07 10.596-23.666 23.666-23.666h347.098c13.07 0 23.666 10.595 23.666 23.666-.001 13.07-10.596 23.666-23.666 23.666z" fill="#ce9775"/><path d="m429.552 323.5h-30c13.07 0 23.666 10.596 23.666 23.666 0 13.07-10.596 23.666-23.666 23.666h30c13.07 0 23.666-10.596 23.666-23.666-.001-13.07-10.596-23.666-23.666-23.666z" fill="#c6855b"/><path d="m429.552 323.5h-347.098c-13.07 0-23.666-10.595-23.666-23.666 0-13.07 10.596-23.666 23.666-23.666h347.098c13.07 0 23.666 10.595 23.666 23.666-.001 13.071-10.596 23.666-23.666 23.666z" fill="#c6855b"/><path d="m429.552 276.169h-30c13.07 0 23.666 10.596 23.666 23.666s-10.596 23.665-23.666 23.665h30c13.07 0 23.666-10.595 23.666-23.666s-10.596-23.665-23.666-23.665z" fill="#c17e4e"/><path d="m429.552 276.169h-347.098c-13.07 0-23.666-10.595-23.666-23.666 0-13.07 10.596-23.666 23.666-23.666h347.098c13.07 0 23.666 10.596 23.666 23.666-.001 13.07-10.596 23.666-23.666 23.666z" fill="#ce9775"/><path d="m429.552 228.837h-30c13.07 0 23.666 10.596 23.666 23.666 0 13.07-10.596 23.666-23.666 23.666h30c13.07 0 23.666-10.595 23.666-23.666-.001-13.07-10.596-23.666-23.666-23.666z" fill="#c6855b"/><path d="m429.552 228.837h-347.098c-13.07 0-23.666-10.595-23.666-23.666 0-13.07 10.596-23.666 23.666-23.666h347.098c13.07 0 23.666 10.596 23.666 23.666-.001 13.071-10.596 23.666-23.666 23.666z" fill="#c6855b"/><path d="m429.552 181.506h-30c13.07 0 23.666 10.595 23.666 23.666s-10.596 23.666-23.666 23.666h30c13.07 0 23.666-10.595 23.666-23.666s-10.596-23.666-23.666-23.666z" fill="#c17e4e"/><path d="m58.788 157.84c0 13.07 10.596 23.666 23.666 23.666h26.857c15.25 0 27.613 12.363 27.613 27.613v15.765c0 11.755 9.529 21.284 21.284 21.284 11.755 0 21.284-9.529 21.284-21.284v-15.764c0-15.25 12.363-27.613 27.613-27.613 15.25 0 27.613 12.363 27.613 27.613v58.434c0 11.755 9.529 21.284 21.284 21.284 11.755 0 21.284-9.529 21.284-21.284v-58.434c0-15.25 12.363-27.613 27.613-27.613h22.522c15.25 0 27.613 12.363 27.613 27.613v15.765c0 11.755 9.529 21.284 21.284 21.284 11.755 0 21.284-9.529 21.284-21.284v-15.765c0-15.25 12.363-27.613 27.613-27.613h4.335c13.07 0 23.666-10.596 23.666-23.666 0-13.07-10.596-23.666-23.666-23.666h-347.096c-13.071 0-23.666 10.595-23.666 23.665z" fill="#f2d59c"/><g fill="#ecc372"><path d="m177.105 181.506c-15.25 0-27.613 12.363-27.613 27.613v15.765c0 5.902-2.404 11.24-6.284 15.096 3.848 3.824 9.147 6.188 15 6.188 11.755 0 21.284-9.529 21.284-21.284v-15.765c0-9.718 5.025-18.258 12.613-23.179-4.32-2.801-9.468-4.434-15-4.434z"/><path d="m429.552 134.175h-30c13.07 0 23.666 10.596 23.666 23.666 0 13.07-10.596 23.666-23.666 23.666h-4.335c-15.25 0-27.613 12.363-27.613 27.613v15.765c0 5.902-2.404 11.24-6.284 15.096 3.848 3.824 9.147 6.188 15 6.188 11.755 0 21.284-9.529 21.284-21.284v-15.765c0-15.25 12.363-27.613 27.613-27.613h4.335c13.07 0 23.666-10.596 23.666-23.666-.001-13.071-10.596-23.666-23.666-23.666z"/><path d="m297.422 181.506h-22.522c-15.25 0-27.613 12.363-27.613 27.613v58.434c0 5.902-2.404 11.24-6.284 15.096 3.848 3.824 9.147 6.188 15 6.188 11.755 0 21.284-9.529 21.284-21.284v-58.434c0-13.981 10.393-25.528 23.874-27.354-1.223-.166-2.47-.259-3.739-.259z"/></g></g></g><path d="m510.369 368.219c-1.939-3.06-5.263-4.887-8.891-4.887h-45.291c2.873-4.716 4.53-10.251 4.53-16.166 0-9.456-4.239-17.935-10.909-23.655 6.915-5.935 10.904-14.588 10.904-23.678 0-9.46-4.243-17.942-10.919-23.662 6.679-5.721 10.924-14.206 10.924-23.668 0-9.457-4.24-17.938-10.913-23.658 6.914-5.935 10.908-14.572 10.908-23.672 0-9.462-4.242-17.946-10.917-23.667 6.677-5.721 10.921-14.205 10.921-23.666 0-17.185-13.981-31.166-31.166-31.166h-87.18c1.407-4.314 2.132-8.855 2.132-13.501 0-23.986-19.514-43.5-43.5-43.5-7.935 0-15.744 2.206-22.502 6.283-6.568-3.985-14.27-6.283-22.498-6.283s-15.93 2.297-22.498 6.283c-6.757-4.077-14.567-6.283-22.502-6.283-23.986 0-43.5 19.514-43.5 43.5 0 4.646.726 9.187 2.133 13.502h-87.181c-17.185 0-31.166 13.98-31.166 31.165 0 9.456 4.239 17.935 10.909 23.655-6.95 5.947-10.904 14.538-10.904 23.678 0 9.46 4.243 17.942 10.919 23.662-6.679 5.721-10.924 14.206-10.924 23.668 0 9.457 4.24 17.938 10.913 23.658-6.946 5.947-10.908 14.522-10.908 23.672 0 9.462 4.242 17.946 10.917 23.667-6.678 5.721-10.921 14.205-10.921 23.666 0 5.915 1.657 11.45 4.53 16.166h-45.292c-3.628 0-6.951 1.827-8.891 4.887-1.934 3.05-2.168 6.82-.627 10.087l20.042 42.46c6.183 13.101 19.581 21.566 34.135 21.566h401.633c14.554 0 27.952-8.466 34.135-21.566l20.043-42.461c1.54-3.266 1.305-7.036-.628-10.086zm-209.366-283.546c15.715 0 28.5 12.785 28.5 28.5 0 4.779-1.183 9.378-3.414 13.501h-28.719c1.407-4.314 2.133-8.855 2.133-13.501 0-9.957-3.37-19.137-9.02-26.477 3.311-1.319 6.85-2.023 10.52-2.023zm-45 0c15.715 0 28.5 12.785 28.5 28.5 0 4.779-1.183 9.378-3.414 13.501h-50.173c-2.23-4.124-3.414-8.722-3.414-13.501.001-15.715 12.786-28.5 28.501-28.5zm-45 0c3.669 0 7.209.704 10.52 2.023-5.649 7.339-9.02 16.52-9.02 26.477 0 4.646.726 9.187 2.133 13.501h-28.719c-2.231-4.124-3.414-8.722-3.414-13.501 0-15.715 12.785-28.5 28.5-28.5zm-128.549 57.002 347.098-.001c8.914 0 16.166 7.252 16.166 16.166 0 8.901-7.231 16.143-16.127 16.164-.013 0-.025-.001-.038-.001-.02 0-.038.003-.058.003-21.061 0-39.389 13.904-39.391 35.113v15.766c0 7.601-6.184 13.784-13.784 13.784s-13.784-6.184-13.784-13.784v-15.766c0-19.361-15.752-35.113-35.113-35.113h-22.523c-19.361 0-35.113 15.752-35.113 35.113v58.435c0 7.601-6.184 13.784-13.784 13.784-7.601 0-13.784-6.184-13.784-13.784.024-.03 0-58.435 0-58.435 0-19.361-15.752-35.113-35.113-35.113s-35.113 15.752-35.113 35.113v15.766c0 7.601-6.184 13.784-13.784 13.784s-13.784-6.184-13.784-13.784v-15.766c0-19.361-15.752-35.113-35.113-35.113h-26.801c-.02 0-.038-.003-.058-.003-.013 0-.026.001-.038.001-8.896-.021-16.127-7.263-16.127-16.164 0-8.913 7.252-16.165 16.166-16.165zm229.829 94.658h37.633c4.436 10.19 14.598 17.336 26.403 17.336s21.968-7.146 26.403-17.336h26.752c.026 0 .051.004.077.004 8.914 0 16.166 7.252 16.166 16.166s-7.252 16.166-16.166 16.166c-.026 0-.051.004-.077.004h-144.716c.046-1.015.028-58.442.028-59.554 0-11.091 9.022-20.113 20.113-20.113h22.521c11.091 0 20.113 9.022 20.113 20.113v12.214h-35.252c-4.143 0-7.5 3.357-7.5 7.5s3.359 7.5 7.502 7.5zm92.82-15v-12.214c.009-13.522 11.815-20.113 24.448-20.113.013 0 .026-.001.039-.001 8.893.021 16.122 7.265 16.122 16.168 0 4.316-1.681 8.375-4.732 11.427-3.053 3.053-7.111 4.733-11.428 4.733zm-177.885-12.214v12.214h-40.227v-12.214c0-11.091 9.022-20.113 20.113-20.113s20.114 9.023 20.114 20.113zm-97.794 0v12.214h-46.971c-8.911 0-16.16-7.249-16.16-16.16 0-8.792 7.339-16.168 16.121-16.168.013 0 .027.001.04.001h26.856c11.091 0 20.114 9.023 20.114 20.113zm-46.97 27.218c.026 0 .051-.004.077-.004h49.273c4.436 10.19 14.598 17.336 26.403 17.336s21.968-7.146 26.403-17.336h42.607c.014 1.097-.026 31.335.028 32.34h-144.714c-.026 0-.051-.004-.077-.004-8.914 0-16.166-7.252-16.166-16.166s7.252-16.166 16.166-16.166zm-.039 94.665c.013 0 .025.001.038.001h130.814c4.143 0 7.5-3.357 7.5-7.5s-3.357-7.5-7.5-7.5h-130.755c-.02 0-.038-.003-.058-.003-.013 0-.026.001-.039.001-8.893-.021-16.122-7.265-16.122-16.168 0-8.805 7.367-16.199 16.16-16.16h149.714c5.181 7.637 13.932 12.665 23.836 12.665s18.655-5.028 23.836-12.665h149.714c8.911 0 16.16 7.249 16.16 16.16 0 8.745-7.359 16.168-16.121 16.168-.013 0-.027-.001-.04-.001-.02 0-.038.003-.058.003h-181.227c-4.143 0-7.5 3.357-7.5 7.5s3.357 7.5 7.5 7.5h181.285c.013 0 .026-.001.038-.001 8.896.021 16.127 7.263 16.127 16.164 0 8.914-7.252 16.166-16.166 16.166h-347.097c-8.914 0-16.166-7.252-16.166-16.166 0-8.901 7.231-16.142 16.127-16.164zm394.974 83.362c-3.718 7.878-11.792 12.969-20.57 12.969h-401.633c-8.778 0-16.853-5.091-20.57-12.969l-17.007-36.031h476.787z"/></g></svg>