<svg id="Capa_1" enable-background="new 0 0 499.843 499.843" height="512" viewBox="0 0 499.843 499.843" width="512" xmlns="http://www.w3.org/2000/svg"><g><g><g><g><g><path d="m454.16 269.425c17.663-11.933 29.275-32.14 29.275-55.06 0-21.952-10.849-42.485-28.984-54.855l-71.121-48.512c-2.224-1.517-5.15-1.517-7.374 0l-71.121 48.512c-18.135 12.37-28.984 32.903-28.984 54.855 0 22.92 11.613 43.128 29.275 55.06z" fill="#f2d59c"/></g><path d="m454.451 159.509-71.121-48.512c-2.224-1.517-5.15-1.517-7.374 0l-11.313 7.717 59.808 40.795c18.135 12.37 28.984 32.903 28.984 54.855 0 22.92-11.613 43.128-29.275 55.061h30c17.663-11.933 29.275-32.141 29.275-55.061 0-21.952-10.849-42.485-28.984-54.855z" fill="#ecc372"/></g></g><g><g><g><path d="m45.71 269.425c-17.663-11.933-29.275-32.14-29.275-55.06 0-21.952 10.849-42.485 28.984-54.855l71.121-48.512c2.224-1.517 5.15-1.517 7.374 0l71.121 48.512c18.135 12.37 28.984 32.903 28.984 54.855 0 22.92-11.613 43.128-29.275 55.06z" fill="#f2d59c"/></g><path d="m194.243 158.97-70.33-47.972c-2.224-1.517-5.15-1.517-7.374 0l-11.313 7.717 10.153 6.925c7.08 4.829 8.703 14.591 3.551 21.44-10.59 14.076-25.902 37.464-25.902 55.023 0 28.024 14.199 52.732 35.795 67.322h35.92 30c17.58-11.877 29.167-31.952 29.275-54.74.106-22.326-11.331-43.135-29.775-55.715z" fill="#ecc372"/></g></g><g><g><path d="m158.824 269.425c-21.596-14.59-35.795-39.298-35.795-67.322 0-26.84 13.265-51.946 35.439-67.071l86.959-59.315c2.719-1.855 6.297-1.855 9.016 0l86.959 59.315c22.173 15.124 35.439 40.23 35.439 67.071 0 28.024-14.199 52.732-35.795 67.322z" fill="#f2d59c"/></g><path d="m341.402 135.032-86.959-59.315c-2.719-1.855-6.297-1.855-9.016 0l-10.492 7.157 76.467 52.158c22.173 15.125 35.439 40.23 35.439 67.071 0 28.024-14.199 52.732-35.795 67.322h30c21.596-14.59 35.795-39.298 35.795-67.322 0-26.841-13.265-51.947-35.439-67.071z" fill="#ecc372"/></g><path d="m414.8 368.425h-329.73c-23.529 0-44.886-13.752-54.622-35.172l-21.944-48.276c-3.31-7.283 2.014-15.552 10.014-15.552h462.834c8 0 13.325 8.269 10.014 15.552l-21.944 48.276c-9.736 21.42-31.093 35.172-54.622 35.172z" fill="#ecf4ff"/><path d="m481.352 269.425h-30c8 0 13.324 8.269 10.014 15.552l-21.944 48.276c-9.736 21.419-31.093 35.172-54.622 35.172h30c23.529 0 44.886-13.752 54.622-35.172l21.944-48.276c3.31-7.283-2.014-15.552-10.014-15.552z" fill="#ddeafb"/><path d="m373.38 425.537h-246.89c-16.569 0-30-13.431-30-30v-27.112h306.89v27.112c0 16.568-13.431 30-30 30z" fill="#cbe2ff"/><path d="m373.38 368.425v27.112c0 16.568-13.431 30-30 30h30c16.569 0 30-13.432 30-30v-27.112z" fill="#bed8fb"/></g><path d="m481.352 261.925h-7.752c11.069-13.156 17.335-29.926 17.335-47.563 0-7.731-1.205-15.378-3.582-22.729-1.274-3.941-5.5-6.104-9.443-4.829-3.941 1.274-6.104 5.502-4.829 9.443 1.894 5.858 2.854 11.953 2.854 18.115 0 18.861-8.993 36.475-24.162 47.563h-90.65c14.78-16.17 23.218-37.412 23.218-59.822 0-25.861-11.246-50.2-30.508-66.932l25.807-17.604 32.37 22.076c2.074 8.306 2.514 16.584 1.27 24.643-1.694 10.959-6.434 21.29-14.086 30.706-2.612 3.214-2.125 7.938 1.09 10.55 3.196 2.597 7.925 2.14 10.55-1.09 9.353-11.508 15.163-24.251 17.27-37.875.788-5.1 1.036-10.256.763-15.438l21.362 14.569c2.135 1.457 4.195 3.07 6.122 4.798 3.075 2.756 7.819 2.513 10.591-.58 2.764-3.084 2.505-7.826-.58-10.59-2.417-2.167-5.001-4.192-7.681-6.02-18.662-12.728-52.776-35.942-71.119-48.502-4.802-3.288-11.016-3.292-15.833-.007l-30.664 20.917c-21.233-13.25-61.715-42.094-82.395-56.202-5.307-3.62-12.164-3.62-17.468 0l-82.395 56.202-30.667-20.919c-4.814-3.282-11.028-3.278-15.82.001-17.783 12.171-53.338 36.375-71.13 48.511-9.898 6.751-18.091 15.921-23.696 26.523-5.599 10.601-8.558 22.539-8.558 34.522 0 17.638 6.266 34.407 17.335 47.563h-7.752c-13.353-.125-22.428 14.096-16.843 26.155l21.944 48.276c10.926 24.037 35.046 39.568 61.45 39.568h3.92v19.612c0 20.678 16.822 37.5 37.5 37.5h246.89c20.678 0 37.5-16.822 37.5-37.5v-19.612h3.92c26.403 0 50.524-15.532 61.45-39.568l21.944-48.276c5.583-12.04-3.753-26.258-16.842-26.155zm-318.658-120.697 28.967-19.758c-.664 7.372-.446 14.708.672 21.949 2.833 18.327 11.582 35.875 25.299 50.749 2.814 3.051 7.56 3.23 10.598.429 3.045-2.808 3.237-7.553.429-10.598-8.151-8.839-18.499-23.452-21.501-42.87-1.586-10.272-1.004-20.823 1.719-31.4l40.778-27.814c.171-.117.391-.116.563 0l40.217 27.432c3.208 11.284 3.977 22.542 2.279 33.502-3.002 19.419-13.35 34.032-21.501 42.872-2.808 3.045-2.616 7.79.429 10.598 3.039 2.802 7.784 2.623 10.598-.429 13.717-14.875 22.465-32.423 25.298-50.747 1.215-7.848 1.379-15.8.501-23.788l29.138 19.875c20.14 13.738 32.165 36.495 32.165 60.875 0 23.769-11.417 45.964-30.653 59.822h-177.507c-19.236-13.858-30.653-36.053-30.653-59.822 0-24.382 12.025-47.14 32.165-60.877zm-138.759 73.133c0-9.551 2.359-19.067 6.82-27.515 4.467-8.449 10.998-15.759 18.885-21.139l21.363-14.569c-.274 5.182-.025 10.338.763 15.439 2.106 13.623 7.917 26.366 17.27 37.874 2.625 3.23 7.355 3.687 10.55 1.09 3.215-2.612 3.703-7.336 1.09-10.55-7.652-9.417-12.392-19.747-14.086-30.705-1.244-8.06-.804-16.338 1.27-24.645l32.37-22.076 25.807 17.604c-19.262 16.732-30.508 41.071-30.508 66.932 0 22.411 8.437 43.652 23.218 59.822h-90.65c-15.169-11.086-24.162-28.701-24.162-47.562zm460.603 67.512-21.944 48.276c-8.498 18.695-27.259 30.775-47.794 30.775h-248.222c-4.142 0-7.5 3.358-7.5 7.5s3.358 7.5 7.5 7.5h229.302v19.612c0 12.407-10.093 22.5-22.5 22.5h-246.89c-12.407 0-22.5-10.093-22.5-22.5v-19.612h27.588c4.142 0 7.5-3.358 7.5-7.5s-3.358-7.5-7.5-7.5h-46.508c-20.536 0-39.296-12.08-47.794-30.775l-21.944-48.276c-1.057-2.597.356-4.841 3.187-4.948h462.834c2.878.131 4.229 2.342 3.185 4.948z"/></g></svg>