<svg id="Capa_1" enable-background="new 0 0 512 512" height="512" viewBox="0 0 512 512" width="512" xmlns="http://www.w3.org/2000/svg"><g><g><path d="m327.867 191.149-7.071-7.071 150.79-170.289c7.189-8.119 19.733-8.499 27.401-.831 7.668 7.668 7.287 20.212-.831 27.401z" fill="#544f56"/><path d="m184.133 191.149 7.071-7.071-150.79-170.289c-7.189-8.119-19.733-8.499-27.401-.831-7.668 7.668-7.287 20.212.831 27.401z" fill="#544f56"/><path d="m425.597 239.651c25.801 2.009 48.284-17.676 49.521-43.714 1.144-24.088-16.937-45.236-40.909-47.87-2.327-.256-4.629-.332-6.893-.241-4.954.199-9.26-3.16-10.256-8.017-2.648-12.918-13.545-23.172-27.475-24.257-1.232-.096-2.452-.116-3.657-.064-3.048.13-6.033-1.077-8.013-3.399-7.653-8.972-18.728-15.022-31.414-16.01-1.796-.14-3.576-.173-5.333-.106-5.013.191-9.342-3.226-10.37-8.136-2.691-12.86-13.565-23.053-27.45-24.134-11.103-.864-21.276 4.339-27.264 12.821-2.984 4.227-8.802 5.354-13.252 2.715-5.864-3.477-12.594-5.699-19.851-6.264-14.187-1.104-27.367 4.353-36.566 13.817-3.128 3.218-8.115 3.874-11.983 1.599-3.861-2.271-8.284-3.721-13.051-4.093-9.585-.746-18.479 3.029-24.585 9.532-2.685 2.859-6.721 4.116-10.458 2.927-3.299-1.05-6.768-1.742-10.369-2.022-23.62-1.839-44.378 14.504-48.723 37.106-.704 3.661-3.269 6.72-6.842 7.785-23.476 7.002-41.373 27.84-43.389 53.725-2.615 33.588 22.494 62.936 56.081 65.551z" fill="#f7f6f7"/><path d="m80.407 169.626c3.573-1.065 6.138-4.125 6.842-7.786 4.345-22.602 25.103-38.945 48.723-37.106 3.601.28 7.07.972 10.369 2.022 3.737 1.189 7.773-.067 10.458-2.927 6.106-6.503 15-10.278 24.585-9.532 4.767.371 9.19 1.822 13.051 4.093 3.868 2.275 8.855 1.619 11.983-1.599 9.199-9.464 22.379-14.921 36.566-13.817 7.257.565 13.986 2.787 19.851 6.264 4.451 2.639 10.268 1.512 13.252-2.715 5.988-8.482 16.16-13.686 27.264-12.821 13.885 1.081 24.758 11.273 27.45 24.134 1.028 4.91 5.357 8.328 10.37 8.137 1.757-.067 3.537-.034 5.333.106 12.686.988 23.761 7.038 31.414 16.01 1.98 2.321 4.964 3.529 8.013 3.399 1.204-.051 2.424-.032 3.657.064 13.93 1.084 24.827 11.339 27.475 24.256.996 4.857 5.302 8.216 10.256 8.018 2.265-.091 4.566-.015 6.893.241 18.04 1.982 32.741 14.451 38.425 30.767 1.401-4.056 2.269-8.377 2.483-12.896 1.144-24.088-16.937-45.236-40.909-47.87-2.327-.256-4.629-.332-6.893-.241-4.954.199-9.26-3.161-10.256-8.018-2.648-12.917-13.545-23.172-27.475-24.256-1.232-.096-2.452-.116-3.657-.064-3.048.13-6.033-1.078-8.013-3.399-7.653-8.972-18.728-15.022-31.414-16.01-1.796-.14-3.576-.173-5.333-.106-5.013.191-9.343-3.227-10.37-8.137-2.691-12.86-13.565-23.053-27.45-24.134-11.103-.865-21.276 4.339-27.264 12.821-2.984 4.227-8.802 5.354-13.252 2.715-5.864-3.478-12.594-5.699-19.851-6.264-14.187-1.104-27.367 4.353-36.566 13.817-3.128 3.218-8.115 3.874-11.983 1.599-3.861-2.271-8.284-3.722-13.051-4.093-9.585-.746-18.479 3.029-24.585 9.532-2.685 2.859-6.721 4.116-10.458 2.927-3.299-1.05-6.768-1.742-10.369-2.022-23.62-1.839-44.378 14.504-48.723 37.106-.704 3.661-3.269 6.72-6.842 7.786-23.476 7.002-41.373 27.84-43.389 53.726-.531 6.817.098 13.453 1.69 19.732 5.314-21.033 21.421-37.411 41.7-43.459z" fill="#edebed"/><g><path d="m372.181 450.579-11.181 8.866h-210l-11.181-8.866c-64.636-51.254-102.319-129.226-102.319-211.717h437c0 82.491-37.683 160.463-102.319 211.717z" fill="#ecf4ff"/><path d="m444.5 238.862c0 82.491-37.683 160.463-102.319 211.717l-11.181 8.866h30l11.181-8.866c64.636-51.254 102.319-129.226 102.319-211.717z" fill="#ddeafb"/><path d="m136 504.445h240c12.426 0 22.5-10.074 22.5-22.5 0-12.426-10.074-22.5-22.5-22.5h-240c-12.426 0-22.5 10.074-22.5 22.5 0 12.426 10.074 22.5 22.5 22.5z" fill="#cbe2ff"/><path d="m376 459.445h-30c12.426 0 22.5 10.074 22.5 22.5 0 12.426-10.074 22.5-22.5 22.5h30c12.426 0 22.5-10.074 22.5-22.5 0-12.426-10.074-22.5-22.5-22.5z" fill="#bed8fb"/><path d="m30.091 253.862h451.818c12.477 0 22.591-10.074 22.591-22.5 0-12.426-10.114-22.5-22.591-22.5h-451.818c-12.477 0-22.591 10.074-22.591 22.5 0 12.426 10.114 22.5 22.591 22.5z" fill="#cbe2ff"/><path d="m481.909 208.862h-30c12.477 0 22.591 10.074 22.591 22.5s-10.114 22.5-22.591 22.5h30c12.477 0 22.591-10.074 22.591-22.5s-10.114-22.5-22.591-22.5z" fill="#bed8fb"/></g></g><path d="m184.067 112.905c-2.929-2.928-7.678-2.928-10.606 0-2.929 2.93-2.929 7.678 0 10.607l14.473 14.473c2.929 2.928 7.678 2.929 10.606 0 2.929-2.93 2.929-7.678 0-10.607zm-46.134 45-14.473 14.473c-2.929 2.93-2.929 7.678 0 10.607 2.928 2.929 7.677 2.928 10.606 0l14.473-14.473c2.929-2.93 2.929-7.678 0-10.607-2.928-2.928-7.677-2.928-10.606 0zm344.188 43.462c.238-1.674.407-3.367.491-5.078 1.331-28.138-19.569-52.595-47.602-55.682-2.683-.288-5.371-.38-7.993-.277-1.284.06-2.354-.785-2.611-2.033-1.225-5.969-3.857-11.401-7.504-15.971l86.231-76.358c11.229-9.861 11.628-27.86 1.156-38.32-10.585-10.573-28.501-10.025-38.315 1.165l-84.788 95.753c-9.07-9.307-21.043-14.949-34.104-15.969-2.052-.159-4.144-.2-6.197-.116-1.348.043-2.466-.85-2.746-2.182-3.432-16.406-17.499-28.771-34.205-30.071-13.271-1.044-26.293 5.081-33.971 15.968-.7.99-2.185 1.254-3.314.586-7.091-4.199-14.861-6.65-23.091-7.284-15.896-1.234-31.398 4.624-42.51 16.061-.716.735-1.93.894-2.806.379-4.988-2.946-10.467-4.669-16.288-5.12-11.55-.897-22.707 3.438-30.621 11.87-.786.834-1.854 1.201-2.723.92-3.896-1.239-7.954-2.029-12.061-2.35-6.682-.523-13.191.21-19.288 2.003l-71.236-80.448c-9.874-11.263-27.786-11.678-38.326-1.154s-10.145 28.385 1.169 38.311l76.996 68.176c-2.802 4.943-4.853 10.411-5.977 16.271-.192.992-.825 1.785-1.62 2.021-26.967 8.039-46.548 32.287-48.725 60.34-.222 2.872-.262 5.746-.127 8.602-16.28.359-29.415 13.666-29.415 29.982 0 16.798 14.028 30.488 30.919 30 6.039 74.418 41.913 143.418 99.384 191.132-13.826 2.67-24.303 14.857-24.303 29.451 0 16.542 13.458 30 30 30h240c16.542 0 30-13.458 30-30 0-14.591-10.473-26.776-24.294-29.449 21.21-17.608 39.611-38.183 54.747-61.243 2.273-3.463 1.309-8.112-2.154-10.385-3.464-2.273-8.112-1.309-10.386 2.154-15.404 23.467-34.377 44.218-56.395 61.678l-9.132 7.245h-204.773l-9.134-7.247c-56.733-44.977-92.331-111.439-98.502-183.336h43.483c4.142 0 7.5-3.357 7.5-7.5s-3.358-7.5-7.5-7.5h-59.369c-8.321 0-15.091-6.729-15.091-15s6.77-15 15.091-15h451.818c8.321 0 15.091 6.729 15.091 15s-6.77 15-15.091 15h-357.449c-4.142 0-7.5 3.357-7.5 7.5s3.358 7.5 7.5 7.5h341.562c-2.726 31.962-11.178 62.812-25.194 91.81-1.803 3.729-.241 8.214 3.489 10.017 3.659 1.769 8.191.287 10.016-3.489 15.004-31.043 23.99-64.091 26.752-98.337 16.83.319 30.915-13.062 30.915-30 0-16.472-13.384-29.881-29.879-29.996zm-106.121 265.578c8.271 0 15 6.729 15 15s-6.729 15-15 15h-240c-8.271 0-15-6.729-15-15s6.729-15 15-15zm101.205-448.188c4.216-4.832 11.937-5.039 16.474-.506 4.531 4.527 4.349 12.255-.491 16.489l-87.899 77.835c-2.586-1.41-5.346-2.525-8.232-3.305zm-458.391 15.985c-4.837-4.236-5.046-11.943-.504-16.48 4.544-4.54 12.243-4.347 16.486.496l68.26 77.083c-2.863 1.876-5.542 4.022-7.996 6.412zm448.815 160.829c-.096 1.968-.341 3.901-.718 5.791h-422.462c-.149-2.463-.143-4.944.049-7.427 1.701-21.906 16.994-40.844 38.047-47.12 6.179-1.835 10.804-7.023 12.071-13.556 3.71-19.121 21.294-32.564 40.772-31.047 2.959.23 5.879.799 8.677 1.688 6.335 2.02 13.48.079 18.203-4.943 4.792-5.105 11.548-7.729 18.531-7.186 3.515.272 6.817 1.31 9.836 3.093 6.889 4.039 15.587 2.874 21.164-2.844 8.005-8.24 19.161-12.457 30.604-11.568 5.922.457 11.509 2.218 16.6 5.232 7.821 4.641 18.017 2.518 23.216-4.838 4.648-6.591 12.52-10.305 20.549-9.665 10.107.786 18.615 8.266 20.691 18.192 1.783 8.495 9.366 14.434 18.01 14.095 1.486-.06 2.982-.031 4.447.083 10.263.801 19.603 5.561 26.288 13.389 3.458 4.068 8.572 6.273 14.037 6.037 11.107-.48 21.212 7.358 23.473 18.339 1.742 8.462 9.292 14.347 17.904 14.002 1.886-.074 3.835-.007 5.771.201 20.157 2.221 35.197 19.818 34.24 40.052zm-239.696-37.666-14.473 14.473c-2.929 2.93-2.929 7.678 0 10.607 2.928 2.929 7.677 2.928 10.606 0l14.473-14.473c2.929-2.93 2.929-7.678 0-10.607-2.928-2.928-7.677-2.928-10.606 0zm146.134-15c-2.929-2.928-7.678-2.928-10.606 0-2.929 2.93-2.929 7.678 0 10.607l14.473 14.473c2.929 2.928 7.678 2.929 10.606 0 2.929-2.93 2.929-7.678 0-10.607zm-56.134 15-14.473 14.473c-2.929 2.93-2.929 7.678 0 10.607 2.928 2.929 7.677 2.928 10.606 0l14.473-14.473c2.929-2.93 2.929-7.678 0-10.607-2.928-2.928-7.677-2.928-10.606 0zm-30-45-14.473 14.473c-2.929 2.93-2.929 7.678 0 10.607 2.928 2.929 7.677 2.928 10.606 0l14.473-14.473c2.929-2.93 2.929-7.678 0-10.607-2.928-2.928-7.677-2.928-10.606 0z"/></g></svg>