<svg id="Capa_1" enable-background="new 0 0 512 512" height="512" viewBox="0 0 512 512" width="512" xmlns="http://www.w3.org/2000/svg"><g><g><circle cx="256" cy="256" fill="#ddeafb" r="248.5"/><g><g><g><path d="m279.833 263.506c-4.863-1.132-7.281-6.624-4.801-10.958 9.924-17.349 22.176-36.355 37.271-56.031 18.101-23.595 36.397-43.077 53.085-58.862 2.869-2.714 7.344-2.731 10.232-.037 16.561 15.448 34.835 34.694 52.894 58.186 15.369 19.994 27.682 39.291 37.524 56.772 2.437 4.329.022 9.783-4.816 10.911-23.402 5.455-52.883 10.105-87.006 10.423-37.394.349-69.478-4.605-94.383-10.404z" fill="#f2e0bf"/><g fill="#f2d59c"><path d="m466.04 252.579c-9.842-17.482-22.156-36.78-37.526-56.776-18.071-23.509-36.358-42.765-52.928-58.218-2.876-2.682-7.339-2.635-10.196.067-3.213 3.039-6.487 6.219-9.807 9.535 13.784 13.623 28.426 29.747 42.93 48.616 5.741 7.468 11.055 14.839 15.974 22.055 14.336 21.032 1.305 49.728-23.948 52.915-10.947 1.381-22.641 2.397-35.005 2.863 6.07.228 12.292.333 18.681.274 34.124-.318 63.607-4.968 87.009-10.424 4.838-1.127 7.252-6.579 4.816-10.907z"/><path d="m421.585 270.644c-.156-.093-.311-.187-.476-.27l-57.993-29.106c-1.856-.927-3.042-2.867-3.021-5.019v-93.508c-4.897 4.77-9.91 9.85-15 15.25l.001 78.182c-.08 7.776 4.364 15.044 11.306 18.509l37.025 18.583c9.858-.568 19.259-1.473 28.158-2.621z"/></g></g><g><path d="m50.787 263.506c-4.863-1.132-7.281-6.624-4.801-10.958 9.924-17.349 22.177-36.355 37.271-56.031 18.101-23.595 36.397-43.077 53.085-58.862 2.869-2.714 7.344-2.731 10.232-.037 16.561 15.448 34.835 34.694 52.894 58.186 15.369 19.994 27.682 39.291 37.524 56.772 2.437 4.329.022 9.783-4.816 10.911-23.402 5.455-52.883 10.105-87.006 10.423-37.394.349-69.479-4.605-94.383-10.404z" fill="#f2e0bf"/><g fill="#f2d59c"><path d="m236.995 252.582c-9.842-17.483-22.157-36.782-37.528-56.779-18.072-23.51-36.359-42.766-52.93-58.219-2.875-2.681-7.336-2.634-10.192.067-3.214 3.04-6.488 6.22-9.808 9.537 13.784 13.623 28.426 29.747 42.93 48.616 5.74 7.468 11.054 14.838 15.973 22.053 14.337 21.032 1.305 49.73-23.948 52.917-10.947 1.381-22.64 2.397-35.003 2.863 6.07.228 12.292.333 18.681.274 34.126-.318 63.61-4.969 87.013-10.425 4.834-1.127 7.247-6.578 4.812-10.904z"/><path d="m192.329 270.669-58.259-29.401c-1.856-.927-3.042-2.866-3.021-5.019l-.001-93.508c-4.897 4.77-9.91 9.85-15 15.25l.001 78.181c-.081 7.776 4.363 15.044 11.291 18.503l36.859 18.602c9.849-.563 19.238-1.465 28.13-2.608z"/></g></g></g><g><path d="m159.716 189.323c-5.432-1.265-8.131-7.397-5.362-12.238 11.083-19.375 24.767-40.602 41.625-62.576 20.216-26.351 40.648-48.109 59.286-65.738 3.204-3.031 8.201-3.05 11.427-.041 18.496 17.252 38.905 38.746 59.073 64.983 17.164 22.329 30.916 43.881 41.907 63.404 2.722 4.835.025 10.926-5.379 12.186-26.135 6.092-59.061 11.285-97.169 11.64-41.762.389-77.594-5.144-105.408-11.62z" fill="#eecb81"/><g fill="#ecc372"><path d="m367.674 177.12c-10.992-19.524-24.744-41.077-41.909-63.408-20.169-26.239-40.58-47.733-59.077-64.987-3.222-3.005-8.213-2.991-11.414.037-3.026 2.862-6.104 5.845-9.216 8.926 15.905 15.574 32.887 34.144 49.706 56.024 8.915 11.597 16.909 22.984 24.074 33.987 12.456 19.128 1.069 44.696-21.496 48.138-15.921 2.428-33.441 4.22-52.342 4.858 6.231.21 12.596.309 19.125.248 38.111-.355 71.038-5.549 97.173-11.642 5.401-1.259 8.097-7.348 5.376-12.181z"/><path d="m317.558 197.352-65.221-32.08c-2.372-1.184-3.887-3.662-3.859-6.39v-103.581c-4.908 4.802-9.919 9.881-15 15.247l.001 88.256c-.086 8.35 4.686 16.156 12.198 19.907l43.406 21.35c9.925-.627 19.435-1.553 28.475-2.709z"/></g></g></g><path d="m256 7.5c-5.038 0-10.036.168-15 .463 130.256 7.758 233.5 115.832 233.5 248.037s-103.244 240.279-233.5 248.037c4.964.295 9.962.463 15 .463 137.243 0 248.5-111.257 248.5-248.5s-111.257-248.5-248.5-248.5z" fill="#cbe2ff"/><g><g><g><g><circle cx="165.326" cy="374.845" fill="#b3e59f" r="60.674"/></g></g><path d="m165.326 314.171c-5.176 0-10.201.655-15 1.88 26.224 6.694 45.674 30.513 45.674 58.794s-19.45 52.1-45.674 58.794c4.799 1.225 9.824 1.879 15 1.879 33.456 0 60.674-27.218 60.674-60.674 0-33.455-27.218-60.673-60.674-60.673z" fill="#95d6a4"/><g><g><circle cx="165.326" cy="374.845" fill="#95d6a4" r="21.403"/></g></g></g><g><g><g><circle cx="346.674" cy="374.845" fill="#e17f85" r="60.674"/></g></g><path d="m346.674 314.171c-5.176 0-10.201.655-15 1.88 26.224 6.694 45.674 30.514 45.674 58.794s-19.45 52.1-45.674 58.794c4.799 1.225 9.824 1.879 15 1.879 33.456 0 60.674-27.218 60.674-60.674 0-33.455-27.218-60.673-60.674-60.673z" fill="#de646e"/><g><g><circle cx="346.674" cy="374.845" fill="#de646e" r="21.403"/></g></g></g></g></g><path d="m165.326 345.942c-15.938 0-28.903 12.966-28.903 28.903s12.966 28.903 28.903 28.903 28.903-12.966 28.903-28.903-12.966-28.903-28.903-28.903zm0 42.807c-7.667 0-13.903-6.237-13.903-13.903s6.237-13.903 13.903-13.903 13.903 6.237 13.903 13.903-6.237 13.903-13.903 13.903zm0-82.078c-37.591 0-68.174 30.583-68.174 68.174s30.583 68.174 68.174 68.174 68.174-30.583 68.174-68.174-30.583-68.174-68.174-68.174zm0 121.348c-29.32 0-53.174-23.854-53.174-53.174s23.854-53.174 53.174-53.174 53.174 23.854 53.174 53.174-23.854 53.174-53.174 53.174zm271.694-353.039c-48.353-48.351-112.64-74.98-181.02-74.98s-132.667 26.629-181.02 74.98c-48.351 48.353-74.98 112.64-74.98 181.02s26.629 132.667 74.98 181.02c48.353 48.351 112.64 74.98 181.02 74.98s132.667-26.629 181.02-74.98c48.351-48.353 74.98-112.64 74.98-181.02s-26.629-132.667-74.98-181.02zm-10.607 351.433c-45.519 45.519-106.039 70.587-170.413 70.587s-124.894-25.068-170.413-70.587-70.587-106.039-70.587-170.413 25.068-124.894 70.587-170.413 106.039-70.587 170.413-70.587 124.894 25.068 170.413 70.587 70.587 106.039 70.587 170.413-25.068 124.894-70.587 170.413zm46.164-177.51c-11.244-19.986-24.069-39.39-38.12-57.673-16.165-21.037-34.239-40.918-53.717-59.09-5.76-5.382-14.765-5.358-20.503.061-2.386 2.256-4.764 4.554-7.121 6.874-6.805-10.228-13.93-20.207-21.406-29.933-18.068-23.505-38.208-45.666-59.904-65.897-.002-.001-.004-.003-.005-.004s-.002-.002-.004-.003c-6.098-5.688-15.623-5.652-21.685.083-4.547 4.301-9.067 8.707-13.467 13.176-.023.023-.043.049-.065.073-8.328 8.424-16.415 17.121-24.154 25.999-2.722 3.122-2.397 7.86.725 10.582 3.121 2.723 7.859 2.397 10.582-.725 3.447-3.954 6.972-7.867 10.55-11.74l-.804 78.122c-.086 8.35 4.686 16.156 12.157 19.887l29.126 14.543c-38.052 1.208-76.225-2.573-113.345-11.216-.398-.093-.772-.827-.553-1.209 12.244-21.406 26.061-42.177 41.065-61.736 2.521-3.286 1.901-7.994-1.386-10.516-3.286-2.521-7.994-1.9-10.516 1.386-8.725 11.374-17.042 23.157-24.914 35.22-4.397-4.428-8.894-8.794-13.415-13.014-5.757-5.397-14.765-5.376-20.514.053-4.008 3.785-8.586 8.305-12.414 12.185-14.785 14.986-28.695 30.922-41.461 47.566-13.815 17.996-26.543 37.131-37.828 56.869-4.866 8.511-.019 19.754 9.609 21.993 30.301 7.046 61.354 10.613 92.37 10.613 31.039 0 62.133-3.543 92.428-10.635 9.479-2.219 14.406-13.413 9.638-21.89-8.21-14.596-17.266-28.882-27.019-42.636 14.782 1.457 29.631 2.194 44.479 2.194 11.398 0 22.787-.442 34.161-1.307-9.544 13.451-18.468 27.411-26.627 41.668-4.869 8.507-.014 19.755 9.611 21.993 30.312 7.046 61.371 10.613 92.381 10.613 31.054 0 62.119-3.563 92.413-10.634 9.487-2.219 14.424-13.412 9.652-21.895zm-420.076 7.369c10.954-19.157 23.304-37.724 36.71-55.188 8.665-11.298 17.883-22.25 27.534-32.798l-.695 67.888c-.078 7.771 4.364 15.037 11.319 18.515l23.284 11.628c-32.933.775-65.978-2.634-98.152-10.045zm177.978-.086c-16.456 3.831-33.167 6.59-49.971 8.275l-46.435-23.188c-1.887-.944-3.046-2.839-3.025-4.945l.859-83.897c3.148-3.149 6.32-6.271 9.544-9.327 5.22 4.873 10.396 9.936 15.415 15.063-3.089 5.026-6.104 10.09-9.023 15.194-2.504 4.377-2.783 9.54-.767 14.165 2.022 4.637 6.009 7.955 10.938 9.103 12.589 2.931 25.3 5.321 38.087 7.167 12.595 16.692 24.154 34.324 34.378 52.39zm21.858-90.915c-2.372-1.184-3.887-3.662-3.859-6.312l.968-94.055c3.509-3.513 7.115-7.028 10.704-10.429.408-.386.921-.733 1.424-.264 3.826 3.569 7.585 7.22 11.304 10.904 16.805 16.647 32.564 34.465 46.94 53.167 9.116 11.859 17.551 24.27 25.817 36.748.023.034.044.069.067.104 5.306 8.285 15.395 25.567 15.477 25.747.184.406-.261 1.052-.589 1.117-4.391.878-8.76 1.964-13.157 2.847-11.908 2.39-23.933 4.292-35.997 5.689-2.229.258-4.459.498-6.69.722-.101.01-52.409-25.985-52.409-25.985zm29.202 91.004c10.099-17.646 21.414-34.814 33.635-51.094 10.149-1.214 20.25-2.774 30.292-4.683l-.365 35.661c-.094 7.771 4.347 15.044 11.319 18.531l23.284 11.627c-32.918.785-65.971-2.634-98.165-10.042zm128.02 8.185-46.434-23.188c-1.863-.932-3.05-2.867-3.025-4.945l.399-38.937c1.166-.261 2.334-.513 3.498-.784h.001l.007-.001c4.899-1.142 8.871-4.438 10.896-9.043 2.023-4.599-.693-14.122-.694-14.124 0 0-8.342-14.403-12.766-21.474 3-2.993 6.026-5.966 9.062-8.859 18.88 17.614 36.395 36.881 52.059 57.266 13.617 17.719 26.046 36.522 36.956 55.815-16.449 3.831-33.157 6.589-49.959 8.274zm-91.788 110.385c0 15.938 12.966 28.903 28.903 28.903s28.903-12.966 28.903-28.903-12.966-28.903-28.903-28.903-28.903 12.966-28.903 28.903zm28.903-13.903c7.667 0 13.903 6.237 13.903 13.903s-6.237 13.903-13.903 13.903-13.903-6.237-13.903-13.903 6.237-13.903 13.903-13.903zm21.338-50.851c-3.936-1.3-8.175.836-9.474 4.77-1.299 3.933.836 8.175 4.77 9.474 21.856 7.218 36.54 27.517 36.54 50.511 0 29.32-23.854 53.174-53.174 53.174s-53.174-23.854-53.174-53.175c0-23.743 15.971-44.802 38.839-51.212 3.988-1.118 6.315-5.258 5.197-9.246s-5.255-6.312-9.246-5.197c-29.315 8.218-49.79 35.216-49.79 65.656 0 37.591 30.583 68.174 68.174 68.174s68.174-30.583 68.174-68.174c0-29.481-18.822-55.504-46.836-64.755z"/></g></svg>