<svg id="Capa_1" enable-background="new 0 0 512 512" height="512" viewBox="0 0 512 512" width="512" xmlns="http://www.w3.org/2000/svg"><g><g><path d="m30.745 102.499c25.449-20.771 91.191-82.271 212.969-86.18 136.949-4.396 214.064 67.059 237.539 86.18-48.857 84.784-140.441 135.683-236.829 131.414-139.085-6.161-209.252-123.694-213.679-131.414z" fill="#dab46a"/><g><ellipse cx="154.961" cy="77.271" fill="#ffe07d" rx="69.943" ry="69.766"/><path d="m154.961 7.505c-5.588 0-11.015.673-16.224 1.907 30.801 7.301 53.719 34.901 53.719 67.859 0 32.957-22.918 60.557-53.719 67.858 5.209 1.235 10.636 1.908 16.224 1.908 38.628 0 69.943-31.235 69.943-69.766 0-38.531-31.314-69.766-69.943-69.766z" fill="#ffd064"/><ellipse cx="357.037" cy="77.271" fill="#ffe07d" rx="69.943" ry="69.766"/><path d="m357.037 7.505c-5.588 0-11.015.673-16.224 1.907 30.801 7.301 53.719 34.901 53.719 67.859 0 32.957-22.918 60.557-53.719 67.858 5.209 1.235 10.636 1.908 16.224 1.908 38.628 0 69.943-31.235 69.943-69.766-.001-38.531-31.315-69.766-69.943-69.766z" fill="#ffd064"/></g><g><path d="m226.794 212.045-34.882-52.579c-15.406-23.222 1.288-54.209 29.205-54.209h69.764c27.916 0 44.61 30.987 29.205 54.209l-34.882 52.579c-13.848 20.873-44.562 20.873-58.41 0z" fill="#e17f85"/><path d="m290.881 105.257h-32.448c27.916 0 44.61 30.987 29.205 54.209l-34.882 52.58c-3.452 5.204-7.954 9.109-12.981 11.718 15.135 7.855 35.034 3.95 45.429-11.718l34.882-52.58c15.406-23.222-1.289-54.209-29.205-54.209z" fill="#de646e"/></g><path d="m488.516 117.87c4.146-7.112-.893-16.108-9.141-16.214-93.5-1.198-184.873 46.349-234.952 132.256-49.326 84.617-46.079 184.988-.294 264.049 5.062 8.742 17.745 8.701 22.833-.026z" fill="#f2d59c"/><path d="m479.376 101.656c-9.325-.12-18.627.254-27.87 1.094 5.331 2.611 7.865 9.456 4.563 15.12l-216.631 371.62c1.513 2.849 3.073 5.675 4.692 8.471 5.062 8.742 17.745 8.701 22.833-.026l221.553-380.065c4.146-7.112-.893-16.108-9.14-16.214z" fill="#ecc372"/><path d="m23.482 117.87c-4.146-7.112.893-16.108 9.141-16.214 93.5-1.198 184.873 46.349 234.952 132.256 49.326 84.617 46.079 184.988.294 264.049-5.062 8.742-17.745 8.701-22.833-.026z" fill="#f2d59c"/><path d="m267.574 233.913c-50.078-85.907-141.451-133.455-234.952-132.256-8.247.106-13.287 9.102-9.141 16.214l.419.719c84.979 6.404 165.396 52.888 211.225 131.507s46.267 170.836 9.377 246.927l.532.913c5.088 8.727 17.77 8.768 22.833.026 45.786-79.062 49.033-179.434-.293-264.05z" fill="#ecc372"/></g><path d="m481.41 109.985c1.034 1.01 1.661 2.17.631 4.106l-63.988 109.77c-2.086 3.578-.876 8.17 2.702 10.256 3.518 2.051 8.15.915 10.257-2.703l63.989-109.771c3.311-5.683 3.351-12.498.106-18.23-2.547-4.498-6.713-7.592-11.568-8.75-11.646-9.656-27.384-23.088-51.857-37.92-9.035-32.672-39.064-56.743-74.64-56.743-16.05 0-30.973 4.898-43.352 13.272-22.656-3.715-46.263-5.219-70.217-4.454-15.4.492-30.651 1.946-45.395 4.3-12.334-8.279-27.171-13.118-43.122-13.118-4.143 0-7.5 3.358-7.5 7.5s3.357 7.5 7.5 7.5c34.434 0 62.447 27.934 62.447 62.27 0 7.299-1.254 14.384-3.7 21.127-10.095 1.753-19.205 7.059-25.704 15.155-4.8 5.98-7.83 12.946-8.962 20.214-2.977-1.792-5.987-3.536-9.037-5.216-22.885-12.609-47.43-21.87-72.804-27.591-3.104-7.5-4.676-15.453-4.676-23.689 0-22.16 10.424-41.239 29.841-53.121 3.533-2.162 4.646-6.779 2.483-10.312-2.162-3.534-6.783-4.646-10.312-2.483-16.998 10.401-28.962 26.432-34.138 44.927-24.303 14.87-38.708 27.408-51.951 38.39-4.847 1.161-9.007 4.251-11.551 8.744-3.245 5.732-3.204 12.548.109 18.232l221.554 380.065c3.756 6.443 10.457 10.287 17.93 10.287h.032c7.45-.011 14.12-3.854 17.841-10.279 3.748-1.738 133.012-229.747 137.647-237.701 2.086-3.579.876-8.171-2.702-10.257-3.578-2.085-8.17-.877-10.257 2.703l-92.782 159.166c2.933-15.647 4.493-31.562 4.623-47.549.391-48.237-12.347-95.938-36.834-137.947-2.828-4.851-5.807-9.6-8.917-14.25 17.693-24.378 39.277-45.135 63.61-61.685.423-.231.822-.502 1.193-.81 27.396-18.409 58.227-31.508 90.878-38.472.554-.054 1.096-.168 1.621-.341 18.005-3.722 36.553-5.578 55.376-5.434.933.008 2.667.358 3.596.842zm-268.43-83.814c10.168-1.229 20.531-2.027 30.971-2.361 18.657-.594 37.072.255 54.953 2.492-12.005 13.615-19.31 31.451-19.31 50.967 0 7.007.936 13.859 2.762 20.486h-52.715c1.826-6.626 2.762-13.479 2.762-20.486 0-19.578-7.349-37.466-19.423-51.098zm-135.438 49.73c-.008.457-.022.912-.022 1.369 0 6.99.92 13.816 2.731 20.416-9.31-1.501-18.703-2.529-28.143-3.077 7.067-5.663 15.531-12.096 25.434-18.708zm-43.372 33.247c44.912-.335 89.332 10.908 128.592 32.54 40.835 22.5 74.838 55.697 98.333 96.001 23.131 39.681 35.162 84.728 34.793 130.271-.361 44.592-10.571 89.225-35.4 126.202-2.029 3.021-6.469 4.164-8.973-.004l-221.554-380.065c-1.053-1.929-.279-3.209.631-4.108.912-.475 2.576-.829 3.578-.837zm284.116 34.059c-23.572 16.335-44.649 36.436-62.29 59.818-17.455-23.095-38.482-43.28-62.282-59.774-.786-7.131 1.36-14.548 5.983-20.309 5.272-6.568 12.88-10.186 21.42-10.186 1.615 0 69.924-.036 71.402.046 7.87.434 14.844 3.991 19.774 10.131 4.616 5.748 6.766 13.15 5.993 20.274zm96.534-42.303c-29.028 6.521-56.659 17.634-81.868 32.821-1.137-7.258-4.168-14.213-8.962-20.184-6.496-8.09-15.603-13.392-25.694-15.144-2.446-6.743-3.7-13.828-3.7-21.127 0-34.336 28.014-62.27 62.447-62.27 34.427 0 62.436 27.934 62.436 62.27-.001 8.226-1.569 16.158-4.659 23.634zm16.937-3.257c1.896-6.919 2.802-14.099 2.694-21.419 9.956 6.56 18.41 12.895 25.334 18.376-9.439.545-18.792 1.564-28.028 3.043zm-148.46 24.286c-5.52 0-9.995 4.463-9.995 9.97 0 5.506 4.475 9.969 9.995 9.969s9.995-4.463 9.995-9.969c0-5.507-4.474-9.97-9.995-9.97zm-58.06 18.339c-5.52 0-9.995 4.464-9.995 9.97s4.475 9.97 9.995 9.97 9.995-4.464 9.995-9.97-4.475-9.97-9.995-9.97zm36.624 9.97c-5.52 0-9.995 4.463-9.995 9.97 0 5.506 4.475 9.969 9.995 9.969s9.995-4.463 9.995-9.969-4.475-9.97-9.995-9.97z"/></g></svg>