<svg id="Capa_1" enable-background="new 0 0 512 512" height="512" viewBox="0 0 512 512" width="512" xmlns="http://www.w3.org/2000/svg"><g><g><path d="m363.808 459.5h-215.616c-25.312 0-47.902-15.885-56.464-39.706l-54.228-150.877h437l-54.229 150.877c-8.561 23.821-31.151 39.706-56.463 39.706z" fill="#ecf4ff"/><path d="m444.5 268.917-54.229 150.877c-8.562 23.82-31.151 39.706-56.464 39.706h30c25.312 0 47.902-15.885 56.464-39.706l54.229-150.877z" fill="#ddeafb"/><path d="m75.605 504.5h360.789c20.493 0 37.105-16.613 37.105-37.105 0-4.36-3.534-7.894-7.894-7.894h-419.211c-4.36 0-7.894 3.534-7.894 7.894 0 20.492 16.613 37.105 37.105 37.105z" fill="#cbe2ff"/><path d="m465.605 459.5h-30c4.36 0 7.894 3.534 7.894 7.895 0 20.493-16.613 37.105-37.105 37.105h30c20.493 0 37.105-16.613 37.105-37.105.001-4.361-3.533-7.895-7.894-7.895z" fill="#bed8fb"/><path d="m30.091 283.917h451.818c12.477 0 22.591-10.074 22.591-22.5 0-12.426-10.114-22.5-22.591-22.5h-451.818c-12.477 0-22.591 10.074-22.591 22.5 0 12.426 10.114 22.5 22.591 22.5z" fill="#cbe2ff"/><path d="m481.909 238.917h-30c12.477 0 22.591 10.074 22.591 22.5s-10.114 22.5-22.591 22.5h30c12.477 0 22.591-10.074 22.591-22.5s-10.114-22.5-22.591-22.5z" fill="#bed8fb"/><g><path d="m365.537 72.288c22.715-35.67 75.93-64.847 118.196-64.788 10.85.015 20.452 8.925 20.759 19.77.327 11.546-8.979 21.012-20.466 20.949-34.837-.192-66.979 18.868-85.794 48.187l-58.537 91.214c-4.993 7.78-13.602 12.485-22.847 12.485h-107.984c-11.813 0-22.27-7.639-25.861-18.893l-10.376-32.511c-1.956-6.129 2.618-12.39 9.052-12.39h140.106c1.639 0 3.7-1.131 4.58-2.513z" fill="#ecf4ff"/></g><path d="m483.733 7.5c-6.777-.009-13.837.741-21.006 2.142 3.335 1.636 6.222 4.125 8.303 7.164 2.02 2.951 3.93 7.615 3.462 10.465-1.164 7.092-17.834 9.896-20.292 10.341-30.635 5.538-74.542 44.113-95.966 74.373-23.168 32.724-28.82 44.908-48.54 75.636-4.993 7.78-13.602 12.485-22.847 12.485h30c9.245 0 17.854-4.705 22.847-12.485l58.537-91.214c18.816-29.319 50.957-48.379 85.794-48.187 11.487.063 20.792-9.403 20.466-20.949-.306-10.846-9.908-19.756-20.758-19.771z" fill="#ddeafb"/></g><path d="m205.696 111.267c2.929 2.929 7.677 2.928 10.606 0 2.93-2.929 2.93-7.677.001-10.606-5.471-5.471-5.471-14.373 0-19.844 11.318-11.319 11.318-29.738 0-41.057-2.929-2.929-7.678-2.929-10.606 0-2.93 2.929-2.93 7.677-.001 10.606 5.471 5.471 5.471 14.373 0 19.844-11.318 11.319-11.318 29.737 0 41.057zm90 0c2.929 2.929 7.677 2.928 10.606 0 2.93-2.929 2.93-7.677.001-10.606-5.471-5.471-5.471-14.373 0-19.844 11.318-11.319 11.318-29.738 0-41.057-2.929-2.929-7.678-2.929-10.606 0-2.93 2.929-2.93 7.677-.001 10.606 5.471 5.471 5.471 14.373 0 19.844-11.318 11.319-11.318 29.737 0 41.057zm-55.8-41.448c0 9.85 3.836 19.111 10.801 26.076 2.929 2.929 7.678 2.929 10.607 0s2.929-7.678 0-10.606c-8.53-8.53-8.53-22.409 0-30.939 14.378-14.378 14.378-37.774 0-52.153-2.93-2.929-7.678-2.929-10.607 0s-2.929 7.678 0 10.606c8.53 8.53 8.53 22.41 0 30.94-6.966 6.965-10.801 16.226-10.801 26.076zm-64.038 113.673c4.603 14.423 17.867 24.113 33.006 24.113h33.531c4.143 0 7.5-3.358 7.5-7.5s-3.357-7.5-7.5-7.5h-33.531c-8.585 0-16.106-5.495-18.717-13.673l-10.376-32.511c-.402-1.408.432-2.571 1.907-2.61h140.106c4.176 0 8.66-2.46 10.906-5.984l39.171-61.51c21.182-33.26 72.328-61.317 111.745-61.317h.115c6.883.01 13.085 5.843 13.272 12.483.1 3.521-1.199 6.847-3.659 9.363-2.664 2.725-6.087 3.872-9.812 3.872-36.079 0-71.138 19.748-91.603 51.638l-58.537 91.214c-3.632 5.658-9.812 9.036-16.535 9.036h-39.452c-4.143 0-7.5 3.358-7.5 7.5s3.357 7.5 7.5 7.5h39.452c11.855 0 22.756-5.957 29.158-15.934l58.538-91.214c17.73-27.63 47.956-44.739 78.976-44.739 7.796 0 15.032-2.748 20.543-8.387 5.327-5.45 8.142-12.649 7.926-20.272-.421-14.9-13.092-27.039-28.245-27.06h-.137c-44.634 0-100.412 30.598-124.396 68.259l-38.561 60.552h-138.97c-11.41-.094-19.712 11.395-16.196 22.17zm306.051 47.925h-451.818c-16.592 0-30.091 13.458-30.091 30s13.499 30 30.091 30h7.524l47.057 130.909c4.278 11.905 11.723 22.062 21.167 29.674h-59.444c-8.489 0-15.395 6.906-15.395 15.395 0 24.595 20.01 44.605 44.605 44.605h360.789c24.596 0 44.606-20.01 44.606-44.605 0-8.489-6.906-15.395-15.395-15.395h-59.444c9.444-7.612 16.888-17.769 21.166-29.673l13.836-38.488c1.401-3.898-.622-8.194-4.521-9.595-3.893-1.4-8.193.622-9.595 4.521l-13.837 38.489c-7.467 20.783-27.32 34.746-49.4 34.746h-215.62c-22.08 0-41.934-13.963-49.402-34.747l-45.234-125.836h404.892l-19.319 53.744c-1.401 3.898.623 8.194 4.521 9.595 3.803 1.367 8.183-.574 9.595-4.521l21.143-58.818h7.524c16.592 0 30.091-13.458 30.091-30s-13.5-30-30.092-30zm-16.304 235.583c.218 0 .395.177.395.395 0 16.324-13.281 29.605-29.605 29.605h-360.79c-16.324 0-29.605-13.281-29.605-29.605 0-.218.177-.395.395-.395zm16.304-190.583h-451.818c-8.321 0-15.091-6.729-15.091-15s6.77-15 15.091-15h451.818c8.321 0 15.091 6.729 15.091 15s-6.77 15-15.091 15z"/></g></svg>