<svg id="Capa_1" enable-background="new 0 0 512.003 512.003" height="512" viewBox="0 0 512.003 512.003" width="512" xmlns="http://www.w3.org/2000/svg"><g><g><g><g><path d="m213.495 389.393c30.465-16.767 54.367-36.601 71.245-59.152 25.948-34.669 35.515-75.471 28.437-121.274-8.665-56.078-47.489-105.745-98.906-126.533-27.768-11.226-59.568-13.865-89.542-7.429-30.774 6.608-57.895 21.898-78.431 44.217-26.722 29.047-40.103 66.812-38.696 109.212 1.222 36.838 13.791 75.092 35.391 107.717 24.338 36.761 58.731 65.506 96.841 80.941zm-56.021-274.279c13.701 0 27.474 2.526 40.443 7.77 37.458 15.144 65.775 51.549 72.141 92.746 5.294 34.252-1.329 63.19-20.248 88.467-16.358 21.855-42.14 40.948-76.632 56.749-7.24 3.317-11.798 10.099-12.605 17.48-1.472-.535-2.925-1.092-4.36-1.674-29.593-11.985-57.599-35.526-76.84-64.587-30.475-46.031-43.776-116.768-.965-163.303 20.044-21.786 49.381-33.648 79.066-33.648z" fill="#e4926a"/></g></g><g><path d="m266.619 200.284c.036-.044.073-.088.109-.133 4.8-5.834 14.264-3.301 15.649 4.126.291 1.558.557 3.121.8 4.69 7.078 45.803-2.489 86.605-28.438 121.274-16.878 22.551-40.78 42.385-71.245 59.152l-57.276 21.538c4.478 2.24 9.019 4.299 13.615 6.161l73.66-27.699c30.465-16.767 54.366-36.601 71.245-59.152 25.948-34.668 35.515-75.471 28.438-121.274-6.073-39.299-26.771-75.268-56.63-100.713-5.694-4.853-11.722-9.313-18.04-13.321-.002-.001-.007-.004-.007-.004-7.688-4.873-15.784-9.08-24.229-12.494-22.398-9.055-47.418-12.514-71.988-10.139 14.49 1.386 28.702 4.768 41.988 10.139 10.449 4.225 20.372 9.649 29.629 16.074 6.374 4.424 7.733 13.35 2.975 19.478-2.611 3.362-5.097 6.826-7.45 10.384 12.827 7.045 24.281 16.644 33.742 28.035 10.616 12.779 18.706 27.757 23.453 43.878z" fill="#e17c48"/><path d="m465.705 119.222c-20.535-22.32-47.656-37.61-78.431-44.217-29.974-6.436-61.774-3.797-89.542 7.429-51.417 20.788-90.24 70.456-98.906 126.533-7.078 45.803 2.489 86.605 28.438 121.274 16.878 22.551 40.78 42.385 71.245 59.152l73.66 27.699c38.11-15.435 72.503-44.181 96.841-80.941 21.6-32.625 34.169-70.879 35.391-107.717 1.407-42.4-11.973-80.165-38.696-109.212zm-33.074 192.843c-19.241 29.062-47.247 52.602-76.84 64.587-1.435.581-2.888 1.139-4.36 1.673-.808-7.381-5.365-14.162-12.605-17.479-34.492-15.801-60.274-34.894-76.632-56.75-18.919-25.276-25.542-54.214-20.248-88.466 6.366-41.198 34.683-77.603 72.141-92.747 12.97-5.244 26.743-7.77 40.443-7.77 29.684 0 59.022 11.863 79.066 33.648 42.811 46.536 29.51 117.273-.965 163.304z" fill="#e4926a"/><g><path d="m465.705 119.222c-20.535-22.32-47.656-37.61-78.431-44.217-15.633-3.356-31.759-4.221-47.554-2.71 5.891.569 11.757 1.465 17.554 2.71 30.774 6.607 57.896 21.897 78.431 44.217 26.723 29.047 40.103 66.812 38.696 109.212-1.222 36.837-13.791 75.092-35.391 107.717-21.402 32.326-50.582 58.45-83.226 74.78l16.385 6.161c38.11-15.435 72.503-44.181 96.841-80.941 21.6-32.625 34.169-70.879 35.391-107.717 1.407-42.4-11.973-80.165-38.696-109.212z" fill="#e17c48"/></g></g><path d="m213.495 389.393c28.571 3.163 56.426 3.165 85.014 0l73.66 27.699c-20.414 8.268-42.259 12.436-64.042 15.091-54.767 6.675-116.35 5.946-168.293-15.091z" fill="#e4926a"/><path d="m441.255 370.339c-47.646-14.234-48.675-14.541-48.675-14.541h.001c-.187-.056-.368-.114-.554-.17-11.43 8.776-23.688 15.942-36.236 21.024-1.435.581 32.674 23.452 43.678 26.74 15.004-9.048 29.086-20.195 41.786-33.053z" fill="#e17c48"/><path d="m257.519 391.755c11.959 9.961 25.64 19.19 40.993 27.635l-.003.002c5.929 2.716 14.541 6.576 24.183 10.753 16.889-2.687 33.616-6.63 49.478-13.054l-73.66-27.699c-13.781 1.526-27.39 2.308-40.991 2.363z" fill="#e17c48"/><g><path d="m262.194 304.097c16.358 21.855 42.14 40.948 76.632 56.749 16.023 7.34 34.109 14.038 53.755 19.907h-.001s1.135.339 56.897 16.997c11.544 3.449 18.109 15.603 14.66 27.147-3.449 11.544-15.6 18.107-27.144 14.659-22.924-6.848-56.546-16.893-56.892-16.996-21.59-6.45-63.732-24.987-81.591-33.168l.003-.002c-30.47-16.76-54.37-36.6-71.25-59.15z" fill="#e4926a"/></g><g fill="#e17c48"><path d="m299.742 345.24c.99-1.305 2.01-2.696 3.048-4.167-13.255-8.756-24.448-18.221-33.495-28.338-1.535 2.347-3.05 4.48-4.485 6.362-6.796 9.08-15.242 17.674-25.24 25.762 9.605 10.254 20.805 19.864 33.559 28.787 10.227-8.913 19.116-18.391 26.613-28.406z"/><path d="m270.637 314.195c-3.037-3.299-5.871-6.661-8.444-10.099-6.775-9.052-11.964-18.576-15.603-28.643-8.983 11.103-20.171 21.84-33.494 32.143 4.002 7.81 8.718 15.364 14.167 22.644 3.35 4.477 6.989 8.841 10.889 13.101 12.209-9.313 23.047-19.04 32.485-29.146z"/><path d=""/><path d="m156.213 376.652c-12.598-5.102-24.905-12.305-36.374-21.129-9.635 3.63-19.788 7.056-30.416 10.23h.001s-.519.155-17.921 5.354c12.692 12.726 26.747 23.743 41.704 32.684z"/></g><g><path d="m312.704 267.287c-1.723 9.1-4.791 20.708-10.482 33.436-5.553 12.42-11.97 22.252-17.481 29.518-16.88 22.55-40.78 42.39-71.25 59.15l.003.002c-17.859 8.182-60.001 26.718-81.591 33.168-.346.104-33.969 10.147-56.892 16.996-11.544 3.448-23.696-3.115-27.144-14.659-3.449-11.544 3.116-23.699 14.66-27.147 55.762-16.658 56.897-16.997 56.897-16.997h-.001c19.646-5.869 37.732-12.567 53.755-19.907 34.491-15.801 60.274-34.894 76.632-56.749 4.195-5.504 9.064-12.99 13.164-22.486 3.186-7.379 5.139-14.191 6.367-19.897z" fill="#e4926a"/></g><path d="m282.704 267.287c-1.723 9.1-4.791 20.708-10.482 33.436-5.553 12.42-11.97 22.252-17.481 29.518-16.88 22.55-40.78 42.39-71.25 59.15l.003.002c-17.859 8.182-60.001 26.718-81.591 33.168-.294.088-24.602 7.35-45.966 13.732 5.312 3.859 12.297 5.289 19.074 3.264 22.924-6.849 56.546-16.893 56.892-16.996 21.59-6.45 63.732-24.987 81.591-33.168l-.003-.002c30.47-16.76 54.37-36.6 71.25-59.15 5.51-7.266 11.927-17.097 17.481-29.518 5.691-12.728 8.759-24.336 10.482-33.436l-29.328-3.769z" fill="#e17c48"/></g><path d="m471.222 114.141c-55.906-60.759-151.216-66.122-215.2-16.021-37.458-29.451-85.932-40.508-132.862-30.446-32.303 6.926-60.788 22.994-82.378 46.465-28.087 30.526-42.152 70.136-40.677 114.547 1.267 38.206 14.276 77.84 36.634 111.603 11.265 17.011 24.498 32.284 39.446 45.555l-15.804 4.721c-15.39 4.502-24.283 21.14-19.7 36.48 4.671 15.637 21.319 24.265 36.478 19.699 15.179-4.572 53.976-15.418 66.521-20.164 30.457 11.218 65.816 16.861 105.66 16.861 37.135 0 85.972-5.042 118.979-16.859 17.847 6.331 3.408 1.177 36.341 11.145l30.19 9.02c15.157 4.554 31.915-4.393 36.479-19.705 4.617-15.488-4.225-31.853-19.71-36.479-3.776-1.128-12.488-3.705-15.798-4.72 14.947-13.27 28.179-28.542 39.444-45.553 10.844-16.375 19.508-34.104 25.751-52.696 1.319-3.927-.795-8.179-4.722-9.498-3.926-1.319-8.179.795-9.497 4.722-5.828 17.354-13.916 33.904-24.038 49.189-12.318 18.6-27.137 34.969-44.08 48.713-14.915-4.463-22.56-6.602-34.469-10.435 21.213-13.545 40.257-32.306 54.676-54.078 32.035-48.395 45.771-123.026.226-172.527-21.087-22.918-51.915-36.062-84.579-36.062-25.929 0-53.922 10.165-74.149 26.778-24.1 19.793-41.062 49.087-45.853 80.086-4.69 30.347-.541 56.673 12.676 80.311-5.583 8.326-12.335 15.883-19.717 22.67-17.729-27.217-25.457-58.26-22.961-92.405.302-4.131-2.803-7.725-6.934-8.026-4.131-.294-7.724 2.802-8.027 6.934-2.786 38.144 6.068 72.816 26.327 103.177-20.993 16.006-44.619 27.351-69.45 36.648-23.663-12.522-45.174-32.241-60.817-55.863-41.245-62.309-29.791-123.555-1.694-154.092 33.254-36.142 91.952-41.709 132.617-12.111-8.818 13.842-15.708 28.868-20.291 44.439-1.17 3.973 1.103 8.143 5.076 9.312 3.975 1.168 8.144-1.104 9.312-5.077 6.564-22.297 18.291-43.392 33.912-61.005 56.183-63.347 157.092-68.71 215.624-5.099 25.368 27.57 38.066 63.495 36.724 103.893-.246 7.427-.984 15.037-2.195 22.617-.653 4.09 2.133 7.936 6.224 8.589 3.998.639 7.931-2.1 8.589-6.224 1.309-8.196 2.108-16.435 2.375-24.485 1.473-44.41-12.593-84.02-40.679-114.544zm-163.997 310.601c-54.339 6.612-101.711 4.352-141.198-6.69 17.481-7.052 36.205-15.284 48.725-20.989 13.866 1.464 27.558 2.205 41.25 2.205 13.696 0 27.393-.741 41.263-2.206 6.392 2.905 27.482 12.405 48.236 20.802-11.253 2.863-23.8 5.112-38.276 6.878zm-69.943-40.957c6.608-4.364 12.851-8.901 18.716-13.606 5.85 4.69 12.106 9.233 18.729 13.606-12.505.631-24.941.631-37.445 0zm153.207 4.175c9.002 2.634 22.226 6.791 44.538 13.299l12.298 3.674c7.565 2.26 11.885 10.254 9.631 17.814-2.219 7.441-10.429 11.857-17.816 9.624-11.374-3.439-51.776-15.472-56.892-17-39.064-11.671-83.414-30.755-114.662-55.141 7.264-6.702 13.828-13.7 19.657-20.978 30.585 23.234 64.991 37.517 103.246 48.708zm-73.593-258.12c11.839-4.792 24.501-7.222 37.636-7.222 28.481 0 55.286 11.378 73.54 31.218 40.082 43.562 27.219 110.414-1.693 154.09-15.645 23.624-37.157 43.343-60.82 55.865-24.034-8.983-50.755-22.326-69.428-36.621 3.607-5.391 6.873-11.008 9.791-16.798 15.767-31.284 20.29-66.217 14.672-102.55-3.58-23.154-12.248-45.864-25.154-66.116 6.67-4.786 13.862-8.796 21.456-11.866zm-60.895 62.64c10.672 27.204 11.695 60.45.001 86.345-11.071-25.303-11.103-58.433-.001-86.345zm21.472 22.003c-2.102-13.609-6.437-26.787-12.887-39.236 5.339-8.812 11.817-16.876 19.211-23.898 11.244 18.102 18.801 38.253 21.972 58.762 3.259 21.134 2.811 41.219-1.298 59.986-18.98 86.694-110.118 126.287-191.024 150.15l-40.582 12.124c-7.564 2.26-15.553-2.057-17.812-9.62-2.231-7.47 2.158-15.585 9.62-17.814 91.551-27.353 232.598-62.287 212.8-190.454zm-44.136-95.041c-2.858 3.222-5.586 6.561-8.199 9.985-7.675-5.501-15.851-10.036-24.402-13.491-13.636-5.52-28.191-8.318-43.265-8.318-32.664 0-63.492 13.144-84.579 36.062-45.545 49.501-31.81 124.133.227 172.529 14.417 21.77 33.46 40.529 54.671 54.074-7.424 2.407-26.649 8.153-34.462 10.439-16.945-13.745-31.765-30.115-44.083-48.715-20.845-31.48-32.972-68.349-34.148-103.818-1.343-40.397 11.355-76.323 36.725-103.894 19.477-21.175 45.232-35.682 74.486-41.955 28.515-6.128 58.755-3.624 85.153 7.051 11.592 4.683 22.619 10.981 32.905 18.722-3.828 3.594-7.517 7.368-11.029 11.329z"/></g></svg>