<svg id="Capa_1" enable-background="new 0 0 512 512" height="512" viewBox="0 0 512 512" width="512" xmlns="http://www.w3.org/2000/svg"><g><g><circle cx="256" cy="256" fill="#c6855b" r="248.5"/><path d="m256 7.5c-5.038 0-10.036.168-15 .463 130.256 7.758 233.5 115.832 233.5 248.037s-103.244 240.279-233.5 248.037c4.964.295 9.962.463 15 .463 137.243 0 248.5-111.257 248.5-248.5s-111.257-248.5-248.5-248.5z" fill="#c17e4e"/><path d="m256 450.939c-52.07 0-101.024-20.277-137.843-57.096-36.82-36.819-57.096-85.773-57.096-137.843s20.277-101.024 57.096-137.843 85.773-57.096 137.843-57.096 101.024 20.277 137.843 57.096 57.096 85.773 57.096 137.843-20.277 101.024-57.096 137.843-85.773 57.096-137.843 57.096z" fill="#ce9775"/><path d="m409.635 280.729h39.755c1.024-8.139 1.55-16.393 1.55-24.729 0-9.058-.628-18.017-1.835-26.839h-39.469c-6.646 0-12.032-5.387-12.032-12.032v-40.187c0-6.645 5.387-12.032 12.032-12.032h18.811c-9.01-17.006-20.608-32.758-34.603-46.753-14.283-14.283-30.399-26.064-47.808-35.15v18.304c0 6.645-5.387 12.032-12.032 12.032h-40.188c-6.645 0-12.032-5.387-12.032-12.032v-38.558c-8.48-1.114-17.086-1.692-25.783-1.692s-17.303.579-25.784 1.692v38.558c0 6.645-5.387 12.032-12.032 12.032h-40.186c-6.645 0-12.032-5.387-12.032-12.032v-18.305c-17.409 9.086-33.524 20.867-47.808 35.15-13.995 13.995-25.593 29.747-34.603 46.753h18.812c6.645 0 12.032 5.387 12.032 12.032v40.187c0 6.646-5.387 12.032-12.032 12.032h-39.47c-1.208 8.822-1.835 17.781-1.835 26.839 0 8.335.526 16.59 1.55 24.729h39.755c6.645 0 12.032 5.387 12.032 12.032v40.186c0 6.646-5.387 12.033-12.032 12.033h-19.91c9.158 17.813 21.127 34.292 35.699 48.863 14.283 14.283 30.399 26.064 47.808 35.151v-20.415c0-6.645 5.387-12.032 12.032-12.032h40.186c6.645 0 12.032 5.387 12.032 12.032v40.668c8.481 1.114 17.088 1.692 25.784 1.692s17.302-.579 25.783-1.692v-40.668c0-6.645 5.387-12.032 12.032-12.032h40.188c6.645 0 12.032 5.387 12.032 12.032v20.415c17.409-9.086 33.525-20.868 47.808-35.151 14.572-14.572 26.541-31.05 35.699-48.863h-19.907c-6.646 0-12.032-5.387-12.032-12.033v-40.186c0-6.644 5.387-12.031 12.033-12.031zm-179.419 52.218c0 6.646-5.387 12.033-12.032 12.033h-40.186c-6.645 0-12.032-5.387-12.032-12.033v-40.186c0-6.645 5.387-12.032 12.032-12.032h40.186c6.645 0 12.032 5.387 12.032 12.032zm0-115.818c0 6.646-5.387 12.032-12.032 12.032h-40.186c-6.645 0-12.032-5.387-12.032-12.032v-40.187c0-6.645 5.387-12.032 12.032-12.032h40.186c6.645 0 12.032 5.387 12.032 12.032zm115.819 115.818c0 6.646-5.387 12.033-12.032 12.033h-40.188c-6.645 0-12.032-5.387-12.032-12.033v-40.186c0-6.645 5.387-12.032 12.032-12.032h40.188c6.645 0 12.032 5.387 12.032 12.032zm0-115.818c0 6.646-5.387 12.032-12.032 12.032h-40.188c-6.645 0-12.032-5.387-12.032-12.032v-40.187c0-6.645 5.387-12.032 12.032-12.032h40.188c6.645 0 12.032 5.387 12.032 12.032z" fill="#f2d59c"/><g fill="#eecb81"><path d="m177.997 164.91h-30c-6.645 0-12.032 5.387-12.032 12.032v40.187c0 6.646 5.387 12.032 12.032 12.032h30c-6.645 0-12.032-5.387-12.032-12.032v-40.187c0-6.645 5.387-12.032 12.032-12.032z"/><path d="m251.783 332.947c0 6.646 5.387 12.033 12.032 12.033h30c-6.645 0-12.032-5.387-12.032-12.033v-40.186c0-6.645 5.387-12.032 12.032-12.032h-30c-6.645 0-12.032 5.387-12.032 12.032z"/><path d="m251.783 62.753v38.558c0 6.645 5.387 12.032 12.032 12.032h30c-6.645 0-12.032-5.387-12.032-12.032v-38.558c-8.48-1.114-17.086-1.692-25.783-1.692-5.034 0-10.034.216-15 .596 3.613.275 7.211.627 10.783 1.096z"/><path d="m363.843 118.157c13.995 13.995 25.593 29.747 34.603 46.753h-18.811c-6.646 0-12.032 5.387-12.032 12.032v40.187c0 6.646 5.387 12.032 12.032 12.032h30c-6.646 0-12.032-5.387-12.032-12.032v-40.187c0-6.645 5.387-12.032 12.032-12.032h18.811c-9.01-17.006-20.608-32.758-34.603-46.753-14.283-14.283-30.399-26.064-47.808-35.15v18.304c0 .347-.023.688-.052 1.028 6.219 4.872 12.186 10.144 17.86 15.818z"/><path d="m293.815 164.91h-30c-6.645 0-12.032 5.387-12.032 12.032v40.187c0 6.646 5.387 12.032 12.032 12.032h30c-6.645 0-12.032-5.387-12.032-12.032v-40.187c0-6.645 5.387-12.032 12.032-12.032z"/><path d="m449.104 229.161h-30c1.208 8.822 1.835 17.781 1.835 26.839 0 8.335-.526 16.59-1.55 24.729h30c1.024-8.139 1.55-16.393 1.55-24.729 0-9.058-.627-18.017-1.835-26.839z"/><path d="m251.783 408.579v40.668c-3.571.469-7.17.821-10.783 1.097 4.967.379 9.966.596 15 .596 8.696 0 17.302-.579 25.783-1.692v-40.668c0-6.645 5.387-12.032 12.032-12.032h-30c-6.645-.002-12.032 5.386-12.032 12.031z"/><path d="m147.997 344.979h30c-6.645 0-12.032-5.387-12.032-12.033v-40.186c0-6.645 5.387-12.032 12.032-12.032h-30c-6.645 0-12.032 5.387-12.032 12.032v40.186c0 6.646 5.387 12.033 12.032 12.033z"/><path d="m397.602 332.947v-40.186c0-6.645 5.387-12.032 12.032-12.032h-30c-6.646 0-12.032 5.387-12.032 12.032v40.186c0 6.646 5.387 12.033 12.032 12.033h19.907c-9.158 17.813-21.127 34.292-35.699 48.863-5.658 5.658-11.608 10.917-17.808 15.778v19.373c17.409-9.086 33.525-20.868 47.808-35.151 14.572-14.572 26.541-31.05 35.699-48.863h-19.907c-6.645-.001-12.032-5.388-12.032-12.033z"/><path d="m136.017 102.339c.523 6.163 5.682 11.004 11.98 11.004h30c-6.645 0-12.032-5.387-12.032-12.032v-18.305c-10.494 5.477-20.513 11.94-29.948 19.333z"/><path d="m135.965 408.579v1.042c9.451 7.41 19.487 13.886 30 19.373v-20.415c0-6.645 5.387-12.032 12.032-12.032h-30c-6.645-.001-12.032 5.387-12.032 12.032z"/></g></g><path d="m218.184 273.229h-40.187c-10.771 0-19.532 8.762-19.532 19.532v40.186c0 10.771 8.762 19.533 19.532 19.533h40.187c10.771 0 19.532-8.762 19.532-19.533v-40.186c0-10.77-8.762-19.532-19.532-19.532zm4.532 59.718c0 2.5-2.033 4.533-4.532 4.533h-40.187c-2.499 0-4.532-2.033-4.532-4.533v-40.186c0-2.499 2.033-4.532 4.532-4.532h40.187c2.499 0 4.532 2.033 4.532 4.532zm33.284-279.386c-54.073 0-104.91 21.057-143.146 59.293s-59.293 89.073-59.293 143.146 21.058 104.91 59.293 143.146c38.236 38.236 89.073 59.293 143.146 59.293s104.91-21.057 143.146-59.293c38.235-38.236 59.293-89.073 59.293-143.146s-21.058-104.91-59.293-143.146c-38.236-38.236-89.073-59.293-143.146-59.293zm33.283 17.937c17.175 3.061 33.72 8.49 49.252 16.12v13.693c0 2.499-2.033 4.532-4.532 4.532h-40.188c-2.499 0-4.532-2.033-4.532-4.532zm-115.818 16.12c15.531-7.629 32.076-13.059 49.251-16.12v29.812c0 2.499-2.033 4.532-4.532 4.532h-40.187c-2.499 0-4.532-2.033-4.532-4.532zm-85.332 84.792h14.232c2.499 0 4.532 2.033 4.532 4.532v40.187c0 2.499-2.033 4.532-4.532 4.532h-30.671c3.164-17.185 8.693-33.733 16.439-49.251zm-16.828 115.819h31.061c2.499 0 4.532 2.033 4.532 4.532v40.186c0 2.5-2.033 4.533-4.532 4.533h-15.264c-7.514-15.544-12.84-32.087-15.797-49.251zm151.411 152.273c-17.175-3.061-33.72-8.49-49.251-16.12v-15.804c0-2.499 2.033-4.532 4.532-4.532h40.187c2.499 0 4.532 2.033 4.532 4.532zm115.819-16.12c-15.531 7.63-32.077 13.059-49.252 16.12v-31.924c0-2.499 2.033-4.532 4.532-4.532h40.188c2.499 0 4.532 2.033 4.532 4.532zm86.363-86.903h-15.263c-2.499 0-4.532-2.033-4.532-4.533v-40.186c0-2.499 2.033-4.532 4.532-4.532h31.061c-2.958 17.165-8.284 33.708-15.798 49.251zm15.408-115.818h-30.672c-2.499 0-4.532-2.033-4.532-4.532v-40.187c0-2.499 2.033-4.532 4.532-4.532h14.232c7.747 15.518 13.276 32.066 16.44 49.251zm-30.671-64.251c-10.771 0-19.532 8.762-19.532 19.532v40.187c0 10.77 8.762 19.532 19.532 19.532h32.818c.65 6.384.987 12.835.987 19.339 0 5.788-.272 11.534-.788 17.229h-33.017c-10.771 0-19.532 8.762-19.532 19.532v40.186c0 10.771 8.762 19.533 19.532 19.533h7.15c-7.814 12.97-17.263 25.078-28.246 36.061-10.683 10.683-22.434 19.906-35.004 27.594v-7.555c0-10.77-8.762-19.532-19.532-19.532h-40.188c-10.771 0-19.532 8.762-19.532 19.532v33.982c-6.039.581-12.138.878-18.283.878-6.146 0-12.245-.297-18.284-.878v-33.982c0-10.77-8.762-19.532-19.532-19.532h-40.187c-10.771 0-19.532 8.762-19.532 19.532v7.555c-12.57-7.688-24.321-16.911-35.004-27.594-10.983-10.983-20.432-23.091-28.246-36.061h7.15c10.771 0 19.532-8.762 19.532-19.533v-40.186c0-10.77-8.762-19.532-19.532-19.532h-33.016c-.516-5.695-.788-11.44-.788-17.229 0-6.504.336-12.955.987-19.339h32.818c10.771 0 19.532-8.762 19.532-19.532v-40.187c0-10.77-8.762-19.532-19.532-19.532h-5.848c7.556-12.172 16.56-23.566 26.944-33.95 10.683-10.683 22.434-19.906 35.004-27.594v5.444c0 10.77 8.762 19.532 19.532 19.532h40.187c10.771 0 19.532-8.762 19.532-19.532v-31.871c6.039-.581 12.139-.878 18.284-.878s12.244.297 18.283.878v31.872c0 10.77 8.762 19.532 19.532 19.532h40.188c10.771 0 19.532-8.762 19.532-19.532v-5.444c12.57 7.688 24.321 16.911 35.004 27.594 10.384 10.384 19.387 21.777 26.944 33.95h-5.849zm97.506 48.704c-.802-4.063-4.744-6.705-8.811-5.904-4.064.803-6.707 4.748-5.904 8.812 3.035 15.364 4.574 31.17 4.574 46.978 0 64.374-25.068 124.894-70.587 170.413s-106.039 70.587-170.413 70.587-124.894-25.068-170.413-70.587-70.587-106.039-70.587-170.413 25.068-124.894 70.587-170.413 106.039-70.587 170.413-70.587c102.112 0 193.491 64.675 227.384 160.937 1.376 3.907 5.653 5.958 9.565 4.583 3.906-1.375 5.959-5.658 4.583-9.565-36.003-102.253-133.067-170.955-241.532-170.955-68.38 0-132.668 26.629-181.02 74.98-48.351 48.353-74.98 112.64-74.98 181.02s26.629 132.667 74.98 181.02c48.352 48.351 112.64 74.98 181.02 74.98s132.668-26.629 181.02-74.98c48.351-48.353 74.98-112.64 74.98-181.02 0-16.782-1.635-33.566-4.859-49.886zm-288.957-48.704h-40.187c-10.771 0-19.532 8.762-19.532 19.532v40.187c0 10.77 8.762 19.532 19.532 19.532h40.187c10.771 0 19.532-8.762 19.532-19.532v-40.187c0-10.77-8.762-19.532-19.532-19.532zm4.532 59.719c0 2.499-2.033 4.532-4.532 4.532h-40.187c-2.499 0-4.532-2.033-4.532-4.532v-40.187c0-2.499 2.033-4.532 4.532-4.532h40.187c2.499 0 4.532 2.033 4.532 4.532zm111.287-59.719h-40.188c-10.771 0-19.532 8.762-19.532 19.532v2.778c0 4.142 3.357 7.5 7.5 7.5s7.5-3.358 7.5-7.5v-2.778c0-2.499 2.033-4.532 4.532-4.532h40.188c2.499 0 4.532 2.033 4.532 4.532v40.187c0 2.499-2.033 4.532-4.532 4.532h-40.188c-2.499 0-4.532-2.033-4.532-4.532v-2.409c0-4.142-3.357-7.5-7.5-7.5s-7.5 3.358-7.5 7.5v2.409c0 10.77 8.762 19.532 19.532 19.532h40.188c10.771 0 19.532-8.762 19.532-19.532v-40.187c0-10.77-8.762-19.532-19.532-19.532zm0 115.819h-40.188c-10.771 0-19.532 8.762-19.532 19.532v40.186c0 10.771 8.762 19.533 19.532 19.533h40.188c10.771 0 19.532-8.762 19.532-19.533v-40.186c0-10.77-8.762-19.532-19.532-19.532zm4.532 59.718c0 2.5-2.033 4.533-4.532 4.533h-40.188c-2.499 0-4.532-2.033-4.532-4.533v-40.186c0-2.499 2.033-4.532 4.532-4.532h40.188c2.499 0 4.532 2.033 4.532 4.532z"/></g></svg>