<svg id="Capa_1" enable-background="new 0 0 511.986 511.986" height="512" viewBox="0 0 511.986 511.986" width="512" xmlns="http://www.w3.org/2000/svg"><g><g><g><g><g><g><path d="m111.92 272.443c.274-10.194 10.245-24.592 19.725-36.785 19.162-24.648 56.197-24.372 76.898-25.14 37.911-1.406 91.966-8.939 163.038-36.231 4.912 1.953 28.18 11.793 37.709 36.6 1.036 2.698 9.65 25.966.179 42.639-15.449 27.198-68.517 18.358-165.435 16.698-51.194-.876-101.778.605-132.114 2.219z" fill="#ffe07d"/></g></g></g><g fill="#ffd064"><path d="m112.009 271.158c-.044.435-.077.864-.089 1.285 20.985-1.116 51.66-2.168 85.523-2.421-30.976-.239-60.936.306-85.434 1.136z"/><path d="m409.291 210.887c-9.529-24.807-32.798-34.647-37.709-36.6-5.973 2.293-11.815 4.436-17.548 6.458 8.713 5.621 19.495 15.141 25.257 30.142 1.036 2.698 9.65 25.965.179 42.639-7.719 13.589-24.831 18.182-52.11 19.168 45.1 1.052 71.87-1.143 82.11-19.168 9.471-16.673.857-39.941-.179-42.639z"/></g><g><g><g><g><path d="m112.075 270.579c-.083.634-.138 1.258-.155 1.864 18.845-1.002 45.507-1.953 75.272-2.32-26.33-.346-52.263-.093-75.117.456z" style="fill:#fff;stroke:#000;stroke-width:15;stroke-linecap:round;stroke-linejoin:round;stroke-miterlimit:10"/></g></g></g></g><g><g><g><path d="m140.153 185.774c-4.134-5.242-11.37-16.045-12.062-30.612-.979-20.611 11.798-35.667 16.124-40.766 34.362-40.501 89.58-15.901 123.665-51.573 8.056-8.431 17.167-22.569 20.177-47.436.734-6.064 7.2-9.583 12.777-7.092 11.293 5.045 27.348 15.15 35.626 34.01 8.458 19.271 4.191 37.19 1.294 49.355-1.795 7.54-9.284 35.041-34.526 54.61-5.454 4.229-10.025 6.759-35.348 16.927-72.171 28.98-92.518 31.648-112.574 27.173-6.502-1.451-11.719-3.267-15.153-4.596z" fill="#ffe07d"/></g></g></g><path d="m336.46 42.304c-7.155-16.3-20.114-26.052-30.792-31.658.264.553.542 1.089.792 1.658 8.458 19.271 4.191 37.189 1.294 49.355-4.732 19.871-13.495 35.841-29.318 48.865-27.537 22.666-63.083 36.308-97.371 44.656-4.432 1.079-51.168 12.467-52.312 5.882 2.011 11.583 7.846 20.207 11.4 24.713 3.434 1.329 8.651 3.145 15.153 4.596 20.056 4.475 40.403 1.807 112.574-27.173 25.322-10.168 29.893-12.699 35.348-16.927 25.242-19.569 32.731-47.07 34.526-54.61 2.897-12.167 7.164-30.086-1.294-49.357z" fill="#ffd064"/><g><g><g><path d="m113.715 267.452c-5.049-5.504-17.49-20.582-15.353-38.964.546-4.697 2.701-15.21 14.961-27.276 36.523-35.945 99.451-23.36 158.376-52.655 17.294-8.598 41.927-24.623 66.055-56.897 4.373 1.671 10.43 4.593 16.838 9.407 7.687 5.775 16.046 14.515 20.871 27.194.771 2.027 8.85 24.025.179 42.639-17.827 38.267-98.294 44.74-165.66 50.16-26.713 2.149-64.202 3.627-86.47 30.497-4.952 5.973-7.98 11.791-9.797 15.895z" fill="#ffe07d"/></g></g></g><path d="m375.463 128.26c-4.825-12.679-13.184-21.418-20.871-27.194-6.408-4.814-12.465-7.736-16.838-9.407-.986 1.319-1.972 2.6-2.959 3.865 4.17 4.795 7.972 10.649 10.669 17.735.771 2.026 8.85 24.025.179 42.639-17.827 38.268-98.294 44.741-165.66 50.16-24.94 2.006-59.27 3.436-81.84 25.483-.541 16.985 10.806 30.714 15.573 35.911 1.817-4.104 4.845-9.922 9.797-15.897 22.268-26.869 59.757-28.348 86.47-30.497 67.366-5.419 147.833-11.892 165.66-50.16 8.67-18.614.591-40.612-.18-42.638z" fill="#ffd064"/></g><path d="m355.422 504.486h-198.859c-13.733 0-25.713-9.325-29.083-22.638l-51.116-201.942c-1.599-6.319 3.176-12.454 9.694-12.454h339.87c6.518 0 11.294 6.135 9.694 12.454l-51.117 201.942c-3.37 13.313-15.35 22.638-29.083 22.638z" fill="#e490b7"/><path d="m425.928 267.452h-30c6.518 0 11.294 6.135 9.694 12.454l-51.117 201.942c-3.37 13.313-15.35 22.638-29.083 22.638h30c13.733 0 25.713-9.325 29.083-22.638l51.117-201.942c1.599-6.319-3.176-12.454-9.694-12.454z" fill="#df75a5"/><path d="m430.172 303.034h-348.358c-12.992 0-23.524-10.532-23.524-23.524 0-12.992 10.532-23.524 23.524-23.524h348.358c12.992 0 23.524 10.532 23.524 23.524 0 12.992-10.532 23.524-23.524 23.524z" fill="#ecf4ff"/><path d="m430.172 255.986h-30c12.992 0 23.524 10.532 23.524 23.524 0 12.992-10.532 23.524-23.524 23.524h30c12.992 0 23.524-10.532 23.524-23.524 0-12.992-10.532-23.524-23.524-23.524z" fill="#ddeafb"/><path d="m410.731 378.238h-309.477l12.921 51.044h283.636z" fill="#ecf4ff"/><path d="m397.811 429.282 7.931-31.332 4.989-19.712h-30l-12.92 51.044z" fill="#ddeafb"/></g><path d="m430.172 248.486h-10.585c4.812-17.28-1.712-36.147-3.293-40.291-7.463-19.42-22.476-30.723-32.83-36.517 8.036-20.107.637-41.799-.99-46.089-4.579-12.035-12.443-22.303-23.378-30.522-4.563-3.424-8.922-5.946-12.638-7.776 2.742-12.619 4.957-29.566-3.127-48-9.133-20.803-26.489-32.062-39.441-37.844-4.828-2.154-10.45-1.89-15.042.708-4.598 2.601-7.601 7.092-8.241 12.329-2.222 18.356-8.328 32.877-18.146 43.16-14.652 15.331-34.242 18.265-54.983 21.372-24.266 3.635-49.357 7.393-69.002 30.549-4.698 5.545-18.994 22.419-17.875 45.954.415 8.806 3.005 17.569 7.554 25.748-7.24 3.845-13.985 8.591-20.092 14.602-9.956 9.793-15.887 20.775-17.15 31.747-.807 6.903.018 13.887 2.433 20.87h-11.532c-17.107 0-31.024 13.918-31.024 31.024 0 15.208 11.004 27.887 25.466 30.515l43.957 173.662c4.218 16.662 19.166 28.299 36.35 28.299h198.86c17.184 0 32.132-11.637 36.35-28.299l43.957-173.662c14.462-2.628 25.466-15.306 25.466-30.515 0-17.106-13.918-31.024-31.024-31.024zm-54.425-63.943c8.32 4.566 20.604 13.575 26.538 29.017.846 2.218 7.848 21.477 1.365 34.926h-266.445c20.428-16.685 49.514-18.034 73.408-19.957 64.949-5.226 137.782-11.092 165.134-43.986zm-269.933 44.801c.868-7.541 5.284-15.418 12.771-22.783 6.86-6.753 14.813-11.649 23.66-15.416.094-.044.191-.075.284-.123 15.099-6.374 32.797-9.487 52.152-12.889 17.445-3.066 35.484-6.237 53.93-12.188 3.942-1.272 6.106-5.499 4.834-9.441-1.272-3.941-5.497-6.106-9.44-4.834-17.458 5.633-34.978 8.712-51.921 11.69-17.615 3.096-34.687 6.103-50.141 11.8-3.114-5.266-5.974-12.219-6.357-20.35-.839-17.636 10.186-30.649 14.348-35.562 15.982-18.839 37.251-22.024 59.768-25.397 22.323-3.344 45.407-6.802 63.607-25.845 12.105-12.677 19.572-30.078 22.19-51.711.118-.973 1.125-1.664 2.278-1.15 10.538 4.704 24.612 13.758 31.819 30.173 7.125 16.249 3.952 31.553 1.231 43.05-16.454 21.71-35.336 38.588-56.154 50.154-3.621 2.012-4.925 6.578-2.914 10.199 2.013 3.621 6.578 4.924 10.199 2.914 21.525-11.959 41.07-29.015 58.167-50.746 2.931 1.462 6.358 3.467 9.963 6.173 8.631 6.487 14.811 14.515 18.364 23.854.321.848 7.789 20.938.394 36.812-15.983 34.307-95.523 40.707-159.463 45.852-29.321 2.359-69.207 4.289-93.006 34.906h-6.799c-3.214-6.558-4.484-12.98-3.764-19.142zm271.418 250.661c-2.531 9.998-11.5 16.98-21.809 16.98h-198.86c-10.31 0-19.278-6.982-21.809-16.98l-10.941-43.224h264.36zm27.658-109.267h-223.468c-4.142 0-7.5 3.357-7.5 7.5s3.358 7.5 7.5 7.5h219.671l-9.123 36.044h-271.954l-9.123-36.044h35.529c4.142 0 7.5-3.357 7.5-7.5s-3.358-7.5-7.5-7.5h-39.326l-15.239-60.204h328.271zm25.282-75.205h-348.358c-8.836 0-16.024-7.188-16.024-16.023 0-8.836 7.188-16.024 16.024-16.024h326.06c.004 0 .008.001.013.001.006 0 .011-.001.017-.001h22.268c8.836 0 16.024 7.188 16.024 16.024 0 8.835-7.189 16.023-16.024 16.023z"/></g></svg>