<svg id="Capa_1" enable-background="new 0 0 512 512" height="512" viewBox="0 0 512 512" width="512" xmlns="http://www.w3.org/2000/svg"><g><g><g><g><path d="m233.422 316.174 111.017-207.573c3.968-7.42 14.606-7.42 18.574 0l111.017 207.573z" fill="#ffe07d"/><path d="m363.013 108.601c-3.968-7.42-14.606-7.42-18.574 0l-5.713 10.682 105.304 196.891h-210.608 240.608z" fill="#ffd064"/><g fill="#e4926a"><circle cx="319.817" cy="268.435" r="21.555"/><circle cx="396.019" cy="268.435" r="15.798"/><circle cx="354.457" cy="190.746" r="15.798"/></g></g></g><g><path d="m37.97 316.174 111.017-207.573c3.968-7.42 14.606-7.42 18.574 0l111.017 207.573z" fill="#ffe07d"/><path d="m167.561 108.601c-3.969-7.42-14.606-7.42-18.574 0l-5.713 10.682 105.304 196.891h-210.608 240.608z" fill="#ffd064"/><g fill="#e4926a"><circle cx="124.365" cy="268.435" r="21.555"/><circle cx="200.566" cy="268.435" r="15.798"/><circle cx="159.005" cy="190.746" r="15.798"/></g></g><g><path d="m426.868 454.654h-341.736c-13.002 0-24.524-8.375-28.536-20.743l-23.271-71.737h445.351l-23.271 71.737c-4.013 12.368-15.535 20.743-28.537 20.743z" fill="#ecf4ff"/><path d="m448.675 362.174-23.271 71.737c-4.012 12.368-15.534 20.743-28.536 20.743h30c13.002 0 24.524-8.375 28.536-20.743l23.271-71.737z" fill="#ddeafb"/><path d="m494.5 362.174h-477c-5.523 0-10-4.477-10-10v-26c0-5.523 4.477-10 10-10h477c5.523 0 10 4.477 10 10v26c0 5.523-4.477 10-10 10z" fill="#cbe2ff"/><path d="m494.5 316.174h-30c5.523 0 10 4.478 10 10v26c0 5.523-4.477 10-10 10h30c5.523 0 10-4.477 10-10v-26c0-5.523-4.477-10-10-10z" fill="#bed8fb"/></g><path d="m379.581 86.087c.267-2.505.176-5.116-.347-7.79-2.291-11.708-12.538-20.463-24.459-20.931-14.837-.583-27.049 11.272-27.049 25.979 0 .928.05 1.844.146 2.747.211 1.975-.717 3.883-2.424 4.899-8.114 4.829-13.377 13.946-12.656 24.227.892 12.731 11.193 23.089 23.919 24.051 5.32.402 10.329-.804 14.603-3.176 1.502-.834 3.324-.834 4.826 0 4.273 2.372 9.282 3.578 14.603 3.176 12.726-.962 23.027-11.319 23.919-24.051.72-10.281-4.543-19.398-12.656-24.227-1.71-1.017-2.636-2.927-2.425-4.904z" fill="#b3e59f"/><g><path d="m382.005 90.991c-1.709-1.017-2.635-2.927-2.424-4.904.267-2.505.176-5.116-.347-7.79-2.291-11.708-12.538-20.462-24.459-20.931-6.002-.236-11.574 1.565-16.083 4.767 5.326 3.767 9.234 9.48 10.542 16.165.523 2.674.614 5.285.347 7.79-.21 1.977.715 3.888 2.424 4.904 8.113 4.829 13.376 13.946 12.656 24.227-.722 10.309-14.502 21.516-13.347 20.875 1.502-.834 3.324-.834 4.826 0 4.273 2.372 9.282 3.578 14.603 3.176 12.726-.962 23.027-11.32 23.919-24.051.719-10.282-4.544-19.399-12.657-24.228z" fill="#95d6a4"/></g><path d="m184.859 86.087c.267-2.505.176-5.116-.347-7.79-2.291-11.708-12.538-20.463-24.459-20.931-14.837-.583-27.049 11.272-27.049 25.979 0 .928.05 1.844.146 2.747.211 1.975-.717 3.883-2.424 4.899-8.114 4.829-13.377 13.946-12.656 24.227.892 12.731 11.193 23.089 23.919 24.051 5.32.402 10.329-.804 14.603-3.176 1.502-.834 3.324-.834 4.826 0 4.273 2.372 9.282 3.578 14.603 3.176 12.726-.962 23.027-11.319 23.919-24.051.72-10.281-4.543-19.398-12.656-24.227-1.709-1.017-2.635-2.927-2.425-4.904z" fill="#b3e59f"/><g><path d="m187.283 90.991c-1.708-1.017-2.634-2.927-2.424-4.904.267-2.505.176-5.116-.347-7.79-2.291-11.708-12.538-20.462-24.459-20.931-6.003-.236-11.574 1.565-16.083 4.767 5.326 3.767 9.234 9.48 10.542 16.165.523 2.674.614 5.285.347 7.79-.21 1.977.715 3.888 2.424 4.904 8.113 4.829 13.376 13.946 12.656 24.227-.722 10.309-14.502 21.516-13.347 20.875 1.502-.834 3.324-.834 4.826 0 4.273 2.372 9.282 3.578 14.603 3.176 12.726-.962 23.027-11.32 23.919-24.051.72-10.282-4.543-19.399-12.657-24.228z" fill="#95d6a4"/></g></g><path d="m354.457 214.044c12.847 0 23.299-10.451 23.299-23.298s-10.452-23.299-23.299-23.299-23.298 10.452-23.298 23.299 10.451 23.298 23.298 23.298zm0-31.597c4.576 0 8.299 3.723 8.299 8.299 0 4.575-3.723 8.298-8.299 8.298-4.575 0-8.298-3.723-8.298-8.298 0-4.576 3.723-8.299 8.298-8.299zm140.043 126.227h-15.977l-90.035-168.325c7.715-5.673 12.95-14.556 13.654-24.606.855-12.204-4.853-23.696-14.977-30.366.172-2.84-.019-5.698-.571-8.52-2.942-15.033-16.2-26.382-31.524-26.984-9.211-.352-17.931 2.949-24.559 9.322-6.632 6.376-10.284 14.953-10.284 24.151 0 .674.021 1.352.062 2.03-10.124 6.668-15.833 18.161-14.978 30.366.703 10.048 5.937 18.929 13.648 24.603l-62.96 117.71-23.729-44.365c-1.953-3.651-6.498-5.032-10.15-3.076-3.652 1.953-5.03 6.498-3.076 10.15l47.019 87.91h-215.576l86.911-162.489c2.145.433 4.394.661 6.597.661 5.23 0 10.354-1.209 15.01-3.546 5.418 2.719 11.467 3.905 17.581 3.448.91-.069 1.809-.181 2.699-.322l22.548 42.158c1.974 3.694 6.557 4.998 10.15 3.076 3.652-1.953 5.03-6.498 3.076-10.15l-21.81-40.778c8-5.652 13.453-14.714 14.172-24.99.854-12.204-4.854-23.697-14.978-30.365.172-2.838-.019-5.696-.57-8.52-2.942-15.033-16.2-26.382-31.524-26.984-9.217-.356-17.93 2.949-24.56 9.323-6.632 6.376-10.284 14.952-10.284 24.15 0 .675.021 1.354.062 2.03-10.124 6.668-15.833 18.16-14.979 30.366.689 9.821 5.702 18.531 13.129 24.217l-90.24 168.715h-15.977c-9.649 0-17.5 7.851-17.5 17.5v26c0 9.649 7.851 17.5 17.5 17.5h10.373l21.589 66.552c5.03 15.509 19.365 25.929 35.67 25.929h341.736c16.305 0 30.64-10.42 35.67-25.929l21.589-66.552h10.373c9.649 0 17.5-7.851 17.5-17.5v-26c0-9.65-7.851-17.5-17.5-17.5zm-359.934-211.24c4.191-2.498 6.563-7.263 6.042-12.142-.068-.643-.104-1.298-.104-1.947 0-5.079 2.018-9.816 5.68-13.338 3.67-3.529 8.498-5.347 13.574-5.147 8.457.333 15.771 6.589 17.394 14.875.361 1.849.445 3.719.249 5.558v.002c-.519 4.881 1.854 9.646 6.046 12.141 6.051 3.603 9.504 10.215 9.011 17.258-.515 7.356-5.429 13.584-12.105 16.035-.016.006-.033.011-.049.017-1.534.558-3.16.918-4.847 1.046-3.646.275-7.244-.505-10.397-2.254-3.791-2.105-8.316-2.104-12.107-.001-3.152 1.75-6.754 2.531-10.396 2.255-9.058-.685-16.367-8.035-17.003-17.097-.495-7.046 2.958-13.658 9.012-17.261zm194.72.001c4.192-2.497 6.564-7.263 6.044-12.135-.068-.648-.104-1.307-.104-1.955 0-5.08 2.018-9.816 5.68-13.339 3.672-3.532 8.489-5.347 13.573-5.146 8.457.333 15.771 6.589 17.394 14.877.361 1.848.446 3.717.25 5.556-.521 4.883 1.854 9.649 6.046 12.143 6.051 3.603 9.503 10.215 9.01 17.258-.635 9.062-7.944 16.413-17.002 17.098-3.647.275-7.245-.505-10.397-2.254-3.79-2.105-8.315-2.104-12.105-.001-3.153 1.75-6.747 2.529-10.397 2.255-9.059-.685-16.368-8.035-17.003-17.098-.495-7.045 2.957-13.657 9.011-17.259zm-64.782 176.521 68.273-127.644c1.94.35 3.958.534 5.938.533 5.23-.001 10.353-1.208 15.01-3.546 5.418 2.72 11.466 3.905 17.581 3.448 1.137-.086 2.257-.235 3.361-.434l86.844 162.36h-178.44zm232.496 78.218c0 1.379-1.121 2.5-2.5 2.5h-15.696c-.036 0-.072 0-.108 0h-36.909c-4.143 0-7.5 3.357-7.5 7.5s3.357 7.5 7.5 7.5h26.571l-20.088 61.923c-3.019 9.306-11.619 15.558-21.402 15.558h-341.736c-9.783 0-18.384-6.252-21.402-15.558l-20.088-61.923h362.565c4.143 0 7.5-3.357 7.5-7.5s-3.357-7.5-7.5-7.5h-372.906c-.036 0-.072 0-.108 0h-15.693c-1.379 0-2.5-1.121-2.5-2.5v-26c0-1.379 1.121-2.5 2.5-2.5h20.398c.022 0 .043.004.065.004.02 0 .039-.004.058-.004h240.507c.02 0 .039.004.058.004.021 0 .043-.004.065-.004h195.327c.02 0 .039.004.058.004.021 0 .043-.004.065-.004h20.399c1.379 0 2.5 1.121 2.5 2.5zm-401.69-83.739c0 16.021 13.034 29.055 29.056 29.055 16.021 0 29.055-13.034 29.055-29.055s-13.034-29.056-29.055-29.056c-16.022.001-29.056 13.035-29.056 29.056zm43.11 0c0 7.75-6.305 14.055-14.055 14.055s-14.056-6.305-14.056-14.055 6.306-14.056 14.056-14.056 14.055 6.306 14.055 14.056zm43.883-77.689c0-12.847-10.451-23.299-23.298-23.299s-23.298 10.452-23.298 23.299 10.451 23.298 23.298 23.298 23.298-10.451 23.298-23.298zm-31.596 0c0-4.576 3.723-8.299 8.298-8.299s8.298 3.723 8.298 8.299c0 4.575-3.723 8.298-8.298 8.298s-8.298-3.723-8.298-8.298zm49.859 100.987c12.847 0 23.298-10.451 23.298-23.298s-10.451-23.299-23.298-23.299-23.298 10.452-23.298 23.299c.001 12.847 10.452 23.298 23.298 23.298zm0-31.596c4.575 0 8.298 3.723 8.298 8.299 0 4.575-3.723 8.298-8.298 8.298s-8.298-3.723-8.298-8.298c.001-4.577 3.723-8.299 8.298-8.299zm195.453 31.596c12.847 0 23.298-10.451 23.298-23.298s-10.451-23.299-23.298-23.299-23.298 10.452-23.298 23.299 10.451 23.298 23.298 23.298zm0-31.596c4.575 0 8.298 3.723 8.298 8.299 0 4.575-3.723 8.298-8.298 8.298s-8.298-3.723-8.298-8.298c0-4.577 3.722-8.299 8.298-8.299zm-76.202 37.353c16.021 0 29.055-13.034 29.055-29.055s-13.034-29.056-29.055-29.056-29.056 13.034-29.056 29.056c.001 16.021 13.035 29.055 29.056 29.055zm0-43.11c7.75 0 14.055 6.306 14.055 14.056s-6.305 14.055-14.055 14.055-14.056-6.305-14.056-14.055 6.306-14.056 14.056-14.056z"/></g></svg>