<svg id="Layer_1" enable-background="new 0 0 512 512" height="512" viewBox="0 0 512 512" width="512" xmlns="http://www.w3.org/2000/svg"><g><g><path d="m96.462 214.758h-41.733c-23.913 0-43.368 19.454-43.368 43.367v16.937h31.237v-16.937c0-6.688 5.442-12.13 12.131-12.13h41.734l3.363-1.948v-26.75z" fill="#b5dcff"/><path d="m73.022 214.758h-18.293c-23.913 0-43.368 19.454-43.368 43.367v16.937h18.293v-16.937c0-23.913 19.455-43.367 43.368-43.367z" fill="#8bcaff"/><path d="m446.596 375.009-15.895-9.546h-218.417l-34.833 9.546h-3.516l-40.164 51.438 5.346 5.683h343.667l3.977-5.683z" fill="#b5dcff"/><path d="m238.933 365.463h-26.649l-34.833 9.546h-3.516l-40.164 51.438 5.346 5.683h47.76z" fill="#8bcaff"/><path d="m490.609 426.447h-360.686c-7.521 0-13.619 6.097-13.619 13.618v35.458c0 7.521 6.097 13.619 13.619 13.619h360.686c7.521 0 13.618-6.097 13.618-13.619v-35.458c.001-7.521-6.097-13.618-13.618-13.618z" fill="#dbedff"/><path d="m180.304 475.523v-35.458c0-7.521 6.097-13.618 13.618-13.618h-64c-7.521 0-13.618 6.097-13.618 13.618v35.458c0 7.521 6.097 13.619 13.618 13.619h64c-7.52 0-13.618-6.097-13.618-13.619z" fill="#b5dcff"/><path d="m173.644 51.67c-11.211 3.603-21.986 7.632-32.26 12.056-7.277 3.134-11.954 10.341-11.954 18.264v248.203c0 7.923 4.677 15.13 11.954 18.264 10.274 4.424 21.049 8.454 32.26 12.056z" fill="#ae5e2e"/><path d="m479.148 63.726c-10.274-4.424-21.049-8.454-32.26-12.056v308.844c11.211-3.603 21.986-7.632 32.26-12.056 7.277-3.134 11.954-10.341 11.954-18.264v-248.204c0-7.923-4.677-15.13-11.954-18.264z" fill="#cb6c35"/><path d="m405.734 40.823c-29.9-6.26-62.022-9.663-95.468-9.663s-65.568 3.403-95.468 9.663v330.537c29.9 6.26 62.022 9.663 95.468 9.663s65.568-3.403 95.468-9.663z" fill="#cb6c35"/><path d="m255.728 34.24c-14.026 1.604-27.697 3.812-40.93 6.583v330.537c13.234 2.771 26.904 4.979 40.93 6.583z" fill="#ae5e2e"/><path d="m129.43 170.318h-16.124c-9.303 0-16.844 7.541-16.844 16.844v93.289c0 9.302 7.541 16.844 16.844 16.844h16.124l5.521-5.997v-114.75z" fill="#dbedff"/><path d="m113.306 254.794c-9.303 0-16.844-7.541-16.844-16.844v42.5c0 9.302 7.541 16.844 16.844 16.844h16.124l5.521-5.997v-42.5l-5.521 5.997z" fill="#b5dcff"/><path d="m405.734 96.024c-29.902-4.17-62.02-6.442-95.468-6.442s-65.567 2.272-95.468 6.442v220.135c29.902 4.17 62.02 6.442 95.468 6.442s65.566-2.272 95.468-6.442z" fill="#da7e4a"/><path d="m255.728 91.661c-14.019 1.069-27.702 2.519-40.93 4.363v220.135c13.228 1.845 26.911 3.294 40.93 4.363z" fill="#cb6c35"/><path d="m173.644 103.244c-15.645 3.348-30.44 7.251-44.214 11.647v182.403c13.774 4.395 28.569 8.298 44.214 11.646z" fill="#cb6c35"/><path d="m491.102 114.89c-13.774-4.396-28.569-8.298-44.214-11.647v205.697c15.645-3.348 30.44-7.251 44.214-11.647z" fill="#da7e4a"/><path d="m173.644 165.749c-15.645 1.313-30.44 2.844-44.214 4.569v71.549c13.774 1.724 28.569 3.255 44.214 4.568z" fill="#da7e4a"/><path d="m405.734 162.917c-29.902-1.636-62.02-2.527-95.468-2.527s-65.567.891-95.468 2.527v86.349c29.902 1.636 62.02 2.527 95.468 2.527s65.566-.891 95.468-2.527z" fill="#dd8858"/><path d="m255.728 161.206c-14.019.419-27.702.988-40.93 1.712v86.349c13.228.724 26.911 1.292 40.93 1.711z" fill="#da7e4a"/><path d="m491.102 170.318c-13.774-1.724-28.569-3.255-44.214-4.569v80.686c15.645-1.313 30.44-2.844 44.214-4.568z" fill="#dd8858"/><path d="m198.248 22.737h-8.055c-9.692 0-17.549 7.857-17.549 17.549v331.611c0 9.692 7.857 17.55 17.549 17.55h8.055c9.692 0 17.549-7.857 17.549-17.55v-331.611c.001-9.692-7.857-17.549-17.549-17.549z" fill="#e39b74"/><path d="m430.339 22.737h-8.055c-9.692 0-17.549 7.857-17.549 17.549v331.611c0 9.692 7.857 17.55 17.549 17.55h8.055c9.692 0 17.549-7.857 17.549-17.55v-331.611c0-9.692-7.857-17.549-17.549-17.549z" fill="#e39b74"/><g fill="#dd8858"><path d="m198.248 320.929h-8.055c-9.692 0-17.549-7.857-17.549-17.55v68.518c0 9.692 7.857 17.55 17.549 17.55h8.055c9.692 0 17.549-7.857 17.549-17.55v-68.518c.001 9.693-7.857 17.55-17.549 17.55z"/><path d="m430.339 320.929h-8.055c-9.692 0-17.549-7.857-17.549-17.55v68.518c0 9.692 7.857 17.55 17.549 17.55h8.055c9.692 0 17.549-7.857 17.549-17.55v-68.518c0 9.693-7.857 17.55-17.549 17.55z"/></g></g><g><path d="m490.882 419.007h-.188l-36.055-46.173c.01-.292.022-.583.022-.876v-5.982c9.542-3.217 18.856-6.749 27.727-10.569 10.016-4.313 16.487-14.187 16.487-25.153 0-10.706 0-238.579 0-248.204 0-10.966-6.472-20.839-16.487-25.152h-.001c-8.869-3.819-18.183-7.351-27.726-10.569v-5.983c0-13.812-11.237-25.049-25.05-25.049h-6.055c-10.897 0-20.186 6.996-23.624 16.731-57.931-11.073-120.757-11.092-178.788 0-3.438-9.734-12.727-16.731-23.623-16.731h-6.056c-13.812 0-25.049 11.237-25.049 25.049v5.983c-9.544 3.218-18.859 6.75-27.728 10.569-10.015 4.313-16.486 14.186-16.486 25.153v80.827h-8.624c-13.423 0-24.344 10.92-24.344 24.344v20.096h-34.232c-1.719 0-3.418.088-5.094.255v-14.013h16.751c4.143 0 7.5-3.358 7.5-7.5s-3.357-7.5-7.5-7.5h-48.503c-4.143 0-7.5 3.358-7.5 7.5s3.357 7.5 7.5 7.5h16.752v17.903c-18.083 7.807-30.774 25.807-30.774 46.722v10.242c-2.45 1.234-4.134 3.765-4.134 6.695 0 4.142 3.357 7.5 7.5 7.5h38.904c4.143 0 7.5-3.358 7.5-7.5 0-2.684-1.414-5.031-3.533-6.357v-10.58c0-2.553 2.077-4.63 4.631-4.63h34.233v26.956c0 13.423 10.921 24.343 24.344 24.343h8.624v25.4c0 10.967 6.472 20.84 16.487 25.153 8.868 3.819 18.183 7.351 27.727 10.569 0 6.658-.012 5.866.022 6.857l-36.055 46.175h-.189c-11.645 0-21.118 9.474-21.118 21.118v35.458c0 11.645 9.474 21.119 21.118 21.119h162.844c4.143 0 7.5-3.358 7.5-7.5s-3.357-7.5-7.5-7.5h-162.844c-3.374 0-6.118-2.745-6.118-6.119v-35.458c0-3.374 2.744-6.118 6.118-6.118h360.687c3.374 0 6.118 2.745 6.118 6.118v35.458c0 3.374-2.744 6.119-6.118 6.119h-162.843c-4.143 0-7.5 3.358-7.5 7.5s3.357 7.5 7.5 7.5h162.843c11.645 0 21.118-9.474 21.118-21.119v-35.458c0-11.645-9.474-21.119-21.118-21.119zm-7.007-183.724c-9.326 1.1-19.104 2.114-29.214 3.03v-64.32c10.104.916 19.883 1.929 29.214 3.03zm-29.214 18.088c10.093-.903 19.865-1.904 29.214-2.989v41.454c-9.313 2.833-19.093 5.445-29.214 7.804zm29.214-91.448c-9.354-1.086-19.126-2.087-29.214-2.99v-46.269c10.122 2.36 19.901 4.972 29.214 7.804zm-7.42 179.706c-7.013 3.02-14.311 5.868-21.794 8.505v-35.104c10.08-2.279 19.851-4.806 29.214-7.547v22.771c0 4.969-2.913 9.434-7.42 11.375zm0-270.954c4.507 1.941 7.42 6.406 7.42 11.375v22.771c-9.362-2.74-19.133-5.268-29.214-7.547v-35.104c7.484 2.638 14.781 5.485 21.794 8.505zm-62.948-30.328c0-5.541 4.509-10.049 10.05-10.049h6.055c5.541 0 10.05 4.508 10.05 10.049v11.383 320.227c0 5.474-4.477 10.05-10.05 10.05h-6.055c-5.109 0-10.05-3.897-10.05-10.587 0-5.451 0-325.33 0-330.536zm-190.937 324.935v-40.523c57.254 7.204 118.635 7.21 175.937 0v40.523c-56.987 11.087-119.151 11.047-175.937 0zm175.937-55.623c-55.912 7.204-117.899 7.477-175.937 0v-52.44c56.782 2.823 118.186 2.871 175.937 0zm0-67.45c-56.888 2.855-118.819 2.866-175.937 0v-72.115c56.888-2.855 118.819-2.866 175.937 0zm0-195.188v40.512c-22.65-2.844-46.249-4.58-70.289-5.154-.061-.001-.121-.002-.183-.002-4.059 0-7.396 3.241-7.494 7.321-.099 4.141 3.178 7.578 7.319 7.677 24.198.578 47.93 2.35 70.646 5.272v52.438c-56.782-2.823-118.186-2.871-175.937 0v-52.438c22.717-2.922 46.448-4.694 70.647-5.272 4.142-.099 7.418-3.536 7.319-7.677s-3.552-7.425-7.677-7.319c-24.042.574-47.64 2.31-70.29 5.154v-40.512c55.722-10.84 117.832-11.305 175.939 0zm-217.09-6.674c0-5.541 4.508-10.049 10.049-10.049h6.056c5.541 0 10.049 4.508 10.049 10.049v.538 330.536c0 6.681-4.935 10.587-10.049 10.587h-6.056c-5.563 0-10.049-4.559-10.049-10.05 0-3.372 0-317.438 0-320.227zm-44.214 136.675c9.332-1.101 19.11-2.115 29.214-3.03v64.32c-10.109-.916-19.887-1.93-29.214-3.03zm29.214-18.088c-10.087.903-19.86 1.903-29.214 2.99v-41.454c9.313-2.833 19.094-5.445 29.214-7.804zm-29.214 91.448c9.349 1.085 19.122 2.086 29.214 2.989v46.269c-10.12-2.359-19.9-4.972-29.214-7.804zm7.419-179.707c7.012-3.02 14.311-5.867 21.795-8.506v35.106c-10.079 2.278-19.851 4.806-29.214 7.547v-22.771c0-4.97 2.912-9.435 7.419-11.376zm-89.62 167.88c-10.824 0-19.631 8.806-19.631 19.63v9.437h-16.237v-9.437c0-19.777 16.091-35.867 35.868-35.867h34.233v16.237zm49.233 41.956c0-10.402 0-83.367 0-93.289 0-5.152 4.191-9.344 9.344-9.344h8.624v111.976h-8.624c-5.152 0-9.344-4.191-9.344-9.343zm40.388 61.118c-4.508-1.94-7.42-6.406-7.42-11.375v-22.771c9.363 2.741 19.135 5.269 29.214 7.547v35.106c-7.484-2.639-14.783-5.487-21.794-8.507zm28.341 47.22c4.771 5.229 11.537 8.159 18.502 8.159h6.056c10.811 0 20.218-6.976 23.626-16.722 56.016 10.712 119.157 11.403 178.782 0 3.786 10.485 13.465 16.722 23.627 16.722h6.055c6.81 0 13.63-2.819 18.502-8.159l23.549 30.159h-322.247z"/></g></g></svg>