<svg id="Layer_1" enable-background="new 0 0 512.002 512.002" height="512" viewBox="0 0 512.002 512.002" width="512" xmlns="http://www.w3.org/2000/svg"><g><g><g><path d="m113.573 325.439h146.5l5.297-5.145c-1.602-38.69-11.585-76.612-29.324-111.133-3.491-6.794-6.969-14.697-10.236-23.819l-2.904-2.071h-72.5l-2.511 2.071c-3.267 9.122-6.745 17.025-10.236 23.819-17.801 34.642-27.791 72.71-29.339 111.541z" fill="#8479c2"/><path d="m166.174 253.761 4.796-15.143c5.726-18.078 9.836-36.599 12.311-55.345h-32.875l-2.511 2.071c-3.267 9.122-6.745 17.025-10.236 23.819-17.801 34.642-27.791 72.71-29.339 111.541l5.253 4.736h38.557c1.961-24.319 6.661-48.367 14.044-71.679z" fill="#6e60b8"/><path d="m207.782 75.808-2.147-1.744h-38.438l-1.275 1.744c-1.301 48.338-8.819 83.825-18.028 109.535 7.263 14.131 21.976 23.804 38.957 23.804 16.981 0 31.694-9.673 38.957-23.804-9.207-25.71-16.725-61.197-18.026-109.535z" fill="#ffa90f"/><path d="m167.198 74.064-1.275 1.744c-1.301 48.338-8.819 83.825-18.028 109.535 6.109 11.884 17.495 20.59 31.059 23.066 4.725-22.155 7.118-44.772 7.118-67.483v-66.862z" fill="#fc8900"/><path d="m108.101 331.354v156.949c0 8.912 7.224 16.136 16.136 16.136h62.615 62.615c8.912 0 16.136-7.224 16.136-16.136v-156.949c0-3.692-.082-7.379-.234-11.059h-157.034c-.153 3.68-.234 7.367-.234 11.059z" fill="#b3e59f"/><path d="m108.335 320.295c-.152 3.68-.234 7.367-.234 11.059v156.949c0 8.912 7.224 16.136 16.136 16.136h26.836v-152.986c0-10.417.505-20.815 1.505-31.158z" fill="#95d6a4"/><path d="m230.914 350.295h-88.123c-2.59 0-4.689 2.1-4.689 4.689v55.038c0 2.59 2.1 4.689 4.689 4.689h88.123c2.59 0 4.689-2.1 4.689-4.689v-55.038c0-2.589-2.099-4.689-4.689-4.689z" fill="#95d6a4"/><path d="m177.059 410.022v-55.038c0-2.59 2.1-4.689 4.689-4.689h-38.957c-2.59 0-4.689 2.1-4.689 4.689v55.038c0 2.59 2.1 4.689 4.689 4.689h38.957c-2.59.001-4.689-2.099-4.689-4.689z" fill="#66b394"/><path d="m204.55 7.439h-12.165c-4.007 1.71-6.817 5.684-6.817 10.316v48.224c0 4.632 2.81 8.606 6.817 10.316h12.165c6.035 0 10.928-4.893 10.928-10.928v-47c-.001-6.035-4.893-10.928-10.928-10.928z" fill="#ffc365"/><path d="m186.852 65.367v-47c0-6.035 4.893-10.928 10.928-10.928h-28.625c-6.035 0-10.928 4.893-10.928 10.928v47c0 6.035 4.893 10.928 10.928 10.928h28.625c-6.035 0-10.928-4.893-10.928-10.928z" fill="#ffa90f"/></g><g><path d="m315.456 354.535h31.5l12.833 10.738h30.167l10.598-9.885-7.499-76.406c-.218-2.222-2.087-3.916-4.319-3.916h-65.914c-2.233 0-4.101 1.694-4.319 3.916l-7.093 72.273z" fill="#dbedff"/><path d="m340.999 354.535 6.839-79.47h-25.016c-2.233 0-4.101 1.694-4.319 3.916l-7.093 72.273 4.047 3.281z" fill="#b5dcff"/><path d="m355.779 353.056c-18.323-12.459-37.035-5.471-44.369-1.802l-2.994 30.512c-2.747 27.987 19.243 52.24 47.364 52.24 28.121 0 50.11-24.253 47.364-52.24l-2.589-26.378c-8.484 3.745-27.302 9.55-44.776-2.332z" fill="#da4093"/><path d="m346.895 405.061c-5.937-10.185-8.347-22.046-7.336-33.792l2.097-24.371c-13.136-2.893-24.814 1.638-30.247 4.356l-2.994 30.511c-2.747 27.987 19.243 52.24 47.364 52.24 7.375 0 14.32-1.681 20.516-4.647-15.05-5.695-24.038-15.098-29.4-24.297z" fill="#c3247d"/></g></g><g><path d="m131.261 205.795c-19.867 38.664-30.387 82.13-30.387 125.62v156.949c0 13.033 10.603 23.636 23.636 23.636h125.23c13.033 0 23.637-10.603 23.637-23.636v-156.949c0-42.277-9.974-85.895-30.388-125.62-18.881-36.745-25.806-84.427-27.279-125.534 4.562-3.358 7.54-8.748 7.54-14.834v-47c0-10.16-8.267-18.427-18.428-18.427h-35.395c-10.16 0-18.427 8.267-18.427 18.428v47c0 6.086 2.978 11.476 7.54 14.834-1.476 41.225-8.431 88.852-27.279 125.533zm42.166-121.94h27.396c1.394 33.616 6.119 69.044 17.036 100.849-14.198 22.659-47.269 22.661-61.467-.001 10.882-31.708 15.638-67.096 17.035-100.848zm84.95 404.509c0 4.762-3.874 8.636-8.637 8.636h-125.23c-4.762 0-8.636-3.874-8.636-8.636v-156.949c0-1.187.01-2.373.027-3.559h142.449c.017 1.186.027 2.373.027 3.559zm-.677-175.509h-141.15c2.521-34.829 12.088-69.138 28.052-100.205 1.936-3.768 3.772-7.676 5.519-11.71 20.11 21.022 53.893 21.027 74.008.001 1.746 4.034 3.582 7.942 5.518 11.709 15.965 31.068 25.532 65.376 28.053 100.205zm-91.7-294.427c0-1.89 1.538-3.428 3.428-3.428h35.395c1.89 0 3.428 1.538 3.428 3.428v47c0 1.943-1.614 3.428-3.428 3.428h-35.395c-1.816 0-3.428-1.486-3.428-3.428z"/><path d="m231.186 342.855h-26.562c-4.143 0-7.5 3.358-7.5 7.5s3.357 7.5 7.5 7.5h23.751v49.417h-82.502v-49.417h23.751c4.143 0 7.5-3.358 7.5-7.5s-3.357-7.5-7.5-7.5h-26.562c-6.722 0-12.189 5.468-12.189 12.189v55.038c0 6.721 5.468 12.189 12.189 12.189h88.123c6.722 0 12.189-5.468 12.189-12.189v-55.038c.002-6.72-5.466-12.189-12.188-12.189z"/><path d="m348.552 441.032v50.407c-5.585.083-11.158.784-16.585 2.104l-15.088 3.669c-4.024.979-6.494 5.035-5.516 9.06.979 4.024 5.029 6.495 9.061 5.516l15.088-3.669c4.627-1.125 9.387-1.696 14.148-1.696h12.783c4.762 0 9.522.571 14.149 1.696l15.087 3.669c4.022.979 8.081-1.489 9.061-5.515.979-4.025-1.491-8.081-5.516-9.06l-15.087-3.669c-5.428-1.32-11.002-2.021-16.586-2.104v-50.407c21.728-3 39.742-18.558 45.624-39.999 2.901-10.576 1.863-18.327 1.313-23.929l-4.188-42.673c-.404-4.123-4.079-7.139-8.196-6.732-4.122.405-7.137 4.075-6.731 8.197l1.432 14.595c-8.49 2.749-20.943 4.307-32.536-3.577-14.615-9.939-29.342-9.42-39.957-6.742l5.648-57.547h60.184l1.794 18.271c.404 4.123 4.067 7.135 8.196 6.732 4.122-.405 7.137-4.075 6.731-8.197l-2.073-21.122c-.597-6.091-5.662-10.685-11.783-10.685h-65.914c-6.121 0-11.187 4.594-11.783 10.684-1.109 11.299-8.909 90.779-10.087 102.784-2.867 29.206 17.757 55.856 47.327 59.939zm-29.831-84.638c7.46-2.899 20.502-5.651 33.113 2.924 15.337 10.429 31.51 9.225 42.458 6.331l1.561 15.902c2.571 26.199-17.414 45.014-39.802 45.014-16.999 0-32.542-10.823-38.058-27.508-2.482-7.501-2.18-13.058-1.612-18.843z"/></g></g></svg>