<svg id="Layer_1" enable-background="new 0 0 512.005 512.005" height="512" viewBox="0 0 512.005 512.005" width="512" xmlns="http://www.w3.org/2000/svg"><g><g><path d="m265.844 150.527c-5.014-8.383-6.763-18.251-4.732-27.656l-4.16-3.213-23.667-8.333-4.587.007c-4.369 8.573-11.959 15.116-21.143 18.445-13.178 4.777-24.201 15.185-29.269 29.423l-4.762 13.377 2.984 3.748 85.15 28.879h3.516l4.762-13.377c5.07-14.239 3.103-29.27-4.092-41.3z" fill="#8479c2"/><path d="m228.699 111.332c-4.369 8.573-11.959 15.116-21.143 18.445-13.178 4.777-24.201 15.185-29.269 29.423l-4.762 13.377 2.984 3.748 23.937 8.118 3.097-8.698c2.715-7.625 8.535-13.742 16.015-16.833 7.334-3.03 13.079-8.972 15.859-16.404l10.061-26.891-12.192-4.293z" fill="#6e60b8"/><path d="m286.869 45.741-27.833-10.333-3.331 1-25.132 70.599c-.532 1.494-1.165 2.934-1.874 4.325 3.38 4.923 8.282 8.867 14.337 11.022 6.056 2.156 12.347 2.197 18.077.517.33-1.527.749-3.043 1.281-4.537l25.132-70.599z" fill="#ffa90f"/><path d="m242.968 122.327 30.513-81.556-14.445-5.363-3.331 1-25.132 70.599c-.532 1.494-1.165 2.934-1.874 4.325 3.366 4.904 8.245 8.834 14.269 10.995z" fill="#fc8900"/><path d="m173.525 172.577-9.955 27.964 1.049 3.827 11.89 8.623h34.443v23.581h44.777l9.446-27.081v-4.288z" fill="#dbedff"/><path d="m163.57 200.541 1.049 3.827 11.89 8.623h13.771l10.887-30.574-27.642-9.84z" fill="#b5dcff"/><path d="m410.64 261.991h-309.688l-2.241 2.952 34.845 226.665c1.283 7.417 7.718 12.835 15.246 12.835h213.853c7.528 0 13.963-5.418 15.246-12.835l34.845-226.665z" fill="#6e60b8"/><path d="m179.658 491.609-34.845-226.665 2.241-2.952h-46.101l-2.241 2.952 34.845 226.665c1.283 7.417 7.718 12.835 15.246 12.835h46.101c-7.528 0-13.963-5.418-15.246-12.835z" fill="#6353b2"/><path d="m373.213 191.826c5.068-14.238 3.102-29.269-4.093-41.299-5.014-8.383-6.763-18.251-4.731-27.656l-1.436-3.713-26.409-7.833-4.569.007c-4.368 8.573-11.959 15.116-21.143 18.445-13.178 4.777-24.2 15.185-29.269 29.423l-4.762 13.377 1.652 4.248 70.735 24.011c.69-.187 1.411-.295 2.16-.295h18.763z" fill="#8479c2"/><path d="m336.543 111.325-4.569.007c-4.368 8.573-11.959 15.116-21.143 18.445-13.178 4.777-24.2 15.185-29.269 29.423l-4.762 13.377 1.652 4.248 25.107 8.522 5.378-15.105c2.715-7.625 8.535-13.742 16.015-16.833 7.334-3.03 13.079-8.972 15.859-16.404l8.222-21.975z" fill="#6e60b8"/><path d="m389.952 45.908-29.125-10.5-1.847 1-25.132 70.599c-.532 1.494-1.165 2.934-1.874 4.325 3.379 4.923 8.281 8.867 14.337 11.022 6.056 2.156 12.347 2.197 18.077.517.33-1.527.749-3.043 1.281-4.537l25.132-70.599z" fill="#ffa90f"/><path d="m346.296 122.348 30.389-81.223-15.858-5.717-1.847 1-25.132 70.599c-.532 1.494-1.165 2.934-1.874 4.325 3.377 4.918 8.274 8.859 14.322 11.016z" fill="#fc8900"/><path d="m276.8 172.577-21.357 59.995 11.509 3.586h78.75v-31.437l7.813-2.146 1.837-2.034z" fill="#dbedff"/><path d="m304.585 182.468-27.785-9.891-21.357 59.995 11.509 3.586h18.515z" fill="#b5dcff"/><path d="m219.772 235.572v-26.769c0-4.563-3.699-8.262-8.262-8.262h-27.739c-4.563 0-8.263 3.699-8.263 8.262v26.769z" fill="#b5dcff"/><path d="m205.403 200.541h-21.632c-4.563 0-8.263 3.699-8.263 8.262v26.769h21.632v-26.769c0-4.563 3.7-8.262 8.263-8.262z" fill="#8bcaff"/><path d="m176.509 235.572v-26.769c0-4.563-3.699-8.262-8.262-8.262h-26.739c-4.563 0-8.263 3.699-8.263 8.262v26.769z" fill="#b5dcff"/><path d="m163.139 200.541h-21.632c-4.563 0-8.262 3.699-8.262 8.262v26.769h21.632v-26.769c0-4.563 3.699-8.262 8.262-8.262z" fill="#8bcaff"/><path d="m401.864 19.751-16.874-6.007c-1.22.589-2.233 1.607-2.723 2.985l-7.478 21.007c-.543 1.526-.349 3.134.395 4.439l16.595 5.908c2.536.903 5.325-.421 6.228-2.958l6.816-19.147c.902-2.536-.422-5.324-2.959-6.227z" fill="#ffc365"/><path d="m374.998 37.48 7.329-20.587c.515-1.445 1.605-2.508 2.916-3.059l-17.153-6.106c-2.536-.903-5.324.421-6.227 2.958l-6.816 19.147c-.903 2.536.421 5.324 2.958 6.227l17.735 6.313c-1.014-1.358-1.353-3.178-.742-4.893z" fill="#ffa90f"/><path d="m386.349 236.572v-27.769c0-4.563-3.699-8.262-8.263-8.262h-26.739c-4.563 0-8.262 3.699-8.262 8.262v27.769z" fill="#b5dcff"/><path d="m372.979 200.541h-21.632c-4.563 0-8.263 3.699-8.263 8.262v27.769h21.632v-27.769c.001-4.563 3.7-8.262 8.263-8.262z" fill="#8bcaff"/><path d="m413.267 232.572h-268.276c-4.088 1.232-7.067 5.022-7.067 9.512v13.348c0 4.49 2.979 8.28 7.067 9.512h80.868c5.419 0 10.303 3.235 12.445 8.212 2.921 6.787 9.681 11.45 17.425 11.45 7.745 0 14.503-4.663 17.425-11.45 2.143-4.977 7.027-8.212 12.445-8.212h127.667c5.347 0 9.682-4.335 9.682-9.682v-13.007c.001-5.348-4.334-9.683-9.681-9.683z" fill="#8479c2"/><g><path d="m138.178 255.261v-13.007c0-5.347 4.335-9.682 9.682-9.682h-49.668c-5.347 0-9.682 4.335-9.682 9.682v13.007c0 5.348 4.335 9.682 9.682 9.682h49.668c-5.347.001-9.682-4.334-9.682-9.682z" fill="#6e60b8"/></g><path d="m298.589 19.751-16.874-6.007c-1.22.589-2.233 1.607-2.723 2.985l-7.478 21.007c-.543 1.526-.349 3.134.395 4.439l16.595 5.908c2.536.903 5.325-.421 6.228-2.958l6.816-19.147c.901-2.535-.423-5.324-2.959-6.227z" fill="#ffc365"/><path d="m271.722 37.48 7.329-20.587c.515-1.445 1.605-2.508 2.916-3.059l-17.153-6.106c-2.536-.903-5.324.421-6.227 2.958l-6.816 19.147c-.903 2.536.421 5.324 2.958 6.227l17.735 6.313c-1.014-1.358-1.353-3.178-.742-4.893z" fill="#ffa90f"/></g><g><path d="m222.288 107.989c-.003.007-.005.014-.009.021-3.452 6.76-9.48 12.048-17.006 14.777-15.827 5.737-28.14 18.115-33.779 33.959l-12.059 33.875-.884 2.481h-16.771c-8.691 0-15.763 7.071-15.763 15.763v16.269h-27.552c-9.475 0-17.183 7.708-17.183 17.182v13.007c0 7.328 4.62 13.582 11.093 16.047l4.703 30.593c-2.738 1.117-4.669 3.803-4.669 6.943 0 3.934 3.031 7.155 6.885 7.469l11.417 74.268-15.943 15.007c-3.017 2.839-3.159 7.585-.32 10.602 2.839 3.016 7.586 3.159 10.602.32l8.428-7.934 12.939 84.17c.007.046.015.092.022.138 1.909 11.043 11.429 19.058 22.637 19.058h213.853c11.207 0 20.728-8.015 22.637-19.058.008-.046.016-.092.022-.138l14.045-91.362c.629-4.094-2.18-7.923-6.273-8.553-4.105-.63-7.924 2.18-8.553 6.273l-14.032 91.281c-.686 3.802-3.976 6.556-7.846 6.556h-213.853c-3.87 0-7.16-2.753-7.846-6.556l-14.495-94.291 84.721-79.753h186.074l-7.342 47.762c-.629 4.094 2.18 7.923 6.273 8.553 4.089.625 7.923-2.179 8.553-6.273l7.697-50.073c3.854-.314 6.885-3.535 6.885-7.469 0-3.14-1.931-5.826-4.669-6.943l4.703-30.593c6.473-2.465 11.093-8.719 11.093-16.047v-13.007c0-9.474-7.708-17.182-17.183-17.182h-19.418v-16.269c0-7.824-5.736-14.317-13.22-15.538 5.19-15.552 3.374-32.465-5.073-46.588-4.109-6.871-5.44-14.779-3.843-22.2.001-.007.004-.014.006-.021.611-2.832 1.026-3.636 6.605-19.31 1.39-3.902-.648-8.192-4.55-9.581-3.904-1.39-8.191.648-9.581 4.55-.207.583-5.608 15.741-5.807 16.327-6.415.676-13.019-1.592-17.7-6.301.197-.522 22.658-63.628 22.845-64.153 3.742 1.332 14.299 5.09 17.688 6.297l-5.288 14.857c-1.39 3.902.648 8.192 4.55 9.581 3.905 1.389 8.192-.648 9.581-4.551l5.903-16.583c4.067-.865 7.611-3.751 9.105-7.948l6.817-19.149c2.286-6.428-1.082-13.519-7.509-15.807l-33.774-12.021c-3.113-1.108-6.474-.937-9.459.48-2.986 1.418-5.241 3.915-6.349 7.027l-6.817 19.148c-1.493 4.196-.565 8.665 2.039 11.905-25.374 71.274-23.469 66.238-24.727 68.705-.004.008-.007.017-.011.025-3.453 6.759-9.48 12.045-17.004 14.772-14.753 5.348-26.446 16.47-32.533 30.787-.997-2.334-2.138-4.622-3.462-6.835-4.108-6.868-5.439-14.774-3.845-22.193.002-.01.006-.018.008-.028.581-2.693-1.16 2.501 24.247-68.867 4.067-.866 7.611-3.751 9.106-7.948l6.815-19.146c2.295-6.444-1.063-13.515-7.509-15.81h.001l-33.775-12.022c-6.428-2.29-13.519 1.079-15.809 7.508l-6.815 19.146c-1.109 3.114-.938 6.474.479 9.46.423.89.952 1.706 1.554 2.456-25.309 71.095-23.462 66.221-24.723 68.696zm38.24-61.94c13.478 4.798 10.603 3.774 17.689 6.297-.161.453-22.68 63.701-22.834 64.157-3.212.336-6.459-.05-9.56-1.154h-.001c-3.101-1.104-5.861-2.855-8.139-5.146.158-.414 22.697-63.738 22.845-64.154zm-74.903 115.726c4.133-11.61 13.158-20.681 24.761-24.887 7.761-2.814 14.454-7.51 19.555-13.521 6.857 5.57 15.118 8.243 23.128 8.257.159 7.875 2.378 15.735 6.612 22.813 6.334 10.591 7.597 23.324 3.464 34.935l-2.247 6.312-77.52-27.596zm95.999 20.444 55.772 19.854c-.847 1.764-1.539 4.287-1.539 6.791v16.269h-69.51c6.585-18.501 3.865-10.859 15.277-42.914zm96.735 25.882c.421 0 .763.342.763.763v16.269h-28.265v-16.269c0-.42.342-.762.763-.762 14.822-.001 19.431-.001 26.739-.001zm-200.011-25.882 30.569 10.882h-23.873c-2.765 0-5.722.775-8.263 2.344-.613-.379-1.886-1.021-2.672-1.32zm45.101 16.055 32.418 11.54-5.453 15.318h-22.868v-16.269c0-3.972-1.594-7.829-4.097-10.589zm-39.168 10.59c0-.42.342-.763.763-.763h26.739c.421 0 .763.342.763.763v16.269h-28.265zm-43.263 0c0-.42.342-.763.763-.763h26.739c.42 0 .762.342.762.763v16.269h-28.264zm90.67 67.318c.059.136.129.265.19.399l-26.371 24.825h-93.338l-4.443-28.901h118.406c2.415-.001 4.595 1.442 5.556 3.677zm-107.719 101.98-9.494-61.757h75.097zm103.422-76.756 14.286-13.448c4.184 2.689 9.126 4.208 14.325 4.208 10.591 0 20.135-6.274 24.313-15.984.962-2.234 3.143-3.677 5.557-3.677h118.406l-4.443 28.901zm188.332-59.091v13.007c0 1.204-.979 2.183-2.183 2.183h-.521-127.147c-8.412 0-16.001 5.003-19.334 12.747-1.809 4.2-5.943 6.915-10.536 6.915-8.162 0-10.489-7.032-11.505-8.855-3.693-6.624-10.679-10.807-18.364-10.807h-127.148-.521c-1.203 0-2.183-.979-2.183-2.183v-13.007c0-1.203.979-2.182 2.183-2.182h315.075c1.204 0 2.184.979 2.184 2.182zm-47.403-226.581 28.829 10.263-5.056 14.2c-28.602-10.182-26.829-9.551-28.829-10.263zm-79.419 146.042c4.133-11.611 13.157-20.682 24.759-24.888 7.762-2.813 14.455-7.509 19.556-13.521 6.857 5.57 15.118 8.243 23.128 8.257.158 7.875 2.378 15.735 6.612 22.813 6.335 10.591 7.598 23.325 3.465 34.934l-1.328 3.73h-8.173l-70.266-25.013zm-23.857-146.042 28.829 10.263-5.054 14.2c-21.828-7.77-17.417-6.2-28.829-10.262z"/></g></g></svg>