<svg id="Layer_1" enable-background="new 0 0 512 512" height="512" viewBox="0 0 512 512" width="512" xmlns="http://www.w3.org/2000/svg"><g><g><path d="m304.083 7.439c-56.353 0-102.18 45.054-103.434 101.106l4.291 3.568h95.139l20.861 96.897 4.084 3.234c47.101-9.682 82.522-51.375 82.522-101.342 0-57.14-46.322-103.463-103.463-103.463z" fill="#ffc365"/><g><path d="m322.279 9.036c-5.907-1.048-11.988-1.596-18.196-1.596-56.353 0-102.18 45.054-103.434 101.106l4.291 3.568h36.391l-4.291-3.568c1.115-49.878 37.525-91.045 85.239-99.51z" fill="#ffb640"/></g><path d="m304.083 37.413c-39.797 0-72.182 31.638-73.43 71.132l2.454 3.568h69.5l11.167 63.397 5.896 7.21c33.098-7.15 57.903-36.58 57.903-71.818-.001-40.586-32.903-73.489-73.49-73.489z" fill="#ffb640"/><g><path d="m261.464 110.975c0-32.861 19.855-61.075 48.217-73.328-1.85-.14-3.713-.234-5.598-.234-39.797 0-72.182 31.638-73.43 71.132l2.454 3.568h28.382c-.005-.38-.025-.756-.025-1.138z" fill="#ffa90f"/></g><path d="m228.69 350.636h-22.5l-2.397 3.127v108.806l2.647 3.442h22.125l2.674-3.443v-108.805z" fill="#b5dcff"/><path d="m217.516 353.763 2.397-3.127h-13.723l-2.397 3.127v108.806l2.647 3.442h13.723l-2.647-3.442z" fill="#8bcaff"/><path d="m116.402 177.002 4.038 5.718h71l39.213 17.29h73.43l15.013-20.453-11.615-64.036c-.733-4.04-4.25-6.977-8.356-6.977h-163.215c-4.105 0-7.623 2.937-8.356 6.977z" fill="#dbedff"/><path d="m159.303 182.72 10.782-74.175h-34.175c-4.105 0-7.623 2.937-8.356 6.977l-11.152 61.48 4.038 5.718z" fill="#b5dcff"/><path d="m293.621 479.746c-.872-.499-1.628-.769-2.424-.992l-49.074-13.834c-.347-.098-.696-.182-1.044-.275l-49.63 13.99c-.78.219-1.541.482-2.424.954-9.973 5.32-7.799 21.536 1.576 24.85h97.862c11.824 0 15.762-18.629 5.158-24.693z" fill="#dbedff"/><path d="m190.479 479.682c.859-.458 1.599-.714 2.358-.927l49.075-13.834c.035-.01.071-.018.106-.028-8.022-2.251-16.246-3.39-24.5-3.39-8.29 0-16.55 1.148-24.606 3.418l-49.075 13.834c-.759.213-1.499.469-2.358.927-10.825 5.774-6.942 24.757 4.973 24.757h49c-11.916 0-15.798-18.983-4.973-24.757z" fill="#b5dcff"/><path d="m245.253 350.45c55.773-18.004 94.473-57.151 84.251-113.512l-10.408-57.381c-24.177 12.24-64.827 24.599-107.285 1.406-36.121-19.731-70.933-13.728-95.408-3.961l-10.871 59.936c-10.242 56.467 28.549 95.531 84.251 113.512 18.036 5.823 37.433 5.823 55.47 0z" fill="#dd5ca2"/><path d="m245.253 350.45c4.745-1.532 9.364-3.22 13.842-5.056-39.034-3.772-65.617-23.896-82.873-44.303-18.64-22.044-26.69-51.149-22.538-79.717l7.77-53.455c-16.95-.006-32.387 4.029-45.052 9.083l-10.871 59.936c-10.242 56.467 28.549 95.531 84.251 113.512 18.037 5.823 37.434 5.823 55.471 0z" fill="#da4093"/><path d="m217.799 279.811-40.372-110.656c-5.599-.875-11.084-1.256-16.419-1.236l42.699 117.033c1.11 3.042 3.985 4.931 7.046 4.931.854 0 1.722-.147 2.57-.456 3.892-1.419 5.895-5.724 4.476-9.616z" fill="#fc8900"/><circle cx="260.194" cy="278.018" fill="#da4093" r="19.714"/><path d="m257.98 278.018c0-7.741 4.472-14.421 10.964-17.647-2.639-1.311-5.603-2.068-8.75-2.068-10.888 0-19.714 8.826-19.714 19.714s8.826 19.714 19.714 19.714c3.147 0 6.111-.756 8.75-2.068-6.492-3.224-10.964-9.904-10.964-17.645z" fill="#c3247d"/></g><g><path d="m415.32 110.963c0-61.185-49.779-110.963-110.964-110.963-57.91 0-105.538 44.316-110.522 101.106h-40.984l-31.134-85.333c-1.42-3.891-5.729-5.893-9.616-4.475-3.892 1.42-5.896 5.725-4.476 9.617l29.258 80.192h-.699c-7.736 0-14.354 5.525-15.736 13.138-1.091 6.012-20.815 114.761-22.022 121.417-9.994 55.103 23.398 100.706 89.327 121.987 2.915.941 5.857 1.725 8.814 2.387v96.379c-1.814.402-3.622.842-5.416 1.348-53.597 15.109-50.502 14.069-52.928 15.362-17.786 9.487-11.149 38.875 8.503 38.875h53.504c4.143 0 7.5-3.358 7.5-7.5s-3.357-7.5-7.5-7.5h-53.504c-3.868 0-5.562-8.443-1.443-10.64.253-.135.453-.211.863-.326l49.075-13.834c5.54-1.561 11.452-2.579 17.479-2.958 3.401-.209 6.81-.208 10.211.001 6.114.388 11.986 1.416 17.451 2.957l49.09 13.838c.392.11.533.172.722.28 4.139 2.368 2.412 10.682-1.436 10.682h-53.508c-4.143 0-7.5 3.358-7.5 7.5s3.357 7.5 7.5 7.5h53.508c19.556 0 26.151-28.828 8.883-38.703-2.522-1.444 1.31-.172-53.189-15.535-1.795-.506-3.603-.947-5.418-1.349v-96.378c2.958-.662 5.901-1.446 8.817-2.388 59.275-19.134 100.281-61.604 89.327-121.987l-3.22-17.752c47.566-13.138 81.383-56.975 81.383-106.945zm-115.922 5.143c.198 0 .376.069.533.171.048.035.094.073.144.107.149.141.261.323.299.537l10.597 58.421c-24.327 11.163-59.167 18.834-95.291-.899-14-7.647-27.796-11.637-40.88-13.177l-16.476-45.16zm-55.602-31.493 28.566 16.493h-33.252c.854-5.791 2.455-11.317 4.686-16.493zm82.06 88.743-8.382-46.205 39.919 23.047c-7.865 10.605-18.833 18.776-31.537 23.158zm-14-127.945c18.387 2.093 34.785 11.784 45.516 26.237l-45.516 26.279zm-15 52.515-45.593-26.323c10.597-14.338 26.886-24.114 45.593-26.198zm-160.673 18.18h6.172l16.212 44.435c-11.724.322-22.613 2.396-32.223 5.236l8.861-48.855c.086-.473.497-.816.978-.816zm87.829 338.162c-4.17-.272-8.272-.272-12.446 0v-92.08c4.487.29 7.959.29 12.446 0zm6.654-107.886c-.098.011-.197.014-.295.029-8.348 1.284-16.815 1.284-25.165 0-.097-.015-.193-.018-.29-.029-25.938-4.122-105.189-33.856-91.732-108.045l10.116-55.773c11.368-4.122 25.365-7.368 40.75-6.997l39.931 109.446c1.42 3.89 5.724 5.894 9.616 4.475 3.892-1.42 5.896-5.725 4.476-9.617l-37.38-102.454c9.04 1.813 18.375 5.043 27.795 10.189 33.933 18.535 70.723 17.731 105.238 2.925 1.063 5.858 7.298 40.231 8.672 47.806 9.62 53.016-27.279 88.283-79.175 105.036-4.137 1.336-8.332 2.338-12.557 3.009zm100.586-143.275-2.696-14.865c27.205-8.524 48.323-31.071 54.747-59.169.923-4.038-1.603-8.06-5.64-8.983-4.039-.92-8.059 1.602-8.983 5.64-.909 3.976-2.185 7.813-3.78 11.48l-45.543-26.295 45.521-26.282c1.343 3.093 2.472 6.314 3.342 9.656 1.042 4.009 5.14 6.412 9.146 5.369 4.009-1.043 6.413-5.139 5.369-9.147-9.277-35.645-41.508-60.54-78.379-60.54-41.363 0-75.501 30.976-80.362 71.132h-15.092c4.994-48.131 46.294-86.103 95.454-86.103 52.915 0 95.964 43.049 95.964 95.963 0 42.764-28.619 80.353-69.068 92.144z"/><path d="m260.467 250.864c-15.006 0-27.215 12.208-27.215 27.215 0 15.006 12.209 27.214 27.215 27.214s27.215-12.208 27.215-27.214c0-15.007-12.209-27.215-27.215-27.215zm0 39.429c-6.735 0-12.215-5.479-12.215-12.214s5.479-12.215 12.215-12.215c6.735 0 12.215 5.479 12.215 12.215 0 6.734-5.48 12.214-12.215 12.214z"/><path d="m240.636 231.742c0-4.142-3.357-7.5-7.5-7.5h-4.42c-4.143 0-7.5 3.358-7.5 7.5s3.357 7.5 7.5 7.5h4.42c4.143 0 7.5-3.358 7.5-7.5z"/></g></g></svg>