<svg id="Layer_1" enable-background="new 0 0 512 512" height="512" viewBox="0 0 512 512" width="512" xmlns="http://www.w3.org/2000/svg"><g><g><path d="m309.419 61.892c-.711 2.051-3.129 2.92-4.981 1.788l-4.04-2.469c-1.92-1.174-4.453-.194-5.044 1.977-5.2 19.127 1.287 30.94 6.307 36.766 2.614 3.034 4.028 6.886 3.998 10.891-.059 7.691 2.636 20.895 18.975 32.117 1.855 1.274 4.42.382 5.125-1.755l1.483-4.496c.68-2.062 3.086-2.963 4.955-1.859 7.642 4.514 27.281 11.924 54.812-7.865 1.829-1.314 1.915-4.009.16-5.421l-8.912-7.168c-1.846-1.484-1.654-4.368.389-5.565 6.856-4.018 20.44-14.359 33.223-38.111 2.314-4.3.336-9.689-4.21-11.47-25.113-9.842-42.162-8.94-49.989-7.569-2.333.408-4.344-1.666-3.897-3.992l2.159-11.231c.425-2.211-1.384-4.211-3.628-4.03-33.795 2.721-43.978 21.077-46.885 29.462z" fill="#95d6a4"/><path d="m302.128 91.716c.591-2.172 3.123-3.151 5.044-1.977l4.04 2.469c1.852 1.132 4.27.264 4.981-1.788 2.907-8.385 13.09-26.741 46.885-29.462 2.245-.181 4.054 1.819 3.628 4.03l-2.159 11.231c-.447 2.326 1.564 4.401 3.897 3.992 6.657-1.166 19.989-1.988 39.276 3.846 2.705-3.892 5.445-8.31 8.149-13.335 2.314-4.299.336-9.689-4.21-11.47-25.113-9.842-42.162-8.94-49.989-7.569-2.333.408-4.344-1.666-3.897-3.992l2.159-11.231c.425-2.211-1.384-4.211-3.628-4.03-33.796 2.721-43.978 21.076-46.885 29.462-.711 2.051-3.129 2.92-4.981 1.788l-4.04-2.469c-1.921-1.174-4.453-.195-5.044 1.977-4.865 17.893.498 29.384 5.32 35.562.31-2.226.783-4.568 1.454-7.034z" fill="#66b394"/><path d="m243.703 195.093h98.015l24.504 49.007-49.008 98.015h-49.007l-49.732-98.21z" fill="#c3247d"/><g><path d="m195.954 178.104c-9.584-7.906-15.888-18.984-17.466-31.12l-2.991-2.879h-37.5l-3.271 2.879c-1.578 12.135-7.882 23.213-17.466 31.12-13.753 11.346-22.521 28.518-22.521 47.74v18.061l6.59 6.034h110l7.144-6.034v-18.061c.002-19.221-8.766-36.393-22.519-47.74z" fill="#8479c2"/><path d="m130.83 245.912c0-14.551 4.93-28.673 13.987-40.062 7.634-9.601 11.79-21.505 11.79-33.771v-27.973h-18.61l-3.271 2.879c-1.578 12.135-7.882 23.213-17.466 31.12-13.753 11.346-22.521 28.518-22.521 47.74v18.061l6.59 6.034h29.5v-4.028z" fill="#6e60b8"/><path d="m218.474 439.882-4.477-5.877h-112.333l-6.924 5.877v43.846c0 11.438 9.273 20.711 20.711 20.711h82.312c11.438 0 20.711-9.273 20.711-20.711z" fill="#8479c2"/><path d="m130.83 434.005h-29.167l-6.924 5.877v43.846c0 11.438 9.273 20.711 20.711 20.711h15.379v-70.434z" fill="#6e60b8"/><path d="m94.74 243.905h123.734v195.977h-123.734z" fill="#dbedff"/><path d="m94.74 243.905v195.977h36.09v-193.97c0-.67.021-1.338.042-2.007z" fill="#b5dcff"/><path d="m180.712 308.41h-48.21c-2.925 0-5.297 2.372-5.297 5.297v87.573c0 2.925 2.372 5.297 5.297 5.297h48.21c2.925 0 5.297-2.372 5.297-5.297v-87.573c0-2.926-2.371-5.297-5.297-5.297z" fill="#b5dcff"/><path d="m156.607 401.28v-87.573c0-2.925 2.372-5.297 5.297-5.297h-29.402c-2.925 0-5.297 2.372-5.297 5.297v87.573c0 2.925 2.372 5.297 5.297 5.297h29.402c-2.925 0-5.297-2.372-5.297-5.297z" fill="#8bcaff"/><path d="m178.087 141.002v-95.313l-2.632-2.938h-37.938l-2.391 2.938v95.313c0 2.017-.145 4.012-.401 5.982 6.149 4.457 13.705 7.092 21.881 7.092s15.731-2.635 21.881-7.092c-.255-1.969-.4-3.964-.4-5.982z" fill="#ffa90f"/><path d="m156.607 154.077v-111.325h-19.089l-2.391 2.938v95.313c0 2.017-.145 4.012-.401 5.982 6.15 4.457 13.706 7.092 21.881 7.092z" fill="#fc8900"/><path d="m179.407 7.439h-14.761c-2.488.846-5.281 3.196-5.281 5.971v26.309c0 2.774 2.793 5.125 5.281 5.971h14.761c3.424 0 6.2-2.776 6.2-6.2v-25.85c0-3.425-2.776-6.201-6.2-6.201z" fill="#ffc365"/><path d="m160.475 39.489v-25.849c0-3.424 2.776-6.2 6.2-6.2h-32.867c-3.424 0-6.2 2.776-6.2 6.2v25.85c0 3.424 2.776 6.2 6.2 6.2h32.867c-3.425-.001-6.2-2.776-6.2-6.201z" fill="#ffa90f"/></g><circle cx="341.718" cy="195.093" fill="#dd5ca2" r="24.504"/><path d="m339.089 195.093c0-9.601 5.525-17.907 13.566-21.927-3.293-1.646-7.006-2.577-10.938-2.577-13.533 0-24.504 10.971-24.504 24.504s10.971 24.504 24.504 24.504c3.932 0 7.645-.931 10.938-2.577-8.041-4.02-13.566-12.326-13.566-21.927z" fill="#da4093"/><circle cx="292.711" cy="195.093" fill="#dd5ca2" r="24.504"/><path d="m290.082 195.093c0-9.601 5.525-17.907 13.566-21.927-3.293-1.646-7.006-2.577-10.938-2.577-13.533 0-24.504 10.971-24.504 24.504s10.971 24.504 24.504 24.504c3.932 0 7.645-.931 10.938-2.577-8.041-4.02-13.566-12.326-13.566-21.927z" fill="#da4093"/><circle cx="243.703" cy="195.093" fill="#dd5ca2" r="24.504"/><path d="m241.075 195.093c0-9.601 5.525-17.907 13.566-21.927-3.293-1.646-7.006-2.577-10.938-2.577-13.533 0-24.504 10.971-24.504 24.504s10.971 24.504 24.504 24.504c3.932 0 7.645-.931 10.938-2.577-8.041-4.02-13.566-12.326-13.566-21.927z" fill="#da4093"/><circle cx="341.718" cy="293.108" fill="#dd5ca2" r="24.504"/><path d="m339.089 293.108c0-9.601 5.525-17.907 13.566-21.927-3.293-1.646-7.006-2.577-10.938-2.577-13.533 0-24.504 10.971-24.504 24.504s10.971 24.504 24.504 24.504c3.932 0 7.645-.931 10.938-2.577-8.041-4.02-13.566-12.326-13.566-21.927z" fill="#da4093"/><circle cx="292.711" cy="293.108" fill="#dd5ca2" r="24.504"/><path d="m290.082 293.108c0-9.601 5.525-17.907 13.566-21.927-3.293-1.646-7.006-2.577-10.938-2.577-13.533 0-24.504 10.971-24.504 24.504s10.971 24.504 24.504 24.504c3.932 0 7.645-.931 10.938-2.577-8.041-4.02-13.566-12.326-13.566-21.927z" fill="#da4093"/><circle cx="243.703" cy="293.108" fill="#dd5ca2" r="24.504"/><path d="m241.075 293.108c0-9.601 5.525-17.907 13.566-21.927-3.293-1.646-7.006-2.577-10.938-2.577-13.533 0-24.504 10.971-24.504 24.504s10.971 24.504 24.504 24.504c3.932 0 7.645-.931 10.938-2.577-8.041-4.02-13.566-12.326-13.566-21.927z" fill="#da4093"/><circle cx="317.214" cy="342.116" fill="#dd5ca2" r="24.504"/><path d="m314.586 342.116c0-9.601 5.525-17.907 13.566-21.927-3.293-1.646-7.006-2.577-10.938-2.577-13.533 0-24.504 10.971-24.504 24.504s10.971 24.504 24.504 24.504c3.932 0 7.645-.931 10.938-2.577-8.041-4.02-13.566-12.326-13.566-21.927z" fill="#da4093"/><circle cx="268.207" cy="342.116" fill="#dd5ca2" r="24.504"/><path d="m265.578 342.116c0-9.601 5.525-17.907 13.566-21.927-3.293-1.646-7.006-2.577-10.938-2.577-13.533 0-24.504 10.971-24.504 24.504s10.971 24.504 24.504 24.504c3.932 0 7.645-.931 10.938-2.577-8.041-4.02-13.566-12.326-13.566-21.927z" fill="#da4093"/><circle cx="317.214" cy="244.101" fill="#dd5ca2" r="24.504"/><path d="m314.586 244.101c0-9.601 5.525-17.907 13.566-21.927-3.293-1.646-7.006-2.577-10.938-2.577-13.533 0-24.504 10.971-24.504 24.504s10.971 24.504 24.504 24.504c3.932 0 7.645-.931 10.938-2.577-8.041-4.02-13.566-12.326-13.566-21.927z" fill="#da4093"/><circle cx="268.207" cy="244.101" fill="#dd5ca2" r="24.504"/><path d="m265.578 244.101c0-9.601 5.525-17.907 13.566-21.927-3.293-1.646-7.006-2.577-10.938-2.577-13.533 0-24.504 10.971-24.504 24.504s10.971 24.504 24.504 24.504c3.932 0 7.645-.931 10.938-2.577-8.041-4.02-13.566-12.326-13.566-21.927z" fill="#da4093"/><circle cx="219.2" cy="244.101" fill="#dd5ca2" r="24.504"/><path d="m216.571 244.101c0-9.601 5.525-17.907 13.566-21.927-3.293-1.646-7.006-2.577-10.938-2.577-13.533 0-24.504 10.971-24.504 24.504s10.971 24.504 24.504 24.504c3.932 0 7.645-.931 10.938-2.577-8.041-4.02-13.566-12.326-13.566-21.927z" fill="#da4093"/><circle cx="366.222" cy="244.101" fill="#dd5ca2" r="24.504"/><path d="m363.593 244.101c0-9.601 5.525-17.907 13.566-21.927-3.293-1.646-7.006-2.577-10.938-2.577-13.533 0-24.504 10.971-24.504 24.504s10.971 24.504 24.504 24.504c3.932 0 7.645-.931 10.938-2.577-8.041-4.02-13.566-12.326-13.566-21.927z" fill="#da4093"/></g><g><path d="m193.718 401.34v-87.573c0-7.056-5.74-12.797-12.797-12.797h-48.21c-7.057 0-12.797 5.741-12.797 12.797v87.573c0 7.056 5.74 12.797 12.797 12.797h48.21c7.057 0 12.797-5.741 12.797-12.797zm-15-2.203h-43.804v-83.167h43.804z"/><path d="m422.683 74.337c4.445-8.258.647-18.587-8.078-22.007-21.806-8.546-38.174-9.468-48.193-8.694l1.096-5.7c1.362-7.088-4.417-13.506-11.596-12.921-33.002 2.657-46.283 19.273-51.432 29.833-6.126-3.709-14.239-.608-16.154 6.433-5.228 19.227-.041 32.411 5.071 39.973-12.531.927-22.568-1.017-26.283-1.894-9.397-8.926-21.571-17.377-37.339-24.021-3.815-1.607-8.215.181-9.823 4-1.608 3.817.182 8.215 3.999 9.824 19.109 8.052 35.699 20.473 46.966 37.975-1.58 2.994-5.182 8.097-12.88 12.664-3.563 2.113-4.737 6.714-2.624 10.277 2.117 3.568 6.722 4.734 10.276 2.624 5.747-3.409 9.952-7.149 13.019-10.662 3.71 8.958 5.373 16.914 6.114 22.151-6.503 1.702-12.203 5.405-16.406 10.407-5.875-6.992-14.677-11.447-24.504-11.447-14.352 0-26.527 9.497-30.573 22.537-3.495-4.895-7.639-9.376-12.404-13.307-8.261-6.816-13.485-16.197-14.8-26.286-.001-.005 0-.009-.001-.014-.483-3.725-.338-3.26-.338-31.162 0-4.142-3.357-7.5-7.5-7.5s-7.5 3.358-7.5 7.5c0 28.541-.023 26.622.042 28.22-8.562 4.584-19.162 4.755-28.046 0 .069-1.723.044 5.2.044-89.888h27.96v26.667c0 4.142 3.357 7.5 7.5 7.5s7.5-3.358 7.5-7.5v-28.159c4.454-2.264 7.52-6.881 7.52-12.21v-25.85c0-7.554-6.146-13.7-13.7-13.7h-45.6c-7.555 0-13.7 6.146-13.7 13.7v25.85c0 5.329 3.065 9.946 7.52 12.21 0 97.419.14 90.648-.338 94.319-.001.008 0 .016-.001.025-1.318 10.086-6.541 19.463-14.799 26.275-16.046 13.237-25.248 32.747-25.248 53.526v257.883c0 15.556 12.656 28.211 28.212 28.211h82.312c15.556 0 28.211-12.656 28.211-28.211 0-2.76 0-161.108 0-163.992 4.421 2.953 9.615 4.829 15.208 5.267-3.147 4.953-4.979 10.821-4.979 17.112 0 17.647 14.356 32.004 32.004 32.004 9.827 0 18.628-4.455 24.504-11.447 5.875 6.992 14.677 11.447 24.504 11.447 17.646 0 32.003-14.357 32.003-32.004 0-6.291-1.832-12.159-4.979-17.112 16.473-1.291 29.483-15.098 29.483-31.895 0-6.291-1.832-12.159-4.979-17.112 16.472-1.291 29.483-15.097 29.483-31.895s-13.011-30.605-29.483-31.895c3.147-4.953 4.979-10.821 4.979-17.112 0-17.647-14.356-32.004-32.004-32.004-9.826 0-18.628 4.455-24.503 11.447-4.437-5.28-10.544-9.106-17.501-10.666-1.908-15.857-7.97-32.708-18.171-47.48 1.614.077 3.296.122 5.044.122 3.701 0 7.688-.205 11.862-.69 1.093 9.064 5.776 22.222 21.939 33.323 2.809 1.927 6.309 2.449 9.616 1.332 3.223-1.087 5.786-3.656 6.863-6.878 10.756 4.721 31.633 8.801 58.519-10.522 5.86-4.211 6.105-12.834.484-17.355l-4.522-3.638c8.138-5.889 20.025-17.186 31.124-37.808zm-203.274 152.82c9.375 0 17.003 7.628 17.003 17.004 0 9.375-7.628 17.003-17.003 17.003-9.3 0-16.986-7.554-17.002-16.974.001-.04.002-.078.002-.103.033-9.437 7.775-16.93 17-16.93zm73.51 83.015c-9.376 0-17.004-7.628-17.004-17.004s7.628-17.004 17.004-17.004 17.004 7.628 17.004 17.004-7.628 17.004-17.004 17.004zm-24.504-49.007c-9.376 0-17.004-7.628-17.004-17.003 0-9.376 7.628-17.004 17.004-17.004s17.004 7.628 17.004 17.004c0 9.375-7.628 17.003-17.004 17.003zm49.008 0c-9.376 0-17.004-7.628-17.004-17.003 0-9.376 7.628-17.004 17.004-17.004 9.375 0 17.003 7.628 17.003 17.004 0 9.375-7.628 17.003-17.003 17.003zm-73.512-83.015c9.376 0 17.004 7.628 17.004 17.004 0 9.375-7.628 17.003-17.004 17.003-9.375 0-17.003-7.628-17.003-17.003.001-9.376 7.628-17.004 17.003-17.004zm-108.595-163.15h43v23.25h-.02-.001-42.959-.001-.02v-23.25zm-13.074 168.951c8.365-6.901 14.437-15.782 17.739-25.587 10.519 4.275 22.698 4.459 33.671 0 3.302 9.805 9.373 18.686 17.738 25.587 9.35 7.714 15.73 18.075 18.389 29.675-10.618 3.318-18.814 12.11-21.446 22.841h-85.884v-10.561c0-16.286 7.213-31.578 19.793-41.955zm75.73 313.049h-82.312c-7.285 0-13.212-5.927-13.212-13.211v-36.346h36.867c4.143 0 7.5-3.358 7.5-7.5s-3.357-7.5-7.5-7.5h-36.867v-180.977h85.779c2.714 11.733 11.69 20.698 22.955 23.641v157.336h-36.867c-4.143 0-7.5 3.358-7.5 7.5s3.357 7.5 7.5 7.5h36.867v36.346c.001 7.284-5.926 13.211-13.21 13.211zm28.937-203.832c0-9.376 7.628-17.004 17.003-17.004 9.376 0 17.004 7.628 17.004 17.004s-7.628 17.004-17.004 17.004-17.003-7.628-17.003-17.004zm41.506 66.012c-9.376 0-17.004-7.628-17.004-17.004 0-9.375 7.628-17.003 17.004-17.003s17.004 7.628 17.004 17.003c0 9.376-7.628 17.004-17.004 17.004zm49.008 0c-9.376 0-17.004-7.628-17.004-17.004 0-9.375 7.628-17.003 17.004-17.003 9.375 0 17.003 7.628 17.003 17.003 0 9.376-7.628 17.004-17.003 17.004zm24.503-49.008c-9.375 0-17.003-7.628-17.003-17.004s7.628-17.004 17.003-17.004c9.376 0 17.004 7.628 17.004 17.004s-7.628 17.004-17.004 17.004zm41.508-66.011c0 9.375-7.628 17.003-17.004 17.003s-17.004-7.628-17.004-17.003c0-9.376 7.628-17.004 17.004-17.004s17.004 7.628 17.004 17.004zm-41.508-66.011c9.376 0 17.004 7.628 17.004 17.004 0 9.375-7.628 17.003-17.004 17.003-9.375 0-17.003-7.628-17.003-17.003 0-9.376 7.628-17.004 17.003-17.004zm-32.003 17.004c0 9.375-7.628 17.003-17.004 17.003s-17.004-7.628-17.004-17.003c0-9.376 7.628-17.004 17.004-17.004s17.004 7.628 17.004 17.004zm69.141-92.731c-6.567 3.849-7.229 13.109-1.298 17.88l4.573 3.678c-21.699 13.542-36.524 7.778-42.12 4.473-2.857-1.686-6.274-1.985-9.378-.819-2.779 1.045-4.975 3.141-6.146 5.83-8.315-7.184-10.841-14.684-11.257-20.479 7.004-1.962 14.244-4.873 21.41-9.115 3.564-2.109 4.744-6.709 2.634-10.274-2.109-3.564-6.707-4.743-10.274-2.634-5.754 3.406-11.612 5.774-17.318 7.399-2.395-3.957-10.921-10.651-8.256-27.728 5.826 2.855 12.922.001 15.081-6.225 2.128-6.139 9.706-20.125 35.012-23.835l-1.108 5.762c-1.439 7.49 5.073 14.106 12.556 12.796 7.144-1.25 22.615-1.984 45.958 7.164.361.141.527.594.343.933-11.884 22.077-24.155 31.527-30.412 35.194z"/></g></g></svg>