<svg id="Layer_1" enable-background="new 0 0 511.993 511.993" height="512" viewBox="0 0 511.993 511.993" width="512" xmlns="http://www.w3.org/2000/svg"><g><g><path d="m361.64 186.407c-3.643-.759-7.423-.388-10.853 1.055l-129.234 54.343 2.475 2.584h250.292l3.53-2.584c-45.51-38.143-98.862-51.782-116.21-55.398z" fill="#ffd086"/><path d="m256.777 241.804 34.981-29.521-70.206 29.521 2.475 2.584h32.75z" fill="#ffc365"/><path d="m18.444 177.46h68l23.791 18.428h57.209l12.794-20.769-13.69-139.492c-.409-4.172-3.917-7.352-8.109-7.352h-123.737c-4.192 0-7.699 3.18-8.109 7.352l-13.347 135.998z" fill="#dbedff"/><path d="m59.924 177.46 11.092-149.185h-36.314c-4.192 0-7.699 3.18-8.109 7.352l-13.347 135.998 5.198 5.836h41.48z" fill="#b5dcff"/><path d="m360.107 241.804-2.746 2.334h-52.167l-2.534-2.334h-81.108v40.635l3.892 3.908v63.875l-3.892 4.039v35.3l3.071 1.494h248.071l5.155-1.494v-147.757z" fill="#ffc365"/><path d="m256.777 241.804h-35.225v40.635l3.892 3.908v63.875l-3.892 4.039v35.3l3.071 1.494h32.154z" fill="#ffa90f"/><path d="m108.027 323.472h-22.75l-2.084 2.175v120.677c.077 0 .153-.003.23-.003l2.396 3.026h23.25l1.57-3.013v-120.79z" fill="#b5dcff"/><path d="m96.916 323.472h-11.639l-2.084 2.175v120.677c.077 0 .153-.003.23-.003l2.396 3.026h11.097z" fill="#8bcaff"/><path d="m185.485 228.579-5.247-53.46c-13.181 7.246-47.491 21.267-83.667-3.494-46.194-31.618-83.325 0-83.325 0l-5.59 56.954c-5.156 52.538 36.124 98.067 88.914 98.067 52.791 0 94.071-45.529 88.915-98.067z" fill="#dd5ca2"/><path d="m96.571 326.646c8.236 0 16.191-1.109 23.734-3.179-13.9-6.005-24.853-13.858-33.469-22.375-21.604-21.355-32.281-51.413-30.029-81.706l4.568-61.438c-28.484-3.043-48.129 13.676-48.129 13.676l-5.589 56.954c-5.157 52.539 36.123 98.068 88.914 98.068z" fill="#da4093"/><circle cx="83.193" cy="238.488" fill="#da4093" r="17.085"/><path d="m82.108 238.488c0-6.544 3.682-12.222 9.085-15.092-2.387-1.268-5.108-1.993-8-1.993-9.436 0-17.085 7.649-17.085 17.085s7.649 17.085 17.085 17.085c2.892 0 5.613-.725 8-1.993-5.403-2.87-9.085-8.548-9.085-15.092z" fill="#c3247d"/><circle cx="403.932" cy="305.433" fill="#ffa90f" r="17.917"/><path d="m404.641 305.433c0-6.48 3.451-12.138 8.604-15.285-2.716-1.659-5.897-2.632-9.313-2.632-9.895 0-17.917 8.022-17.917 17.917s8.021 17.917 17.917 17.917c3.416 0 6.596-.973 9.313-2.632-5.153-3.146-8.604-8.805-8.604-15.285z" fill="#ff9b00"/><path d="m241.412 277.314c-7.206 0-13.974 1.863-19.859 5.125v71.823c5.886 3.262 12.654 5.125 19.859 5.125 22.664 0 41.036-18.373 41.036-41.036 0-22.665-18.373-41.037-41.036-41.037z" fill="#ffa90f"/><path d="m256.777 280.299c-4.747-1.919-9.931-2.985-15.366-2.985-7.206 0-13.974 1.863-19.86 5.125v71.823c5.886 3.262 12.654 5.125 19.86 5.125 5.435 0 10.618-1.066 15.366-2.985z" fill="#ff9b00"/><path d="m301.009 251.681c0 16.776 13.599 30.375 30.375 30.375s30.375-13.599 30.375-30.375c0-3.459-.586-6.779-1.651-9.877h-57.448c-1.065 3.098-1.651 6.418-1.651 9.877z" fill="#ffa90f"/><path d="m319.634 251.681c0-3.459.586-6.779 1.651-9.877h-18.625c-1.065 3.098-1.651 6.418-1.651 9.877 0 16.776 13.599 30.375 30.375 30.375 3.249 0 6.377-.516 9.313-1.46-12.22-3.933-21.063-15.389-21.063-28.915z" fill="#ff9b00"/><path d="m353.286 346.659c-16.672 0-30.188 13.515-30.188 30.188 0 4.544 1.01 8.849 2.808 12.714l1.704 1.494h51.583l1.472-1.494c1.798-3.865 2.808-8.171 2.808-12.714.001-16.673-13.515-30.188-30.187-30.188z" fill="#ffa90f"/><path d="m341.724 376.847c0-13.421 8.761-24.791 20.875-28.717-2.934-.951-6.062-1.471-9.313-1.471-16.672 0-30.188 13.515-30.188 30.188 0 4.544 1.01 8.849 2.808 12.714l1.704 1.494h18.625l-1.704-1.494c-1.797-3.865-2.807-8.171-2.807-12.714z" fill="#ff9b00"/><path d="m497.31 389.561h-303.796c-3.817 0-6.911 3.094-6.911 6.911 0 16.249 13.172 29.421 29.421 29.421h258.776c16.249 0 29.421-13.172 29.421-29.421 0-3.817-3.094-6.911-6.911-6.911z" fill="#dbedff"/><path d="m263.04 396.472c0-3.817 3.094-6.911 6.911-6.911h-76.437c-3.817 0-6.911 3.094-6.911 6.911 0 16.249 13.172 29.421 29.421 29.421h76.437c-16.249-.001-29.421-13.173-29.421-29.421z" fill="#b5dcff"/><path d="m173.826 460.54c-.106-.027-.213-.054-.319-.08l-31.036-8.881c-7.377-1.794-14.884-3.609-22.443-4.566-7.045 1.017-14.039 2.696-20.922 4.37l-31.492 9.012c-1.274.311-2.481.69-4.021 1.941-8.127 6.605-4.301 19.275 5.227 21.261h101.956c13.704 0 16.321-19.636 3.05-23.057z" fill="#dbedff"/><path d="m64.422 462.374c1.518-1.234 2.707-1.607 3.963-1.913l31.036-8.881c7.078-1.721 14.276-3.457 21.525-4.441-3.732-.507-7.477-.818-11.227-.818h-26.296c-11.035 0-22.03 2.652-32.751 5.259l-31.036 8.881c-1.256.306-2.445.68-3.963 1.913-8.706 7.076-3.499 21.223 7.72 21.223h48.75c-11.221 0-16.427-14.148-7.721-21.223z" fill="#b5dcff"/></g><g><path d="m497.583 382.121h-11.961v-46.211c0-4.143-3.357-7.5-7.5-7.5s-7.5 3.357-7.5 7.5v46.211h-79.747c3.175-22.92-14.71-42.901-37.317-42.901-22.643 0-40.492 20.024-37.316 42.901h-86.917v-16.782c31.009 8.157 60.895-15.414 60.895-46.928 0-31.571-29.948-55.072-60.895-46.928v-22.118h64.539c-1.38 21.888 16.075 40.252 37.792 40.252 21.71 0 39.173-18.357 37.792-40.252h101.173v51.546c0 4.143 3.357 7.5 7.5 7.5s7.5-3.357 7.5-7.5v-59.046c0-2.264-1.058-4.424-2.75-5.803-45.971-38.5-98.83-52.643-119.43-56.936-5.144-1.071-10.431-.56-15.29 1.483l-129.214 54.333c-2.823 1.181-4.613 3.967-4.613 6.923v140.257h-20.538c-7.946 0-14.411 6.465-14.411 14.411 0 20.358 16.563 36.921 36.921 36.921h258.776c20.357 0 36.92-16.563 36.92-36.921.001-7.947-6.463-14.412-14.409-14.412zm-222.362-63.711c0 23.573-23.844 39.913-45.895 31.178v-62.354c22.084-8.752 45.895 7.651 45.895 31.176zm56.436-43.794c-13.503 0-24.162-11.72-22.752-25.252h45.504c1.411 13.541-9.258 25.252-22.752 25.252zm22.31-80.181c2.042-.859 4.262-1.074 6.415-.626 13.259 2.764 55.297 13.184 95.401 40.555-7.709 0-188.328 0-196.773 0zm-.408 159.785c14.556 0 25.457 13.629 22.086 27.901h-44.171c-3.373-14.28 7.535-27.901 22.085-27.901zm121.515 64.233h-258.777c-11.891 0-21.6-9.516-21.913-21.332h302.602c-.314 11.816-10.023 21.332-21.912 21.332z"/><path d="m378.788 305.494c0 14.015 11.402 25.416 25.417 25.416s25.416-11.401 25.416-25.416-11.401-25.417-25.416-25.417-25.417 11.402-25.417 25.417zm35.833 0c0 5.743-4.673 10.416-10.416 10.416-5.744 0-10.417-4.673-10.417-10.416 0-5.744 4.673-10.417 10.417-10.417s10.416 4.673 10.416 10.417z"/><path d="m83.465 263.134c13.557 0 24.585-11.028 24.585-24.585s-11.028-24.585-24.585-24.585c-13.556 0-24.584 11.028-24.584 24.585s11.028 24.585 24.584 24.585zm0-34.17c5.285 0 9.585 4.3 9.585 9.585s-4.3 9.585-9.585 9.585c-5.284 0-9.584-4.3-9.584-9.585s4.3-9.585 9.584-9.585z"/><path d="m118.008 289.984h4.522c4.143 0 7.5-3.357 7.5-7.5s-3.357-7.5-7.5-7.5h-4.522c-4.143 0-7.5 3.357-7.5 7.5s3.358 7.5 7.5 7.5z"/><path d="m75.965 331.913v107.345c-9.367.863-18.514 3.081-26.793 5.095-.098.023-.194.049-.291.076-35.343 10.114-34.132 9.312-37.667 12.186-6.42 5.218-8.771 13.651-5.988 21.486 2.816 7.933 10.055 13.058 18.438 13.058h147.384c9.98 0 17.831-6.94 19.092-16.877 1.272-10.037-4.783-18.667-14.442-21.012-22.453-6.426-40.952-12.326-57.286-13.947v-107.567c48.038-11.009 79.519-55.863 74.81-103.849-.704-7.17-18.23-185.757-18.937-192.952-.789-8.05-7.484-14.12-15.572-14.12h-44.369c-4.143 0-7.5 3.358-7.5 7.5s3.357 7.5 7.5 7.5h44.369c.335 0 .611.251.645.584l13.189 134.395c-14.081 6.614-42.138 14.756-71.466-5.319-26.185-17.922-54.166-19.555-78.634-7.993l11.883-121.083c.033-.333.31-.584.645-.584h44.368c4.143 0 7.5-3.358 7.5-7.5s-3.357-7.5-7.5-7.5h-44.368c-8.088 0-14.783 6.07-15.572 14.12l-18.938 192.952c-4.736 48.258 27.138 93.294 75.5 104.006zm96.262 135.951c3.038.783 3.204 3.175 3.031 4.53-.143 1.132-.841 3.764-4.21 3.764h-147.384c-2.979 0-4.047-2.354-4.303-3.077-.312-.877-.808-3.103 1.313-4.826.45-.367 31.577-9.189 32.188-9.363 10.093-2.454 20.521-4.976 30.641-5.008l26.488-.003c10.618.164 19.312 2.209 30.833 5.011 34.823 9.965 30.44 8.719 31.403 8.972zm-68.816-133.879v104.896h-12.446v-104.853c4.208.257 8.448.227 12.446-.043zm-10.803-156.111c32.392 22.172 63.413 15.946 81.479 8.634l4.207 42.864c4.337 44.197-27.559 84.359-72.484 89.336-52.311 5.679-95.434-38.19-90.416-89.336l5.266-53.657c8.138-5.562 37.13-21.671 71.948 2.159z"/></g></g></svg>