<svg id="Layer_1" enable-background="new 0 0 512.002 512.002" height="512" viewBox="0 0 512.002 512.002" width="512" xmlns="http://www.w3.org/2000/svg"><g><g><path d="m400.117 217.757h40l18 36.55-19.265 36.551h-37.508l-21.06-36.551z" fill="#c3247d"/><path d="m265.988 189.828c-.637 1.837-2.803 2.616-4.462 1.601l-3.618-2.212c-1.72-1.051-3.989-.174-4.518 1.771-4.658 17.133 1.153 27.713 5.649 32.932 2.342 2.718 3.608 6.168 3.581 9.756-.053 6.889 2.361 18.716 16.997 28.767 1.662 1.141 3.959.342 4.591-1.572l1.328-4.027c.609-1.847 2.764-2.654 4.438-1.665 6.845 4.043 24.436 10.68 49.096-7.045 1.638-1.177 1.715-3.591.143-4.855l-7.982-6.42c-1.653-1.33-1.482-3.912.348-4.985 6.141-3.599 18.308-12.862 29.758-34.136 2.073-3.851.301-8.678-3.771-10.274-22.494-8.816-37.765-8.008-44.776-6.78-2.09.366-3.891-1.492-3.491-3.576l1.934-10.06c.381-1.981-1.239-3.772-3.25-3.61-30.27 2.438-39.391 18.879-41.995 26.39z" fill="#95d6a4"/><path d="m259.457 216.542c.529-1.945 2.798-2.823 4.518-1.771l3.618 2.212c1.659 1.014 3.825.236 4.462-1.602 2.604-7.511 11.725-23.952 41.996-26.389 2.011-.162 3.631 1.629 3.25 3.61l-1.934 10.06c-.4 2.083 1.401 3.942 3.49 3.576 5.963-1.044 17.905-1.781 35.18 3.445 2.423-3.486 4.877-7.443 7.299-11.944 2.073-3.851.301-8.678-3.771-10.274-22.494-8.816-37.765-8.008-44.776-6.78-2.089.366-3.891-1.492-3.49-3.576l1.934-10.059c.381-1.981-1.24-3.772-3.25-3.61-30.272 2.437-39.392 18.878-41.996 26.389-.637 1.837-2.803 2.616-4.462 1.601l-3.618-2.212c-1.72-1.051-3.989-.174-4.518 1.771-4.357 16.027.446 26.32 4.765 31.853.279-1.993.703-4.091 1.303-6.3z" fill="#66b394"/><path d="m374.569 78.529c.118 1.371-1.058 2.498-2.422 2.32l-2.976-.387c-1.415-.184-2.628 1.036-2.409 2.446 1.925 12.414 8.728 17.577 13.137 19.655 2.296 1.082 4.108 2.947 5.124 5.273 1.95 4.467 6.917 11.415 19.271 13.694 1.403.259 2.657-.919 2.514-2.338l-.302-2.985c-.138-1.369 1.022-2.511 2.389-2.355 5.588.641 18.868-.137 29.698-18.696.719-1.233.074-2.815-1.306-3.179l-7.008-1.85c-1.451-.383-2.085-2.101-1.211-3.322 2.932-4.095 8.126-13.586 9.397-30.632.23-3.086-2.305-5.695-5.397-5.553-17.076.783-26.712 5.704-30.889 8.517-1.245.838-2.944.156-3.286-1.305l-1.648-7.058c-.324-1.39-1.887-2.08-3.14-1.397-18.859 10.296-20.017 23.548-19.536 29.152z" fill="#95d6a4"/><path d="m375.505 95.629 2.976.387c1.365.177 2.54-.949 2.422-2.32-.481-5.604.677-18.856 19.537-29.151 1.253-.684 2.816.007 3.14 1.397l1.648 7.058c.341 1.462 2.041 2.144 3.286 1.305 3.992-2.688 12.988-7.293 28.681-8.38.556-2.936 1.004-6.167 1.271-9.751.23-3.086-2.306-5.695-5.397-5.553-17.076.783-26.712 5.704-30.889 8.517-1.245.838-2.944.156-3.286-1.305l-1.648-7.058c-.324-1.39-1.887-2.08-3.14-1.397-18.861 10.295-20.018 23.547-19.537 29.151.117 1.371-1.058 2.498-2.422 2.32l-2.976-.387c-1.415-.184-2.628 1.036-2.409 2.446 1.052 6.784 3.563 11.392 6.342 14.525.17-1.113 1.208-1.959 2.401-1.804z" fill="#66b394"/><path d="m65.372 156.084c1.704.794 2.238 2.954 1.099 4.449l-2.485 3.261c-1.181 1.55-.562 3.819 1.257 4.52 16.016 6.174 26.766 1.632 32.229-2.177 2.845-1.983 6.289-2.86 9.736-2.479 6.62.732 18.233-.42 29.346-13.501 1.262-1.485.721-3.774-1.058-4.571l-3.742-1.676c-1.716-.768-2.279-2.92-1.163-4.433 4.565-6.183 12.687-22.444-1.92-47.913-.97-1.692-3.284-2.004-4.655-.618l-6.964 7.042c-1.442 1.458-3.909 1.038-4.76-.828-2.854-6.261-10.559-18.879-29.887-31.994-3.499-2.374-8.316-1.147-10.253 2.611-10.702 20.761-11.435 35.527-10.947 42.391.145 2.046-1.82 3.594-3.784 3.003l-9.483-2.854c-1.867-.562-3.75.819-3.793 2.769-.649 29.354 14.261 39.751 21.227 42.998z" fill="#95d6a4"/><g><path d="m85.048 167.514 2.485-3.261c1.139-1.495.605-3.655-1.099-4.449-6.966-3.247-21.876-13.644-21.227-42.997.043-1.95 1.926-3.331 3.793-2.769l9.483 2.854c1.964.591 3.929-.958 3.784-3.003-.477-6.716.22-20.999 10.274-41.057-2.962-2.506-6.319-5.075-10.135-7.664-3.499-2.374-8.316-1.147-10.253 2.611-10.702 20.761-11.435 35.527-10.947 42.391.145 2.046-1.82 3.594-3.784 3.003l-9.483-2.854c-1.867-.562-3.75.819-3.793 2.769-.65 29.353 14.26 39.75 21.226 42.997 1.704.794 2.238 2.954 1.099 4.449l-2.485 3.261c-1.181 1.55-.562 3.819 1.257 4.52 7.859 3.029 14.447 3.476 19.767 2.697-.718-1.004-.783-2.42.038-3.498z" fill="#66b394"/></g><path d="m207.126 309.138h87.793l21.948 43.897-43.896 87.793h-43.897l-44.546-87.968z" fill="#c3247d"/><circle cx="294.919" cy="309.138" fill="#dd5ca2" r="21.948"/><path d="m292.564 309.138c0-8.6 4.949-16.04 12.151-19.64-2.95-1.474-6.275-2.309-9.797-2.309-12.122 0-21.948 9.827-21.948 21.948s9.827 21.948 21.948 21.948c3.522 0 6.847-.834 9.797-2.308-7.202-3.599-12.151-11.039-12.151-19.639z" fill="#da4093"/><circle cx="251.022" cy="309.138" fill="#dd5ca2" r="21.948"/><path d="m248.668 309.138c0-8.6 4.949-16.04 12.151-19.64-2.95-1.474-6.275-2.309-9.797-2.309-12.122 0-21.948 9.827-21.948 21.948s9.827 21.948 21.948 21.948c3.522 0 6.847-.834 9.797-2.308-7.202-3.599-12.151-11.039-12.151-19.639z" fill="#da4093"/><circle cx="207.126" cy="309.138" fill="#dd5ca2" r="21.948"/><path d="m204.771 309.138c0-8.6 4.949-16.04 12.151-19.64-2.95-1.474-6.275-2.309-9.797-2.309-12.122 0-21.948 9.827-21.948 21.948s9.827 21.948 21.948 21.948c3.522 0 6.847-.834 9.797-2.308-7.202-3.599-12.151-11.039-12.151-19.639z" fill="#da4093"/><circle cx="294.919" cy="396.931" fill="#dd5ca2" r="21.948"/><path d="m292.564 396.931c0-8.6 4.949-16.04 12.151-19.64-2.95-1.474-6.275-2.309-9.797-2.309-12.122 0-21.948 9.827-21.948 21.948s9.827 21.948 21.948 21.948c3.522 0 6.847-.834 9.797-2.309-7.202-3.598-12.151-11.038-12.151-19.638z" fill="#da4093"/><circle cx="251.022" cy="396.931" fill="#dd5ca2" r="21.948"/><path d="m248.668 396.931c0-8.6 4.949-16.04 12.151-19.64-2.95-1.474-6.275-2.309-9.797-2.309-12.122 0-21.948 9.827-21.948 21.948s9.827 21.948 21.948 21.948c3.522 0 6.847-.834 9.797-2.309-7.202-3.598-12.151-11.038-12.151-19.638z" fill="#da4093"/><circle cx="207.126" cy="396.931" fill="#dd5ca2" r="21.948"/><path d="m204.771 396.931c0-8.6 4.949-16.04 12.151-19.64-2.95-1.474-6.275-2.309-9.797-2.309-12.122 0-21.948 9.827-21.948 21.948s9.827 21.948 21.948 21.948c3.522 0 6.847-.834 9.797-2.309-7.202-3.598-12.151-11.038-12.151-19.638z" fill="#da4093"/><circle cx="272.971" cy="440.828" fill="#dd5ca2" r="21.948"/><path d="m270.616 440.828c0-8.6 4.949-16.04 12.151-19.64-2.95-1.474-6.275-2.309-9.797-2.309-12.122 0-21.948 9.827-21.948 21.948 0 12.122 9.827 21.948 21.948 21.948 3.522 0 6.847-.834 9.797-2.309-7.202-3.598-12.151-11.038-12.151-19.638z" fill="#da4093"/><circle cx="229.074" cy="440.828" fill="#dd5ca2" r="21.948"/><path d="m226.719 440.828c0-8.6 4.949-16.04 12.151-19.64-2.95-1.474-6.275-2.309-9.797-2.309-12.122 0-21.948 9.827-21.948 21.948 0 12.122 9.827 21.948 21.948 21.948 3.522 0 6.847-.834 9.797-2.309-7.202-3.598-12.151-11.038-12.151-19.638z" fill="#da4093"/><circle cx="272.971" cy="353.035" fill="#dd5ca2" r="21.948"/><path d="m270.616 353.035c0-8.6 4.949-16.04 12.151-19.64-2.95-1.474-6.275-2.308-9.797-2.308-12.122 0-21.948 9.827-21.948 21.948 0 12.122 9.827 21.948 21.948 21.948 3.522 0 6.847-.834 9.797-2.309-7.202-3.6-12.151-11.039-12.151-19.639z" fill="#da4093"/><circle cx="229.074" cy="353.035" fill="#dd5ca2" r="21.948"/><path d="m226.719 353.035c0-8.6 4.949-16.04 12.151-19.64-2.95-1.474-6.275-2.308-9.797-2.308-12.122 0-21.948 9.827-21.948 21.948 0 12.122 9.827 21.948 21.948 21.948 3.522 0 6.847-.834 9.797-2.309-7.202-3.6-12.151-11.039-12.151-19.639z" fill="#da4093"/><circle cx="185.177" cy="353.035" fill="#dd5ca2" r="21.948"/><path d="m182.823 353.035c0-8.6 4.949-16.04 12.151-19.64-2.95-1.474-6.275-2.308-9.797-2.308-12.122 0-21.948 9.827-21.948 21.948 0 12.122 9.827 21.948 21.948 21.948 3.522 0 6.847-.834 9.797-2.309-7.202-3.6-12.151-11.039-12.151-19.639z" fill="#da4093"/><circle cx="316.867" cy="353.035" fill="#dd5ca2" r="21.948"/><path d="m314.513 353.035c0-8.6 4.949-16.04 12.151-19.64-2.95-1.474-6.275-2.308-9.797-2.308-12.122 0-21.948 9.827-21.948 21.948 0 12.122 9.827 21.948 21.948 21.948 3.522 0 6.847-.834 9.797-2.309-7.203-3.6-12.151-11.039-12.151-19.639z" fill="#da4093"/><g><path d="m150.553 174.174c-46.561 44.902-115.473 48.661-136.798 48.687-3.61.004-6.528 2.942-6.528 6.552v24.916c0 3.675 3.019 6.645 6.693 6.552 42.455-1.077 114.019-12.968 159.328-70.976 47.783-61.176 136.125-67.066 136.135-67.066-56.646-6.911-116.624 10.633-158.83 51.335z" fill="#95d6a4"/></g><path d="m12.755 242.639c21.325-.027 90.237-3.785 136.798-48.687 18.962-18.287 41.518-31.883 65.741-40.703 44.842-27.121 94.082-30.409 94.09-30.409-56.646-6.912-116.624 10.632-158.831 51.334-46.561 44.902-115.473 48.661-136.798 48.687-3.61.004-6.528 2.942-6.528 6.552v16.306c1.154-1.844 3.193-3.077 5.528-3.08z" fill="#66b394"/><g fill="#dd5ca2"><circle cx="402.302" cy="290.858" r="18.275"/><circle cx="402.302" cy="217.757" r="18.275"/><circle cx="384.027" cy="254.307" r="18.275"/><circle cx="420.577" cy="254.307" r="18.275"/><circle cx="438.852" cy="290.858" r="18.275"/><circle cx="438.852" cy="217.757" r="18.275"/><circle cx="457.128" cy="254.307" r="18.275"/></g><path d="m401.302 290.858c0-6.968 3.902-13.022 9.638-16.105-2.573-1.383-5.512-2.17-8.638-2.17-10.093 0-18.275 8.182-18.275 18.275s8.182 18.275 18.275 18.275c3.125 0 6.065-.788 8.638-2.17-5.736-3.083-9.638-9.137-9.638-16.105z" fill="#da4093"/><path d="m401.302 217.757c0-6.968 3.902-13.022 9.638-16.105-2.573-1.383-5.512-2.17-8.638-2.17-10.093 0-18.275 8.182-18.275 18.275s8.182 18.275 18.275 18.275c3.125 0 6.065-.788 8.638-2.17-5.736-3.083-9.638-9.137-9.638-16.105z" fill="#da4093"/><path d="m383.027 254.307c0-6.968 3.902-13.022 9.638-16.105-2.573-1.383-5.512-2.17-8.638-2.17-10.093 0-18.275 8.182-18.275 18.275s8.182 18.275 18.275 18.275c3.125 0 6.065-.788 8.638-2.17-5.737-3.083-9.638-9.137-9.638-16.105z" fill="#da4093"/><path d="m419.577 254.307c0-6.968 3.902-13.022 9.638-16.105-2.573-1.383-5.513-2.17-8.638-2.17-10.093 0-18.275 8.182-18.275 18.275s8.182 18.275 18.275 18.275c3.125 0 6.065-.788 8.638-2.17-5.736-3.083-9.638-9.137-9.638-16.105z" fill="#da4093"/><path d="m437.852 290.858c0-6.968 3.902-13.022 9.637-16.105-2.573-1.383-5.512-2.17-8.637-2.17-10.093 0-18.275 8.182-18.275 18.275s8.182 18.275 18.275 18.275c3.125 0 6.065-.788 8.637-2.17-5.735-3.083-9.637-9.137-9.637-16.105z" fill="#da4093"/><path d="m437.852 217.757c0-6.968 3.902-13.022 9.637-16.105-2.573-1.383-5.512-2.17-8.637-2.17-10.093 0-18.275 8.182-18.275 18.275s8.182 18.275 18.275 18.275c3.125 0 6.065-.788 8.637-2.17-5.735-3.083-9.637-9.137-9.637-16.105z" fill="#da4093"/><path d="m456.128 254.307c0-6.968 3.902-13.022 9.638-16.105-2.573-1.383-5.512-2.17-8.638-2.17-10.093 0-18.275 8.182-18.275 18.275s8.182 18.275 18.275 18.275c3.125 0 6.065-.788 8.638-2.17-5.737-3.083-9.638-9.137-9.638-16.105z" fill="#da4093"/></g><g><path d="m501.834 132.088c-.704.267-71.119 26.43-136.648-1.936-1.659-.718-3.333-1.406-5.015-2.078 8.235-3.517 15.418-7.835 21.263-11.942 3.638 5.038 10.176 10.693 21.773 12.833 5.016.931 10.079-2.275 11.181-7.534 8.293-.719 20.815-5.058 30.957-22.435 3.223-5.522.305-12.582-5.87-14.212l-.208-.055c2.937-6.02 5.997-15.129 6.953-27.94.562-7.558-5.626-13.939-13.22-13.602-12.832.589-22.025 3.388-28.127 6.151l-.049-.208c-1.449-6.215-8.418-9.343-14.037-6.277-17.66 9.641-22.355 22.034-23.312 30.304-5.287.949-8.634 5.913-7.851 10.96 1.666 10.742 6.443 17.272 11.043 21.191-9.238 6.184-21.766 12.56-36.067 14.557-7.855-1.939-15.879-3.415-24.036-4.41-31.897-3.896-63.997-.265-93.429 9.934 2.836-9.46 4.719-20.795 3.847-33.424-1.229-17.772-16.129-31.693-33.922-31.693-12.945 0-23.477 10.531-23.477 23.476 0 12.312 9.611 22.605 21.881 23.436 4.107.257 7.709-2.845 7.988-6.978.28-4.133-2.844-7.709-6.977-7.989-3.88-.262-7.893-3.501-7.893-8.469 0-4.674 3.803-8.476 8.477-8.476 9.943 0 18.271 7.787 18.957 17.727 1.144 16.559-3.376 30.583-7.815 40.038-49.263 22.84-48.834 41.45-89.839 61.548 1.698-7.925 2.273-15.778 2.137-23.204 8.108.005 20.502-2.726 32.042-16.309 4.255-5.01 2.82-12.512-2.706-15.754 4.97-9.32 9.648-26.956-4.386-51.424-3.435-5.989-11.625-7.085-16.495-2.161l-2.618 2.647c-4.607-7.601-13.336-18.428-29.447-29.359-7.203-4.888-17.127-2.386-21.131 5.38-8.922 17.307-11.409 30.988-11.821 39.867l-3.563-1.072c-6.62-1.992-13.303 2.873-13.454 9.784-.624 28.201 11.917 41.452 20.739 47.26-3.303 5.489-.976 12.766 5.158 15.132 10.689 4.12 22.029 5.046 32.625.589-.207 8.549-1.585 17.524-4.917 26.181-32.734 11.882-64.146 13.262-76.505 13.278-7.731.011-14.02 6.315-14.02 14.055v24.916c0 7.872 6.449 14.242 14.383 14.05 16.38-.415 41.534-2.569 68.353-10.476 3.973-1.172 6.244-5.342 5.073-9.315s-5.338-6.242-9.315-5.073c-24.72 7.288-48.001 9.388-63.493 9.842v-23c49.28-.317 104.757-15.802 141.032-50.785 20.798-20.057 46.66-34.658 74.803-42.907-9.172 4.269-18.457 9.376-27.429 15.481-3.424 2.33-4.312 6.995-1.98 10.42 2.329 3.423 6.993 4.312 10.42 1.98 41.661-28.349 91.15-33.591 97.602-34.165 31.29 3.935 48.033 13.27 60.586 17.696 3.077 1.472 29.271 14.768 39.368 44.828-2.176-.599-4.463-.925-6.827-.925-14.213 0-25.775 11.563-25.775 25.774 0 4.031.932 7.849 2.589 11.25-11.871 2.3-20.865 12.767-20.865 25.3 0 12.534 8.993 23.001 20.865 25.3-1.657 3.402-2.589 7.219-2.589 11.25 0 14.213 11.563 25.775 25.775 25.775 7.136 0 13.603-2.916 18.274-7.618 4.672 4.702 11.139 7.618 18.275 7.618 14.213 0 25.775-11.563 25.775-25.775 0-4.031-.932-7.849-2.589-11.25 11.871-2.3 20.865-12.767 20.865-25.3 0-12.534-8.993-23.001-20.865-25.3 1.657-3.402 2.589-7.219 2.589-11.25 0-14.212-11.563-25.774-25.775-25.774-4.889 0-9.464 1.368-13.363 3.742-3.509-14.499-10.559-27.781-20.88-39.239 37.273 5.192 78.09-1.233 102.283-10.437 3.871-1.472 5.816-5.804 4.344-9.676-1.473-3.872-5.807-5.818-9.675-4.344zm-125.75-44.268c3.983-1.494 6.608-5.47 6.23-9.87-.344-4.011.652-11.145 9.628-18.042 1.715 6.387 9.223 9.203 14.701 5.511 2.71-1.825 10.319-6 24.377-7.082-1.484 14.022-5.875 21.508-7.776 24.164-3.845 5.369-1.253 12.951 5.088 14.854-7.15 8.772-14.302 9.564-18.308 9.107-2.914-.336-5.791.655-7.881 2.715-.948.936-1.679 2.035-2.166 3.23-3.408-1.549-5.5-3.628-6.785-5.613 2.983-2.681 4.72-4.526 4.983-4.809 2.817-3.036 2.64-7.781-.396-10.6-3.038-2.818-7.782-2.641-10.6.396-.056.06-1.497 1.591-4.09 3.911-2.373-1.186-5.151-3.463-7.005-7.872zm-302.17 75.311c2.332-5.11.185-11.32-5.101-13.784 0 0 0 0-.001-.001-4.818-2.246-15.433-9.493-16.773-29.983l3.492 1.052c6.993 2.103 13.945-3.442 13.429-10.716-.435-6.114.286-19.145 9.91-37.99 17.465 11.948 24.329 23.048 26.872 28.624 3.025 6.636 11.784 8.18 16.917 2.991l2.572-2.602c8.334 17.886 3.509 29.067-.399 34.36-3.464 4.694-2.381 11.174 2.111 14.546-6.658 5.851-12.986 7.017-17.654 6.72-2.518-17.902-8.054-30.854-8.488-31.849-1.654-3.793-6.066-5.521-9.861-3.875-3.795 1.649-5.535 6.066-3.891 9.863.095.22 5.254 12.375 7.449 28.9-2.139 1.318-8.432 6.489-20.584 3.744zm328.661 43.911c5.941 0 10.774 4.833 10.774 10.774s-4.833 10.775-10.774 10.775-10.775-4.834-10.775-10.775 4.834-10.774 10.775-10.774zm18.275 58.101c-5.941 0-10.774-4.834-10.774-10.775s4.833-10.775 10.774-10.775 10.775 4.834 10.775 10.775-4.834 10.775-10.775 10.775zm-47.326-10.776c0-5.941 4.834-10.775 10.775-10.775s10.775 4.834 10.775 10.775-4.834 10.775-10.775 10.775-10.775-4.833-10.775-10.775zm29.051 47.327c-5.941 0-10.775-4.834-10.775-10.775s4.834-10.775 10.775-10.775 10.774 4.834 10.774 10.775-4.832 10.775-10.774 10.775zm36.55 0c-5.941 0-10.775-4.834-10.775-10.775s4.834-10.775 10.775-10.775 10.775 4.834 10.775 10.775-4.834 10.775-10.775 10.775zm29.051-47.327c0 5.941-4.834 10.775-10.775 10.775s-10.775-4.834-10.775-10.775 4.834-10.775 10.775-10.775 10.775 4.834 10.775 10.775zm-29.051-47.325c5.941 0 10.775 4.833 10.775 10.774s-4.834 10.775-10.775 10.775-10.775-4.834-10.775-10.775 4.834-10.774 10.775-10.774z"/><path d="m360.583 180.531c-18.938-7.421-33.354-8.469-42.495-7.909l.79-4.107c1.323-6.88-4.295-13.061-11.218-12.501-29.188 2.349-41.4 16.785-46.342 26.425-2.67-1.333-5.833-1.481-8.627-.371-3.104 1.233-5.387 3.786-6.263 7.005-4.512 16.597-.491 28.265 3.918 35.32-13.864.791-23.36-2.192-24.441-2.346-14.335-11.908-32.267-19.542-51.668-21.155 5.704-6.626 6.458-8.315 12.178-14.517 2.808-3.046 2.614-7.791-.431-10.599-3.046-2.807-7.791-2.614-10.599.431-9.727 10.555-25.06 35.523-65.345 55.201-3.722 1.818-5.265 6.31-3.447 10.031 1.819 3.722 6.31 5.265 10.031 3.447 16.205-7.916 30.709-17.739 43.375-29.324h6.513c26.098 0 49.72 13.007 63.857 33.282-1.576 2.61-4.722 6.538-10.718 10.095-3.563 2.113-4.737 6.715-2.624 10.276 2.117 3.569 6.722 4.734 10.276 2.624 4.665-2.767 8.214-5.781 10.915-8.679 1.881 4.526 3.357 9.273 4.344 14.216.255 1.275.454 2.448.615 3.516-5.405 1.553-10.177 4.611-13.829 8.695-5.397-6.035-13.235-9.842-21.949-9.842-16.238 0-29.449 13.211-29.449 29.449 0 5.341 1.436 10.349 3.932 14.673-14.561 1.767-25.881 14.194-25.881 29.224s11.321 27.458 25.882 29.225c-2.496 4.324-3.932 9.332-3.932 14.673 0 15.03 11.321 27.458 25.882 29.225-2.496 4.324-3.932 9.332-3.932 14.673 0 16.238 13.211 29.449 29.449 29.449 8.714 0 16.552-3.807 21.948-9.842 5.397 6.035 13.235 9.842 21.949 9.842 16.238 0 29.449-13.211 29.449-29.449 0-5.341-1.437-10.349-3.932-14.673 14.561-1.768 25.882-14.195 25.882-29.225 0-5.341-1.437-10.349-3.932-14.673 14.561-1.768 25.882-14.195 25.882-29.225s-11.321-27.457-25.881-29.224c2.496-4.324 3.932-9.332 3.932-14.673 0-16.238-13.211-29.449-29.449-29.449-8.714 0-16.553 3.808-21.949 9.843-3.906-4.368-9.092-7.564-14.964-8.999-.225-1.764-.547-3.832-1.01-6.15-2.536-12.693-7.759-24.572-15.146-34.934 4.457.172 8.896.057 13.637-.453 1.168 8.243 5.617 19.83 19.884 29.628 2.7 1.854 6.083 2.376 9.305 1.291 2.85-.961 5.166-3.12 6.34-5.864 10.006 4.153 28.656 7.263 52.437-9.83 5.675-4.082 5.894-12.426.465-16.788l-3.26-2.622c7.327-5.483 17.648-15.611 27.288-33.522 4.201-7.813.61-17.578-7.642-20.814zm-131.233 158.112c7.967 0 14.448 6.481 14.448 14.448 0 7.968-6.481 14.449-14.448 14.449-7.968 0-14.449-6.481-14.449-14.449-.001-7.967 6.481-14.448 14.449-14.448zm-21.95-43.899c7.968 0 14.449 6.481 14.449 14.449s-6.481 14.449-14.449 14.449-14.449-6.481-14.449-14.449 6.482-14.449 14.449-14.449zm-21.949 72.796c-7.968 0-14.449-6.481-14.449-14.449 0-7.967 6.481-14.448 14.449-14.448s14.449 6.481 14.449 14.448c0 7.968-6.481 14.449-14.449 14.449zm21.949 43.899c-7.968 0-14.449-6.481-14.449-14.449s6.481-14.449 14.449-14.449 14.449 6.481 14.449 14.449-6.481 14.449-14.449 14.449zm21.95 43.898c-7.968 0-14.449-6.481-14.449-14.449s6.481-14.449 14.449-14.449c7.967 0 14.448 6.481 14.448 14.449s-6.482 14.449-14.448 14.449zm21.948-43.898c-7.967 0-14.448-6.481-14.448-14.449s6.481-14.449 14.448-14.449c7.968 0 14.449 6.481 14.449 14.449s-6.481 14.449-14.449 14.449zm21.949 43.898c-7.968 0-14.449-6.481-14.449-14.449s6.481-14.449 14.449-14.449 14.449 6.481 14.449 14.449-6.481 14.449-14.449 14.449zm21.949-43.898c-7.968 0-14.449-6.481-14.449-14.449s6.481-14.449 14.449-14.449 14.449 6.481 14.449 14.449-6.481 14.449-14.449 14.449zm21.95-72.796c7.968 0 14.449 6.481 14.449 14.448 0 7.968-6.481 14.449-14.449 14.449s-14.449-6.481-14.449-14.449c-.001-7.967 6.481-14.448 14.449-14.448zm-21.95-43.899c7.968 0 14.449 6.481 14.449 14.449s-6.481 14.449-14.449 14.449-14.449-6.481-14.449-14.449 6.482-14.449 14.449-14.449zm-21.949 43.899c7.968 0 14.449 6.481 14.449 14.448 0 7.968-6.481 14.449-14.449 14.449s-14.449-6.481-14.449-14.449c0-7.967 6.481-14.448 14.449-14.448zm-21.949-43.899c7.968 0 14.449 6.481 14.449 14.449s-6.481 14.449-14.449 14.449c-7.967 0-14.448-6.481-14.448-14.449s6.481-14.449 14.448-14.449zm76.769-69.288c-6.346 3.717-7.005 12.678-1.259 17.299l3.231 2.6c-18.555 11.16-31.17 6.26-35.974 3.42-2.766-1.633-6.073-1.922-9.074-.793-2.354.885-4.273 2.547-5.476 4.69-6.368-5.8-8.525-11.759-9.004-16.51 6.142-1.771 12.473-4.351 18.741-8.061 3.564-2.109 4.744-6.709 2.634-10.274-2.109-3.564-6.708-4.744-10.274-2.634-4.905 2.903-9.897 4.96-14.771 6.394-.56-.871-1.163-1.717-1.846-2.51-3.286-3.813-6.558-10.268-5.263-20.301 2.309.858 4.849.884 7.213.034 3.02-1.082 5.354-3.442 6.405-6.476 1.829-5.272 8.278-17.168 29.645-20.662l-.781 4.068c-1.393 7.22 4.878 13.652 12.148 12.382 6.299-1.102 19.928-1.744 40.55 6.298-10.52 19.475-21.329 27.803-26.845 31.036z"/></g></g></svg>