<svg id="Layer_1" enable-background="new 0 0 512.008 512.008" height="512" viewBox="0 0 512.008 512.008" width="512" xmlns="http://www.w3.org/2000/svg"><g><g><path d="m255.603 91.571c-6.593-6.593-17.283-6.593-23.876 0l-2.948 2.947c-.793.794-2.08.794-2.873 0l-2.947-2.947c-6.593-6.593-17.283-6.593-23.876 0-6.593 6.593-6.593 17.283 0 23.876l24.976 24.976c1.814 1.814 4.755 1.814 6.569 0l24.976-24.976c6.593-6.593 6.593-17.282-.001-23.876z" fill="#dd5ca2"/><path d="m343.926 15.029c-10.109-10.109-26.499-10.109-36.608 0l-4.519 4.519c-1.217 1.217-3.189 1.217-4.406 0l-4.519-4.519c-10.109-10.109-26.499-10.109-36.608 0-10.109 10.109-10.109 26.499 0 36.608l38.294 38.294c2.781 2.781 7.291 2.781 10.072 0l38.294-38.294c10.109-10.109 10.109-26.499 0-36.608z" fill="#dd5ca2"/><g><path d="m224.578 110.448c-5.422-5.422-6.375-13.609-2.88-20.015-6.632-5.428-16.428-5.049-22.616 1.139-6.593 6.593-6.593 17.283 0 23.876l24.976 24.976c1.814 1.814 4.755 1.814 6.569 0l11.963-11.963z" fill="#da4093"/></g><g><path d="m282.762 46.637c-10.109-10.109-10.109-26.499 0-36.608.408-.408.829-.793 1.257-1.168-9.065-3.122-19.517-1.068-26.752 6.168-10.109 10.109-10.109 26.499 0 36.608l38.294 38.294c2.781 2.781 7.291 2.781 10.072 0l10.212-10.212z" fill="#da4093"/></g><path d="m83.697 270.578 4.756 4.375h50.208l29.542 19.163h25.75l14.929-20.918-10.263-104.57c-.307-3.127-2.936-5.511-6.079-5.511h-92.76c-3.142 0-5.772 2.384-6.079 5.511z" fill="#dbedff"/><path d="m88.454 274.952h32.124l9.103-111.837h-29.899c-3.142 0-5.772 2.384-6.079 5.511l-10.006 101.952z" fill="#b5dcff"/><path d="m204.076 487.163c-.079-.021-.159-.04-.239-.06l-23.266-6.658c-5.679-1.381-11.461-2.764-17.282-3.465-5.403.756-10.769 2.024-16.045 3.307l-23.633 6.763c-.957.233-1.862.518-3.018 1.457-6.078 4.94-3.247 14.402 3.851 15.94h77.346c10.273 0 12.234-14.72 2.286-17.284z" fill="#dbedff"/><path d="m121.266 488.537c1.138-.925 2.029-1.205 2.971-1.434l23.266-6.658c5.435-1.322 10.965-2.643 16.534-3.37-2.666-.348-5.34-.572-8.019-.572h-19.713c-8.272 0-16.514 1.988-24.552 3.942l-23.266 6.658c-.942.229-1.833.51-2.971 1.434-6.526 5.304-2.623 15.91 5.787 15.91h35.75c-8.41 0-12.314-10.605-5.787-15.91z" fill="#b5dcff"/><path d="m212.816 313.273-3.933-40.076c-9.881 5.432-35.601 15.943-62.721-2.62-34.629-23.703-62.464 0-62.464 0l-4.19 42.696c-3.865 39.385 27.08 73.516 66.654 73.516 39.574 0 70.519-34.131 66.654-73.516z" fill="#da4093"/><path d="m117.268 315.615 4.48-55.043c-22.414-3.309-38.051 10.006-38.051 10.006l-4.19 42.696c-3.865 39.385 27.08 73.516 66.654 73.516 11.237 0 21.775-2.758 31.021-7.601-64.014-11.565-59.914-63.574-59.914-63.574z" fill="#c3247d"/><path d="m302.836 270.578 4.756 4.375h50.208l29.542 19.163h25.75l14.929-20.918-10.263-104.57c-.307-3.127-2.936-5.511-6.079-5.511h-92.76c-3.142 0-5.772 2.384-6.079 5.511z" fill="#dbedff"/><path d="m307.592 274.952h32.124l9.103-111.837h-29.899c-3.142 0-5.772 2.384-6.079 5.511l-10.006 101.951z" fill="#b5dcff"/><path d="m423.214 487.163c-.079-.021-.159-.04-.239-.06l-23.266-6.658c-5.679-1.381-11.461-2.764-17.282-3.465-5.403.756-10.769 2.024-16.045 3.307l-23.633 6.763c-.957.233-1.862.518-3.018 1.457-6.078 4.94-3.247 14.402 3.851 15.94h77.346c10.273 0 12.235-14.72 2.286-17.284z" fill="#dbedff"/><path d="m340.404 488.537c1.138-.925 2.029-1.205 2.971-1.434l23.266-6.658c5.435-1.322 10.965-2.643 16.534-3.37-2.666-.348-5.34-.572-8.019-.572h-19.713c-8.272 0-16.514 1.988-24.552 3.942l-23.266 6.658c-.942.229-1.833.51-2.971 1.434-6.526 5.304-2.623 15.91 5.787 15.91h35.75c-8.41 0-12.314-10.605-5.787-15.91z" fill="#b5dcff"/><path d="m431.954 313.273-3.933-40.076c-9.881 5.432-35.601 15.943-62.721-2.62-34.629-23.703-62.464 0-62.464 0l-4.19 42.696c-3.865 39.385 27.08 73.516 66.654 73.516 39.574 0 70.519-34.131 66.654-73.516z" fill="#da4093"/><path d="m336.406 315.615 4.48-55.043c-22.414-3.309-38.051 10.006-38.051 10.006l-4.19 42.696c-3.865 39.385 27.08 73.516 66.654 73.516 11.237 0 21.775-2.758 31.021-7.601-64.013-11.565-59.914-63.574-59.914-63.574z" fill="#c3247d"/></g><g><path d="m227.616 85.455c-9.473-8.557-24.242-8.447-33.564.873-9.507 9.507-9.507 24.977.001 34.483l24.975 24.974c4.748 4.75 12.429 4.749 17.178.002l24.976-24.976c9.507-9.507 9.507-24.977 0-34.483-9.317-9.313-24.084-9.438-33.566-.873zm22.957 24.749-22.957 22.957-22.957-22.957c-3.659-3.658-3.659-9.61 0-13.269 3.669-3.669 9.602-3.668 13.27 0l2.944 2.943c1.801 1.803 4.195 2.796 6.743 2.796s4.942-.993 6.739-2.792l2.949-2.948c3.658-3.66 9.593-3.674 13.269.001 3.659 3.659 3.659 9.611 0 13.269z"/><path d="m311.21 95.295 38.294-38.294c13.017-13.018 13.017-34.197 0-47.215-13.017-13.015-34.196-13.018-47.215 0l-1.419 1.419-1.419-1.418c-13.045-13.047-34.165-13.051-47.214-.001-13.048 13.046-13.051 34.165-.001 47.215l38.293 38.293c2.763 2.763 6.435 4.284 10.341 4.284s7.578-1.521 10.34-4.283zm-48.367-48.901c-7.184-7.182-7.187-18.815.001-26.001 7.182-7.184 18.815-7.187 26.001.001l4.519 4.519c4.155 4.153 10.872 4.143 15.012 0l4.521-4.519c7.169-7.171 18.834-7.169 26.001 0 7.169 7.168 7.169 18.832 0 26l-38.028 38.027z"/><path d="m425.369 479.964-23.324-6.669c-.097-.027-.193-.053-.291-.076-8.006-1.948-17.08-4.155-26.324-4.155h-2.356v-75.102c40.963-4.167 70.61-40.686 66.618-81.36l-14.196-144.646c-.686-7.001-6.508-12.28-13.542-12.28h-92.76c-7.032 0-12.854 5.278-13.543 12.279l-14.195 144.646c-3.989 40.644 25.624 77.19 66.618 81.36v75.102h-2.356c-9.244 0-18.318 2.207-26.324 4.155-.098.023-.194.049-.291.076l-23.136 6.62c-1.632.409-3.581 1.085-5.77 2.862-5.438 4.42-7.43 11.562-5.074 18.193 2.382 6.705 8.502 11.037 15.592 11.037h37.618c4.143 0 7.5-3.357 7.5-7.5s-3.357-7.5-7.5-7.5h-37.618c-.718 0-1.207-.355-1.456-1.057-.293-.825.068-1.247.342-1.483.024-.006.049-.012.073-.018.097-.023.193-.049.289-.076l23.122-6.616c7.493-1.822 15.235-3.694 22.633-3.694h19.713c7.397 0 15.14 1.872 22.633 3.694l23.122 6.616c.095.026.19.052.286.075l.146.037c.476.123 1.015.262.878 1.342-.149 1.18-.838 1.18-1.294 1.18h-37.868c-4.143 0-7.5 3.357-7.5 7.5s3.357 7.5 7.5 7.5h37.866c8.457 0 15.107-5.878 16.175-14.293 1.06-8.355-3.882-15.656-12.006-17.749zm-104.914-309.288h90.235l9.634 98.157c-10.535 4.658-30.104 9.586-50.515-4.385-22.174-15.178-43.406-13.301-57.817-7.539zm-14.072 143.391 3.863-39.36c6.648-4.365 26.763-14.531 51.091 2.121 23.649 16.188 46.343 12.756 60.514 7.563l2.913 29.677c3.422 34.87-24.013 65.283-59.19 65.283-35.038-.001-62.626-30.275-59.191-65.284z"/><path d="m220.553 312.602-3.933-40.076c0-.003-.001-.006-.001-.009l-3.673-37.428c-.404-4.123-4.078-7.131-8.196-6.731-4.122.404-7.137 4.074-6.731 8.196l3.168 32.281c-10.535 4.658-30.106 9.585-50.515-4.385-22.175-15.176-43.406-13.3-57.817-7.539l8.463-86.234h90.235l3.03 30.877c.404 4.123 4.067 7.135 8.196 6.731 4.122-.404 7.137-4.074 6.731-8.196l-3.153-32.132c-.686-7.001-6.509-12.28-13.543-12.28h-92.76c-7.034 0-12.856 5.279-13.542 12.279l-14.196 144.646c-3.989 40.644 25.624 77.19 66.618 81.36v75.102h-2.356c-9.242 0-18.317 2.207-26.324 4.155-.098.023-.194.049-.291.076l-23.137 6.62c-1.632.409-3.582 1.086-5.768 2.862-5.438 4.42-7.43 11.562-5.074 18.193 2.382 6.705 8.502 11.037 15.592 11.037h110.486c8.456 0 15.107-5.878 16.175-14.294 1.059-8.356-3.882-15.657-12.017-17.753-.003-.001-.007-.002-.011-.003l-23.303-6.663c-.097-.027-.193-.053-.291-.076-8.007-1.948-17.082-4.155-26.325-4.155h-2.356v-75.102c40.965-4.167 70.611-40.685 66.619-81.359zm-41.628 175.156 23.121 6.616c.095.026.19.052.286.075l.157.04c.473.122 1.003.267.867 1.339-.15 1.18-.839 1.18-1.294 1.18h-110.486c-.718 0-1.207-.355-1.456-1.057-.293-.824.068-1.247.343-1.483.024-.006.049-.012.073-.019.096-.023.191-.048.287-.075l23.122-6.616c7.493-1.822 15.237-3.694 22.633-3.694h19.713c7.397 0 15.141 1.872 22.634 3.694zm-91.681-173.691 3.863-39.36c6.647-4.364 26.759-14.533 51.091 2.121 23.653 16.187 46.344 12.757 60.514 7.563l2.913 29.677c3.303 33.657-22.177 63.404-56.059 65.2-1.041.055-2.085.083-3.132.083-35.037-.001-62.625-30.275-59.19-65.284z"/></g></g></svg>