<svg id="Layer_1" enable-background="new 0 0 512 512" height="512" viewBox="0 0 512 512" width="512" xmlns="http://www.w3.org/2000/svg"><g><g><path d="m401.844 437.882h-141.633c-8.892 0-16.167-7.462-16.167-16.583 0-9.121 7.275-16.583 16.167-16.583h141.632c8.892 0 16.167 7.462 16.167 16.583 0 9.12-7.275 16.583-16.166 16.583z" fill="#da7e4a"/><path d="m285.378 421.298c0-9.121 7.275-16.583 16.167-16.583h-41.333c-8.892 0-16.166 7.462-16.166 16.583 0 9.121 7.275 16.583 16.166 16.583h41.333c-8.892 0-16.167-7.462-16.167-16.583z" fill="#cb6c35"/><path d="m376.375 273.844-45.348-16.88v47l45.348-16.88c6.133-2.282 6.133-10.957 0-13.24z" fill="#dd5ca2"/><path d="m376.375 273.844-6.729-2.505-38.619 14.375v18.25l45.348-16.88c6.133-2.282 6.133-10.957 0-13.24z" fill="#da4093"/><path d="m411.099 437.44h-160.143c-3.817 0-6.911 3.094-6.911 6.911 0 16.249 13.173 29.422 29.422 29.422h115.121c16.249 0 29.422-13.173 29.422-29.422 0-3.817-3.094-6.911-6.911-6.911z" fill="#ffd086"/><path d="m416.166 384.136c-16.836-29.595-48.655-49.555-85.139-49.555s-68.302 19.96-85.139 49.555c-5.321 9.353 1.516 20.971 12.277 20.971h145.725c10.76-.001 17.597-11.618 12.276-20.971z" fill="#ffd086"/><path d="m285.817 444.351c0-3.817 3.094-6.911 6.911-6.911h-41.772c-3.817 0-6.911 3.094-6.911 6.911 0 16.249 13.173 29.422 29.422 29.422h41.772c-16.249 0-29.422-13.173-29.422-29.422z" fill="#ffc365"/><path d="m287.661 384.136c13.528-23.779 36.732-41.327 64.253-47.31-6.731-1.463-13.717-2.245-20.886-2.245-36.484 0-68.302 19.96-85.139 49.555-5.321 9.353 1.516 20.971 12.277 20.971h41.772c-10.761-.001-17.598-11.618-12.277-20.971z" fill="#ffc365"/><g><path d="m183.39 178.104c-9.584-7.906-15.888-18.984-17.466-31.12l-2.991-2.879h-37.5l-3.271 2.879c-1.578 12.135-7.882 23.213-17.466 31.12-13.753 11.346-22.521 28.518-22.521 47.74v18.061l6.59 6.034h110l7.144-6.034v-18.061c.002-19.221-8.766-36.393-22.519-47.74z" fill="#8479c2"/><path d="m118.267 245.912c0-14.551 4.93-28.673 13.987-40.062 7.634-9.601 11.79-21.505 11.79-33.771v-27.973h-18.61l-3.271 2.879c-1.578 12.135-7.882 23.213-17.466 31.12-13.753 11.346-22.521 28.518-22.521 47.74v18.061l6.59 6.034h29.5v-4.028z" fill="#6e60b8"/><path d="m205.911 439.882-4.477-5.877h-112.334l-6.924 5.877v43.846c0 11.438 9.273 20.711 20.711 20.711h82.312c11.438 0 20.711-9.273 20.711-20.711z" fill="#8479c2"/><path d="m118.267 434.005h-29.167l-6.924 5.877v43.846c0 11.438 9.273 20.711 20.711 20.711h15.379v-70.434z" fill="#6e60b8"/><path d="m82.177 243.905h123.734v195.977h-123.734z" fill="#dbedff"/><path d="m82.177 243.905v195.977h36.09v-193.97c0-.67.021-1.338.042-2.007z" fill="#b5dcff"/><path d="m168.149 308.41h-48.21c-2.925 0-5.297 2.372-5.297 5.297v87.573c0 2.925 2.372 5.297 5.297 5.297h48.21c2.925 0 5.297-2.372 5.297-5.297v-87.573c0-2.926-2.372-5.297-5.297-5.297z" fill="#b5dcff"/><path d="m144.044 401.28v-87.573c0-2.925 2.372-5.297 5.297-5.297h-29.402c-2.925 0-5.297 2.372-5.297 5.297v87.573c0 2.925 2.372 5.297 5.297 5.297h29.402c-2.926 0-5.297-2.372-5.297-5.297z" fill="#8bcaff"/><path d="m165.524 141.002v-95.313l-2.632-2.938h-37.938l-2.391 2.938v95.313c0 2.017-.145 4.012-.401 5.982 6.149 4.457 13.705 7.092 21.881 7.092s15.731-2.635 21.881-7.092c-.256-1.969-.4-3.964-.4-5.982z" fill="#ffa90f"/><path d="m144.044 154.077v-111.325h-19.089l-2.391 2.938v95.313c0 2.017-.145 4.012-.401 5.982 6.149 4.457 13.705 7.092 21.881 7.092z" fill="#fc8900"/><path d="m166.843 7.439h-14.761c-2.488.846-5.281 3.196-5.281 5.971v26.309c0 2.774 2.793 5.125 5.281 5.971h14.761c3.424 0 6.2-2.776 6.2-6.2v-25.85c.001-3.425-2.775-6.201-6.2-6.201z" fill="#ffc365"/><path d="m147.911 39.489v-25.849c0-3.424 2.776-6.2 6.2-6.2h-32.867c-3.424 0-6.2 2.776-6.2 6.2v25.85c0 3.424 2.776 6.2 6.2 6.2h32.867c-3.424-.001-6.2-2.776-6.2-6.201z" fill="#ffa90f"/></g><path d="m423.444 472.773h-184.833c-3.222 0-5.833 2.612-5.833 5.833 0 13.715 11.118 25.833 24.833 25.833h146.833c13.715 0 24.833-12.118 24.833-25.833.001-3.221-2.611-5.833-5.833-5.833z" fill="#dbedff"/><path d="m294.278 478.606c0-3.222 2.612-5.833 5.833-5.833h-61.5c-3.221 0-5.833 2.612-5.833 5.833 0 13.715 11.118 25.833 24.833 25.833h61.5c-13.715 0-24.833-12.118-24.833-25.833z" fill="#b5dcff"/></g><g><path d="m100.197 172.38c-16.046 13.236-25.248 32.746-25.248 53.525v257.884c0 15.556 12.656 28.211 28.212 28.211h82.312c15.556 0 28.211-12.655 28.211-28.211 0-11.925 0-249.428 0-257.884 0-20.778-9.202-40.287-25.248-53.525-9.868-8.141-15.139-19.713-15.139-31.317v-29.455c0-4.143-3.357-7.5-7.5-7.5s-7.5 3.357-7.5 7.5c0 32.106-.017 30.058.043 31.529-8.597 4.603-19.199 4.736-28.046.001.063-1.554.043 4.591.043-89.888h27.96v23.357c0 4.143 3.357 7.5 7.5 7.5s7.5-3.357 7.5-7.5v-24.847c4.454-2.264 7.52-6.881 7.52-12.211v-25.849c0-7.555-6.146-13.7-13.7-13.7h-45.6c-7.555 0-13.7 6.146-13.7 13.7v25.85c0 5.33 3.066 9.947 7.521 12.211v89.302c-.001 11.519-5.209 23.123-15.141 31.317zm85.276 324.62h-82.312c-7.285 0-13.212-5.927-13.212-13.211v-36.347h108.734v36.347c.001 7.284-5.926 13.211-13.21 13.211zm-24.321-338.637c3.302 9.805 9.373 18.686 17.738 25.587 12.579 10.378 19.794 25.67 19.794 41.955v10.561h-36.867c-4.143 0-7.5 3.357-7.5 7.5s3.357 7.5 7.5 7.5h36.867v180.977h-108.735v-180.977h36.867c4.143 0 7.5-3.357 7.5-7.5s-3.357-7.5-7.5-7.5h-36.867v-10.561c0-16.286 7.214-31.578 19.793-41.955 8.365-6.901 14.437-15.782 17.739-25.587 10.52 4.275 22.699 4.459 33.671 0zm-38.336-143.363h43v23.25h-.02-42.96-.021v-23.25z"/><path d="m107.415 313.768v87.572c0 7.057 5.74 12.797 12.797 12.797h48.21c7.057 0 12.797-5.74 12.797-12.797v-87.572c0-7.057-5.74-12.797-12.797-12.797h-48.21c-7.057 0-12.797 5.74-12.797 12.797zm15 2.203h43.804v83.166h-43.804z"/><path d="m338.801 327.417v-18.18l40.464-15.062c12.638-4.705 12.629-22.598 0-27.299l-41.318-15.38c-1.252-2.394-3.756-4.03-6.646-4.03-4.143 0-7.5 3.357-7.5 7.5v72.451c-34.913 2.504-66.683 22.353-84.157 53.071-4.818 8.47-3.287 18.523 3.002 25.319-3.625 4.159-5.829 9.589-5.829 15.527 0 4.86 1.474 9.382 3.997 13.144-2.47 2.588-3.997 6.083-3.997 9.934 0 8.203 2.692 15.787 7.235 21.922h-5.168c-7.352 0-13.333 5.981-13.333 13.334 0 17.828 14.505 32.333 32.333 32.333h146.833c17.829 0 32.334-14.505 32.334-32.333 0-7.353-5.981-13.334-13.334-13.334h-5.168c4.542-6.135 7.235-13.719 7.235-21.922 0-3.851-1.527-7.346-3.997-9.934 2.523-3.762 3.997-8.284 3.997-13.144 0-5.938-2.203-11.368-5.829-15.527 1.083-1.17 2.057-2.466 2.886-3.892 3.896-6.697 3.939-14.707.117-21.426 0-.001 0-.001 0-.001-17.475-30.718-49.246-50.567-84.157-53.071zm0-34.187v-25.41l34.133 12.705zm-86.12 94.675c16.059-28.229 46.184-45.764 78.62-45.764s62.561 17.535 78.62 45.763c1.658 2.916.52 5.495-.046 6.469-.576.99-2.286 3.294-5.712 3.294-6.68 0-138.747 0-145.725 0-5.032 0-8.225-5.424-5.757-9.762zm-.864 33.428c0-4.778 3.888-8.666 8.667-8.666h141.632c4.779 0 8.667 3.888 8.667 8.666 0 4.779-3.888 8.667-8.667 8.667h-141.632c-4.779 0-8.667-3.888-8.667-8.667zm152.9 75.667h-146.833c-8.996 0-16.413-6.888-17.254-15.667h181.342c-.841 8.779-8.259 15.667-17.255 15.667zm-130.977-30.667c-11.892 0-21.602-9.517-21.915-21.333h158.95c-.313 11.816-10.023 21.333-21.914 21.333z"/><path d="m302.051 377.404c4.143 0 7.5-3.357 7.5-7.5v-3.237c0-4.143-3.357-7.5-7.5-7.5s-7.5 3.357-7.5 7.5v3.237c0 4.143 3.357 7.5 7.5 7.5z"/><path d="m331.301 377.404c4.143 0 7.5-3.357 7.5-7.5v-3.237c0-4.143-3.357-7.5-7.5-7.5s-7.5 3.357-7.5 7.5v3.237c0 4.143 3.357 7.5 7.5 7.5z"/><path d="m360.551 377.404c4.143 0 7.5-3.357 7.5-7.5v-3.237c0-4.143-3.357-7.5-7.5-7.5s-7.5 3.357-7.5 7.5v3.237c0 4.143 3.357 7.5 7.5 7.5z"/></g></g></svg>