<svg id="Capa_1" enable-background="new 0 0 512 512" height="512" viewBox="0 0 512 512" width="512" xmlns="http://www.w3.org/2000/svg"><g><g><g><path d="m487.531 95.535.25-.082c1.801-.594 1.801-3.142 0-3.736l-.251-.083c-10.655-3.516-19.013-11.877-22.53-22.532-.028-.084-.055-.167-.083-.25-.594-1.801-3.141-1.799-3.736.002l-.083.251c-3.516 10.655-11.874 19.013-22.529 22.529l-.251.083c-1.801.594-1.801 3.142 0 3.736l.251.083c10.655 3.516 19.014 11.877 22.53 22.532.028.084.055.167.083.25.594 1.801 3.141 1.799 3.736-.002l.082-.25c3.517-10.657 11.875-19.015 22.531-22.531z" fill="#fee8c7"/></g><g><path d="m284.053 102.685-22.531-53.05c-2.069-4.873-8.976-4.873-11.045 0l-22.531 53.05z" fill="#02905d"/></g><g><path d="m240.459 90.141-31.61-16.874c-4.142-2.211-8.772 1.99-6.973 6.327l23.923 57.651h60.4l23.923-57.651c1.8-4.337-2.831-8.538-6.973-6.327l-31.61 16.874c-9.71 5.184-21.368 5.184-31.08 0z" fill="#b3e59f"/></g><g><path d="m301.522 332.408h-91.045c-30.928 0-56-25.072-56-56v-100.208c0-30.928 25.072-56 56-56h91.045c30.928 0 56 25.072 56 56v100.208c0 30.928-25.072 56-56 56z" fill="#ffc269"/></g><g><path d="m174.878 276.408v-100.208c0-30.928 25.072-56 56-56h-20.4c-30.928 0-56 25.072-56 56v100.208c0 30.928 25.072 56 56 56h20.4c-30.928 0-56-25.072-56-56z" fill="#ffa95f"/></g><g><path d="m403.846 165.254-12.891-10.803 12.891-10.803c11.148-9.342 27.39-9.342 38.538 0l8.318 6.971c2.385 1.998 2.385 5.666 0 7.665l-8.318 6.971c-11.148 9.341-27.391 9.341-38.538-.001z" fill="#b3e59f"/></g><g><circle cx="390.954" cy="274.768" fill="#b3e59f" r="79.104"/></g><g><path d="m336.33 274.768c0-39.525 28.989-72.274 66.864-78.158-3.99-.62-8.077-.946-12.24-.946-43.688 0-79.104 35.416-79.104 79.104s35.416 79.104 79.104 79.104c4.163 0 8.25-.326 12.24-.946-37.875-5.884-66.864-38.634-66.864-78.158z" fill="#95d6a4"/></g><g><path d="m172.938 324.187 33.091-72.835c3.06-6.736 4.046-14.23 2.833-21.528-3.581-21.538-24.828-35.398-45.983-29.996l-28.004 7.151c-6.05 1.545-12.391 1.545-18.441 0l-28.004-7.151c-21.155-5.402-42.402 8.458-45.983 29.996-1.213 7.298-.227 14.792 2.833 21.528l33.091 72.835c6.046 13.308 19.313 21.852 33.93 21.852h26.709c14.615 0 27.882-8.545 33.928-21.852z" fill="#e5646e"/></g><g><path d="m98.416 324.187-33.091-72.836c-3.06-6.736-4.046-14.23-2.833-21.528 2.467-14.836 13.316-26.026 26.742-29.79l-.805-.206c-21.155-5.402-42.402 8.458-45.983 29.996-1.214 7.298-.227 14.792 2.833 21.528l33.091 72.836c6.046 13.307 19.313 21.852 33.93 21.852h20.046c-14.617 0-27.884-8.545-33.93-21.852z" fill="#db4655"/></g><g><path d="m112.763 165.254 12.891-10.803-12.891-10.803c-11.148-9.342-27.39-9.342-38.538 0l-8.318 6.971c-2.385 1.998-2.385 5.666 0 7.665l8.318 6.971c11.148 9.341 27.39 9.341 38.538-.001z" fill="#b3e59f"/></g><g><g><path d="m474.38 504.5h-436.76c-5.523 0-10-4.477-10-10v-162.092h456.76v162.092c0 5.523-4.477 10-10 10z" fill="#f4dbb3"/></g></g><g><path d="m53.06 494.5v-162.092h-25.44v162.092c0 5.523 4.477 10 10 10h25.44c-5.523 0-10-4.477-10-10z" fill="#eac89f"/></g><g><g><g><path d="m494.5 350.315h-477c-5.523 0-10-4.477-10-10v-32.12c0-5.523 4.477-10 10-10h477c5.523 0 10 4.477 10 10v32.12c0 5.523-4.477 10-10 10z" fill="#d2af8c"/></g></g></g><g><path d="m37.74 340.315v-32.12c0-5.523 4.477-10 10-10h-30.24c-5.523 0-10 4.477-10 10v32.12c0 5.523 4.477 10 10 10h30.24c-5.523 0-10-4.477-10-10z" fill="#c69b75"/></g><g><g><g><path d="m285.824 432.694h-59.647c-11.922 0-21.587-9.665-21.587-21.587 0-11.922 9.665-21.587 21.587-21.587h59.647c11.922 0 21.587 9.665 21.587 21.587 0 11.922-9.665 21.587-21.587 21.587z" fill="#d2af8c"/></g></g></g><g><path d="m114.681 59.026.25-.082c1.801-.594 1.801-3.142 0-3.736l-.251-.083c-10.655-3.516-19.013-11.877-22.53-22.532-.028-.084-.055-.167-.083-.25-.594-1.801-3.141-1.799-3.736.002l-.083.251c-3.515 10.654-11.873 19.012-22.528 22.528l-.251.083c-1.801.594-1.801 3.142 0 3.736l.251.083c10.655 3.516 19.014 11.877 22.53 22.532.028.084.055.167.083.25.594 1.801 3.141 1.799 3.736-.002l.082-.25c3.516-10.655 11.874-19.013 22.53-22.53z" fill="#fee8c7"/></g><g><path d="m408.504 48.158.362-.12c2.612-.862 2.612-4.557 0-5.419l-.364-.12c-15.453-5.1-27.576-17.226-32.676-32.679-.04-.122-.08-.243-.12-.363-.862-2.612-4.556-2.609-5.418.003l-.12.364c-5.1 15.453-17.222 27.575-32.675 32.675l-.364.12c-2.612.862-2.612 4.557 0 5.419l.364.12c15.453 5.1 27.577 17.226 32.676 32.679.04.122.08.243.12.363.862 2.612 4.556 2.609 5.418-.003l.12-.362c5.1-15.454 17.222-27.577 32.677-32.677z" fill="#fee8c7"/></g></g><g><path d="m153.981 175.795c4.099.574 7.893-2.286 8.467-6.388 3.328-23.776 23.976-41.707 48.029-41.707h91.045c24.053 0 44.701 17.93 48.029 41.707.525 3.75 3.737 6.461 7.418 6.461.346 0 .696-.024 1.049-.073 4.102-.574 6.962-4.365 6.388-8.467-4.222-30.165-29.717-53.144-59.93-54.559l12.574-30.301c2.05-4.939.815-10.454-3.145-14.048-3.962-3.594-9.569-4.291-14.287-1.771l-18.521 9.888-12.671-29.835c-2.122-4.995-6.999-8.223-12.426-8.223s-10.304 3.228-12.426 8.223l-12.671 29.835-18.522-9.887c-4.717-2.518-10.326-1.822-14.287 1.771-3.96 3.594-5.195 9.108-3.145 14.048l12.574 30.301c-30.213 1.414-55.708 24.394-59.93 54.558-.574 4.102 2.286 7.893 6.388 8.467zm102.019-119.978 11.809 27.806c-7.413 3.875-16.207 3.875-23.619 0zm-19.073 40.94c.001 0 .001 0 0 0 11.942 6.375 26.202 6.375 38.146 0l25.445-13.583-12.253 29.526h-64.531l-12.252-29.526z"/><path d="m494.5 290.694h-18.419c.966-5.164 1.478-10.486 1.478-15.926 0-45.227-34.849-82.461-79.104-86.276v-17.97l.574.481c6.979 5.849 15.531 8.772 24.086 8.771 8.553 0 17.108-2.924 24.085-8.771l8.318-6.97c2.842-2.382 4.471-5.874 4.471-9.582s-1.63-7.2-4.471-9.58l-8.318-6.971c-13.957-11.696-34.216-11.696-48.172 0l-.574.481v-8.659c0-4.142-3.358-7.5-7.5-7.5s-7.5 3.358-7.5 7.5v58.77c-44.255 3.815-79.104 41.049-79.104 86.276 0 5.44.512 10.762 1.478 15.926h-109.436l16.465-36.241c3.689-8.12 4.866-17.063 3.403-25.861-2.051-12.332-9.232-23.321-19.702-30.151-10.47-6.831-23.422-8.974-35.535-5.88l-27.869 7.116v-69.956c0-4.142-3.358-7.5-7.5-7.5s-7.5 3.358-7.5 7.5v8.659l-.574-.481c-13.957-11.696-34.216-11.696-48.172 0l-8.318 6.971c-2.841 2.381-4.471 5.873-4.471 9.58 0 3.708 1.629 7.2 4.472 9.582l8.317 6.97c6.979 5.848 15.532 8.771 24.086 8.771s17.108-2.924 24.086-8.771l.574-.481v29.156l-27.869-7.116c-12.112-3.094-25.064-.95-35.535 5.881-10.47 6.83-17.651 17.82-19.702 30.152-1.463 8.798-.286 17.74 3.403 25.86l16.465 36.241h-37.416c-9.649 0-17.5 7.851-17.5 17.5v32.121c0 9.649 7.851 17.5 17.5 17.5h2.62v136.684c0 9.649 7.851 17.5 17.5 17.5h436.76c9.649 0 17.5-7.851 17.5-17.5v-61.806c0-4.142-3.358-7.5-7.5-7.5s-7.5 3.358-7.5 7.5v61.806c0 1.378-1.122 2.5-2.5 2.5h-436.76c-1.378 0-2.5-1.122-2.5-2.5v-136.685h90.534c4.142 0 7.5-3.358 7.5-7.5s-3.358-7.5-7.5-7.5h-108.154c-1.378 0-2.5-1.122-2.5-2.5v-32.121c0-1.378 1.122-2.5 2.5-2.5h477c1.378 0 2.5 1.122 2.5 2.5v32.121c0 1.378-1.122 2.5-2.5 2.5h-327.98c-4.142 0-7.5 3.358-7.5 7.5s3.358 7.5 7.5 7.5h310.36v31.777c0 4.142 3.358 7.5 7.5 7.5s7.5-3.358 7.5-7.5v-31.777h2.62c9.649 0 17.5-7.851 17.5-17.5v-32.121c0-9.649-7.851-17.5-17.5-17.5zm-85.837-141.297c8.374-7.018 20.528-7.018 28.903 0l6.031 5.054-6.031 5.054c-8.374 7.018-20.53 7.018-28.903 0l-6.032-5.054zm-300.718 10.108c-8.373 7.018-20.529 7.018-28.903 0l-6.031-5.054 6.032-5.054c8.374-7.018 20.53-7.018 28.903 0l6.032 5.054zm211.405 115.263c0-39.483 32.122-71.604 71.604-71.604s71.604 32.122 71.604 71.604c0 5.473-.624 10.802-1.793 15.926h-139.622c-1.169-5.124-1.793-10.453-1.793-15.926zm-267.243-26.519c-2.453-5.398-3.235-11.345-2.262-17.195 1.383-8.32 6.036-15.44 13.1-20.048 4.92-3.209 10.483-4.857 16.167-4.857 2.479 0 4.98.313 7.461.947l28.004 7.151c7.247 1.851 14.907 1.852 22.152 0l28.004-7.151c8.172-2.085 16.564-.698 23.629 3.911 7.064 4.608 11.717 11.729 13.101 20.049.973 5.85.19 11.796-2.263 17.195l-19.284 42.445h-108.525z"/><path d="m205.12 164.76c-4.142 0-7.5 3.358-7.5 7.5s3.358 7.5 7.5 7.5h6.72c4.142 0 7.5-3.358 7.5-7.5s-3.358-7.5-7.5-7.5z"/><path d="m259.36 164.76h-6.72c-4.142 0-7.5 3.358-7.5 7.5s3.358 7.5 7.5 7.5h6.72c4.142 0 7.5-3.358 7.5-7.5s-3.358-7.5-7.5-7.5z"/><path d="m300.16 164.76c-4.142 0-7.5 3.358-7.5 7.5s3.358 7.5 7.5 7.5h6.72c4.142 0 7.5-3.358 7.5-7.5s-3.358-7.5-7.5-7.5z"/><path d="m259.36 249.457h-6.72c-4.142 0-7.5 3.358-7.5 7.5s3.358 7.5 7.5 7.5h6.72c4.142 0 7.5-3.358 7.5-7.5s-3.358-7.5-7.5-7.5z"/><path d="m228.88 208.22c-4.142 0-7.5 3.358-7.5 7.5s3.358 7.5 7.5 7.5h6.72c4.142 0 7.5-3.358 7.5-7.5s-3.358-7.5-7.5-7.5z"/><path d="m276.4 208.22c-4.142 0-7.5 3.358-7.5 7.5s3.358 7.5 7.5 7.5h6.72c4.142 0 7.5-3.358 7.5-7.5s-3.358-7.5-7.5-7.5z"/><path d="m226.176 382.02c-16.039 0-29.087 13.048-29.087 29.087s13.048 29.087 29.087 29.087h59.647c16.039 0 29.087-13.048 29.087-29.087s-13.048-29.087-29.087-29.087zm73.735 29.087c0 7.768-6.319 14.087-14.087 14.087h-59.647c-7.768 0-14.087-6.319-14.087-14.087s6.319-14.087 14.087-14.087h59.647c7.767 0 14.087 6.319 14.087 14.087z"/><path d="m435.973 102.576.247.081c8.36 2.759 14.999 9.398 17.761 17.769l.08.242c1.284 3.887 4.896 6.499 8.99 6.499s7.708-2.613 8.99-6.5l.083-.251c2.759-8.36 9.398-14.999 17.758-17.758h.001l.249-.083c3.888-1.283 6.5-4.896 6.5-8.99s-2.612-7.708-6.496-8.989l-.255-.084c-8.36-2.759-14.999-9.398-17.761-17.769l-.079-.24c-1.283-3.888-4.895-6.5-8.989-6.5-4.095 0-7.708 2.613-8.994 6.509l-.08.243c-2.759 8.36-9.397 14.999-17.762 17.759l-.246.081c-3.889 1.283-6.501 4.896-6.501 8.991s2.612 7.706 6.504 8.99zm27.076-20.604c3.09 4.573 7.04 8.523 11.612 11.612-4.572 3.09-8.522 7.04-11.611 11.612-3.09-4.572-7.04-8.522-11.612-11.612 4.572-3.09 8.521-7.039 11.611-11.612z"/><path d="m63.126 66.069.243.08c8.36 2.759 14.999 9.398 17.749 17.731l.092.278c1.283 3.888 4.895 6.5 8.989 6.5 4.095 0 7.708-2.613 8.989-6.497l.084-.254c2.758-8.358 9.393-14.995 17.75-17.756l.261-.085c3.888-1.284 6.499-4.897 6.499-8.991s-2.613-7.706-6.496-8.987l-.255-.084c-8.36-2.759-14.999-9.398-17.749-17.731l-.092-.279c-1.283-3.888-4.895-6.5-8.988-6.5-4.095 0-7.708 2.613-8.99 6.497l-.084.255c-2.759 8.36-9.397 14.999-17.762 17.759l-.246.082c-3.888 1.283-6.5 4.895-6.5 8.989-.002 4.092 2.609 7.706 6.506 8.993zm27.074-20.605c3.09 4.572 7.04 8.522 11.611 11.611-4.572 3.09-8.522 7.04-11.611 11.611-3.09-4.572-7.039-8.521-11.612-11.611 4.573-3.089 8.523-7.039 11.612-11.611z"/><path d="m334.78 55.161.362.12c13.137 4.335 23.569 14.768 27.9 27.894l.124.375c1.403 4.251 5.353 7.108 9.83 7.108 4.478 0 8.43-2.858 9.833-7.109l.12-.363c4.336-13.138 14.768-23.57 27.906-27.906h.001l.362-.119c4.251-1.404 7.108-5.355 7.107-9.833s-2.857-8.428-7.11-9.831l-.362-.12c-13.137-4.335-23.568-14.768-27.911-27.929l-.113-.341c-1.403-4.251-5.353-7.107-9.829-7.107-4.478 0-8.429 2.857-9.833 7.109l-.121.365c-4.335 13.136-14.766 23.567-27.901 27.903l-.366.121c-4.251 1.403-7.108 5.354-7.109 9.831s2.856 8.428 7.11 9.832zm38.218-33.14c5.394 9.801 13.507 17.915 23.308 23.308-9.8 5.394-17.915 13.508-23.308 23.308-5.393-9.8-13.509-17.915-23.308-23.308 9.8-5.393 17.915-13.508 23.308-23.308z"/></g></g></svg>