<svg id="Capa_1" enable-background="new 0 0 512 512" height="512" viewBox="0 0 512 512" width="512" xmlns="http://www.w3.org/2000/svg"><g><g><g><circle cx="118.204" cy="274.768" fill="#e5646e" r="79.104"/></g><g><path d="m63.58 274.768c0-39.525 28.989-72.274 66.864-78.158-3.99-.62-8.077-.946-12.24-.946-43.688 0-79.104 35.416-79.104 79.104s35.416 79.104 79.104 79.104c4.163 0 8.25-.326 12.24-.946-37.875-5.884-66.864-38.634-66.864-78.158z" fill="#db4655"/></g><g><path d="m118.204 195.664c-24.011 0-45.507 10.712-60.015 27.602l30.347-1.844c9.758-.593 18.901 4.792 23.113 13.613l3.847 8.057c1.087 2.276 4.327 2.276 5.414 0l3.848-8.057c4.213-8.822 13.355-14.206 23.113-13.613l30.347 1.844c-14.507-16.89-36.003-27.602-60.014-27.602z" fill="#b3e59f"/></g><g><path d="m130.159 196.57c-3.899-.592-7.89-.906-11.955-.906-24.011 0-45.507 10.712-60.015 27.602l25.292-1.537c11.938-13.2 28.263-22.355 46.678-25.159z" fill="#95d6a4"/></g><g><path d="m261.794 23.559c-.695-.169-1.307-.563-1.74-1.132-6.91-9.069-17.816-14.927-30.097-14.927s-23.187 5.858-30.097 14.926c-.433.569-1.046.964-1.74 1.132-14.093 3.419-24.286 16.811-22.685 32.282 1.367 13.205 11.535 24.063 24.62 26.301 3.456.591 6.817.568 10.008.042 1.826-.301 3.483 1.101 3.483 2.952v48.065h32.824v-48.065c0-1.851 1.657-3.253 3.483-2.952 3.19.526 6.55.549 10.004-.042 13.085-2.236 23.254-13.091 24.623-26.295 1.603-15.473-8.591-28.868-22.686-32.287z" fill="#b3e59f"/></g><g><path d="m226.119 82.183c-3.191.526-6.552.549-10.008-.042-13.085-2.238-23.254-13.096-24.62-26.301-1.601-15.471 8.593-28.863 22.685-32.282.695-.169 1.307-.563 1.74-1.132 5.359-7.032 13.126-12.119 22.069-14.055-2.589-.561-5.271-.871-8.029-.871-12.281 0-23.187 5.858-30.097 14.926-.433.569-1.046.964-1.74 1.132-14.093 3.419-24.286 16.811-22.685 32.282 1.367 13.205 11.535 24.063 24.62 26.301 3.456.591 6.817.568 10.008.042 1.826-.301 3.483 1.101 3.483 2.952v48.065h16.057v-48.065c0-1.851-1.657-3.253-3.483-2.952z" fill="#95d6a4"/></g><g><path d="m374.857 350.315c23.015 0 41.995-17.224 44.786-39.482 22.626-2.449 40.241-21.606 40.241-44.883 0-24.937-20.216-45.153-45.153-45.153-7.88 0-15.285 2.023-21.733 5.571 0-.056.004-.112.004-.168 0-31.94-25.893-57.832-57.832-57.832-31.94 0-57.832 25.892-57.832 57.832 0 .056.004.112.004.168-6.448-3.548-13.853-5.571-21.733-5.571-24.938 0-45.153 20.216-45.153 45.153 0 23.277 17.615 42.434 40.241 44.883 2.792 22.258 21.771 39.482 44.786 39.482z" fill="#b3e59f"/></g><g><path d="m274.697 310.833c-22.626-2.449-40.241-21.606-40.241-44.883 0-20.777 14.038-38.265 33.143-43.526-3.82-1.051-7.836-1.628-11.99-1.628-24.938 0-45.153 20.216-45.153 45.153 0 23.277 17.615 42.434 40.241 44.883 2.792 22.258 21.771 39.482 44.786 39.482h24c-23.015.001-41.995-17.223-44.786-39.481z" fill="#95d6a4"/></g><g><path d="m279.609 220.797c7.88 0 15.285 2.023 21.733 5.571 0-.056-.004-.112-.004-.168 0-27.824 19.653-51.052 45.832-56.578-3.872-.817-7.884-1.255-12-1.255-30.134 0-54.874 23.051-57.576 52.48.668-.028 1.339-.05 2.015-.05z" fill="#95d6a4"/></g><g><path d="m291.197 145.338-6.093-15.546c-3.999-10.204-13.84-16.916-24.8-16.916h-60.694c-10.96 0-20.8 6.713-24.8 16.916l-6.093 15.546c-4.694 11.975-5.807 25.056-3.204 37.653l35.358 171.143h58.172l35.359-171.143c2.601-12.597 1.488-25.678-3.205-37.653z" fill="#ffc269"/></g><g><path d="m192.717 145.338 6.093-15.546c3.999-10.204 13.84-16.916 24.8-16.916h-24c-10.96 0-20.801 6.713-24.8 16.916l-6.093 15.546c-4.693 11.975-5.807 25.056-3.204 37.653l35.359 171.143h24l-35.36-171.144c-2.602-12.596-1.489-25.677 3.205-37.652z" fill="#ffa95f"/></g><g><path d="m487.531 95.535.25-.082c1.801-.594 1.801-3.142 0-3.736l-.251-.083c-10.655-3.516-19.013-11.877-22.53-22.532-.028-.084-.055-.167-.083-.25-.594-1.801-3.141-1.799-3.736.002l-.083.251c-3.516 10.655-11.874 19.013-22.529 22.529l-.251.083c-1.801.594-1.801 3.142 0 3.736l.251.083c10.655 3.516 19.014 11.877 22.53 22.532.028.084.055.167.083.25.594 1.801 3.141 1.799 3.736-.002l.082-.25c3.517-10.657 11.875-19.015 22.531-22.531z" fill="#fee8c7"/></g><g><path d="m474.38 504.5h-436.76c-5.523 0-10-4.477-10-10v-162.092h456.76v162.092c0 5.523-4.477 10-10 10z" fill="#f4dbb3"/></g><g><path d="m53.06 494.5v-162.092h-25.44v162.092c0 5.523 4.477 10 10 10h25.44c-5.523 0-10-4.477-10-10z" fill="#eac89f"/></g><g><g><g><path d="m494.5 350.315h-477c-5.523 0-10-4.477-10-10v-32.12c0-5.523 4.477-10 10-10h477c5.523 0 10 4.477 10 10v32.12c0 5.523-4.477 10-10 10z" fill="#d2af8c"/></g></g></g><g><path d="m37.74 340.315v-32.12c0-5.523 4.477-10 10-10h-30.24c-5.523 0-10 4.477-10 10v32.12c0 5.523 4.477 10 10 10h30.24c-5.523 0-10-4.477-10-10z" fill="#c69b75"/></g><g><g><g><path d="m285.824 432.694h-59.647c-11.922 0-21.587-9.665-21.587-21.587 0-11.922 9.665-21.587 21.587-21.587h59.647c11.922 0 21.587 9.665 21.587 21.587 0 11.922-9.665 21.587-21.587 21.587z" fill="#d2af8c"/></g></g></g><g><path d="m114.681 59.026.25-.082c1.801-.594 1.801-3.142 0-3.736l-.251-.083c-10.655-3.516-19.013-11.877-22.53-22.532-.028-.084-.055-.167-.083-.25-.594-1.801-3.141-1.799-3.736.002l-.083.251c-3.515 10.654-11.873 19.012-22.528 22.528l-.251.083c-1.801.594-1.801 3.142 0 3.736l.251.083c10.655 3.516 19.014 11.877 22.53 22.532.028.084.055.167.083.25.594 1.801 3.141 1.799 3.736-.002l.082-.25c3.516-10.655 11.874-19.013 22.53-22.53z" fill="#fee8c7"/></g><g><path d="m408.504 48.158.362-.12c2.612-.862 2.612-4.557 0-5.419l-.364-.12c-15.453-5.1-27.576-17.226-32.676-32.679-.04-.122-.08-.243-.12-.363-.862-2.612-4.556-2.609-5.418.003l-.12.364c-5.1 15.453-17.222 27.575-32.675 32.675l-.364.12c-2.612.862-2.612 4.557 0 5.419l.364.12c15.453 5.1 27.577 17.226 32.676 32.679.04.122.08.243.12.363.862 2.612 4.556 2.609 5.418-.003l.12-.362c5.1-15.454 17.222-27.577 32.677-32.677z" fill="#fee8c7"/></g></g><g><path d="m494.5 290.694h-33.275c3.933-7.396 6.159-15.822 6.159-24.744 0-29.033-23.62-52.653-52.653-52.653-5.126 0-10.221.753-15.103 2.212-5.119-30.955-32.075-54.641-64.459-54.641-2.967 0-5.953.202-8.875.599-4.104.558-6.979 4.338-6.421 8.442.558 4.105 4.342 6.977 8.442 6.421 2.254-.307 4.56-.462 6.854-.462 27.718 0 50.275 22.522 50.333 50.227-.003.096-.005.202-.005.273 0 2.652 1.4 5.106 3.684 6.456 2.283 1.35 5.108 1.393 7.432.115 5.52-3.037 11.784-4.642 18.118-4.642 20.762 0 37.653 16.891 37.653 37.653 0 9.44-3.476 18.106-9.259 24.744h-163.318l21.939-106.187c2.903-14.056 1.67-28.547-3.567-41.907l-6.093-15.546c-5.161-13.17-17.637-21.68-31.782-21.68h-6.435v-15.303c2.415.056 4.837-.125 7.25-.537 16.428-2.807 29.101-16.342 30.819-32.915 1.876-18.091-9.601-34.989-26.876-39.953-8.654-10.612-21.362-16.666-35.105-16.666s-26.452 6.055-35.106 16.667c-17.272 4.963-28.749 21.857-26.876 39.945 1.715 16.574 14.387 30.111 30.815 32.921 2.414.413 4.842.59 7.255.538v15.304h-6.435c-14.146 0-26.621 8.51-31.782 21.68l-6.093 15.546c-5.237 13.362-6.47 27.853-3.566 41.907l21.938 106.187h-131.694c-1.174-5.125-1.813-10.45-1.813-15.926 0-16.679 5.748-32.032 15.346-44.217l27.045-1.644c6.745-.41 12.98 3.264 15.891 9.359l3.848 8.057c1.76 3.686 5.39 5.975 9.475 5.975 4.084 0 7.715-2.29 9.475-5.975l3.848-8.057c2.475-5.184 7.562-8.752 13.275-9.312 4.123-.404 7.137-4.073 6.733-8.196-.404-4.122-4.078-7.137-8.196-6.733-10.748 1.053-20.335 7.681-25.135 17.338-5.645-11.374-17.411-18.207-30.123-17.43l-8.38.509c11.128-7.128 24.336-11.281 38.503-11.281 6.363 0 12.671.834 18.751 2.479 4 1.082 8.116-1.283 9.198-5.281 1.082-3.999-1.283-8.117-5.281-9.198-4.954-1.34-10.033-2.225-15.168-2.666v-26.616c0-4.142-3.358-7.5-7.5-7.5s-7.5 3.358-7.5 7.5v26.612c-44.255 3.815-79.105 41.049-79.105 86.276 0 5.44.514 10.762 1.48 15.926h-15.58c-9.649 0-17.5 7.851-17.5 17.5v32.121c0 9.649 7.851 17.5 17.5 17.5h2.62v136.685c0 9.649 7.851 17.5 17.5 17.5h436.76c9.649 0 17.5-7.851 17.5-17.5v-61.806c0-4.142-3.357-7.5-7.5-7.5s-7.5 3.358-7.5 7.5v61.806c0 1.378-1.121 2.5-2.5 2.5h-436.76c-1.378 0-2.5-1.122-2.5-2.5v-136.685h90.534c4.142 0 7.5-3.358 7.5-7.5s-3.358-7.5-7.5-7.5h-108.154c-1.378 0-2.5-1.122-2.5-2.5v-32.121c0-1.378 1.122-2.5 2.5-2.5h477c1.379 0 2.5 1.122 2.5 2.5v32.121c0 1.378-1.121 2.5-2.5 2.5h-327.98c-4.142 0-7.5 3.358-7.5 7.5s3.358 7.5 7.5 7.5h310.36v31.777c0 4.142 3.357 7.5 7.5 7.5s7.5-3.358 7.5-7.5v-31.777h2.62c9.649 0 17.5-7.851 17.5-17.5v-32.121c0-9.649-7.851-17.5-17.5-17.5zm-277.158-213.559c-2.354-1.998-5.454-2.857-8.5-2.352-2.473.408-5.003.396-7.524-.035-9.822-1.68-17.399-9.772-18.424-19.68-1.157-11.177 6.149-21.59 16.998-24.222 2.359-.574 4.466-1.949 5.934-3.874 5.797-7.608 14.592-11.972 24.131-11.972s18.334 4.364 24.132 11.973c1.468 1.926 3.576 3.302 5.937 3.875 10.847 2.631 18.152 13.046 16.993 24.226-1.027 9.906-8.604 17.997-18.427 19.676-2.517.429-5.047.441-7.52.034-3.048-.505-6.147.354-8.501 2.352-2.353 1.997-3.702 4.913-3.702 8v20.24h-17.824v-20.24c-.001-3.089-1.35-6.005-3.703-8.001zm-28.34 182.485h17.624c4.142 0 7.5-3.358 7.5-7.5s-3.358-7.5-7.5-7.5h-20.723l-6.223-30.12h26.946c4.142 0 7.5-3.358 7.5-7.5s-3.358-7.5-7.5-7.5h-30.045l-3.724-18.027c-.828-4.005-1.226-8.055-1.215-12.093h34.984c4.142 0 7.5-3.358 7.5-7.5s-3.358-7.5-7.5-7.5h-32.995c.57-2.13 1.257-4.235 2.068-6.306l6.093-15.546c2.894-7.383 9.887-12.153 17.816-12.153h60.694c7.93 0 14.924 4.771 17.817 12.153l6.093 15.546c.811 2.07 1.499 4.176 2.068 6.305h-32.995c-4.142 0-7.5 3.358-7.5 7.5s3.358 7.5 7.5 7.5h34.984c.011 4.037-.387 8.087-1.214 12.093l-3.725 18.027h-30.045c-4.142 0-7.5 3.358-7.5 7.5s3.358 7.5 7.5 7.5h26.946l-6.223 30.12h-20.723c-4.142 0-7.5 3.358-7.5 7.5s3.358 7.5 7.5 7.5h17.624l-6.42 31.074h-69.068z"/><path d="m226.176 382.02c-16.039 0-29.087 13.048-29.087 29.087s13.048 29.087 29.087 29.087h59.647c16.039 0 29.088-13.048 29.088-29.087s-13.049-29.087-29.088-29.087zm73.735 29.087c0 7.768-6.319 14.087-14.088 14.087h-59.647c-7.768 0-14.087-6.319-14.087-14.087s6.319-14.087 14.087-14.087h59.647c7.769 0 14.088 6.319 14.088 14.087z"/><path d="m435.977 102.577.243.08c8.36 2.759 14.999 9.398 17.773 17.806l.066.202c1.281 3.888 4.893 6.501 8.986 6.502h.003c4.094 0 7.707-2.612 8.995-6.513l.078-.238c2.76-8.361 9.398-15 17.759-17.758.004-.001.007-.002.01-.003l.238-.079c3.89-1.283 6.503-4.896 6.503-8.991s-2.613-7.708-6.496-8.989l-.256-.084c-8.359-2.759-14.998-9.398-17.748-17.731l-.092-.276c-1.281-3.888-4.893-6.501-8.986-6.502-.001 0-.002 0-.003 0-4.094 0-7.707 2.612-8.99 6.497l-.084.256c-2.759 8.36-9.396 14.998-17.762 17.758l-.246.082c-3.888 1.283-6.5 4.896-6.5 8.99s2.613 7.706 6.509 8.991zm27.074-20.604c3.09 4.573 7.039 8.522 11.61 11.612-4.57 3.089-8.521 7.039-11.61 11.612-3.09-4.573-7.039-8.521-11.612-11.612 4.572-3.09 8.522-7.041 11.612-11.612z"/><path d="m63.126 66.069.243.08c8.36 2.759 14.999 9.398 17.749 17.731l.092.278c1.283 3.888 4.895 6.5 8.989 6.5 4.095 0 7.708-2.613 8.989-6.497l.084-.254c2.758-8.358 9.393-14.995 17.75-17.756l.261-.085c3.888-1.284 6.499-4.897 6.499-8.991s-2.613-7.706-6.496-8.987l-.255-.084c-8.36-2.759-14.999-9.398-17.749-17.731l-.092-.279c-1.283-3.888-4.895-6.5-8.988-6.5-4.095 0-7.708 2.613-8.99 6.497l-.084.255c-2.759 8.36-9.397 14.999-17.762 17.759l-.246.082c-3.888 1.283-6.5 4.895-6.5 8.989-.002 4.092 2.609 7.706 6.506 8.993zm27.074-20.605c3.09 4.572 7.04 8.522 11.611 11.611-4.572 3.09-8.522 7.04-11.611 11.611-3.09-4.572-7.039-8.521-11.612-11.611 4.573-3.089 8.523-7.039 11.612-11.611z"/><path d="m334.78 55.161.362.12c13.137 4.335 23.568 14.768 27.917 27.945l.107.325c1.403 4.25 5.354 7.106 9.829 7.107 4.478 0 8.429-2.857 9.836-7.118l.116-.354c4.336-13.138 14.769-23.57 27.906-27.906h.001l.361-.119c4.252-1.404 7.109-5.355 7.108-9.833 0-4.478-2.857-8.428-7.11-9.831l-.362-.12c-13.137-4.335-23.568-14.768-27.902-27.903l-.121-.366c-1.401-4.251-5.35-7.108-9.827-7.108-.001 0-.001 0-.002 0-4.478 0-8.43 2.857-9.833 7.109l-.12.365c-4.335 13.136-14.767 23.567-27.901 27.903l-.365.12c-4.252 1.403-7.109 5.354-7.109 9.831-.002 4.478 2.855 8.429 7.109 9.833zm38.218-33.14c5.394 9.801 13.508 17.915 23.308 23.308-9.798 5.393-17.914 13.509-23.308 23.309-5.394-9.799-13.51-17.916-23.309-23.309 9.801-5.393 17.916-13.508 23.309-23.308z"/><path d="m325.492 228.65c4.143 0 7.5-3.358 7.5-7.5 0-2.676 2.178-4.854 4.854-4.854s4.854 2.178 4.854 4.854c0 4.142 3.357 7.5 7.5 7.5s7.5-3.358 7.5-7.5c0-10.948-8.906-19.854-19.854-19.854s-19.854 8.906-19.854 19.854c0 4.142 3.358 7.5 7.5 7.5z"/><path d="m401.121 268.354c0-2.676 2.178-4.854 4.854-4.854s4.854 2.178 4.854 4.854c0 4.142 3.357 7.5 7.5 7.5s7.5-3.358 7.5-7.5c0-10.948-8.906-19.854-19.854-19.854s-19.854 8.906-19.854 19.854c0 4.142 3.357 7.5 7.5 7.5s7.5-3.358 7.5-7.5z"/><path d="m307.411 275.854c4.143 0 7.5-3.358 7.5-7.5 0-2.676 2.178-4.854 4.854-4.854 2.677 0 4.854 2.178 4.854 4.854 0 4.142 3.357 7.5 7.5 7.5s7.5-3.358 7.5-7.5c0-10.948-8.906-19.854-19.854-19.854-10.947 0-19.854 8.906-19.854 19.854 0 4.142 3.358 7.5 7.5 7.5z"/></g></g></svg>