<svg id="Capa_1" enable-background="new 0 0 512 512" height="512" viewBox="0 0 512 512" width="512" xmlns="http://www.w3.org/2000/svg"><g><g><g><path d="m398.277 211.447v-44.107h-61.502v44.106c0 2.761-2.239 5-5 5h-40.104v278.054c0 5.523 4.477 10 10 10h131.71c5.523 0 10-4.477 10-10v-252.053c0-14.359-11.641-26-26-26h-14.104c-2.761 0-5-2.239-5-5z" fill="#ffc269"/></g><g><path d="m337.403 443.111h-45.731v51.389c0 5.523 4.477 10 10 10h34.268c.947-3.171 1.463-6.525 1.463-10z" fill="#ffa95f"/></g><g><path d="m291.671 216.447v76.904h45.731v-51.389c0-8.815-1.264-17.539-3.676-25.911-.6.255-1.259.396-1.952.396z" fill="#ffa95f"/></g><g><path d="m291.671 293.351h151.71v149.76h-151.71z" fill="#eceaec"/></g><g><circle cx="371.038" cy="357.292" fill="#e5646e" r="27.638"/></g><g><path d="m291.671 293.351h25.2v149.76h-25.2z" fill="#dad8db"/></g><g><path d="m291.671 293.351h45.731v149.76h-45.731z" fill="#dad8db"/></g><g><path d="m336.775 167.34v-39.619c0-5.523 4.477-10 10-10h41.502c5.523 0 10 4.477 10 10v39.619z" fill="#766e6e"/></g><g><path d="m371.975 117.722h-25.2c-5.523 0-10 4.477-10 10v39.619h25.2v-39.619c0-5.523 4.477-10 10-10z" fill="#5b5555"/></g><g><path d="m176.416 17.5v77.273h78.452v-77.273c0-5.523-4.477-10-10-10h-58.452c-5.522 0-10 4.477-10 10z" fill="#766e6e"/></g><g><path d="m211.617 7.5h-25.2c-5.523 0-10 4.477-10 10v77.273h25.2v-77.273c0-5.523 4.477-10 10-10z" fill="#5b5555"/></g><g><path d="m254.868 127.95v-33.177h-78.452v33.176c0 18.82-7.688 36.824-21.282 49.84l-14.97 14.333c-13.594 13.016-21.282 31.019-21.282 49.84v252.538c0 5.523 4.477 10 10 10h183.52v-262.538c0-18.82-7.688-36.824-21.282-49.84l-14.97-14.333c-13.594-13.015-21.282-31.019-21.282-49.839z" fill="#b3e59f"/></g><g><path d="m144.082 494.5v-252.538c0-18.82 7.688-36.824 21.282-49.84l14.97-14.333c13.594-13.016 21.282-31.019 21.282-49.84v-33.176h-25.2v33.176c0 18.82-7.688 36.824-21.282 49.84l-14.97 14.333c-13.594 13.016-21.282 31.019-21.282 49.84v252.538c0 5.523 4.477 10 10 10h25.2c-5.523 0-10-4.477-10-10z" fill="#95d6a4"/></g><g><g><path d="m118.882 251.72h193.52v178.32h-193.52z" fill="#78c2a4"/></g></g><g><path d="m118.882 251.72h25.2v178.32h-25.2z" fill="#68b594"/></g><g><path d="m255.308 336.551h-79.332c-5.523 0-10-4.477-10-10v-23.2c0-5.523 4.477-10 10-10h79.332c5.523 0 10 4.477 10 10v23.2c0 5.523-4.477 10-10 10z" fill="#eceaec"/></g><path d="m160.565 504.5h-71.458c-5.185 0-9.509-3.962-9.962-9.127l-10.488-119.72c-.512-5.845 4.095-10.873 9.962-10.873h92.434c5.867 0 10.474 5.028 9.962 10.873l-10.488 119.72c-.453 5.165-4.777 9.127-9.962 9.127z" fill="#eceaec"/><path d="m100.265 495.373-10.488-119.72c-.512-5.845 4.095-10.873 9.962-10.873h-21.12c-5.867 0-10.474 5.028-9.962 10.873l10.488 119.72c.452 5.165 4.777 9.127 9.962 9.127h21.12c-5.185 0-9.51-3.962-9.962-9.127z" fill="#dad8db"/><path d="m172.815 469.253 4.986-56.913h-105.93l4.986 56.913z" fill="#ffc269"/><path d="m71.871 412.34 4.986 56.913h21.12l-4.986-56.913z" fill="#ffa95f"/></g><g><path d="m417.381 208.947h-11.604v-41.607c0-.196-.015-.388-.029-.58h.029v-39.038c0-9.649-7.851-17.5-17.5-17.5h-41.502c-9.649 0-17.5 7.851-17.5 17.5v39.038h.029c-.015.192-.029.384-.029.58v41.606h-16.91c-3.95-8.259-9.36-15.83-16.057-22.242l-14.971-14.333c-12.054-11.541-18.968-27.732-18.968-44.422v-33.176-77.273c0-9.649-7.851-17.5-17.5-17.5h-58.452c-9.649 0-17.5 7.851-17.5 17.5v77.273 33.176c0 16.69-6.914 32.881-18.969 44.422l-14.97 14.333c-14.995 14.356-23.596 34.497-23.596 55.257v87.278c0 4.142 3.357 7.5 7.5 7.5s7.5-3.358 7.5-7.5v-70.02h178.521v163.32h-120.467l4.05-46.233c.427-4.876-1.225-9.742-4.531-13.35s-8.009-5.677-12.902-5.677h-92.434c-4.894 0-9.597 2.069-12.902 5.677-3.307 3.608-4.958 8.474-4.531 13.35l10.488 119.72c.797 9.107 8.291 15.974 17.433 15.974h71.458c9.142 0 16.636-6.867 17.434-15.973l5.124-58.487h121.78v59.46h-98.304c-4.143 0-7.5 3.358-7.5 7.5s3.357 7.5 7.5 7.5h104.64 1.163 120.979c9.649 0 17.5-7.851 17.5-17.5v-51.389-149.76-50.904c0-18.472-15.028-33.5-33.5-33.5zm-73.106-81.225c0-1.378 1.121-2.5 2.5-2.5h41.502c1.379 0 2.5 1.122 2.5 2.5v32.119h-46.502zm-178.332 334.031h-82.214l-3.672-41.914h89.558zm-89.167-88.662c.277-.303.886-.811 1.843-.811h92.435c.957 0 1.565.508 1.843.811s.731.954.647 1.908l-2.614 29.841h-92.187l-2.614-29.841c-.085-.955.368-1.605.647-1.908zm83.789 123.909h-71.458c-1.306 0-2.377-.981-2.49-2.282l-1.574-17.964h79.586l-1.574 17.965c-.113 1.3-1.185 2.281-2.49 2.281zm23.351-430.5h63.452v20.773h-63.452zm2.5-51.5h58.452c1.379 0 2.5 1.122 2.5 2.5v34h-63.452v-34c0-1.378 1.121-2.5 2.5-2.5zm-60.034 229.22v-2.258c0-16.689 6.914-32.881 18.969-44.422l14.97-14.333c14.995-14.356 23.596-34.497 23.596-55.257v-25.676h63.452v25.676c0 20.76 8.6 40.9 23.595 55.257l14.971 14.333c12.055 11.542 18.969 27.733 18.969 44.422v2.258zm306.999 252.78h-113.478v-255.038c0-6.104-.763-12.149-2.194-18.015h14.066c6.893 0 12.5-5.607 12.5-12.5v-36.607h46.502v36.606c0 6.893 5.607 12.5 12.5 12.5h14.104c10.201 0 18.5 8.299 18.5 18.5v43.404h-91.521c-4.143 0-7.5 3.358-7.5 7.5s3.357 7.5 7.5 7.5h91.521v134.76h-91.521c-4.143 0-7.5 3.358-7.5 7.5s3.357 7.5 7.5 7.5h91.521v43.89c0 1.378-1.121 2.5-2.5 2.5z"/><path d="m371.038 392.43c19.376 0 35.139-15.763 35.139-35.138s-15.763-35.138-35.139-35.138c-19.375 0-35.138 15.763-35.138 35.138s15.763 35.138 35.138 35.138zm0-55.276c11.104 0 20.139 9.034 20.139 20.138s-9.034 20.138-20.139 20.138c-11.104 0-20.138-9.034-20.138-20.138s9.034-20.138 20.138-20.138z"/><path d="m397.715 404.411h-53.355c-4.143 0-7.5 3.358-7.5 7.5s3.357 7.5 7.5 7.5h53.355c4.143 0 7.5-3.358 7.5-7.5s-3.357-7.5-7.5-7.5z"/><path d="m255.308 344.051c9.649 0 17.5-7.851 17.5-17.5v-23.2c0-9.649-7.851-17.5-17.5-17.5h-79.332c-9.649 0-17.5 7.851-17.5 17.5v23.2c0 9.649 7.851 17.5 17.5 17.5zm-81.832-17.5v-23.2c0-1.378 1.121-2.5 2.5-2.5h79.332c1.379 0 2.5 1.122 2.5 2.5v23.2c0 1.378-1.121 2.5-2.5 2.5h-79.332c-1.379 0-2.5-1.122-2.5-2.5z"/></g></g></svg>