<svg id="Capa_1" enable-background="new 0 0 512 512" height="512" viewBox="0 0 512 512" width="512" xmlns="http://www.w3.org/2000/svg"><g><g><g><path d="m238.502 88.652v-37.812h-83.083v37.812c0 1.918-1.095 3.672-2.827 4.497-34.87 16.602-58.973 52.159-58.973 93.351v308c0 5.523 4.477 10 10 10h186.683c5.523 0 10-4.477 10-10v-308.001c0-41.192-24.104-76.748-58.973-93.351-1.733-.824-2.827-2.578-2.827-4.496z" fill="#eceaec"/></g><g><path d="m120.978 494.5v-308.001c0-41.192 24.104-76.748 58.974-93.351 1.732-.824 2.827-2.579 2.827-4.497v-37.811h-27.36v37.812c0 1.918-1.095 3.672-2.827 4.497-34.87 16.602-58.973 52.159-58.973 93.351v308c0 5.523 4.477 10 10 10h27.36c-5.523 0-10.001-4.477-10.001-10z" fill="#dad8db"/></g><g><path d="m93.618 194.663h206.683v134.991h-206.683z" fill="#80b4fb"/></g><g><path d="m300.302 222.263h-31.418c-16.542 0-30 13.458-30 30v41.16c0 5.932 1.738 11.462 4.72 16.122l-18.854 20.108h75.551v-107.39z" fill="#61a2f9"/></g><g><path d="m300.302 494.5v-164.846h-75.552l-7.312 7.799c-7.849 8.372-12.172 19.303-12.172 30.778v136.269h85.035c5.523 0 10.001-4.477 10.001-10z" fill="#dad8db"/></g><g><path d="m93.618 194.663h27.36v134.991h-27.36z" fill="#61a2f9"/></g><g><path d="m196.96 228.923-18.936 34.457c-5.723 10.414-1.963 23.494 8.416 29.279 6.539 3.645 14.5 3.645 21.039 0 10.379-5.785 14.139-18.866 8.416-29.279z" fill="#eceaec"/></g><g><path d="m248.4 63.66h-102.88c-2.761 0-5-2.239-5-5v-46.16c0-2.761 2.239-5 5-5h102.88c2.761 0 5 2.239 5 5v46.16c0 2.761-2.239 5-5 5z" fill="#80b4fb"/></g><g><path d="m167.88 58.66v-46.16c0-2.761 2.239-5 5-5h-27.36c-2.761 0-5 2.239-5 5v46.16c0 2.761 2.239 5 5 5h27.36c-2.761 0-5-2.239-5-5z" fill="#61a2f9"/></g><g><g><g><path d="m360.347 298.423h-72.046l-52.625 56.128c-3.476 3.707-5.41 8.598-5.41 13.679v136.27h178.115c5.523 0 10-4.477 10-10v-126.269c0-5.081-1.934-9.972-5.41-13.679z" fill="#b3e59f"/></g></g></g><g><path d="m261.117 354.551 52.624-56.128h-25.44l-52.625 56.128c-3.476 3.707-5.41 8.598-5.41 13.679v136.27h25.44v-136.269c.001-5.082 1.935-9.973 5.411-13.68z" fill="#95d6a4"/></g><g><path d="m379.764 298.423h-110.88c-2.761 0-5-2.239-5-5v-41.16c0-2.761 2.239-5 5-5h110.88c2.761 0 5 2.239 5 5v41.16c0 2.762-2.238 5-5 5z" fill="#eceaec"/></g><g><path d="m291.244 293.423v-41.16c0-2.761 2.239-5 5-5h-27.36c-2.761 0-5 2.239-5 5v41.16c0 2.761 2.239 5 5 5h27.36c-2.761 0-5-2.238-5-5z" fill="#dad8db"/></g><g><g><path d="m324.324 353.165-18.936 34.457c-5.723 10.414-1.963 23.494 8.416 29.279 6.539 3.645 14.5 3.645 21.039 0 10.379-5.785 14.139-18.866 8.416-29.279z" fill="#78c2a4"/></g></g></g><g><path d="m93.618 246.46c4.143 0 7.5-3.358 7.5-7.5v-36.797h191.684v11.397c0 4.142 3.357 7.5 7.5 7.5s7.5-3.358 7.5-7.5v-27.06c0-21.354-6.088-42.087-17.606-59.959-10.92-16.943-26.177-30.559-44.193-39.459v-15.922h2.398c6.893 0 12.5-5.607 12.5-12.5v-46.16c0-6.893-5.607-12.5-12.5-12.5h-102.88c-6.893 0-12.5 5.607-12.5 12.5v46.16c0 6.893 5.607 12.5 12.5 12.5h2.398v15.92c-18.018 8.901-33.274 22.517-44.194 39.46-11.519 17.873-17.606 38.606-17.606 59.959v52.46c-.001 4.143 3.357 7.501 7.499 7.501zm54.403-231.46h97.88v41.16h-97.88zm7.796 84.92c4.313-2.055 7.102-6.478 7.102-11.268v-17.492h68.083v17.492c0 4.791 2.787 9.213 7.103 11.269 33.228 15.82 54.697 49.805 54.697 86.579v.664h-191.684v-.664c0-36.775 21.47-70.759 54.699-86.58z"/><path d="m196.96 221.423c-2.736 0-5.255 1.49-6.573 3.888l-18.935 34.457c-7.685 13.981-2.599 31.675 11.337 39.443 4.438 2.474 9.303 3.71 14.171 3.71 4.866 0 9.735-1.237 14.171-3.709 13.936-7.768 19.021-25.462 11.338-39.443l-18.936-34.457c-1.318-2.398-3.837-3.889-6.573-3.889zm6.868 64.686c-4.301 2.396-9.436 2.397-13.736 0-6.754-3.765-9.219-12.34-5.494-19.116l12.362-22.497 12.363 22.497c3.724 6.776 1.259 15.351-5.495 19.116z"/><path d="m418.382 404.66c4.143 0 7.5-3.358 7.5-7.5v-28.929c0-7.013-2.642-13.692-7.438-18.809l-40.784-43.499h2.105c6.893 0 12.5-5.607 12.5-12.5v-41.16c0-6.893-5.607-12.5-12.5-12.5h-110.881c-6.893 0-12.5 5.607-12.5 12.5v41.16c0 6.893 5.607 12.5 12.5 12.5h2.105l-15.217 16.23h-154.654v-49.113c0-4.142-3.357-7.5-7.5-7.5s-7.5 3.358-7.5 7.5v221.46c0 9.649 7.851 17.5 17.5 17.5h126.648 1.133 176.982c9.649 0 17.5-7.851 17.5-17.5v-60.62c0-4.142-3.357-7.5-7.5-7.5s-7.5 3.358-7.5 7.5v60.62c0 1.378-1.121 2.5-2.5 2.5h-170.614v-128.769c0-3.188 1.201-6.224 3.382-8.549l50.402-53.758h65.547l50.402 53.758c2.181 2.326 3.382 5.362 3.382 8.549v28.929c0 4.142 3.357 7.5 7.5 7.5zm-317.264-7.76h121.648v45.36h-121.648zm0 97.6v-37.24h121.648v39.74h-119.148c-1.379 0-2.5-1.122-2.5-2.5zm129.087-145.078c-4.797 5.117-7.438 11.796-7.438 18.809v13.669h-121.649v-44.746h140.589zm41.179-94.659h105.881v36.16h-105.881z"/><path d="m324.324 427.162c4.866 0 9.735-1.237 14.171-3.709 13.936-7.768 19.021-25.462 11.338-39.443l-18.936-34.457c-1.318-2.397-3.837-3.888-6.573-3.888s-5.255 1.49-6.573 3.888l-18.935 34.457c-7.685 13.981-2.599 31.675 11.337 39.442 4.438 2.474 9.303 3.71 14.171 3.71zm-12.362-35.928 12.362-22.497 12.363 22.497c3.724 6.776 1.259 15.351-5.495 19.116-4.301 2.396-9.436 2.397-13.736 0-6.754-3.765-9.219-12.34-5.494-19.116z"/><path d="m281.544 450.44c0 4.142 3.357 7.5 7.5 7.5h70.561c4.143 0 7.5-3.358 7.5-7.5s-3.357-7.5-7.5-7.5h-70.561c-4.143 0-7.5 3.358-7.5 7.5z"/></g></g></svg>