<svg id="Capa_1" enable-background="new 0 0 512 512" height="512" viewBox="0 0 512 512" width="512" xmlns="http://www.w3.org/2000/svg"><g><g><g><g><g><path d="m64.124 320.15v-111.525c-14.88-15.253-23.235-35.595-23.235-57.27 0-45.314 36.866-82.181 82.181-82.181h103.386c45.315 0 82.181 36.866 82.181 82.181 0 21.675-8.354 42.017-23.235 57.27v111.525z" fill="#ffc269"/></g></g></g><g><path d="m226.456 69.175h-24.32c-8.802 31.243-13.559 68.594-13.559 107.595 0 48.167 7.254 93.823 20.425 128.556 1.987 5.239 4.097 10.177 6.316 14.825h70.083v-111.526c14.881-15.253 23.235-35.595 23.235-57.27.001-45.314-36.865-82.18-82.18-82.18z" fill="#fec165"/></g><g><path d="m226.456 104.174h-103.386c-26.057 0-47.181 21.124-47.181 47.181 0 15.076 7.076 28.494 18.084 37.13 3.301 2.59 5.151 6.615 5.151 10.81v85.855h151.278v-85.855c0-4.196 1.85-8.221 5.151-10.81 11.008-8.636 18.084-22.054 18.084-37.13 0-26.057-21.123-47.181-47.181-47.181z" fill="#f4dbb3"/></g><g><path d="m226.456 104.174h-32.066c-3.808 22.694-5.812 47.296-5.812 72.595 0 39.328 4.838 76.98 13.783 108.381h48.042v-85.855c0-4.196 1.85-8.221 5.151-10.81 11.008-8.636 18.084-22.054 18.084-37.13-.001-26.057-21.124-47.181-47.182-47.181z" fill="#fedba6"/></g><g><g><ellipse cx="277.769" cy="176.769" fill="#f79a54" rx="64.191" ry="169.269"/></g></g><g><g><path d="m263.14 222.862c0 39.457 19.724 74.39 49.826 95.471 17.462-30.251 28.994-82.352 28.994-141.564 0-22.071-1.604-43.152-4.517-62.485-43.44 16.935-74.303 59.218-74.303 108.578z" fill="#e8833f"/></g></g><g><g><g><path d="m234.32 176.769c0-84.173 23.301-153.984 53.82-167.059-3.376-1.447-6.84-2.21-10.371-2.21-35.452 0-64.191 75.785-64.191 169.269s28.739 169.269 64.191 169.269c3.531 0 6.995-.764 10.371-2.21-30.519-13.075-53.82-82.886-53.82-167.059z" fill="#e8833f"/></g></g></g><g><g><path d="m379.625 131.377c-50.526 0-91.485 40.959-91.485 91.485s40.959 91.485 91.485 91.485 91.485-40.959 91.485-91.485-40.959-91.485-91.485-91.485zm0 116.986c-14.083 0-25.5-11.417-25.5-25.5s11.417-25.5 25.5-25.5 25.5 11.417 25.5 25.5c.001 14.083-11.416 25.5-25.5 25.5z" fill="#b3e59f"/></g></g><g><path d="m308.783 222.862c0-47.036 35.498-85.774 81.164-90.902-3.389-.381-6.831-.583-10.321-.583-50.526 0-91.485 40.959-91.485 91.485s40.959 91.485 91.485 91.485c3.49 0 6.933-.202 10.321-.583-45.666-5.128-81.164-43.866-81.164-90.902z" fill="#95d6a4"/></g><g><path d="m426.671 504.5h-341.343c-9.467 0-17.637-6.638-19.576-15.904l-38.132-182.248h456.76l-38.132 182.248c-1.939 9.266-10.109 15.904-19.577 15.904z" fill="#f4dbb3"/></g><g><path d="m95.595 488.596-38.133-182.248h-29.842l38.132 182.248c1.939 9.266 10.109 15.904 19.576 15.904h29.842c-9.466 0-17.637-6.638-19.575-15.904z" fill="#eac89f"/></g><g><g><path d="m494.5 324.255h-477c-5.523 0-10-4.477-10-10v-32.12c0-5.523 4.477-10 10-10h477c5.523 0 10 4.477 10 10v32.12c0 5.522-4.477 10-10 10z" fill="#d2af8c"/></g></g><g><path d="m37.74 314.255v-32.12c0-5.523 4.477-10 10-10h-30.24c-5.523 0-10 4.477-10 10v32.12c0 5.523 4.477 10 10 10h30.24c-5.523 0-10-4.478-10-10z" fill="#c69b75"/></g></g><g><path d="m291.349 106.329c-8.884-2.887-18.276-2.887-27.16 0l-9.479 3.079c-3.939 1.279-6.096 5.511-4.816 9.45s5.512 6.097 9.45 4.815l9.479-3.079c5.854-1.9 12.04-1.9 17.893 0l9.479 3.079c.77.25 1.55.369 2.318.369 3.162 0 6.102-2.016 7.132-5.185 1.279-3.939-.877-8.171-4.816-9.45z"/><path d="m379.625 189.862c-18.196 0-33 14.804-33 33 0 18.197 14.804 33.001 33 33.001s33-14.804 33-33.001c0-18.196-14.803-33-33-33zm0 51.001c-9.925 0-18-8.075-18-18.001 0-9.925 8.075-18 18-18s18 8.075 18 18c0 9.926-8.074 18.001-18 18.001z"/><path d="m137.967 157.239c4.142 0 7.5-3.357 7.5-7.5s-3.358-7.5-7.5-7.5h-6.801c-4.142 0-7.5 3.357-7.5 7.5s3.358 7.5 7.5 7.5z"/><path d="m134.566 240.888h6.801c4.142 0 7.5-3.357 7.5-7.5s-3.358-7.5-7.5-7.5h-6.801c-4.142 0-7.5 3.357-7.5 7.5s3.358 7.5 7.5 7.5z"/><path d="m180.562 150.366c0-4.143-3.358-7.5-7.5-7.5h-6.801c-4.142 0-7.5 3.357-7.5 7.5s3.358 7.5 7.5 7.5h6.801c4.142 0 7.5-3.357 7.5-7.5z"/><path d="m376.225 172.9h6.801c4.142 0 7.5-3.357 7.5-7.5s-3.358-7.5-7.5-7.5h-6.801c-4.142 0-7.5 3.357-7.5 7.5s3.358 7.5 7.5 7.5z"/><path d="m439.915 208.3h-6.801c-4.142 0-7.5 3.357-7.5 7.5s3.358 7.5 7.5 7.5h6.801c4.142 0 7.5-3.357 7.5-7.5s-3.358-7.5-7.5-7.5z"/><path d="m325.435 208.3h-6.801c-4.142 0-7.5 3.357-7.5 7.5s3.358 7.5 7.5 7.5h6.801c4.142 0 7.5-3.357 7.5-7.5s-3.358-7.5-7.5-7.5z"/><path d="m166.261 187.162h-6.8c-4.142 0-7.5 3.357-7.5 7.5s3.358 7.5 7.5 7.5h6.8c4.142 0 7.5-3.357 7.5-7.5s-3.358-7.5-7.5-7.5z"/><path d="m183.266 247.887h6.801c4.142 0 7.5-3.357 7.5-7.5s-3.358-7.5-7.5-7.5h-6.801c-4.142 0-7.5 3.357-7.5 7.5s3.358 7.5 7.5 7.5z"/><path d="m494.5 264.634h-25.146c5.936-12.698 9.257-26.854 9.257-41.771 0-54.581-44.404-98.985-98.985-98.985-34.583 0-65.075 17.831-82.78 44.778-12.509-4.046-25.728-4.039-38.234.025l-14.173 4.604c-3.939 1.279-6.096 5.51-4.816 9.45 1.28 3.938 5.512 6.097 9.45 4.815l14.173-4.604c8.549-2.776 17.537-3.046 26.174-.826-5.637 12.432-8.779 26.228-8.779 40.743 0 2.27.083 4.521.234 6.754-5.597-.402-11.236.278-16.685 2.048l-9.479 3.079c-3.939 1.279-6.096 5.511-4.816 9.45s5.512 6.097 9.45 4.815l9.479-3.079c4.678-1.518 9.567-1.802 14.33-.893 1.569 6.826 3.842 13.387 6.745 19.597h-59.308c-6.188-26.032-9.511-56.236-9.511-87.864 0-44.327 6.504-85.891 18.314-117.032 10.78-28.432 24.768-44.738 38.375-44.738 12.304 0 22.404 13.028 28.711 23.958 9.759 16.911 17.498 40.838 22.379 69.193.703 4.082 4.583 6.822 8.664 6.119 4.082-.703 6.821-4.582 6.119-8.664-5.178-30.079-13.535-55.719-24.169-74.146-15.006-26.002-30.961-31.46-41.704-31.46-20.484 0-39.095 19.326-52.402 54.418-12.438 32.8-19.289 76.252-19.289 122.352 0 31.359 3.182 61.476 9.125 87.864h-108.578v-65.338c0-6.523-2.999-12.771-8.022-16.711-9.668-7.585-15.213-18.968-15.213-31.229 0-21.88 17.801-39.681 39.681-39.681h61.965c4.142 0 7.5-3.357 7.5-7.5s-3.358-7.5-7.5-7.5h-61.966c-30.151 0-54.681 24.529-54.681 54.681 0 16.899 7.638 32.583 20.955 43.03 1.428 1.121 2.281 2.956 2.281 4.91v65.338h-20v-54.014c0-3.164-1.201-6.198-3.383-8.547-12.812-13.782-19.862-31.809-19.852-50.757.021-40.46 34.71-74.642 75.751-74.642h69.294c4.142 0 7.5-3.357 7.5-7.5s-3.358-7.5-7.5-7.5h-69.294c-23.894 0-46.557 9.331-63.814 26.274-17.359 17.044-26.925 39.545-26.938 63.359-.012 22.44 8.233 43.814 23.235 60.292v53.033h-39.124c-9.649 0-17.5 7.851-17.5 17.5v32.121c0 9.649 7.851 17.5 17.5 17.5h7.774l33.137 158.377c2.651 12.673 13.971 21.87 26.918 21.87h341.343c12.945 0 24.266-9.197 26.917-21.868l17.402-83.172c.849-4.055-1.75-8.029-5.805-8.877-4.054-.85-8.029 1.75-8.877 5.805l-17.402 83.172c-1.206 5.76-6.351 9.94-12.235 9.94h-341.343c-5.885 0-11.03-4.181-12.235-9.94l-32.496-155.305h85.056c4.142 0 7.5-3.357 7.5-7.5s-3.358-7.5-7.5-7.5h-108.154c-1.378 0-2.5-1.121-2.5-2.5v-32.121c0-1.379 1.122-2.5 2.5-2.5h477c1.378 0 2.5 1.121 2.5 2.5v32.121c0 1.379-1.122 2.5-2.5 2.5h-327.98c-4.142 0-7.5 3.357-7.5 7.5s3.358 7.5 7.5 7.5h304.882l-8.153 38.965c-.849 4.055 1.75 8.029 5.805 8.877 4.053.846 8.028-1.75 8.877-5.805l8.796-42.037h7.774c9.649 0 17.5-7.851 17.5-17.5v-32.121c-.001-9.65-7.852-17.5-17.501-17.5zm-198.86-41.772c0-46.31 37.676-83.985 83.985-83.985s83.985 37.676 83.985 83.985c0 15.196-4.057 29.461-11.144 41.771h-145.682c-7.087-12.31-11.144-26.575-11.144-41.771z"/><path d="m108.806 366.64c0-4.143-3.358-7.5-7.5-7.5h-20.2c-4.142 0-7.5 3.357-7.5 7.5s3.358 7.5 7.5 7.5h20.2c4.142 0 7.5-3.358 7.5-7.5z"/><path d="m191.203 366.64c0-4.143-3.358-7.5-7.5-7.5h-20.2c-4.142 0-7.5 3.357-7.5 7.5s3.358 7.5 7.5 7.5h20.2c4.142 0 7.5-3.358 7.5-7.5z"/><path d="m266.1 359.14h-20.2c-4.142 0-7.5 3.357-7.5 7.5s3.358 7.5 7.5 7.5h20.2c4.142 0 7.5-3.357 7.5-7.5s-3.358-7.5-7.5-7.5z"/><path d="m355.997 366.64c0-4.143-3.358-7.5-7.5-7.5h-20.2c-4.142 0-7.5 3.357-7.5 7.5s3.358 7.5 7.5 7.5h20.2c4.142 0 7.5-3.358 7.5-7.5z"/><path d="m438.394 366.64c0-4.143-3.358-7.5-7.5-7.5h-20.2c-4.142 0-7.5 3.357-7.5 7.5s3.358 7.5 7.5 7.5h20.2c4.142 0 7.5-3.358 7.5-7.5z"/><path d="m150.005 413.08c0-4.143-3.358-7.5-7.5-7.5h-20.2c-4.142 0-7.5 3.357-7.5 7.5s3.358 7.5 7.5 7.5h20.2c4.142 0 7.5-3.357 7.5-7.5z"/><path d="m224.901 420.58c4.142 0 7.5-3.357 7.5-7.5s-3.358-7.5-7.5-7.5h-20.2c-4.142 0-7.5 3.357-7.5 7.5s3.358 7.5 7.5 7.5z"/><path d="m307.298 405.58h-20.2c-4.142 0-7.5 3.357-7.5 7.5s3.358 7.5 7.5 7.5h20.2c4.142 0 7.5-3.357 7.5-7.5s-3.358-7.5-7.5-7.5z"/><path d="m397.195 413.08c0-4.143-3.358-7.5-7.5-7.5h-20.2c-4.142 0-7.5 3.357-7.5 7.5s3.358 7.5 7.5 7.5h20.2c4.142 0 7.5-3.357 7.5-7.5z"/><path d="m101.306 467.02h17.867c4.142 0 7.5-3.357 7.5-7.5s-3.358-7.5-7.5-7.5h-17.867c-4.142 0-7.5 3.357-7.5 7.5s3.358 7.5 7.5 7.5z"/><path d="m174.187 467.02h17.867c4.142 0 7.5-3.357 7.5-7.5s-3.358-7.5-7.5-7.5h-17.867c-4.142 0-7.5 3.357-7.5 7.5s3.357 7.5 7.5 7.5z"/><path d="m264.934 452.02h-17.867c-4.142 0-7.5 3.357-7.5 7.5s3.358 7.5 7.5 7.5h17.867c4.142 0 7.5-3.357 7.5-7.5s-3.358-7.5-7.5-7.5z"/><path d="m319.946 467.02h17.867c4.142 0 7.5-3.357 7.5-7.5s-3.358-7.5-7.5-7.5h-17.867c-4.142 0-7.5 3.357-7.5 7.5s3.358 7.5 7.5 7.5z"/><path d="m392.827 467.02h17.867c4.142 0 7.5-3.357 7.5-7.5s-3.358-7.5-7.5-7.5h-17.867c-4.142 0-7.5 3.357-7.5 7.5s3.358 7.5 7.5 7.5z"/></g></g></svg>