<svg id="Capa_1" enable-background="new 0 0 512.005 512.005" height="512" viewBox="0 0 512.005 512.005" width="512" xmlns="http://www.w3.org/2000/svg"><g><g><g><path d="m159.846 12.926c3.678-8.526 16.299-6.527 17.162 2.718.731 7.83 10.468 10.994 15.661 5.089 6.132-6.972 17.518-1.171 15.482 7.888-1.725 7.672 6.558 13.69 13.322 9.679 7.987-4.736 17.023 4.3 12.286 12.286-4.011 6.764 2.007 15.047 9.679 13.322 9.059-2.036 14.861 9.35 7.888 15.482-5.905 5.193-2.741 14.931 5.089 15.661 9.245.863 11.244 13.484 2.718 17.162-7.221 3.114-7.221 13.353 0 16.467 8.526 3.677 6.527 16.299-2.718 17.162-7.83.731-10.994 10.468-5.089 15.661 6.972 6.132 1.171 17.518-7.888 15.482-7.672-1.725-13.69 6.558-9.679 13.322 4.736 7.987-4.3 17.023-12.286 12.286-6.764-4.011-15.047 2.007-13.322 9.679 2.036 9.059-9.35 14.861-15.482 7.888-5.193-5.905-14.931-2.741-15.661 5.089-.863 9.245-13.484 11.244-17.162 2.718-3.114-7.221-13.353-7.221-16.467 0-3.677 8.526-16.299 6.527-17.162-2.718-.731-7.83-10.468-10.994-15.661-5.089-6.132 6.972-17.518 1.171-15.482-7.888 1.725-7.672-6.558-13.69-13.322-9.679-7.987 4.736-17.023-4.3-12.286-12.286 4.011-6.764-2.007-15.047-9.679-13.322-9.059 2.036-14.861-9.35-7.888-15.482 5.905-5.193 2.741-14.931-5.089-15.661-9.245-.863-11.244-13.484-2.718-17.162 7.221-3.114 7.221-13.353 0-16.467-8.526-3.677-6.527-16.299 2.718-17.162 7.83-.731 10.994-10.468 5.089-15.661-6.972-6.132-1.171-17.518 7.888-15.482 7.672 1.725 13.69-6.558 9.679-13.322-4.736-7.987 4.3-17.023 12.286-12.286 6.764 4.011 15.047-2.007 13.322-9.679-2.036-9.059 9.35-14.861 15.482-7.888 5.193 5.905 14.931 2.741 15.661-5.089.863-9.245 13.484-11.244 17.162-2.718 3.114 7.221 13.352 7.221 16.467 0z" fill="#eceaec"/></g><g><path d="m114.513 212.275c1.725-7.672-6.558-13.69-13.322-9.679-7.987 4.736-17.023-4.3-12.286-12.286 4.011-6.764-2.007-15.047-9.679-13.322-9.059 2.036-14.861-9.35-7.888-15.482 5.905-5.193 2.741-14.931-5.089-15.661-9.245-.863-11.244-13.484-2.718-17.162 7.221-3.114 7.221-13.353 0-16.467-8.526-3.677-6.527-16.299 2.718-17.162 7.83-.731 10.994-10.468 5.089-15.661-6.972-6.132-1.171-17.518 7.888-15.482 7.672 1.725 13.69-6.558 9.679-13.322-4.736-7.987 4.3-17.023 12.286-12.286 6.764 4.011 15.047-2.007 13.322-9.679-.427-1.898-.258-3.651.322-5.175-1.561-.439-3.049-1.314-4.28-2.713-6.132-6.972-17.518-1.171-15.482 7.888 1.725 7.672-6.558 13.69-13.322 9.679-7.987-4.736-17.023 4.3-12.286 12.286 4.011 6.764-2.007 15.047-9.679 13.322-9.059-2.036-14.861 9.35-7.888 15.482 5.905 5.193 2.741 14.931-5.089 15.661-9.245.863-11.244 13.484-2.718 17.162 7.221 3.114 7.221 13.353 0 16.467-8.526 3.677-6.527 16.299 2.718 17.162 7.83.731 10.994 10.468 5.089 15.661-6.972 6.132-1.171 17.518 7.888 15.482 7.672-1.725 13.69 6.558 9.679 13.322-4.736 7.987 4.3 17.023 12.286 12.286 6.764-4.011 15.047 2.007 13.322 9.679-2.036 9.059 9.35 14.861 15.482 7.888 1.231-1.399 2.719-2.274 4.28-2.713-.58-1.524-.749-3.276-.322-5.175z" fill="#dad8db"/></g><g><path d="m272.862 504.505h-222.5c-11.046 0-20-8.954-20-20v-274.816h242.5z" fill="#b3e59f"/></g><g><path d="m70.626 484.505v-274.816h-40.264v274.815c0 11.046 8.954 20 20 20h40.264c-11.045.001-20-8.954-20-19.999z" fill="#95d6a4"/></g><g><path d="m30.362 263.453h242.5v181.288h-242.5z" fill="#e5646e"/></g><g><path d="m30.362 263.453h40.24v181.288h-40.24z" fill="#db4655"/></g><g><path d="m24.782 209.689h253.659c9.543 0 17.28-7.737 17.28-17.28 0-9.543-7.737-17.28-17.28-17.28h-253.659c-9.543 0-17.28 7.737-17.28 17.28 0 9.544 7.737 17.28 17.28 17.28z" fill="#e5646e"/></g><g><path d="m47.766 192.409c0-9.543 7.737-17.28 17.28-17.28h-40.264c-9.543 0-17.28 7.737-17.28 17.28 0 9.543 7.737 17.28 17.28 17.28h40.264c-9.543 0-17.28-7.736-17.28-17.28z" fill="#db4655"/></g><g><path d="m151.763 330.689c0 16.472 9.474 30.764 23.254 37.74v76.312h97.844v-156.332h-78.818c-23.313 0-42.28 18.967-42.28 42.28z" fill="#db4655"/></g><g><path d="m272.862 444.741h-97.844v39.764c0 7.182 1.7 13.971 4.705 20h93.14v-59.764z" fill="#95d6a4"/></g><g><path d="m194.043 347.969h293.179c9.543 0 17.28-7.737 17.28-17.28 0-9.543-7.737-17.28-17.28-17.28h-293.179c-9.543 0-17.28 7.737-17.28 17.28 0 9.544 7.737 17.28 17.28 17.28z" fill="#eceaec"/></g><g><path d="m217.027 330.689c0-9.543 7.737-17.28 17.28-17.28h-40.264c-9.543 0-17.28 7.737-17.28 17.28 0 9.543 7.737 17.28 17.28 17.28h40.264c-9.543 0-17.28-7.736-17.28-17.28z" fill="#dad8db"/></g><g><path d="m461.248 504.505h-241.23c-11.046 0-20-8.954-20-20v-136.536h281.23v136.535c0 11.046-8.954 20.001-20 20.001z" fill="#ffc269"/></g><g><path d="m228.924 484.505v-136.536h-28.906v136.535c0 11.046 8.954 20 20 20h28.906c-11.046.001-20-8.954-20-19.999z" fill="#ffa95f"/></g><g><path d="m349.302 396.678-45.03 15.481c-6.847 2.354-14.414 1.188-20.235-3.117l-18.041-13.344c-1.98-1.465-4.784-.051-4.784 2.412v56.254c0 2.463 2.804 3.877 4.784 2.412l18.041-13.344c5.821-4.306 13.388-5.471 20.235-3.117l45.03 15.481c18.418 6.332 38.824 2.053 53.147-11.145l15.992-14.737c2.149-1.98 2.149-5.374 0-7.354l-15.992-14.737c-14.322-13.197-34.729-17.477-53.147-11.145z" fill="#eceaec"/></g></g><g><path d="m41.119 119.101c.219.095.886.382.886 1.347 0 .966-.667 1.253-.886 1.348-7.023 3.029-10.938 10.141-9.742 17.696s7.118 13.108 14.734 13.82c.237.021.473.032.706.032 3.828 0 7.096-2.916 7.458-6.803.385-4.124-2.646-7.779-6.77-8.165-.339-.031-1.135-.105-1.313-1.231-.178-1.125.555-1.441.868-1.576 6.134-2.646 9.945-8.439 9.945-15.121 0-6.681-3.811-12.475-9.945-15.12-.313-.135-1.046-.451-.868-1.576s.973-1.199 1.313-1.23c6.652-.622 12.066-4.955 14.13-11.309s.229-13.041-4.787-17.453c-.256-.225-.855-.752-.338-1.767.518-1.017 1.296-.839 1.629-.766 6.518 1.466 13.006-.982 16.934-6.388 3.927-5.404 4.25-12.331.842-18.077-.174-.294-.582-.98.224-1.786.806-.808 1.492-.398 1.785-.225 5.746 3.406 12.674 3.086 18.078-.841 5.405-3.927 7.853-10.416 6.388-16.934-.075-.333-.25-1.112.766-1.63 1.015-.515 1.542.083 1.767.339 4.412 5.016 11.1 6.852 17.453 4.786 6.354-2.064 10.687-7.479 11.308-14.131.031-.34.105-1.135 1.231-1.313 1.121-.187 1.441.555 1.576.867 2.646 6.135 8.439 9.945 15.121 9.945 6.681 0 12.475-3.811 15.12-9.944.135-.313.452-1.053 1.577-.868 1.125.178 1.2.973 1.231 1.312.621 6.652 4.954 12.067 11.307 14.132 6.355 2.063 13.042.23 17.454-4.786.225-.257.752-.856 1.768-.338 1.015.517.84 1.296.765 1.629-1.465 6.518.982 13.007 6.388 16.934 5.404 3.926 12.331 4.247 18.078.841.292-.174.98-.583 1.785.225.806.806.399 1.492.225 1.785-3.408 5.747-3.085 12.674.841 18.078 3.927 5.406 10.417 7.856 16.933 6.388.332-.072 1.113-.25 1.629.766.517 1.015-.083 1.542-.338 1.767-5.016 4.412-6.851 11.1-4.787 17.453 2.064 6.354 7.479 10.687 14.132 11.309.339.031 1.134.105 1.312 1.23.179 1.125-.555 1.441-.868 1.576-6.134 2.646-9.945 8.439-9.945 15.12 0 6.682 3.811 12.476 9.945 15.121.313.135 1.046.451.868 1.576-.178 1.126-.973 1.2-1.313 1.231-4.124.386-7.155 4.041-6.77 8.165.385 4.125 4.042 7.144 8.165 6.771 7.616-.712 13.538-6.266 14.734-13.82 1.197-7.555-2.719-14.667-9.743-17.696-.219-.095-.886-.382-.886-1.348 0-.965.667-1.252.886-1.347 7.024-3.03 10.939-10.142 9.742-17.697s-7.118-13.107-14.733-13.818c-.238-.021-.961-.09-1.26-1.008-.298-.917.248-1.397.427-1.555 5.744-5.052 7.27-13.024 3.797-19.84s-10.816-10.266-18.284-8.591c-.234.054-.941.211-1.508-.569s-.197-1.404-.075-1.61c3.902-6.58 2.889-14.635-2.52-20.044-5.408-5.409-13.463-6.42-20.044-2.519-.206.12-.828.49-1.61-.075-.78-.567-.621-1.275-.569-1.509 1.678-7.463-1.774-14.811-8.59-18.283-6.815-3.474-14.789-1.947-19.841 3.797-.158.18-.637.722-1.555.427-.917-.298-.985-1.021-1.007-1.26-.711-7.616-6.265-13.537-13.82-14.733s-14.667 2.719-17.697 9.742c-.095.22-.382.886-1.347.886s-1.252-.666-1.347-.885c-3.029-7.024-10.145-10.94-17.696-9.743-7.556 1.196-13.109 7.117-13.82 14.733-.022.238-.089.961-1.007 1.26-.917.297-1.397-.247-1.555-.427-5.051-5.743-13.024-7.269-19.84-3.798-6.816 3.473-10.269 10.82-8.591 18.284.052.233.211.941-.569 1.509-.781.566-1.405.196-1.61.074-6.58-3.901-14.634-2.889-20.043 2.52s-6.422 13.464-2.52 20.045c.122.205.492.829-.075 1.609-.568.78-1.277.623-1.509.569-7.461-1.676-14.811 1.775-18.284 8.591-3.472 6.815-1.946 14.789 3.798 19.84.179.157.724.637.426 1.555s-1.022.986-1.258 1.008c-7.617.711-13.538 6.264-14.735 13.819-1.196 7.555 2.719 14.666 9.743 17.696z"/><path d="m512.002 330.689c0-13.664-11.116-24.78-24.78-24.78h-123.58c-4.142 0-7.5 3.357-7.5 7.5s3.358 7.5 7.5 7.5h123.58c5.393 0 9.78 4.388 9.78 9.78s-4.387 9.78-9.78 9.78h-293.179c-5.393 0-9.78-4.388-9.78-9.78s4.387-9.78 9.78-9.78h131.439c4.142 0 7.5-3.357 7.5-7.5s-3.358-7.5-7.5-7.5h-131.439c-13.664 0-24.78 11.116-24.78 24.78 0 13.151 10.299 23.937 23.254 24.729v81.823h-154.655v-166.288h227.499v9.122c0 4.143 3.358 7.5 7.5 7.5s7.5-3.357 7.5-7.5v-62.967c12.769-.984 22.86-11.681 22.86-24.699 0-13.663-11.116-24.779-24.78-24.779h-253.659c-13.664 0-24.78 11.116-24.78 24.779 0 13.017 10.091 23.714 22.86 24.699v267.397c0 15.164 12.336 27.5 27.5 27.5h118.16c4.142 0 7.5-3.357 7.5-7.5s-3.358-7.5-7.5-7.5h-118.16c-6.893 0-12.5-5.607-12.5-12.5v-32.264h154.655v32.264c0 15.163 12.336 27.5 27.5 27.5h241.23c15.164 0 27.5-12.337 27.5-27.5v-129.087c12.956-.791 23.255-11.577 23.255-24.729zm-474.14-74.736v-38.764h227.499v38.764zm-22.86-63.544c0-5.393 4.387-9.779 9.78-9.779h253.66c5.393 0 9.78 4.387 9.78 9.779s-4.387 9.78-9.78 9.78h-253.66c-5.392 0-9.78-4.388-9.78-9.78zm458.746 292.096c0 6.893-5.607 12.5-12.5 12.5h-241.23c-6.893 0-12.5-5.607-12.5-12.5v-129.036h266.23z"/><path d="m259.485 463.739c3.561 1.795 7.764 1.438 10.972-.934l18.041-13.345c3.837-2.837 8.822-3.606 13.336-2.054l45.03 15.481c6.445 2.216 13.094 3.296 19.689 3.296 14.949-.001 29.62-5.552 40.979-16.019l15.992-14.737c2.561-2.359 4.03-5.711 4.029-9.193s-1.47-6.832-4.029-9.19l-15.993-14.737c-16.37-15.084-39.616-19.958-60.667-12.722l-45.029 15.481c-4.513 1.552-9.5.783-13.337-2.056l-18.04-13.343c-3.206-2.372-7.41-2.73-10.97-.935-3.562 1.795-5.774 5.388-5.774 9.376v56.254c-.001 3.989 2.211 7.582 5.771 9.377zm9.228-56.703 10.864 8.036c7.807 5.774 17.951 7.339 27.134 4.181l45.03-15.481c15.832-5.447 33.314-1.776 45.626 9.567l13.997 12.898-13.997 12.897c-12.311 11.346-29.792 15.011-45.626 9.568l-45.03-15.481c-3.129-1.075-6.369-1.603-9.59-1.603-6.234 0-12.396 1.976-17.543 5.783l-10.865 8.036z"/><path d="m209.846 152.191c.926.377 1.883.556 2.825.556 2.96 0 5.765-1.764 6.949-4.675 3.594-8.831 5.416-18.125 5.416-27.624 0-40.486-32.938-73.424-73.424-73.424s-73.424 32.938-73.424 73.424c0 9.499 1.822 18.793 5.416 27.624 1.561 3.837 5.936 5.68 9.774 4.119 3.836-1.561 5.681-5.937 4.12-9.773-2.86-7.026-4.31-14.418-4.31-21.97 0-32.215 26.209-58.424 58.424-58.424s58.424 26.209 58.424 58.424c0 7.552-1.45 14.943-4.31 21.97-1.561 3.837.284 8.213 4.12 9.773z"/></g></g></svg>