<svg id="Capa_1" enable-background="new 0 0 512 512" height="512" viewBox="0 0 512 512" width="512" xmlns="http://www.w3.org/2000/svg"><g><g><g><path d="m235.126 492.025 9.403-54.042c6.177-35.503.606-72.052-15.869-104.102l-23.291-45.311h-66.723l-23.291 45.311c-16.475 32.05-22.046 68.599-15.869 104.102l9.403 54.042c1.255 7.211 7.514 12.475 14.833 12.475h96.57c7.32 0 13.579-5.264 14.834-12.475z" fill="#b3e59f"/></g><g><path d="m235.126 492.025 9.403-54.042c6.177-35.503.606-72.052-15.869-104.102l-16.364-31.835c-21.521 17.934-35.243 44.926-35.243 75.064v117.39c0 3.474.516 6.829 1.463 10h41.777c7.319 0 13.578-5.264 14.833-12.475z" fill="#95d6a4"/></g><g><path d="m359.192 267.28h-49.68v-249.78c0-5.523 4.477-10 10-10h29.68c5.523 0 10 4.477 10 10z" fill="#eac89f"/></g><g><path d="m339.612 7.5h-20.1c-5.523 0-10 4.477-10 10v249.78h20.1v-249.78c0-5.523 4.477-10 10-10z" fill="#d2af8c"/></g><g><path d="m379.292 318.04h-89.88v-52.04c0-5.523 4.477-10 10-10h69.88c5.523 0 10 4.477 10 10z" fill="#78c2a4"/></g><g><path d="m324.252 256h-24.84c-5.523 0-10 4.477-10 10v52.04h24.84v-52.04c0-5.523 4.477-10 10-10z" fill="#68b594"/></g><g><path d="m95.46 277.853h-8.43c-5.523 0-10-4.477-10-10v-54.86h28.429v54.86c.001 5.523-4.477 10-9.999 10z" fill="#ffc269"/></g><g><path d="m77.03 212.993h-25.975c-4.158 0-7.528-3.37-7.528-7.528v-28.644c0-4.158 3.37-7.528 7.528-7.528h25.975z" fill="#78c2a4"/></g><g><path d="m138.646 249.579h66.723v38.992h-66.723z" fill="#ffc269"/></g><g><path d="m183.209 169.294h-106.179v43.699h41.742c10.675 0 19.382 8.555 19.569 19.228l.305 17.357h78.438c4.158 0 7.528-3.37 7.528-7.528v-31.354c0-22.865-18.536-41.402-41.403-41.402z" fill="#eceaec"/></g><g><path d="m128.895 492.025-9.403-54.042c-6.177-35.503-.606-72.052 15.869-104.102l23.291-45.311h-20.005l-23.291 45.311c-16.475 32.05-22.046 68.599-15.869 104.102l9.403 54.042c1.255 7.211 7.514 12.475 14.833 12.475h20.005c-7.32 0-13.579-5.264-14.833-12.475z" fill="#95d6a4"/></g><g><path d="m138.646 249.579h20.005v38.992h-20.005z" fill="#ffa95f"/></g><g><path d="m138.777 212.993h-20.005c10.676 0 19.382 8.555 19.569 19.228l.305 17.357h20.005l-.305-17.357c-.188-10.673-8.894-19.228-19.569-19.228z" fill="#dad8db"/></g><g><g><g><path d="m456.652 504.5h-244.6c-5.523 0-10-4.477-10-10v-117.39c0-40.145 32.544-72.69 72.69-72.69h119.221c40.145 0 72.69 32.544 72.69 72.69v117.39c-.001 5.523-4.478 10-10.001 10z" fill="#ffc269"/></g></g></g><g><g><path d="m226.892 494.5v-117.39c0-40.145 32.544-72.69 72.69-72.69h-24.84c-40.145 0-72.689 32.544-72.689 72.69v117.39c0 5.523 4.477 10 10 10h24.84c-5.524 0-10.001-4.477-10.001-10z" fill="#ffa95f"/></g></g><g><path d="m275.313 43.05.25-.082c1.801-.594 1.801-3.142 0-3.736l-.251-.083c-10.655-3.516-19.013-11.877-22.53-22.532-.028-.084-.055-.167-.083-.25-.594-1.801-3.141-1.799-3.736.002l-.083.251c-3.516 10.655-11.874 19.013-22.529 22.529l-.251.083c-1.801.594-1.801 3.142 0 3.736l.251.083c10.655 3.516 19.014 11.877 22.53 22.532.028.084.055.167.083.25.594 1.801 3.141 1.799 3.736-.002l.082-.25c3.517-10.656 11.876-19.015 22.531-22.531z" fill="#fee8c7"/></g><g><path d="m466.151 140.219.362-.12c2.612-.862 2.612-4.557 0-5.419l-.364-.12c-15.453-5.1-27.576-17.226-32.676-32.679-.04-.122-.08-.243-.12-.363-.862-2.612-4.556-2.609-5.418.003l-.12.364c-5.1 15.453-17.222 27.575-32.675 32.675l-.364.12c-2.612.862-2.612 4.557 0 5.419l.364.12c15.453 5.1 27.577 17.226 32.676 32.679.04.122.08.243.12.363.862 2.612 4.556 2.609 5.418-.003l.12-.362c5.1-15.454 17.223-27.577 32.677-32.677z" fill="#fee8c7"/></g></g><g><path d="m393.963 296.921h-7.171v-30.921c0-9.649-7.851-17.5-17.5-17.5h-2.6v-131.979c0-4.143-3.357-7.5-7.5-7.5s-7.5 3.357-7.5 7.5v131.979h-34.681v-231c0-1.379 1.121-2.5 2.5-2.5h29.681c1.379 0 2.5 1.121 2.5 2.5v65.1c0 4.143 3.357 7.5 7.5 7.5s7.5-3.357 7.5-7.5v-65.1c0-9.649-7.851-17.5-17.5-17.5h-29.681c-9.649 0-17.5 7.851-17.5 17.5v231h-2.6c-9.649 0-17.5 7.851-17.5 17.5v30.921h-7.17c-18.125 0-34.859 6.052-48.304 16.231l-13.569-26.396v-29.677h4.216c8.286 0 15.027-6.741 15.027-15.028v-31.354c0-26.966-21.938-48.903-48.903-48.903h-132.152c-8.287 0-15.028 6.741-15.028 15.027v28.645c0 8.286 6.741 15.027 15.028 15.027h18.474v47.36c0 9.649 7.851 17.5 17.5 17.5h8.43c9.649 0 17.5-7.851 17.5-17.5v-47.36h5.812c6.541 0 11.956 5.32 12.07 11.86l.305 17.302v37.101l-22.461 43.696c-17.114 33.293-23.004 71.938-16.588 108.818l9.403 54.042c1.884 10.829 11.229 18.688 22.222 18.688h40.507c4.143 0 7.5-3.357 7.5-7.5s-3.357-7.5-7.5-7.5h-40.507c-3.682 0-6.813-2.633-7.444-6.261l-9.403-54.041c-5.86-33.684-.479-68.98 15.15-99.389l21.198-41.239h57.568l14.202 27.629c-12.701 14.193-20.443 32.912-20.443 53.411v117.39c0 9.649 7.851 17.5 17.5 17.5h244.601c9.649 0 17.5-7.851 17.5-17.5v-117.39c0-44.216-35.972-80.189-80.189-80.189zm-97.051-30.921c0-1.379 1.121-2.5 2.5-2.5h69.88c1.379 0 2.5 1.121 2.5 2.5v30.921h-74.88zm-245.885-60.534.028-28.672h18.475v28.691zm46.933 62.388c0 1.379-1.121 2.5-2.5 2.5h-8.43c-1.379 0-2.5-1.121-2.5-2.5v-47.36h13.43zm20.811-62.361h-13.311-20.93v-28.699h98.679c18.694 0 33.903 15.209 33.903 33.903l-.027 31.382h-11.716-59.354l-.176-9.989c-.257-14.665-12.4-26.597-27.068-26.597zm27.375 75.577v-23.991h51.723v23.991zm313.006 213.43c0 1.379-1.121 2.5-2.5 2.5h-31.28v-119.2c0-4.143-3.357-7.5-7.5-7.5s-7.5 3.357-7.5 7.5v119.2h-40.68v-119.2c0-4.143-3.357-7.5-7.5-7.5s-7.5 3.357-7.5 7.5v119.2h-40.681v-76.72c0-4.143-3.357-7.5-7.5-7.5s-7.5 3.357-7.5 7.5v76.72h-40.68v-119.2c0-4.143-3.357-7.5-7.5-7.5s-7.5 3.357-7.5 7.5v119.2h-31.28c-1.379 0-2.5-1.121-2.5-2.5v-117.39c0-35.945 29.244-65.189 65.19-65.189h119.221c35.945 0 65.189 29.244 65.189 65.189v117.39z"/><path d="m306.512 370.3c-4.143 0-7.5 3.357-7.5 7.5v11.76c0 4.143 3.357 7.5 7.5 7.5s7.5-3.357 7.5-7.5v-11.76c0-4.143-3.358-7.5-7.5-7.5z"/><path d="m223.771 50.097.23.075c8.36 2.76 14.999 9.398 17.773 17.807l.066.202c1.282 3.888 4.894 6.5 8.986 6.501h.003c4.094 0 7.707-2.612 8.987-6.488l.087-.264c2.759-8.36 9.397-14.998 17.759-17.758l.249-.082c3.89-1.284 6.502-4.897 6.501-8.993-.001-4.095-2.615-7.707-6.496-8.986l-.256-.084c-8.359-2.759-14.998-9.398-17.748-17.731l-.046-.14-7.121 2.354-7.077 2.455c-.014-.034-.027-.068-.04-.103l7.117-2.353 7.075-2.493c-1.283-3.888-4.896-6.5-8.988-6.5-.001 0-.001 0-.001 0-4.094 0-7.707 2.612-8.99 6.496l-.084.257c-2.759 8.359-9.396 14.997-17.762 17.758l-.244.081c-3.888 1.282-6.501 4.895-6.502 8.988.001 4.095 2.612 7.71 6.522 9.001zm27.062-20.609c3.09 4.571 7.039 8.521 11.61 11.611-4.572 3.09-8.523 7.04-11.612 11.61-3.089-4.57-7.038-8.519-11.612-11.609 4.573-3.089 8.524-7.039 11.614-11.612z"/><path d="m392.428 147.223.362.119c13.137 4.335 23.568 14.768 27.9 27.895l.123.373c1.402 4.252 5.352 7.108 9.828 7.109h.002c4.478 0 8.43-2.856 9.836-7.117l.116-.354c4.336-13.136 14.765-23.566 27.898-27.903l.371-.122c4.251-1.404 7.107-5.354 7.107-9.831 0-4.478-2.856-8.428-7.11-9.833l-.362-.119c-13.137-4.335-23.568-14.768-27.917-27.945l-.107-.325c-1.403-4.251-5.354-7.107-9.829-7.107-4.478 0-8.43 2.857-9.834 7.112l-.119.362c-4.335 13.137-14.767 23.568-27.901 27.902l-.364.12c-4.252 1.402-7.109 5.353-7.11 9.83-.002 4.477 2.855 8.429 7.11 9.834zm38.218-33.141c5.393 9.8 13.509 17.915 23.308 23.308-9.798 5.394-17.913 13.509-23.308 23.31-5.394-9.8-13.509-17.916-23.309-23.309 9.801-5.394 17.915-13.508 23.309-23.309z"/></g></g></svg>