<svg id="Capa_1" enable-background="new 0 0 512 512" height="512" viewBox="0 0 512 512" width="512" xmlns="http://www.w3.org/2000/svg"><g><g><g><path d="m334.28 156.54h-39.349v-139.04c0-5.523 4.477-10 10-10h19.349c5.523 0 10 4.477 10 10z" fill="#eac89f"/></g><g><ellipse cx="322.39" cy="195.378" fill="#e5646e" rx="59.053" ry="59.053" transform="matrix(.924 -.383 .383 .924 -50.228 138.245)"/></g><g><path d="m281.697 195.378c0-29.491 21.619-53.929 49.873-58.339-2.992-.467-6.057-.714-9.18-.714-32.614 0-59.053 26.439-59.053 59.053s26.439 59.053 59.053 59.053c3.123 0 6.188-.247 9.18-.714-28.254-4.41-49.873-28.848-49.873-58.339z" fill="#db4655"/></g><g><ellipse cx="396.55" cy="195.378" fill="#ffc269" rx="59.053" ry="59.053" transform="matrix(.924 -.383 .383 .924 -44.582 166.625)"/></g><g><path d="m355.857 195.378c0-29.491 21.619-53.929 49.873-58.339-2.992-.467-6.057-.714-9.18-.714-32.614 0-59.053 26.439-59.053 59.053s26.439 59.053 59.053 59.053c3.123 0 6.188-.247 9.18-.714-28.254-4.41-49.873-28.848-49.873-58.339z" fill="#ffa95f"/></g><g><path d="m471.79 313.728v-88.459c0-2.761-2.239-5-5-5h-214.64c-2.761 0-5 2.239-5 5v88.459c0 24.301 19.699 44 44 44h22.028c13.637 0 24.692 11.055 24.692 24.692v37.484c0 8.783-5.73 16.538-14.125 19.118l-57.471 17.663c-8.395 2.58-14.125 10.335-14.125 19.118v28.697h204.64c5.523 0 10-4.477 10-10v-18.699c0-8.783-5.73-16.537-14.125-19.118l-57.471-17.663c-8.395-2.58-14.125-10.335-14.125-19.118v-37.482c0-13.637 11.055-24.692 24.692-24.692h22.028c24.302 0 44.002-19.7 44.002-44z" fill="#80b4fb"/></g><g><path d="m291.15 357.728h21.973c-24.301 0-44-19.699-44-44v-88.459c0-2.761 2.239-5 5-5h-21.973c-2.761 0-5 2.239-5 5v88.459c0 24.3 19.699 44 44 44z" fill="#61a2f9"/></g><g><path d="m288.247 456.683 57.471-17.662c8.395-2.58 14.125-10.335 14.125-19.118v-37.483c0-13.637-11.055-24.692-24.692-24.692h-21.973c13.637 0 24.692 11.055 24.692 24.692v37.484c0 8.783-5.729 16.537-14.125 19.118l-57.471 17.662c-8.395 2.58-14.125 10.335-14.125 19.118v28.698h21.973v-28.699c.001-8.783 5.73-16.538 14.125-19.118z" fill="#61a2f9"/></g><g><path d="m116.941 296.36h134.22c25.152 0 45.543 20.39 45.543 45.543v124.546h-225.306v-124.546c0-25.153 20.39-45.543 45.543-45.543z" fill="#eac89f"/></g><g><path d="m145.021 296.36h-28.08c-25.152 0-45.542 20.39-45.542 45.543v124.546h28.08v-124.547c-.001-25.152 20.389-45.542 45.542-45.542z" fill="#d2af8c"/></g><g><ellipse cx="184.051" cy="274.653" fill="#e5646e" rx="34.163" ry="34.163" transform="matrix(.924 -.383 .383 .924 -91.095 91.34)"/></g><g><path d="m166.208 274.653c0-16.054 11.077-29.515 26.003-33.174-2.616-.641-5.347-.988-8.16-.988-18.867 0-34.163 15.295-34.163 34.163s15.295 34.163 34.163 34.163c2.813 0 5.544-.347 8.16-.988-14.926-3.661-26.003-17.122-26.003-33.176z" fill="#db4655"/></g><g><path d="m251.161 296.36h-134.22c-25.152 0-45.542 20.39-45.542 45.543v21.753h18.085c12.703 0 23 10.297 23 23v13.738c0 10.329 8.373 18.702 18.703 18.702 10.329 0 18.702-8.373 18.702-18.702v-40.6c0-10.216 8.282-18.497 18.498-18.497s18.497 8.282 18.497 18.497v7.943c0 11.002 8.918 19.92 19.92 19.92 11.001 0 19.92-8.918 19.92-19.92v-14.56c0-9.544 7.737-17.28 17.28-17.28s17.28 7.737 17.28 17.28v5.229c0 12.703 10.297 23 23 23h12.42v-39.502c-.001-25.154-20.391-45.544-45.543-45.544z" fill="#eceaec"/></g><g><path d="m99.478 341.902c0-25.152 20.39-45.543 45.542-45.543h-28.08c-25.152 0-45.542 20.39-45.542 45.543v21.753h18.085c3.582 0 6.973.819 9.995 2.28z" fill="#dad8db"/></g><g><path d="m326.99 468.879-12.841 18.461c-7.477 10.75-19.743 17.159-32.838 17.159h-194.521c-13.095 0-25.36-6.409-32.838-17.159l-12.841-18.461c-2.306-3.315.066-7.855 4.105-7.855h277.669c4.038 0 6.411 4.54 4.105 7.855z" fill="#ffc269"/></g><g><path d="m82.033 487.341-12.841-18.461c-2.306-3.315.066-7.855 4.105-7.855h-28.08c-4.038 0-6.411 4.54-4.105 7.855l12.841 18.461c7.477 10.75 19.743 17.159 32.837 17.159h28.08c-13.094 0-25.36-6.409-32.837-17.159z" fill="#ffa95f"/></g></g><g><path d="m466.79 212.769h-6.024c1.509-5.547 2.337-11.372 2.337-17.391 0-36.697-29.855-66.553-66.553-66.553-13.725 0-26.492 4.178-37.1 11.327-5.385-3.629-11.329-6.483-17.67-8.423v-114.229c0-9.649-7.851-17.5-17.5-17.5h-19.349c-9.649 0-17.5 7.851-17.5 17.5v121.278c-18.945 11.744-31.595 32.719-31.595 56.6 0 6.019.827 11.843 2.337 17.391h-6.024c-6.893 0-12.5 5.607-12.5 12.5v63.592h-16.457c1.62-4.437 2.522-9.216 2.522-14.207 0-20.411-14.759-37.43-34.163-40.974v-9.439c0-3.907 1.864-7.643 4.988-9.991l10.212-7.68c3.311-2.489 3.976-7.191 1.486-10.502-2.488-3.311-7.191-3.976-10.502-1.486l-10.212 7.68c-6.871 5.167-10.973 13.384-10.973 21.979v9.439c-19.404 3.544-34.162 20.562-34.162 40.974 0 4.991.902 9.77 2.522 14.207h-27.969c-29.248 0-53.043 23.795-53.043 53.042v45.617c0 4.143 3.357 7.5 7.5 7.5s7.5-3.357 7.5-7.5v-16.364h10.585c8.547 0 15.5 6.953 15.5 15.5v13.738c0 14.448 11.754 26.202 26.202 26.202s26.203-11.754 26.203-26.202v-40.601c0-6.063 4.934-10.997 10.997-10.997 6.064 0 10.998 4.934 10.998 10.997v7.942c0 15.119 12.301 27.42 27.42 27.42s27.42-12.301 27.42-27.42v-14.56c0-5.393 4.387-9.78 9.779-9.78s9.78 4.388 9.78 9.78v5.229c0 16.817 13.683 30.5 30.5 30.5h4.92v64.62h-210.304v-31.804c0-4.143-3.357-7.5-7.5-7.5s-7.5 3.357-7.5 7.5v31.805h-18.681c-4.671 0-8.916 2.571-11.079 6.712-2.163 4.14-1.85 9.093.817 12.926l12.841 18.462c8.875 12.758 23.452 20.375 38.994 20.375h194.521c15.542 0 30.12-7.617 38.995-20.377l12.841-18.461c2.667-3.835 2.979-8.788.816-12.928-2.163-4.139-6.408-6.71-11.078-6.71h-18.683v-88.297h8.975c9.479 0 17.192 7.713 17.192 17.192v37.483c0 3.956-1.901 7.72-5.087 10.066-3.335 2.457-4.047 7.151-1.59 10.486 1.47 1.996 3.742 3.053 6.044 3.053 1.545-.001 3.104-.477 4.442-1.463 7.007-5.162 11.19-13.439 11.19-22.143v-37.481c0-17.751-14.441-32.192-32.192-32.192h-8.975v-8.325c0-28.074-21.928-51.111-49.554-52.915v-61.219h209.643v23.312c0 4.143 3.357 7.5 7.5 7.5s7.5-3.357 7.5-7.5v-25.812c0-6.893-5.608-12.5-12.5-12.5zm-158.798 270.29c-6.072 8.729-16.046 13.941-26.681 13.941h-194.521c-10.634 0-20.607-5.212-26.68-13.941l-10.109-14.534h268.101zm-150.603-208.406c0-14.702 11.961-26.663 26.662-26.663 14.702 0 26.663 11.961 26.663 26.663 0 5.221-1.513 10.092-4.118 14.207h-45.09c-2.605-4.115-4.117-8.986-4.117-14.207zm131.814 67.249v32.002h-4.92c-8.547 0-15.5-6.953-15.5-15.5v-5.229c0-13.664-11.116-24.78-24.78-24.78-13.663 0-24.779 11.116-24.779 24.78v14.56c0 6.849-5.571 12.42-12.42 12.42s-12.42-5.571-12.42-12.42v-7.942c0-14.335-11.663-25.997-25.998-25.997s-25.997 11.662-25.997 25.997v40.601c0 6.177-5.025 11.202-11.203 11.202-6.177 0-11.202-5.025-11.202-11.202v-13.738c0-16.817-13.683-30.5-30.5-30.5h-10.586v-14.253c0-20.977 17.066-38.042 38.043-38.042h134.22c20.977-.001 38.042 17.065 38.042 38.041zm158.899-146.524c0 6.105-1.091 11.953-3.052 17.391h-97.002c-1.96-5.438-3.052-11.286-3.052-17.391 0-28.426 23.127-51.553 51.553-51.553s51.553 23.127 51.553 51.553zm-145.671-128.542 24.349-15.656v29.585l-24.349 15.656zm2.5-51.836h19.349c1.379 0 2.5 1.121 2.5 2.5v15.846l-24.349 15.656v-31.502c0-1.379 1.122-2.5 2.5-2.5zm-2.5 99.255 24.349-15.656v30.387c-1.453-.095-2.914-.161-4.391-.161-6.951 0-13.654 1.075-19.958 3.061zm-31.594 81.123c0-28.426 23.127-51.553 51.553-51.553 9.131 0 17.709 2.395 25.154 6.579-10.887 11.854-17.547 27.649-17.547 44.974 0 6.019.828 11.843 2.337 17.391h-58.445c-1.961-5.438-3.052-11.286-3.052-17.391z"/><path d="m471.79 281.498c-4.143 0-7.5 3.357-7.5 7.5v24.729c0 20.126-16.374 36.5-36.5 36.5h-22.028c-17.751 0-32.192 14.441-32.192 32.192v37.483c0 12.152 7.805 22.716 19.422 26.286l57.471 17.663c5.28 1.623 8.828 6.425 8.828 11.948v18.701c0 1.379-1.121 2.5-2.5 2.5h-111.721c-4.143 0-7.5 3.357-7.5 7.5s3.357 7.5 7.5 7.5h111.72c9.649 0 17.5-7.851 17.5-17.5v-18.699c0-12.152-7.805-22.716-19.422-26.286l-57.471-17.663c-5.28-1.623-8.828-6.425-8.828-11.948v-37.484c0-9.479 7.713-17.192 17.192-17.192h22.028c28.397 0 51.5-23.103 51.5-51.5v-24.729c.001-4.144-3.357-7.501-7.499-7.501z"/></g></g></svg>