<svg id="Capa_1" enable-background="new 0 0 512 512" height="512" viewBox="0 0 512 512" width="512" xmlns="http://www.w3.org/2000/svg"><g><g><g><path d="m488.29 264.54h-456.62l31.158-239.619c1.296-9.965 9.785-17.421 19.833-17.421h354.637c10.049 0 18.537 7.456 19.833 17.421z" fill="#80b4fb"/></g><g><path d="m114.191 7.5h-31.53c-10.049 0-18.537 7.456-19.833 17.421l-31.158 239.619h31.53l31.158-239.619c1.296-9.965 9.785-17.421 19.833-17.421z" fill="#61a2f9"/></g><g><ellipse cx="190.822" cy="181.448" fill="#f79a54" rx="52.033" ry="73.508"/></g><g><g><path d="m154.725 181.448c0-36.77 19.11-67.234 44.065-72.651-2.598-.564-5.258-.857-7.968-.857-28.737 0-52.033 32.911-52.033 73.508s23.296 73.508 52.033 73.508c2.709 0 5.37-.293 7.968-.857-24.955-5.417-44.065-35.88-44.065-72.651z" fill="#e8833f"/></g></g><g><ellipse cx="322.418" cy="181.448" fill="#f79a54" rx="52.033" ry="73.508"/></g><g><path d="m286.32 181.448c0-36.77 19.11-67.234 44.065-72.651-2.598-.564-5.258-.857-7.968-.857-28.737 0-52.033 32.911-52.033 73.508s23.296 73.508 52.033 73.508c2.709 0 5.37-.293 7.968-.857-24.954-5.417-44.065-35.88-44.065-72.651z" fill="#e8833f"/></g><g><g><ellipse cx="125.024" cy="233.432" fill="#ffc269" rx="52.033" ry="73.508"/></g></g><g><path d="m88.927 233.432c0-36.77 19.11-67.234 44.065-72.651-2.598-.564-5.258-.857-7.968-.857-28.737 0-52.033 32.911-52.033 73.508s23.296 73.508 52.033 73.508c2.709 0 5.37-.293 7.968-.857-24.954-5.418-44.065-35.881-44.065-72.651z" fill="#ffa95f"/></g><g><g><ellipse cx="256.62" cy="233.432" fill="#ffc269" rx="52.033" ry="73.508"/></g></g><g><path d="m220.523 233.432c0-36.77 19.11-67.234 44.065-72.651-2.598-.564-5.258-.857-7.968-.857-28.737 0-52.033 32.911-52.033 73.508s23.296 73.508 52.033 73.508c2.709 0 5.37-.293 7.968-.857-24.955-5.418-44.065-35.881-44.065-72.651z" fill="#ffa95f"/></g><g><g><ellipse cx="388.216" cy="233.432" fill="#ffc269" rx="52.033" ry="73.508"/></g></g><g><path d="m352.118 233.432c0-36.77 19.11-67.234 44.065-72.651-2.598-.564-5.258-.857-7.968-.857-28.737 0-52.033 32.911-52.033 73.508s23.296 73.508 52.033 73.508c2.709 0 5.37-.293 7.968-.857-24.954-5.418-44.065-35.881-44.065-72.651z" fill="#ffa95f"/></g><g><path d="m31.838 273.54 19.322 124.207c1.514 9.734 9.896 16.913 19.748 16.913h73.222c10.013 0 18.48-7.41 19.808-17.334l5.489-41.014c.664-4.962 4.898-8.667 9.904-8.667h5.662c5.006 0 9.24 3.705 9.904 8.667l5.489 41.014c1.328 9.924 9.796 17.334 19.808 17.334h72.85c10.013 0 18.48-7.41 19.808-17.334l5.489-41.014c.664-4.962 4.898-8.667 9.904-8.667h5.662c5.006 0 9.24 3.705 9.904 8.667l5.489 41.014c1.328 9.924 9.796 17.334 19.808 17.334h73.222c9.851 0 18.233-7.179 19.748-16.913l19.322-124.207z" fill="#f4dbb3"/></g><g><path d="m78.5 397.747-19.322-124.207h-27.34l19.322 124.207c1.514 9.734 9.896 16.913 19.748 16.913h27.34c-9.852 0-18.234-7.179-19.748-16.913z" fill="#eac89f"/></g><g><path d="m448.216 332.483c-21.917 0-42.764 11.695-57.198 32.086-2.481 3.505-4.739 7.222-6.778 11.11-3.491.207-6.944.567-10.355 1.051l-2.733-20.419c-.664-4.962-4.898-8.667-9.904-8.667h-27.339c5.006 0 9.24 3.705 9.904 8.667l5.489 41.014c1.328 9.924 9.796 17.334 19.808 17.334h73.222c9.851 0 18.233-7.179 19.747-16.913l9.447-60.728c-7.454-2.97-15.31-4.535-23.31-4.535z" fill="#eac89f"/></g><g><path d="m227.726 397.326-5.489-41.014c-.664-4.962-4.898-8.667-9.904-8.667h-27.34c5.006 0 9.24 3.705 9.904 8.667l5.489 41.014c1.328 9.924 9.796 17.334 19.808 17.334h24.128c-1.461-.49-3.105-1.042-3.142-1.054-7.049-2.367-12.42-8.552-13.454-16.28z" fill="#eac89f"/></g><g><path d="m499.5 296.394h-487c-2.761 0-5-2.239-5-5v-40.468c0-2.761 2.239-5 5-5h487c2.761 0 5 2.239 5 5v40.468c0 2.761-2.239 5-5 5z" fill="#d2af8c"/></g><g><path d="m34.86 291.394v-40.468c0-2.761 2.239-5 5-5h-27.36c-2.761 0-5 2.239-5 5v40.468c0 2.761 2.239 5 5 5h27.36c-2.761 0-5-2.238-5-5z" fill="#c69b75"/></g><g><g><ellipse cx="391.912" cy="452.467" fill="#ffc269" rx="73.508" ry="52.033"/></g></g><g><path d="m335.923 452.467c0-26.637 28.283-48.585 64.748-51.652-2.875-.242-5.794-.381-8.76-.381-40.598 0-73.508 23.296-73.508 52.033s32.911 52.033 73.508 52.033c2.966 0 5.885-.139 8.76-.381-36.464-3.067-64.748-25.015-64.748-51.652z" fill="#ffa95f"/></g><g><g><ellipse cx="448.216" cy="430.992" fill="#eceaec" rx="52.033" ry="73.508"/></g></g><g><ellipse cx="448.216" cy="439.998" fill="#ffc269" rx="24.431" ry="26.225"/></g><g><path d="m412.119 430.992c0-36.77 19.111-67.234 44.065-72.651-2.598-.564-5.258-.857-7.968-.857-28.737 0-52.033 32.911-52.033 73.508s23.296 73.508 52.033 73.508c2.709 0 5.37-.293 7.968-.857-24.955-5.418-44.065-35.881-44.065-72.651z" fill="#dad8db"/></g></g><g><path d="m499.5 238.426h-7.042l-15.119-116.271c-.534-4.107-4.298-7.008-8.405-6.471-4.107.534-7.004 4.297-6.47 8.404l14.868 114.337h-29.702c.074-1.657.119-3.321.119-4.994 0-21.174-5.902-41.172-16.619-56.312-11.273-15.927-26.514-24.697-42.915-24.697-3.347 0-6.642.385-9.868 1.101-2.804-10.501-7.194-20.164-13.015-28.387-11.273-15.926-26.514-24.696-42.914-24.696-16.401 0-31.642 8.771-42.915 24.696-5.821 8.224-10.211 17.886-13.015 28.387-3.226-.717-6.521-1.101-9.868-1.101-3.348 0-6.644.385-9.872 1.102-2.802-10.502-7.191-20.165-13.012-28.388-11.273-15.926-26.514-24.696-42.914-24.696s-31.641 8.771-42.914 24.696c-5.821 8.223-10.204 17.888-13.004 28.39-3.23-.719-6.529-1.104-9.88-1.104-16.4 0-31.641 8.771-42.914 24.697-10.717 15.14-16.619 35.138-16.619 56.312 0 1.673.045 3.337.119 4.994h-22.981l27.637-212.537c.807-6.207 6.136-10.888 12.396-10.888h354.637c6.26 0 11.589 4.681 12.396 10.888l7.846 60.34c.535 4.107 4.296 7.008 8.405 6.471 4.107-.534 7.004-4.297 6.47-8.404l-7.846-60.34c-1.777-13.657-13.5-23.955-27.272-23.955h-354.636c-13.772 0-25.495 10.298-27.271 23.954l-27.889 214.472h-15.002c-6.893 0-12.5 5.607-12.5 12.5v40.468c0 6.893 5.607 12.5 12.5 12.5h16.47l14.779 95.006c2.096 13.479 13.518 23.261 27.158 23.261h73.222c13.712 0 25.423-10.249 27.242-23.839l5.489-41.015c.165-1.232 1.227-2.162 2.47-2.162h5.663c1.243 0 2.305.93 2.47 2.162l5.489 41.015c1.819 13.59 13.53 23.839 27.242 23.839h72.85c13.712 0 25.423-10.249 27.242-23.839l5.489-41.015c.165-1.232 1.227-2.162 2.471-2.162h5.662c1.244 0 2.306.93 2.471 2.162l3.325 24.841c.55 4.105 4.32 6.984 8.429 6.438 4.105-.55 6.988-4.323 6.438-8.429l-3.325-24.841c-1.157-8.649-8.611-15.172-17.338-15.172h-5.662c-8.727 0-16.181 6.522-17.338 15.172l-5.489 41.015c-.826 6.174-6.146 10.829-12.375 10.829h-72.85c-6.229 0-11.548-4.655-12.375-10.829l-5.489-41.015c-1.158-8.649-8.611-15.172-17.337-15.172h-5.663c-8.727 0-16.18 6.522-17.337 15.172l-5.489 41.015c-.826 6.174-6.146 10.829-12.375 10.829h-73.221c-6.196 0-11.384-4.443-12.337-10.566l-14.421-92.7h88.022c4.142 0 7.5-3.357 7.5-7.5s-3.358-7.5-7.5-7.5h-117.172v-35.468h482v35.468h-329.817c-4.142 0-7.5 3.357-7.5 7.5s3.358 7.5 7.5 7.5h301.907l-7.487 48.126c-4.333-1.33-8.812-2.036-13.387-2.036-16.401 0-31.642 8.771-42.915 24.696-3.908 5.52-7.167 11.692-9.741 18.326-1.212-.042-2.427-.071-3.649-.071-21.173 0-41.172 5.901-56.312 16.618-15.926 11.273-24.697 26.514-24.697 42.914s8.771 31.642 24.697 42.915c15.141 10.716 35.139 16.618 56.313 16.618 4.142 0 7.5-3.357 7.5-7.5s-3.358-7.5-7.5-7.5c-36.397 0-66.008-19.978-66.008-44.533 0-24.371 29.173-44.222 65.195-44.518-1.59 7.389-2.415 15.134-2.415 23.043 0 21.174 5.902 41.172 16.619 56.312 11.272 15.925 26.512 24.696 42.913 24.696 16.4 0 31.641-8.771 42.914-24.697 10.717-15.14 16.619-35.138 16.619-56.312 0-21.173-5.902-41.172-16.619-56.312-4.556-6.436-9.768-11.681-15.434-15.673l8.573-55.113h15.23c6.893 0 12.5-5.607 12.5-12.5v-40.468c.001-6.892-5.606-12.499-12.499-12.499zm-66.751-4.994c0 1.682-.054 3.345-.141 4.994h-88.784c-.087-1.649-.141-3.312-.141-4.994 0-36.397 19.977-66.009 44.533-66.009s44.533 29.611 44.533 66.009zm-110.331-117.992c19.269 0 35.702 18.244 41.891 43.683-7.061 4.176-13.508 10.227-19.007 17.996-10.717 15.14-16.619 35.138-16.619 56.312 0 1.673.045 3.337.119 4.994h-12.767c.074-1.657.119-3.321.119-4.994 0-21.174-5.902-41.172-16.619-56.312-5.5-7.77-11.948-13.822-19.011-17.998 6.188-25.438 22.625-43.681 41.894-43.681zm-21.265 117.992c0 1.682-.054 3.345-.141 4.994h-88.784c-.087-1.649-.141-3.312-.141-4.994 0-36.397 19.978-66.009 44.533-66.009s44.533 29.611 44.533 66.009zm-110.331-117.992c19.269 0 35.712 18.239 41.9 43.677-7.065 4.176-13.516 10.23-19.017 18.002-10.717 15.14-16.619 35.138-16.619 56.312 0 1.673.045 3.337.119 4.994h-12.767c.074-1.657.119-3.321.119-4.994 0-21.174-5.902-41.172-16.619-56.312-5.499-7.77-11.948-13.822-19.01-17.998 6.189-25.438 22.625-43.681 41.894-43.681zm-110.33 117.992c0-36.397 19.977-66.009 44.533-66.009s44.533 29.611 44.533 66.009c0 1.682-.054 3.345-.141 4.994h-88.784c-.087-1.65-.141-3.312-.141-4.994zm412.257 197.559c0 36.397-19.977 66.009-44.533 66.009s-44.533-29.611-44.533-66.009c0-36.396 19.978-66.008 44.533-66.008s44.533 29.612 44.533 66.008z"/><path d="m448.216 406.272c-17.607 0-31.932 15.129-31.932 33.726s14.325 33.726 31.932 33.726 31.931-15.129 31.931-33.726-14.324-33.726-31.931-33.726zm0 52.452c-9.336 0-16.932-8.4-16.932-18.726s7.596-18.726 16.932-18.726 16.931 8.4 16.931 18.726-7.595 18.726-16.931 18.726z"/></g></g></svg>