<svg id="Capa_1" enable-background="new 0 0 511.997 511.997" height="512" viewBox="0 0 511.997 511.997" width="512" xmlns="http://www.w3.org/2000/svg"><g><g><g><path d="m169.905 69.286h-4.355c-63.927 0-115.751 51.823-115.751 115.75v54.581c0 49.296 23.098 95.744 62.406 125.492l13.358 10.109c16.204 12.263 28.234 29.224 34.451 48.571l9.581 29.817c9.744 30.325 37.953 50.89 69.805 50.89 40.494 0 73.32-32.827 73.32-73.32v-219.075c0-78.874-63.941-142.815-142.815-142.815z" fill="#eceaec"/></g><g><g><path d="m296.62 380.429c5.18 3.135 10.564 5.867 16.1 8.208v-176.536c0-22.863-5.381-44.466-14.933-63.625l-36.875 49.523c-21.093 28.329-29.3 64.455-22.516 99.117 6.786 34.662 28.007 65.028 58.224 83.313z" fill="#dad8db"/></g></g><g><path d="m273.152 431.177c0 18.611-15.142 33.752-33.753 33.752-14.718 0-27.631-9.414-32.134-23.426l-9.582-29.819c-8.752-27.235-25.435-50.755-48.244-68.017l-13.354-10.108c-29.254-22.14-46.718-57.258-46.718-93.942v-54.581c0-42.007 34.175-76.182 76.183-76.182h4.355c56.931 0 103.247 46.316 103.247 103.247z" fill="#e5646e"/></g><g><g><g><path d="m190.671 453.607-9.581-29.817c-6.217-19.347-18.247-36.308-34.451-48.571l-13.358-10.109c-39.308-29.749-62.406-76.196-62.406-125.492v-54.581c0-61.257 47.586-111.392 107.808-115.474-2.905-.176-5.83-.277-8.779-.277h-4.355c-63.927 0-115.751 51.823-115.751 115.75v54.581c0 49.296 23.098 95.744 62.406 125.492l13.358 10.109c16.204 12.263 28.234 29.224 34.451 48.571l9.581 29.817c9.744 30.325 37.953 50.89 69.805 50.89 3.589 0 7.114-.27 10.565-.768-27.407-3.96-50.637-23.183-59.293-50.121z" fill="#dad8db"/></g></g></g><g><path d="m228.342 441.503-9.582-29.819c-8.752-27.235-25.435-50.755-48.244-68.017l-13.354-10.108c-29.254-22.14-46.718-57.258-46.718-93.942v-54.581c0-39.386 30.044-71.887 68.419-75.789-2.953-.255-5.94-.393-8.958-.393h-4.355c-42.008 0-76.183 34.175-76.183 76.182v54.581c0 36.684 17.464 71.802 46.718 93.942l13.354 10.108c22.81 17.261 39.492 40.781 48.244 68.017l9.582 29.819c4.503 14.012 17.415 23.426 32.134 23.426 3.667 0 7.197-.596 10.505-1.683-10.063-3.299-18.182-11.225-21.562-21.743z" fill="#db4655"/></g><g><circle cx="172.638" cy="192.515" fill="#eceaec" r="29.699"/></g><g><path d="m340.608 54.184c.325 0 .648-.009.969-.024.578-.028 1.056.449 1.056 1.028v75.288h38.001v-75.288c0-.579.478-1.056 1.056-1.028.321.015.644.024.969.024 13.771 0 24.757-11.925 23.195-26.012-1.178-10.618-9.666-19.206-20.271-20.496-8.35-1.016-15.943 2.39-20.791 8.179-1.652 1.972-4.664 1.972-6.316 0-4.848-5.79-12.441-9.195-20.791-8.179-10.605 1.29-19.094 9.877-20.272 20.496-1.563 14.086 9.423 26.012 23.195 26.012z" fill="#eceaec"/></g><g><path d="m358.32 54.16c-.321.015-.644.024-.969.024-13.771 0-24.757-11.925-23.195-26.013.967-8.714 6.861-16.052 14.804-19.119-3.439-1.324-7.268-1.864-11.276-1.376-10.605 1.29-19.094 9.877-20.272 20.495-1.563 14.087 9.423 26.013 23.195 26.013.325 0 .648-.009.969-.024.578-.028 1.056.449 1.056 1.028v75.288h16.743v-75.288c.001-.579-.477-1.056-1.055-1.028z" fill="#dad8db"/></g><g><path d="m238.397 297.116c4.855 24.805 17.107 47.407 34.755 64.959v-149.974c0-9-1.161-17.733-3.334-26.062l-8.905 11.959c-21.094 28.33-29.3 64.456-22.516 99.118z" fill="#db4655"/></g><g><g><g><path d="m413.703 359.041c50.775-30.726 64.042-98.509 28.599-146.111l-41.109-55.211c-4.12-5.533-6.345-12.247-6.345-19.146v-21.831c0-2.951-2.392-5.343-5.343-5.343h-55.743c-2.951 0-5.343 2.392-5.343 5.343v21.831c0 6.898-2.225 13.613-6.345 19.146l-41.109 55.211c-35.444 47.602-22.177 115.384 28.598 146.111 32.011 19.371 72.129 19.371 104.14 0z" fill="#ffc269"/></g></g></g><g><path d="m332.837 359.041c-50.775-30.726-64.042-98.509-28.599-146.111l41.109-55.211c4.12-5.533 6.345-12.247 6.345-19.146v-21.831c0-2.951 2.392-5.343 5.343-5.343h-23.274c-2.951 0-5.343 2.392-5.343 5.343v21.831c0 6.898-2.225 13.613-6.345 19.146l-41.109 55.211c-35.444 47.602-22.177 115.384 28.598 146.11 19.455 11.773 41.903 16.377 63.707 13.84-14.071-1.637-27.876-6.241-40.432-13.839z" fill="#ffa95f"/></g></g><g><path d="m260.023 179.737c1.404 3.897 5.701 5.92 9.599 4.514 3.897-1.403 5.917-5.701 4.514-9.598-15.796-43.842-57.684-73.298-104.23-73.298h-4.355c-46.143 0-83.683 37.539-83.683 83.682v54.581c0 39.02 18.577 76.374 49.692 99.923l13.354 10.107c21.574 16.326 37.352 38.571 45.63 64.331l9.582 29.819c5.503 17.125 21.286 28.631 39.274 28.631 22.747 0 41.253-18.506 41.253-41.252v-53.755c0-4.143-3.358-7.5-7.5-7.5s-7.5 3.357-7.5 7.5v53.755c0 14.476-11.777 26.252-26.253 26.252-11.447 0-21.491-7.322-24.993-18.221l-9.582-29.818c-9.226-28.712-26.813-53.506-50.858-71.703l-13.354-10.107c-27.391-20.729-43.744-53.613-43.744-87.962v-54.581c0-37.871 30.811-68.682 68.683-68.682h4.355c40.241 0 76.457 25.471 90.116 63.382z"/><path d="m135.439 192.516c0 20.511 16.688 37.198 37.199 37.198s37.199-16.688 37.199-37.198c0-20.512-16.688-37.199-37.199-37.199s-37.199 16.687-37.199 37.199zm59.398 0c0 12.24-9.958 22.198-22.199 22.198s-22.199-9.958-22.199-22.198 9.958-22.199 22.199-22.199 22.199 9.959 22.199 22.199z"/><path d="m312.72 393.057c-4.142 0-7.5 3.357-7.5 7.5v30.62c0 36.293-29.527 65.82-65.821 65.82-28.701 0-53.884-18.359-62.665-45.684l-9.581-29.817c-6.724-20.924-19.54-38.994-37.065-52.258l-13.358-10.109c-37.214-28.163-59.431-72.841-59.431-119.512v-54.581c0-59.689 48.561-108.25 108.25-108.25h4.355c48.235 0 93.185 25.988 117.309 67.822 2.069 3.586 6.656 4.819 10.244 2.75s4.82-6.655 2.75-10.244c-26.794-46.464-76.723-75.328-130.303-75.328h-4.355c-67.96 0-123.25 55.29-123.25 123.25v54.581c0 25.34 5.964 50.727 17.247 73.416s27.927 42.765 48.133 58.057l13.358 10.109c15.053 11.393 26.062 26.913 31.836 44.885l9.581 29.818c10.782 33.552 41.704 56.095 76.946 56.095 44.564 0 80.82-36.256 80.82-80.82v-30.62c0-4.143-3.358-7.5-7.5-7.5z"/><path d="m448.318 208.45-41.109-55.21c-3.134-4.21-4.86-9.419-4.86-14.667v-21.831c0-7.082-5.762-12.843-12.843-12.843h-1.371v-42.706c6.709-1.214 12.898-4.633 17.511-9.785 5.843-6.527 8.636-15.298 7.664-24.063-1.554-14.009-12.833-25.412-26.819-27.113-9.185-1.116-18.231 1.868-24.858 8.068-6.626-6.2-15.663-9.188-24.855-8.069-13.987 1.701-25.266 13.104-26.82 27.113-.973 8.766 1.821 17.536 7.664 24.063 4.613 5.152 10.801 8.571 17.511 9.785v42.708h-1.372c-7.082 0-12.843 5.761-12.843 12.843v21.831c0 5.248-1.726 10.457-4.861 14.666l-41.109 55.211c-18.154 24.381-25.216 55.473-19.377 85.304s24.103 55.966 50.109 71.703c17.256 10.442 36.604 15.663 55.953 15.663s38.697-5.221 55.953-15.663c26.006-15.737 44.27-41.872 50.109-71.703s-1.224-60.924-19.377-85.305zm-100.83-159.441c-1.675-1.598-3.958-2.453-6.275-2.341-.201.01-.402.016-.605.016-4.5 0-8.805-1.925-11.81-5.281-3.045-3.401-4.441-7.807-3.931-12.404.795-7.171 6.567-13.007 13.724-13.877 5.393-.655 10.675 1.418 14.134 5.548 2.216 2.646 5.462 4.165 8.908 4.165h.001c3.445 0 6.692-1.518 8.908-4.164 3.46-4.131 8.749-6.205 14.135-5.549 7.156.87 12.928 6.706 13.723 13.877.51 4.598-.886 9.003-3.931 12.404-3.005 3.356-7.309 5.281-11.81 5.281-.203 0-.404-.006-.615-.016-2.31-.112-4.591.744-6.265 2.341-1.681 1.604-2.645 3.855-2.645 6.179v48.712h-23v-48.712c-.001-2.323-.965-4.575-2.646-6.179zm105.486 241.864c-5.028 25.69-20.757 48.197-43.154 61.75-29.724 17.986-66.651 17.986-96.375 0-22.396-13.553-38.125-36.06-43.153-61.75-5.029-25.69 1.054-52.468 16.688-73.464l41.109-55.211c5.049-6.781 7.83-15.171 7.83-23.625v-19.673h51.429v19.674c0 8.453 2.78 16.844 7.829 23.625l41.109 55.211c15.635 20.996 21.717 47.773 16.688 73.463z"/></g></g></svg>