<svg id="Capa_1" enable-background="new 0 0 511.993 511.993" height="512" viewBox="0 0 511.993 511.993" width="512" xmlns="http://www.w3.org/2000/svg"><g><g><g><path d="m99.465 148.64-24.439 19.612c-20.216 16.223-27.729 43.593-18.628 67.863l42.721 113.922c2.336 6.23 9.991 8.484 15.33 4.513l45.496-33.83z" fill="#eceaec"/></g><g><path d="m118.559 350.037-42.721-113.922c-9.101-24.27-1.588-51.641 18.628-67.863l9.276-7.444-4.277-12.168-24.439 19.612c-20.216 16.223-27.729 43.593-18.628 67.863l42.721 113.922c2.336 6.23 9.991 8.484 15.33 4.513l4.597-3.418c-.181-.35-.344-.715-.487-1.095z" fill="#dad8db"/></g><g><g><path d="m183.674 13.551-43.438 44.396c-53.132 54.304-63.373 137.44-25.008 203.016l35.998 61.529c10.991 18.787 16.956 40.089 17.32 61.851l.356 21.316c.102 6.097-1.657 12.08-5.041 17.153l-46.048 69.007c-3.995 5.987 1.167 13.836 8.247 12.538l50.288-9.216c14.354-2.631 29.067-2.631 43.422 0l50.288 9.216c7.08 1.298 12.243-6.551 8.247-12.538l-46.047-69.007c-3.385-5.072-5.143-11.056-5.041-17.153l.356-21.316c.363-21.763 6.328-43.065 17.32-61.851l35.998-61.529c38.365-65.575 28.125-148.711-25.008-203.016l-43.438-44.396c-7.893-8.068-20.877-8.068-28.771 0z" fill="#80b4fb"/></g></g><g><path d="m212.445 13.551c-7.894-8.068-20.877-8.068-28.771 0l-43.438 44.396c-10.986 11.229-20.133 23.693-27.401 36.976l21.494 10.007c40.405 18.81 87.056 18.81 127.46 0l21.495-10.007c-7.268-13.284-16.415-25.748-27.401-36.976z" fill="#eceaec"/></g><g><g><g><g><path d="m148.214 491.82 46.048-69.007c3.385-5.072 5.143-11.056 5.041-17.153l-.356-21.316c-.363-21.763-6.328-43.065-17.32-61.851l-35.998-61.529c-38.365-65.575-28.125-148.711 25.008-203.016l42.623-43.563-.815-.833c-7.894-8.068-20.877-8.068-28.771 0l-43.438 44.396c-53.132 54.304-63.373 137.44-25.008 203.016l35.998 61.529c10.991 18.787 16.956 40.089 17.32 61.851l.356 21.316c.102 6.097-1.657 12.08-5.041 17.153l-46.048 69.007c-3.995 5.987 1.167 13.836 8.247 12.538l21.859-4.006c-1.42-2.495-1.585-5.715.295-8.532z" fill="#61a2f9"/></g></g></g><g><path d="m134.329 104.93c1.06.493 2.127.967 3.195 1.434 7.951-17.59 19.023-34.017 33.112-48.417l42.623-43.563-.815-.833c-7.894-8.068-20.877-8.068-28.771 0l-43.438 44.396c-10.986 11.229-20.133 23.693-27.401 36.976z" fill="#dad8db"/></g><g><path d="m250.171 495.142c-12.192-2.234-24.642-2.564-36.911-1.002 2.176.277 4.348.606 6.51 1.002l50.288 9.216c3.749.687 6.943-1.199 8.542-4.006z" fill="#b3dafe"/></g></g><g><path d="m283.484 367.398v-179.244c0-20.595 16.696-37.291 37.291-37.291h78.794c20.595 0 37.291 16.696 37.291 37.291v107.214h-27.617l-7.693-64.898c-1.271-10.723-10.363-18.801-21.161-18.801h-7.321c-11.769 0-21.309 9.54-21.309 21.309v97.128c0 20.595-16.696 37.291-37.291 37.291h-30.984z" fill="#eac89f"/></g><g><path d="m258.484 188.154v111.108l22.408-38.3c23.692-40.495 28.84-87.686 16.805-130.65-22.952 9.192-39.213 31.647-39.213 57.842z" fill="#61a2f9"/></g><g><path d="m283.484 367.398v-179.244c0-20.595 16.696-37.291 37.291-37.291h78.794c20.595 0 37.291 16.696 37.291 37.291v107.214h-27.617l-7.693-64.898c-1.271-10.723-10.363-18.801-21.161-18.801h-7.321c-11.769 0-21.309 9.54-21.309 21.309v97.128c0 20.595-16.696 37.291-37.291 37.291h-30.984z" fill="#fe646f"/></g><g><path d="m341.258 150.863h-20.483c-20.595 0-37.291 16.696-37.291 37.291v179.244h20.483v-179.244c0-20.595 16.696-37.291 37.291-37.291z" fill="#db4655"/></g><g><path d="m400.872 211.669h-7.321c-2.305 0-4.52.377-6.599 1.054 7.726 2.504 13.596 9.294 14.598 17.747l7.693 64.898h20.483l-7.693-64.898c-1.271-10.723-10.363-18.801-21.161-18.801z" fill="#db4655"/></g><g><g><path d="m320.775 150.863c-.305 0-.605.016-.908.023l33.37 74.335c3.104-7.928 10.803-13.552 19.831-13.552h7.321c10.798 0 19.89 8.077 21.161 18.801l.091.766 34.572-49.983c-3.238-17.297-18.407-30.391-36.643-30.391h-78.795z" fill="#f4dbb3"/></g></g><g><path d="m393.551 211.669c-2.305 0-4.52.377-6.599 1.054 7.726 2.505 13.595 9.294 14.598 17.747l.091.766 11.045-15.969c-3.398-2.269-7.461-3.598-11.813-3.598z" fill="#eac89f"/></g><g><path d="m319.867 150.886 2.34 5.212c5.577-3.322 12.09-5.235 19.052-5.235z" fill="#eac89f"/></g><g><g><path d="m283.484 232.979h68.275v64.854h-68.275z" fill="#f4dbb3"/></g></g><g><path d="m283.484 232.979h20.483v64.854h-20.483z" fill="#eac89f"/></g><g><g><g><path d="m459.44 354.324v-29.972c0-6.27-2.761-12.222-7.549-16.27l-15.031-12.713h-27.617l-15.031 12.713c-4.787 4.049-7.549 10.001-7.549 16.27v29.972c0 4.586 5.409 7.029 8.85 3.997l26.339-23.215 28.738 23.215c3.44 3.032 8.85.589 8.85-3.997z" fill="#f4dbb3"/></g></g><g><path d="m403.223 324.352c0-6.27 2.761-12.222 7.548-16.27l15.031-12.713h-16.56l-15.031 12.713c-4.787 4.049-7.549 10.001-7.549 16.27v29.972c0 4.586 5.409 7.029 8.85 3.997l7.71-6.796v-27.173z" fill="#eac89f"/></g></g></g><g><path d="m238.497 418.649c-2.55-3.821-3.858-8.27-3.781-12.864l.356-21.316c.341-20.431 5.976-40.553 16.294-58.189l2.549-4.356c2.092-3.575.889-8.169-2.686-10.261-3.576-2.091-8.168-.89-10.261 2.687l-2.549 4.356c-11.617 19.856-17.96 42.511-18.345 65.514l-.356 21.316c-.127 7.657 2.052 15.071 6.302 21.44l46.048 69.007c.101.15.238.357.002.717-.236.357-.479.313-.659.281l-38.435-7.044-13.422-45c-1.184-3.97-5.361-6.228-9.331-5.044-3.969 1.185-6.228 5.362-5.043 9.331l11.269 37.78c-12.223-1.779-24.553-1.78-36.776 0l11.268-37.78c1.184-3.97-1.074-8.146-5.043-9.331-3.969-1.18-8.147 1.075-9.331 5.044l-13.422 45-38.436 7.044c-.179.031-.422.077-.659-.281-.236-.359-.098-.566.002-.717l46.047-69.007c4.25-6.369 6.43-13.783 6.302-21.44l-.356-21.316c-.385-23.003-6.728-45.657-18.345-65.514l-35.999-61.529c-27.758-47.445-28.762-104.859-5.473-152.4l14.936 6.953c21.256 9.896 44.076 14.845 66.896 14.845 22.819 0 45.639-4.948 66.895-14.845l14.994-6.98c2.633 5.367 4.981 10.898 7.025 16.591 1.4 3.898 5.696 5.924 9.594 4.523 3.898-1.4 5.924-5.695 4.523-9.594-8.6-23.947-22.007-45.334-39.847-63.567l-43.438-44.397c-5.241-5.356-12.253-8.306-19.746-8.306s-14.506 2.95-19.746 8.306l-43.438 44.396c-26.044 26.618-42.638 59.922-48.199 96.584l-16.344 13.116c-22.798 18.295-31.22 48.976-20.957 76.347l6.176 16.47c1.455 3.878 5.779 5.843 9.656 4.389 3.878-1.454 5.844-5.777 4.389-9.656l-6.176-16.47c-7.983-21.288-1.433-45.151 16.3-59.38l5.021-4.029c-1.151 33.204 7.031 65.651 24.014 94.678l34.527 59.014-33.308 24.767c-.872.649-1.75.525-2.198.393-.447-.132-1.253-.504-1.635-1.521l-24.499-65.33c-1.454-3.878-5.778-5.844-9.656-4.389-3.878 1.454-5.844 5.777-4.389 9.656l24.499 65.33c1.949 5.196 6.12 9.075 11.444 10.643 1.65.485 3.327.725 4.989.725 3.699 0 7.322-1.185 10.395-3.47l31.457-23.391c6.728 14.827 10.393 30.958 10.666 47.292l.356 21.316c.077 4.595-1.231 9.043-3.781 12.864l-46.048 69.007c-3.496 5.239-3.518 12.024-.057 17.286 2.932 4.456 7.855 7.051 13.057 7.051.94 0 1.89-.085 2.837-.259l42.8-7.844c.004-.001.008-.002.012-.002l7.476-1.37c13.509-2.475 27.209-2.475 40.718 0l7.477 1.37c.004.001.008.002.012.002l42.799 7.844c6.194 1.136 12.435-1.53 15.895-6.792 3.462-5.262 3.439-12.047-.057-17.286zm-92.9-355.457 43.438-44.396c2.395-2.447 5.6-3.796 9.024-3.796s6.629 1.349 9.024 3.796l43.438 44.396c8.515 8.702 15.914 18.196 22.172 28.39l-14.069 6.55c-38.492 17.918-82.641 17.918-121.13 0l-14.029-6.532c6.196-10.123 13.579-19.666 22.132-28.408z"/><path d="m177.513 90.26c4.142 0 7.5-3.357 7.5-7.5v-5.28c0-4.143-3.358-7.5-7.5-7.5s-7.5 3.357-7.5 7.5v5.279c0 4.143 3.358 7.501 7.5 7.501z"/><path d="m198.06 188.25c12.153 0 22.041-9.887 22.041-22.04 0-4.143-3.358-7.5-7.5-7.5s-7.5 3.357-7.5 7.5c0 3.882-3.159 7.04-7.041 7.04s-7.041-3.158-7.041-7.04c0-4.143-3.358-7.5-7.5-7.5s-7.5 3.357-7.5 7.5c0 12.153 9.887 22.04 22.041 22.04z"/><path d="m157.858 151.669c0-4.143-3.358-7.5-7.5-7.5s-7.5 3.357-7.5 7.5c0 3.883-3.159 7.041-7.041 7.041s-7.041-3.158-7.041-7.041c0-4.143-3.358-7.5-7.5-7.5s-7.5 3.357-7.5 7.5c0 12.153 9.888 22.041 22.041 22.041s22.041-9.888 22.041-22.041z"/><path d="m251.222 216.01c0-4.143-3.358-7.5-7.5-7.5s-7.5 3.357-7.5 7.5c0 3.883-3.159 7.041-7.041 7.041s-7.041-3.158-7.041-7.041c0-4.143-3.358-7.5-7.5-7.5s-7.5 3.357-7.5 7.5c0 12.153 9.888 22.041 22.041 22.041s22.041-9.888 22.041-22.041z"/><path d="m166.938 238.051c12.153 0 22.041-9.888 22.041-22.041 0-4.143-3.358-7.5-7.5-7.5s-7.5 3.357-7.5 7.5c0 3.883-3.159 7.041-7.041 7.041s-7.041-3.158-7.041-7.041c0-4.143-3.358-7.5-7.5-7.5s-7.5 3.357-7.5 7.5c.001 12.153 9.888 22.041 22.041 22.041z"/><path d="m198.06 292.172c12.153 0 22.041-9.888 22.041-22.041 0-4.143-3.358-7.5-7.5-7.5s-7.5 3.357-7.5 7.5c0 3.883-3.159 7.041-7.041 7.041s-7.041-3.158-7.041-7.041c0-4.143-3.358-7.5-7.5-7.5s-7.5 3.357-7.5 7.5c0 12.153 9.887 22.041 22.041 22.041z"/><path d="m456.734 302.354-12.375-10.466v-31.997c0-4.143-3.357-7.5-7.5-7.5s-7.5 3.357-7.5 7.5v27.977h-13.453l-6.484-54.699 19.937-28.825v20.876c0 4.143 3.357 7.5 7.5 7.5s7.5-3.357 7.5-7.5v-37.066c0-2.782-.268-5.501-.755-8.144-.011-.064-.022-.128-.034-.191-3.918-20.727-22.152-36.457-44.001-36.457h-78.794c-24.698 0-44.791 20.094-44.791 44.792v179.243 40.083c0 2.575-2.096 4.671-4.671 4.671-2.576 0-4.672-2.096-4.672-4.671v-17.28c0-4.143-3.357-7.5-7.5-7.5-4.142 0-7.5 3.357-7.5 7.5v17.28c0 10.847 8.825 19.671 19.672 19.671s19.671-8.824 19.671-19.671v-32.583h12.07v30.423c0 4.143 3.357 7.5 7.5 7.5s7.5-3.357 7.5-7.5v-30.579c23.026-1.835 41.205-21.145 41.205-44.635v-97.128c0-7.614 6.194-13.81 13.809-13.81h7.321c6.994 0 12.89 5.238 13.713 12.184l7.219 60.894-11.951 10.108c-6.486 5.484-10.206 13.502-10.206 21.997v29.973c0 5.108 2.892 9.588 7.548 11.69 4.653 2.1 9.928 1.31 13.761-2.068l21.591-19.029 23.714 19.156c2.387 2.044 5.312 3.102 8.291 3.102 1.79 0 3.6-.382 5.324-1.16 4.656-2.103 7.548-6.582 7.548-11.69v-29.973c-.001-8.496-3.721-16.513-10.207-21.998zm-141.497-143.468 29.894 66.592h-54.148v-37.324c.001-14.535 10.466-26.664 24.254-29.268zm-24.253 81.593h53.275v49.854h-53.275zm23.483 119.418h-23.483v-54.564h53.275v24.773c0 16.427-13.364 29.791-29.792 29.791zm65.922-155.728h-7.321c-6.879 0-13.2 2.427-18.159 6.465l-23.465-52.271h68.125c13.504 0 24.931 9.035 28.573 21.375l-24.795 35.849c-5.292-6.974-13.657-11.418-22.958-11.418zm71.551 145.601-25.375-20.498c-1.377-1.113-3.046-1.666-4.712-1.666-1.774 0-3.546.627-4.96 1.873l-22.729 20.034v-25.161c0-4.072 1.783-7.915 4.892-10.544l12.935-10.939h22.124l12.935 10.939c3.108 2.629 4.892 6.472 4.892 10.544v25.418z"/><path d="m310.554 323.657c-4.143 0-7.5 3.357-7.5 7.5v4.68c0 4.143 3.357 7.5 7.5 7.5s7.5-3.357 7.5-7.5v-4.68c0-4.142-3.358-7.5-7.5-7.5z"/></g></g></svg>