<svg id="Capa_1" enable-background="new 0 0 512.018 512.018" height="512" viewBox="0 0 512.018 512.018" width="512" xmlns="http://www.w3.org/2000/svg"><g><g><g><path d="m376.425 500.039c12.238-8.858 13.049-26.799 1.661-36.726l-4.533-3.951c-1.891-1.648-2.38-4.391-1.175-6.591l5.899-10.77c10.595-19.346 16.149-41.048 16.149-63.105v-93.861c0-22.057-5.554-43.759-16.149-63.105l-22.301-40.72h-286.202l-22.301 40.72c-10.595 19.346-16.149 41.048-16.149 63.105v93.861c0 22.057 5.554 43.759 16.149 63.105l5.899 10.77c1.205 2.2.716 4.942-1.175 6.591l-4.533 3.951c-11.388 9.927-10.576 27.868 1.661 36.726 9.719 7.035 23.179 5.612 31.212-3.3l6.274-6.96c4.051-4.494 9.817-7.059 15.866-7.059h220.395c6.05 0 11.816 2.565 15.866 7.059l6.274 6.96c8.034 8.912 21.493 10.335 31.213 3.3z" fill="#f4dbb3"/></g><g><path d="m223.183 275.406v207.315h99.89c6.05 0 11.816 2.565 15.866 7.059l6.274 6.959c8.033 8.912 21.493 10.335 31.212 3.3 12.238-8.858 13.049-26.799 1.661-36.725l-4.533-3.951c-1.891-1.648-2.38-4.391-1.175-6.591l5.899-10.77c10.595-19.346 16.149-41.048 16.149-63.105v-93.861c0-15.268-2.665-30.365-7.817-44.629h-128.426c-19.299-.001-35 15.7-35 34.999z" fill="#eac89f"/></g><g><path d="m168.166 27.486-110.348 123.296h310.114l-110.348-123.296c-23.85-26.648-65.568-26.648-89.418 0z" fill="#fee8c7"/></g><g><path d="m227.275 9.258c-20.727-5.095-43.664.971-59.109 18.229l-110.348 123.295h28.8l110.348-123.296c8.404-9.39 19.031-15.456 30.309-18.228z" fill="#fedba6"/></g><g><path d="m75.348 463.313 4.533-3.951c1.891-1.648 2.38-4.391 1.175-6.591l-5.899-10.77c-10.595-19.346-16.149-41.048-16.149-63.105v-93.861c0-22.057 5.554-43.759 16.149-63.105l22.301-40.72h-27.684l-22.301 40.72c-10.595 19.346-16.149 41.048-16.149 63.105v93.861c0 22.057 5.554 43.759 16.149 63.105l5.898 10.77c1.205 2.2.716 4.943-1.175 6.591l-4.533 3.951c-11.388 9.927-10.576 27.868 1.661 36.725 8.382 6.067 19.537 5.829 27.603-.062-12.157-8.878-12.941-26.759-1.579-36.663z" fill="#eac89f"/></g><g><g><g><path d="m382.971 207.593h-340.193c-11.046 0-20-8.954-20-20v-23.634c0-11.046 8.954-20 20-20h340.193c11.046 0 20 8.954 20 20v23.634c0 11.046-8.954 20-20 20z" fill="#d2af8c"/></g></g></g><g><path d="m50.463 186.232v-20.912c0-11.798 9.564-21.361 21.361-21.361h-27.684c-11.798 0-21.361 9.564-21.361 21.361v20.911c0 11.798 9.564 21.361 21.361 21.361h27.684c-11.798.001-21.361-9.563-21.361-21.36z" fill="#c69b75"/></g><g><path d="m314.278 265.406h-56.096c-5.523 0-10 4.477-10 10v219.094c0 5.523 4.477 10 10 10h56.096z" fill="#dad8db"/></g><g><path d="m479.238 504.5h-203.616v-239.094h203.616c5.523 0 10 4.477 10 10v219.094c0 5.523-4.477 10-10 10z" fill="#eceaec"/></g><g><path d="m374.798 367.725 9.544-11.532c8.417-10.17 8.726-24.795.747-35.311l-10.211-13.458c-1.23-1.621-3.667-1.621-4.897 0l-10.211 13.458c-7.979 10.517-7.669 25.142.747 35.311l9.544 11.532c1.231 1.485 3.508 1.485 4.737 0z" fill="#ffc269"/></g><g><path d="m372.416 424.701-1.406-14.903c-1.239-13.142-11.362-23.703-24.44-25.497l-16.736-2.296c-2.016-.277-3.739 1.447-3.463 3.463l2.296 16.736c1.794 13.078 12.355 23.201 25.497 24.44l14.903 1.406c1.92.181 3.53-1.43 3.349-3.349z" fill="#ffc269"/></g><g><path d="m372.444 424.701 1.405-14.903c1.239-13.142 11.362-23.703 24.44-25.497l16.736-2.296c2.016-.277 3.739 1.447 3.463 3.463l-2.296 16.736c-1.794 13.078-12.355 23.201-25.497 24.44l-14.903 1.406c-1.918.181-3.529-1.43-3.348-3.349z" fill="#ffc269"/></g></g><g><path d="m208.918 475.221h-106.241c-8.159 0-15.973 3.476-21.438 9.537l-6.272 6.96c-5.479 6.078-14.612 7.047-21.245 2.246-3.97-2.874-6.374-7.33-6.595-12.226-.222-4.896 1.771-9.551 5.464-12.771l4.534-3.952c4.51-3.933 5.698-10.596 2.824-15.847l-5.899-10.771c-9.961-18.189-15.227-38.765-15.227-59.503v-93.86c0-20.738 5.266-41.314 15.228-59.503l5.717-10.439h69.771c4.143 0 7.5-3.357 7.5-7.5s-3.357-7.5-7.5-7.5h-86.76c-6.893 0-12.5-5.607-12.5-12.5v-23.634c0-6.893 5.607-12.5 12.5-12.5h340.192c6.893 0 12.5 5.607 12.5 12.5v23.634c0 6.893-5.607 12.5-12.5 12.5h-212.353c-4.143 0-7.5 3.357-7.5 7.5s3.357 7.5 7.5 7.5h195.364l5.718 10.44c1.449 2.646 2.818 5.379 4.069 8.126 1.719 3.769 6.166 5.431 9.935 3.715 3.77-1.718 5.433-6.166 3.716-9.936-1.404-3.08-2.939-6.146-4.564-9.111l-1.773-3.237c15.112-.06 27.389-12.371 27.389-27.497v-23.634c0-15.163-12.337-27.5-27.5-27.5h-17.792l-64.375-71.928c-2.762-3.085-7.503-3.349-10.591-.587-3.086 2.763-3.349 7.504-.587 10.591l55.422 61.924h-264.348l93.053-103.971c9.948-11.113 24.206-17.487 39.121-17.487 14.914 0 29.173 6.374 39.119 17.488l12.769 14.267c2.762 3.086 7.503 3.349 10.591.587 3.086-2.763 3.349-7.504.587-10.591l-12.769-14.267c-12.788-14.289-31.121-22.484-50.297-22.484-.001 0 0 0-.001 0-19.175 0-37.509 8.196-50.298 22.484l-102.005 113.975h-17.792c-15.163 0-27.5 12.337-27.5 27.5v23.634c0 15.126 12.277 27.437 27.389 27.497l-1.773 3.237c-11.168 20.391-17.071 43.458-17.071 66.708v93.86c0 23.249 5.902 46.316 17.07 66.708l5.064 9.247-3.224 2.81c-7.16 6.242-11.021 15.266-10.593 24.755.43 9.491 5.089 18.129 12.785 23.699 5.482 3.969 11.846 5.904 18.168 5.903 8.498-.001 16.921-3.499 23.014-10.257l6.272-6.96c2.624-2.91 6.377-4.58 10.296-4.58h106.241c4.143 0 7.5-3.357 7.5-7.5s-3.356-7.499-7.499-7.499z"/><path d="m489.239 319.5c4.143 0 7.5-3.357 7.5-7.5v-36.594c0-9.649-7.851-17.5-17.5-17.5h-221.057c-9.649 0-17.5 7.851-17.5 17.5v219.094c0 9.649 7.851 17.5 17.5 17.5h221.057c9.649 0 17.5-7.851 17.5-17.5v-146.86c0-4.143-3.357-7.5-7.5-7.5s-7.5 3.357-7.5 7.5v146.86c0 1.379-1.121 2.5-2.5 2.5h-221.057c-1.379 0-2.5-1.121-2.5-2.5v-219.094c0-1.379 1.121-2.5 2.5-2.5h221.057c1.379 0 2.5 1.121 2.5 2.5v36.594c0 4.143 3.357 7.5 7.5 7.5z"/><path d="m220.375 51c0-4.143-3.357-7.5-7.5-7.5h-5.915c-4.143 0-7.5 3.357-7.5 7.5s3.357 7.5 7.5 7.5h5.915c4.142 0 7.5-3.357 7.5-7.5z"/><path d="m267.815 117.24c0 4.143 3.357 7.5 7.5 7.5h5.915c4.143 0 7.5-3.357 7.5-7.5s-3.357-7.5-7.5-7.5h-5.915c-4.143 0-7.5 3.358-7.5 7.5z"/><path d="m233.236 71.647c-4.143 0-7.5 3.357-7.5 7.5s3.357 7.5 7.5 7.5h5.916c4.143 0 7.5-3.357 7.5-7.5s-3.357-7.5-7.5-7.5z"/><path d="m204.001 103.26c-4.143 0-7.5 3.357-7.5 7.5s3.357 7.5 7.5 7.5h5.915c4.143 0 7.5-3.357 7.5-7.5s-3.357-7.5-7.5-7.5z"/><path d="m148.373 100.38c-4.143 0-7.5 3.357-7.5 7.5s3.357 7.5 7.5 7.5h5.916c4.143 0 7.5-3.357 7.5-7.5s-3.357-7.5-7.5-7.5z"/><path d="m372.43 474.01c4.143 0 7.5-3.357 7.5-7.5v-31.317l11.471-1.082c16.693-1.575 29.944-14.277 32.223-30.888l2.297-16.737c.453-3.307-.641-6.557-3.001-8.916-2.361-2.358-5.609-3.447-8.912-2.996l-16.736 2.296c-6.533.897-12.456 3.496-17.341 7.328v-10.992c.222-.224.441-.451.645-.696 0-.001.001-.002.002-.002l9.543-11.532c10.691-12.918 11.08-31.27.944-44.627l-10.211-13.459c-2.017-2.658-5.087-4.182-8.423-4.182 0 0-.001 0-.002 0-3.336.001-6.406 1.525-8.421 4.183l-10.211 13.458c-10.135 13.358-9.746 31.709.944 44.627l9.544 11.532c.204.246.423.473.646.698v10.992c-4.884-3.832-10.807-6.431-17.34-7.327l-16.734-2.295c-3.303-.46-6.555.637-8.914 2.996-2.36 2.358-3.454 5.608-3.001 8.916l2.296 16.736c2.28 16.611 15.53 29.313 32.224 30.888l11.47 1.081v31.317c-.002 4.142 3.356 7.5 7.498 7.5zm8.887-63.508c.917-9.724 8.316-17.442 17.993-18.771l10.956-1.503-1.504 10.956c-1.327 9.677-9.046 17.075-18.771 17.993l-9.578.903zm-15.571-85.087 6.685-8.811 6.685 8.811c5.904 7.781 5.678 18.472-.551 25.996l-6.134 7.412-6.134-7.412c-6.228-7.524-6.455-18.215-.551-25.996zm-10.876 93.763c-9.725-.918-17.443-8.317-18.771-17.993l-1.503-10.956 10.956 1.503c9.677 1.328 17.076 9.047 17.993 18.771l.903 9.579z"/></g></g></svg>