<svg id="Capa_1" enable-background="new 0 0 512 512" height="512" viewBox="0 0 512 512" width="512" xmlns="http://www.w3.org/2000/svg"><g><g><g><path d="m368.613 494.5v-47.014h-359.198v47.014c0 5.523 4.477 10 10 10h339.198c5.523 0 10-4.477 10-10z" fill="#eceaec"/></g><g><path d="m358.13 81.671 10.483-17.157h-359.198l10.483 17.157c4.796 7.85 7.334 16.87 7.334 26.069v296.52c0 9.199-2.538 18.219-7.334 26.069l-10.483 17.157h359.198l-10.483-17.157c-4.796-7.85-7.334-16.87-7.334-26.069v-296.52c.001-9.199 2.538-18.22 7.334-26.069z" fill="#e5646e"/></g><g><path d="m368.613 494.5v-47.014h-81.598l.477 57.014h71.121c5.523 0 10-4.477 10-10z" fill="#dad8db"/></g><g><path d="m358.13 430.329c-4.796-7.85-7.333-16.87-7.333-26.069v-188.439h-33.476c-16.691 0-30.272 13.564-30.303 30.248h-.002v201.417h81.598z" fill="#db4655"/></g><g><path d="m43.015 494.5v-47.014h-33.6v47.014c0 5.523 4.477 10 10 10h33.6c-5.523 0-10-4.477-10-10z" fill="#dad8db"/></g><g><path d="m9.415 17.5v47.014h359.198v-47.014c0-5.523-4.477-10-10-10h-339.198c-5.523 0-10 4.477-10 10z" fill="#eceaec"/></g><g><path d="m53.015 7.5h-33.6c-5.523 0-10 4.477-10 10v47.014h33.6v-47.014c0-5.523 4.477-10 10-10z" fill="#dad8db"/></g><g><path d="m61.792 404.26v-296.52c0-9.199-2.538-18.219-7.334-26.069l-10.483-17.157h-34.56l10.483 17.157c4.796 7.849 7.334 16.87 7.334 26.069v296.52c0 9.199-2.538 18.219-7.333 26.069l-10.484 17.157h34.56l10.483-17.157c4.796-7.85 7.334-16.87 7.334-26.069z" fill="#db4655"/></g><g><g><path d="m312.015 246.126v24.943h190.569v-24.943c0-2.93-2.375-5.305-5.305-5.305h-179.958c-2.93 0-5.306 2.375-5.306 5.305z" fill="#ffc269"/></g></g><g><path d="m312.015 271.069h190.569v203.183h-190.569z" fill="#b3e59f"/></g><g><path d="m312.015 271.069h25.56v203.183h-25.56z" fill="#95d6a4"/></g><g><path d="m342.881 240.821h-25.56c-2.93 0-5.305 2.375-5.305 5.305v24.943h25.56v-24.943c0-2.93 2.375-5.305 5.305-5.305z" fill="#ffa95f"/></g><g><g><path d="m502.585 499.195v-24.943h-190.57v24.943c0 2.93 2.375 5.305 5.305 5.305h179.958c2.931 0 5.307-2.375 5.307-5.305z" fill="#ffc269"/></g></g><g><g><path d="m337.576 499.195v-24.943h-25.56v24.943c0 2.93 2.375 5.305 5.305 5.305h25.56c-2.93 0-5.305-2.375-5.305-5.305z" fill="#ffa95f"/></g></g><g><path d="m407.3 390.314c-17.637 0-31.935-14.298-31.935-31.935 0-17.637 14.298-31.935 31.935-31.935 17.637 0 31.935 14.298 31.935 31.935 0 17.637-14.298 31.935-31.935 31.935z" fill="#eceaec"/></g><g><g><path d="m388.865 358.378c0-15.321 10.791-28.116 25.185-31.214-2.177-.469-4.433-.721-6.75-.721-17.637 0-31.935 14.298-31.935 31.935 0 17.637 14.298 31.935 31.935 31.935 2.317 0 4.573-.253 6.75-.721-14.394-3.098-25.185-15.893-25.185-31.214z" fill="#eceaec"/></g></g><g><circle cx="189.014" cy="236.976" fill="#ffc269" r="74.79"/></g><g><path d="m134.384 236.976c0-37.885 28.175-69.17 64.71-74.095-3.299-.445-6.659-.695-10.08-.695-41.306 0-74.79 33.485-74.79 74.79s33.485 74.79 74.79 74.79c3.421 0 6.781-.251 10.08-.695-36.535-4.926-64.71-36.211-64.71-74.095z" fill="#ffa95f"/></g></g><g><path d="m1.93 64.819c.01.233.028.463.058.69.012.084.025.167.039.251.041.246.094.489.159.726.014.05.024.1.039.15.088.299.193.591.317.874.012.028.027.055.04.083.115.254.244.499.385.737.018.031.031.064.049.095l10.482 17.157c4.078 6.674 6.233 14.336 6.233 22.158v43.123c0 4.143 3.357 7.5 7.5 7.5s7.5-3.357 7.5-7.5v-43.123c0-10.582-2.916-20.949-8.434-29.979l-3.511-5.747h332.454l-3.512 5.747c-5.517 9.029-8.433 19.396-8.433 29.979v98.06c0 4.143 3.357 7.5 7.5 7.5s7.5-3.357 7.5-7.5v-98.061c0-7.822 2.155-15.484 6.232-22.158l10.483-17.157c.019-.031.031-.064.049-.095.141-.238.271-.484.386-.738.012-.027.027-.054.039-.082.123-.283.229-.574.317-.874.015-.05.025-.1.039-.15.065-.238.118-.48.159-.726.014-.083.027-.167.038-.25.03-.227.049-.457.058-.69.003-.074.01-.148.011-.223 0-.028.004-.055.004-.083v-47.013c0-9.649-7.851-17.5-17.5-17.5h-339.195c-9.649 0-17.5 7.851-17.5 17.5v47.014c0 .028.004.055.004.083.001.074.008.148.011.222zm14.985-47.319c0-1.379 1.121-2.5 2.5-2.5h46.399v15.84c0 4.143 3.357 7.5 7.5 7.5s7.5-3.357 7.5-7.5v-15.84h31.28v15.84c0 4.143 3.357 7.5 7.5 7.5s7.5-3.357 7.5-7.5v-15.84h31.279v15.84c0 4.143 3.357 7.5 7.5 7.5s7.5-3.357 7.5-7.5v-15.84h31.28v15.84c0 4.143 3.357 7.5 7.5 7.5s7.5-3.357 7.5-7.5v-15.84h31.279v15.84c0 4.143 3.357 7.5 7.5 7.5s7.5-3.357 7.5-7.5v-15.84h31.28v15.84c0 4.143 3.357 7.5 7.5 7.5s7.5-3.357 7.5-7.5v-15.84h46.399c1.379 0 2.5 1.121 2.5 2.5v39.514h-344.196z"/><path d="m497.279 233.321h-179.958c-7.062 0-12.806 5.744-12.806 12.805v24.943 168.917h-281.728l3.512-5.747c5.517-9.029 8.433-19.396 8.433-29.979v-219.34c0-4.143-3.357-7.5-7.5-7.5s-7.5 3.357-7.5 7.5v219.341c0 7.822-2.155 15.484-6.232 22.158l-10.484 17.157c-.019.031-.031.064-.049.095-.141.238-.271.483-.385.737-.012.028-.027.054-.04.082-.123.282-.229.574-.317.874-.015.05-.025.1-.039.15-.065.238-.118.48-.159.726-.014.083-.027.167-.038.25-.03.227-.049.457-.058.69-.003.074-.01.148-.011.223 0 .028-.004.055-.004.083v47.014c0 9.649 7.851 17.5 17.5 17.5h259.98c4.143 0 7.5-3.357 7.5-7.5s-3.357-7.5-7.5-7.5h-13.462v-15.84c0-4.143-3.357-7.5-7.5-7.5s-7.5 3.357-7.5 7.5v15.84h-31.279v-15.84c0-4.143-3.357-7.5-7.5-7.5s-7.5 3.357-7.5 7.5v15.84h-31.28v-15.84c0-4.143-3.357-7.5-7.5-7.5s-7.5 3.357-7.5 7.5v15.84h-31.279v-15.84c0-4.143-3.357-7.5-7.5-7.5s-7.5 3.357-7.5 7.5v15.84h-31.28v-15.84c0-4.143-3.357-7.5-7.5-7.5s-7.5 3.357-7.5 7.5v15.84h-46.401c-1.379 0-2.5-1.121-2.5-2.5v-39.514h287.601v44.208c0 7.062 5.744 12.806 12.806 12.806h179.958c7.062 0 12.806-5.744 12.806-12.806v-149.394c0-4.143-3.357-7.5-7.5-7.5s-7.5 3.357-7.5 7.5v116.952h-175.57v-188.183h175.569v27.639c0 4.143 3.357 7.5 7.5 7.5s7.5-3.357 7.5-7.5v-35.139-24.943c0-7.061-5.744-12.805-12.806-12.805zm-2.194 248.431v15.248h-175.569v-15.248zm-175.569-218.183v-15.248h175.569v15.248z"/><path d="m407.3 318.943c-21.744 0-39.435 17.69-39.435 39.436 0 21.744 17.69 39.435 39.435 39.435s39.436-17.69 39.436-39.436c-.001-21.744-17.691-39.435-39.436-39.435zm0 63.87c-13.474 0-24.435-10.962-24.435-24.436s10.961-24.435 24.435-24.435 24.436 10.962 24.436 24.436-10.963 24.435-24.436 24.435z"/><path d="m375.365 411.378c-4.143 0-7.5 3.357-7.5 7.5s3.357 7.5 7.5 7.5h63.87c4.143 0 7.5-3.357 7.5-7.5s-3.357-7.5-7.5-7.5z"/><path d="m189.015 154.686c-45.375 0-82.291 36.915-82.291 82.29s36.916 82.29 82.291 82.29 82.29-36.915 82.29-82.29-36.915-82.29-82.29-82.29zm0 149.58c-37.104 0-67.291-30.187-67.291-67.29s30.187-67.29 67.291-67.29 67.29 30.187 67.29 67.29-30.187 67.29-67.29 67.29z"/><path d="m114.224 342.314c-4.143 0-7.5 3.357-7.5 7.5s3.357 7.5 7.5 7.5h149.581c4.143 0 7.5-3.357 7.5-7.5s-3.357-7.5-7.5-7.5z"/></g></g></svg>