<svg id="Capa_1" enable-background="new 0 0 512 512" height="512" viewBox="0 0 512 512" width="512" xmlns="http://www.w3.org/2000/svg"><g><g><g><path d="m217.585 93.794v-42.954h-83.083v42.954c0 5.116-3 9.756-7.665 11.855l-26.729 12.028c-13.636 6.136-22.406 19.7-22.406 34.653v134.812c0 11.129 2.064 22.161 6.087 32.537l.857 2.21c4.354 11.228 6.41 23.216 6.046 35.254l-3.765 124.693c-.375 12.405 9.58 22.664 21.99 22.664h40.96c4.633 0 9.147-1.462 12.9-4.179l.366-.265c7.697-5.572 18.102-5.572 25.799 0l.366.265c3.753 2.716 8.267 4.179 12.9 4.179h63.635l-4.449-147.357c-.363-12.037 1.693-24.025 6.046-35.254l.857-2.21c4.023-10.376 6.087-21.409 6.087-32.537v-134.812c0-14.953-8.77-28.517-22.406-34.653l-26.729-12.028c-4.664-2.099-7.664-6.739-7.664-11.855z" fill="#e5646e"/></g><g><path d="m261.394 357.143c-.363-12.037 1.693-24.025 6.047-35.254l.857-2.21c4.023-10.376 6.087-21.408 6.087-32.537v-13.762h-70.862v193.541c0 8.211 2.247 16.265 6.498 23.294l8.643 14.285h47.18z" fill="#db4655"/></g><g><path d="m114.287 481.836 3.765-124.693c.363-12.037-1.693-24.025-6.046-35.254l-.857-2.21c-4.023-10.376-6.088-21.408-6.088-32.537v-134.812c0-14.953 8.77-28.517 22.406-34.653l26.729-12.028c4.665-2.099 7.665-6.739 7.665-11.855v-42.954h-27.36v42.954c0 5.116-3 9.756-7.665 11.855l-26.729 12.028c-13.636 6.136-22.406 19.7-22.406 34.653v134.812c0 11.129 2.064 22.161 6.087 32.537l.857 2.21c4.354 11.228 6.41 23.216 6.046 35.254l-3.765 124.693c-.375 12.405 9.58 22.664 21.99 22.664h27.36c-12.409 0-22.363-10.259-21.989-22.664z" fill="#db4655"/></g><g><path d="m77.702 165.683h196.683v107.697h-196.683z" fill="#ffc269"/></g><g><path d="m222.883 205.62v11.265l-12.863 21.261c-4.25 7.027-6.497 15.081-6.497 23.292v11.941h70.862v-102.759h-16.502c-19.299 0-35 15.702-35 35z" fill="#ffa95f"/></g><g><path d="m77.702 165.683h27.36v107.697h-27.36z" fill="#ffa95f"/></g><g><path d="m227.483 63.66h-102.88c-2.761 0-5-2.239-5-5v-46.16c0-2.761 2.239-5 5-5h102.88c2.761 0 5 2.239 5 5v46.16c0 2.761-2.238 5-5 5z" fill="#ffc269"/></g><g><path d="m146.963 58.66v-46.16c0-2.761 2.239-5 5-5h-27.36c-2.761 0-5 2.239-5 5v46.16c0 2.761 2.239 5 5 5h27.36c-2.761 0-5-2.239-5-5z" fill="#ffa95f"/></g><g><g><g><path d="m414.938 223.86 16.472 27.226c1.889 3.123 2.888 6.703 2.888 10.353v205.482c0 3.65-.999 7.23-2.888 10.353l-16.472 27.226h-167.055l-16.472-27.226c-1.889-3.123-2.888-6.703-2.888-10.353v-205.482c0-3.65.999-7.23 2.888-10.353l16.472-27.226z" fill="#3a8cd6"/></g></g></g><g><g><path d="m256.243 466.921v-205.482c0-3.65.999-7.23 2.888-10.353l16.472-27.226h-27.72l-16.472 27.226c-1.889 3.123-2.888 6.703-2.888 10.353v205.481c0 3.65.999 7.23 2.888 10.353l16.472 27.226h27.72l-16.472-27.226c-1.889-3.122-2.888-6.702-2.888-10.352z" fill="#0280ce"/></g></g><g><path d="m229.323 255.86c-.525 1.805-.8 3.682-.8 5.579v205.482c0 1.897.276 3.774.8 5.579h204.175c.525-1.805.8-3.682.8-5.579v-205.482c0-1.897-.276-3.774-.8-5.579z" fill="#80b4fb"/></g><g><path d="m256.243 261.439c0-1.897.276-3.774.8-5.579h-27.72c-.525 1.805-.8 3.682-.8 5.579v205.482c0 1.897.276 3.774.8 5.579h27.72c-.525-1.805-.8-3.682-.8-5.579z" fill="#61a2f9"/></g><g><path d="m247.883 205.62v18.24h167.056v-18.24c0-5.523-4.477-10-10-10h-147.056c-5.523 0-10 4.477-10 10z" fill="#eceaec"/></g><g><path d="m285.603 195.62h-27.72c-5.523 0-10 4.477-10 10v18.24h27.72v-18.24c0-5.523 4.477-10 10-10z" fill="#dad8db"/></g><g><circle cx="331.411" cy="364.18" fill="#e5646e" r="49.4"/></g><g><path d="m299.011 364.18c0-24.383 17.67-44.625 40.9-48.656-2.763-.479-5.6-.744-8.5-.744-27.283 0-49.4 22.117-49.4 49.4s22.117 49.4 49.4 49.4c2.9 0 5.737-.264 8.5-.744-23.23-4.031-40.9-24.273-40.9-48.656z" fill="#db4655"/></g><g><path d="m195.777 233.96h-39.468c-8.276 0-14.984-6.709-14.984-14.984 0-8.276 6.709-14.984 14.984-14.984h39.468c8.276 0 14.984 6.709 14.984 14.984.001 8.275-6.708 14.984-14.984 14.984z" fill="#eceaec"/></g></g><g><path d="m208.003 497h-5.794c-3.073 0-6.013-.952-8.503-2.755l-.365-.264c-10.346-7.488-24.249-7.488-34.59-.004l-.372.269c-2.488 1.802-5.428 2.754-8.501 2.754h-40.96c-3.956 0-7.652-1.563-10.407-4.402-2.755-2.84-4.207-6.581-4.087-10.535l3.765-124.693c.396-13.113-1.808-25.962-6.551-38.193l-.856-2.207c-3.703-9.55-5.58-19.585-5.58-29.827v-6.262h106.961c4.142 0 7.5-3.357 7.5-7.5s-3.358-7.5-7.5-7.5h-106.961v-38.581c0-4.143-3.358-7.5-7.5-7.5s-7.5 3.357-7.5 7.5v59.842c0 12.104 2.219 23.964 6.595 35.251l.856 2.208c4.013 10.348 5.877 21.221 5.542 32.315l-3.765 124.693c-.243 8.045 2.71 15.657 8.314 21.434 5.604 5.775 13.124 8.957 21.172 8.957h40.96c6.253 0 12.234-1.938 17.292-5.6l.371-.269c5.085-3.682 11.918-3.681 17.004.001l.365.264c5.064 3.666 11.045 5.604 17.298 5.604h5.794c4.142 0 7.5-3.357 7.5-7.5s-3.355-7.5-7.497-7.5z"/><path d="m434.298 300.32c4.142 0 7.5-3.357 7.5-7.5v-31.381c0-2.62-.383-5.21-1.11-7.701-.023-.079-.049-.158-.075-.236-.663-2.197-1.588-4.316-2.787-6.297l-15.389-25.436v-16.149c0-9.649-7.851-17.5-17.5-17.5h-123.052v-35.79c0-17.871-10.531-34.158-26.829-41.493l-26.728-12.026c-1.97-.888-3.244-2.856-3.244-5.017v-22.634h2.399c6.893 0 12.5-5.607 12.5-12.5v-46.16c0-6.893-5.607-12.5-12.5-12.5h-102.88c-6.893 0-12.5 5.607-12.5 12.5v46.16c0 6.893 5.607 12.5 12.5 12.5h2.398v22.634c0 2.16-1.273 4.13-3.243 5.016l-26.728 12.028c-16.297 7.334-26.828 23.621-26.828 41.492v35.296c0 4.143 3.358 7.5 7.5 7.5s7.5-3.357 7.5-7.5v-14.442h181.683v14.937h-9.002c-9.649 0-17.5 7.851-17.5 17.5v16.148l-15.389 25.436c-1.2 1.982-2.125 4.103-2.788 6.301-.025.077-.05.153-.073.231-.727 2.492-1.11 5.083-1.11 7.703v205.481c0 2.618.382 5.208 1.109 7.698.024.082.05.162.077.243.663 2.195 1.587 4.313 2.785 6.294l16.472 27.227c1.358 2.246 3.792 3.618 6.417 3.618h167.056c2.625 0 5.059-1.372 6.417-3.618l16.472-27.226c1.199-1.981 2.124-4.1 2.786-6.297.026-.079.052-.159.076-.24.727-2.491 1.109-5.081 1.109-7.699v-136.661c0-4.143-3.358-7.5-7.5-7.5s-7.5 3.357-7.5 7.5v134.74h-190.776v-201.64h190.775v29.46c0 4.143 3.358 7.5 7.5 7.5zm-307.195-285.32h97.88v41.16h-97.88zm-41.901 143.184v-5.854c0-11.979 7.059-22.897 17.984-27.813l26.729-12.028c7.342-3.305 12.087-10.643 12.087-18.694v-22.635h68.083v22.634c0 8.052 4.745 15.39 12.088 18.695l26.728 12.026c10.925 4.917 17.984 15.835 17.984 27.814v5.854h-181.683zm166.909 73.176h158.599l10.285 17h-179.169zm3.272-25.74c0-1.379 1.122-2.5 2.5-2.5h147.056c1.378 0 2.5 1.121 2.5 2.5v10.74h-152.056zm155.327 291.38h-158.599l-10.285-17h179.169z"/><path d="m274.511 364.18c0 31.375 25.525 56.9 56.9 56.9s56.9-25.525 56.9-56.9c0-31.374-25.525-56.899-56.9-56.899s-56.9 25.525-56.9 56.899zm98.8 0c0 23.104-18.796 41.9-41.9 41.9s-41.9-18.797-41.9-41.9 18.796-41.899 41.9-41.899 41.9 18.795 41.9 41.899z"/><path d="m195.777 196.491h-39.468c-12.398 0-22.484 10.087-22.484 22.484s10.086 22.484 22.484 22.484h39.468c12.398 0 22.484-10.087 22.484-22.484s-10.086-22.484-22.484-22.484zm0 29.969h-39.468c-4.127 0-7.484-3.357-7.484-7.484s3.357-7.484 7.484-7.484h39.468c4.127 0 7.484 3.357 7.484 7.484s-3.357 7.484-7.484 7.484z"/></g></g></svg>