<svg id="Capa_1" enable-background="new 0 0 512.037 512.037" height="512" viewBox="0 0 512.037 512.037" width="512" xmlns="http://www.w3.org/2000/svg"><g><g><g><path d="m267.866 21.899-80.452 230.107c-4.885 13.972 5.486 28.584 20.287 28.584h67.103c14.3 0 24.612 13.706 20.65 27.446l-52.679 182.682c-3.245 11.252 11.294 18.841 18.671 9.746l218.677-269.63c11.393-14.048 1.396-35.029-16.692-35.029h-60.811c-14.865 0-25.241-14.729-20.237-28.726l46.781-130.852c5.004-13.998-5.372-28.727-20.237-28.727h-120.773c-9.136 0-17.273 5.775-20.288 14.399z" fill="#ffc269"/></g><g><path d="m220.104 240.882c55.697-7.001 98.922-54.657 98.922-112.222 0-30.644-12.252-58.477-32.112-78.867l9.753-27.895c3.014-8.623 11.151-14.398 20.286-14.398h-28.8c-9.135 0-17.272 5.775-20.287 14.398l-80.452 230.107c-4.885 13.972 5.486 28.584 20.287 28.584h28.8c-14.801 0-25.172-14.613-20.287-28.584z" fill="#ffa95f"/></g><g><path d="m324.255 308.036c3.962-13.74-6.35-27.446-20.65-27.446h-28.8c14.3 0 24.612 13.706 20.65 27.446l-52.679 182.682c-3.245 11.252 11.294 18.842 18.671 9.746l11.356-14.003z" fill="#ffa95f"/></g><g><circle cx="205.915" cy="128.66" fill="#e5646e" r="88.11"/></g><g><path d="m138.308 128.66c0-45.194 34.028-82.433 77.859-87.513-3.364-.39-6.783-.597-10.251-.597-48.662 0-88.11 39.448-88.11 88.11s39.448 88.11 88.11 88.11c3.468 0 6.887-.207 10.251-.597-43.832-5.08-77.859-42.319-77.859-87.513z" fill="#db4655"/></g></g><g><path d="m489.604 204.824c-4.856-10.189-14.884-16.52-26.172-16.52h-60.812c-4.613 0-8.782-2.163-11.438-5.934-2.657-3.771-3.29-8.425-1.737-12.769l46.782-130.852c3.17-8.867 1.825-18.758-3.599-26.456-5.424-7.697-14.284-12.293-23.701-12.293h-120.773c-12.307 0-23.305 7.806-27.367 19.423-1.367 3.91.694 8.188 4.604 9.556 3.911 1.365 8.188-.694 9.555-4.604 1.96-5.607 7.269-9.374 13.208-9.374h120.773c4.613 0 8.782 2.163 11.438 5.934 2.657 3.771 3.29 8.425 1.737 12.769l-46.781 130.852c-3.17 8.867-1.825 18.758 3.599 26.456 5.423 7.699 14.284 12.295 23.701 12.295h60.812c5.53 0 10.252 2.98 12.631 7.973s1.719 10.537-1.764 14.832l-62.306 76.823c-2.609 3.218-2.116 7.94 1.101 10.55 1.39 1.127 3.06 1.675 4.72 1.675 2.183 0 4.347-.948 5.83-2.775l62.306-76.823c7.108-8.771 8.509-20.547 3.653-30.738z"/><path d="m397.232 333.04c-3.217-2.609-7.939-2.116-10.549 1.101l-131.06 161.599c-1.455 1.793-3.145 1.292-4.023.833s-2.256-1.559-1.616-3.776l52.679-182.682c2.547-8.835.838-18.116-4.69-25.463-5.528-7.348-13.972-11.562-23.167-11.562h-67.103c-4.593 0-8.751-2.148-11.41-5.894s-3.313-8.38-1.798-12.716c1.367-3.91-.694-8.188-4.604-9.556-3.908-1.366-8.188.694-9.555 4.604-3.095 8.853-1.703 18.702 3.725 26.349s14.265 12.212 23.642 12.212h67.103c4.438 0 8.513 2.033 11.18 5.579 2.668 3.546 3.493 8.025 2.263 12.289l-52.679 182.683c-2.471 8.57 1.181 17.103 9.088 21.229 2.795 1.459 5.737 2.168 8.622 2.168 5.276-.001 10.359-2.37 13.992-6.849l131.061-161.598c2.609-3.218 2.116-7.941-1.101-10.55z"/><path d="m227.33 78.097c-3.817-1.6-8.214.194-9.818 4.014l-35.865 85.459c-1.603 3.819.194 8.215 4.013 9.818.948.397 1.932.586 2.899.586 2.93 0 5.713-1.729 6.918-4.6l35.865-85.459c1.604-3.819-.193-8.215-4.012-9.818z"/><path d="m196.606 99.445c0-14.29-10.474-25.915-23.347-25.915s-23.347 11.625-23.347 25.915 10.474 25.915 23.347 25.915 23.347-11.625 23.347-25.915zm-23.347 10.915c-4.524 0-8.347-4.998-8.347-10.915s3.823-10.915 8.347-10.915 8.347 4.998 8.347 10.915-3.822 10.915-8.347 10.915z"/><path d="m215.225 157.875c0 14.29 10.474 25.915 23.347 25.915s23.347-11.625 23.347-25.915-10.474-25.915-23.347-25.915-23.347 11.625-23.347 25.915zm23.347-10.915c4.524 0 8.347 4.998 8.347 10.915s-3.823 10.915-8.347 10.915-8.347-4.998-8.347-10.915 3.822-10.915 8.347-10.915z"/><path d="m301.525 128.66c0-52.72-42.891-95.61-95.61-95.61s-95.61 42.891-95.61 95.61 42.891 95.609 95.61 95.609 95.61-42.89 95.61-95.609zm-176.219 0c0-44.448 36.162-80.61 80.61-80.61s80.61 36.162 80.61 80.61-36.162 80.609-80.61 80.609-80.61-36.161-80.61-80.609z"/><path d="m85.394 68.859h-38.88c-4.142 0-7.5 3.357-7.5 7.5s3.358 7.5 7.5 7.5h38.88c4.142 0 7.5-3.357 7.5-7.5s-3.358-7.5-7.5-7.5z"/><path d="m85.394 121.16h-58.32c-4.142 0-7.5 3.357-7.5 7.5s3.358 7.5 7.5 7.5h58.32c4.142 0 7.5-3.357 7.5-7.5s-3.358-7.5-7.5-7.5z"/><path d="m85.394 173.46h-38.88c-4.142 0-7.5 3.357-7.5 7.5s3.358 7.5 7.5 7.5h38.88c4.142 0 7.5-3.357 7.5-7.5s-3.358-7.5-7.5-7.5z"/></g></g></svg>