<?xml version="1.0" encoding="iso-8859-1"?>
<!-- Generator: Adobe Illustrator 19.0.0, SVG Export Plug-In . SVG Version: 6.00 Build 0)  -->
<svg version="1.1" id="Capa_1" xmlns="http://www.w3.org/2000/svg" xmlns:xlink="http://www.w3.org/1999/xlink" x="0px" y="0px"
	 viewBox="0 0 512 512" style="enable-background:new 0 0 512 512;" xml:space="preserve">
<rect x="8.52" y="298.657" style="fill:#E6CCAF;" width="494.917" height="204.793"/>
<rect x="8.52" y="358.388" style="fill:#F09E3E;" width="494.917" height="17.066"/>
<rect x="8.52" y="426.652" style="fill:#F0614A;" width="494.917" height="17.066"/>
<polygon style="fill:#F0DBC2;" points="8.52,298.674 503.437,8.55 503.437,298.674 "/>
<g>
	<rect x="443.706" y="85.33" style="fill:#E6CCAF;" width="17.066" height="17.066"/>
	<rect x="383.974" y="153.595" style="fill:#E6CCAF;" width="17.066" height="17.066"/>
	<rect x="281.578" y="179.194" style="fill:#E6CCAF;" width="17.066" height="17.066"/>
	<rect x="460.772" y="221.859" style="fill:#E6CCAF;" width="17.066" height="17.066"/>
	<rect x="298.644" y="255.991" style="fill:#E6CCAF;" width="17.066" height="17.066"/>
	<rect x="179.181" y="247.458" style="fill:#E6CCAF;" width="17.066" height="17.066"/>
</g>
<rect x="443.706" y="85.33" width="17.066" height="17.066"/>
<rect x="383.974" y="153.595" width="17.066" height="17.066"/>
<rect x="281.578" y="179.194" width="17.066" height="17.066"/>
<rect x="460.772" y="221.859" width="17.066" height="17.066"/>
<rect x="298.644" y="255.991" width="17.066" height="17.066"/>
<rect x="179.181" y="247.458" width="17.066" height="17.066"/>
<path d="M507.704,1.152c-2.637-1.536-5.896-1.536-8.533,0L4.254,291.276c-0.367,0.256-0.717,0.538-1.041,0.853
	c-0.282,0.239-0.589,0.435-0.853,0.7c-0.58,0.64-1.067,1.357-1.434,2.142c-0.068,0.137-0.179,0.239-0.239,0.375
	c-0.384,0.964-0.589,1.988-0.606,3.029c0,0.085-0.051,0.162-0.051,0.247v204.844c0,4.71,3.823,8.533,8.533,8.533h494.874
	c4.71,0,8.533-3.823,8.533-8.533V8.55C511.979,5.495,510.349,2.679,507.704,1.152z M494.904,23.44v266.7H39.947L494.904,23.44z
	 M494.904,494.934H17.053V307.207h477.851V494.934z"/>
<g>
</g>
<g>
</g>
<g>
</g>
<g>
</g>
<g>
</g>
<g>
</g>
<g>
</g>
<g>
</g>
<g>
</g>
<g>
</g>
<g>
</g>
<g>
</g>
<g>
</g>
<g>
</g>
<g>
</g>
</svg>
