<?xml version="1.0" encoding="iso-8859-1"?>
<!-- Generator: Adobe Illustrator 19.0.0, SVG Export Plug-In . SVG Version: 6.00 Build 0)  -->
<svg version="1.1" id="Capa_1" xmlns="http://www.w3.org/2000/svg" xmlns:xlink="http://www.w3.org/1999/xlink" x="0px" y="0px"
	 viewBox="0 0 512 512" style="enable-background:new 0 0 512 512;" xml:space="preserve">
<polygon style="fill:#B8DBE0;" points="401.076,452.246 230.423,452.246 230.423,128.015 281.619,59.754 452.272,59.754 
	401.076,128.015 "/>
<g>
	<polygon style="fill:#A1CBE0;" points="452.272,59.754 503.467,128.015 503.467,452.246 401.076,452.246 401.076,128.015 	"/>
	<rect x="281.662" y="8.533" style="fill:#A1CBE0;" width="170.652" height="51.196"/>
</g>
<g>
	<path style="fill:#91C1D9;" d="M491.436,451.324l-39.165-45.701l-39.165,45.701c-3.072,3.575-8.456,3.993-12.031,0.922l0,0
		c-3.575-3.072-3.993-8.456-0.922-12.031l45.641-53.244c3.072-3.575,8.456-3.985,12.031-0.922c0.333,0.282,0.64,0.589,0.922,0.922
		l45.641,53.244c3.072,3.575,2.654,8.959-0.922,12.031l0,0C499.892,455.318,494.508,454.908,491.436,451.324z"/>
	<path style="fill:#91C1D9;" d="M273.087,213.341c-0.009,21.698,13.669,41.05,34.13,48.286l34.13-48.286H273.087z"/>
</g>
<g>
	<rect x="255.979" y="409.566" style="fill:#A1CBE0;" width="34.13" height="17.065"/>
	<rect x="255.979" y="375.435" style="fill:#A1CBE0;" width="119.457" height="17.065"/>
	<rect x="341.39" y="409.566" style="fill:#A1CBE0;" width="34.13" height="17.065"/>
	<rect x="255.979" y="170.652" style="fill:#A1CBE0;" width="119.457" height="17.065"/>
	<rect x="255.979" y="136.522" style="fill:#A1CBE0;" width="119.457" height="17.065"/>
</g>
<polygon style="fill:#B8DBE0;" points="162.162,503.442 34.173,503.442 8.575,256.004 187.76,256.004 "/>
<path style="fill:#F5EADF;" d="M172.325,325.963c-22.799,9.77-48.644,9.599-71.316-0.478c-25.922-11.519-55.786-10.009-80.42,4.07
	l-4.155,2.372L34.173,503.45h127.989l18.772-181.122L172.325,325.963z"/>
<path style="fill:#A1CBE0;" d="M341.348,213.341l-61.435,81.913c-11.306,15.077-8.251,36.477,6.826,47.783
	c5.905,4.428,13.098,6.826,20.478,6.826h68.261V213.341L341.348,213.341L341.348,213.341z"/>
<rect x="349.923" y="255.979" style="fill:#91C1D9;" width="17.065" height="17.065"/>
<path style="fill:#F2E1D0;" d="M172.325,325.963c-8.908,3.78-18.362,6.084-28.013,6.826
	c-25.077,55.428-64.157,103.356-113.399,139.082l3.259,31.571h127.989l18.772-181.122L172.325,325.963z"/>
<path d="M452.272,0.026H281.619c-4.71,0-8.533,3.823-8.533,8.533v48.354l-49.489,65.983c-1.109,1.476-1.707,3.277-1.707,5.12v324.24
	c0,4.71,3.823,8.533,8.533,8.533h273.044c4.71,0,8.533-3.823,8.533-8.533v-324.24c0-1.843-0.597-3.643-1.707-5.12l-49.489-65.983
	V8.558C460.804,3.84,456.982,0.026,452.272,0.026z M290.152,17.091h153.587v34.13H290.152V17.091z M238.956,130.856l46.929-62.57
	h149.321l-40.957,54.609c-1.109,1.476-1.707,3.277-1.707,5.12v315.707H238.956L238.956,130.856L238.956,130.856z M419.626,443.713
	l32.646-38.09l32.646,38.09H419.626z M494.935,429.208l-36.187-42.236c-3.285-3.575-8.857-3.814-12.432-0.521
	c-0.179,0.171-0.358,0.341-0.52,0.521l-36.187,42.236V130.856l42.663-56.878l42.663,56.878L494.935,429.208L494.935,429.208z"/>
<rect x="349.923" y="255.979" width="17.065" height="17.065"/>
<path d="M273.087,204.808c-4.71,0-8.533,3.823-8.533,8.533c0.068,20.589,10.726,39.685,28.217,50.547l-19.685,26.246
	c-14.139,18.849-10.316,45.59,8.533,59.728c7.381,5.538,16.366,8.533,25.598,8.533h68.261V341.33h-68.261
	c-14.139,0-25.598-11.459-25.598-25.598c0-5.538,1.8-10.93,5.12-15.359l58.875-78.5h29.864v-17.065L273.087,204.808L273.087,204.808
	z M282.472,221.874h41.81l-21.272,28.362C292.43,244.144,284.955,233.819,282.472,221.874z"/>
<rect x="255.979" y="375.435" width="119.457" height="17.065"/>
<rect x="255.979" y="409.566" width="34.13" height="17.065"/>
<rect x="341.39" y="409.566" width="34.13" height="17.065"/>
<rect x="255.979" y="170.652" width="119.457" height="17.065"/>
<rect x="255.979" y="136.522" width="119.457" height="17.065"/>
<path d="M8.575,247.472c-4.71-0.026-8.55,3.771-8.575,8.481c0,0.299,0.009,0.597,0.043,0.896l25.598,247.446
	c0.444,4.377,4.138,7.705,8.533,7.679h127.989c4.394,0.026,8.089-3.302,8.533-7.679l25.598-247.446
	c0.469-4.693-2.944-8.874-7.637-9.343c-0.299-0.034-0.597-0.043-0.896-0.043H8.575V247.472z M178.298,264.537l-5.367,51.93
	l-3.968,1.707c-20.623,8.806-43.977,8.652-64.481-0.435c-25.82-11.365-55.283-11.058-80.855,0.853l-5.589-54.054H178.298
	L178.298,264.537z M154.483,494.909H41.853L25.495,336.655c22.159-12.364,48.841-13.601,72.049-3.336
	c23.217,10.333,49.566,11.144,73.381,2.27L154.483,494.909z"/>
<g>
</g>
<g>
</g>
<g>
</g>
<g>
</g>
<g>
</g>
<g>
</g>
<g>
</g>
<g>
</g>
<g>
</g>
<g>
</g>
<g>
</g>
<g>
</g>
<g>
</g>
<g>
</g>
<g>
</g>
</svg>
