<?xml version="1.0" encoding="iso-8859-1"?>
<!-- Generator: Adobe Illustrator 19.0.0, SVG Export Plug-In . SVG Version: 6.00 Build 0)  -->
<svg version="1.1" id="Capa_1" xmlns="http://www.w3.org/2000/svg" xmlns:xlink="http://www.w3.org/1999/xlink" x="0px" y="0px"
	 viewBox="0 0 512 512" style="enable-background:new 0 0 512 512;" xml:space="preserve">
<path style="fill:#F0DBC2;" d="M392.534,401.067H170.667c-18.85,0-34.133-15.283-34.133-34.133V174.217
	c0-7.945,1.852-15.787,5.402-22.895l45.798-91.588h256l-45.798,91.588c-3.55,7.108-5.402,14.95-5.402,22.895V401.067z"/>
<path style="fill:#E6CCAF;" d="M392.534,401.067h76.8c18.85,0,34.133-15.283,34.133-34.133V175.974
	c0-9.062-2.406-17.963-6.972-25.796l-52.762-90.445l-45.798,91.588c-3.55,7.108-5.402,14.95-5.402,22.895V401.067z"/>
<path style="fill:#D4B99B;" d="M426.667,59.733h42.667c14.14,0,25.6-11.46,25.6-25.6l0,0c0-14.14-11.46-25.6-25.6-25.6h-42.667
	V59.733z"/>
<path style="fill:#F0DBC2;" d="M443.734,34.133c0-14.14,11.46-25.6,25.6-25.6h-256c-14.14,0-25.6,11.46-25.6,25.6l0,0v25.6h256
	V34.133z"/>
<g>
	<path style="fill:#E6CCAF;" d="M469.334,59.793L469.334,59.793c-0.111-3.584,2.048-6.844,5.393-8.132
		c8.951-2.944,13.833-12.587,10.889-21.538c-2.645-8.055-10.812-12.954-19.166-11.486c-8.405,1.715-14.379,9.207-14.182,17.783
		v23.313c0,4.71-3.823,8.533-8.533,8.533l0,0c-4.71,0-8.533-3.823-8.533-8.533v-22.75c-0.307-17.929,12.928-33.22,30.72-35.482
		c18.756-1.894,35.499,11.776,37.385,30.532c1.604,15.898-8.038,30.788-23.202,35.823c-4.412,1.34-9.071-1.152-10.411-5.564
		C469.444,61.483,469.325,60.638,469.334,59.793z"/>
	<path style="fill:#E6CCAF;" d="M196.267,51.2h247.467c4.71,0,8.533,3.823,8.533,8.533l0,0c0,4.71-3.823,8.533-8.533,8.533H196.267
		c-4.71,0-8.533-3.823-8.533-8.533l0,0C187.734,55.023,191.556,51.2,196.267,51.2z"/>
</g>
<path style="fill:#F2B9B8;" d="M60.536,503.467h117.862c32.341-20.241,51.994-55.706,52.002-93.867v-59.733H8.533V409.6
	C8.542,447.761,28.194,483.226,60.536,503.467z"/>
<path style="fill:#F5EADF;" d="M25.6,349.867l82.389-74.897c6.511-5.914,16.444-5.914,22.955,0l82.389,74.897H25.6z"/>
<path style="fill:#F09E3E;" d="M230.4,187.733L230.4,187.733c-9.429,0-17.067-7.637-17.067-17.067v-51.2H230.4V187.733z"/>
<g>
	<path style="fill:#D68033;" d="M315.734,187.733L315.734,187.733v-68.267H332.8v51.2
		C332.8,180.096,325.163,187.733,315.734,187.733z"/>
	<rect x="264.534" y="307.2" style="fill:#D68033;" width="17.067" height="42.667"/>
</g>
<path style="fill:#F09E3E;" d="M221.867,153.6h17.067c18.85,0,34.133,15.283,34.133,34.133V204.8l0,0H256
	c-18.85,0-34.133-15.283-34.133-34.133V153.6L221.867,153.6z"/>
<path style="fill:#D68033;" d="M221.867,204.8h17.067c18.85,0,34.133,15.283,34.133,34.133V256l0,0H256
	c-18.85,0-34.133-15.283-34.133-34.133V204.8L221.867,204.8z"/>
<path style="fill:#F09E3E;" d="M221.867,256h17.067c18.85,0,34.133,15.283,34.133,34.133V307.2l0,0H256
	c-18.85,0-34.133-15.283-34.133-34.133V256L221.867,256z"/>
<path style="fill:#D68033;" d="M290.134,204.8h-17.067l0,0v-17.067c0-18.85,15.283-34.133,34.133-34.133h17.067l0,0v17.067
	C324.267,189.517,308.984,204.8,290.134,204.8z"/>
<path style="fill:#F09E3E;" d="M290.134,256h-17.067l0,0v-17.067c0-18.85,15.283-34.133,34.133-34.133h17.067l0,0v17.067
	C324.267,240.717,308.984,256,290.134,256z"/>
<path style="fill:#D68033;" d="M290.134,307.2h-17.067l0,0v-17.067c0-18.85,15.283-34.133,34.133-34.133h17.067l0,0v17.067
	C324.267,291.917,308.984,307.2,290.134,307.2z"/>
<path style="fill:#F09E3E;" d="M273.067,170.667L273.067,170.667c-18.85-12.57-23.945-38.05-11.366-56.9
	c3.004-4.497,6.861-8.363,11.366-11.366l0,0c18.85,12.57,23.945,38.05,11.366,56.9C281.43,163.797,277.572,167.663,273.067,170.667z
	"/>
<path style="fill:#F2AEAC;" d="M206.763,349.867c-22.229,98.662-95.113,135.97-151.791,149.854c1.818,1.306,3.669,2.551,5.564,3.746
	h117.862c32.341-20.241,51.994-55.706,52.002-93.867v-59.733H206.763z"/>
<path d="M512,175.974c-0.009-10.573-2.816-20.958-8.141-30.097l-51.593-88.448V34.133c0-9.429,7.637-17.067,17.067-17.067
	S486.4,24.704,486.4,34.133S478.763,51.2,469.334,51.2v17.067c18.85,0,34.133-15.283,34.133-34.133S488.184,0,469.334,0h-256
	C194.483,0,179.2,15.283,179.2,34.133V57.72l-44.894,89.788c-4.139,8.294-6.298,17.442-6.306,26.718v73.242h17.067v-73.242
	c0.009-6.622,1.553-13.158,4.506-19.089l43.435-86.869h236.919l-39.62,79.241c-4.139,8.294-6.298,17.442-6.306,26.718v218.308H256
	V409.6h213.333c23.552-0.026,42.641-19.115,42.667-42.667V175.974z M196.267,51.2V34.133c0-9.429,7.637-17.067,17.067-17.067
	h226.449c-0.674,1.169-1.271,2.381-1.801,3.618l-0.111,0.222c-0.751,1.835-1.34,3.729-1.758,5.666
	c-0.111,0.469-0.205,0.947-0.29,1.434c-0.392,2.022-0.606,4.07-0.623,6.127V51.2H196.267z M494.934,366.933
	c0,14.14-11.46,25.6-25.6,25.6h-68.267V174.225c0.009-6.622,1.553-13.158,4.506-19.089l38.741-77.474l44.809,76.8
	c3.806,6.528,5.811,13.952,5.811,21.513V366.933z"/>
<path d="M55.996,510.686c1.357,0.862,2.935,1.314,4.54,1.314h117.862c1.604,0,3.183-0.452,4.54-1.314
	c34.893-21.743,56.064-59.972,55.996-101.086v-59.733c0-4.71-3.823-8.533-8.533-8.533h-13.764l-79.949-72.678
	c-9.745-8.917-24.695-8.917-34.441,0l-79.949,72.678H8.533c-4.71,0-8.533,3.823-8.533,8.533V409.6
	C-0.068,450.714,21.103,488.943,55.996,510.686z M113.732,281.284c3.243-2.978,8.226-2.978,11.469,0l66.065,60.049H47.667
	L113.732,281.284z M17.067,358.4h204.8v51.2c0.06,34.381-17.237,66.475-45.986,85.333H63.053
	c-28.749-18.859-46.046-50.953-45.986-85.333V358.4z"/>
<path d="M213.334,256v17.067c0.026,23.552,19.115,42.641,42.667,42.667h8.533v34.133H281.6v-34.133h8.533
	c23.552-0.026,42.641-19.115,42.667-42.667V256c0-4.71-3.823-8.533-8.533-8.533h-0.222c5.649-7.339,8.721-16.341,8.755-25.6V204.8
	c0-4.71-3.823-8.533-8.533-8.533h-0.222c5.649-7.339,8.721-16.341,8.755-25.6v-51.2h-17.067v25.6H307.2
	c-2.79,0.009-5.572,0.299-8.311,0.853c3.994-19.593-4.361-39.646-21.086-50.611c-2.867-1.911-6.605-1.911-9.472,0
	c-16.725,10.965-25.079,31.019-21.086,50.611c-2.739-0.555-5.521-0.845-8.311-0.853H230.4v-25.6h-17.067v51.2
	c0.034,9.259,3.106,18.261,8.755,25.6h-0.222c-4.71,0-8.533,3.823-8.533,8.533v17.067c0.034,9.259,3.106,18.261,8.755,25.6h-0.222
	C217.156,247.467,213.334,251.29,213.334,256z M230.4,273.067v-8.533h8.533c14.14,0,25.6,11.46,25.6,25.6v8.533H256
	C241.86,298.667,230.4,287.207,230.4,273.067z M273.067,213.333h0.222c-0.077,0.094-0.154,0.171-0.222,0.265
	c-0.068-0.094-0.145-0.171-0.222-0.265H273.067z M273.067,264.533h0.222c-0.077,0.094-0.154,0.171-0.222,0.265
	c-0.068-0.094-0.145-0.171-0.222-0.265H273.067z M281.6,247.467v-8.533c0-14.14,11.46-25.6,25.6-25.6h8.533v8.533
	c0,14.14-11.46,25.6-25.6,25.6H281.6z M230.4,213.333h8.533c14.14,0,25.6,11.46,25.6,25.6v8.533H256c-14.14,0-25.6-11.46-25.6-25.6
	V213.333z M315.734,273.067c0,14.14-11.46,25.6-25.6,25.6H281.6v-8.533c0-14.14,11.46-25.6,25.6-25.6h8.533V273.067z
	 M315.734,162.133v8.533c0,14.14-11.46,25.6-25.6,25.6H281.6v-8.533c0-14.14,11.46-25.6,25.6-25.6H315.734z M273.067,113.306
	c12.826,12.612,13.005,33.237,0.393,46.063c-0.128,0.137-0.264,0.265-0.393,0.393c-12.826-12.612-13.005-33.237-0.393-46.063
	C272.802,113.57,272.939,113.434,273.067,113.306z M264.534,187.733v8.533H256c-14.14,0-25.6-11.46-25.6-25.6v-8.533h8.533
	C253.073,162.133,264.534,173.594,264.534,187.733z"/>
<g>
</g>
<g>
</g>
<g>
</g>
<g>
</g>
<g>
</g>
<g>
</g>
<g>
</g>
<g>
</g>
<g>
</g>
<g>
</g>
<g>
</g>
<g>
</g>
<g>
</g>
<g>
</g>
<g>
</g>
</svg>
