<?xml version="1.0" encoding="iso-8859-1"?>
<!-- Generator: Adobe Illustrator 19.0.0, SVG Export Plug-In . SVG Version: 6.00 Build 0)  -->
<svg version="1.1" id="Capa_1" xmlns="http://www.w3.org/2000/svg" xmlns:xlink="http://www.w3.org/1999/xlink" x="0px" y="0px"
	 viewBox="0 0 512 512" style="enable-background:new 0 0 512 512;" xml:space="preserve">
<path style="fill:#F09E3E;" d="M256,8.533C119.33,8.533,8.533,119.33,8.533,256S119.33,503.467,256,503.467
	S503.467,392.67,503.467,256S392.67,8.533,256,8.533z M256,341.333c-47.13,0-85.333-38.204-85.333-85.333
	S208.87,170.667,256,170.667S341.333,208.87,341.333,256S303.13,341.333,256,341.333z"/>
<path style="fill:#F09235;" d="M443.93,95.095C436.13,339.029,233.515,419.362,99.516,447.693
	c105.839,86.434,261.709,70.699,348.143-35.14C523.418,319.778,521.847,186.061,443.93,95.095z"/>
<path style="fill:#BF7341;" d="M463.633,299.469c-18.739-25.95-18.739-60.988,0-86.938c23.979-32.794,16.836-78.814-15.957-102.793
	c-14.592-10.675-32.606-15.599-50.603-13.833c-31.684,3.413-61.892-14.208-74.513-43.469l0,0
	c-15.77-36.77-58.359-53.803-95.138-38.033c-17.092,7.33-30.711,20.949-38.033,38.033l0,0
	c-12.612,29.235-42.795,46.857-74.453,43.469c-40.431-3.968-76.425,25.591-80.393,66.022c-1.766,17.997,3.157,36.011,13.833,50.603
	c18.739,25.95,18.739,60.988,0,86.938l0,0c-23.979,32.794-16.836,78.814,15.957,102.793c14.592,10.675,32.606,15.599,50.603,13.833
	c31.676-3.413,61.884,14.208,74.505,43.469c15.77,36.77,58.359,53.803,95.138,38.033c17.092-7.33,30.711-20.949,38.033-38.033
	c12.612-29.235,42.795-46.857,74.453-43.469c40.431,3.968,76.425-25.591,80.393-66.022c1.766-17.997-3.157-36.011-13.833-50.603
	L463.633,299.469L463.633,299.469z M256,341.333c-47.13,0-85.333-38.204-85.333-85.333S208.87,170.667,256,170.667
	S341.333,208.87,341.333,256S303.13,341.333,256,341.333z"/>
<path style="fill:#B56D3E;" d="M463.633,299.469c-18.739-25.95-18.739-60.988,0-86.938c15.991-21.76,18.654-50.586,6.903-74.906
	C438.007,331.332,302.771,410.01,177.843,441.199c4.753,5.513,8.661,11.699,11.597,18.364c15.77,36.77,58.359,53.803,95.138,38.033
	c17.092-7.33,30.711-20.949,38.033-38.033c12.612-29.235,42.795-46.857,74.453-43.469c40.431,3.968,76.425-25.591,80.393-66.022
	c1.766-17.997-3.157-36.011-13.833-50.603H463.633z"/>
<g>
	
		<rect x="233.633" y="81.065" transform="matrix(-0.7071 0.7071 -0.7071 -0.7071 493.0961 -25.0514)" style="fill:#965735;" width="36.207" height="17.067"/>
	
		<rect x="301.902" y="123.751" transform="matrix(-0.7071 0.7071 -0.7071 -0.7071 639.8226 -0.4552)" style="fill:#965735;" width="36.207" height="17.067"/>
	
		<rect x="81.046" y="165.367" transform="matrix(-0.7071 0.7071 -0.7071 -0.7071 282.6544 249.8618)" style="fill:#965735;" width="17.067" height="36.207"/>
	
		<rect x="131.228" y="191.988" transform="matrix(-0.7071 0.7071 -0.7071 -0.7071 396.7139 236.7175)" style="fill:#965735;" width="36.207" height="17.067"/>
	
		<rect x="98.126" y="284.836" transform="matrix(-0.7071 0.7071 -0.7071 -0.7071 396.2892 441.7295)" style="fill:#965735;" width="17.067" height="36.207"/>
	
		<rect x="131.227" y="354.12" transform="matrix(-0.7071 0.7071 -0.7071 -0.7071 511.3575 513.4955)" style="fill:#965735;" width="36.207" height="17.067"/>
	
		<rect x="234.678" y="378.707" transform="matrix(-0.7071 0.7071 -0.7071 -0.7071 695.7737 505.4208)" style="fill:#965735;" width="17.067" height="36.207"/>
	
		<rect x="310.427" y="371.207" transform="matrix(-0.7071 0.7071 -0.7071 -0.7071 829.3535 415.9514)" style="fill:#965735;" width="36.207" height="17.067"/>
	
		<rect x="379.725" y="165.372" transform="matrix(-0.7071 0.7071 -0.7071 -0.7071 792.5352 38.6708)" style="fill:#965735;" width="17.067" height="36.207"/>
	
		<rect x="387.238" y="260.261" transform="matrix(-0.7071 0.7071 -0.7071 -0.7071 882.0276 172.2409)" style="fill:#965735;" width="36.207" height="17.067"/>
	
		<rect x="174.94" y="114.164" transform="matrix(-0.7071 0.7071 -0.7071 -0.7071 406.7352 96.0589)" style="fill:#965735;" width="17.067" height="36.207"/>
	
		<rect x="395.764" y="345.594" transform="matrix(-0.7071 0.7071 -0.7071 -0.7071 956.921 311.8841)" style="fill:#965735;" width="36.207" height="17.067"/>
</g>
<path d="M256,512c141.389,0,256-114.611,256-256S397.389,0,256,0S0,114.611,0,256C0.162,397.321,114.679,511.838,256,512z
	 M84.087,421.683c10.3,3.063,21.111,4.053,31.804,2.893c27.972-3.081,54.656,12.518,65.707,38.4
	c4.079,9.276,9.83,17.724,16.964,24.926C154.931,477.039,115.251,454.093,84.087,421.683z M55.287,207.497
	c-15.42-20.966-16.811-49.118-3.541-71.501c12.51-22.118,37.052-34.586,62.293-31.633c35.396,3.874,69.163-15.829,83.209-48.546
	c13.892-32.461,51.456-47.514,83.917-33.621c15.113,6.468,27.153,18.509,33.621,33.621c14.02,32.734,47.812,52.446,83.209,48.546
	c25.233-2.927,49.766,9.532,62.293,31.633c13.269,22.383,11.878,50.534-3.541,71.501c-20.983,28.911-20.983,68.045,0,96.956
	c15.42,20.966,16.811,49.118,3.541,71.501c-12.553,22.076-37.069,34.517-62.293,31.633c-35.405-3.917-69.197,15.804-83.209,48.546
	c-13.892,32.461-51.456,47.514-83.917,33.621c-15.113-6.468-27.153-18.509-33.621-33.621c-12.732-29.705-41.924-48.981-74.24-49.041
	c-2.987,0.009-5.982,0.171-8.951,0.495c-25.233,2.91-49.758-9.549-62.293-31.633c-13.269-22.383-11.878-50.534,3.541-71.501
	c20.966-28.911,20.958-68.028-0.017-96.93V207.497z M313.446,487.902c7.134-7.202,12.885-15.65,16.964-24.926
	c11.034-25.899,37.734-41.498,65.707-38.4c10.684,1.152,21.495,0.179,31.804-2.884C396.749,454.093,357.077,477.039,313.446,487.902
	z M484.514,325.769c-2.432-11.298-7.185-21.965-13.969-31.317c-16.666-22.938-16.666-53.999,0-76.937
	c6.784-9.353,11.537-20.019,13.969-31.317C498.406,231.68,498.406,280.286,484.514,325.769z M427.921,90.317
	c-10.308-3.063-21.12-4.045-31.812-2.893c-27.972,3.063-54.647-12.527-65.707-38.4l0,0c-4.079-9.276-9.83-17.724-16.964-24.926
	C357.069,34.961,396.749,57.916,427.921,90.317z M198.554,24.098c-7.134,7.202-12.885,15.65-16.964,24.926
	c-11.068,25.865-37.743,41.446-65.707,38.4c-10.692-1.152-21.504-0.171-31.812,2.901C115.234,57.916,154.923,34.953,198.554,24.098z
	 M27.486,186.231c2.432,11.298,7.185,21.965,13.969,31.317c16.666,22.938,16.666,53.999,0,76.937
	c-6.784,9.353-11.537,20.019-13.969,31.317C13.594,280.32,13.594,231.714,27.486,186.231z"/>
<path d="M162.133,256c0,51.84,42.027,93.867,93.867,93.867S349.867,307.84,349.867,256S307.84,162.133,256,162.133
	C204.186,162.193,162.193,204.186,162.133,256z M256,179.2c42.419,0,76.8,34.381,76.8,76.8s-34.381,76.8-76.8,76.8
	s-76.8-34.381-76.8-76.8C179.251,213.606,213.606,179.251,256,179.2z"/>
<rect x="233.633" y="81.065" transform="matrix(-0.7071 0.7071 -0.7071 -0.7071 493.0961 -25.0514)" width="36.207" height="17.067"/>
<rect x="301.902" y="123.751" transform="matrix(-0.7071 0.7071 -0.7071 -0.7071 639.8226 -0.4552)" width="36.207" height="17.067"/>
<rect x="81.046" y="165.367" transform="matrix(-0.7071 0.7071 -0.7071 -0.7071 282.6544 249.8618)" width="17.067" height="36.207"/>
<rect x="131.228" y="191.988" transform="matrix(-0.7071 0.7071 -0.7071 -0.7071 396.7139 236.7175)" width="36.207" height="17.067"/>
<rect x="98.126" y="284.836" transform="matrix(-0.7071 0.7071 -0.7071 -0.7071 396.2892 441.7295)" width="17.067" height="36.207"/>
<rect x="131.227" y="354.12" transform="matrix(-0.7071 0.7071 -0.7071 -0.7071 511.3575 513.4955)" width="36.207" height="17.067"/>
<rect x="234.678" y="378.707" transform="matrix(-0.7071 0.7071 -0.7071 -0.7071 695.7737 505.4208)" width="17.067" height="36.207"/>
<rect x="310.427" y="371.207" transform="matrix(-0.7071 0.7071 -0.7071 -0.7071 829.3535 415.9514)" width="36.207" height="17.067"/>
<rect x="379.725" y="165.372" transform="matrix(-0.7071 0.7071 -0.7071 -0.7071 792.5352 38.6708)" width="17.067" height="36.207"/>
<rect x="387.238" y="260.261" transform="matrix(-0.7071 0.7071 -0.7071 -0.7071 882.0276 172.2409)" width="36.207" height="17.067"/>
<rect x="174.94" y="114.164" transform="matrix(-0.7071 0.7071 -0.7071 -0.7071 406.7352 96.0589)" width="17.067" height="36.207"/>
<rect x="395.764" y="345.594" transform="matrix(-0.7071 0.7071 -0.7071 -0.7071 956.921 311.8841)" width="36.207" height="17.067"/>
<g>
</g>
<g>
</g>
<g>
</g>
<g>
</g>
<g>
</g>
<g>
</g>
<g>
</g>
<g>
</g>
<g>
</g>
<g>
</g>
<g>
</g>
<g>
</g>
<g>
</g>
<g>
</g>
<g>
</g>
</svg>
