<?xml version="1.0" encoding="iso-8859-1"?>
<!-- Generator: Adobe Illustrator 19.0.0, SVG Export Plug-In . SVG Version: 6.00 Build 0)  -->
<svg version="1.1" id="Capa_1" xmlns="http://www.w3.org/2000/svg" xmlns:xlink="http://www.w3.org/1999/xlink" x="0px" y="0px"
	 viewBox="0 0 512 512" style="enable-background:new 0 0 512 512;" xml:space="preserve">
<path style="fill:#965735;" d="M8.531,375.439v42.657c0,9.427,7.636,17.063,17.063,17.063H383.91
	c9.427,0,17.063-7.636,17.063-17.063v-42.657H8.531z"/>
<path style="fill:#BF7341;" d="M479.197,231.865c-6.134-1.851-12.669-1.945-18.854-0.256c-14.307,4.428-29.143,6.893-44.116,7.328
	h-15.254v-93.845c0-9.427-7.636-17.063-17.063-17.063H25.594c-9.427,0-17.063,7.636-17.063,17.063V383.97
	c0,9.427,7.636,17.063,17.063,17.063H383.91c9.427,0,17.063-7.636,17.063-17.063v-93.845h15.305
	c14.281-0.136,28.486,2.124,42.017,6.689c3.515,1.22,7.209,1.843,10.929,1.843c18.871-0.017,34.168-15.322,34.151-34.202
	c0-2.662-0.316-5.315-0.93-7.9C499.681,244.756,490.817,235.329,479.197,231.865z"/>
<rect x="460.693" y="256.026" style="fill:#965735;" width="17.063" height="17.063"/>
<path style="fill:#FFCD6B;" d="M59.719,196.281L230.346,76.842l0,0c65.964,0,119.439,53.474,119.439,119.439H59.719z"/>
<path style="fill:#FFBE5C;" d="M59.719,196.281v51.188c9.427,0,17.063,7.636,17.063,17.063c0,9.427-7.636,17.063-17.063,17.063
	v51.188h290.066V196.281H59.719z"/>
<path style="fill:#FCB344;" d="M349.785,196.281h-81.543c-33.98,55.684-80.741,102.478-136.399,136.501h217.942V196.281z"/>
<g>
	<circle style="fill:#F0913E;" cx="281.534" cy="256.026" r="25.594"/>
	<circle style="fill:#F0913E;" cx="153.564" cy="281.62" r="17.063"/>
	<rect x="221.815" y="290.151" style="fill:#F0913E;" width="17.063" height="17.063"/>
	<rect x="93.845" y="221.9" style="fill:#F0913E;" width="17.063" height="17.063"/>
</g>
<rect x="460.693" y="256.026" width="17.063" height="17.063"/>
<path d="M25.594,443.69H383.91c14.136,0,25.594-11.458,25.594-25.594V298.657h6.765c13.335-0.136,26.601,1.962,39.244,6.211
	c4.411,1.536,9.043,2.321,13.71,2.321c23.555,0.068,42.708-18.974,42.776-42.537c0.051-18.888-12.328-35.567-30.423-40.985
	c-7.661-2.269-15.8-2.372-23.512-0.282c-13.556,4.214-27.616,6.578-41.804,7.021h-6.757v-85.313
	c0-14.136-11.458-25.594-25.594-25.594h-25.594v17.063h25.594c4.709,0,8.531,3.822,8.531,8.531v93.845
	c0,4.709,3.822,8.531,8.531,8.531h15.263c15.732-0.452,31.336-3.02,46.385-7.636c4.658-1.263,9.572-1.186,14.188,0.213
	c8.642,2.594,15.246,9.606,17.319,18.394c3.344,13.735-5.085,27.582-18.812,30.918c-4.701,1.143-9.623,0.93-14.213-0.606
	c-14.435-4.88-29.595-7.294-44.832-7.158h-15.297c-4.709,0-8.531,3.822-8.531,8.531v93.845c0,4.709-3.822,8.531-8.531,8.531H25.594
	c-4.709,0-8.531-3.822-8.531-8.531V145.093c0-4.709,3.822-8.531,8.531-8.531h85.313v-17.063H25.594
	C11.458,119.499,0,130.956,0,145.093v273.003C0,432.232,11.458,443.69,25.594,443.69z M25.594,409.564H383.91
	c2.909-0.026,5.801-0.563,8.531-1.57v10.101c0,4.709-3.822,8.531-8.531,8.531H25.594c-4.709,0-8.531-3.822-8.531-8.531v-10.101
	C19.793,409.01,22.685,409.539,25.594,409.564z"/>
<path d="M54.191,189.908c-0.282,0.247-0.546,0.503-0.802,0.776c-0.452,0.52-0.836,1.092-1.143,1.706
	c-0.145,0.29-0.324,0.537-0.444,0.853c-0.384,0.947-0.589,1.962-0.614,2.986v51.239c0,4.709,3.822,8.531,8.531,8.531
	s8.531,3.822,8.531,8.531s-3.822,8.531-8.531,8.531s-8.531,3.822-8.531,8.531v51.188c0,4.709,3.822,8.531,8.531,8.531h290.066
	c4.709,0,8.531-3.822,8.531-8.531V196.281c-0.077-70.64-57.331-127.893-127.97-127.97c-1.749,0-3.455,0.537-4.888,1.544
	L54.831,189.294C54.609,189.49,54.396,189.694,54.191,189.908z M341.254,324.251H68.251v-35.584
	c13.326-4.701,20.322-19.323,15.621-32.649c-2.576-7.303-8.318-13.044-15.621-15.621v-35.584h273.003V324.251z M232.991,85.373
	c56.896,1.433,103.502,45.634,107.939,102.376H86.781L232.991,85.373z"/>
<path d="M281.534,290.125c18.846,0,34.125-15.28,34.125-34.125s-15.28-34.125-34.125-34.125s-34.125,15.28-34.125,34.125
	S262.689,290.125,281.534,290.125z M281.534,238.937c9.427,0,17.063,7.636,17.063,17.063c0,9.427-7.636,17.063-17.063,17.063
	s-17.063-7.636-17.063-17.063C264.472,246.581,272.107,238.937,281.534,238.937z"/>
<path d="M153.564,307.188c14.136,0,25.594-11.458,25.594-25.594c0-14.136-11.458-25.594-25.594-25.594s-25.594,11.458-25.594,25.594
	C127.97,295.731,139.428,307.188,153.564,307.188z M153.564,273.063c4.709,0,8.531,3.822,8.531,8.531
	c0,4.709-3.822,8.531-8.531,8.531s-8.531-3.822-8.531-8.531C145.033,276.885,148.855,273.063,153.564,273.063z"/>
<rect x="221.815" y="290.151" width="17.063" height="17.063"/>
<rect x="93.845" y="221.9" width="17.063" height="17.063"/>
<g>
</g>
<g>
</g>
<g>
</g>
<g>
</g>
<g>
</g>
<g>
</g>
<g>
</g>
<g>
</g>
<g>
</g>
<g>
</g>
<g>
</g>
<g>
</g>
<g>
</g>
<g>
</g>
<g>
</g>
</svg>
