<?xml version="1.0" encoding="iso-8859-1"?>
<!-- Generator: Adobe Illustrator 19.0.0, SVG Export Plug-In . SVG Version: 6.00 Build 0)  -->
<svg version="1.1" id="Capa_1" xmlns="http://www.w3.org/2000/svg" xmlns:xlink="http://www.w3.org/1999/xlink" x="0px" y="0px"
	 viewBox="0 0 512 512" style="enable-background:new 0 0 512 512;" xml:space="preserve">
<path style="fill:#A1CBE0;" d="M59.733,264.529c-28.279,0-51.2,22.921-51.2,51.2v187.733H256V264.529H59.733z"/>
<path style="fill:#B8DBE0;" d="M73.481,359.59l3.319-2.099c15.667-9.788,35.533-9.788,51.2,0c15.667,9.788,35.533,9.788,51.2,0
	c15.667-9.788,35.533-9.788,51.2,0c7.671,4.821,16.546,7.364,25.6,7.347V264.529H59.733c-28.279,0-51.2,22.921-51.2,51.2v37.726
	l18.714,8.858C42.121,369.318,59.537,368.294,73.481,359.59z"/>
<path style="fill:#F5EADF;" d="M503.467,315.729c0-28.279-22.921-51.2-51.2-51.2H256v238.933h247.467V315.729z"/>
<path style="fill:#F2B9B8;" d="M256,324.262h187.733c9.429,0,17.067,7.637,17.067,17.067v119.467l0,0H256l0,0V324.262L256,324.262z"
	/>
<rect x="256" y="383.996" style="fill:#F28685;" width="204.8" height="17.067"/>
<g>
	<path style="fill:#FFE0A3;" d="M253.952,8.529L253.952,8.529c-28.279,24.218-31.565,66.773-7.347,95.053
		c2.253,2.637,4.71,5.094,7.347,7.347l0,0c28.279-24.218,31.565-66.773,7.347-95.053C259.046,13.239,256.589,10.782,253.952,8.529z"
		/>
	<path style="fill:#FFE0A3;" d="M390.485,8.529L390.485,8.529c-28.279,24.218-31.565,66.773-7.347,95.053
		c2.253,2.637,4.71,5.094,7.347,7.347l0,0c28.279-24.218,31.565-66.773,7.347-95.053C395.58,13.239,393.122,10.782,390.485,8.529z"
		/>
</g>
<g>
	<rect x="230.4" y="145.062" style="fill:#A1CBE0;" width="51.2" height="119.467"/>
	<rect x="366.933" y="145.062" style="fill:#A1CBE0;" width="51.2" height="119.467"/>
	<rect x="93.867" y="145.062" style="fill:#A1CBE0;" width="51.2" height="119.467"/>
</g>
<g>
	<rect x="230.4" y="230.396" style="fill:#91C1D9;" width="51.2" height="34.133"/>
	<rect x="366.933" y="230.396" style="fill:#91C1D9;" width="51.2" height="34.133"/>
	<rect x="93.867" y="230.396" style="fill:#91C1D9;" width="51.2" height="34.133"/>
</g>
<path style="fill:#FFE0A3;" d="M117.419,8.529L117.419,8.529c-28.279,24.218-31.565,66.773-7.347,95.053
	c2.253,2.637,4.71,5.094,7.347,7.347l0,0c28.279-24.218,31.565-66.773,7.347-95.053C122.513,13.239,120.055,10.782,117.419,8.529z"
	/>
<g>
	<rect x="85.333" y="290.129" style="fill:#F2B9B8;" width="17.067" height="17.067"/>
	<rect x="136.533" y="307.196" style="fill:#F2B9B8;" width="17.067" height="17.067"/>
	<rect x="187.733" y="290.129" style="fill:#F2B9B8;" width="17.067" height="17.067"/>
	<rect x="34.133" y="307.196" style="fill:#F2B9B8;" width="17.067" height="17.067"/>
</g>
<path d="M452.267,255.996H59.733C26.761,256.03,0.034,282.756,0,315.729v187.733c0,4.71,3.823,8.533,8.533,8.533h494.933
	c4.71,0,8.533-3.823,8.533-8.533V315.729C511.966,282.748,485.239,256.03,452.267,255.996z M59.733,273.062h187.733v82.227
	c-4.429-0.93-8.661-2.62-12.51-5.009c-18.441-11.571-41.873-11.571-60.314,0c-12.868,8.064-29.218,8.064-42.086,0
	c-18.441-11.571-41.865-11.571-60.305,0l-3.319,2.091c-11.477,7.151-25.796,7.987-38.033,2.227l-13.833-6.545v-32.324
	C17.092,292.169,36.181,273.088,59.733,273.062z M264.533,401.062h187.733v51.2H264.533V401.062z M452.267,383.996H264.533v-51.2
	h179.2c4.71,0,8.533,3.823,8.533,8.533V383.996z M17.067,494.929v-128l6.528,3.081c17.519,8.235,38.016,7.023,54.443-3.217
	l3.319-2.091c12.868-8.081,29.218-8.081,42.086,0c18.441,11.554,41.873,11.554,60.314,0c12.868-8.081,29.218-8.081,42.086,0
	c6.571,4.139,13.935,6.861,21.623,7.996v122.231H17.067z M494.933,494.929h-230.4v-25.6H460.8c4.71,0,8.533-3.823,8.533-8.533
	V341.329c0-14.14-11.46-25.6-25.6-25.6h-179.2v-42.667h187.733c23.552,0.026,42.641,19.115,42.667,42.667V494.929z"/>
<rect x="85.333" y="290.129" width="17.067" height="17.067"/>
<rect x="136.533" y="307.196" width="17.067" height="17.067"/>
<rect x="187.733" y="290.129" width="17.067" height="17.067"/>
<rect x="34.133" y="307.196" width="17.067" height="17.067"/>
<path d="M221.867,238.929h17.067v-85.333h34.133v85.333h17.067v-93.867c0-4.71-3.823-8.533-8.533-8.533h-51.2
	c-4.71,0-8.533,3.823-8.533,8.533V238.929z"/>
<path d="M248.397,117.406c3.191,2.731,7.902,2.731,11.093,0c31.855-27.29,35.558-75.23,8.269-107.085
	c-2.543-2.961-5.299-5.726-8.269-8.269c-3.191-2.731-7.902-2.731-11.093,0c-31.855,27.29-35.558,75.23-8.269,107.085
	C242.671,112.098,245.436,114.863,248.397,117.406z M253.952,20.476c20.028,22.357,20.028,56.218,0,78.575
	C233.924,76.685,233.924,42.833,253.952,20.476z"/>
<path d="M358.4,238.929h17.067v-85.333H409.6v85.333h17.067v-93.867c0-4.71-3.823-8.533-8.533-8.533h-51.2
	c-4.71,0-8.533,3.823-8.533,8.533V238.929z"/>
<path d="M384.93,117.406c3.191,2.731,7.902,2.731,11.093,0c31.855-27.29,35.558-75.23,8.269-107.085
	c-2.543-2.961-5.299-5.726-8.269-8.269c-3.191-2.731-7.902-2.731-11.093,0c-31.855,27.29-35.558,75.23-8.269,107.085
	C379.204,112.098,381.969,114.863,384.93,117.406z M390.485,20.476c20.028,22.357,20.028,56.218,0,78.575
	C370.449,76.685,370.449,42.833,390.485,20.476z"/>
<path d="M85.333,238.929H102.4v-85.333h34.133v85.333H153.6v-93.867c0-4.71-3.823-8.533-8.533-8.533h-51.2
	c-4.71,0-8.533,3.823-8.533,8.533V238.929z"/>
<path d="M111.863,117.406c3.191,2.731,7.902,2.731,11.093,0c31.855-27.29,35.558-75.23,8.269-107.085
	c-2.543-2.961-5.299-5.726-8.269-8.269c-3.191-2.731-7.902-2.731-11.093,0c-31.855,27.281-35.558,75.23-8.269,107.085
	C106.138,112.098,108.902,114.863,111.863,117.406z M117.419,20.476c20.028,22.357,20.028,56.218,0,78.575
	C97.391,76.685,97.391,42.833,117.419,20.476z"/>
<g>
</g>
<g>
</g>
<g>
</g>
<g>
</g>
<g>
</g>
<g>
</g>
<g>
</g>
<g>
</g>
<g>
</g>
<g>
</g>
<g>
</g>
<g>
</g>
<g>
</g>
<g>
</g>
<g>
</g>
</svg>
