<svg id="Capa_1" enable-background="new 0 0 512 512" height="512" viewBox="0 0 512 512" width="512" xmlns="http://www.w3.org/2000/svg"><g><g><path d="m138.787 46.5h232.979l-5.308-19.29-5.052-12.922c-1.581-4.045-5.593-6.607-9.928-6.34l-179.747 11.066-15.998 1.991c-3.836.236-7.198 2.65-8.647 6.21z" fill="#8e868e"/><path d="m374 46.5-118 8.84-119-8.84 8.22-20.18c1.44-3.56 4.81-5.97 8.64-6.21l17.871-1.096c-2.983 2.83-.985 7.851 3.127 7.858l191.601.338z" fill="#766d78"/><path d="m102.872 92.447 304.426.255c4.971 0 9-4.029 9-9l2.202-8.447v-.899c0-1.227-.226-2.444-.667-3.59l-6.868-17.857c-1.485-3.862-5.196-6.41-9.333-6.41h-275.062l-15.215 1.239c-4.138 0-7.848 2.548-9.333 6.41l-6.894 16.852c-.441 1.146-.667 2.362-.667 3.59l-.589 8.857c0 4.97 4.03 9 9 9z" fill="#8e868e"/><path d="m418.5 75.255v10.245c0 4.971-4.029 9-9 9l-147.904 6.543-160.096-6.543c-4.971 0-9-4.029-9-9v-11.14c0-1.23.23-2.45.67-3.59l6.86-17.86c1.49-3.86 5.2-6.41 9.34-6.41h17.2l-5.314 13.803c-2.774 7.206 2.545 14.952 10.266 14.952z" fill="#766d78"/><path d="m153.357 499.871 207.728 2.363c7.822 0 13.952-3.778 14.574-11.574l1.787-11.149 1.24-15.511-4.303-6.149 5.502-8.851 25.615-320.5-150-10.862-146.755 10.862 29.66 357.564c.621 7.797 7.13 13.807 14.952 13.807z" fill="#f9eac7"/><path d="m377.447 479.511-.847 11.179c-.62 7.8-7.13 13.81-14.95 13.81h-212.3c-7.82 0-14.33-6.01-14.95-13.81l-2.13-26.69 3.325-8.191-4.522-6.809-25.573-320.5 5.968-9.074 16.072 9.074 28.249 335.437c.741 8.805 8.104 15.573 16.94 15.573z" fill="#f4dbb3"/><path d="m103.617 126.298 304.149 1.106c4.971 0 9-4.029 9-9l1.734-8.904v-6c0-4.971-4.029-9-9-9h-303l-3.628.862c-4.971 0-9 4.029-9 9l.745 12.936c0 4.97 4.029 9 9 9z" fill="#8e868e"/><path d="m418.5 109.5v10c0 4.971-4.029 9-9 9h-308c-4.971 0-9-4.029-9-9v-16c0-4.971 4.029-9 9-9h12v5c0 5.523 4.477 10 10 10z" fill="#766d78"/><path d="m409.992 210.296-17.074 213.999c-.415 5.198-4.754 9.205-9.968 9.205h-229.725l-23.119-2.585c-5.214 0-9.554-4.007-9.968-9.205l-16.244-208.327c-.464-5.818 4.131-10.795 9.967-10.795l19.661-3.058 266.502-.029c5.836-.001 10.433 4.977 9.968 10.795z" fill="#f6d190"/><path d="m153.225 433.5h-25.175c-5.21 0-9.55-4.01-9.97-9.2l-17.07-213.98c-.46-5.82 4.13-10.79 9.97-10.79h22.542z" fill="#ecbd83"/><path d="m197.83 333.46c0 27.315 10.764 45.455 34.234 45.455s35.195-18.141 35.195-45.456c0-24.139-9.532-44.24-27.947-48.587l-7.95.49-8.142-.333c-4.231 1.095-7.982 3.033-11.245 5.667 0 0-1.928 2.526-3.134 3.879-8.062 9.049-11.011 23.009-11.011 38.885z" fill="#b06c6c"/><path d="m261.19 363.22c-5.8 11.97-15.74 19.7-29.61 19.7-23.47 0-35.67-22.15-35.67-49.46 0-18.25 5.447-34.175 16.057-42.756-4.02 8.29-6.057 18.576-6.057 29.756 0 27.31 12.2 49.46 35.67 49.46 7.79 0 14.34-2.44 19.61-6.7z" fill="#9d5e5e"/><path d="m247.298 337.383c-19.315 19.315-25.915 40.872-9.319 57.468 9.402 9.402 19.134 12.2 31.17 8.5 1.994-.613 5.98-1.924 5.98-1.924 7.212-3.281 14.346-8.424 20.907-14.985 17.081-17.081 24.553-38.052 14.574-54.152l-7.014-4.737-4.466-6.502c-5.453-3.208-11.444-4.456-17.639-4.04 0 0-5.18 1.192-7.894 1.963-9.515 2.7-17.644 9.753-26.299 18.409z" fill="#b06c6c"/><path d="m275.13 401.43c-11.334 5.158-22.858 5.715-32.648-.052l-4.801-6.505-6.701-4.782c-9.933-16.095-2.458-37.033 14.601-54.1 11.13-11.12 23.91-18.169 35.91-18.979-7.21 3.28-14.35 8.419-20.91 14.979-19.31 19.32-26.34 43.6-9.74 60.2 7.029 7.039 15.449 9.829 24.289 9.239z" fill="#9d5e5e"/></g><g><path d="m426.641 73.985c0-2.157-.393-4.271-1.167-6.285l-6.874-17.872c-2.582-6.713-9.149-11.224-16.342-11.224h-22.535l-10.74-27.471c-2.779-7.109-9.757-11.564-17.383-11.101l-131.091 8.07c-4.134.254-7.279 3.812-7.025 7.947s3.822 7.281 7.947 7.025l131.091-8.07c1.08-.067 2.092.571 2.49 1.59l8.605 22.009h-215.068l4.017-9.866c.361-.887 1.212-1.499 2.169-1.558l31.665-1.949c4.134-.254 7.279-3.812 7.025-7.947s-3.818-7.279-7.947-7.025l-31.665 1.949c-6.675.411-12.618 4.679-15.14 10.873l-6.321 15.522h-22.612c-7.193 0-13.76 4.51-16.341 11.223l-6.873 17.875c-.774 2.014-1.167 4.128-1.167 6.285v11.153c0 3.323.996 6.415 2.692 9.008-1.696 2.593-2.692 5.684-2.692 9.008v16.014c0 8.096 5.863 14.836 13.564 16.23l4.645 58.223c-1.89.939-3.624 2.199-5.079 3.775-3.304 3.578-4.977 8.415-4.589 13.271l17.087 214.157c.577 7.237 5.613 13.207 12.25 15.303l4.081 51.153c.927 11.62 10.784 20.722 22.441 20.722h212.481c11.657 0 21.515-9.103 22.441-20.722l4.081-51.153c6.637-2.096 11.672-8.066 12.25-15.302l12.58-157.672c.33-4.129-2.75-7.744-6.879-8.073-4.121-.339-7.743 2.75-8.073 6.879l-12.58 157.673c-.104 1.294-1.202 2.309-2.501 2.309h-255.119c-1.299 0-2.397-1.014-2.501-2.309l-17.087-214.157c-.076-.953.38-1.6.658-1.902.278-.301.888-.807 1.843-.807l289.296-.026c.956 0 1.565.505 1.844.807s.733.949.658 1.901l-1.714 21.481c-.33 4.129 2.75 7.744 6.879 8.073 4.136.341 7.744-2.75 8.073-6.879l1.714-21.481c.388-4.855-1.285-9.692-4.59-13.271-1.455-1.576-3.189-2.835-5.078-3.774l4.643-58.197c7.701-1.394 13.564-8.133 13.564-16.23v-16.014c0-3.323-.996-6.415-2.692-9.008 1.696-2.593 2.692-5.684 2.692-9.008v-11.155zm-64.4 423.015h-212.482c-3.89 0-7.18-3.038-7.489-6.916l-1.126-14.116h147.666c4.142 0 7.5-3.358 7.5-7.5s-3.358-7.5-7.5-7.5h-148.863l-1.598-20.03h235.303l-1.598 20.03h-48.212c-4.142 0-7.5 3.358-7.5 7.5s3.358 7.5 7.5 7.5h47.016l-1.126 14.116c-.312 3.878-3.601 6.916-7.491 6.916zm-261.882-423.015c0-.309.056-.612.167-.9l6.875-17.873c.37-.961 1.31-1.607 2.341-1.607h292.517c1.031 0 1.971.646 2.341 1.608l6.874 17.872c.111.289.167.592.167.901v11.153c0 .832-.676 1.508-1.508 1.508h-308.266c-.832 0-1.508-.676-1.508-1.508zm311.282 29.169v16.014c0 .832-.676 1.508-1.508 1.508h-308.266c-.832 0-1.508-.676-1.508-1.508v-16.014c0-.832.676-1.508 1.508-1.508h308.266c.831 0 1.508.676 1.508 1.508zm-293.174 88.609-4.475-56.088h284.015l-4.473 56.063z"/><path d="m333.56 240.285c0-4.142-3.358-7.5-7.5-7.5h-140.121c-4.142 0-7.5 3.358-7.5 7.5s3.358 7.5 7.5 7.5h140.121c4.143 0 7.5-3.358 7.5-7.5z"/><path d="m205.506 349.082c-.908-4.041-4.923-6.582-8.961-5.673-4.042.908-6.582 4.92-5.673 8.961 4.499 20.021 15.967 33.202 31.816 36.887 1.896 4.379 4.656 8.469 8.329 12.142 7.669 7.669 17.132 11.429 27.318 11.428 14.084-.001 29.548-7.192 43.539-21.183 24.108-24.108 28.028-52.583 9.755-70.857-9.867-10.038-24.707-14.02-39.217-9.854-5.972-21.578-20.874-34.624-40.348-34.624-19.778-.075-35.896 14.111-41.141 37.717-.92 4.039 1.607 8.059 5.646 8.979 4.038.918 8.059-1.607 8.979-5.646 1.71-7.503 5.911-18.92 15.952-23.755-.635 3.386-1.14 7.151-1.549 11.483-1.48 15.693 2.066 23.944 5.196 31.225 1.375 3.199 2.587 6.037 3.386 9.464-5.474 8.785-8.463 17.734-8.88 26.243-8.827-5.343-12.591-16.015-14.147-22.937zm85.761 31.955c-11.06 11.06-27.021 20.205-40.508 15.578 2.88-1.967 5.907-4.281 9.195-7.025 12.043-10.049 15.36-18.369 18.287-25.709 2.599-6.517 4.843-12.146 14.035-19.752 4.7-3.889 8.534-6.651 12.062-8.68 9.465 14.366-.583 33.101-13.071 45.588zm-12.586-56.191c2.478-.539 8.109-1.068 13.232.712-2.839 1.943-5.854 4.245-9.199 7.014-12.143 10.049-15.469 18.392-18.404 25.753-2.596 6.51-4.837 12.132-13.964 19.748-4.634 3.867-8.457 6.624-12.034 8.669-.804-1.219-2.159-3.773-2.972-6.602-3.483-13.152 5.392-28.343 16.04-38.992 8.754-8.755 18.45-14.545 27.301-16.302zm-39.753 5.543c-2.771-6.446-5.164-12.012-4.043-23.891.573-6.073 1.325-10.754 2.385-14.682 13.445 2.706 18.947 15.784 21.17 24.999-5.365 3.068-13.018 8.76-18.9 15.001-.207-.483-.411-.96-.612-1.427z"/></g></g></svg>