<svg id="Capa_1" enable-background="new 0 0 512 512" height="512" viewBox="0 0 512 512" width="512" xmlns="http://www.w3.org/2000/svg"><g><g><path d="m224.475 106.229-108.777 8.271c-16.972 0-29.54 5.657-39.263 16.977 0 0-.003.009-.004.01-2.157 2.508-4.165 5.285-6.054 8.342-1.52 2.46-.62 5.7 1.94 7.05 22.78 12.06 43.38 25.62 43.38 51.62v84.61l6.083 4.33 5.949-1.415c1.801 1.245 2.968 2.294 2.968 2.294 11.075 2.954 17.137 7.68 36.55 7.68 28.23 0 28.23-10 56.46-10s28.23 10 56.46 10c26.48 0 28.12-11.8 51.53-12.89v-57.761-110.847z" fill="#f8f7f7"/><path d="m326.337 72.277c-.275-.676.612-3.782.612-3.782-7.266-15.611-23.041-25.995-40.794-25.995h-124.913c-3.265 0-6.463.351-9.553 1.021 0 0-.003.002-.003.002.001-.001.002-.003.003-.004-.703.153-1.4.322-2.091.507 0 0-8.166 4.661-12.069 7.186-9.48 6.131-15.277 14.267-18.038 25.867l-1.77 7.42 107.83 5.904 106.147-5.903s-4.491-10.113-5.361-12.223z" fill="#f8f7f7"/><path d="m331.698 84.5-106.15 5.9-109.85-5.9 1.77-7.42c2.03-8.55 6.43-16.04 12.4-21.84 5.468-5.308 12.253-9.213 19.729-11.213.003-.001-.101.122-.148.179-8.073 9.6-.993 24.294 11.551 24.294l165.949-.005c.32.65.6 1.325.87 1.995.87 2.11 1.57 4.32 2.11 6.59z" fill="#e8e8e8"/><circle cx="223.698" cy="25" fill="#e8e8e8" r="17.5"/><g><path d="m438.238 360.36c-5.33 31.37-32.28 54.14-64.1 54.14h-41.94v-30h41.94c17.14 0 31.65-12.27 34.52-29.17 4.94-29.08 4.94-58.58 0-87.66-2.87-16.9-17.38-29.17-34.52-29.17h-41.94v-30h41.94c31.82 0 58.77 22.77 64.1 54.15 5.5 32.41 5.5 65.29 0 97.71z" fill="#8e868e"/></g><path d="m331.698 313.11v139.39l-3.826 22h-207.247l-2.315-161.39c23.43 1.09 22.449 5.89 48.939 5.89 28.23 0 28.23-10 56.46-10s28.23 10 56.46 10c26.479 0 28.119-4.8 51.529-5.89z" fill="#d2af8c"/><path d="m331.698 283.11v30c-23.41 1.09-25.05 9.89-51.53 9.89-28.23 0-28.23-10-56.46-10s-28.23 10-56.46 10c-26.49 0-28.12-8.8-51.55-9.89l6.248-15.596-6.248-14.404c23.43 1.09 25.06 9.89 51.55 9.89 28.23 0 28.23-10 56.46-10s28.23 10 56.46 10c26.48 0 28.12-8.8 51.53-9.89z" fill="#f4dbb3"/><path d="m135.698 198.5v91.34l-17.389 5.075-2.611-11.805v-84.61c0-26-20.6-39.56-43.38-51.62-2.56-1.35-3.46-4.59-1.94-7.05 1.89-3.06 3.9-5.83 6.05-8.34l.01-.01c1.45-1.69 2.97-3.26 4.56-4.69 9.9 6.75 19.49 13.3 19.92 13.59 17.04 11.44 34.78 29.21 34.78 58.12z" fill="#e8e8e8"/><path d="m331.698 452.5v22l-104.395 5.161-111.605-5.161v-161.39c2.797.13 6.304-5.075 8.56-4.752 2.793.4 9.211 7.896 11.44 8.488v125.654c0 5.523 4.477 10 10 10z" fill="#c9a281"/><g><path d="m113.145 113.064 222.574-.362c8.284 0 15.979-13.202 15.979-13.202 0-8.284-6.716-15-15-15h-226s-13.447 6.716-13.447 15c0 8.284 7.61 13.564 15.894 13.564z" fill="#9e959e"/><path d="m351.698 99.5c0 8.28-6.72 15-15 15h-226c-4.14 0-7.89-1.68-10.6-4.4-2.72-2.71-4.4-6.46-4.4-10.6 0-8.28 6.72-15 15-15 0 4.14 1.68 7.89 4.4 10.6 2.71 2.72 6.46 4.4 10.6 4.4z" fill="#8e868e"/></g><path d="m172.973 474.5 4.555-22 .004-233h-30l-.004 233 3.152 22z" fill="#8e868e"/><path d="m297.487 474.5 2.381-22-.003-233h-30l.003 233 3.014 22z" fill="#8e868e"/><path d="m147.528 452.5h30v27.161h-30z" fill="#766d78"/><path d="m269.868 452.5h30v24.895h-30z" fill="#766d78"/><path d="m337.709 248.5h-202.01l-24.44-1.638c-2.761 0-5-2.239-5-5l-.248-37.651c0-2.761 2.239-5 5-5l24.688-.711h202.01c2.761 0 5 2.239 5 5v40c0 2.761-2.239 5-5 5z" fill="#9e959e"/><path d="m337.393 424.625-201.694-.005-24.688-1.987c-2.761 0-5-2.239-5-5v-36.174c0-2.761 2.239-5 5-5l24.688-1.839 201.694.005c2.761 0 5 2.239 5 5v40c0 2.761-2.239 5-5 5z" fill="#9e959e"/><path d="m135.698 198.5v50h-26.01c-2.76 0-5-2.24-5-5v-40c0-2.76 2.24-5 5-5z" fill="#8e868e"/><path d="m135.698 374.62v50h-26.33c-2.76 0-5-2.23-5-5v-40c0-2.76 2.24-5 5-5z" fill="#8e868e"/><path d="m135.698 286.846v30c-7.234-2.271-13.74-3.445-20-3.735v-30c7.405-.001 12.447 1.591 20 3.735z" fill="#eac89f"/><g><path d="m113.145 503.064 222.574-.362c8.284 0 15.979-13.202 15.979-13.202 0-8.284-6.716-15-15-15h-226s-13.447 6.716-13.447 15c0 8.284 7.61 13.564 15.894 13.564z" fill="#9e959e"/><path d="m351.698 489.5c0 8.28-6.72 15-15 15h-226c-4.14 0-7.89-1.68-10.6-4.4-2.72-2.71-4.4-6.46-4.4-10.6 0-8.28 6.72-15 15-15 0 4.14 1.68 7.89 4.4 10.6 2.71 2.72 6.46 4.4 10.6 4.4z" fill="#8e868e"/></g></g><path d="m445.632 261.394c-5.945-34.995-36.012-60.394-71.494-60.394h-24.182c-1.064-5.222-5.397-9.262-10.759-9.903v-18.097c0-4.142-3.357-7.5-7.5-7.5s-7.5 3.358-7.5 7.5v18h-92.5v-69h92.5v16c0 4.142 3.357 7.5 7.5 7.5s7.5-3.358 7.5-7.5v-16.142c11.234-1.248 20-10.796 20-22.358 0-12.095-9.594-21.986-21.57-22.476-4.813-24.069-26.585-42.105-51.473-42.024h-39.551c1.343-3.064 2.094-6.446 2.094-10 0-13.785-11.215-25-25-25s-25 11.215-25 25c0 3.554.75 6.936 2.094 10h-39.55c-24.67-.131-46.425 17.6-51.473 42.024-11.977.489-21.571 10.381-21.571 22.476 0 4.359 1.25 8.429 3.404 11.879-11.162 4.552-20.294 12.677-27.606 24.51-1.808 2.924-2.326 6.506-1.424 9.827.906 3.335 3.18 6.176 6.235 7.793 21.861 11.57 35.559 21.789 38.697 37.693-5.853 1.038-10.316 6.15-10.316 12.296v40c0 6.387 4.818 11.662 11.01 12.403v111.282c-6.344.594-11.326 5.944-11.326 12.441v40c0 6.496 4.983 11.846 11.326 12.441v35.14c-10.992 1.472-19.5 10.905-19.5 22.294 0 12.407 10.094 22.5 22.5 22.5h226c12.406 0 22.5-10.093 22.5-22.5 0-11.732-9.028-21.39-20.5-22.406v-35.114c5.256-.766 9.461-4.802 10.461-9.979h24.479c35.481 0 65.549-25.395 71.494-60.386 5.642-33.255 5.642-66.973.001-100.22zm-138.265 205.606v-34.875h16.83v34.875zm-30 0v-34.875h15v34.875zm-92.34 0v-34.875h77.34v34.875zm-30 0v-34.875h15v34.875zm-31.83 0v-34.875h16.83v34.875zm212.011-261v35h-223.021v-35zm-223.337 211.125v-35h100.826c4.143 0 7.5-3.358 7.5-7.5s-3.357-7.5-7.5-7.5h-27.67v-37.831c6.028-1.089 10.489-2.753 14.544-4.268 6.498-2.428 12.109-4.525 24.134-4.525s17.638 2.097 24.136 4.525c4.041 1.51 8.51 3.175 14.526 4.264v37.836h-14.67c-4.143 0-7.5 3.358-7.5 7.5s3.357 7.5 7.5 7.5h87.194v35h-223.02zm11.326-126.38c7.388.587 11.943 2.174 16.83 3.994v14.106c-4.422-1.416-9.676-2.651-16.83-3.128zm31.83-34.745h15v111.125h-15zm169.17 49.717c-7.155.479-12.408 1.715-16.83 3.132v-14.105c4.888-1.822 9.442-3.41 16.83-3.998zm-31.83 61.408h-15v-111.125h15zm-107.34-67.831c6.028-1.089 10.489-2.753 14.544-4.268 6.498-2.428 12.109-4.525 24.134-4.525s17.637 2.097 24.135 4.525c4.041 1.51 8.511 3.175 14.527 4.264v14.691c-3.377-.803-6.196-1.855-9.275-3.006-6.867-2.566-14.65-5.475-29.387-5.475-14.735 0-22.519 2.908-29.385 5.475-3.075 1.149-5.907 2.203-9.293 3.008zm77.34-15.313c-3.378-.803-6.197-1.856-9.276-3.006-5.504-2.056-11.606-4.329-21.394-5.152v-19.823h30.67zm-45.67-8.234c-10.366.749-16.692 3.103-22.377 5.228-3.075 1.149-5.907 2.203-9.293 3.008v-27.983h31.67zm90.67 91.378v-42.381c4.889-1.822 9.443-3.41 16.83-3.998v46.379zm16.83-91.408c-7.154.479-12.408 1.715-16.83 3.132v-22.849h16.83zm-184.17-19.717v22.845c-4.422-1.416-9.676-2.651-16.83-3.129v-19.716zm-16.83 64.745c7.388.587 11.943 2.174 16.83 3.994v42.386h-16.83zm90.5-295.745c0-5.514 4.486-10 10-10s10 4.486 10 10-4.486 10-10 10-10-4.486-10-10zm-103 82c-4.136 0-7.5-3.364-7.5-7.5s3.364-7.5 7.5-7.5h43c4.143 0 7.5-3.358 7.5-7.5s-3.357-7.5-7.5-7.5h-28.453c4.645-15.989 19.187-27 35.997-27h124.913c16.81 0 31.351 11.012 35.997 27h-133.454c-4.143 0-7.5 3.358-7.5 7.5s3.357 7.5 7.5 7.5h148c4.136 0 7.5 3.364 7.5 7.5s-3.364 7.5-7.5 7.5zm-32.489 34.524c9.099-13.479 20.766-19.524 37.489-19.524h101v69h-94.022c-3.518-24.805-24.294-38.618-44.467-49.476zm266.489 347.976c0 4.136-3.364 7.5-7.5 7.5h-226c-4.136 0-7.5-3.364-7.5-7.5s3.364-7.5 7.5-7.5h226c4.136 0 7.5 3.364 7.5 7.5zm86.147-130.396c-4.716 27.752-28.565 47.896-56.706 47.896h-24.246v-15h24.246c20.803 0 38.43-14.894 41.914-35.414 2.103-12.379 3.349-24.991 3.703-37.487.117-4.141-3.144-7.592-7.284-7.71-.072-.002-.145-.003-.217-.003-4.044 0-7.378 3.219-7.493 7.287-.335 11.799-1.512 23.709-3.498 35.402-2.255 13.283-13.664 22.925-27.125 22.925h-24.529c-1.086-5.057-5.24-8.976-10.412-9.729v-111.368c5.362-.641 9.694-4.681 10.759-9.903h24.182c13.462 0 24.87 9.642 27.125 22.926.886 5.21 1.617 10.504 2.174 15.735.41 3.849 3.663 6.706 7.449 6.706.265 0 .533-.014.803-.042 4.119-.439 7.103-4.133 6.664-8.252-.59-5.538-1.364-11.143-2.301-16.658-3.485-20.521-21.112-35.415-41.914-35.415h-23.93v-15h23.93c28.143 0 51.99 20.147 56.705 47.905 5.359 31.58 5.359 63.61.001 95.199z"/></g></svg>