<svg id="Capa_1" enable-background="new 0 0 512 512" height="512" viewBox="0 0 512 512" width="512" xmlns="http://www.w3.org/2000/svg"><g><g><g><path d="m447.93 62.083-126.295 9.905-5.083 1.44c-5.204.408-9.218 4.75-9.218 9.969l-.598 19.864 148.671-1.025 3.304-20v-10.183c.001-5.831-4.968-10.426-10.781-9.97z" fill="#9e959e"/><path d="m458.712 82.238v20h-153v-19.75c0-5.22 4.01-9.56 9.22-9.97l6.703-.529c-.056 4.401 4.035 9.941 10.065 10.108z" fill="#8e868e"/><path d="m474.011 101.238h-179.599l-2.179 1c-5.523 0-10 4.477-10 10l.33 18h199.046l2.402-14v-5c0-5.523-4.477-10-10-10z" fill="#9e959e"/><path d="m484.012 111.238v19l-98.953 5.619-104.647-5.619v-19c0-5.523 4.477-10 10-10h10c0 5.523 4.477 10 10 10z" fill="#8e868e"/><path d="m481.442 199.238-7.63 142.06-182.79-.03 1.23-100.218-9.18-41.812 105.18-6.078z" fill="#f6d190"/><path d="m483.612 158.738-2.17 40.5h-198.37l3.125-18.849-5.385-21.481z" fill="#f9eac7"/><g><path d="m313.022 341.268h-22l-7.95-142.03 6.37-4.097 15.63 4.097z" fill="#ecbd83"/><path d="m302.812 158.908 2.26 40.33h-22l-2.26-40.33z" fill="#f4dbb3"/></g><path d="m352.582 259.738c-11.884 24.595-13.021 48.538 8.112 58.749s41.756-4.417 53.639-29.012c10.529-21.792 10.665-44.096-4.14-55.999 0 0-4.891-1.253-7.3-2.417-2.673-1.291-4.599-3.547-7.239-4.073-18.231-3.639-32.691 11.268-43.072 32.752z" fill="#b06c6c"/><path d="m373.692 318.488c2.44 1.18 4.86 2.02 7.27 2.56-6.51 1.46-13.36.78-20.27-2.56-21.13-10.21-22.49-35.46-10.6-60.05 10.51-21.76 27.86-35.72 46.36-31.58-13.41 2.98-25.36 15.02-33.36 31.58-11.89 24.59-10.53 49.84 10.6 60.05z" fill="#9d5e5e"/><path d="m485.011 130.238h-204.599l-.151.353c-5.523 0-10 4.477-10 10l.018 7.367c0 5.523 4.477 10 10 10l203.732.119c5.523 0 10-4.477 10-10l1-1.839v-6c0-5.523-4.477-10-10-10z" fill="#9e959e"/><path d="m495.012 142.238v7c0 5.52-4.48 10-10 10h-205.6c-5.52 0-10-4.48-10-10v-9c0-5.52 4.48-10 10-10h9c0 6.63 5.37 12 12 12z" fill="#8e868e"/></g><path d="m484.352 332.238-12.664 100.066c-.108.854-.269 1.69-.479 2.505 0 0-12.397 12.542-21.601 12.553l-136.264-1.925c-10.07.013-18.579-7.464-19.862-17.452l-12.369-95.748 100.792-5.977z" fill="#d2af8c"/><g><path d="m196.018 62.083-126.295 9.906-5.083 1.44c-5.204.408-9.218 4.75-9.218 9.969l-.598 19.864 148.671-1.025 3.304-20v-10.184c0-5.831-4.968-10.426-10.781-9.97z" fill="#9e959e"/><path d="m206.8 82.238v20h-153v-19.75c0-5.22 4.01-9.56 9.22-9.97l6.703-.529c-.056 4.401 4.035 9.941 10.065 10.108z" fill="#8e868e"/><path d="m222.099 101.238h-179.599l-2.179 1c-5.523 0-10 4.477-10 10l.33 18h199.046l2.402-14v-5c0-5.523-4.477-10-10-10z" fill="#9e959e"/><path d="m232.1 111.238v19l-98.953 5.619-104.647-5.619v-19c0-5.523 4.477-10 10-10h10c0 5.523 4.477 10 10 10z" fill="#8e868e"/><path d="m229.53 199.238-7.63 142.06-182.79-.03 1.229-100.218-9.179-41.812 105.179-6.078z" fill="#f6d190"/><path d="m231.7 158.738-2.17 40.5h-198.37l3.124-18.849-5.384-21.481z" fill="#f9eac7"/><g><path d="m61.11 341.268h-22l-7.95-142.03 6.37-4.097 15.63 4.097z" fill="#ecbd83"/><path d="m50.9 158.908 2.26 40.33h-22l-2.26-40.33z" fill="#f4dbb3"/></g><path d="m100.67 259.738c-11.884 24.595-13.021 48.538 8.112 58.749s41.756-4.417 53.639-29.012c10.529-21.792 10.665-44.096-4.14-55.999 0 0-4.891-1.253-7.3-2.417-2.673-1.291-4.599-3.547-7.239-4.073-18.231-3.639-32.692 11.268-43.072 32.752z" fill="#b06c6c"/><path d="m121.78 318.488c2.44 1.18 4.86 2.02 7.27 2.56-6.51 1.46-13.36.78-20.27-2.56-21.13-10.21-22.49-35.46-10.6-60.05 10.51-21.76 27.86-35.72 46.36-31.58-13.41 2.98-25.36 15.02-33.36 31.58-11.89 24.59-10.53 49.84 10.6 60.05z" fill="#9d5e5e"/><path d="m233.099 130.238h-204.599l-.151.353c-5.523 0-10 4.477-10 10l.018 7.367c0 5.523 4.477 10 10 10l203.732.119c5.523 0 10-4.477 10-10l1-1.839v-6c0-5.523-4.477-10-10-10z" fill="#9e959e"/><path d="m243.1 142.238v7c0 5.52-4.48 10-10 10h-205.6c-5.52 0-10-4.48-10-10v-9c0-5.52 4.48-10 10-10h9c0 6.63 5.37 12 12 12z" fill="#8e868e"/></g><path d="m233.507 332.238-14.653 68.665 5.033 7.346-3.044 24.055c-.108.854-.269 1.69-.479 2.505 0 0-12.397 12.542-21.601 12.553l-136.264-1.925c-10.07.013-18.579-7.464-19.862-17.452l-12.369-95.748 100.792-5.977z" fill="#d2af8c"/><g fill="#c9a281"><path d="m337.505 428.928c-14.06.01-25.863-5.694-27.693-19.634 0 0-.237-.068.758-.684 6.872-4.251 11.985-11.157 13.88-19.562l11.67-56.81h-42.685l-8.03-4.161-7.05 4.161 12.88 100.26c1.28 9.99 9.79 17.46 19.86 17.45l140.78-.16c9.2-.01 17.09-6.28 19.33-14.98l.914-5.919z"/><path d="m233.51 332.238-10.639 84.037c-14.6 0-32.111-17.987-35.321-32.227l-12.35-54.86z"/><path d="m220.36 434.808c-2.24 8.7-10.13 14.97-19.33 14.98l-140.78.16c-10.07.01-18.58-7.46-19.86-17.45l-12.88-100.26 7.05-4.161 14.03 4.161 10.29 72.34c1.83 13.94 13.72 24.36 27.78 24.35l133.7-.12z"/></g><path d="m19.532 330.389 472.624.809c5.523 0 10-4.477 10-10l2.344-3.96v-25c0-5.523-4.477-10-10-10h-153.13l-85.37 5.05-85.37-5.05h-148.13l-3.206 1.326c-5.523 0-10 4.477-10 10l.239 26.826c-.001 5.522 4.476 9.999 9.999 9.999z" fill="#f9eac7"/><path d="m341.318 307.579 7.052-25.341h-177.74l7.052 25.341c.422 1.876-1.004 3.659-2.927 3.659h-135.255c-6.075 0-11-4.925-11-11v-18h-11c-5.523 0-10 4.477-10 10v30c0 5.523 4.477 10 10 10h164.38 148.24 164.38c5.523 0 10-4.477 10-10v-11h-160.255c-1.922 0-3.349-1.783-2.927-3.659z" fill="#f4dbb3"/><path d="m186 282.238c50-21.511 90-21.511 140 0l-22.188 98.516c-1.644 7.299-8.127 12.484-15.609 12.484h-64.406c-7.482 0-13.965-5.185-15.609-12.484z" fill="#f9eac7"/></g><path d="m494.5 274.737h-10.376l1.04-18.581c.231-4.135-2.934-7.676-7.069-7.907-4.123-.222-7.676 2.933-7.907 7.069l-1.087 19.419h-42.061c5.445-22.864-2.049-43.427-20.732-52.147-23.204-11.087-48.697 1.98-63.482 32.58-3.186 6.594-5.455 13.154-6.802 19.567h-8.091c-.128 0-.253.013-.38.019-11.789-4.996-23.092-8.828-34.132-11.501l-3.031-56.518h182.517l-.761 13.589c-.231 4.135 2.934 7.676 7.069 7.907.143.008.284.012.426.012 3.95 0 7.258-3.088 7.481-7.081l3.102-55.408c6.843-2.379 11.775-8.876 11.775-16.519v-9c0-7.352-4.563-13.647-11-16.235v-12.766c0-9.649-7.851-17.5-17.5-17.5h-7.799v-21.684c0-4.864-2.048-9.547-5.619-12.849-3.572-3.302-8.403-4.977-13.25-4.597l-133 10.432c-9.046.708-16.132 8.372-16.132 17.446v11.253h-7.8c-9.649 0-17.5 7.851-17.5 17.5v12.766c-6.437 2.587-11 8.883-11 16.235v9c0 7.64 4.93 14.136 11.769 16.517l5.07 94.523c-14.925-2.199-29.555-2.199-44.48 0l5.07-94.523c6.839-2.381 11.769-8.876 11.769-16.517v-9c0-7.352-4.563-13.647-11-16.235v-12.766c0-9.649-7.851-17.5-17.5-17.5h-7.8v-21.685c0-4.864-2.048-9.547-5.619-12.849s-8.404-4.977-13.249-4.597l-133 10.432c-9.046.709-16.132 8.372-16.132 17.446v11.253h-7.797c-9.649 0-17.5 7.851-17.5 17.5v12.766c-6.437 2.587-11 8.883-11 16.235v9c0 7.643 4.933 14.14 11.776 16.519l6.1 108.981h-10.376c-9.649 0-17.5 7.851-17.5 17.5v30c0 9.649 7.851 17.5 17.5 17.5h3.409l12.039 93.714c1.758 13.687 13.48 23.996 27.274 23.996h.035l140.778-.155c13.8-.018 25.514-10.355 27.248-24.047l4.114-32.508h47.206l4.114 32.508c1.733 13.691 13.447 24.029 27.249 24.047l140.776.155h.035c13.794 0 25.518-10.311 27.276-23.996l12.039-93.714h3.409c9.649 0 17.5-7.851 17.5-17.5v-30c-.001-9.65-7.852-17.501-17.501-17.501zm-10-137c1.378 0 2.5 1.122 2.5 2.5v9c0 1.378-1.122 2.5-2.5 2.5h-205.599c-1.378 0-2.5-1.122-2.5-2.5v-9c0-1.378 1.122-2.5 2.5-2.5zm-194.914 54-1.341-25h186.902l-1.399 25zm23.115-109.253c0-1.296 1.012-2.391 2.304-2.492l133-10.432c.951-.07 1.594.38 1.893.657.3.277.803.884.803 1.835v21.685h-138zm-22.8 26.253h183.599c1.378 0 2.5 1.122 2.5 2.5v11.5h-188.599v-11.5c0-1.378 1.121-2.5 2.5-2.5zm121.631 166h-22.401c.263-6.413.548-13.336 6.768-23.675 3.155-5.213 5.864-9.096 8.525-12.169 12.449 9.384 9.909 26.244 7.108 35.844zm-55.2-13.041c6.797-14.068 18.845-27.941 33.086-28.012-2.032 2.76-4.113 5.913-6.352 9.613-7.956 13.125-8.692 22.963-8.952 31.44h-22.683c1.131-4.255 2.763-8.617 4.901-13.041zm-39.033 25.041-20.804 92.368c-.879 3.905-4.29 6.632-8.292 6.632h-64.405c-4.003 0-7.413-2.728-8.292-6.632l-20.804-92.368c43.631-17.569 78.965-17.569 122.597 0zm-84.2-149c1.378 0 2.5 1.122 2.5 2.5v9c0 1.378-1.122 2.5-2.5 2.5h-205.599c-1.378 0-2.5-1.122-2.5-2.5v-9c0-1.378 1.122-2.5 2.5-2.5zm-196.245 29h186.901l-1.341 25h-184.161zm1.646-58h101.5c4.142 0 7.5-3.358 7.5-7.5s-3.358-7.5-7.5-7.5h-78.701v-11.253c0-1.296 1.012-2.391 2.305-2.492l133-10.432c.951-.069 1.593.379 1.893.657.3.277.803.884.803 1.835v21.685h-24.3c-4.142 0-7.5 3.358-7.5 7.5s3.358 7.5 7.5 7.5h47.099c1.378 0 2.5 1.122 2.5 2.5v11.5h-188.599v-11.5c0-1.378 1.122-2.5 2.5-2.5zm.593 98h182.517l-3.031 56.518c-11.082 2.683-22.429 6.534-34.266 11.558-.388-.13-7.444-.059-8.673-.076 5.448-22.873-2.054-43.448-20.759-52.157-13.496-6.438-27.994-4.943-40.849 4.232-3.372 2.406-4.154 7.09-1.748 10.461s7.09 4.155 10.461 1.748c5.049-3.603 10.166-5.388 15.3-5.377-2.042 2.769-4.132 5.936-6.381 9.653-7.956 13.125-8.692 22.962-8.952 31.44h-22.688c.951-3.572 2.26-7.228 3.923-10.931 1.696-3.779.008-8.217-3.771-9.914-3.779-1.698-8.218-.008-9.914 3.771-2.584 5.756-4.467 11.479-5.644 17.074h-41.72zm113.929 32.156c12.45 9.384 9.91 26.244 7.108 35.844h-22.4c.263-6.414.547-13.336 6.767-23.675 3.155-5.212 5.865-9.095 8.525-12.169zm-138.022 83.344v-30c0-1.378 1.122-2.5 2.5-2.5h162.501l7.883 35h-170.384c-1.378 0-2.5-1.121-2.5-2.5zm186.018 120.055-140.778.155c-.005 0-.011 0-.016 0-6.27 0-11.599-4.687-12.398-10.907l-11.794-91.803h155.23l9.609 42.664c1.944 8.633 8.367 15.171 16.519 17.45l-3.988 31.511c-.788 6.223-6.113 10.922-12.384 10.93zm295.982-120.055c0 1.378-1.122 2.5-2.5 2.5h-113.5c-4.142 0-7.5 3.358-7.5 7.5s3.358 7.5 7.5 7.5h94.968l-11.794 91.803c-.799 6.221-6.127 10.907-12.399 10.907-.005 0-.011 0-.016 0l-140.776-.155c-6.272-.008-11.597-4.707-12.385-10.931l-3.988-31.511c8.152-2.279 14.574-8.817 16.519-17.45l9.609-42.664h25.262c4.142 0 7.5-3.358 7.5-7.5s-3.358-7.5-7.5-7.5h-21.884l7.883-35h162.501c1.378 0 2.5 1.122 2.5 2.5z"/></g></svg>