<svg id="Capa_1" enable-background="new 0 0 512 512" height="512" viewBox="0 0 512 512" width="512" xmlns="http://www.w3.org/2000/svg"><g><g><path d="m356 452.5v-154.664c0-28.312-8.012-56.045-23.111-79.995l-5.889-9.341-89-7.968-87.056 7.968-5.889 9.341c-15.099 23.95-22.3 51.683-22.3 79.995v154.664l111.319 7.436z" fill="#f8f7f7"/><path d="m326 274.84v143.66c0 2.209-1.791 4-4 4h-45l-39-7.755-40 7.755h-45c-2.209 0-4-1.791-4-4v-143.66c0-2.191.06-4.378.18-6.558.117-2.121 1.876-3.782 4.001-3.782h28.819l51.564 3.947 60.436-3.947h27.818c2.125 0 3.884 1.66 4.001 3.782.121 2.18.181 4.367.181 6.558z" fill="#e8e8e8"/><path d="m120.628 452.5-.255 40.713c0 5.523 4.477 10 10 10l4.627 1.287h4c5.523 0 10-4.477 10-10v-6c0-3.314 2.686-6 6-6h165c.678 0 1.329.112 1.937.319 2.363.806 5.648 2.045 5.648 4.681v6c0 5.523 3.796 9.968 9.319 9.968l9.096 1.032c5.523 0 10-4.477 10-10v-42z" fill="#9e959e"/><path d="m346 492.5v12h-10c-5.52 0-10-4.48-10-10v-6c0-3.31-2.69-6-6-6h16c5.52 0 10 4.48 10 10z" fill="#8e868e"/><path d="m255 234.5h-35c-5.523 0-10 4.477-10 10v20l28.415 3.947 26.585-3.947v-20c0-5.523-4.477-10-10-10z" fill="#e8e8e8"/><path d="m212 291.426h50v34.149h-50z" fill="#d8d8d8"/><path d="m182 264.5 14.53 25.03c2.15 3.69 6.1 5.97 10.38 5.97h61.37c4.175 0 8.05-2.17 10.231-5.729l15.489-25.271z" fill="#837b84"/><path d="m198 341.468h79v81.032h-79z" fill="#9e959e"/><path d="m356 64.52v20.64c0 28.32-8.01 56.05-23.11 80l-5.89 9.34-86.287 5.096-92.713-5.096 1-9.34c-15.1-23.95-23.11-51.68-23.11-80l-6.89-20.59c12.78.77 13.55 3.93 27.78 3.93 15.04 0 15.04-8 30.08-8s15.04 8 30.08 8 15.04-8 30.07-8c15.04 0 15.04 8 30.08 8s15.04-8 30.08-8c15.03 0 15.03 8 30.07 8 14.58 0 15.02-3.53 28.76-3.98z" fill="#d2af8c"/><path d="m356 37.5v27.02c-13.74.45-14.18 7.98-28.76 7.98-15.04 0-15.04-8-30.07-8-15.04 0-15.04 8-30.08 8s-15.04-8-30.08-8c-15.03 0-15.03 8-30.07 8s-15.04-8-30.08-8-15.04 8-30.08 8c-14.23 0-15-7.16-27.78-7.93l4.904-12.889-4.904-14.181 118-6.245z" fill="#f8f7f7"/><circle cx="385" cy="191.5" fill="#f8f7f7" r="19"/><path d="m215.691 146.319h48.309v31.362h-48.309z" fill="#e8e8e8"/><path d="m210 146.319h21.777v31.362h-21.777z" fill="#d8d8d8"/><path d="m286.57 142.81c-.8-2.2-2.06-4.73-4.02-7.31h-.003c-5.96-7.818-18.436-16-44.547-16-17.47 0-28.836 3.663-36.231 8.428-7.3 4.7-10.729 10.482-12.339 14.882-1.2 3.25 1.24 6.69 4.7 6.69h87.74c3.46 0 5.9-3.44 4.7-6.69z" fill="#f8f7f7"/><path d="m153.138 174.5h173.862v34h-173.862z" fill="#9e959e"/><path d="m168 208.5-5.89 9.34c-15.1 23.95-23.11 51.68-23.11 80v154.66l-11.564 5.138-8.436-5.138v-154.66c0-28.32 8.01-56.05 23.11-80l5.89-9.34 9.096-3.883z" fill="#e8e8e8"/><path d="m139 452.5v52h-10c-5.52 0-10-4.48-10-10v-42z" fill="#8e868e"/><path d="m168 174.5-12 3.181-8-3.181-5.89-9.34c-15.1-23.95-23.11-51.68-23.11-80v-20.59l9.287-2.251 10.979 9.334-.266 13.507c0 28.32 8.01 56.05 23.11 80z" fill="#c9a281"/><path d="m139.266 37.5v34.153c-4.77-2.16-12.336-6.603-20.266-7.083v-27.07l8-2.67z" fill="#e8e8e8"/><path d="m148 174.5h20v34h-20z" fill="#8e868e"/><path d="m277 347.5h-79c-5.523 0-10-4.477-10-10v-6c0-5.523 4.477-10 10-10h79c5.523 0 10 4.477 10 10v6c0 5.523-4.477 10-10 10z" fill="#8e868e"/><path d="m356 35.851-235.968.085c-5.523 0-10-4.477-10-10l.085-6.681c0-5.523 4.477-10 10-10l9.883-1.755h227c5.523 0 10 4.477 10 10v4l-1 4.351c0 5.523-4.477 10-10 10z" fill="#9e959e"/><path d="m367 21.5v6c0 5.523-4.477 10-10 10h-239c-5.523 0-10-4.477-10-10v-10c0-5.523 4.477-10 10-10h12c0 7.732 6.268 14 14 14z" fill="#8e868e"/></g><g><path d="m272.5 257v-12.5c0-9.649-7.851-17.5-17.5-17.5h-35c-9.649 0-17.5 7.851-17.5 17.5v12.5h-53.5c-4.142 0-7.5 3.358-7.5 7.5v26.528c0 4.142 3.358 7.5 7.5 7.5s7.5-3.358 7.5-7.5v-19.028h21.182l12.363 21.291c3.069 5.288 8.467 8.802 14.455 9.554v11.155h-6.5c-9.649 0-17.5 7.851-17.5 17.5v6c0 6.963 4.098 12.972 10 15.787v61.713h-34v-88.926c0-4.142-3.358-7.5-7.5-7.5s-7.5 3.358-7.5 7.5v96.426c0 4.142 3.358 7.5 7.5 7.5h177c4.143 0 7.5-3.358 7.5-7.5v-158c0-4.142-3.357-7.5-7.5-7.5zm-55-12.5c0-1.378 1.122-2.5 2.5-2.5h35c1.378 0 2.5 1.122 2.5 2.5v12.5h-40zm-14.483 41.259-7.989-13.759h85.579l-8.49 13.852c-.812 1.325-2.282 2.148-3.837 2.148h-61.372c-1.597 0-3.088-.858-3.891-2.241zm16.483 17.241h35v11h-35zm-24 28.5c0-1.378 1.122-2.5 2.5-2.5h79c1.379 0 2.5 1.122 2.5 2.5v6c0 1.378-1.121 2.5-2.5 2.5h-79c-1.378 0-2.5-1.122-2.5-2.5zm123 83.5h-34v-13c0-4.142-3.357-7.5-7.5-7.5s-7.5 3.358-7.5 7.5v13h-64v-60h64v12c0 4.142 3.357 7.5 7.5 7.5s7.5-3.358 7.5-7.5v-13.713c5.902-2.816 10-8.824 10-15.787v-6c0-9.649-7.851-17.5-17.5-17.5h-7.5v-11.04c6.277-.401 12.1-3.875 15.406-9.27l13.294-21.69h20.3z"/><path d="m247 365h-18c-4.142 0-7.5 3.358-7.5 7.5s3.358 7.5 7.5 7.5h18c4.142 0 7.5-3.358 7.5-7.5s-3.358-7.5-7.5-7.5z"/><path d="m247 390h-18c-4.142 0-7.5 3.358-7.5 7.5s3.358 7.5 7.5 7.5h18c4.142 0 7.5-3.358 7.5-7.5s-3.358-7.5-7.5-7.5z"/><path d="m385 165c-12.008 0-22.169 8.03-25.412 19h-25.088v-7.333l4.734-7.507c15.875-25.178 24.266-54.225 24.266-84v-41.426c6.438-2.587 11-8.883 11-16.234v-10c0-9.649-7.851-17.5-17.5-17.5h-239c-9.649 0-17.5 7.851-17.5 17.5v10c0 7.352 4.563 13.647 11 16.234v41.426c0 29.774 8.391 58.821 24.266 84l4.734 7.506v29.667l-4.733 7.508c-15.876 25.182-24.267 54.227-24.267 83.995v196.664c0 9.649 7.851 17.5 17.5 17.5h10c9.649 0 17.5-7.851 17.5-17.5v-4.5h162v4.5c0 9.649 7.851 17.5 17.5 17.5h10c9.649 0 17.5-7.851 17.5-17.5v-196.664c0-29.768-8.392-58.813-24.267-83.995l-4.733-7.508v-7.333h25.088c3.243 10.97 13.405 19 25.412 19 14.612 0 26.5-11.888 26.5-26.5s-11.888-26.5-26.5-26.5zm-128.5-8v10h-39v-10zm63 25v19h-164v-19zm-204-164.5c0-1.378 1.122-2.5 2.5-2.5h239c1.379 0 2.5 1.122 2.5 2.5v10c0 1.378-1.121 2.5-2.5 2.5h-160.5c-4.142 0-7.5 3.358-7.5 7.5s3.358 7.5 7.5 7.5h152v12.511c-5.345.89-8.854 2.786-11.822 4.397-3.31 1.795-5.7 3.092-11.17 3.092-5.471 0-7.862-1.297-11.172-3.093-4.03-2.186-9.047-4.907-18.324-4.907s-14.293 2.721-18.324 4.907c-3.31 1.795-5.701 3.093-11.173 3.093s-7.863-1.297-11.174-3.093c-4.031-2.186-9.048-4.907-18.326-4.907s-14.295 2.721-18.326 4.907c-3.311 1.796-5.703 3.093-11.175 3.093-5.473 0-7.865-1.297-11.176-3.093-4.031-2.186-9.048-4.907-18.326-4.907s-14.295 2.721-18.326 4.907c-3.311 1.796-5.703 3.093-11.175 3.093-5.474 0-7.866-1.297-11.178-3.093-2.782-1.509-6.035-3.271-10.833-4.219v-12.688h35c4.142 0 7.5-3.358 7.5-7.5s-3.358-7.5-7.5-7.5h-43.5c-1.378 0-2.5-1.122-2.5-2.5zm11 67.66v-11.887c1.245.501 2.395 1.122 3.683 1.82 4.032 2.187 9.049 4.907 18.328 4.907 9.278 0 14.295-2.721 18.326-4.907 3.31-1.796 5.703-3.093 11.175-3.093 5.473 0 7.865 1.297 11.175 3.093 4.031 2.187 9.048 4.907 18.327 4.907 9.278 0 14.294-2.721 18.326-4.907 3.31-1.796 5.702-3.093 11.175-3.093s7.864 1.297 11.175 3.093c4.03 2.186 9.047 4.907 18.325 4.907s14.294-2.721 18.325-4.908c3.31-1.795 5.701-3.092 11.172-3.092s7.862 1.297 11.172 3.093c4.03 2.186 9.047 4.907 18.324 4.907 9.276 0 14.292-2.721 18.322-4.908 1.62-.879 3.021-1.636 4.67-2.183v12.251c0 26.939-7.592 53.22-21.954 76l-3.683 5.84h-51.363v-10h10.365c4.086 0 7.922-2 10.262-5.351 2.331-3.338 2.887-7.609 1.487-11.425-2.679-7.304-9.104-17.263-24.505-23.229-3.863-1.495-8.206.423-9.702 4.284-1.497 3.863.422 8.207 4.284 9.703 7.738 2.998 11.938 7.229 14.214 11.018h-79.819c5.076-8.491 16.593-13.694 32.968-14.779 4.133-.273 7.262-3.846 6.988-7.979-.273-4.133-3.853-7.263-7.979-6.988-33.367 2.209-44.193 18.472-47.677 27.97-1.399 3.816-.844 8.088 1.487 11.425 2.34 3.351 6.176 5.351 10.262 5.351h8.365v10h-50.363l-3.683-5.84c-14.362-22.78-21.954-49.06-21.954-76zm222 409.34c0 1.378-1.121 2.5-2.5 2.5h-10c-1.379 0-2.5-1.122-2.5-2.5v-6c0-7.444-6.056-13.5-13.5-13.5h-165c-7.444 0-13.5 6.056-13.5 13.5v6c0 1.378-1.122 2.5-2.5 2.5h-10c-1.378 0-2.5-1.122-2.5-2.5v-34.5h222zm0-196.664v147.164h-222v-147.164c0-26.933 7.592-53.211 21.956-75.996l3.682-5.84h170.725l3.682 5.84c14.363 22.785 21.955 49.063 21.955 75.996zm36.5-94.836c-6.341 0-11.5-5.159-11.5-11.5s5.159-11.5 11.5-11.5 11.5 5.159 11.5 11.5-5.159 11.5-11.5 11.5z"/><circle cx="326.005" cy="106" r="7.505"/><circle cx="306.005" cy="93.505" r="7.505"/><circle cx="149.943" cy="122.584" r="7.505"/><circle cx="306.005" cy="118.505" r="7.505"/><circle cx="173.524" cy="122.584" r="7.505"/><circle cx="163.023" cy="143.889" r="7.505"/></g></g></svg>