<svg id="Capa_1" enable-background="new 0 0 512 512" height="512" viewBox="0 0 512 512" width="512" xmlns="http://www.w3.org/2000/svg"><g><g><path d="m201.203 367.381c9.97 3.406 26.62 1.754 35.211-2.101 72.598-102.885 83.599-192.682 6.862-269.079-9.97-3.406-27.081-2.864-37.055.527-66.71 86.063-63.584 175.954-5.018 270.653z" fill="#865151"/><path d="m205.479 227.129c-16.234 51.203-19.077 97.6-6.258 135.449 1.829 5.401-2.482 10.881-7.565 9.526-52.8-14.074-78.301-67.38-78.249-140.478.033-45.893 11.715-86.176 33.529-113.883 2.369-3.009 5.383-9.264 5.383-9.264 11.756-12.106 25.888-20.765 42.203-24.964 2.809-.723 5.716.723 7.128 3.495 13.246 26.004 18.323 54.218 15.334 86.131 0 0-4.951 6.76-5.727 11.566-2.046 12.667-1.368 28.517-5.778 42.422z" fill="#9d5e5e"/><path d="m333.19 231.887c-.053 73.657-30.263 134.993-83.856 148.368-2.542.634-5.183-.455-6.717-2.778-16.58-25.11-22.454-81.548-3.627-140.919 6.506-20.52 12.05-39.769 14.005-58.126.087-.82-1.057-2.54-1.057-2.54 2.868-29.923-.391-57.249-9.846-82.891-1.963-5.324 2.392-10.861 7.475-9.584 31.801 7.99 55.337 32.871 69.201 67.182 0 0-.719 4.455-.116 6.091 8.265 22.429 14.558 47.312 14.538 75.197z" fill="#9d5e5e"/><path d="m333.19 231.89c-.01 17.26-1.68 33.85-4.92 49.3-10.06 6.99-21.15 13.61-33.42 19.97-23.93 12.41-46.02 28.63-63.81 46.36-6.31-28.97-5.28-69.24 7.95-110.96 6.8-21.44 11.12-41.58 12.94-60.67 22.11-13.64 44.927-22.333 66.837-25.293 9.49 23.48 14.443 51.373 14.423 81.293z" fill="#865151"/><path d="m209.536 213.277c.034-.128.072-.258.106-.387.461-1.73.906-3.451 1.328-5.16-.008.007-.015.015-.023.022 2.972-12.02 4.997-23.542 6.033-34.612l-64.661-64.661c-14.01 14.4-24.609 33.691-31.549 56.131l.008.008c-6.241 20.218-9.489 43.005-9.508 67.112-.06 73.1 29.62 134.09 82.42 148.17 5.09 1.35 9.4-4.13 7.57-9.53-1.4-4.13-10.104-98.081 4.22-143.24.698-2.196 1.354-4.37 1.992-6.534.124-.422.247-.843.369-1.264.59-2.032 1.158-4.052 1.695-6.055zm-60.146 88.853c-.566 1.873-1.093 3.739-1.58 5.599-.68 2.599-4.186 3.04-5.507.701-14.787-26.208-22.61-59.907-22.584-96.67.01-13.282 1.047-26.157 3.064-38.424.396-2.408 3.361-3.351 5.087-1.625l60.403 60.403c-18.414 22.403-31.7 46.247-38.883 70.016z" fill="#865151"/><path d="m328.27 281.19c-10.58 50.47-37.9 88.82-78.94 99.06-2.54.64-5.18-.45-6.71-2.77-4.93-7.47-8.92-17.7-11.58-29.96 17.79-17.73 39.88-33.95 63.81-46.36 12.27-6.36 23.36-12.98 33.42-19.97z" fill="#9d5e5e"/><path d="m183.514 380.104c.167.34 18.22 10.088 18.22 10.088l9.883 16.357c124.086-21.416 195.36-77.133 195.12-185.416-4.641-9.458-17.124-21.174-26.575-25.829-108.028 13.686-171.099 76.426-196.648 184.8z" fill="#9d5e5e"/><path d="m240.79 400.64c-9.37 2.21-19.09 4.17-29.17 5.91-8.49-3.23-20.82-13.2-25.86-22.39-.18-.34-2.08-3.72-2.25-4.06 2.66-11.29 5.73-22.08 9.23-32.38 4.33 13.65 11.59 25.86 21.89 35.83 7.65 7.4 16.48 13.08 26.16 17.09z" fill="#865151"/><path d="m287.488 286.959c-37.008 19.19-68.718 46.224-89.336 74.115-5.948 8.047-10.68 6.972-14.642 14.994-2.525 5.112-9.449 5.939-12.085 1.387-27.383-47.287 30.309-132.143 30.309-132.143l42.524-44.895c46.118-34.588 97.544-46.079 137.032-22.757 2.497 1.475 3.531 4.553 2.569 7.512-13.795 42.44-44.749 75.027-96.371 101.787z" fill="#b06c6c"/><path d="m371.165 379.404c-52.12 52.046-108.733 72.861-156.086 44.422-2.246-1.349-3.343-3.987-2.785-6.714 1.85-9.041 8.785-27.952 8.785-27.952 16.158-24.685 45.101-51.961 83.438-71.837 51.264-26.582 84.956-58.669 103.704-99.318 2.376-5.152 9.372-5.988 12.063-1.491 23.666 39.548 12.188 91.147-22.547 137.385 0 0-6.105 2.83-8.076 5.249-5.398 6.624-12.18 13.949-18.496 20.256z" fill="#b06c6c"/><path d="m339.96 296.12-23.51 28.045-31.62 4.505-25.18-25.18 24.433-20.279 30.727-12.241z" fill="#865151"/><path d="m397.74 353.9-57.78-57.78c-4.07 2.83-8.3 5.61-12.69 8.33-1.38.85-2.79 1.71-4.21 2.55-12.482 7.535-28.247 15.006-38.23 21.67l57.566 57.566c1.954 1.954 1.391 5.272-1.111 6.446-43.874 20.592-89.311 20.691-120.205-3.521-7.15 10.92-11.79 21.33-13.64 30.37-.56 2.73.54 5.37 2.78 6.72 41.52 24.924 96.391 11.081 144.412-27.778.005-.004.009-.011.014-.015 6.755-5.456 13.359-11.412 19.784-17.827 8.62-8.611 16.42-17.561 23.31-26.731z" fill="#9d5e5e"/><path d="m244.258 200.417c-9.14 6.85-18.058 14.603-26.638 23.173-6.417 6.408-12.37 13.003-17.833 19.736-.047.055-.094.105-.141.161-38.518 47.521-52.474 101.784-28.516 143.163 2.64 4.55 9.56 3.72 12.09-1.39 3.96-8.02 8.99-16.14 14.94-24.18-15.211-30.223-13.29-70.341 4.132-109.166.863-1.924 3.381-2.401 4.872-.91l52.486 52.486c8.85-5.96 18.16-11.51 27.84-16.53 9.85-5.11 18.95-10.43 27.32-15.99z" fill="#9d5e5e"/><path d="m256 7.5c-66.666 0-127.202 26.254-171.832 68.986-5.286 5.061-9.61 10.567-14.434 16.074-38.289 43.716-59.615 100.762-59.615 163.44 0 137.24 108.641 243.624 245.881 243.624 69.14 0 131.687-23.362 176.735-68.935 44.37-44.886 71.765-106.589 71.765-174.689 0-137.24-111.26-248.5-248.5-248.5zm0 467c-58.008 0-112.568-22.457-153.752-63.255-41.382-40.996-64.748-96.995-64.748-155.246 0-52.603 18.467-102.375 52.338-141.897.757-.884 2.115-.93 2.938-.106l305.229 305.229c.823.823.778 2.181-.107 2.939-39.523 33.87-89.295 52.336-141.898 52.336zm163.224-76.496-305.229-305.229c-.823-.823-.777-2.18.106-2.938 39.523-33.871 89.295-52.337 141.898-52.337 58.25 0 114.249 23.365 155.244 64.747 40.8 41.184 63.257 95.745 63.257 153.753 0 52.603-18.466 102.375-52.337 141.897-.758.884-2.116.93-2.939.107z" fill="#8e868e"/><path d="m437.61 425.61c-45.35 48.54-109.94 78.89-181.61 78.89-137.24 0-248.5-111.26-248.5-248.5 0-71.67 30.35-136.26 78.89-181.61-41.49 44.41-66.89 104.04-66.89 169.61 0 137.24 111.26 248.5 248.5 248.5 65.57 0 125.2-25.4 169.61-66.89z" fill="#766d78"/></g><g><path d="m302.032 270.205-17.919-17.919c-2.929-2.929-7.678-2.929-10.606 0-2.929 2.929-2.929 7.678 0 10.606l141.94 141.94c2.386 2.268 7.168 3.431 10.95-.367 35.856-41.022 55.603-93.748 55.603-148.465 0-60.363-23.509-117.116-66.197-159.803s-99.44-66.197-159.803-66.197c-54.717 0-107.443 19.747-148.466 55.603-1.563 1.367-2.49 3.32-2.56 5.396-.07 2.075.724 4.086 2.192 5.555l141.304 141.302c2.929 2.929 7.678 2.929 10.606 0 2.929-2.929 2.929-7.678 0-10.606l-16.233-16.233c46.841-37.585 97.499-48.101 133.655-27.467-11.655 35.27-35.384 62.9-74.466 86.655zm112.685-48.353c20.872 36.645 10.598 86.083-27.579 133.46l-48.944-48.943c35.937-23.62 61.008-51.313 76.523-84.517zm-205.713-44.675-57.03-57.03c12.042-14.746 26.596-24.524 43.324-29.08 12.96 25.766 17.471 54.048 13.706 86.11zm13.243 13.243c5.511-32.452 3.585-61.536-5.924-88.277 6.968-.995 15.086-.91 21.074.309 8.818 27.547 10.359 57.163 4.715 90.235-3.337 2.438-6.649 4.995-9.931 7.666zm107.255-32.288c-5.018-15.014-11.604-28.461-19.641-39.969-2.372-3.396-7.049-4.225-10.443-1.854-3.396 2.372-4.226 7.047-1.854 10.443 6.684 9.57 12.286 20.698 16.702 33.138-17.463 3.055-37.5 10.861-55.395 21.676 3.739-31.882.72-62.414-9.465-90.439 9.001 2.471 17.474 6.512 25.206 12.026 3.372 2.405 8.056 1.621 10.461-1.752s1.621-8.056-1.752-10.461c-9.738-6.944-20.48-11.923-31.927-14.799-4.954-1.246-9.991.329-13.476 4.208-1.702 1.895-2.847 4.152-3.408 6.547-7.76-.806-16.533-.448-24.058 1.05-.685-1.453-1.386-2.901-2.12-4.341-3.021-5.929-9.47-8.954-15.681-7.354-19.909 5.124-37.152 16.305-51.331 33.243l-17.767-17.767c37.339-30.19 84.055-46.727 132.447-46.727 56.356 0 109.342 21.949 149.197 61.803s61.803 92.841 61.803 149.197c0 48.392-16.537 95.108-46.728 132.446l-22.481-22.481c20.009-24.555 33.584-50.79 39.318-76.119 6.427-28.396 2.834-55.085-10.39-77.184-2.622-4.383-7.295-6.833-12.504-6.553-2.544.136-4.95.923-7.04 2.22-4.918-6.057-11.374-12.007-17.754-16.27.543-1.512 1.072-3.032 1.572-4.568 2.057-6.328-.364-13.026-5.888-16.289-16.413-9.693-35.34-14.096-55.603-13.07zm54.015 48.104c5.641 4.228 11.334 10.041 14.708 15.145-14.835 28.778-38.103 53.117-70.87 74.147l-14.43-14.43c33.347-20.907 56.624-45.565 70.592-74.862z"/><path d="m437.019 74.981c-48.353-48.352-112.64-74.981-181.019-74.981-44.955 0-89.176 11.82-127.883 34.184-37.546 21.692-69.218 52.8-91.59 89.961-2.137 3.548-.992 8.157 2.557 10.293 3.55 2.136 8.157.992 10.294-2.557 44.061-73.187 121.304-116.881 206.622-116.881 132.888 0 241 108.112 241 241s-108.112 241-241 241-241-108.112-241-241c0-32.549 6.375-64.12 18.949-93.834 1.614-3.815-.17-8.216-3.984-9.83-3.816-1.615-8.215.17-9.83 3.984-13.361 31.575-20.135 65.112-20.135 99.68 0 68.379 26.629 132.666 74.981 181.019 48.353 48.352 112.64 74.981 181.019 74.981s132.666-26.629 181.019-74.981c48.352-48.353 74.981-112.64 74.981-181.019s-26.629-132.666-74.981-181.019z"/><path d="m90.999 104.974c-2.076.069-4.029.997-5.396 2.56-35.856 41.023-55.603 93.749-55.603 148.466 0 60.363 23.509 117.116 66.197 159.803s99.44 66.197 159.803 66.197c54.717 0 107.443-19.747 148.466-55.603 1.563-1.367 2.491-3.32 2.56-5.396.07-2.075-.724-4.086-2.192-5.555l-100.583-100.581c-.009-.008-.017-.017-.026-.026l-207.672-207.672c-1.468-1.469-3.492-2.273-5.554-2.193zm165.001 362.026c-56.356 0-109.342-21.949-149.197-61.803s-61.803-92.841-61.803-149.197c0-48.392 16.537-95.108 46.728-132.446l26.315 26.315c-9.223 22.997-14.254 52.426-14.276 81.854.037 58.822 18.469 109.28 51.582 136.391 2.12 7.776 5.208 15.238 9.293 22.292 3.662 5.905 11.905 9.028 19.524 4.515 5.065 6.062 11.819 11.608 18.068 15.31-.915 2.711-1.638 5.321-2.145 7.797-1.205 5.888 1.257 11.637 6.272 14.647 15.054 9.042 32.096 13.597 50.384 13.597 11.508 0 23.511-1.805 35.819-5.431 3.973-1.171 6.245-5.341 5.075-9.314-1.171-3.974-5.343-6.246-9.314-5.075-27.355 8.061-52.707 5.938-73.388-6.132 5.511-24.901 35.393-63.253 82.822-90.737l58.082 58.082c-11.797 10.201-24.053 18.831-36.502 25.669-3.63 1.995-4.957 6.554-2.963 10.185 1.365 2.485 3.932 3.891 6.581 3.891 1.221 0 2.458-.299 3.604-.928 13.661-7.504 27.063-16.99 39.907-28.19l21.979 21.979c-37.339 30.192-84.055 46.729-132.447 46.729zm-56.185-235.358c-32.103 36.725-48.65 76.318-47.948 111.822-21.235-25.904-33.134-65.505-33.101-111.73.018-25.341 3.79-49.472 10.924-70.217zm61.682 61.682c-37.658 24.087-68.993 56.565-84.727 88.057-21.02-38.234-8.161-90.84 33.686-139.098zm25.313 25.312c-39.325 23.548-65.699 53.119-78.549 77.707-5.509-3.577-11.573-9.054-14.925-14.161 15.842-28.075 44.735-56.643 79.032-77.988z"/></g></g></svg>