<svg id="Capa_1" enable-background="new 0 0 511.974 511.974" height="512" viewBox="0 0 511.974 511.974" width="512" xmlns="http://www.w3.org/2000/svg"><g><g><path d="m394.85 102.396c11.587-7.15 21.121-31.489 11.031-41.58-9.283-9.283-15.47-11.49-26.673-1.827 1.746-12.892-2.473-24.773-13.99-28.515-6.152-1.999-11.838-1.052-16.742 2.007-1.015.633-2.321.273-2.876-.786-1.1-2.1-2.568-4.102-4.439-5.974-11.53-11.531-27.98-7.939-41.89 4.084-1.159 1.002-2.982.335-3.24-1.176-1.994-11.687-8.607-20.296-19.913-21.087-11.723-.82-19.618 7.386-23.034 19.372-.462 1.621-2.563 1.994-3.536.618-9.361-13.236-22.629-19.806-35.414-12.719-5.842 3.238-9.316 8.075-10.77 13.798-.452 1.778-2.872 1.967-3.704.332-.287-.565-.587-1.115-.898-1.651 0 0-11.011-10.615-20.155-9.33-7.865 1.105-12.426 5.91-15.149 12.851-.497 1.268-2.081 1.642-3.132.776-.897-.739-1.884-1.424-2.964-2.047-12.881-7.437-30.585 1.867-37.649 15.399-1.498 2.87-2.127 5.176-2.353 6.884-.231 1.743-1.899 2.91-3.615 2.527-11.071-2.469-19.677-1.379-24.415 8.348-4.649 9.546-.896 31.137 7.533 38.283l164.932 16.934z" fill="#b06c6c"/><path d="m198.759 27.295c-2.12-.44-4.402-.509-6.822-.169-7.86 1.1-13.08 5.99-15.81 12.93-.49 1.27-2.08 1.64-3.13.78-.89-.74-1.88-1.43-2.96-2.05-12.88-7.44-30.37 1.67-37.43 15.2-1.5 2.87-2.13 5.18-2.36 6.88-.23 1.75-1.89 2.91-3.61 2.53-11.07-2.47-21.09.27-25.82 10-3.11 6.38-2.45 18.27.85 27.59h-7.29c-8.43-7.15-12.21-29.04-7.56-38.59 4.73-9.73 14.75-12.47 25.82-10 1.72.38 3.38-.78 3.61-2.53.23-1.7.86-4.01 2.36-6.88 7.06-13.53 24.55-22.64 37.43-15.2 1.08.62 2.07 1.31 2.96 2.05 1.05.86 2.64.49 3.13-.78 2.73-6.94 7.95-11.83 15.81-12.93 9.15-1.289 16.262 3.319 20.822 11.169z" fill="#9d5e5e"/><g><path d="m95.629 176.487c-5.706 72.063-16.229 144.542-8.917 216.476l4.947 48.563c.939 8.258-1.957 15.974-7.259 23.516-6.179 9.325-7.035 20.712.874 28.622 7.91 7.91 20.296 9.154 29.621 2.975 8.031-5.322 15.683-6.96 25.22-5.598l22.229 3.176c62.607 8.944 210.055-2.312 210.055-2.312 9.538-1.362 20.593 1.724 28.624 7.046 9.325 6.179 19.063 3.506 26.972-4.404 7.91-7.91 8.821-15.446 2.642-24.771l-.498-.752c-.382-.576.738-3.552.738-3.552-4.246-7.203-6.094-15.591-5.242-23.946l4.947-48.563c7.33-71.956-1.253-144.409-6.954-216.476z" fill="#d2af8c"/></g><g><path d="m436.387 480.947c0 6.08-2.34 12.1-6.89 16.65s-10.57 6.89-16.64 6.89c-4.49 0-9.01-1.29-12.98-3.91-8.03-5.33-17.74-7.51-27.27-6.15l-22.23 3.17c-62.61 8.95-126.17 8.95-188.78 0-4.698-.543-23.419-3.693-27.79-3.56-7.68 0-15.24 2.24-21.71 6.54-3.97 2.62-8.49 3.91-12.98 3.91-6.07 0-12.09-2.34-16.64-6.89-7.91-7.91-9.16-20.3-2.98-29.62 4.657-6.582 7.89-17.085 6.84-26.45l-4.95-48.56c-7.31-71.94 1.26-144.42 6.97-216.48h21.03c-1.72 9.58-3.2 17.86-3.35 18.64-16.432 87.275-16.941 175.487-1.528 262.823 1.481 8.393 8.048 14.991 16.461 16.349 45.092 7.282 90.551 10.968 135.467 10.968 48.72 0 98.07-4.33 146.9-12.9.42-.07 14.301-3.565 27.542-6.895.34.59.719 1.175 1.099 1.755l.5.75c2.629 3.96 3.909 8.48 3.909 12.97z" fill="#c9a281"/></g><g fill="#9d5e5e"><ellipse cx="265.462" cy="94.722" rx="30.155" ry="21.751" transform="matrix(.572 -.82 .82 .572 35.935 258.305)"/><ellipse cx="393.57" cy="76.376" rx="28.374" ry="21.232" transform="matrix(.397 -.918 .918 .397 167.334 407.356)"/><ellipse cx="353.476" cy="97.168" rx="28.265" ry="20.388" transform="matrix(.572 -.82 .82 .572 71.603 331.55)"/><ellipse cx="152.987" cy="82.153" rx="25.786" ry="18.6" transform="matrix(.857 -.515 .515 .857 -20.46 90.527)"/></g><path d="m428.767 181.391-343.376-1.266c-7.955 0-14.404-6.449-14.404-14.404l-1.779-49.394c0-7.955 4.471-14.202 12.427-14.202l5.783-1.138h342.74c7.955 0 14.404 6.449 14.404 14.404v47.596l-.657 5.771c-.001 7.955-7.183 12.633-15.138 12.633z" fill="#d2af8c"/><path d="m444.561 162.987-.004 5.6c0 7.95-6.44 14.4-14.4 14.4h-348.34c-7.96 0-14.4-6.45-14.4-14.4v-53.2c0-7.95 6.44-14.4 14.4-14.4h5.6v44c0 9.941 8.059 18 18 18z" fill="#c9a281"/><path d="m358.487 313.2c0 28.721-11.813 54.683-30.845 73.293 0 0-7.118 2.767-8.613 4.069-18.004 15.68-37.292 25.138-63.043 25.138-26.882 0-48.591-9.995-66.872-26.926-.684-.634-4.783-2.282-4.783-2.282-19.032-18.609-30.845-44.571-30.845-73.292 0-56.609 45.891-102.5 102.5-102.5s102.501 45.89 102.501 102.5z" fill="#ffec9c"/><g><path d="m197.13 301.676c0 27.877 10.985 46.389 34.938 46.389s35.919-18.514 35.919-46.391c0-24.636-9.728-45.149-28.522-49.586l-8.114.501-8.309-.34c-4.318 1.117-8.146 3.095-11.476 5.783 0 0-1.968 2.578-3.198 3.959-8.229 9.236-11.238 23.483-11.238 39.685z" fill="#b06c6c"/><path d="m261.792 332.048c-5.919 12.216-16.064 20.105-30.219 20.105-23.952 0-36.403-22.605-36.403-50.477 0-18.625 5.559-34.878 16.387-43.634-4.103 8.46-6.182 18.957-6.182 30.367 0 27.871 12.451 50.477 36.403 50.477 7.951-.001 14.636-2.491 20.014-6.838z" fill="#9d5e5e"/><path d="m247.615 305.68c-19.712 19.712-26.448 41.712-9.511 58.649 9.595 9.595 19.528 12.451 31.811 8.675 2.035-.625 6.103-1.963 6.103-1.963 7.36-3.349 14.641-8.597 21.337-15.293 17.432-17.432 25.058-38.834 14.873-55.265l-7.158-4.835-4.558-6.636c-5.565-3.274-11.679-4.547-18.002-4.123 0 0-5.286 1.217-8.057 2.003-9.709 2.756-18.005 9.954-26.838 18.788z" fill="#b06c6c"/><path d="m276.019 371.043c-11.567 5.264-23.328 5.832-33.319-.054l-4.899-6.639-6.839-4.88c-10.137-16.426-2.508-37.794 14.901-55.212 11.359-11.349 24.401-18.543 36.648-19.369-7.358 3.347-14.645 8.592-21.34 15.287-19.707 19.717-26.881 44.496-9.94 61.437 7.173 7.185 15.766 10.032 24.788 9.43z" fill="#9d5e5e"/></g><path d="m327.642 386.492c-18.48 18.08-43.775 29.205-71.655 29.205s-53.17-11.13-71.65-29.21z" fill="#f9df8a"/><path d="m345.817 436.487h-179.661c-2.303 0-3.748-2.488-2.605-4.488l6.585-11.523c.527-.922.527-2.055 0-2.977l-6.585-11.523c-1.143-2 .301-4.488 2.605-4.488h179.661c2.303 0 3.748 2.488 2.605 4.488l-6.585 11.523c-.527.922-.527 2.055 0 2.977l6.585 11.523c1.143 1.999-.301 4.488-2.605 4.488z" fill="#ffec9c"/></g><g><path d="m438.227 463.097c-4.052-6.114-5.873-13.5-5.13-20.796l4.946-48.562c2.225-21.833 3.14-44.879 2.798-70.455-.055-4.108-3.401-7.4-7.497-7.4-.034 0-.068 0-.103 0-4.142.056-7.454 3.458-7.398 7.6.334 24.996-.557 47.479-2.722 68.734l-4.946 48.562c-1.128 9.898 1.832 22.453 8.046 31.354 4.191 6.325 3.339 14.81-2.025 20.175-5.367 5.366-13.85 6.218-20.176 2.026-9.574-6.345-21.109-8.941-32.478-7.319l-22.229 3.175c-61.928 8.846-124.726 8.846-186.652 0l-22.229-3.175c-11.371-1.625-22.904.975-32.479 7.319-6.326 4.192-14.81 3.339-20.175-2.026s-6.217-13.85-2.026-20.174c5.616-7.952 9.268-20.47 8.047-31.354l-3.016-29.605c-.42-4.121-4.099-7.117-8.222-6.701-4.121.42-7.121 4.101-6.701 8.222l3.016 29.605c.691 6.291-1.146 15.273-5.628 21.548-8.116 12.248-6.466 28.678 3.923 39.067 5.974 5.974 13.944 9.058 21.969 9.058 5.932 0 11.893-1.686 17.098-5.135 6.506-4.311 14.347-6.079 22.072-4.974l22.229 3.175c63.334 9.048 127.561 9.048 190.895 0l22.229-3.175c7.725-1.106 15.563.662 22.071 4.974 12.244 8.115 28.675 6.466 39.067-3.923 10.389-10.39 12.038-26.819 3.923-39.068z"/><path d="m430.157 93.501h-8.375c2.043-4.789 3.283-9.954 3.821-14.563 1.449-12.409-1.264-23.071-7.443-29.251-8.497-8.496-20.213-10.044-31.948-4.854-2.174-10.46-8.73-18.246-18.677-21.477-6.168-2.004-12.413-1.851-18.184.361-.876-1.141-1.84-2.237-2.888-3.285-11.808-11.809-28.994-12.139-45.315-1.43-4.348-11.227-13.101-18.13-24.509-18.928-11.631-.81-21.318 4.95-27.144 15.747-11.697-11.761-26.054-14.727-38.998-7.551-4.102 2.273-7.461 5.258-9.987 8.836-6.238-6.669-14.479-9.679-23.615-8.396-7.922 1.113-14.404 5.257-18.703 11.745-6.384-3.131-13.917-3.667-21.415-1.487-11.367 3.537-22.537 12.911-26.886 25.369-13.387-1.606-24.413 3.684-29.821 14.79-4.289 8.806-3.409 23.157.909 34.396-11.691.442-21.067 10.086-21.067 21.883v53.191c0 11.359 8.691 20.723 19.772 21.799-.506 6.08-1.012 12.159-1.53 18.243-4.716 55.401-9.592 112.688-5.599 169.121.28 3.952 3.572 6.971 7.474 6.971.178 0 .357-.006.537-.019 4.132-.292 7.244-3.879 6.952-8.011-3.911-55.266.915-111.961 5.582-166.79.551-6.473 1.09-12.942 1.627-19.41h23.259c4.142 0 7.5-3.358 7.5-7.5s-3.358-7.5-7.5-7.5h-36.17c-3.807 0-6.904-3.097-6.904-6.904v-53.191c0-3.807 3.097-6.904 6.904-6.904h348.34c3.807 0 6.904 3.097 6.904 6.904v53.191c0 3.807-3.098 6.904-6.904 6.904h-277.17c-4.142 0-7.5 3.358-7.5 7.5s3.358 7.5 7.5 7.5h264.266c.541 6.514 1.084 13.029 1.639 19.548 2.198 25.824 4.471 52.527 5.8 78.734.203 4.007 3.517 7.12 7.484 7.12.128 0 .257-.003.386-.01 4.137-.209 7.32-3.733 7.11-7.87-1.342-26.463-3.626-53.296-5.835-79.247-.522-6.13-1.031-12.255-1.541-18.381 11.077-1.079 19.764-10.442 19.764-21.798v-53.191c.002-12.079-9.824-21.905-21.902-21.905zm-22.604-33.207c2.745 2.746 4.012 9.539 3.151 16.904-.894 7.659-3.674 13.573-6.362 16.303h-18.973c1.514-6.837.237-13.636-3.865-19.673 1.979-3.67 3.469-7.522 4.411-11.419 4.756-3.597 14.496-9.26 21.638-2.115zm-72.638 33.207c1.927-3.456 5.242-6.95 9.679-10.057 5.276-3.694 10.672-5.782 15.193-5.879 4.016-.092 7.016 1.394 9.209 4.526 2.403 3.432 2.593 7.26.58 11.41zm-155.933-69.937c5.888-.828 10.598 2.132 13.992 8.799 1.822 3.579 5.581 5.609 9.563 5.16 3.941-.439 7.118-3.206 8.093-7.047 1.021-4.018 3.355-6.99 7.138-9.086 11.823-6.553 21.88 5.152 25.654 10.49 2.13 3.012 5.708 4.495 9.334 3.879 3.636-.62 6.524-3.215 7.538-6.773 1.913-6.716 6.127-14.586 15.298-13.946 8.79.614 11.944 8.423 13.044 14.867.574 3.366 2.932 6.175 6.15 7.331 3.217 1.153 6.811.485 9.387-1.743 4.899-4.53 22.094-16.058 32.816-3.213-3.945 4.086-7.43 9.277-10.248 15.322-1.75 3.754-.125 8.216 3.629 9.966 2.689 1.421 7.648.588 9.967-3.628 2.881-6.18 6.657-11.168 10.632-14.047 2.688-2.092 7.017-3.717 11.931-2.272 9.476 3.079 9.607 13.463 8.814 19.481-.418 2.386-1.164 4.784-2.195 7.124-3.092-1.165-6.468-1.741-10.052-1.659-7.565.162-15.683 3.132-23.476 8.588-9.077 6.356-15.027 14.216-17.132 22.344h-21.233c2.745-12.233-.951-23.159-10.602-29.889-8.457-5.741-19.901-6.649-29.955-.68-8.215-16.14-22.283-23.51-36.735-18.535-5.484 1.888-9.882 5.131-13.073 9.638-2.394 3.381-1.593 8.062 1.787 10.455 3.381 2.393 8.061 1.593 10.455-1.787 1.358-1.918 3.227-3.266 5.714-4.123 10.961-3.773 17.512 8.538 19.956 14.434-1.273 1.486-2.503 3.069-3.681 4.758-3.594 5.155-6.159 10.496-7.619 15.73h-51.605c1.878-2.338 3.434-4.783 4.625-7.311 4.075-8.647 3.661-17.832-1.165-25.863-4.148-6.904-10.584-11.32-18.374-12.72-.36-3.731-.22-9.036 1.052-13.667 2.56-9.25 8.593-10.098 10.576-10.377zm70.784 69.937c1.032-2.369 2.38-4.784 4.03-7.151 3.986-5.717 8.707-9.852 13.293-11.644 4.146-1.621 7.862-1.226 11.354 1.211 6.541 4.56 5.628 11.978 3.586 17.584zm-115.577 0c-.385-.48-.75-.994-1.086-1.552-2.258-3.758-2.406-7.599-.453-11.744 2.148-4.558 6.692-9.088 12.796-12.755s12.232-5.552 17.27-5.31c4.577.221 7.898 2.155 10.156 5.913s2.406 7.599.453 11.744c-2.148 4.558-6.692 9.088-12.796 12.755-.548.329-1.101.645-1.656.949zm6.778-60.13c2.054-.669 7.49-1.354 11.91 1.294-.515 2.966-.943 8.336-.514 13.679-5.269 1.4-12.077 4.239-18.18 8.542-2.967-3.28-6.319-5.984-9.97-8.046.238-.673.562-1.453 1.04-2.369 3.189-6.109 9.357-11.251 15.714-13.1zm-47.411 32.323c4.235-8.697 14.437-7.035 20.304-5.192 3.506 1.323 6.63 3.551 9.348 6.619-1.658 2.149-3.042 4.386-4.128 6.69-3.062 6.499-3.588 13.301-1.613 19.689h-19.835c-4.602-6.41-7.096-21.604-4.076-27.806z"/><path d="m365.987 313.214c0-60.654-49.346-110-110-110s-110 49.346-110 110c0 30.839 13.176 60.163 35.405 80.787h-20.405c-2.673 0-5.145 1.423-6.487 3.735s-1.352 5.165-.025 7.486l7.874 13.779-7.874 13.779c-1.327 2.321-1.317 5.173.025 7.486 1.342 2.312 3.813 3.735 6.487 3.735h190c2.674 0 5.145-1.423 6.487-3.735s1.351-5.165.024-7.486l-7.874-13.779 7.874-13.779c1.326-2.321 1.317-5.173-.024-7.486-1.343-2.312-3.813-3.735-6.487-3.735h-20.404c22.231-20.622 35.404-49.939 35.404-80.787zm-31.512 109.508 3.588 6.279h-164.152l3.588-6.279c1.318-2.306 1.318-5.137 0-7.442l-3.588-6.279h164.152l-3.588 6.279c-1.317 2.306-1.317 5.137 0 7.442zm-128.475-28.721c-27.806-17.254-45.013-48.034-45.013-80.787 0-52.383 42.617-95 95-95s95 42.617 95 95c0 32.764-17.203 63.532-45.014 80.787z"/><path d="m312.606 289.024c-10.032-10.282-25.349-13.952-39.951-9.908-5.741-21.708-21.137-35.662-41.264-35.396-26.159.111-43.723 23.376-43.723 57.971 0 30.169 13.387 51.987 34.452 56.911 1.927 4.479 4.742 8.661 8.495 12.414 7.732 7.732 17.348 11.672 27.814 11.671 6.651 0 13.646-1.592 20.717-4.812 3.77-1.717 5.434-6.165 3.717-9.934s-6.163-5.437-9.934-3.717c-6.305 2.872-14.615 5.007-22.647 2.087 3.016-2.043 6.188-4.463 9.643-7.346 12.252-10.223 15.627-18.688 18.604-26.157 2.657-6.664 4.952-12.419 14.354-20.201 4.845-4.01 8.799-6.866 12.433-8.944 10.618 15.8-3.055 34.958-7.849 40.825-2.621 3.208-2.146 7.933 1.062 10.553 3.208 2.623 7.933 2.145 10.553-1.062 18.994-23.246 20.344-48.136 3.524-64.955zm-53.956-4.046c-5.504 3.123-13.39 8.94-19.499 15.45-.239-.564-.476-1.117-.709-1.659-2.833-6.591-5.28-12.283-4.134-24.434.591-6.267 1.369-11.085 2.47-15.126 14.015 2.746 19.647 16.465 21.872 25.769zm-55.981 16.712c0-16.113 5.001-34.422 18.329-40.714-.669 3.513-1.198 7.43-1.625 11.95-1.506 15.964 2.103 24.359 5.287 31.767 1.412 3.284 2.657 6.205 3.474 9.739-5.644 9.043-8.703 18.258-9.078 27.004-11.907-6.97-16.387-24.081-16.387-39.746zm80.65-.639c-12.353 10.223-15.737 18.711-18.723 26.201-2.654 6.657-4.947 12.406-14.282 20.195-4.782 3.991-8.72 6.825-12.411 8.922-9.837-14.736.454-33.98 13.265-46.792 11.393-11.392 27.874-20.803 41.749-15.828-2.956 2.011-6.1 4.407-9.598 7.302z"/></g></g></svg>