<svg id="Capa_1" enable-background="new 0 0 512 512" height="512" viewBox="0 0 512 512" width="512" xmlns="http://www.w3.org/2000/svg"><g><g><path d="m284.489 155.511h82.011v32.979h-82.011z" fill="#8e868e"/><path d="m281.5 155.511h20.833v32.979h-20.833z" fill="#766d78"/><path d="m375.782 344.5h-95.742-6.82c-3.97 0-7.18 3.21-7.18 7.18v31.79c0 22.66 18.37 41.03 41.02 41.03l19.812 10.5 15.068-10.5c12.3 0 23.347-5.414 30.857-13.994 6.328-7.219 10.164-16.677 10.164-27.032v-31.795c.001-3.965-3.214-7.179-7.179-7.179z" fill="#f8f7f7"/><path d="m235.5 454.915h178v-23.415c0-3.866-3.134-7-7-7h-164c-3.866 0-7 3.134-7 7z" fill="#8e868e"/><path d="m59.5 417.638h138v38.723h-138z" fill="#f8f7f7"/><path d="m59.5 159.5 78.266 8.606 72.734-8.606h222c2.761 0 5-2.239 5-5v-20l-189-9.457-189 9.457z" fill="#f8f7f7"/><path d="m292 37.5c-8.008 0-14.5 6.492-14.5 14.5v14.5l14.5 5.606 14.5-5.606v-14.5c0-8.008-6.492-14.5-14.5-14.5z" fill="#f8f7f7"/><path d="m349 37.5c-8.008 0-14.5 6.492-14.5 14.5v14.5l14.5 5.606 14.5-5.606v-14.5c0-8.008-6.492-14.5-14.5-14.5z" fill="#f8f7f7"/><path d="m406 37.5c-8.008 0-14.5 6.492-14.5 14.5v14.5l14.5 5.606 14.5-5.606v-14.5c0-8.008-6.492-14.5-14.5-14.5z" fill="#f8f7f7"/><path d="m180.5 7.5h-74c-5.523 0-10 4.477-10 10v20l52.372 6.989 41.628-6.989v-20c0-5.523-4.477-10-10-10z" fill="#9e959e"/><path d="m199.5 37.5h-113c-5.523 0-10 4.477-10 10v20l52.372 6.989 80.628-6.989v-20c0-5.523-4.477-10-10-10z" fill="#f8f7f7"/><g><path d="m53.766 129.872 388.819.511 6.415-17.872v-39.011c0-3.866-3.134-7-7-7h-372.5l-10.734 1.5c-5.523 0-10 4.477-10 10z" fill="#9e959e"/><path d="m449 112.511v15c0 3.866-3.134 7-7 7h-387.5c-3.866 0-7-3.134-7-7v-54.011c0-3.866 3.134-7 7-7h15v36.011c0 5.523 4.477 10 10 10z" fill="#8e868e"/></g><path d="m443.701 449.5h-372.261l-17.732 1.655c-3.713 0-7.274 1.475-9.899 4.1l-22.085 20.596c-2.813 2.813-4.393 6.628-4.393 10.607l-.373 5.947c0 5.523 4.477 10 10 10l441.83 1.021c5.523 0 10-4.477 10-10l.713-3.926v-3.787c0-3.978-1.58-7.794-4.393-10.607l-21.508-21.506c-2.625-2.625-6.186-4.1-9.899-4.1z" fill="#9e959e"/><path d="m479.5 485.5v9c0 5.523-4.477 10-10 10h-444c-5.523 0-10-4.477-10-10v-8.79c0-3.976 1.58-7.789 4.391-10.601l21.508-21.508c2.626-2.626 6.188-4.101 9.901-4.101h20.14l-18.045 19.14c-6.015 6.38-1.492 16.86 7.276 16.86z" fill="#8e868e"/><path d="m210.5 159.5-.928 252-1.743 4.125c-.028 3.846-3.153 6.95-7 6.95l-143.617-.851c-3.866 0-7-3.134-7-7l-1.128-247.34c0-3.866 3.134-7 7-7l3.416-.884z" fill="#9e959e"/><g fill="#8e868e"><path d="m209.572 404.5-.022 13.05c-.03 3.85-3.15 6.95-7 6.95h-148.05c-3.866 0-7-3.134-7-7v-251c0-3.866 3.134-7 7-7h12v235c0 5.523 4.477 10 10 10z"/><circle cx="91.5" cy="381.5" r="13"/><circle cx="165.5" cy="381.5" r="13"/><circle cx="91.5" cy="203.5" r="13"/><circle cx="165.5" cy="203.5" r="13"/></g><path d="m324 200.489-42.5 9.011v23.5l2.135 4.28.017 7.895-2.152 2.825v13.5c0 5.52 4.48 10 10 10h2 63c5.523 0 10-4.477 10-10v-52z" fill="#f8f7f7"/><path d="m412.394 254.681 73.404.606c5.523 0 10-4.477 10-10l.702-3.787v-7c0-5.523-4.477-10-10-10h-75c-5.523 0-10 4.477-10 10v7l.894 3.181c0 5.523 4.477 10 10 10z" fill="#9e959e"/><path d="m496.5 239.5v7c0 5.52-4.48 10-10 10h-75c-5.52 0-10-4.48-10-10v-7z" fill="#8e868e"/><path d="m377.5 209.5h-75.167l-30.419-1.202c-1.657 0-3-1.343-3-3v-16.936c0-1.657 1.343-3 3-3l31.586-.862h74c1.657 0 3 1.343 3 3v19c0 1.657-1.343 3-3 3z" fill="#9e959e"/><path d="m302.333 184.5v25h-31.833c-1.66 0-3-1.34-3-3v-19c0-1.66 1.34-3 3-3z" fill="#8e868e"/></g><g><path d="m87.5 365c-11.304 0-20.5 9.196-20.5 20.5s9.196 20.5 20.5 20.5 20.5-9.196 20.5-20.5-9.196-20.5-20.5-20.5zm0 26c-3.033 0-5.5-2.467-5.5-5.5s2.467-5.5 5.5-5.5 5.5 2.467 5.5 5.5-2.467 5.5-5.5 5.5z"/><path d="m169.5 365c-11.304 0-20.5 9.196-20.5 20.5s9.196 20.5 20.5 20.5 20.5-9.196 20.5-20.5-9.196-20.5-20.5-20.5zm0 26c-3.033 0-5.5-2.467-5.5-5.5s2.467-5.5 5.5-5.5 5.5 2.467 5.5 5.5-2.467 5.5-5.5 5.5z"/><path d="m87.5 179c-11.304 0-20.5 9.196-20.5 20.5s9.196 20.5 20.5 20.5 20.5-9.196 20.5-20.5-9.196-20.5-20.5-20.5zm0 26c-3.033 0-5.5-2.467-5.5-5.5s2.467-5.5 5.5-5.5 5.5 2.467 5.5 5.5-2.467 5.5-5.5 5.5z"/><path d="m169.5 179c-11.304 0-20.5 9.196-20.5 20.5s9.196 20.5 20.5 20.5 20.5-9.196 20.5-20.5-9.196-20.5-20.5-20.5zm0 26c-3.033 0-5.5-2.467-5.5-5.5s2.467-5.5 5.5-5.5 5.5 2.467 5.5 5.5-2.467 5.5-5.5 5.5z"/><path d="m486.5 217h-75c-9.143 0-16.659 7.052-17.424 16h-20.076v-16h3.5c5.79 0 10.5-4.71 10.5-10.5v-19c0-5.79-4.71-10.5-10.5-10.5h-3.5v-10h63.5c4.142 0 7.5-3.358 7.5-7.5v-17.731c6.806-1.19 12-7.128 12-14.269v-54c0-7.995-6.505-14.5-14.5-14.5h-14.5v-7c0-9.498-6.051-17.609-14.5-20.682v-23.818c0-4.142-3.358-7.5-7.5-7.5s-7.5 3.358-7.5 7.5v23.818c-8.449 3.073-14.5 11.184-14.5 20.682v7h-13v-7c0-9.498-6.051-17.609-14.5-20.682v-23.818c0-4.142-3.358-7.5-7.5-7.5s-7.5 3.358-7.5 7.5v23.818c-8.449 3.073-14.5 11.184-14.5 20.682v7h-13v-7c0-9.498-6.051-17.609-14.5-20.682v-23.818c0-4.142-3.358-7.5-7.5-7.5s-7.5 3.358-7.5 7.5v23.818c-8.449 3.073-14.5 11.184-14.5 20.682v7h-53v-11.5c0-9.649-7.851-17.5-17.5-17.5h-1.5v-12.5c0-9.649-7.851-17.5-17.5-17.5h-74c-9.649 0-17.5 7.851-17.5 17.5v12.5h-2.5c-9.649 0-17.5 7.851-17.5 17.5v11.5h-14.5c-7.995 0-14.5 6.505-14.5 14.5v54c0 7.141 5.194 13.079 12 14.269v10.462c-6.806 1.19-12 7.128-12 14.269v251c0 7.141 5.194 13.079 12 14.269v10.231h-.701c-5.743 0-11.142 2.236-15.203 6.297l-21.506 21.506c-4.25 4.25-6.59 9.9-6.59 15.91v8.787c0 9.649 7.851 17.5 17.5 17.5h444c9.649 0 17.5-7.851 17.5-17.5v-8.787c0-6.01-2.34-11.661-6.59-15.91l-21.506-21.506c-4.061-4.061-9.46-6.297-15.203-6.297h-22.701v-10.5c0-7.995-6.505-14.5-14.5-14.5h-29.532c3.127-3.267 5.804-6.964 7.929-11h8.103c14.888 0 27-12.112 27-27s-12.112-27-27-27h-2.539v-.32c0-8.094-6.585-14.68-14.679-14.68h-33.782c-4.142 0-7.5 3.358-7.5 7.5s3.358 7.5 7.5 7.5h33.461v31.474c0 18.486-15.04 33.526-33.525 33.526h-34.872c-18.486 0-33.525-15.04-33.525-33.526v-31.474h33.461c4.142 0 7.5-3.358 7.5-7.5s-3.358-7.5-7.5-7.5h-33.782c-8.094 0-14.679 6.585-14.679 14.68v31.794c0 12.996 5.145 24.806 13.494 33.526h-29.533c-7.995 0-14.5 6.505-14.5 14.5v10.5h-23v-10.224c6.782-1.168 11.999-7.073 12.05-14.198l.529-143.548c.015-4.142-3.33-7.513-7.472-7.528-.01 0-.019 0-.028 0-4.129 0-7.484 3.34-7.5 7.472l-.527 143.026h-147.052v-250h147.972l-.265 71.975c-.015 4.143 3.33 7.513 7.473 7.528h.028c4.129 0 7.484-3.34 7.5-7.472l.265-72.03h56.027v10h-3.5c-5.79 0-10.5 4.71-10.5 10.5v19c0 5.79 4.71 10.5 10.5 10.5h3.5v44.5c0 9.649 7.851 17.5 17.5 17.5h25.5v11h-9.5c-9.649 0-17.5 7.851-17.5 17.5v9c0 4.142 3.358 7.5 7.5 7.5s7.5-3.358 7.5-7.5v-9c0-1.378 1.122-2.5 2.5-2.5h9.5v13.5c0 4.142 3.358 7.5 7.5 7.5s7.5-3.358 7.5-7.5v-13.501h9.5c1.378 0 2.5 1.122 2.5 2.5v9c0 4.142 3.358 7.5 7.5 7.5s7.5-3.358 7.5-7.5v-9c0-9.649-7.851-17.5-17.5-17.5h-9.5v-11h24.5c9.649 0 17.5-7.851 17.5-17.5v-13.5h20.076c.765 8.948 8.281 16 17.424 16h75c9.649 0 17.5-7.851 17.5-17.5v-12c0-9.649-7.851-17.5-17.5-17.5zm-93.5 150c6.617 0 12 5.383 12 12s-5.383 12-12 12h-3.125c.384-2.454.586-4.966.586-7.526v-16.474zm-34-134h-13.333v-16h13.333zm-84-31v-10h98v10zm55.667 15v16h-13.333v-16zm-263.667-65v-10h363v10zm332-100c0-3.86 3.14-7 7-7s7 3.14 7 7v7h-14zm-57 0c0-3.86 3.14-7 7-7s7 3.14 7 7v7h-14zm-57 0c0-3.86 3.14-7 7-7s7 3.14 7 7v7h-14zm-181-34.5c0-1.378 1.122-2.5 2.5-2.5h74c1.378 0 2.5 1.122 2.5 2.5v12.5h-79zm-49 56.5h66.5c4.142 0 7.5-3.358 7.5-7.5s-3.358-7.5-7.5-7.5h-37.5v-11.5c0-1.378 1.122-2.5 2.5-2.5h113c1.378 0 2.5 1.122 2.5 2.5v11.5h-45.5c-4.142 0-7.5 3.358-7.5 7.5s3.358 7.5 7.5 7.5h285.5v53h-387zm393.297 384.904 21.506 21.506c1.417 1.417 2.197 3.3 2.197 5.304v8.787c0 1.378-1.122 2.5-2.5 2.5h-444c-1.378 0-2.5-1.122-2.5-2.5v-8.787c0-2.003.78-3.887 2.197-5.304l21.506-21.506c1.228-1.228 2.86-1.904 4.596-1.904h392.402c1.736 0 3.368.676 4.596 1.904zm-205.297-26.904h163v10h-163zm-176 10v-10h123v10zm222-275h70v10h-70zm13.333 50v16h-13.333v-16zm56.667 44.5c0 1.378-1.122 2.5-2.5 2.5h-65c-1.378 0-2.5-1.122-2.5-2.5v-13.5h70zm130-15c0 1.378-1.122 2.5-2.5 2.5h-75c-1.378 0-2.5-1.122-2.5-2.5v-12c0-1.378 1.122-2.5 2.5-2.5h75c1.378 0 2.5 1.122 2.5 2.5z"/><path d="m255.172 469h-122.672c-4.142 0-7.5 3.358-7.5 7.5s3.358 7.5 7.5 7.5h122.672c4.142 0 7.5-3.358 7.5-7.5s-3.358-7.5-7.5-7.5z"/><path d="m362.5 469h-72.328c-4.142 0-7.5 3.358-7.5 7.5s3.358 7.5 7.5 7.5h72.328c4.142 0 7.5-3.358 7.5-7.5s-3.358-7.5-7.5-7.5z"/><circle cx="406.5" cy="100.5" r="7.505"/><circle cx="349" cy="100.5" r="7.505"/><circle cx="292" cy="100.5" r="7.505"/></g></g></svg>