<svg id="Capa_1" enable-background="new 0 0 512 512" height="512" viewBox="0 0 512 512" width="512" xmlns="http://www.w3.org/2000/svg"><g><g><path d="m224.933 146.581c-1.443-13.731-13.745-23.693-27.476-22.25-2.956.311-5.737 1.124-8.267 2.347 0 0-1.652 2.895-2.7 3.619-6.331 4.379-11.087 9.889-11.396 17.89-.003.075-1.991 2.751-3.448 4.319-.894.962-1.556 2.263-1.556 2.263l23.71 18.37s12.847-10.961 12.846-10.961z" fill="#f6d190"/><path d="m223.88 147.48-17.23 14.7-12.85 10.96-23.71-18.37s.66-1.3 1.56-2.26c1.45-1.57 3.44-4.25 3.44-4.32.31-8 4.45-15.2 10.78-19.58 1.05-.72 2.16-1.37 3.32-1.93.56 6.51 3.67 12.79 9.15 17.23 3.37 2.73 7.24 4.44 11.22 5.17 4.82.88 9.81.32 14.32-1.6z" fill="#ecbd83"/><path d="m102.5 351.5-9.353-148 346.353 8v75l-9.693 17.784 9.693 16.216v12l-5.619 19z" fill="#f9eac7"/><path d="m121.626 322.5v-119h-27.158v148l158.532 11.463 186.5-11.463v-19h-307.874c-5.523 0-10-4.477-10-10z" fill="#f4dbb3"/><path d="m439.5 286.5v34h-338.96l-2.15-34z" fill="#d2af8c"/><path d="m121.626 286.5v34h-20.497l-2.739-34z" fill="#c9a281"/><path d="m274.5 133.5c-3.978 0-8.082 1.013-11.929 2.842 0 0-5.612 5.472-8.465 8.488-4.961 5.246-9.678 10.9-9.606 18.67 0 16.569 13.431 30 30 30s30-13.431 30-30-13.431-30-30-30z" fill="#f6d190"/><path d="m304.39 166.04c-1.29 15.38-14.18 27.46-29.89 27.46-16.57 0-30-13.43-30-30-.12-12.24 8.121-22.428 18.071-27.158-.05.71-.081 1.428-.071 2.158 0 16.57 13.43 30 30 30 4.22 0 8.24-.87 11.89-2.46z" fill="#ecbd83"/><path d="m257.085 181.5c0-2.996.83-8.679.83-8.679-3.86-15.132-17.581-26.321-33.915-26.321-3.945 0-7.737.653-11.275 1.856 0 0-9.807 7.703-9.81 7.708-6.042 4.859-11.286 9.853-13.055 17.676 0 0-9.741 7.426-9.741 7.76h.002l43.154 6.087z" fill="#f9eac7"/><path d="m259 181.5-35.72 6.09-43.16-6.09c0-.33 9.74-7.76 9.74-7.76 1.77-7.82 6.16-14.65 12.2-19.51.01 0 .02-.01.02-.01 3.15-2.53 6.735-4.544 10.645-5.864 1.5 5.89 4.565 11.474 9.165 16.074 5.87 5.87 13.31 9.22 20.96 10.05l.02-.01c5.05.55 10.186.001 15.045-1.649.701 2.78 1.085 5.689 1.085 8.679z" fill="#f4dbb3"/><path d="m337.383 181.5c0-2.743.359-7.851.359-7.851-3.292-9.961-12.677-17.149-23.742-17.149-3.521 0-6.872.728-9.91 2.041v-.001s-4.562 4.879-6.92 7.439c-4.102 4.453-6.043 8.987-6.043 15.521l24.452 2.124z" fill="#f9eac7"/><path d="m339 181.5-23.42 2.12-26.58-2.12c0-5.14 1.55-9.92 4.22-13.9 2.66-3.97 6.43-7.14 10.87-9.06 3.29 9.97 12.84 17.08 23.91 17.08 3.45 0 6.75-.69 9.74-1.97.82 2.47 1.26 5.11 1.26 7.85z" fill="#f4dbb3"/><path d="m439.5 186.5c0-2.761-2.239-5-5-5h-331.757l-13.587.954c-8.284 0-15 6.716-15 15l.495 154.046 13.761 5.628 14.088-5.628v-125c0-8.284 6.716-15 15-15h21c.709 0 1.406.049 2.088.144 7.296 1.016 14.43 4.092 14.43 11.668l-.055 22.073c0 8.284 5.312 14.972 13.596 14.972 2.733 0 7.442-.865 7.442-.865 4.483-2.594 7.499-7.441 7.499-12.992v-20c0-8.284 6.716-15 15-15 .978 0 1.935.094 2.861.273 6.916 1.336 14.153 4.839 14.153 12.145l-.661 56.367c0 8.284 5.367 15.028 13.651 15.028 2.733 0 7.497-.819 7.497-.819 4.483-2.594 7.499-7.441 7.499-12.992v-55c0-8.284 6.716-15 15-15h93c.729 0 1.445.052 2.146.152 7.268 1.041 14.042 4.379 14.042 11.935l-.041 20.601c0 8.284 5.532 14.67 13.817 14.67l-.028.069c1.734 0 3.167-.222 4.717-.764.892-.312 2.849-.67 2.849-.67 4.483-2.594 7.499-7.441 7.499-12.992v-18c0-8.284 6.716-15 15-15h28v-25.003z" fill="#b06c6c"/><path d="m104.5 181.5c-8.28 0-15 6.72-15 15v155l-9.5 5.628-7.5-5.628v-155c0-8.28 6.72-15 15-15z" fill="#9d5e5e"/><g fill="#9d5e5e"><path d="m176.001 259.492c-2.2 1.28-4.771 2.008-7.501 2.008-8.28 0-15-6.72-15-15v-20c0-8.28-6.72-15-15-15h15c8.28 0 15 6.72 15 15v20c0 5.55 3.021 10.392 7.501 12.992z"/><path d="m236.001 294.492c-2.2 1.28-4.771 2.008-7.501 2.008-8.28 0-15-6.72-15-15v-55c0-4.14-1.68-7.89-4.4-10.6-2.71-2.72-6.46-4.4-10.6-4.4h15c8.28 0 15 6.72 15 15v55c0 5.55 3.021 10.392 7.501 12.992z"/><path d="m389.001 257.492c-2.2 1.28-4.771 2.008-7.501 2.008-8.28 0-15-6.72-15-15v-18c0-8.28-6.72-15-15-15h15c8.28 0 15 6.72 15 15v18c0 5.55 3.021 10.392 7.501 12.992z"/></g><g fill="#bae6ef"><circle cx="149.268" cy="166.679" r="14.821"/><circle cx="134.447" cy="140.997" r="14.821"/><circle cx="164.089" cy="140.997" r="14.821"/><circle cx="149.268" cy="115.321" r="14.821"/><circle cx="178.911" cy="166.679" r="14.821"/><circle cx="119.626" cy="166.679" r="14.821"/></g><path d="m429.5 411.5h-332l-13.069-2.206c-5.523 0-10-4.477-10-10l.11-18.514 180.33-8.018 184.629 8.738v20c0 5.523-4.477 10-10 10z" fill="#e8e8e8"/><path d="m97.5 380.78v30.72h-15c-5.52 0-10-4.48-10-10v-20z" fill="#d8d8d8"/><path d="m13.275 353c-1.79 0-3.185 1.559-2.988 3.339 1.661 14.997 11.934 24.019 27.374 24.019l27.552 1.142h409.287c15.44 0 28.156-11.664 29.816-26.661.197-1.779-1.198-3.339-2.988-3.339h-463.828z" fill="#f8f7f7"/><path d="m67.5 381.5h-30c-15.442 0-28.156-11.663-29.816-26.661-.197-1.779 1.198-3.339 2.988-3.339h26.828c0 16.57 13.43 30 30 30z" fill="#e8e8e8"/></g><path d="m504.5 344h-57.5v-132.5-25c0-6.893-5.607-12.5-12.5-12.5h-88.883c-3.396-14.315-16.278-25-31.617-25-1.617 0-3.206.123-4.761.352-5.635-13.891-19.214-23.352-34.739-23.352-13.064 0-24.914 6.733-31.677 17.41-3.638-1.805-7.568-3.101-11.701-3.801-4.479-14.531-18.753-24.382-34.45-22.736-7.511.789-14.154 4.098-19.195 8.99-2.529-2.736-5.732-4.836-9.343-6.041.299-1.454.456-2.959.456-4.5 0-12.308-10.014-22.321-22.321-22.321s-22.321 10.013-22.321 22.321c0 1.541.157 3.046.456 4.5-8.865 2.957-15.277 11.329-15.277 21.176 0 1.543.158 3.049.457 4.505-8.866 2.957-15.278 11.329-15.278 21.176 0 2.564.44 5.026 1.24 7.321h-8.046c-12.406 0-22.5 10.093-22.5 22.5v61.649c0 4.142 3.357 7.5 7.5 7.5s7.5-3.358 7.5-7.5v-61.649c0-4.136 3.364-7.5 7.5-7.5h344.5v15h-20.5c-12.406 0-22.5 10.093-22.5 22.5v18c0 4.136-3.364 7.5-7.5 7.5s-7.5-3.364-7.5-7.5v-18c0-12.407-10.094-22.5-22.5-22.5h-93c-12.406 0-22.5 10.093-22.5 22.5v9.394c0 4.142 3.357 7.5 7.5 7.5s7.5-3.358 7.5-7.5v-9.394c0-4.136 3.364-7.5 7.5-7.5h93c4.136 0 7.5 3.364 7.5 7.5v18c0 12.407 10.094 22.5 22.5 22.5s22.5-10.093 22.5-22.5v-18c0-4.136 3.364-7.5 7.5-7.5h20.5v60h-53.404c-4.143 0-7.5 3.358-7.5 7.5s3.357 7.5 7.5 7.5h53.404v19h-322v-19h99.802c4.041 6.025 10.914 10 18.698 10s14.656-3.975 18.698-10h96.398c4.143 0 7.5-3.358 7.5-7.5s-3.357-7.5-7.5-7.5h-92.596v-8.106c0-4.142-3.357-7.5-7.5-7.5s-7.5 3.358-7.5 7.5v10.606c0 4.136-3.364 7.5-7.5 7.5s-7.5-3.364-7.5-7.5v-55c0-12.407-10.094-22.5-22.5-22.5s-22.5 10.093-22.5 22.5v20c0 4.136-3.364 7.5-7.5 7.5s-7.5-3.364-7.5-7.5v-20c0-12.407-10.094-22.5-22.5-22.5h-21c-12.406 0-22.5 10.093-22.5 22.5v117.5h-15v-50.851c0-4.142-3.357-7.5-7.5-7.5s-7.5 3.358-7.5 7.5v50.851h-57.5c-4.143 0-7.5 3.358-7.5 7.5 0 20.678 16.822 37.5 37.5 37.5h27.5v12.5c0 9.649 7.851 17.5 17.5 17.5h347c9.649 0 17.5-7.851 17.5-17.5v-12.5h27.5c20.678 0 37.5-16.822 37.5-37.5 0-4.142-3.357-7.5-7.5-7.5zm-174.713-170h-31.575c2.816-5.902 8.824-10 15.787-10s12.973 4.098 15.788 10zm-55.287-33c9.291 0 17.406 5.65 20.802 13.942-6.376 4.502-11.064 11.236-12.919 19.058h-16.56c-1.479-8.272-5.356-15.719-10.889-21.598 3.939-6.952 11.346-11.402 19.566-11.402zm-135.553 25.679c0-4.037 3.284-7.321 7.321-7.321s7.321 3.284 7.321 7.321-3.283 7.321-7.32 7.321-7.322-3.284-7.322-7.321zm29.643 0c0-4.037 3.284-7.321 7.32-7.321 4.037 0 7.321 3.284 7.321 7.321s-3.284 7.321-7.321 7.321c-4.036 0-7.32-3.284-7.32-7.321zm55.41-12.679c12.563 0 23.178 8.472 26.452 20h-52.904c3.274-11.528 13.889-20 26.452-20zm-25.76-22.209c4.645-.489 9.209.862 12.843 3.804 1.548 1.254 2.832 2.744 3.853 4.389-8.526 1.86-16.1 6.286-21.877 12.426-2.629-3.154-6.111-5.57-10.087-6.9 1.556-7.189 7.566-12.91 15.268-13.719zm-37.15 16.528c-4.037 0-7.321-3.284-7.321-7.321s3.284-7.321 7.321-7.321c4.036 0 7.32 3.284 7.32 7.321s-3.284 7.321-7.32 7.321zm-14.821-40.319c4.037 0 7.321 3.284 7.321 7.321s-3.284 7.321-7.321 7.321-7.321-3.284-7.321-7.321 3.283-7.321 7.321-7.321zm-14.822 25.676c4.037 0 7.321 3.284 7.321 7.321s-3.284 7.321-7.321 7.321-7.321-3.284-7.321-7.321 3.284-7.321 7.321-7.321zm-22.142 33.003c0-4.037 3.284-7.321 7.321-7.321s7.321 3.284 7.321 7.321-3.284 7.321-7.321 7.321-7.321-3.284-7.321-7.321zm8.195 52.321h21c4.136 0 7.5 3.364 7.5 7.5v20c0 12.407 10.094 22.5 22.5 22.5s22.5-10.093 22.5-22.5v-20c0-4.136 3.364-7.5 7.5-7.5s7.5 3.364 7.5 7.5v52.5h-96v-52.5c0-4.136 3.364-7.5 7.5-7.5zm-7.5 109h322v16h-322zm364.5 46h-166.351c-4.143 0-7.5 3.358-7.5 7.5s3.357 7.5 7.5 7.5h123.851v12.5c0 1.378-1.121 2.5-2.5 2.5h-347c-1.379 0-2.5-1.122-2.5-2.5v-12.5h193.149c4.143 0 7.5-3.358 7.5-7.5s-3.357-7.5-7.5-7.5h-235.649c-9.778 0-18.119-6.27-21.215-15h479.43c-3.096 8.73-11.437 15-21.215 15z"/></g></svg>