<svg id="Capa_1" enable-background="new 0 0 512 512" height="512" viewBox="0 0 512 512" width="512" xmlns="http://www.w3.org/2000/svg"><g><g><path d="m219 31h30v42h-30z" fill="#ecbd83"/><path d="m132.89 169.055-2.39-44.555h-31.815c-.264-.001-.532 0-.805.004 0 0-6.305 1.711-13.039 3.769-2.18.74-2.75 3.62-.99 5.11 5.3 4.48 7.303 9.194 8.583 16.124l3.8 20.77c2.72 14.81 16.217 23.745 31.277 23.745z" fill="#f9eac7"/><path d="m128.17 184.5-3.67 12c-15.06 0-27.97-10.76-30.69-25.57l-3.8-20.77c-1.28-6.93-4.92-13.15-10.22-17.63-1.76-1.49-1.19-4.37.99-5.11 6.73-2.06 12.52-2.856 17.1-2.916 4.71 4.38 7.94 10.216 9.13 16.656l3.8 20.77c1.86 10.15 8.51 18.39 17.36 22.57z" fill="#f4dbb3"/><path d="m325.94 152h94.62v25h-89.966z" fill="#f6d190"/><g><path d="m346.908 286.039c.231-.119 5.409-2.918 5.639-3.038 33.3-17.397 53.953-51.456 53.953-89.077v-61.424c0-2.761 2.239-5 5-5h20c2.761 0 5 2.239 5 5v61.423c0 49.187-27.188 93.686-70.956 116.131l-17.149 9.607z" fill="#ecbd83"/></g><g><path d="m129 327.587h210v41.826h-210z" fill="#f6d190"/></g><path d="m348.34 361h-223.85l-3.268 1.95c-5.201 0-9.534 3.987-9.965 9.17l-6.936 112.128c-.729 8.745 6.173 16.246 14.948 16.246l231.382 1.039c8.013 0 15.774-12.326 15.71-13.085l1.472-3.946-1.542-18.5-5.182-8.065 3.932-6.935-6.736-80.831c-.431-5.184-4.764-9.171-9.965-9.171z" fill="#f9eac7"/><path d="m368.167 490.5c-.51 7.75-6.957 14-14.967 14h-238.4c-8.77 0-15.67-7.5-14.95-16.25l1.854-22.25 4.21-7.5-2.96-7.5 6.736-80.83c.44-5.18 4.77-9.17 9.97-9.17h10.83l-9.171 105.101c-.818 9.907 7.002 18.399 16.942 18.399h229.572z" fill="#f4dbb3"/><path d="m353.76 316-16.26-191.5-103.522-8.344-99.318 8.009-16.575 192.878c-.743 8.753 6.161 16.269 14.946 16.269l203.309-1.156c8.015 0 16.597-10.305 16.597-10.305.048-.744.823-5.851.823-5.851z" fill="#f9eac7"/><path d="m354.09 322c0 7.596-6.94 14-14.96 14h-210.26c-8.79 0-15.69-7.52-14.95-16.27l16.58-195.23 8.005-4.876 12.065 4.876-15.23 170.87c-.95 11.1 7.8 20.63 18.93 20.63h199.49z" fill="#f4dbb3"/><g><path d="m180.991 220.077c0 26.528 10.453 44.145 33.247 44.145s34.181-17.618 34.181-44.146c0-23.444-9.257-42.964-27.141-47.187l-7.721.476-7.907-.323c-4.109 1.063-7.752 2.945-10.921 5.503 0 0-1.873 2.453-3.044 3.767-7.83 8.789-10.694 22.346-10.694 37.765z" fill="#b06c6c"/><path d="m242.525 248.979c-5.633 11.625-15.286 19.132-28.756 19.132-22.793 0-34.642-21.511-34.642-48.034 0-17.724 5.29-33.19 15.595-41.523-3.904 8.051-5.883 18.04-5.883 28.898 0 26.523 11.848 48.034 34.642 48.034 7.564 0 13.926-2.37 19.044-6.507z" fill="#9d5e5e"/><path d="m229.033 223.887c-18.758 18.758-25.168 39.694-9.05 55.811 9.13 9.13 18.583 11.848 30.272 8.255 1.936-.595 5.808-1.868 5.808-1.868 7.004-3.187 13.933-8.181 20.304-14.553 16.589-16.589 23.845-36.955 14.153-52.591l-6.811-4.601-4.337-6.315c-5.296-3.116-11.114-4.327-17.131-3.924 0 0-5.03 1.158-7.667 1.906-9.24 2.623-17.135 9.474-25.541 17.88z" fill="#b06c6c"/><path d="m256.063 286.087c-11.008 5.009-22.199 5.55-31.707-.051l-4.662-6.318-6.508-4.644c-9.647-15.631-2.387-35.965 14.18-52.541 10.809-10.799 23.221-17.645 34.875-18.432-7.002 3.185-13.936 8.176-20.307 14.547-18.753 18.763-25.581 42.343-9.459 58.464 6.825 6.839 15.003 9.548 23.588 8.975z" fill="#9d5e5e"/></g><path d="m266 7.5h-64c-2.76 0-5 2.24-5 5v17c0 2.76 2.24 5 5 5h64c2.761 0 5-2.239 5-5v-17c0-2.761-2.238-5-5-5z" fill="#f6d190"/><path d="m312.566 83.505c-11.629-8.959-26.041-14.005-41.121-14.005 0 0-59.757.275-80.395.811 0 0-6.534 1.389-6.539 1.391-6.851 1.271-7.135 2.522-13.208 5.768-9.63 5.16-18.02 12.66-24.26 22.03l89.884 3.39 87.435-3.39c-3.24-4.86-11.796-15.995-11.796-15.995z" fill="#f9eac7"/><path d="m327.5 99.5-90.57 3.39-96.43-3.39c6.24-9.37 14.63-16.87 24.26-22.03 3.134-1.678 6.404-3.105 9.778-4.268 5.277-1.819 10.821-2.749 16.401-2.889l.111-.003c.001.001 0 0 .001.002-5.348 4.509-2.04 13.188 4.889 13.188l116.627.005c1.23.95 2.444 1.945 3.614 2.985 4.269 3.77 8.079 8.15 11.319 13.01z" fill="#f4dbb3"/><path d="m337.5 124.5h-186.93l-19.552-1.849c-6.904 0-11.78-3.748-11.78-10.651 0-6.904 4.436-11.532 11.339-11.532l22.078-.968h184.845c6.904 0 12.5 5.596 12.5 12.5 0 6.904-5.596 12.5-12.5 12.5z" fill="#f6d190"/><path d="m152.656 99.5-2.086 25h-20.07c-6.9 0-12.5-5.6-12.5-12.5 0-3.45 1.4-6.58 3.66-8.84s5.39-3.66 8.84-3.66z" fill="#ecbd83"/></g><g><path d="m431.5 120h-20c-6.893 0-12.5 5.607-12.5 12.5v12h-52.275l-1.205-14.191c7.044-3.098 11.98-10.133 11.98-18.309 0-11.028-8.972-20-20-20h-6.128c-14.104-18.856-36.208-30-59.928-30h-14.944v-20h9.5c6.893 0 12.5-5.607 12.5-12.5v-17c0-6.893-5.607-12.5-12.5-12.5h-64c-6.893 0-12.5 5.607-12.5 12.5v17c0 6.893 5.607 12.5 12.5 12.5h9.5v20h-14.944c-23.72 0-45.824 11.144-59.928 30h-6.128c-11.028 0-20 8.972-20 20 0 1.729.244 3.399.658 5h-12.473c-9.124 0-17.964 1.906-26.276 5.667-2.557 1.156-4.254 3.644-4.399 6.446-.145 2.803 1.287 5.451 3.711 6.865 5.734 3.345 9.71 9.009 10.907 15.539l3.806 20.761c2.864 15.62 14.857 27.595 29.863 30.841l-9.848 115.976c-.531 6.259 1.601 12.501 5.851 17.126 2.537 2.762 5.716 4.814 9.2 6.024v11.255h-1.84c-9.03 0-16.69 7.049-17.439 16.047l-9.84 118.084c-.521 6.253 1.616 12.487 5.865 17.104 4.248 4.616 10.283 7.265 16.557 7.265h238.396c6.274 0 12.309-2.648 16.557-7.265 4.249-4.617 6.386-10.852 5.865-17.104l-9.84-118.083c-.75-8.999-8.41-16.048-17.439-16.048h-1.84v-11.254c3.484-1.21 6.662-3.262 9.2-6.024 3.856-4.196 5.961-9.724 5.922-15.388 26.361-12.951 50.319-32.907 64.611-58.989 2.036-3.606.763-8.182-2.844-10.218-3.608-2.037-8.182-.763-10.218 2.844-11.66 20.926-30.757 38.899-52.869 49.921l-1.386-16.318c34.08-19.126 55.082-54.826 55.082-94.151v-58.923h15v58.923c0 10.187-1.243 20.32-3.696 30.12-1.005 4.018 1.437 8.091 5.455 9.096 4.017 1.008 8.09-1.437 9.097-5.455 2.75-10.989 4.144-22.348 4.144-33.761v-61.423c0-6.893-5.607-12.5-12.5-12.5zm-32.5 39.5v10h-50.152l-.849-10zm-194.5-144.5h59v12h-59zm22 27h15v20h-15zm-96 65h66.5c4.142 0 7.5-3.357 7.5-7.5s-3.358-7.5-7.5-7.5h-40.088c10.806-9.562 24.83-15 39.643-15h74.889c14.813 0 28.837 5.438 39.643 15h-79.087c-4.142 0-7.5 3.357-7.5 7.5s3.358 7.5 7.5 7.5h105.5c2.757 0 5 2.243 5 5s-2.243 5-5 5h-207c-2.757 0-5-2.243-5-5s2.243-5 5-5zm-29.311 62.573-3.806-20.761c-1.086-5.923-3.549-11.417-7.113-16.088 2.761-.482 5.57-.725 8.416-.725h23.652l-4.751 55.951c-8.292-2.529-14.767-9.479-16.398-18.377zm257.528 325.005c-1.437 1.562-3.397 2.422-5.519 2.422h-238.396c-2.122 0-4.082-.86-5.519-2.422s-2.131-3.586-1.955-5.701l1.907-22.877h249.531l1.906 22.877c.176 2.115-.518 4.14-1.955 5.701zm-157.164-141.078c-4.142 0-7.5 3.357-7.5 7.5s3.358 7.5 7.5 7.5h146.787c1.29 0 2.384 1.007 2.491 2.293l6.685 80.207h-247.031l6.684-80.208c.107-1.285 1.201-2.292 2.491-2.292h46.894c4.142 0 7.5-3.357 7.5-7.5s-3.358-7.5-7.5-7.5h-30.054v-10h195v10zm143.101-27.426c-1.438 1.564-3.398 2.426-5.523 2.426h-210.262c-2.125 0-4.085-.861-5.523-2.426s-2.13-3.592-1.95-5.709c3.675-43.281 12.438-146.444 15.994-188.365h193.22l15.994 188.365c.18 2.117-.513 4.145-1.95 5.709zm12.844-54.705-7.376-86.869h48.878v9.423c0 31.517-15.67 60.326-41.502 77.446z"/><path d="m291.471 207.624c-9.631-9.864-24.307-13.43-38.297-9.641-5.588-20.421-20.679-34.105-39.714-33.859-21.332.071-36.671 15.425-41.045 41.11-.695 4.083 2.051 7.957 6.134 8.652 4.086.691 7.958-2.052 8.653-6.135 1.155-6.786 4.828-20.656 15.846-26.229-.59 3.222-1.064 6.794-1.449 10.88-1.451 15.379 2.025 23.465 5.091 30.598 1.329 3.092 2.503 5.849 3.281 9.155-5.28 8.493-8.189 17.141-8.65 25.378-6.843-4.253-10.537-11.83-12.502-18.337-1.198-3.966-5.385-6.214-9.348-5.012-3.965 1.197-6.209 5.383-5.012 9.348 5.059 16.754 15.814 27.934 29.855 31.281 1.861 4.271 4.561 8.263 8.148 11.849 7.529 7.529 16.821 11.221 26.817 11.221 13.809 0 28.962-7.046 42.671-20.754 23.633-23.634 27.464-51.56 9.534-69.49-.003-.006-.008-.01-.013-.015zm-19.773 4.865c-2.69 1.858-5.545 4.045-8.7 6.656-11.901 9.85-15.161 18.024-18.036 25.237-2.528 6.341-4.711 11.816-13.598 19.231-4.463 3.723-8.152 6.39-11.601 8.377-9.047-13.942.722-32.095 12.84-44.212 8.81-8.811 20.811-16.382 32.064-16.382 2.39 0 4.745.349 7.031 1.093zm-51.227 4.586c-2.699-6.278-5.029-11.699-3.938-23.266.552-5.849 1.273-10.37 2.286-14.169 12.913 2.7 18.224 15.33 20.378 24.184-5.077 2.89-12.521 8.389-18.229 14.41-.168-.39-.334-.779-.497-1.159zm50.874 49.446c-10.679 10.681-26.047 19.527-39.089 15.284 2.736-1.884 5.605-4.077 8.717-6.673 11.803-9.849 15.053-18.001 17.921-25.194 2.531-6.347 4.716-11.829 13.667-19.235 4.525-3.745 8.226-6.418 11.627-8.388 9.043 13.939-.727 32.09-12.843 44.206z"/></g></g></svg>