<svg id="Capa_1" enable-background="new 0 0 512 512" height="512" viewBox="0 0 512 512" width="512" xmlns="http://www.w3.org/2000/svg"><g><g><path d="m294.761 187.5h-144.351l-8.621-63.867-21.598-61.128 105.234-5.633 103.787 5.633-21.5 88.91z" fill="#9e959e"/><path d="m170.41 187.5h-12.729l-19.034-48.649-18.457-76.341 6.063-5.638 13.937 5.638z" fill="#8e868e"/><g fill="#e8e8e8"><path d="m172.505 141.835s-20.569-9.018-21.354-9.178c-4.98-1.02-10.281 1.463-12.501 6.193l11.76 48.65h3.104 35.856l3.01-40.02z"/><path d="m307.712 151.415-8.722 36.085h-38.44l-6.8-22.63 19.67-32.26 24.81 5.95c5.87 1.41 9.76 6.79 9.48 12.62z"/><path d="m189.834 154.585-13.201-12.915-7.338-2.007-2.391-1.737c-5.362-3.895-6.55-11.4-2.655-16.762l17.1-23.536c3.895-5.362 11.4-6.55 16.762-2.655l10.33 7.505 3.655 4.76 15.615 9.24-2.286 28.741z"/></g><path d="m227.71 116.48-19.269-14.001c-1.04 2.23-1.761 4.641-2.111 7.171l-2.126 15.124c-.155 1.1-.9 2.023-1.944 2.401-6.343 2.298-28.33 10.275-28.33 10.275-1.64.59-3.185 1.333-4.635 2.213l20.535 14.927 15.429-4.062.001.002 20.16-5.31 1.26-15.8s-.001 0-.001-.001z" fill="#d8d8d8"/><path d="m266.508 187.027c6.821-6.587 7.011-17.456.424-24.277l-5.046-5.248-40.83-8.319 1.486 45.908z" fill="#d8d8d8"/><path d="m306.872 37.5h-165.083l.009-23.408c0-2.761 2.239-5 5-5l12.542-1.592h144.72c2.761 0 5 2.239 5 5v8z" fill="#f8f7f7"/><path d="m309.06 20.5v17l-85.858 5.17-82.862-5.17v-25c0-2.761 2.239-5 5-5h14v5c0 4.418 3.582 8 8 8z" fill="#e8e8e8"/><g><path d="m330.702 62.505h-187.849l-23.743-.735c-6.904 0-11.945-4.862-11.945-11.765 0-6.904 5.041-11.684 11.945-11.684l23.853-.816h187.739c6.904 0 12.5 5.596 12.5 12.5 0 6.904-5.597 12.5-12.5 12.5z" fill="#f8f7f7"/><path d="m144.7 62.51h-26c-6.9 0-12.5-5.6-12.5-12.5 0-3.45 1.4-6.58 3.66-8.84s5.39-3.66 8.84-3.66h26c-3.45 0-6.58 1.4-8.84 3.66s-3.66 5.39-3.66 8.84c0 6.9 5.6 12.5 12.5 12.5z" fill="#e8e8e8"/></g><path d="m218.054 140.568.135-14.728 2.001-14.24c.922-6.563 6.991-11.135 13.553-10.213l31.242 4.391c6.563.922 11.135 6.991 10.213 13.553l-4.391 31.242c-.922 6.563-6.991 11.135-13.553 10.213l-14.143-1.988-16.358-4.826z" fill="#f8f7f7"/><path d="m243.11 158.8-17.83-2.51-9.27-14.98 2.18-15.47c8.63 1.97 15.91 8.22 19.03 16.77z" fill="#e8e8e8"/><path d="m178.436 186.341-7.179-19.725c-2.359-6.481.983-13.648 7.464-16.007l29.338-10.678c6.481-2.359 13.648.983 16.007 7.464l10.678 29.338c1.179 3.241.934 6.652-.417 9.549z" fill="#f8f7f7"/><path d="m420.449 405.482-37.104-76.621c-4.845-10.005-14.984-16.361-26.101-16.361h-49.767l-9.963 14.041 9.963 10.959h45.908c3.836 0 7.334 2.194 9.003 5.647l35.414 73.252c2.169 4.486 6.657 7.1 11.333 7.1 1.833 0 3.697-.402 5.458-1.252 6.252-3.013 8.874-10.52 5.856-16.765z" fill="#9e959e"/><path d="m339.38 409.5c-28.24.13-28.43 10-57.05 10-28.82 0-28.82-10-57.63-10s-28.81 10-57.63 10c-28.62 0-28.81-9.87-57.05-10l18.228-31.271 11.582-40.729 83.592-5.069 86.148 5.069z" fill="#f8f7f7"/><path d="m355.95 449.04-16.57-39.54c-28.24.13-28.43 6-57.05 6-28.82 0-28.82-10-57.63-10s-28.81 10-57.63 10c-22.789 0-27.564-3.719-42.816-5.301l-14.234-.699-10.931 34.806c-11.05 26.35 8.31 55.46 36.89 55.46l178.553.766c12.48 0 30.442-14.047 30.442-14.047l8.725-1.98c5.941-10.261 7.409-23.164 2.251-35.465z" fill="#d2af8c"/><path d="m164.25 336.02-33.08 75.13-14.17 5.552-6.98-7.202 29.81-72z" fill="#e8e8e8"/><path d="m309.57 312.5v25h-168.029v-25l84.593-7.096z" fill="#8e868e"/><path d="m145.092 283.605h164.478v28.894h-164.478z" fill="#9e959e"/><path d="m163.588 312.5v25h-23.758v-25l10.521-3.794z" fill="#766d78"/><path d="m139.83 283.605h23.758v28.894h-23.758z" fill="#8e868e"/><path d="m313.78 232.5h-180.413l.283-35.473c0-5.523 4.477-10 10-10l6.55-1.183h157.002c5.523 0 10 4.477 10 10v17.656z" fill="#8e868e"/><path d="m317.2 213.5v19l-93.998 8.775-91.002-8.775v-36.656c0-5.523 4.477-10 10-10h8v17.656c0 5.523 4.477 10 10 10z" fill="#766d78"/><path d="m313.202 287.5h-149.614l-25.313-2.206c-2.209 0-4-1.791-4-4l-2.073-18.794 95.508-6.5 89.492 6.5v21c0 2.209-1.791 4-4 4z" fill="#f8f7f7"/><path d="m163.588 262.5v25h-27.388c-2.21 0-4-1.79-4-4v-21l12.011-4.271z" fill="#e8e8e8"/><path d="m326.413 260.94-204.222.372c-2.209 0-4-1.791-4-4l.396-19.78c0-2.209 1.791-4 4-4l16.613-1.032h189.002c2.209 0 4 1.791 4 4v10l-1.789 10.44c0 2.21-1.791 4-4 4z" fill="#f8f7f7"/><path d="m332.2 246.5v12c0 2.209-1.791 4-4 4h-207c-2.209 0-4-1.791-4-4v-22c0-2.209 1.791-4 4-4h18v6c0 4.418 3.582 8 8 8z" fill="#e8e8e8"/><path d="m309.7 312.5h-.13" fill="#f8f7f7"/><path d="m353.699 484.505c-1.21 2.1-2.629 4.095-4.199 5.945-7.2 8.45-17.96 14.05-30.44 14.05h-188.72c-28.58 0-47.94-29.11-36.89-55.46l16.57-39.54 21.15 1.65-12.64 30.473c-8.467 20.413 6.535 42.877 28.634 42.877z" fill="#c9a281"/></g><path d="m427.236 402.213-14.388-29.712c-1.804-3.727-6.288-5.287-10.019-3.481-3.729 1.805-5.287 6.291-3.481 10.019l14.386 29.708c.42 1.425 1.395 4.292-2.362 6.746-1.803.705-4.848.84-6.78-2.356l-35.414-73.254c-2.903-6.003-9.087-9.882-15.755-9.882h-36.312v-10h40.171c8.187 0 15.782 4.761 19.351 12.129l7.478 15.442c1.295 2.675 3.97 4.233 6.756 4.233 1.096 0 2.21-.242 3.263-.752 3.729-1.805 5.287-6.291 3.481-10.019l-7.478-15.443c-6.06-12.509-18.954-20.591-32.852-20.591h-40.171v-10h.129c4.143 0 7.5-3.357 7.5-7.5v-17.5h7.5c4.143 0 7.5-3.357 7.5-7.5v-30c0-4.143-3.357-7.5-7.5-7.5h-7.5v-27.5c0-9.209-7.155-16.762-16.195-17.434l26.739-110.602c8.843-2.066 15.456-9.996 15.456-19.459 0-11.028-8.972-20-20-20h-14.142v-17.505c0-6.893-5.607-12.5-12.5-12.5h-158.716c-6.893 0-12.5 5.607-12.5 12.5v17.505h-14.142c-11.028 0-20 8.972-20 20 0 9.463 6.613 17.394 15.456 19.459l26.739 110.602c-9.04.672-16.195 8.225-16.195 17.434v27.5h-7.5c-4.143 0-7.5 3.357-7.5 7.5v30c0 4.143 3.357 7.5 7.5 7.5h7.5v17.5c0 4.143 3.357 7.5 7.5 7.5h.129v41.877l-45.798 109.261c-6.161 14.699-4.57 31.397 4.256 44.668 8.827 13.271 23.613 21.194 39.551 21.194h188.724c15.938 0 30.724-7.923 39.551-21.193 8.826-13.271 10.418-29.97 4.257-44.669l-42.394-101.138h32.907c.952 0 1.836.555 2.251 1.412l35.414 73.253c4.812 9.161 15.846 14.349 26.798 9.34 9.217-4.245 14.227-16.414 9.351-26.792zm-279.868-82.213h154.742v10h-154.742zm-17.61-249.995h189.963l-15.218 62.948c-1.401-.725-2.899-1.304-4.489-1.686l-18.266-4.385.867-6.166c1.522-10.835-6.055-20.889-16.89-22.412l-30.56-4.295c-5.253-.739-10.473.612-14.704 3.802-.915.69-1.746 1.459-2.516 2.276l-15.551-11.299c-8.607-6.257-20.701-4.341-26.955 4.269l-17.338 23.863c-1.935 2.663-3.125 5.707-3.529 8.885-3.764-1.18-7.707-1.08-11.304.082zm53.941 70.826-12.512-9.09c-1.917-1.394-2.344-4.087-.951-6.004l17.338-23.863c1.393-1.916 4.085-2.342 6.004-.95l18.67 13.565-2.441 17.368c-1.431.185-2.864.514-4.276 1.028zm47.452 3.999c-1.369-3.759-3.763-6.848-6.742-9.093l3.198-22.752c.181-1.281.849-2.416 1.882-3.195 1.033-.776 2.309-1.107 3.59-.928l30.56 4.295c2.646.372 4.495 2.827 4.124 5.472l-4.296 30.56c-.372 2.645-2.823 4.49-5.472 4.123l-25.036-3.518zm-74.801 35.17-9.515-39.357c1.025-.735 2.397-.94 3.621-.396.322.24 17.576 7.64 18.217 8.207-1.523 1.577-2.806 3.398-3.76 5.443-2.256 4.84-2.493 10.268-.667 15.283l3.938 10.82zm27.796 0-5.804-15.949c-.456-1.252-.396-2.606.166-3.813.563-1.208 1.562-2.123 2.815-2.579l29.337-10.679c2.585-.941 5.454.396 6.395 2.981.236.853 10.674 28.934 10.858 30.039zm58.87 0c-.102-1.966-.494-3.928-1.187-5.831l-3.062-8.412 17.139 2.409c.933.132 1.859.195 2.775.195 1.025 0 2.032-.097 3.023-.251 1.707 1.839 2.626 4.221 2.582 6.737-.032 1.865-.595 3.636-1.601 5.154h-19.669zm31.621-19.744c1.893-2.565 3.208-5.608 3.682-8.98l1.331-9.472 16.862 4.048c2.195.527 3.72 2.487 3.733 4.713l-7.116 29.435h-14.415c.348-1.591.542-3.227.571-4.893.093-5.395-1.541-10.555-4.648-14.851zm-155.898-115.251h129.729c4.143 0 7.5-3.357 7.5-7.5s-3.357-7.5-7.5-7.5h-100.587v-15.005h153.717v15.005h-18.13c-4.143 0-7.5 3.357-7.5 7.5s3.357 7.5 7.5 7.5h47.271c2.757 0 5 2.243 5 5s-2.243 5-5 5h-212c-2.757 0-5-2.243-5-5s2.244-5 5-5zm21 152.495c0-1.379 1.121-2.5 2.5-2.5h165c1.379 0 2.5 1.121 2.5 2.5v27.5h-170zm-15 42.5h200v15h-200zm41.937 55c4.143 0 7.5-3.357 7.5-7.5s-3.357-7.5-7.5-7.5h-26.937v-10h170v10h-108.063c-4.143 0-7.5 3.357-7.5 7.5s3.357 7.5 7.5 7.5h100.435v10h-154.743v-10zm179.485 187.499c-6.129 9.216-15.992 14.501-27.06 14.501h-188.724c-11.068 0-20.931-5.285-27.061-14.501s-7.191-20.355-2.912-30.562l14.606-34.846c10.175.433 15.818 2.408 21.744 4.487 7.244 2.542 15.455 5.423 30.982 5.423 15.528 0 23.739-2.881 30.983-5.423 6.5-2.281 12.639-4.436 24.784-4.57 4.142-.047 7.462-3.442 7.416-7.584-.047-4.113-3.395-7.416-7.498-7.416-.028 0-.058 0-.086 0-14.614.164-22.566 2.954-29.583 5.416-6.708 2.354-13.044 4.577-26.017 4.577-12.972 0-19.308-2.224-26.016-4.577-5.429-1.905-11.403-4.001-20.591-4.931l24.1-57.493h159.023l24.098 57.492c-9.19.93-15.164 3.026-20.594 4.931-6.708 2.354-13.045 4.577-26.018 4.577-10.497 0-16.497-1.448-21.417-3.014-3.946-1.258-8.166.925-9.421 4.872-1.257 3.947.926 8.165 4.872 9.421 5.782 1.84 13.389 3.721 25.966 3.721 15.528 0 23.739-2.881 30.984-5.423 5.926-2.079 11.57-4.054 21.746-4.487l14.606 34.846c4.28 10.208 3.218 21.347-2.912 30.563z"/></g></svg>