<svg id="Capa_1" enable-background="new 0 0 512 512" height="512" viewBox="0 0 512 512" width="512" xmlns="http://www.w3.org/2000/svg"><g><g><path d="m225.377 208.969c4.653 8.101 16.717 16.738 24.698 19.192 108.56-26.116 168.409-79.534 161.942-175.334-4.653-8.101-16.375-17.747-25.006-21.32-94.797 18.35-145.286 80.092-161.634 177.462z" fill="#865151"/><path d="m423.738 47.957c-2.641-3.824-8.782-2.68-10.588 2.016-14.241 37.05-42.201 67.388-86.026 93.87-16.625 10.044-31.001 21.634-42.812 33.589v.001c-.001-.001-.001-.002-.002-.003-21.149 21.411-34.075 44.001-36.95 60.978-.333 1.544-.83 5.223 2.619 7.262 4.741 2.442 9.63 4.342 14.634 5.728 33.009 9.141 71.026-4.155 104.65-32.556 8.091-6.833 15.928-14.54 23.379-23.02.011-.013.021-.028.032-.041 7.296-8.308 7.271-19.32 12.922-28.036 2.251-3.47 12.874-8.019 12.874-8.019 22.323-39.667 26.502-81.023 5.268-111.769z" fill="#9d5e5e"/><path d="m386.991 15.837c-3.203-1.62-6.473-2.995-9.799-4.132-41.81-14.31-92.582 8.945-132.372 54.225-7.785 8.858-14.678 18.024-20.586 27.336 0 0-3.553 11.414-3.553 11.415-18.904 34.381-26.695 68.845-13.54 97.527-1.131-2.459 10.015 27.006 18.682 4.014 8.516-18.277 22.593-37.25 40.547-54.532 0-.001 0-.003 0-.004 0 0 .003-.002.003-.002 12.872-12.396 27.726-23.927 43.929-33.717 44.132-26.66 69.64-57.283 79.395-95.632.681-2.673-.411-5.337-2.706-6.498z" fill="#9d5e5e"/><path d="m373.2 151.74c-21.26 0-46.778 2.161-69.573 10.591-7.078 2.618-15.031.147-19.259-6.103-3.105-4.59-6.207-8.961-8.958-12.458-6.48-8.26-13.21-15.99-20.15-23.15-14.37 24.92-24.19 54.47-29.88 88.35 0 0 110.26 38.27 143.88 9.87 8.09-6.83 15.93-14.54 23.38-23.02.01-.01.02-.03.03-.04 7.3-8.31 13.81-16.87 19.46-25.59 2.25-3.47 4.38-6.964 6.34-10.464-14.33-5.3-29.51-7.986-45.27-7.986z" fill="#865151"/><path d="m275.24 143.55c-3.05 2.66-6.01 5.37-8.87 8.13v.01c-17.95 17.28-32.03 36.26-40.55 54.53-8.25 21.9-18.76-3.8-18.76-4.15.02.02.04.07.08.14-13.15-28.68-7.94-64.2 10.96-98.58v-.01c1.91-3.46 3.944-6.924 6.134-10.354 18.03 13.36 35.256 30.254 51.006 50.284z" fill="#865151"/><path d="m233.444 356.774c10.376-3.634 22.974-15.725 27.537-24.427-6.767-131.229-55.638-212.003-167.862-225.211-10.376 3.634-24.067 15.11-30.065 24.324.754 113.63 61.277 185.373 170.39 225.314z" fill="#9d5e5e"/><path d="m260.79 332.35c-4.56 8.7-17.16 20.79-27.54 24.42-26.28-9.62-49.73-21.08-70.22-34.54 10.57-27.5 27.39-55.39 48.86-80.97 8.21-9.78 16.74-18.84 25.53-27.14 13.52 32.78 21 72.44 23.37 118.23z" fill="#865151"/><path d="m146.309 238.872c9.356 24.934 22.004 48.175 36.45 68.148 0 0-.291 4.469.868 6.001 15.103 19.955 34.551 34.996 51.574 46.106 4.983 3.252 7.183 5.622 2.138 7.788-52.398 22.495-115.295-4.668-162.383-64.681-40.936-52.174-59.769-110.076-40.85-154.564 1.648-3.876 5.014-11.35 5.014-11.35 1.7-2.818 3.565-5.561 5.601-8.223 1.839-2.404 5.156-3.093 8.102-1.728 42.258 19.568 72.175 55.691 93.486 112.503z" fill="#b06c6c"/><path d="m276.064 196.936c-1.885-3.478-4.016-10.775-4.016-10.775-5.294-8.696-11.27-17.303-17.881-25.727-47.439-60.461-111.719-91.4-164.344-67.908-4.994 2.229-4.997 9.581.046 12.684 39.786 24.477 68.845 63.374 90.016 119.793 4.829 12.872 10.481 24.923 16.672 36.019 0 0 8.879 5.527 11.166 9.17 21.894 34.89 44.271 60.63 65.483 67.917 2.973.728 5.838 1.794 10.299-5.231 25.717-36.47-7.441-135.942-7.441-135.942z" fill="#b06c6c"/><g fill="#9d5e5e"><path d="m283.51 332.88c-4.47 7.02-7.33 5.96-10.3 5.23-21.22-7.29-48.07-30.91-69.97-65.8-2.29-3.64-4.523-7.409-6.683-11.289 4.79-6.71 9.912-13.312 15.333-19.761 18.67-22.24 39.018-40.769 60.158-55.099 2.1 3.45 4.102 6.919 5.982 10.399v.01c.01-.01.01-.01.01-.01 26.59 49.07 31.18 99.85 5.47 136.32z"/><path d="m235.2 359.13c-.975-.65.021.04-3.931-2.67-16.985-11.907-33.691-28.95-48.509-49.44-2.63-3.64-5.2-7.38-7.71-11.23-5.41 10.3-10.01 20.68-13.71 30.97-.857 2.336-1.886 5.352-2.914 8.613-1.341 4.253-6.277 6.215-10.14 3.988-23.234-13.393-45.583-33.373-65.126-58.28-37.56-47.861-55.01-101.461-44.04-144.761-27.39 45.41-11.66 110.35 32.85 167.07 47.09 60.01 110.77 90.93 163.17 68.43 2.455-1.052 3.707-3.321 3.778-5.746 2.857-1.941.637-4.107-3.718-6.944z"/><path d="m210.532 445.612 16 9.713 17.791 15.987c141.651-37.514 218.575-109.389 207.224-234.886-6.347-10.489-22.015-22.794-33.446-27.224-123.827 26.91-189.034 108.169-207.569 236.41z"/></g><path d="m250.19 456.76c-2.39 5.02-4.35 9.89-5.87 14.55-10.45-2.95-27.15-15-33.62-25.43 1.99-4.77 4.27-9.58 6.83-14.42 3.15 3.54 6.55 6.89 10.19 10.06 6.96 6.05 14.49 11.12 22.47 15.24z" fill="#865151"/><path d="m428.83 424.149c-55.096 65.661-123.732 94.763-181.532 66.638-2.742-1.334-4.283-4.28-3.915-7.498 1.018-8.903 6.806-26.53 6.806-26.53 15.088-31.737 47.188-69.445 92.7-98.38 56.707-36.056 92.483-76.697 110.058-125.733 2.228-6.216 10.251-7.9 13.831-2.962 34.151 47.113 21.8 114.898-21.731 176.028 0 0-7.699 8.798-11.494 13.501-1.253 1.554-3.43 3.394-4.723 4.936z" fill="#b06c6c"/><path d="m445.24 405.44c-4.6 6.48-9.56 12.88-14.84 19.18-55.09 65.66-127.88 97.79-185.68 69.67-2.74-1.34-4.28-4.28-3.92-7.5.55-4.81 1.73-10 3.52-15.48 1.52-4.66 3.48-9.53 5.87-14.55 5.9 3.05 12.05 5.58 18.4 7.59 55.65 17.67 126.17-4.11 176.65-58.91z" fill="#9d5e5e"/><path d="m320.045 324.924c-45.495 28.927-82.414 68.414-102.519 106.534-3.205 6.077-5.362 7.506-7.679 13.465-2.405 6.184-10.346 7.851-13.868 2.843-20.688-29.42-23.216-62.052-11.915-100.681 1.039-3.553 2.509-10.721 2.509-10.721 9.382-26.246 25.09-52.833 45.998-77.75 54.885-65.41 127.337-97.533 185.033-69.981 3.046 1.455 4.559 4.917 3.746 8.445-11.651 50.606-44.201 91.546-101.305 127.846z" fill="#b06c6c"/><path d="m217.53 431.46c-2.56 4.84-4.84 9.65-6.83 14.42-.52 1.23-1.01 2.44-1.48 3.66-2.4 6.18-10.34 7.85-13.86 2.84-22.64-32.19-23.944-73.842-8.674-116.332-1.72 34.03 7.184 66.182 26.954 90.832 1.25 1.56 2.55 3.09 3.89 4.58z" fill="#9d5e5e"/><path d="m217.53 431.46c-2.56 4.84-4.84 9.65-6.83 14.42-.52 1.23-1.01 2.44-1.48 3.66-2.4 6.18-10.34 7.85-13.86 2.84-22.64-32.19-23.944-73.842-8.674-116.332-1.72 34.03 7.184 66.182 26.954 90.832 1.25 1.56 2.55 3.09 3.89 4.58z" fill="#9d5e5e"/></g><path d="m472.847 225.284c-3.216-4.437-8.44-6.615-13.998-5.824-3.091.44-5.913 1.762-8.203 3.729-6.553-6.954-15.269-13.683-23.579-18.086.56-2.099 1.099-4.208 1.59-6.342 1.605-6.981-1.612-13.928-7.825-16.894-1.91-.912-3.853-1.745-5.809-2.539 15.286-22.167 25.169-45.295 28.666-67.272 4.096-25.735-.671-49.374-13.783-68.36-2.716-3.93-7.411-6.014-12.244-5.436-2.131.254-4.125.991-5.872 2.105-4.529-4.777-10.205-9.359-15.771-12.663.328-1.166.644-2.34.945-3.522 1.553-6.106-1.157-12.29-6.59-15.039-22.765-11.515-49.484-12.161-77.274-1.867-25.921 9.601-51.481 28.171-73.918 53.705-12.666 14.415-22.99 29.511-30.767 44.952-10.277-7.217-20.824-13.199-31.5-17.815-31.773-13.737-62.946-14.581-90.149-2.436-4.755 2.122-7.802 6.557-8.152 11.864-.178 2.696.373 5.325 1.519 7.669-7.012 4.382-14.131 10.46-19.398 16.657-1.571-.788-3.155-1.56-4.761-2.304-6.162-2.853-13.239-1.216-17.211 3.978-6.415 8.388-11.419 17.747-14.872 27.815-1.344 3.918.743 8.184 4.662 9.527 3.914 1.344 8.184-.743 9.527-4.661 2.827-8.245 6.877-15.923 12.044-22.837 40.2 18.773 68.539 53.144 89.162 108.121 10.891 29.027 26.47 56.682 45.057 79.997-6.28 14.882-10.97 29.786-13.506 46.058-32.434-9.223-65.184-33.391-92.968-68.801-28.563-36.404-44.471-75.464-44.791-109.985-.039-4.118-3.389-7.43-7.499-7.43-.023 0-.047 0-.07 0-4.143.038-7.469 3.427-7.431 7.569.352 37.812 17.395 80.111 47.99 119.105 30.429 38.781 66.861 65.079 103.186 74.655-1.482 27.867 5.273 53.125 19.967 74.019 2.417 3.327 7.878 6.881 13.723 6.016 3.171-.386 6.089-1.708 8.466-3.717 6.719 6.982 15.773 13.163 23.808 16.861-.866 3.477-1.496 6.846-1.866 10.079-.734 6.422 2.438 12.347 8.085 15.095 15.028 7.312 31.306 10.97 48.357 10.969 16.596 0 33.926-3.466 51.529-10.4 33.49-13.191 66.28-38.144 94.825-72.162 28.539-34.012 47.417-70.63 54.592-105.897 7.646-37.583 1.459-71.56-17.893-98.256zm-72.779-50.781c-18.911-4.615-39.382-4.266-60.27 1.19-17.238 4.502-34.821 12.479-51.97 23.463-1.56-3.093-3.204-6.176-4.928-9.249 13.333-14.976 29.917-28.658 48.099-39.643 43.878-26.466 73.401-58.127 88.292-95.418 19.656 31.39 12.564 75.718-19.223 119.657zm-149.619-103.625c42.195-48.02 93.65-67.134 131.64-49.097-4.126 15.551-10.905 29.483-20.7 42.55-2.484 3.314-1.812 8.016 1.503 10.5 3.313 2.484 8.017 1.811 10.499-1.503 7.36-9.819 13.192-20.084 17.637-31.04 4.719 3.206 9.437 7.467 12.488 11.373-14.237 32.313-40.566 59.771-80.273 83.763-18.061 10.913-34.675 24.343-48.425 39.084-2.914-4.514-5.994-8.993-9.248-13.427 14.119-14.642 30.847-27.969 48.609-38.702 12.681-7.66 24.033-15.775 33.74-24.12 3.142-2.7 3.499-7.436.799-10.577-2.701-3.142-7.438-3.498-10.576-.798-9.077 7.803-19.749 15.425-31.72 22.657-18.228 11.014-35.434 24.617-50.122 39.572-11.21-13.691-23.206-25.756-35.714-35.962 7.321-15.157 17.356-30.039 29.863-44.273zm-97.12 165.362c-19.006-50.669-44.46-85.134-79.209-106.853 5.184-5.488 12.153-10.864 18.021-13.773 34.864 23.59 61.317 60.317 80.719 112.025 7.866 20.963 18.078 40.545 30.369 58.266-4.282 6.744-8.186 13.539-11.701 20.358-15.615-20.811-28.757-44.859-38.199-70.023zm48.903 210.581c-.241.622-.676.874-.942.962-35.054-50.22-14.054-127.533 43.296-191.587 2.762-3.087 2.498-7.829-.589-10.59-3.088-2.762-7.829-2.498-10.591.589-6.164 6.839-14.828 17.464-21.123 26.315-10.137-15.408-18.66-32.233-25.379-50.141-21.191-56.474-50.645-96.277-89.96-121.557-1.221-.779-.036-.024-3.004-1.902 46.573-19.999 107.01 5.853 154.324 66.154 10.86 13.841 19.945 28.189 27.081 42.682-5.416 3.988-10.771 8.259-16.031 12.832-3.126 2.717-3.457 7.455-.739 10.581 2.719 3.127 7.456 3.457 10.581.74 49.82-43.309 102.616-56.649 144.906-36.643-11.004 48.361-42.426 88.069-98.045 123.339-52.384 33.308-95.983 82.441-113.785 128.226zm222.425-27.025c-55.542 66.192-124.751 92.804-176.406 67.869 1.564-12.911 7.494-26.684 15.414-40.217 2.112-3.563.937-8.164-2.626-10.276-3.562-2.111-8.165-.937-10.276 2.627-4.394 7.411-8.02 14.692-10.833 21.694-7.426-3.707-16.007-10.103-20.714-16.384 18.303-40.888 57.779-83.926 104.85-113.855 51.141-32.509 82.89-68.354 98.425-111.511 7.702 4.561 15.868 11.493 20.605 17.647-17.756 43.825-51.924 81.402-104.232 114.661-25.19 16.014-48.143 35.889-66.375 57.476-2.673 3.165-2.274 7.896.89 10.569 3.165 2.673 7.897 2.274 10.569-.89 17.266-20.441 39.038-39.286 62.964-54.497 57.716-36.857 94.779-78.632 113.095-129.532.207-.577.625-.785.872-.849 33.502 46.536 19.305 119.293-36.222 185.468z"/></g></svg>