<svg id="Capa_1" enable-background="new 0 0 512 512" height="512" viewBox="0 0 512 512" width="512" xmlns="http://www.w3.org/2000/svg"><g><g><path d="m229.5 87h53v37h-53z" fill="#e8e8e8"/><path d="m301.168 162.566c-.112-2.142-.168-4.291-.168-6.443v-20.623c0-8.284-6.716-15-15-15h-54c-8.284 0-18 12.716-18 21v14.623c0 2.15-.056 4.295-.168 6.435l13.551 26.145 58.553-.681z" fill="#f8f7f7"/><path d="m331.043 253.894-2.857-16.394c-2.408-5.512-5.224-10.861-8.436-16-11.112-17.779-17.49-38.067-18.582-58.934h-.168c-22.5 0-22.5 11.868-45 11.868-16.067 0-20.661-6.052-30.168-9.512l-7.416 1.212c-1.09 20.871-14.012 45.206-14.012 45.206-7.895 12.631-18.699 28.762-21.617 43.234z" fill="#ffec9c"/><path d="m177.5 486.553c0 8.284 6.716 15 15 15l125.649-.255c8.284 0 20.351-3.514 20.351-11.798v-54l-2.606-3h-158.394z" fill="#ffec9c"/><path d="m177.5 421.128v-114.25c0-28.223.822-36.388 2.433-44.378l2.003-4h149.106l5.025 4c1.611 7.99 2.433 16.154 2.433 24.378v50.622l-3 16.245 3 13.755v43z" fill="#f8f7f7"/><path d="m278.5 7.5h-42c-6.627 0-12 5.373-12 12v34h64l2-19v-15c0-6.627-5.373-12-12-12z" fill="#f8f7f7"/><path d="m251.5 34.5c-5.523 0-10-4.477-10-10v-17h-8c-6.627 0-12 5.373-12 12v37h69v-22z" fill="#e8e8e8"/><path d="m296 90.5h-66.5c-2.761 0-16.5-2.239-16.5-5v-27c0-2.761 13.739-5 16.5-5h66.5c2.761 0 5 2.239 5 5v27c0 2.761-2.239 5-5 5z" fill="#9e959e"/><path d="m229.5 53.5h-13.5c-2.761 0-5 2.239-5 5v27c0 2.761 2.239 5 5 5h13.5z" fill="#8e868e"/><g fill="#f9df8a"><path d="m338.5 435.5h-150l-7.023-13.295 7.023-11.705h150z"/><path d="m328.186 237.5h-129.372c-4.112 2.351-9.469 7.578-10.878 12.011-1.479 4.652-2.043 9.744 2.997 12.989h145.134c-.815-4.044-1.924-8.496-3.443-13.24-1.386-4.329-2.907-8.256-4.438-11.76z"/><path d="m175.489 340.468c6.71 0 9.247-1.908 13.011-.479 7.806 2.962 12.333 7.511 26.247 7.511 20.623 0 20.623-10 41.247-10 20.626 0 20.626 10 41.253 10s20.626-10 41.253-10v30c-20.626 0-20.626 10-41.253 10s-20.626-10-41.253-10c-20.623 0-20.623 10-41.247 10-13.914 0-18.442-4.55-26.247-7.511-3.764-1.428-5.854-4.627-12.565-4.627z"/></g><g><path d="m231.619 167.517c.112-2.14.381-9.244.381-11.394v-35.623h-6c-8.284 0-15 6.716-15 15v20.623c0 2.15-.056 4.312-.168 6.451l7.359 5.192z" fill="#e8e8e8"/><path d="m213.25 221.5c10.703-17.125 16.944-33.927 18.369-53.983-3.775-1.355-14.275-4.951-20.619-4.951l-.168.008c-1.09 20.871-7.468 41.145-18.582 58.927-3.212 5.139-6.029 10.488-8.436 16l1.356 2.181 10.638-.426 9.005-1.755c2.408-5.513 5.225-10.862 8.437-16.001z" fill="#f9df8a"/><path d="m194.5 477.5v-42l-13.5-4-7.5 4v54c0 8.284 6.716 15 15 15h16.5l2.979-3h96l3.021 3h16.5c8.284 0 15-6.716 15-15h-6.436-125.564c-6.627 0-12-5.373-12-12z" fill="#f9df8a"/><path d="m196.933 262.5-13.146-4-7.854 4c-1.611 7.99-2.433 16.154-2.433 24.378v50.622l4 15.734-4 14.266v43l21 5.266v-108.889c0-28.223.822-36.388 2.433-44.377z" fill="#e8e8e8"/><g fill="#ffd180"><path d="m173.5 410.5h21v25h-21z"/><path d="m204.814 237.5h-21c-1.557 3.567-3.107 7.578-4.516 12.011-1.479 4.652-2.563 9.018-3.365 12.989h21c.802-3.971 1.886-8.337 3.365-12.989 1.409-4.433 2.959-8.444 4.516-12.011z"/><path d="m194.501 342.684c-3.765-1.429-14.288-5.184-21.001-5.184v30c6.712 0 17.236 3.755 21.001 5.184z"/></g></g><path d="m294.97 489.497c-8.43-7.911-21.353-15.997-38.97-15.997s-30.538 8.086-38.968 15.997c-8.074 7.58-12.032 15.003-12.032 15.003h102s-3.956-7.423-12.03-15.003z" fill="#ffd180"/></g><g><path d="m326.11 217.525c-1.546-2.474-3.016-5.036-4.368-7.616-1.923-3.669-6.458-5.087-10.125-3.161-3.669 1.923-5.084 6.455-3.162 10.124 2.054 3.949 3.682 6.394 7.605 13.128h-120.121c.859-1.524 1.741-3.037 2.671-4.525 10.449-16.718 16.932-35.477 19.085-54.931 5.103.801 8.413 2.537 12.306 4.59 6.043 3.188 12.893 6.8 25.999 6.8s19.956-3.612 25.999-6.8c3.894-2.054 7.204-3.79 12.309-4.591.421 3.798.998 7.578 1.748 11.317.815 4.061 4.76 6.687 8.829 5.879 4.061-.814 6.693-4.768 5.878-8.828-1.502-7.487-2.263-15.154-2.263-22.788v-20.623c0-11.041-7.996-20.243-18.5-22.137v-15.363h6c6.893 0 12.5-5.607 12.5-12.5v-27c0-6.21-4.557-11.363-10.5-12.325v-26.675c0-10.752-8.748-19.5-19.5-19.5h-45c-10.752 0-19.5 8.748-19.5 19.5v26.675c-5.943.962-10.5 6.114-10.5 12.325v27c0 6.893 5.607 12.5 12.5 12.5h6v15.363c-10.504 1.894-18.5 11.096-18.5 22.137v20.623c0 21.737-6.089 42.969-17.61 61.402-13.012 20.82-19.89 44.801-19.89 69.352v202.623c0 12.406 10.093 22.5 22.5 22.5h135c12.407 0 22.5-10.094 22.5-22.5v-202.623c0-24.551-6.878-48.532-19.89-69.352zm-97.11-198.025c0-2.481 2.019-4.5 4.5-4.5h45c2.481 0 4.5 2.019 4.5 4.5v26.5h-54zm-10.5 63.5v-22h75v22zm56.5 15v15h-38v-15zm-49 30h60c4.136 0 7.5 3.364 7.5 7.5v20.019c-8.448 1.061-13.732 3.833-18.499 6.347-5.368 2.831-9.607 5.067-19.001 5.067s-13.633-2.236-19.001-5.067c-4.768-2.515-10.051-5.286-18.499-6.347v-20.019c0-4.136 3.364-7.5 7.5-7.5zm-45 217.63c3.904.743 6.664 2.073 9.852 3.619 5.56 2.695 11.862 5.751 23.896 5.751s18.336-3.056 23.896-5.752c4.895-2.373 8.762-4.248 17.351-4.248 8.591 0 12.458 1.875 17.354 4.249 5.561 2.695 11.863 5.751 23.898 5.751s18.337-3.056 23.898-5.751c3.189-1.546 5.949-2.877 9.854-3.619v14.826c-7.408.947-12.128 3.225-16.398 5.295-4.896 2.374-8.763 4.249-17.354 4.249s-12.458-1.875-17.354-4.249c-5.561-2.695-11.863-5.751-23.898-5.751-12.034 0-18.336 3.056-23.896 5.752-4.895 2.373-8.762 4.248-17.351 4.248-8.59 0-12.457-1.875-17.352-4.249-4.27-2.07-8.989-4.347-16.396-5.295zm0 72.37h83.66c4.142 0 7.5-3.357 7.5-7.5s-3.358-7.5-7.5-7.5h-83.66v-27.37c3.904.743 6.664 2.073 9.852 3.619 5.56 2.695 11.862 5.751 23.896 5.751s18.336-3.056 23.896-5.752c4.895-2.373 8.762-4.248 17.351-4.248 8.591 0 12.458 1.875 17.354 4.249 5.561 2.695 11.863 5.751 23.898 5.751s18.337-3.056 23.898-5.751c3.189-1.546 5.949-2.877 9.854-3.619v27.37h-31.34c-4.142 0-7.5 3.357-7.5 7.5s3.358 7.5 7.5 7.5h31.341v10h-150zm142.153-173c1.274 3.284 2.411 6.617 3.379 10h-75.894c-4.142 0-7.5 3.357-7.5 7.5s3.358 7.5 7.5 7.5h79.119c.818 5.565 1.243 11.203 1.243 16.877v43.579c-7.408.947-12.128 3.225-16.398 5.295-4.896 2.374-8.763 4.249-17.354 4.249s-12.458-1.875-17.354-4.249c-5.561-2.695-11.863-5.751-23.898-5.751-12.034 0-18.336 3.056-23.896 5.752-4.895 2.373-8.762 4.248-17.351 4.248-8.59 0-12.457-1.875-17.352-4.249-4.27-2.07-8.989-4.347-16.396-5.295v-43.579c0-5.674.425-11.312 1.243-16.877h33.395c4.142 0 7.5-3.357 7.5-7.5s-3.358-7.5-7.5-7.5h-30.17c.968-3.383 2.105-6.716 3.379-10zm-103.075 252c7.248-7.474 19.182-16 35.922-16 16.859 0 28.77 8.521 35.985 16zm103.422 0h-12.323c-6.174-9.198-24.084-31-55.177-31s-49.003 21.802-55.177 31h-12.323c-4.136 0-7.5-3.364-7.5-7.5v-46.5h150v46.5c0 4.136-3.364 7.5-7.5 7.5z"/><path d="m238.5 307.5h35c4.142 0 7.5-3.357 7.5-7.5s-3.358-7.5-7.5-7.5h-35c-4.142 0-7.5 3.357-7.5 7.5s3.358 7.5 7.5 7.5z"/></g></g></svg>