<svg id="Capa_1" enable-background="new 0 0 512 512" height="512" viewBox="0 0 512 512" width="512" xmlns="http://www.w3.org/2000/svg"><g><g><g><circle cx="266" cy="104" fill="#dcf2f6" r="97"/><path d="m362.911 107.92c-2.049 51.756-44.66 93.08-96.911 93.08-53.568 0-97-43.432-97-97 0-43.967 29.258-81.114 69.375-93.001-.059 1.297-.089 2.603-.089 3.92 0 53.568 43.432 97 97 97 9.601-.001 18.875-1.396 27.625-3.999z" fill="#bae6ef"/></g><g><circle cx="186" cy="169" fill="#ffec9c" r="98"/><path d="m283.91 172.96c-2.07 52.29-45.12 94.04-97.91 94.04-54.12 0-98-43.88-98-98 0-44.42 29.56-81.95 70.09-93.96-.06 1.31-.09 2.63-.09 3.96 0 54.12 43.88 98 98 98 9.7 0 19.07-1.41 27.91-4.04z" fill="#f9df8a"/></g><g><circle cx="335.5" cy="182.5" fill="#b06c6c" r="98"/><path d="m433.41 186.46c-2.07 52.29-45.12 94.04-97.91 94.04-54.12 0-98-43.88-98-98 0-44.42 29.56-81.95 70.09-93.96-.06 1.31-.09 2.63-.09 3.96 0 54.12 43.88 98 98 98 9.7 0 19.07-1.41 27.91-4.04z" fill="#9d5e5e"/></g><path d="m231 414.299h50v59.68h-50z" fill="#eac89f"/><path d="m348.5 469.5h-168c-13.807 0-28.032 4.223-36.649 17.883l.128 9.766c0 5.523 15.998 7.351 21.521 7.351h198c5.523 0 10-4.477 10-10 0-13.807-11.193-25-25-25z" fill="#f4dbb3"/><path d="m168.5 494.5h.5c0-13.807 10.693-25 24.5-25h-30c-13.807 0-25 11.193-25 25 0 5.523 4.477 10 10 10h30c-5.523 0-10-4.477-10-10z" fill="#eac89f"/><path d="m255.5 325.5c-30.614-.257-51.319 23.394-52 52 0 28.719 23.281 52 52 52 28.859-.002 52.027-23.482 52-52 0-28.719-23.281-52-52-52z" fill="#f4dbb3"/><path d="m256 381.5c-103.829 0-182-81.17-182-185h370c0 32.418-8.206 62.919-22.655 89.539l-5.358 6.599-4.277 9.233c-5.312 7.833-11.2 15.243-17.602 22.171l-6.399 3.603-4.454 7.228c-5.934 5.46-12.218 10.545-18.818 15.214l-7.437 3.361-5.327 4.919c-28.028 16.603-95.673 23.133-95.673 23.133z" fill="#f9eac7"/><path d="m292.107 371.652h-19c-73.694 0-118.469-42.413-149.286-104.152-10.796-21.628-17.555-45.619-19.268-71h-36.553c0 60.13 28.231 113.665 72.16 148.079 0 0 9.98 4.427 15.245 7.767 9.245 5.865 29.283 18.148 29.283 18.148 13.724 5.63 49.313 15.023 52.312 14.506 3.929-.677 75.239-8.908 80.848-10.866l6.713-4.89 9.032-1.441c7.071-3.229 13.095-6.514 18.08-9.436-9.424 3.735-22.843 7.644-39.925 10.233-7.281 1.103-15.231 1.969-23.816 2.476-4.811.284 9.398.544 4.175.576z" fill="#f4dbb3"/><path d="m443.5 207.5h-356.868c-8.284 0-13.717-6.716-13.717-15 0-8.284 3.631-15 11.915-15h358.67c8.284 0 15 6.716 15 15 0 8.284-6.716 15-15 15z" fill="#f4dbb3"/><path d="m104.83 177.5h-36.33c-8.229 0-15 6.771-15 15s6.771 15 15 15h38.132c-1.206-6.458-2.228-24.33-1.802-30z" fill="#eac89f"/><path d="m443.5 267.5h-338.729c-8.284 0-24.111-6.716-24.111-15 0-8.284 4.012-15 12.297-15h350.543c8.284 0 15 6.716 15 15 0 8.284-6.716 15-15 15z" fill="#f4dbb3"/><path d="m112.956 237.5h-44.456c-8.163.08-14.818 6.69-14.994 14.667-.181 8.221 6.578 15.246 14.994 15.333h56.321c-4.775-9.565-8.759-19.592-11.865-30z" fill="#eac89f"/></g><path d="m448.532 230.574c.974-5.547 1.708-11.154 2.202-16.775 8.867-3.02 15.265-11.424 15.265-21.3 0-12.406-10.094-22.5-22.5-22.5h-3.24c-4.88-41.423-33.622-75.217-71.841-87.757-10.753-47.908-53.354-82.242-102.918-82.242-21.881 0-42.87 6.639-60.698 19.199-16.21 11.422-28.726 26.927-36.415 45.03-50.662 7.691-90.314 52.617-89.353 105.771h-10.534c-12.406 0-22.5 10.094-22.5 22.5 0 9.875 6.398 18.279 15.265 21.3.494 5.619 1.226 11.227 2.2 16.775-9.989 2.294-17.465 11.25-17.465 21.925 0 12.406 10.094 22.5 22.5 22.5h8.406c14.75 33.631 38.548 62.302 69.051 83.11 15.629 10.662 32.544 18.899 50.284 24.585 1.641 18.863 12.115 35.225 27.259 44.927v34.378h-60c-17.921 0-32.5 14.579-32.5 32.5 0 9.649 7.851 17.5 17.5 17.5h215c9.649 0 17.5-7.851 17.5-17.5 0-17.921-14.579-32.5-32.5-32.5h-60v-35.019c14.521-9.716 24.541-25.647 26.234-43.958 52.383-16.115 98.551-57.093 120.359-108.022h8.407c12.406 0 22.5-10.094 22.5-22.5 0-10.677-7.477-19.634-17.468-21.927zm-369.921-.574c-.929-4.956-1.656-9.968-2.168-15h24.057c.018 3.884-.047 10.957.047 15zm36.936 0c-.067-1.323-.044-13.291-.047-15h35c.019 3.884-.049 10.957.049 15zm50.002 0c-.069-1.324-.046-13.291-.049-15h35c.019 3.884-.048 10.958.048 15zm49.999 0c-.068-1.323-.046-13.291-.048-15h35c.019 3.884-.048 10.958.048 15zm50 0c-.068-1.323-.046-13.291-.048-15h35c.019 3.885-.048 10.957.048 15zm50 0c-.068-1.324-.046-13.291-.048-15h35c.019 3.884-.049 10.958.049 15zm50.001 0c-.069-1.322-.046-13.292-.049-15h35c.019 3.884-.049 10.958.049 15zm50 0c-.069-1.322-.046-13.292-.049-15h20.059c-.513 5.033-1.241 10.045-2.169 15zm-5.621-98.99c-5.951 2.911-11.285 5.376-22.276 5.376-5.762 0-10.456-.678-14.771-2.134-3.924-1.324-8.18.784-9.504 4.709s.784 8.18 4.709 9.504c5.907 1.993 12.125 2.921 19.566 2.921 13.934.075 23.078-3.925 29.803-7.357 3.788 8.063 6.402 16.793 7.667 25.972h-179.245c1.265-9.179 3.881-17.909 7.67-25.973 6.54 3.218 14.797 7.305 29.805 7.358 14.774 0 22.53-3.799 29.372-7.15 5.489-2.882 13.381-5.998 24.375-5.603 4.163.09 7.576-3.18 7.675-7.321.098-4.141-3.18-7.577-7.321-7.675-12.82-.661-25.38 3.715-31.326 7.128-6.158 3.017-11.476 5.621-22.774 5.621-10.992 0-16.326-2.467-22.277-5.377 16.38-23.625 43.683-39.009 74.424-39.009 30.749 0 58.051 15.384 74.428 39.01zm-143.165-28.553c-5.492-6.837-11.753-12.898-18.619-18.092 3.473-1.128 7.569-1.865 13.35-1.865 10.513 0 15.466 2.426 21.202 5.235 1.068.523 2.164 1.057 3.304 1.585-6.899 3.67-13.35 8.081-19.237 13.137zm68.737-25.457c-7.205-.414-17.146 2.5-25.003 2.5-10.513 0-15.467-2.426-21.203-5.235-6.474-3.171-13.812-6.765-27.8-6.765-13.515-.019-21.847 3.729-28.708 7.203-14.403-7.416-30.516-11.514-47.193-11.686 2.104-3.94 4.483-7.693 7.115-11.237 5.01 1.836 11.148 3.22 19.79 3.22 13.987 0 21.324-3.594 27.797-6.765 5.735-2.809 10.688-5.235 21.199-5.235 10.513 0 15.466 2.426 21.202 5.235 6.474 3.171 13.812 6.765 27.801 6.765 12.631 0 19.835-2.93 25.882-5.833 6.784 8.526 12.073 18.342 15.446 29.097-5.325-.828-10.776-1.264-16.325-1.264zm-70-62c22.766 0 43.808 8.455 59.873 22.605-3.806 1.423-8.228 2.395-14.876 2.395-10.513 0-15.467-2.426-21.203-5.235-6.474-3.171-13.812-6.765-27.8-6.765-13.987 0-21.324 3.594-27.797 6.765-5.735 2.809-10.688 5.235-21.199 5.235-3.39 0-6.198-.261-8.61-.686 16.449-15.247 38.368-24.314 61.612-24.314zm-81 63c23.233 0 45.253 8.897 61.855 24.444-5.369 2.637-10.951 5.499-21.858 5.556-9.22 0-14.041-1.871-18.188-3.787-3.761-1.737-8.218-.097-9.954 3.663-1.737 3.761-.097 8.217 3.663 9.954 5.812 2.686 12.801 5.17 24.479 5.17 14.403-.125 21.682-3.701 29.613-7.643-6.868 8.311-12.488 17.699-16.57 27.887-2.988.937-7.071 1.756-13.043 1.756-10.513 0-15.467-2.426-21.203-5.235-6.474-3.171-13.812-6.765-27.8-6.765-13.987 0-21.324 3.594-27.797 6.765-5.735 2.81-10.688 5.235-21.199 5.235-10.512 0-15.465-2.426-21.2-5.235-1.749-.857-3.616-1.77-5.688-2.636 2.205-5.948 5.02-11.603 8.366-16.89 4.708 1.593 10.493 2.761 18.522 2.761 13.987 0 21.324-3.594 27.797-6.765 4.729-2.316 8.812-4.316 15.842-4.993 4.123-.397 7.144-4.062 6.747-8.185s-4.056-7.136-8.185-6.747c-9.743.938-15.725 3.869-21.002 6.454-5.735 2.81-10.688 5.235-21.199 5.235-3.399 0-6.215-.264-8.616-.688 16.553-18.006 40.288-29.311 66.618-29.311zm-116 107h57.819c4.143 0 7.5-3.357 7.5-7.5s-3.357-7.5-7.5-7.5h-32.285c-.136-5 .333-11.669 1.53-18.267 8.113 3.849 15.197 8.134 30.934 8.267 13.987 0 21.324-3.594 27.797-6.765 5.735-2.81 10.688-5.235 21.199-5.235 10.513 0 15.466 2.426 21.202 5.235 6.474 3.171 13.812 6.765 27.801 6.765 2.847 0 5.488-.15 8.008-.444-.757 3.42-1.347 6.904-1.764 10.444h-69.421c-4.143 0-7.5 3.357-7.5 7.5s3.357 7.5 7.5 7.5h282.18c4.136 0 7.5 3.364 7.5 7.5s-3.364 7.5-7.5 7.5h-375c-4.136 0-7.5-3.364-7.5-7.5s3.364-7.5 7.5-7.5zm24.911 90h13.161c4.03 15.788 10.006 30.934 17.761 45.128-12.347-13.177-22.823-28.329-30.922-45.128zm113.16 0c3.396 13.296 8.2 26.234 14.321 38.529 1.312 2.635 3.964 4.159 6.72 4.159 1.123 0 2.264-.254 3.337-.788 3.708-1.847 5.217-6.349 3.371-10.057-5.078-10.198-9.159-20.879-12.212-31.844h34.468c9.072 35.445 28.275 68.041 54.901 93.345-6.569 2.108-13.288 3.846-20.128 5.198-14.966-10.669-28.196-23.474-39.313-38.148-2.502-3.301-7.205-3.949-10.508-1.449-3.302 2.502-3.95 7.206-1.449 10.508 8.945 11.806 19.146 22.504 30.444 31.965-7.61.558-14.884.799-24.606.302-36.327-24.24-62.279-60.066-73.832-101.722h34.486zm100.007 0c7.288 28.523 21.046 55.127 40.132 77.693-6.266 3.634-12.757 6.896-19.442 9.756-26.458-23.144-45.77-53.808-55.166-87.449zm-150.007 0c9.685 38.017 30.339 71.755 59.434 97.565-16.593-3.737-32.418-9.767-47.075-17.818-21.769-21.62-38.658-49.912-46.814-79.748h34.455zm209.429 219.5c0 1.379-1.121 2.5-2.5 2.5h-215c-1.379 0-2.5-1.121-2.5-2.5 0-9.649 7.851-17.5 17.5-17.5h185c9.649 0 17.5 7.851 17.5 17.5zm-92.5-32.5h-35v-27.488c5.39 1.61 11.093 2.488 17 2.488 6.272 0 12.318-.982 18-2.79zm-18-40c-21.263 0-39.08-14.994-43.46-34.962 14.3 3.283 29.026 4.962 43.96 4.962 14.567 0 28.937-1.6 42.905-4.725-4.468 19.849-22.227 34.725-43.405 34.725zm103.967-77.435c-17.467-20.186-30.227-43.994-37.352-69.565h34.458c4.825 18.915 12.428 36.882 22.66 53.557-6.213 5.805-12.818 11.154-19.766 16.008zm30.62-27.07c-7.826-13.368-13.854-27.601-17.993-42.495h46.494c-7.564 15.691-17.201 29.945-28.501 42.495zm53.413-57.495h-375c-4.136 0-7.5-3.364-7.5-7.5s3.364-7.5 7.5-7.5h375c4.136 0 7.5 3.364 7.5 7.5s-3.364 7.5-7.5 7.5z"/></g></svg>