<svg id="Capa_1" enable-background="new 0 0 512 512" height="512" viewBox="0 0 512 512" width="512" xmlns="http://www.w3.org/2000/svg"><g><g><g><path d="m226.536 431.285h69.428v32h-69.428z" fill="#e8e8e8"/><path d="m222.536 431.285h21.464v32h-21.464z" fill="#d8d8d8"/></g><path d="m289.724 429.5h-60.947c-39.632 0-73.424-27.836-75.858-67.393l-15.669-254.607h247l-15.668 254.607c-1.4 22.757-12.847 42.627-29.864 55.4-12.563 9.431-32.162 11.993-48.994 11.993z" fill="#f9eac7"/><path d="m236.04 411.5c-34.161 0-62.425-26.579-64.524-60.675l-16.348-263.117-20.918 19.792 15.668 254.607c2.434 39.558 35.226 70.393 74.858 70.393h68.947c16.828 0 38.715-11.568 51.276-20.993z" fill="#f4dbb3"/><g><path d="m382.75 87.759h-15.042l-.958-5h-222.601l-8.399 5c-7.732 0-11.644 6.268-11.644 14l-.128 12.561c0 7.732 6.268 14 14 14l13.804 2.436h230.968c7.732 0 14-6.268 14-14v-14.997c0-7.732-6.268-14-14-14z" fill="#f4dbb3"/><path d="m155.13 87.759h-19.38c-.904.005-6.196.12-10.237 4.45-3.623 3.882-3.759 8.493-3.763 9.55v14.997c.014.897.198 6.665 4.98 10.705 3.67 3.101 7.8 3.285 9.02 3.295h22.033z" fill="#eac89f"/></g><g><path d="m370.428 327.5h-206.692c-7.357 0-25.986 5.964-25.986 13.322v16.353c0 7.357 22.73 13.322 30.087 13.322h202.591c7.357 0 13.322-5.964 13.322-13.322v-16.353c0-7.358-5.964-13.322-13.322-13.322z" fill="#f4dbb3"/><path d="m134.75 340.822v16.353c.003.863.103 5.798 4.126 9.638 3.734 3.564 8.227 3.681 9.196 3.684h25.765c-1.24-4.382-2.03-8.951-2.321-13.672l-1.78-29.325h-21.665c-.925.001-5.541.105-9.319 3.804-3.906 3.826-4 8.641-4.002 9.518z" fill="#eac89f"/></g><g><path d="m337.573 473.821-41.609-12.321h-56.428l-53.609 12.321c-11.374 3.368-19.177 13.817-19.177 25.679 0 0-.001 3.67 2.761 3.67l21.745 1.322.494.008h160c2.761 0 5-2.239 5-5 0-11.862-7.803-22.311-19.177-25.679z" fill="#f8f7f7"/><path d="m190.75 499.5c0-11.862 26.307-17.866 39.867-24.074 14.128-6.469 37.383-13.426 37.383-13.426l-41.464-.5-41.609 12.321c-11.374 3.368-19.177 13.817-19.177 25.679 0 2.761 2.239 5 5 5h25c-2.761 0-5-2.239-5-5z" fill="#e8e8e8"/></g><g><path d="m362.395 39.547c-6.335-.673-12.27.899-17.131 4.004-4.526-15.624-18.931-27.051-36.014-27.051-9.501 0-18.17 3.54-24.778 9.364-2.677-8.306-9.343-14.812-17.739-17.281-2.374-.698-4.883.917-7.483.917-8.837 0-16.778 4.403-21.59 11.053-2.007 2.773-5.548 1.731-8.602.185-3.212-1.627-6.677-2.822-10.319-3.522-2.425-.466-4.928.284-7.489.284-17.567 0-31.415 11.855-36.548 27.713-4.824-3.215-10.755-4.227-17.106-3.66-12.755 1.141-21.152 9.018-22.128 21.787-.477 6.241 1.247 12.617 4.426 17.362 3.001 4.479 13.744 4.056 13.856 4.056 9.941 0 18.001 8.059 18.001 18l.824 58.454c0 9.941 4.357 20.085 14.298 20.085 0 0 5.278 1.575 7.624.454 6.064-2.896 10.253-9.085 10.253-16.252v-59.741c0-9.941 8.059-18 18-18h25.5c9.941 0 21.5 2.917 21.5 12.858v31.489c-.59 17.447 14.41 22.426 14.41 22.426 2.684 0 5.321.381 7.608-.672 6.187-2.848 10.482-9.102 10.482-16.36v-31.741c0-9.941 8.059-18 18-18h47.458c5.517 0 10.76-2.648 13.842-7.223 3.107-4.612 4.784-10.254 4.401-16.356-.8-12.752-10.85-23.282-23.556-24.632z" fill="#d2af8c"/><g fill="#c9a281"><path d="m237.216 26.27c3.054 1.546 6.566.4 8.72-2.26 3.668-4.529 7.237-12.169 20.797-15.428-2.374-.698-4.882-1.083-7.483-1.083-5.213 0-14.824 1.883-21.472 10.978-2.966 4.058-7.682 3.033-8.72 2.26 2.431 1.242 6.207 4.545 8.158 5.533z"/><path d="m289.25 137.5v-31.741c0-9.941-16.059-18-26-18h-15c9.941 0 18 8.059 18 18v31.741c0 9.941 8.059 18 18 18 2.68 0 13.232-.59 15.518-1.64-6.192-2.846-10.518-9.099-10.518-16.36z"/><path d="m188.67 43.829c4.382-13.538 15.872-23.877 30.069-26.613-2.425-.467-4.927-.716-7.489-.716-15.905 0-29.608 9.404-35.867 22.953 4.897.254 9.447 1.817 13.287 4.376z"/><path d="m189.75 165.5v-69.741c0-9.941-8.059-18-18.001-18-5.09 0-18.516-3.622-17.985-16.089.471-11.041 2.41-18.117 12.716-21.179-3.11-.917-6.449-1.298-9.922-.988-12.755 1.141-23.009 11.538-23.985 24.307-.477 6.241 1.21 12.071 4.389 16.815 3.001 4.479 1.667 7.134 7.058 7.134h6.728c9.941 0 18.001 8.059 18.001 18v59.741c0 9.941 8.059 18 18 18 2.68 0 5.461-.697 7.747-1.748-6.191-2.846-4.746-8.991-4.746-16.252z"/></g></g><g fill="#b06c6c"><circle cx="173.75" cy="43.5" r="15"/><circle cx="284.75" cy="25.5" r="15"/><circle cx="256.75" cy="88" r="15"/><circle cx="345.75" cy="43.5" r="15"/><circle cx="130.25" cy="84.5" r="15"/></g></g><path d="m389.719 81.441c2.827-5.424 4.11-11.481 3.718-17.731-.978-15.59-12.915-28.694-28.132-31.317-3.876-6.797-11.186-11.393-19.555-11.393-1.811 0-3.571.221-5.26.627-8.348-8.077-19.464-12.627-31.24-12.627-2.837 0-5.651.266-8.414.791-4.088-4.186-9.787-6.791-16.086-6.791-2.966 0-5.797.583-8.392 1.63-5.166-3.005-11.087-4.63-17.108-4.63-10.746 0-20.935 5.146-27.331 13.784-6.464-3.175-13.415-4.784-20.669-4.784-11.992 0-23.419 4.563-32.081 12.664-1.737-.431-3.551-.664-5.419-.664-8.296 0-15.553 4.517-19.454 11.217-15.354 2.13-27.641 14.869-29.135 30.371-9.963 2.313-17.412 11.257-17.412 21.913 0 6.181 2.506 11.787 6.555 15.858-.101.073-.04 15.824-.055 16.397 0 9.327 5.981 17.263 14.301 20.234l11.365 184.679c-7.438 3.18-12.665 10.567-12.665 19.154v16.354c0 10.363 7.618 18.957 17.543 20.538 2.652 10.481 7.377 20.451 13.852 29.12 1.473 1.972 3.729 3.012 6.015 3.012 1.561 0 3.136-.485 4.482-1.491 3.318-2.479 4-7.179 1.521-10.497-4.475-5.991-7.925-12.741-10.198-19.859h118.964c4.142 0 7.5-3.357 7.5-7.5s-3.358-7.5-7.5-7.5h-131.357c-3.21 0-5.822-2.612-5.822-5.822v-16.354c0-3.21 2.612-5.821 5.822-5.821h222.356c3.21 0 5.822 2.611 5.822 5.821v16.354c0 3.21-2.612 5.822-5.822 5.822h-56c-4.142 0-7.5 3.357-7.5 7.5s3.358 7.5 7.5 7.5h43.626c-8.764 27.694-34.549 47-64.33 47h-68.947c-10.584 0-20.722-2.384-30.13-7.084-3.705-1.853-8.21-.348-10.061 3.356-1.852 3.706-.349 8.21 3.357 10.062 8.587 4.29 17.666 7 27.094 8.101v16.464l-36.238 10.731c-14.453 4.28-24.547 17.797-24.547 32.87 0 6.893 5.607 12.5 12.5 12.5h185c6.893 0 12.5-5.607 12.5-12.5 0-15.073-10.094-28.59-24.547-32.87l-36.238-10.731v-16.487c33.84-3.979 61.888-28.427 70.238-61.698 9.927-1.579 17.547-10.174 17.547-20.539v-16.354c0-8.587-5.227-15.974-12.665-19.154l11.365-184.679c8.319-2.97 14.301-10.906 14.301-20.234v-14.996c-.003-9.413-6.094-17.413-14.534-20.317zm-159.683 358.559h58.429v14h-58.429zm105.408 41.013c7.32 2.168 12.652 8.548 13.641 15.987h-179.669c.988-7.439 6.321-13.819 13.641-15.987l40.566-12.013h71.255zm10.306-445.013c4.136 0 7.5 3.364 7.5 7.5s-3.364 7.5-7.5 7.5-7.5-3.364-7.5-7.5 3.364-7.5 7.5-7.5zm-61-18c4.136 0 7.5 3.364 7.5 7.5s-3.364 7.5-7.5 7.5-7.5-3.364-7.5-7.5 3.364-7.5 7.5-7.5zm-111 18c4.136 0 7.5 3.364 7.5 7.5s-3.364 7.5-7.5 7.5-7.5-3.364-7.5-7.5 3.364-7.5 7.5-7.5zm-51 48.5c0-4.136 3.364-7.5 7.5-7.5s7.5 3.364 7.5 7.5-3.364 7.5-7.5 7.5-7.5-3.364-7.5-7.5zm13 38.755c-3.584 0-6.5-2.916-6.5-6.5v-9.78c.332.015.665.025 1 .025 8.519 0 15.946-4.759 19.765-11.758 5.011-.304 11.083 3.954 11.235 10.517v17.496zm63.851 196.745-1.42-38.473c-.153-4.141-3.641-7.345-7.772-7.219-4.139.153-7.371 3.633-7.218 7.771l1.4 37.92h-29.75l-11.184-181.745h17.593v27.246c0 11.648 7.854 21.49 18.542 24.527l2.105 57.013c.149 4.046 3.476 7.224 7.49 7.224.093 0 .188-.002.282-.005 4.139-.153 7.371-3.633 7.218-7.771l-2.097-56.793c10.132-3.376 17.46-12.942 17.46-24.194v-27.245h14.878l2.237 181.744zm57.149-209.5c.674 0 1.341-.035 2-.094v12.849h-46.5v-17.496c0-5.79 4.71-10.5 10.5-10.5h12.708c3.027 8.854 11.425 15.241 21.292 15.241zm-7.5-22.5c0-4.136 3.364-7.5 7.5-7.5s7.5 3.364 7.5 7.5-3.364 7.5-7.5 7.5-7.5-3.364-7.5-7.5zm24.884 232h-29.768l-2.237-181.745h16.64c.319 10.875 7.475 20.059 17.314 23.396zm-.384-182.5v-34.783c3.527-3.974 5.5-8.998 5.5-14.717 0-12.406-10.093-22.5-22.5-22.5-9.688 0-17.965 6.155-21.127 14.759h-12.873c-14.061 0-25.5 11.439-25.5 25.5v59.741c0 5.79-4.71 10.5-10.5 10.5s-10.5-4.71-10.5-10.5v-59.741c0-13.521-10.58-24.613-23.896-25.444-1.337-7.075-5.992-12.991-12.286-16.056.594-7.144 5.303-13.258 11.711-15.923 2.219 10.089 11.225 17.664 21.971 17.664 12.407 0 22.5-10.094 22.5-22.5 0-4.878-1.565-9.394-4.213-13.084 5.493-4.13 12.212-6.416 19.213-6.416 5.076 0 9.927 1.153 14.42 3.43 6.312 3.193 13.96 1.28 18.183-4.555 3.569-4.932 9.325-7.875 15.397-7.875 1.8 0 3.551.258 5.231.737-1.429 2.955-2.231 6.267-2.231 9.763 0 12.406 10.093 22.5 22.5 22.5 12.318.053 23.311-10.94 22.45-23.923 6.054-.465 14.165 1.421 20.377 6.177-2.718 3.719-4.328 8.297-4.328 13.246 0 12.406 10.093 22.5 22.5 22.5 10.604 0 19.513-7.376 21.879-17.266 6.057 2.904 10.401 8.963 10.837 15.916.265 4.212-.82 8.256-3.136 11.694-1.651 2.451-4.501 3.914-7.622 3.914-1.672 0-45.436 0-47.458 0-14.061 0-25.5 11.439-25.5 25.5v31.742c0 5.79-4.71 10.5-10.5 10.5s-10.499-4.71-10.499-10.5zm89.909 182.5h-29.749l3.908-105.828c.153-4.139-3.079-7.618-7.218-7.771-4.154-.106-7.619 3.08-7.772 7.219l-3.929 106.38h-29.763l1.943-157.936c10.521-2.929 18.319-12.446 18.652-23.809h15.878l-1.489 40.345c-.153 4.139 3.079 7.618 7.218 7.771.094.003.188.005.282.005 4.014 0 7.341-3.179 7.49-7.224l1.51-40.897h34.223zm25.591-203.245c0 3.584-2.916 6.5-6.5 6.5h-73v-17.496c0-5.79 4.71-10.5 10.5-10.5h62.5c3.584 0 6.5 2.916 6.5 6.5z"/></g></svg>