<svg id="Capa_1" enable-background="new 0 0 512 512" height="512" viewBox="0 0 512 512" width="512" xmlns="http://www.w3.org/2000/svg"><g><g><g><path d="m409 312.75-307 1c-56-6.154-56-53-56-53 0-30.928 22.072-56 53-56h314c30.928 0 56 25.072 56 56 0 16.195-6.879 30.78-17.869 41.004-9.998 9.302-27.398 10.996-42.131 10.996z" fill="#f4dbb3"/><path d="m102.62 297.75c-24.643 0-44.62-19.977-44.62-44.62v-34.508c-8.2 8.814-13.599 20.268-14.763 32.951-.156 1.705-.237 3.431-.237 5.177 0 30.928 25.072 56 56 56l7.5 6h301.223l5.277-6c14.733 0 28.133-5.694 38.131-14.996z" fill="#eac89f"/></g><g><g><path d="m403 285.742h-294c-18.075 0-32.392-3.512-45.255-13.976-2.511-2.043-5.243-6.036-5.73-6.923-12.233-22.32-12.394-39.6-12.394-39.6h415.502s5.206 17.447.536 27.553c-2.851 6.17-5.009 12.531-10.86 17.128-13.732 10.79-28.664 15.818-47.799 15.818z" fill="#f9eac7"/></g></g><g><path d="m36 237.75c0-37.473 34.449-52.847 34.449-52.847 5.806-2.038 12.048-3.153 18.551-3.153h334c27.745 0 50.77 20.178 55.217 46.659.51 3.038-1.217 9.341-1.217 9.341 0 13.69-11.16 20.666-24.28 16.758-14.686-4.375-25.401-17.627-50.072-17.627-36.659 0-36.659 15.782-73.318 15.783-36.661 0-36.661-15.783-73.321-15.783-36.662 0-36.662 15.782-73.323 15.783-36.663 0-36.663-15.783-73.327-15.783-24.675 0-35.021 14.774-50.079 17.628-20.493 3.883-23.28-16.759-23.28-16.759z" fill="#b06c6c"/><path d="m478.217 224.409c-3.015 10.616-14.27 17.443-25.497 14.099-14.686-4.375-25.401-17.627-50.072-17.627-36.659 0-36.659 15.783-73.318 15.783-36.661 0-36.661-15.783-73.321-15.783-36.662 0-36.662 15.783-73.323 15.783-36.663 0-36.663-15.783-73.327-15.783-24.675 0-35.39 13.253-50.079 17.628-.036.011-.072.021-.108.032-5.587 1.645-11.172-2.623-11.172-8.447v-4.344c0-18.344 8.818-34.633 22.449-44.847-21.809 7.656-37.449 28.422-37.449 52.847v.001c0 13.69 13.159 23.665 26.279 19.757 14.688-4.374 25.404-17.628 50.079-17.628 36.663 0 36.663 15.783 73.327 15.783 36.662 0 35.662-11.783 72.323-11.783s36.661 15.783 73.321 15.783c36.659 0 37.659-19.783 74.318-19.783 24.764 0 35.467 13.352 50.239 17.676 13.154 3.85 26.114-6.102 26.113-19.808.001-3.183-.272-6.301-.782-9.339z" fill="#9d5e5e"/></g><g><path d="m152.639 151.418-5.199-8.722c-1.972-3.308-6.786-3.238-8.662.125l-4.231 7.586c-2.946 5.282-7.157 9.786-12.149 13.099-1.664 1.104-3.366 4.047-5.201 4.881 0 0-8.698 7.457-8.698 14.613 0 0 1.777 16.249 16.249 16.249h36.502c14.217 0 17.741-11.998 17.741-11.998.326-1.365.508-2.787.508-4.251v-.228c0-7.039-4.048-13.45-10.403-16.476l-.262-.125c-6.738-3.208-12.374-8.342-16.195-14.753z" fill="#9d5e5e"/><g><path d="m140.749 185.25c-10.079 0-18.249-8.17-18.249-18.249 0-1.885.352-3.754.899-5.495-1.632 1.075-3.405 2.065-5.201 2.881-6.515 2.961-10.698 9.457-10.698 16.614 0 10.079 8.17 18.249 18.249 18.249h36.502c8.613 0 15.824-5.972 17.741-13.998z" fill="#865151"/></g></g><g><path d="m265.639 151.418-5.199-8.722c-1.972-3.308-6.786-3.238-8.662.125l-4.231 7.586c-2.946 5.282-7.157 9.786-12.149 13.099-1.664 1.104-3.366 4.047-5.201 4.881 0 0-8.698 7.457-8.698 14.613 0 0 1.777 16.249 16.249 16.249h36.502c14.217 0 17.741-11.998 17.741-11.998.326-1.365.508-2.787.508-4.251v-.228c0-7.039-4.048-13.45-10.403-16.476l-.262-.125c-6.738-3.208-12.374-8.342-16.195-14.753z" fill="#9d5e5e"/><g><path d="m254.749 183.25c-10.079 0-18.249-8.17-18.249-18.249 0-1.885.352-3.754.899-5.495-1.632 1.075-3.405 2.065-5.201 2.881-6.515 2.961-10.698 9.457-10.698 16.614 0 10.079 8.17 18.249 18.249 18.249h36.502c8.613 0 15.824-5.972 17.741-13.998z" fill="#865151"/></g></g><g><path d="m378.639 151.418-5.199-8.722c-1.972-3.308-6.786-3.238-8.662.125l-4.23 7.586c-2.946 5.282-7.157 9.786-12.149 13.099-1.664 1.104-3.366 4.047-5.201 4.881 0 0-8.698 7.457-8.698 14.613 0 0 1.777 16.249 16.249 16.249h36.502c14.217 0 17.741-11.998 17.741-11.998.326-1.365.508-2.787.508-4.251v-.228c0-7.039-4.048-13.45-10.403-16.476l-.262-.125c-6.739-3.208-12.375-8.342-16.196-14.753z" fill="#9d5e5e"/><g><path d="m368.749 183.25c-10.079 0-18.249-8.17-18.249-18.249 0-1.885.352-3.754.899-5.495-1.632 1.075-3.405 2.065-5.201 2.881-6.515 2.961-10.698 9.457-10.698 16.614 0 10.079 8.17 18.249 18.249 18.249h36.502c8.613 0 15.824-5.972 17.741-13.998z" fill="#865151"/></g></g><g><path d="m429.5 376.75h-332l-13.069-2.206c-5.523 0-10-4.477-10-10l.11-18.514 180.33-8.018 184.629 7.738v21c0 5.523-4.477 10-10 10z" fill="#e8e8e8"/><path d="m97.5 346.03v30.72h-15c-5.52 0-10-4.48-10-10v-21z" fill="#d8d8d8"/></g><g><path d="m13.275 318.25c-1.79 0-3.185 1.559-2.988 3.339 1.661 14.997 11.934 24.019 27.374 24.019l17.397 1.136 2.443.006h417c15.44 0 28.156-11.664 29.816-26.661.197-1.779-1.198-3.339-2.988-3.339h-463.829z" fill="#f8f7f7"/><path d="m67.5 346.75h-30c-15.442 0-28.156-11.663-29.816-26.661-.197-1.779 1.198-3.339 2.988-3.339h26.828c0 16.57 13.43 30 30 30z" fill="#e8e8e8"/></g></g><path d="m504.5 309.25h-50.576c13.518-11.296 23.21-30.266 22.543-49.966 6.396-5.358 10.032-13.116 10.032-21.534 0-10.994-2.857-21.831-8.262-31.341-2.046-3.601-6.626-4.862-10.227-2.814-3.601 2.047-4.861 6.625-2.814 10.227 4.124 7.254 6.303 15.528 6.303 23.929 0 4.187-1.929 8.025-5.292 10.532-3.3 2.46-7.435 3.202-11.347 2.038-4.275-1.274-8.323-3.535-13.009-6.153-9.399-5.251-21.096-11.786-39.205-11.786-19.875 0-30.368 4.518-39.625 8.502-8.696 3.744-16.91 7.28-33.693 7.28-8.679 0-15.784-.928-22.361-2.92-3.962-1.205-8.152 1.039-9.352 5.003-1.201 3.965 1.039 8.151 5.003 9.353 8.027 2.432 16.515 3.564 26.709 3.564 19.875 0 30.367-4.517 39.625-8.502 8.696-3.744 16.91-7.28 33.693-7.28 14.203 0 23.193 5.023 31.889 9.881 4.512 2.521 9.167 5.111 14.335 6.877-10.984 9.024-27.863 14.611-45.872 14.611h-223.497c-4.142 0-7.5 3.357-7.5 7.5s3.358 7.5 7.5 7.5h223.5c22.196 0 42.689-7.089 56.39-18.855-6.069 19.864-24.566 34.355-46.39 34.355h-314c-21.821 0-40.317-14.487-46.388-34.347 13.695 11.763 34.171 18.846 56.388 18.846h35.5c4.142 0 7.5-3.357 7.5-7.5s-3.358-7.5-7.5-7.5h-35.5c-18.03 0-34.897-5.583-45.875-14.608 5.17-1.767 9.828-4.358 14.341-6.879 8.696-4.858 17.688-9.882 31.892-9.882 16.786 0 25 3.536 33.698 7.28 9.258 3.985 19.751 8.502 39.629 8.502 19.876 0 30.369-4.517 39.627-8.502 8.697-3.744 16.912-7.28 33.697-7.28 5.368 0 10.099.354 14.464 1.081 4.084.68 7.95-2.079 8.63-6.166.681-4.086-2.08-7.95-6.166-8.631-5.188-.864-10.726-1.284-16.929-1.284-19.877 0-30.37 4.517-39.627 8.502-8.697 3.744-16.911 7.28-33.696 7.28-16.786 0-25.001-3.536-33.698-7.28-9.258-3.985-19.751-8.502-39.628-8.502-18.11 0-29.808 6.535-39.208 11.786-4.687 2.619-8.735 4.88-13.012 6.153-3.911 1.166-8.048.422-11.348-2.038-3.363-2.507-5.292-6.346-5.292-10.532 0-26.743 21.757-48.5 48.5-48.5h10.771c2.8 11.188 12.935 19.5 24.978 19.5h36.502c12.043 0 22.178-8.312 24.978-19.5h26.541c2.8 11.188 12.935 19.5 24.978 19.5h36.502c12.043 0 22.178-8.312 24.978-19.5h26.541c2.8 11.188 12.935 19.5 24.978 19.5h36.502c12.043 0 22.178-8.312 24.978-19.5h10.774c6.973 0 13.699 1.445 19.991 4.296 1.004.455 2.056.671 3.091.671 2.854 0 5.582-1.638 6.836-4.406 1.709-3.773.037-8.218-3.736-9.927-8.25-3.738-17.058-5.634-26.181-5.634h-11.478c-1.786-5.314-7.049-11.933-13.463-14.851-5.417-2.579-9.904-6.667-12.978-11.822l-9.639-16.168c-1.373-2.303-3.86-3.701-6.55-3.658-2.68.038-5.136 1.505-6.442 3.846l-8.453 15.157c-3.17 5.685-7.978 10.113-13.902 12.806-6.407 2.912-11.22 8.284-13.545 14.69h-28.028c-1.786-5.314-7.049-11.933-13.463-14.851-5.417-2.579-9.904-6.667-12.978-11.822l-9.639-16.168c-1.373-2.303-3.873-3.701-6.55-3.658-2.68.038-5.136 1.505-6.442 3.846l-8.453 15.157c-3.17 5.685-7.978 10.113-13.902 12.806-6.407 2.912-11.22 8.284-13.545 14.69h-28.028c-1.786-5.314-7.049-11.933-13.463-14.851-5.417-2.579-9.904-6.667-12.978-11.822l-9.639-16.168c-1.372-2.303-3.886-3.701-6.55-3.658-2.68.038-5.136 1.505-6.442 3.846l-8.453 15.157c-3.17 5.685-7.978 10.113-13.902 12.806-6.407 2.912-11.22 8.284-13.545 14.69h-11.551c-35.014 0-63.5 28.486-63.5 63.501 0 8.417 3.636 16.176 10.033 21.534-.694 18.991 8.604 38.369 22.543 49.965h-50.576c-4.142 0-7.5 3.357-7.5 7.5 0 20.678 16.822 37.5 37.5 37.5h27.5v12.5c0 9.649 7.851 17.5 17.5 17.5h347c9.649 0 17.5-7.851 17.5-17.5v-12.5h27.5c20.678 0 37.5-16.822 37.5-37.5 0-4.143-3.358-7.5-7.5-7.5zm-158.199-136.034c8.863-4.029 16.054-10.652 20.796-19.155l2.12-3.801 2.98 4.999c4.598 7.711 11.311 13.826 19.406 17.68 2.885 1.271 6.24 5.074 6.397 10.062 0 5.927-4.822 10.749-10.749 10.749h-36.502c-5.927 0-10.749-4.822-10.749-10.749 0-4.205 2.473-8.046 6.301-9.785zm-113 0c8.863-4.029 16.054-10.652 20.796-19.155l2.12-3.801 2.98 4.999c4.598 7.711 11.311 13.826 19.406 17.68 2.885 1.271 6.24 5.074 6.397 10.062 0 5.927-4.822 10.749-10.749 10.749h-36.502c-5.927 0-10.749-4.822-10.749-10.749 0-4.205 2.473-8.046 6.301-9.785zm-113 0c8.863-4.029 16.054-10.652 20.796-19.155l2.12-3.801 2.98 4.999c4.598 7.711 11.311 13.826 19.406 17.68 2.885 1.271 6.24 5.074 6.397 10.062 0 5.927-4.822 10.749-10.749 10.749h-36.502c-5.927 0-10.749-4.822-10.749-10.749 0-4.205 2.473-8.046 6.301-9.785zm354.199 166.034h-162c-4.142 0-7.5 3.357-7.5 7.5s3.358 7.5 7.5 7.5h119.5v12.5c0 1.379-1.122 2.5-2.5 2.5h-347c-1.378 0-2.5-1.121-2.5-2.5v-12.5h197.5c4.142 0 7.5-3.357 7.5-7.5s-3.358-7.5-7.5-7.5h-240c-9.778 0-18.12-6.27-21.215-15h479.43c-3.095 8.73-11.437 15-21.215 15z"/></g></svg>