<svg id="Capa_1" enable-background="new 0 0 512 512" height="512" viewBox="0 0 512 512" width="512" xmlns="http://www.w3.org/2000/svg"><g><g><path d="m376.5 16.5v10.5l-5.702 6.479 5.702 8.521v19.5l-121 8.394-117.755-8.394.042-43.947c0-4.97 4.03-9 9-9l11.033-1.053h54.68l43 10.691 43-10.691h69c4.97 0 9 4.03 9 9z" fill="#f9eac7"/><path d="m157.82 7.5v54l-15.841 4.606-5.479-4.606v-19.5l3.394-6.383-3.394-8.617v-10.5c0-4.97 4.03-9 9-9z" fill="#f4dbb3"/><path d="m406.01 126.5-150.51 14.883-148.5-14.883 19.787-27.16 9.713-37.84h240l28.16 61.01c.59 1.28 1.04 2.62 1.35 3.99z" fill="#f4dbb3"/><path d="m406.5 130.89v90.61l-149.968 10.266-150.032-10.266 5.795-47.5-5.295-47.5h299.01c.32 1.44.49 2.91.49 4.39z" fill="#f9eac7"/><path d="m406.5 450.5v34s-6.965 17.968-15.245 17.968l-267.447-1.766c-8.28 0-15-6.72-15-15l-2.308-35.202 150.032-12.606z" fill="#f9eac7"/><path d="m157.82 61.5-28.35 58.83c-.95 1.98-1.69 4.05-2.19 6.17l-13.557 5.372-6.723-5.372c.3-1.37.75-2.71 1.34-3.99l28.16-61.01z" fill="#eac89f"/><path d="m111.809 221.5h294.691v229h-294.691z" fill="#f6d190"/><path d="m210.617 379.681 16.894 12.723 86.511-86.468-3.372-6.985c-3.015-7.91-8.477-13.372-16.387-16.387l-7.305-3.224-87.915 87.021z" fill="#9d5e5e"/><path d="m235.48 384.43-7.97 7.97-8.77-2.96c-8.48-3.4-14.42-9.33-17.81-17.82l-1.89-5.26 8.23-8.15c2.29 5.62 5.61 10.72 9.97 15.08 5.17 5.17 11.37 8.86 18.24 11.14z" fill="#865151"/><path d="m298.5 7.5v54l-43 5.457-43-5.457v-54z" fill="#f9df8a"/><path d="m298.5 61.5v111c0 3.31-2.69 6-6 6h-74c-3.31 0-6-2.69-6-6v-111z" fill="#ffec9c"/><circle cx="255.5" cy="135.5" fill="#f9df8a" r="15"/><path d="m247.609 324.8c-15.145 10.155-28.866 22.697-39.426 35.514 0 0-7.118 6.905-10.249 12.064-1.216 2.004-4.19 1.903-5.253-.186-11.339-22.298-3.471-44.027 15.553-66.915 2.34-2.816 6.63-8.852 6.63-8.852.339-.346.681-.691 1.025-1.035 24.713-24.713 54.322-36.805 79.532-24.565 1.566.761 2.137 2.702 1.284 4.22-10.177 18.129-26.321 34.481-49.096 49.755z" fill="#b06c6c"/><path d="m296.42 376.037c-27.931 22.452-51.332 35.752-76.697 22.963-1.448-.73-2.059-2.477-1.392-3.956 2.154-4.772 7.624-14.968 7.624-14.968 8.293-10.793 20.459-22.942 36.238-33.525 23.464-15.731 41.025-32.782 53.196-51.746 1.24-1.932 4.1-1.85 5.199.166 12.679 23.253 3.959 50.546-16.695 74.367.002.001-5.091 4.318-7.473 6.699z" fill="#b06c6c"/><path d="m303.94 369.286c-2.14 2.48-4.43 4.924-6.83 7.324-24.94 24.94-54.85 37.02-80.22 24.23-1.45-.73-2.06-2.48-1.39-3.95 2.15-4.77 5.645-10.564 10.455-16.814 21 12.59 51.965 8.25 77.985-10.79z" fill="#9d5e5e"/><path d="m208.19 360.32c-4.3 5.21-8.07 10.46-11.2 15.62-1.22 2-4.19 1.9-5.25-.19-12.74-25.04-1.176-54.546 23.124-79.326-12.48 21.91-15.094 45.856-6.674 63.896z" fill="#9d5e5e"/><path d="m406.5 489.5c0 8.284-6.716 15-15 15h-270c-8.284 0-15-6.716-15-15v-39l9.904-7.968 10.096 7.968v14c0 11.046 8.954 20 20 20h260z" fill="#f4dbb3"/><path d="m127.28 126.5c-.52 2.24-.79 4.54-.79 6.85v88.15l-12.49 8.734-7.5-8.734v-90.61c0-1.48.17-2.95.5-4.39z" fill="#f4dbb3"/><path d="m126.5 450.5h-20v-229h19.99z" fill="#ecbd83"/></g><g><path d="m406 162.5c4.143 0 7.5-3.358 7.5-7.5v-24.107c0-3.952-.875-7.937-2.531-11.524l-27.469-59.516v-43.353c0-9.098-7.402-16.5-16.5-16.5h-222c-9.098 0-16.5 7.402-16.5 16.5v43.353l-27.469 59.516c-1.656 3.587-2.531 7.573-2.531 11.524v129.107c0 4.142 3.357 7.5 7.5 7.5s7.5-3.358 7.5-7.5v-31h285v214h-285v-148c0-4.142-3.357-7.5-7.5-7.5s-7.5 3.358-7.5 7.5v194.5c0 12.407 10.094 22.5 22.5 22.5h270c12.406 0 22.5-10.093 22.5-22.5v-299.5c0-4.142-3.357-7.5-7.5-7.5s-7.5 3.358-7.5 7.5v24h-285v-80h24c4.143 0 7.5-3.358 7.5-7.5s-3.357-7.5-7.5-7.5h-19.778l23.077-50h63.701v50h-32c-4.143 0-7.5 3.358-7.5 7.5s3.357 7.5 7.5 7.5h32v38.5c0 7.444 6.056 13.5 13.5 13.5h74c7.444 0 13.5-6.056 13.5-13.5v-38.5h93v21c0 4.142 3.357 7.5 7.5 7.5zm-15 334.5h-270c-4.136 0-7.5-3.364-7.5-7.5v-31.5h285v31.5c0 4.136-3.364 7.5-7.5 7.5zm-85.5-443v-12h63v12zm-86-39h71v39h-71zm149 1.5v10.5h-63v-12h61.5c.827 0 1.5.673 1.5 1.5zm-223.5-1.5h59.5v12h-61v-10.5c0-.827.673-1.5 1.5-1.5zm-1.5 39v-12h61v12zm76 117v-102h71v102zm86-102h65.701l23.077 50h-88.778z"/><path d="m255 113c-12.406 0-22.5 10.093-22.5 22.5s10.094 22.5 22.5 22.5 22.5-10.093 22.5-22.5-10.094-22.5-22.5-22.5zm0 30c-4.136 0-7.5-3.364-7.5-7.5s3.364-7.5 7.5-7.5 7.5 3.364 7.5 7.5-3.364 7.5-7.5 7.5z"/><path d="m273 82.5h-36c-4.143 0-7.5 3.358-7.5 7.5s3.357 7.5 7.5 7.5h36c4.143 0 7.5-3.358 7.5-7.5s-3.357-7.5-7.5-7.5z"/><path d="m303.618 270.374c-.861-2.748-2.837-5.043-5.421-6.296-26.564-12.9-58.683-3.42-88.111 26.008-13.631 13.63-23.352 28.498-28.11 42.994-5.353 16.301-4.462 32.232 2.575 46.072 2.449 4.601 7.389 7.512 14.1 4.582 2.722 3.643 6.038 6.706 9.933 9.17-2.394 4.254-1.382 11.437 4.432 14.635 7.857 3.962 16.304 5.912 25.081 5.912 17.973 0 37.321-8.184 55.745-24.033 3.14-2.701 3.495-7.437.794-10.577-2.702-3.142-7.438-3.494-10.577-.794-12.554 10.8-36.49 26.834-60.191 17.901 6.516-11.789 20.53-28.763 42.003-43.165 21.648-14.514 38.308-29.989 50.695-47.125 5.642 17.44-1.914 34.839-9.873 46.978-2.271 3.464-1.304 8.113 2.16 10.384 3.463 2.271 8.112 1.305 10.385-2.16 15.955-24.335 18.597-49.01 7.437-69.479-1.795-3.29-5.104-5.333-8.851-5.467-1.988-.067-3.896.427-5.561 1.368-2.576-3.46-5.744-6.34-9.488-8.624 1.395-2.521 1.704-5.536.843-8.284zm-82.925 30.318c17.856-17.857 36.36-27.197 52.985-27.197 4.637 0 9.129.727 13.419 2.198-9.68 15.406-24.178 29.473-44.166 42.877h.001c-19.062 12.78-36.151 29.239-47.995 46.064-5.233-19.191 3.834-42.02 25.756-63.942zm36.823 39.631c-18.836 12.633-32.628 27.354-41.257 39.663-3.267-2.162-5.811-5.004-7.682-8.585 10.723-14.615 26.102-29.236 42.71-40.372h.001c18.525-12.423 32.8-25.53 43.312-39.768 3.412 1.992 5.931 4.738 7.701 8.423-11.118 14.576-25.853 27.946-44.785 40.639z"/><path d="m128.5 420.5c0 4.142 3.357 7.5 7.5 7.5h50c4.143 0 7.5-3.358 7.5-7.5s-3.357-7.5-7.5-7.5h-50c-4.143 0-7.5 3.358-7.5 7.5z"/><path d="m374 413h-50c-4.143 0-7.5 3.358-7.5 7.5s3.357 7.5 7.5 7.5h50c4.143 0 7.5-3.358 7.5-7.5s-3.357-7.5-7.5-7.5z"/><path d="m374 390h-50c-4.143 0-7.5 3.358-7.5 7.5s3.357 7.5 7.5 7.5h50c4.143 0 7.5-3.358 7.5-7.5s-3.357-7.5-7.5-7.5z"/></g></g></svg>