<svg id="Capa_1" enable-background="new 0 0 512 512" height="512" viewBox="0 0 512 512" width="512" xmlns="http://www.w3.org/2000/svg"><g><g><path d="m352.927 159.814v329.672l-21.13 12-249.02-1c-8.28 0-10-2.72-10-11v-318.39l9.534-11.282z" fill="#dcf2f6"/><path d="m335.8 483.5 3.377 13.757-3.377 7.243h-253.02c-8.284 0-15-6.716-15-15v-319.39c0-1.27.16-2.52.47-3.74l7.796-1.885 12.734 1.885v299.13c0 9.941 8.059 18 18 18z" fill="#bae6ef"/><path d="m444.22 170.18v319.32c0 2.52-2.622 4.895-3.722 6.981-2.513 4.767-5.518 6.019-11.278 6.019h-91.42l-2-13v-323.13l54.21-23.976 53.72 23.976c.32 1.24.49 2.52.49 3.81z" fill="#bae6ef"/><path d="m444.22 489.5c0 8.28-6.72 15-15 15h-93.42v-21h108.42z" fill="#94d8e6"/><path d="m443.73 166.37h-107.93l6.448-55.431 47.224-45.47 52.928 97.551c.58 1.06 1.02 2.19 1.33 3.35z" fill="#94d8e6"/><path d="m389.473 65.469-53.673 100.901h-253.02l-10.53-2c.3-1.14 51.2-95.9 51.2-95.9l12.43-10.16h250.19z" fill="#bae6ef"/><path d="m254.547 134.971h-61.838c-14.375 0-23.574-15.311-16.823-28.003 3.308-6.22 9.778-10.106 16.823-10.106h61.838c14.375 0 23.574 15.311 16.823 28.003-3.308 6.22-9.778 10.106-16.823 10.106z" fill="#f8f7f7"/><path d="m368.004 7.503h-15.075l-6.975 2.676-8.025-2.676h-29.58l-7.5 1.588-7.5-1.588h-29.58l-7.224 2.457-7.776-2.457h-29.58l-7.5 1.359-7.5-1.359h-29.58l-7.305 1.448-7.695-1.448h-16.687c-.349 0-.697.008-1.042.025 0 0-3.763 1.102-5.657 1.759-8.4 2.92-12.415 11.259-12.415 20.649l-.638 35.534 36.439.004 7.5-3.193 7.5 3.193h29.58l8.652-3.57 6.348 3.565h29.58l7.5-4.318 7.5 4.318h29.581l8.708-3.084 6.292 3.084h29.58l7.5-2.693 7.5 2.693h36.543v-36.497c0-11.857-9.612-21.469-21.469-21.469z" fill="#f8f7f7"/><g><path d="m180.329 218.631c-7.206 0-13.048 5.842-13.048 13.048v24.021l5.417 11.807 22.295-11.507 2.243-14.059-4.121-12.866c-1.238-6.078-6.583-10.444-12.786-10.444z" fill="#9d5e5e"/><path d="m233.256 218.631c7.206 0 13.048 5.842 13.048 13.048l-.004 24.021-4.826 8.158-21.819-7.858-3.305-14.06 4.12-12.865c1.238-6.078 6.583-10.444 12.786-10.444z" fill="#9d5e5e"/><path d="m239.438 301.999-1 17.338 35.502 4.004 10.76-.004c8.253 0 14.944-6.691 14.944-14.944 0-8.955-5.207-17.093-13.337-20.845l-16.43-7.583c-1.757-.811-3.542-1.393-5.327-1.764-2.82-.585-5.49 1.358-7.963 1.761-10.283 1.677-17.149 9.319-17.149 22.037z" fill="#f6d190"/><path d="m176.147 301.999v18.338l-34.026 1-2.471 2h-10.765c-8.253 0-14.944-6.691-14.944-14.944 0-8.955 5.207-17.093 13.337-20.845l16.43-7.583c1.759-.812 3.545-1.394 5.332-1.765 1.07-.222 2.14 1.632 3.205 1.559 13.404-.926 23.902 7.627 23.902 22.24z" fill="#f6d190"/><path d="m279.15 317.41c0 1.99-.07 3.97-.21 5.93h-20.03l-9.067-21.452-1.303-21.439c4.78-2.49 15.4-3.42 21.01-2.25 6.09 11.471 9.6 24.881 9.6 39.211z" fill="#ecbd83"/><path d="m201.88 256.44c-6.136.668-10.887 6.992-16.224 9.92-6.649 3.647-13.61 6.473-18.375 12.88v-29.54c8.66-7.13 18.875-11.979 29.955-13.759z" fill="#865151"/><path d="m246.3 249.7v29.54c-4.765-6.402-11.668-9.071-18.317-12.717-5.336-2.927-10.147-8.327-16.283-8.994l4.65-21.588c11.07 1.779 21.29 6.629 29.95 13.759z" fill="#865151"/><path d="m167.926 303.179c0 2-13.236 20.159-13.236 20.159h-20.03c-.14-1.96-.21-3.94-.21-5.93 0-14.33 3.51-27.74 9.6-39.21 5.61-1.17 16.23-.24 21.01 2.25z" fill="#ecbd83"/><ellipse cx="206.792" cy="317.41" fill="#ffec9c" rx="52.353" ry="61.243"/><path d="m268.035 367.787c0-24.549-27.419-44.45-61.243-44.45-19.681 0-37.193 6.738-48.397 17.209-2.431 2.272-2.566 4.72-4.361 7.313-4.149 5.994-5.485 12.763-5.485 19.929 0 24.549 24.419 41.45 58.243 41.45 15.873 0 29.336-4.383 40.217-11.573 7.764-5.13 14.703-8.689 18.03-16.105 1.945-4.337 2.996-8.966 2.996-13.773z" fill="#f6d190"/><path d="m265.04 381.56c-7.98 17.81-31.04 30.68-58.25 30.68-33.82 0-61.24-19.9-61.24-44.45 0-10.26 6.717-24.66 14.777-32.18-1.96 4.34-2.937 8.91-2.937 13.73 0 24.54 27.42 44.45 61.24 44.45 19.69 0 35.21-1.74 46.41-12.23z" fill="#ecbd83"/></g><circle cx="117.778" cy="446.166" fill="#f8f7f7" r="17.5"/><path d="m141.88 65.467-53.1 100.903h-20.53c.3-1.14.73-2.25 1.29-3.3l51.91-97.6 7.215-3.406z" fill="#94d8e6"/><path d="m141.88 7.53v57.94h-20.43v-36.5c0-9.39 6.03-17.37 14.43-20.29v.01c1.9-.66 3.91-1.06 6-1.16z" fill="#e8e8e8"/></g><g><path d="m192.709 142.472h61.839c9.839 0 18.822-5.396 23.443-14.084 4.419-8.307 4.164-18.08-.681-26.146-4.846-8.065-13.354-12.88-22.763-12.88h-11.482c-4.143 0-7.5 3.357-7.5 7.5s3.357 7.5 7.5 7.5h11.482c4.154 0 7.765 2.043 9.904 5.604s2.248 7.708.297 11.376c-2.012 3.78-5.92 6.129-10.201 6.129h-61.839c-4.154 0-7.765-2.043-9.904-5.604s-2.248-7.708-.296-11.377c2.01-3.78 5.919-6.128 10.2-6.128h15.356c4.143 0 7.5-3.357 7.5-7.5s-3.357-7.5-7.5-7.5h-15.356c-9.841 0-18.824 5.397-23.443 14.084-4.419 8.307-4.164 18.08.681 26.146 4.846 8.065 13.355 12.88 22.763 12.88z"/><path d="m233.256 211.131c-9.573 0-17.929 6.702-20.039 16.002l-6.424 20.058-6.425-20.058c-2.11-9.3-10.466-16.002-20.039-16.002-11.33 0-20.548 9.218-20.548 20.549v39.084c-6.408-1.225-13.088-.437-19.216 2.391l-16.431 7.583c-10.749 4.961-17.694 15.816-17.694 27.655 0 12.376 10.068 22.444 22.444 22.444h19.198c.449 2.61 1.042 5.183 1.755 7.719-7.665 8.514-11.788 18.59-11.788 29.231 0 14.339 7.47 27.656 21.032 37.501 12.838 9.317 29.782 14.449 47.711 14.449s34.872-5.132 47.71-14.449c13.562-9.845 21.032-23.162 21.032-37.501 0-10.641-4.122-20.717-11.788-29.231.713-2.536 1.305-5.109 1.754-7.719h19.2c12.376 0 22.444-10.068 22.444-22.444 0-11.839-6.945-22.694-17.695-27.655l-16.43-7.583c-6.128-2.829-12.808-3.617-19.216-2.392v-39.083c.001-11.331-9.217-20.549-20.547-20.549zm-26.463 104.706c-16.26 0-31.7 4.234-44.011 11.97-.558-3.4-.842-6.873-.842-10.397 0-29.634 20.121-53.743 44.854-53.743 24.731 0 44.853 24.109 44.853 53.743 0 3.524-.284 6.997-.842 10.397-12.313-7.736-27.752-11.97-44.012-11.97zm21.025-85.265c.668-2.532 2.812-4.441 5.438-4.441 3.06 0 5.548 2.489 5.548 5.549v27.689c-5.298-3.868-11.152-6.814-17.4-8.622.167-.66 6.08-19.012 6.414-20.175zm-47.489-4.441c2.626 0 4.74 1.91 5.438 4.441.193.7 6.079 19.004 6.415 20.175-6.248 1.807-12.102 4.754-17.4 8.622v-27.69c-.001-3.059 2.488-5.548 5.547-5.548zm-58.889 82.262c0-6.009 3.525-11.518 8.98-14.036l16.43-7.583c2.266-1.046 4.674-1.55 7.074-1.546-4.25 9.172-6.733 19.573-6.951 30.609h-18.089c-4.104 0-7.444-3.34-7.444-7.444zm85.353 96.344c-29.634 0-53.743-16.576-53.743-36.95 0-24.691 28.037-36.477 53.743-36.95 25.561.421 53.742 11.752 53.742 36.95 0 20.374-24.108 36.95-53.742 36.95zm76.37-110.381c5.456 2.519 8.981 8.027 8.981 14.036 0 4.104-3.34 7.444-7.444 7.444h-18.089c-.218-11.036-2.701-21.437-6.95-30.608 2.4-.004 4.808.499 7.074 1.545z"/><circle cx="188.024" cy="296.671" r="7.505"/><circle cx="225.561" cy="296.671" r="7.505"/><circle cx="185.127" cy="367.792" r="7.505"/><circle cx="228.458" cy="367.792" r="7.505"/><path d="m368.005 456.166c-4.143 0-7.5 3.357-7.5 7.5s3.357 7.5 7.5 7.5h22.542c4.143 0 7.5-3.357 7.5-7.5s-3.357-7.5-7.5-7.5z"/><path d="m419.516 431.666c0-4.143-3.357-7.5-7.5-7.5h-44.011c-4.143 0-7.5 3.357-7.5 7.5s3.357 7.5 7.5 7.5h44.011c4.142 0 7.5-3.357 7.5-7.5z"/><path d="m412.016 392.1h-44.011c-4.143 0-7.5 3.357-7.5 7.5s3.357 7.5 7.5 7.5h44.011c4.143 0 7.5-3.357 7.5-7.5s-3.358-7.5-7.5-7.5z"/><path d="m412.016 360.034h-44.011c-4.143 0-7.5 3.357-7.5 7.5s3.357 7.5 7.5 7.5h44.011c4.143 0 7.5-3.357 7.5-7.5s-3.358-7.5-7.5-7.5z"/><path d="m368.005 342.968h29.084c4.143 0 7.5-3.357 7.5-7.5s-3.357-7.5-7.5-7.5h-29.084c-4.143 0-7.5 3.357-7.5 7.5s3.357 7.5 7.5 7.5z"/><path d="m412.016 295.902h-44.011c-4.143 0-7.5 3.357-7.5 7.5s3.357 7.5 7.5 7.5h44.011c4.143 0 7.5-3.357 7.5-7.5s-3.358-7.5-7.5-7.5z"/><path d="m368.005 278.836h14.293c4.143 0 7.5-3.357 7.5-7.5s-3.357-7.5-7.5-7.5h-14.293c-4.143 0-7.5 3.357-7.5 7.5s3.357 7.5 7.5 7.5z"/><path d="m412.016 231.771h-44.011c-4.143 0-7.5 3.357-7.5 7.5s3.357 7.5 7.5 7.5h44.011c4.143 0 7.5-3.357 7.5-7.5s-3.358-7.5-7.5-7.5z"/><path d="m412.016 199.704h-44.011c-4.143 0-7.5 3.357-7.5 7.5s3.357 7.5 7.5 7.5h44.011c4.143 0 7.5-3.357 7.5-7.5s-3.358-7.5-7.5-7.5z"/><path d="m303.304 424.166h-22.542c-4.143 0-7.5 3.357-7.5 7.5s3.357 7.5 7.5 7.5h22.542c4.143 0 7.5-3.357 7.5-7.5s-3.358-7.5-7.5-7.5z"/><path d="m303.251 456.166h-42.5c-4.143 0-7.5 3.357-7.5 7.5s3.357 7.5 7.5 7.5h42.5c4.143 0 7.5-3.357 7.5-7.5s-3.357-7.5-7.5-7.5z"/><path d="m92.778 446.166c0 13.785 11.215 25 25 25s25-11.215 25-25-11.215-25-25-25-25 11.215-25 25zm25-10c5.514 0 10 4.486 10 10s-4.486 10-10 10-10-4.486-10-10 4.487-10 10-10z"/><path d="m448.996 159.446-13.687-25.228c-1.977-3.643-6.53-4.992-10.169-3.017-3.642 1.976-4.991 6.528-3.017 10.169l9.494 17.499h-83.333l41.254-77.558 15.828 29.174c1.358 2.505 3.937 3.925 6.599 3.925 1.208 0 2.434-.292 3.569-.909 3.642-1.975 4.991-6.527 3.016-10.168l-21.577-39.77v-34.594c.001-15.974-12.994-28.969-28.968-28.969h-225.082c-15.974 0-28.969 12.995-28.969 28.969v34.625l-51.036 95.949c-1.725 3.239-2.637 6.894-2.637 10.568v60.32c0 4.143 3.357 7.5 7.5 7.5s7.5-3.357 7.5-7.5v-56.561h253.02v323.13h-245.52c-4.136 0-7.5-3.364-7.5-7.5v-224.068c0-4.143-3.357-7.5-7.5-7.5s-7.5 3.357-7.5 7.5v224.068c0 12.406 10.094 22.5 22.5 22.5h346.438c12.406 0 22.5-10.094 22.5-22.5v-33.5c0-4.143-3.357-7.5-7.5-7.5s-7.5 3.357-7.5 7.5v33.5c0 4.136-3.364 7.5-7.5 7.5h-85.918v-323.13h93.418v247.13c0 4.143 3.357 7.5 7.5 7.5s7.5-3.357 7.5-7.5v-250.825c0-3.006-.209-5.625-2.723-10.729zm-117.702-.576h-251.029l45.692-85.9h251.029zm-22.944-100.9v-42.97h29.581v42.97zm-15 0h-29.58v-42.97h29.58zm-44.58 0h-29.581v-42.97h29.581zm-44.582 0h-29.58v-42.97h29.58zm177.786-29.001v29.001h-29.043v-42.97h15.074c7.702 0 13.969 6.267 13.969 13.969zm-239.051-13.969h16.686v42.97h-30.654v-29.001c-.001-7.702 6.266-13.969 13.968-13.969z"/></g></g></svg>