<svg id="Capa_1" enable-background="new 0 0 512 512" height="512" viewBox="0 0 512 512" width="512" xmlns="http://www.w3.org/2000/svg"><g><g><path d="m286.717 30.501c-3.887-13.292-16.168-23.001-30.717-23.001-17.916-.424-34.029 16.551-32 36l32.612 9.458 31.388-9.458c.007-4.569.183-6.955-1.283-12.999z" fill="#e8e8e8"/><path d="m363.34 67.426c-1.465-1.317-3.038-6.929-3.038-6.929-12.361-8.58-34.905-16.997-75.778-16.997h-57.049c-18.203 0-32.764 1.634-44.406 4.197 0 0-4.679 2.21-4.676 2.207-37.7 9.81-37.985 28.596-37.985 28.596l116.203 9.351 118.389-9.351z" fill="#f8f7f7"/><path d="m375 78.53-118.39 9.32-119.61-9.188s3.54-20.002 41.24-29.812c1.55-.4 3.16-.79 4.83-1.15-.071.07-.142.14-.212.21-4.639 4.645-1.284 12.59 5.28 12.59l172.164-.004c1.93 1.34 3.607 2.684 5.078 4.004 8.28 7.44 9.62 14.03 9.62 14.03z" fill="#e8e8e8"/><g><path d="m395.872 78.53h-279.744c-.677 0-1.344.045-1.998.132 0 0-11.152 7.261-11.152 14.868 0 8.284 8.631 12.67 16.915 12.67l275.021.957c7.886 0 15.115-4.716 15.718-12.448.03-.39.239-1.18.239-1.18.001-8.283-6.715-14.999-14.999-14.999z" fill="#dcf2f6"/><path d="m410.872 93.53c0 8.28-6.712 15-15.002 15l-137.87 5.874-141.87-5.874c-4.15 0-7.89-1.68-10.61-4.4-2.71-2.71-4.39-6.46-4.39-10.6 0-7.6 5.66-13.888 13-14.868.04 4.09 1.71 7.788 4.39 10.468 2.72 2.72 6.46 4.4 10.61 4.4z" fill="#bae6ef"/></g><path d="m250.362 459.085-127.362 15.415v20c0 5.523 4.477 10 10 10h246c5.523 0 10-4.477 10-10v-20z" fill="#f8f7f7"/><path d="m150 472.32v32.18h-17c-5.52 0-10-4.48-10-10v-20z" fill="#e8e8e8"/><path d="m394.179 171.129c-3.183-1.774-5.179-5.109-5.179-8.753v-23.875l-133.016-10.309-128.984 10.308v23.88c0 3.64-2 6.97-5.18 8.75-23.52 13.11-38.32 38.02-38.32 65.25v183.75c0 25.95 14.19 45.62 39.5 51.37l263.021.266c10.559-2.39 17.797-6.243 25.106-13.532 0 0 9.564-3.733 9.564-3.733 7.422-9.412 11.809-21.191 11.809-33.791v-184.333c0-27.231-14.796-52.137-38.321-65.248z" fill="#dcf2f6"/><path d="m420.691 454.501c-1.38 1.75-2.871 3.419-4.451 4.999-7.31 7.29-16.68 12.61-27.24 15h-266c-25.31-5.75-43.5-28.42-43.5-54.37v-183.75c0-27.23 14.8-52.14 38.32-65.25 3.18-1.78 5.18-5.11 5.18-8.75v-23.88l10.596-3.84 9.404 2.54v25.18c0 10.84-5.91 20.88-15.44 26.22-17.31 9.65-28.06 27.95-28.06 47.78v183.75c0 1.49.1 2.96.28 4.41 2.2 17.26 17.34 29.96 34.75 29.96z" fill="#bae6ef"/><path d="m274.5 378.5c0 38.66-31.308 68.17-69.968 68.17s-67.021-29.51-67.021-68.17 28.329-70 66.989-70 70 31.34 70 70z" fill="#b06c6c"/><path d="m240.8 438.36c-10.59 6.43-23.01 10.14-36.3 10.14-38.66 0-70-31.34-70-70 0-30.31 19.26-56.12 46.21-65.85-20.19 12.28-33.68 34.49-33.68 59.85 0 38.66 31.34 70 70 70 8.35 0 16.35-1.46 23.77-4.14z" fill="#9d5e5e"/><path d="m376.5 368c0 26.189-12.506 49.457-31.872 64.158 0 0-14.624 7.27-22.905 10.076-8.112 2.748-16.683 3.66-25.723 3.66-44.459 0-76.106-33.435-76.106-77.894s31.647-80.5 76.106-80.5 80.5 36.041 80.5 80.5z" fill="#b06c6c"/><path d="m344.628 432.158c-13.51 10.25-30.358 16.342-48.628 16.342-44.46 0-80.5-36.04-80.5-80.5 0-32.45 19.2-60.42 46.87-73.16-19.36 14.7-31.87 37.97-31.87 64.16 0 44.46 36.04 80.5 80.5 80.5 12.01 0 23.398-2.632 33.628-7.342z" fill="#9d5e5e"/><circle cx="212.5" cy="383.5" fill="#865151" r="15"/><circle cx="305.5" cy="377.5" fill="#865151" r="15"/><path d="m376.5 240.5c0 37.555-30.445 68-68 68s-68-30.445-68-68c0-26.64 16.307-46.834 38.617-57.989 3.235-1.617 9.132-6.944 9.132-6.944 6.397-1.993 13.198-3.066 20.251-3.066 37.555-.001 68 30.444 68 67.999z" fill="#b06c6c"/><path d="m372.35 263.92c-9.53 26.02-34.52 44.58-63.85 44.58-37.56 0-68-30.44-68-68 0-30.51 20.079-56.324 47.749-64.934-.3 2.6-.459 5.254-.459 7.934 0 37.56 30.44 68 68 68 .39 0 8.29 6.06 16.56 12.42z" fill="#9d5e5e"/><path d="m288.5 247c0 41.145-33.355 74.5-74.5 74.5s-71.511-33.355-71.511-74.5c0-23.925 8.896-43.391 26.426-57.021 5.31-4.129 16.903-11.964 16.903-11.964 8.694-3.555 18.209-5.515 28.182-5.515 41.145 0 74.5 33.355 74.5 74.5z" fill="#b06c6c"/><path d="m266.6 299.76c-13.47 13.43-32.06 21.74-52.6 21.74-41.15 0-74.5-33.35-74.5-74.5 0-31.18 19.14-57.88 46.32-68.98-13.53 13.49-21.9 32.15-21.9 52.76 0 41.15 33.35 74.5 74.5 74.5 9.97 0 19.49-1.96 28.18-5.52z" fill="#9d5e5e"/><circle cx="284.5" cy="225.5" fill="#865151" r="15"/><path d="m129.5 363.5h65.163c5.139 0 10.191 1.32 14.673 3.833l41.727 23.398c3.063 1.718 6.803 1.703 9.852-.04l40.668-23.239c4.533-2.59 9.663-3.953 14.884-3.953h65.033c5.523 0 10-4.477 10-10v-94c0-5.523-4.477-10-10-10h-65.098c-5.179 0-10.271-1.341-14.778-3.892l-41.198-23.319c-3.056-1.73-6.796-1.73-9.852 0l-41.198 23.319c-4.507 2.551-9.599 3.892-14.778 3.892h-65.098c-5.523 0-10 4.477-10 10v94c0 5.524 4.477 10.001 10 10.001z" fill="#f8f7f7"/><path d="m222.053 344.655c-8.366-4.691-17.797-7.155-27.389-7.155h-45.164c-2.209 0-4-1.791-4-4v-54c0-2.209 1.791-4 4-4h45.099c9.649 0 19.188-2.512 27.585-7.265l31.345-17.743c1.222-.692 2.718-.692 3.941 0l31.345 17.743c8.414 4.763 17.917 7.266 27.586 7.266h45.099c2.209 0 4 1.791 4 4v54c0 2.209-1.791 4-4 4h-45.033c-9.729 0-19.337 2.552-27.784 7.379l-30.838 17.62c-1.22.697-2.716.703-3.941.016z" fill="#dcf2f6"/><g fill="#865151"><circle cx="350.5" cy="187.5" r="15"/><circle cx="151.5" cy="209.5" r="15"/><circle cx="371.5" cy="403.5" r="15"/><circle cx="145.5" cy="418.5" r="15"/><circle cx="228.5" cy="178.5" r="15"/><circle cx="240.5" cy="433.5" r="15"/></g><g><path d="m395.872 108.5h-279.744c-.677 0-1.344.045-1.998.132 0 0-11.152 7.261-11.152 14.868 0 8.284 8.631 12.67 16.915 12.67l275.021.957c7.886 0 15.115-4.716 15.718-12.448.03-.39.239-1.18.239-1.18.001-8.283-6.715-14.999-14.999-14.999z" fill="#dcf2f6"/><path d="m410.872 123.5c0 8.28-6.712 15-15.002 15h-279.74c-4.15 0-7.89-1.68-10.61-4.4-2.71-2.71-4.39-6.46-4.39-10.6 0-7.6 5.66-13.888 13-14.868.04 4.09 1.71 7.788 4.39 10.468 2.72 2.72 6.46 4.4 10.61 4.4z" fill="#bae6ef"/></g></g><g><path d="m397.83 164.577c-.82-.457-1.33-1.3-1.33-2.201v-16.376c12.407 0 22.5-10.093 22.5-22.5 0-5.758-2.177-11.016-5.747-15 3.571-3.984 5.747-9.242 5.747-15 0-12.407-10.093-22.5-22.5-22.5h-16.47c-2.245-4.294-6.542-10.285-14.643-16.095-15.7-11.259-39.231-17.533-70.035-18.701-1.682-20.243-18.683-36.204-39.352-36.204-20.668 0-37.668 15.959-39.352 36.2-31.154 1.159-54.806 7.441-70.396 18.725-7.992 5.783-12.194 11.757-14.378 16.075h-16.374c-12.407 0-22.5 10.093-22.5 22.5 0 5.758 2.177 11.016 5.747 15-3.571 3.984-5.747 9.242-5.747 15 0 12.407 10.093 22.5 22.5 22.5v16.375c0 .901-.51 1.744-1.331 2.202-26.011 14.498-42.169 42.01-42.169 71.8v129.775c0 4.142 3.358 7.5 7.5 7.5s7.5-3.358 7.5-7.5v-129.775c0-24.355 13.209-46.847 34.471-58.697 5.569-3.104 9.029-8.968 9.029-15.305v-16.375h251v16.375c0 6.337 3.459 12.201 9.028 15.304 21.263 11.852 34.472 34.343 34.472 58.698v184.332c0 21.752-15.48 41.092-36.912 46.291h-264.17c-21.436-5.238-36.918-24.821-36.918-46.874v-18.974c0-4.142-3.358-7.5-7.5-7.5s-7.5 3.358-7.5 7.5v18.974c0 27.214 17.97 51.558 43.5 60.047v14.327c0 9.649 7.851 17.5 17.5 17.5h246c9.649 0 17.5-7.851 17.5-17.5v-14.316c25.53-8.427 43.5-32.539 43.5-59.475v-184.332c0-29.79-16.158-57.302-42.17-71.8zm-141.83-149.577c12.321 0 22.542 9.143 24.246 21h-48.492c1.704-11.857 11.925-21 24.246-21zm-140.5 71h79.891c4.142 0 7.5-3.358 7.5-7.5s-3.358-7.5-7.5-7.5h-45.124c8.534-8.474 29.004-20 77.209-20h57.049c47.052 0 67.787 11.445 76.716 20h-130.85c-4.142 0-7.5 3.358-7.5 7.5s3.358 7.5 7.5 7.5h166.109c4.136 0 7.5 3.364 7.5 7.5s-3.364 7.5-7.5 7.5h-281c-4.136 0-7.5-3.364-7.5-7.5s3.364-7.5 7.5-7.5zm-7.5 37.5c0-4.136 3.364-7.5 7.5-7.5h281c4.136 0 7.5 3.364 7.5 7.5s-3.364 7.5-7.5 7.5h-281c-4.136 0-7.5-3.364-7.5-7.5zm273.5 371c0 1.378-1.122 2.5-2.5 2.5h-246c-1.378 0-2.5-1.122-2.5-2.5v-12.5h251z"/><path d="m129.5 242c-9.649 0-17.5 7.851-17.5 17.5v94c0 8.93 6.728 16.306 15.378 17.358-.249 2.536-.378 5.089-.378 7.642 0 7.939 1.205 15.719 3.553 23.202-4.63 4.124-7.553 10.125-7.553 16.798 0 12.407 10.093 22.5 22.5 22.5 3.629 0 7.056-.869 10.094-2.401 13.798 11.245 30.971 17.401 48.906 17.401 6.563.024 16.152-1.189 23.657-3.701 3.547 2.336 7.787 3.701 12.343 3.701 7.142 0 13.513-3.349 17.638-8.555 11.767 5.607 24.726 8.555 37.862 8.555 1.592 0 3.199-.043 4.777-.127 4.136-.222 7.31-3.754 7.088-7.891-.222-4.136-3.749-7.312-7.891-7.088-1.312.07-2.649.106-3.975.106-11.502 0-22.835-2.721-33.01-7.882-.402-12.593-11.806-24.067-25.796-21.873-3.012-4.086-5.575-8.457-7.668-13.061 2.075-2.403 3.651-5.246 4.566-8.37l13.303 7.46c2.644 1.482 5.601 2.223 8.558 2.223 3.005 0 6.01-.765 8.684-2.293l19.957-11.404c3.31 8.31 11.431 14.201 20.907 14.201 12.407 0 22.5-10.093 22.5-22.5 0-2.234-.344-4.418-.974-6.5h41.906c-.141 3.471-.526 6.918-1.15 10.313-10.643 1.777-18.782 11.046-18.782 22.186 0 4.108 1.112 7.959 3.043 11.277-5.977 7.141-13.349 13.167-21.519 17.561-3.648 1.962-5.015 6.51-3.052 10.158 1.354 2.518 3.94 3.949 6.611 3.949 1.2 0 2.416-.289 3.546-.896 9.8-5.271 18.645-12.49 25.827-21.04 2.5.96 5.21 1.492 8.044 1.492 12.407 0 22.5-10.093 22.5-22.5 0-8.391-4.62-15.719-11.448-19.587.788-4.315 1.264-8.696 1.403-13.106 8.488-1.2 15.045-8.493 15.045-17.307v-42.129c0-4.142-3.358-7.5-7.5-7.5s-7.5 3.358-7.5 7.5v42.128c0 1.378-1.122 2.5-2.5 2.5h-65.033c-6.515 0-12.949 1.708-18.605 4.941l-40.668 23.239c-.758.433-1.701.437-2.463.01l-41.727-23.398c-5.59-3.135-11.932-4.792-18.341-4.792h-65.163c-1.378 0-2.5-1.122-2.5-2.5v-94c0-1.378 1.122-2.5 2.5-2.5h65.099c6.461 0 12.849-1.682 18.472-4.865l41.197-23.319c.76-.431 1.704-.43 2.463 0l41.198 23.32c5.623 3.183 12.011 4.865 18.472 4.865h65.099c1.378 0 2.5 1.122 2.5 2.5v16.871c0 4.142 3.358 7.5 7.5 7.5s7.5-3.358 7.5-7.5v-16.872c0-8.808-6.547-16.096-15.026-17.304.467-14.815-4.335-31.878-13.366-44.617 1.527-3.034 2.393-6.457 2.393-10.079 0-12.407-10.093-22.5-22.5-22.5-5.468 0-10.484 1.962-14.388 5.217-8.783-3.459-18.052-5.217-27.613-5.217-17.834 0-34.835 6.219-48.402 17.577-2.915-2.112-5.979-4.029-9.167-5.75-.86-11.628-10.588-20.827-22.431-20.827-8.235 0-15.446 4.449-19.368 11.067-19.17.663-37.354 7.956-51.681 20.738-1.897-.521-3.891-.805-5.951-.805-12.407 0-22.5 10.093-22.5 22.5 0 5.354 1.882 10.274 5.016 14.141-1.937 5.959-3.192 12.102-3.72 18.359zm242 169c-4.136 0-7.5-3.364-7.5-7.5s3.364-7.5 7.5-7.5 7.5 3.364 7.5 7.5-3.364 7.5-7.5 7.5zm-61.101-39.157c1.624 1.412 2.601 3.463 2.601 5.657 0 4.136-3.364 7.5-7.5 7.5-3.926 0-7.152-3.034-7.469-6.88l7.273-4.156c1.608-.918 3.322-1.625 5.095-2.121zm-172.399 46.657c0-4.136 3.364-7.5 7.5-7.5s7.5 3.364 7.5 7.5-3.364 7.5-7.5 7.5-7.5-3.364-7.5-7.5zm28.011 9.232c1.274-2.819 1.989-5.943 1.989-9.232.091-12.169-10.735-23.069-23.501-22.475-1.653-5.664-2.499-11.537-2.499-17.525 0-2.51.167-5.017.464-7.5h51.36c-2.42 3.609-3.824 7.926-3.824 12.5 0 12.407 10.093 22.5 22.5 22.5 1.346 0 2.662-.125 3.943-.353 2.105 4.443 4.582 8.698 7.407 12.735-3.633 3.997-5.85 9.304-5.85 15.118 0 2.027.274 3.991.779 5.861-4.657 1.087-9.442 1.639-14.279 1.639-14.054 0-27.53-4.684-38.489-13.268zm81.989 5.768c0 4.136-3.364 7.5-7.5 7.5s-7.5-3.364-7.5-7.5 3.364-7.5 7.5-7.5 7.5 3.364 7.5 7.5zm-28-50c0 4.136-3.364 7.5-7.5 7.5s-7.5-3.364-7.5-7.5c0-3.254 2.118-6.116 5.141-7.117l9.65 5.411c.129.555.209 1.125.209 1.706zm64.5-165.5c4.136 0 7.5 3.364 7.5 7.5 0 1.849-.687 3.613-1.89 4.973l-12.764-7.225c.959-3.039 3.803-5.248 7.154-5.248zm66-38c4.136 0 7.5 3.364 7.5 7.5s-3.364 7.5-7.5 7.5-7.5-3.364-7.5-7.5 3.364-7.5 7.5-7.5zm-22.112 3.36c-.251 1.343-.388 2.725-.388 4.14 0 12.407 10.093 22.5 22.5 22.5 3.232 0 6.304-.69 9.084-1.922 5.937 9.173 9.773 22.003 9.393 33.922h-52.575c-3.877 0-7.709-1.009-11.083-2.919l-2.064-1.168c2.405-3.636 3.746-7.94 3.746-12.413-.062-13.408-12.651-24.892-26.831-22.077-2.582-3.858-5.475-7.468-8.639-10.809 10.553-8.169 23.465-12.614 36.969-12.614 6.859 0 13.524 1.14 19.888 3.36zm-99.888-12.36c4.136 0 7.5 3.364 7.5 7.5s-3.364 7.5-7.5 7.5-7.5-3.364-7.5-7.5 3.364-7.5 7.5-7.5zm-77 31c4.136 0 7.5 3.364 7.5 7.5s-3.364 7.5-7.5 7.5-7.5-3.364-7.5-7.5 3.364-7.5 7.5-7.5zm-4.214 29.599c1.366.26 2.773.401 4.214.401 12.407 0 22.5-10.093 22.5-22.5 0-4.718-1.462-9.099-3.953-12.719 10.399-8.37 22.978-13.409 36.272-14.53 1.791 10.626 11.053 18.749 22.181 18.749 7.483 0 14.12-3.675 18.213-9.312 8.127 4.928 15.117 11.525 20.527 19.397-1.2 1.434-2.225 3.018-3.042 4.721-4.177-2.466-11.68-3.191-17.319-.044l-41.198 23.32c-3.374 1.91-7.207 2.919-11.083 2.919h-49.223c.365-3.522.998-6.997 1.911-10.402z"/><path d="m316.401 268c-8.357 0-16.619-2.176-23.891-6.292l-33.316-18.858c-2.292-1.298-5.096-1.298-7.389 0l-33.315 18.859c-7.273 4.116-15.534 6.292-23.891 6.292h-49.099c-4.142 0-7.5 3.358-7.5 7.5v62c0 4.142 3.358 7.5 7.5 7.5h49.163c8.289 0 16.492 2.143 23.722 6.197l33.826 18.968c1.14.639 2.404.958 3.668.958 1.284 0 2.568-.33 3.721-.988l32.804-18.745c7.316-4.181 15.637-6.391 24.063-6.391h49.033c4.142 0 7.5-3.358 7.5-7.5v-62c0-4.142-3.358-7.5-7.5-7.5zm41.599 62h-41.533c-11.033 0-21.927 2.894-31.505 8.367l-29.117 16.638-30.123-16.892c-9.466-5.308-20.206-8.114-31.059-8.114h-41.663v-47h41.599c10.941 0 21.758-2.849 31.28-8.238l29.621-16.768 29.622 16.767c9.521 5.39 20.338 8.239 31.28 8.239h41.598z"/><path d="m169 306.5c0 4.142 3.358 7.5 7.5 7.5h158c4.142 0 7.5-3.358 7.5-7.5s-3.358-7.5-7.5-7.5h-158c-4.142 0-7.5 3.358-7.5 7.5z"/></g></g></svg>