<svg id="Capa_1" enable-background="new 0 0 510.222 510.222" height="512" viewBox="0 0 510.222 510.222" width="512" xmlns="http://www.w3.org/2000/svg"><g><g><circle cx="255.111" cy="95.935" fill="#ff8087" r="32.476"/><path d="m287.586 95.939c0 17.93-14.54 32.47-32.48 32.47-4.43 0-8.65-.89-12.5-2.49 11.74-4.9 19.98-16.48 19.98-29.98 0-13.51-8.24-25.09-19.98-29.99 3.85-1.6 8.07-2.49 12.5-2.49 17.94 0 32.48 14.54 32.48 32.48z" fill="#e6646e"/><path d="m407.546 353.519h-304.87l27.62-207.58c1.58-11.93 11.75-20.83 23.79-20.83h202.05c12.04 0 22.21 8.9 23.79 20.83z" fill="#c48d66"/><path d="m407.546 353.519h-25l-27.62-207.58c-1.58-11.93-11.75-20.83-23.79-20.83h25c12.04 0 22.21 8.9 23.79 20.83z" fill="#b67f5f"/><path d="m386.356 194.239h-.01c-12.16-5.9-18.64-15.52-39.78-15.52-30.49 0-30.49 20-60.98 20s-30.49-20-60.97-20c-30.49 0-30.49 20-60.97 20-20.32 0-27.11-8.89-38.4-14.82l5.05-37.96c1.58-11.93 11.75-20.83 23.79-20.83h202.05c12.04 0 22.21 8.9 23.79 20.83z" fill="#ffe17d"/><path d="m226.5 358.204h57.223v115.161h-57.223z" fill="#c4d7fb"/><path d="m258.726 358.199h25v115.17h-25z" fill="#a9c6f9"/><path d="m411.25 395.159h-312.278c-5.522 0-10.332-3.769-11.652-9.131l-7.975-32.386c-1.862-7.563 3.863-14.869 11.652-14.869h328.228c7.789 0 13.514 7.306 11.652 14.869l-7.975 32.386c-1.321 5.363-6.13 9.131-11.652 9.131z" fill="#eef5ff"/><path d="m364.29 502.502h-218.358c-8.332 0-14.128-8.283-11.274-16.11l8.651-23.729c1.151-3.158 4.154-5.26 7.516-5.26h208.571c3.362 0 6.365 2.101 7.516 5.26l8.651 23.729c2.855 7.828-2.941 16.11-11.273 16.11z" fill="#eef5ff"/><path d="m364.286 502.499h-25c8.34 0 14.13-8.28 11.28-16.11l-8.65-23.73c-1.16-3.15-4.16-5.26-7.52-5.26h25c3.36 0 6.36 2.11 7.52 5.26l8.65 23.73c2.85 7.83-2.94 16.11-11.28 16.11z" fill="#dfe9fb"/><path d="m430.876 353.639-7.97 32.39c-1.32 5.36-6.13 9.13-11.66 9.13h-25c5.53 0 10.34-3.77 11.66-9.13l7.97-32.39c1.86-7.56-3.86-14.87-11.65-14.87h25c7.79 0 13.51 7.31 11.65 14.87z" fill="#dfe9fb"/><path d="m386.356 194.239h-.01c-9.25-4.49-15.22-11.14-26.86-14.05l-4.56-34.25c-1.58-11.93-11.75-20.83-23.79-20.83h25c12.04 0 22.21 8.9 23.79 20.83z" fill="#ffd164"/></g><g><path d="m434.574 338.967c-3.724-4.75-9.319-7.475-15.353-7.475h-7.071l-24.785-186.321c-2.078-15.592-15.501-27.35-31.224-27.35h-67.397c4.071-6.316 6.347-13.776 6.347-21.67 0-15.906-9.344-29.669-22.83-36.098 6.235-17.886 18.585-41.981 40.442-45.13 4.1-.59 6.945-4.393 6.354-8.493-.59-4.1-4.391-6.943-8.493-6.354-28.905 4.164-44.559 31.579-52.872 56.197-.854-.055-1.713-.092-2.581-.092-22.045 0-39.98 17.93-39.98 39.97 0 7.894 2.276 15.354 6.347 21.67h-67.397c-15.723 0-29.146 11.758-31.225 27.352l-24.784 186.319h-7.071c-6.034 0-11.629 2.725-15.353 7.475-3.722 4.749-5.031 10.831-3.589 16.689l7.98 32.39c2.151 8.735 9.936 14.836 18.932 14.836h120.03v47.24h-68.18c-6.488 0-12.338 4.097-14.556 10.191l-8.649 23.726c-2.182 5.973-1.309 12.649 2.335 17.86 3.646 5.212 9.619 8.324 15.979 8.324h151.56c4.142 0 7.5-3.358 7.5-7.5s-3.358-7.5-7.5-7.5h-151.56c-2.116 0-3.284-1.343-3.688-1.92-.403-.577-1.263-2.132-.536-4.121l8.652-23.734c.072-.197.253-.325.462-.325h208.58c.209 0 .39.127.463.329l8.652 23.734c.725 1.985-.135 3.54-.538 4.117-.404.577-1.572 1.92-3.688 1.92h-31.8c-4.142 0-7.5 3.358-7.5 7.5s3.358 7.5 7.5 7.5h31.8c6.36 0 12.334-3.112 15.979-8.324 3.644-5.21 4.517-11.887 2.337-17.855l-8.649-23.726c-2.219-6.098-8.069-10.195-14.558-10.195h-68.18v-47.24h120.03c8.996 0 16.781-6.101 18.932-14.836l7.98-32.393c1.445-5.856.136-11.938-3.586-16.687zm-204.443-242.815c0-13.769 11.206-24.97 24.98-24.97s24.98 11.201 24.98 24.97c0 9.057-4.771 17.216-12.551 21.67h-24.857c-7.781-4.454-12.552-12.613-12.552-21.67zm-76.05 36.67h202.06c8.235 0 15.267 6.161 16.355 14.329l4.357 32.753c-7.12-4.386-15.835-8.462-30.282-8.462-17.485 0-26.58 5.965-34.604 11.229-7.175 4.707-13.372 8.771-26.376 8.771-13.005 0-19.202-4.065-26.376-8.772-8.022-5.263-17.114-11.228-34.594-11.228-17.487 0-26.581 5.966-34.604 11.23-7.173 4.706-13.367 8.77-26.365 8.77s-19.196-4.063-26.373-8.769c-1.28-.839-2.583-1.691-3.941-2.535l4.388-32.985c1.088-8.17 8.12-14.331 16.355-14.331zm122.14 317.3h-42.22v-47.24h42.22zm147.378-98.054-7.98 32.391c-.496 2.016-2.292 3.423-4.367 3.423h-312.281c-2.075 0-3.871-1.408-4.368-3.424l-7.979-32.388c-.455-1.848.325-3.206.83-3.85.506-.646 1.64-1.728 3.547-1.728h42.92c4.142 0 7.5-3.358 7.5-7.5s-3.358-7.5-7.5-7.5h-20.717l17.946-134.911c7.554 4.876 16.522 9.86 32.501 9.86 17.479 0 26.572-5.965 34.593-11.228 7.175-4.707 13.371-8.772 26.376-8.772 12.999 0 19.193 4.064 26.366 8.77 8.023 5.264 17.118 11.23 34.604 11.23 17.485 0 26.58-5.965 34.604-11.229 7.175-4.707 13.372-8.771 26.376-8.771 13 0 19.196 4.065 26.371 8.772 2.064 1.354 4.179 2.737 6.488 4.059l17.588 132.219h-228.096c-4.142 0-7.5 3.358-7.5 7.5s3.358 7.5 7.5 7.5h250.3c1.908 0 3.042 1.083 3.547 1.728.505.646 1.285 2.003.831 3.849z"/></g></g></svg>