<svg id="Capa_1" enable-background="new 0 0 510.725 510.725" height="512" viewBox="0 0 510.725 510.725" width="512" xmlns="http://www.w3.org/2000/svg"><g><g><circle cx="279.845" cy="48.196" fill="#ffe17d" r="40.696"/><circle cx="340.28" cy="50.824" fill="#ffe17d" r="40.696"/><path d="m320.54 48.199c0 22.47-18.22 40.69-40.7 40.69-4.36 0-8.56-.69-12.5-1.96 16.36-5.27 28.2-20.62 28.2-38.73 0-18.12-11.84-33.47-28.2-38.74 3.94-1.27 8.14-1.96 12.5-1.96 22.48 0 40.7 18.219 40.7 40.7z" fill="#ffd164"/><path d="m380.98 50.829c0 22.47-18.22 40.69-40.7 40.69-4.36 0-8.56-.69-12.5-1.96 16.36-5.27 28.2-20.62 28.2-38.73 0-18.12-11.84-33.47-28.2-38.74 3.94-1.27 8.14-1.96 12.5-1.96 22.48 0 40.7 18.22 40.7 40.7z" fill="#ffd164"/><path d="m417.802 122.066c-6.48-12.43-10.06-29.18-22.62-38.13-12.26-8.73-32.16-5.79-47.96-11.86-14.28-5.48-26.63-21.27-43.07-24.11-15.23-2.63-32.27 7.88-48.79 7.88s-33.56-10.51-48.79-7.88c-16.44 2.84-28.8 18.63-43.07 24.11-15.8 6.07-35.7 3.13-47.96 11.86-12.56 8.95-16.14 25.7-22.62 38.13l57.914 70.82h183.914z" fill="#ff8087"/><path d="m417.8 122.069-83.05 70.82h-25l83.05-70.82c-6.48-12.43-10.06-29.18-22.62-38.13-12.26-8.73-32.16-5.79-47.96-11.86-12.49-4.79-23.5-17.46-37.05-22.47 6.51-1.64 12.89-2.69 18.98-1.64 16.44 2.84 28.79 18.63 43.07 24.11 15.8 6.07 35.7 3.13 47.96 11.86 12.56 8.95 16.14 25.7 22.62 38.13z" fill="#e6646e"/><path d="m422.71 123.427c-37.156-10.447-75.048-17.334-113.176-20.681-2.335-.205-4.341 1.647-4.341 3.991v17.586c0 11.67-9.46 21.13-21.13 21.13-11.67 0-21.13-9.46-21.13-21.13v-19.931c0-2.198-1.774-3.995-3.972-4.008-8.282-.049-16.565.065-24.843.349-2.153.074-3.859 1.852-3.859 4.006v47.395c0 13.931-11.4 25.667-25.329 25.403-13.501-.256-24.367-11.281-24.367-24.843v-43.259c0-2.41-2.116-4.285-4.506-3.976-29.648 3.832-59.087 9.817-88.077 17.968-11.754 3.305-16.867 17.114-10.112 27.284 58.14 87.53 118.573 199.201 177.477 310.871 58.92-111.701 119.37-223.402 177.524-310.942 6.753-10.166 1.59-23.909-10.159-27.213z" fill="#ffe8c8"/><path d="m432.87 150.639c-58.16 87.54-118.61 199.24-177.53 310.94-4.16-7.89-8.33-15.77-12.5-23.65 54.94-103.7 110.98-205.93 165.03-287.29 6.75-10.16 1.59-23.91-10.16-27.21-30.3-8.52-61.09-14.67-92.09-18.47.69-1.42 2.22-2.36 3.91-2.21 38.13 3.35 76.02 10.23 113.18 20.68 11.75 3.3 16.91 17.05 10.16 27.21z" fill="#fdd9b4"/><path d="m399.68 258.229-140.01 242.5c-1.92 3.33-6.73 3.33-8.66 0l-140-242.5c-1.93-3.34.48-7.5 4.33-7.5h280.01c3.85 0 6.26 4.16 4.33 7.5z" fill="#eef5ff"/><path d="m399.68 258.229-140.01 242.5c-1.92 3.33-6.73 3.33-8.66 0l-8.17-14.15 131.84-228.35c1.93-3.34-.48-7.5-4.33-7.5h25c3.85 0 6.26 4.16 4.33 7.5z" fill="#dfe9fb"/><path d="m399.68 258.229-22.18 38.42h-244.31l-22.18-38.42c-1.93-3.34.48-7.5 4.33-7.5h280.01c3.85 0 6.26 4.16 4.33 7.5z" fill="#c4d7fb"/><path d="m399.68 258.229-22.18 38.42h-25l22.18-38.42c1.93-3.34-.48-7.5-4.33-7.5h25c3.85 0 6.26 4.16 4.33 7.5z" fill="#a9c6f9"/></g><g><path d="m441.779 131.897c-2.868-7.734-9.077-13.455-17.039-15.698-.561-.158-1.124-.307-1.686-.463-1.119-2.401-2.193-4.969-3.31-7.65-4.402-10.571-9.391-22.553-20.213-30.264-4.687-3.338-10.044-5.243-15.641-6.501 2.99-6.371 4.581-13.374 4.581-20.501 0-26.578-21.618-48.2-48.19-48.2-10.461 0-20.388 3.305-28.626 9.414-8.494-7.482-19.629-12.034-31.813-12.034-24.997 0-45.603 19.132-47.96 43.521-8.684-2.409-17.609-4.5-26.587-2.95-11.209 1.937-20.482 8.719-28.663 14.704-5.507 4.028-10.708 7.833-15.82 9.796-5.94 2.282-13.068 3.173-19.961 4.035-10.388 1.299-21.129 2.642-29.661 8.718-10.821 7.71-15.81 19.692-20.212 30.264-1.116 2.68-2.19 5.246-3.308 7.646-.572.159-1.149.306-1.721.467-7.938 2.234-14.134 7.95-16.999 15.682-2.866 7.734-1.891 16.109 2.673 22.976 17.34 26.112 35.406 55.123 55.024 88.361h-11.316c-4.516 0-8.562 2.335-10.821 6.246-2.261 3.913-2.263 8.586-.004 12.504l92.21 159.71c2.072 3.588 6.659 4.817 10.245 2.745 3.587-2.071 4.816-6.658 2.745-10.245l-63.531-110.038h218.332l-109.165 189.077-28.135-48.729c-2.071-3.588-6.658-4.817-10.245-2.745-3.587 2.071-4.816 6.658-2.745 10.245l30.301 52.482c2.229 3.858 6.377 6.253 10.828 6.253h.014c4.519-.005 8.562-2.348 10.808-6.255l140.004-242.49c2.266-3.91 2.271-8.583.014-12.5-2.226-3.861-6.376-6.26-10.833-6.26h-11.306c5.701-9.655 11.304-19.016 16.725-27.935 2.151-3.54 1.026-8.153-2.514-10.305-3.541-2.152-8.153-1.026-10.305 2.514-6.871 11.304-14.03 23.309-21.31 35.726h-222.593c-21.497-36.681-41.127-68.344-59.932-96.662-1.881-2.829-2.282-6.278-1.102-9.463 1.179-3.183 3.73-5.536 6.996-6.455 27.116-7.623 55.033-13.41 83.05-17.218v39.268c0 17.507 14.234 32.015 31.725 32.338 8.618.157 16.762-3.116 23.008-9.243 6.334-6.213 9.967-14.835 9.967-23.656v-44.01c5.879-.167 11.759-.251 17.561-.251h.109v16.451c0 7.646 2.979 14.835 8.387 20.243s12.597 8.387 20.243 8.387c15.787 0 28.63-12.843 28.63-28.63v-13.761c36.461 3.436 72.771 10.187 107.986 20.08 3.29.927 5.855 3.287 7.037 6.474 1.169 3.153.771 6.572-1.089 9.375-6.472 9.737-13.253 20.212-20.154 31.136-2.212 3.501-1.167 8.134 2.334 10.346 3.502 2.213 8.135 1.167 10.346-2.334 6.84-10.826 13.558-21.204 19.969-30.849 4.544-6.846 5.514-15.189 2.658-22.889zm-68.611 157.245h-235.653l-17.853-30.922h271.36zm.304-238.322c0 6.435-1.881 12.718-5.346 18.066-6.34-.803-12.774-1.725-18.217-3.816-5.117-1.964-10.32-5.771-15.83-9.801-1.972-1.443-4.01-2.931-6.121-4.388.049-.893.083-1.79.083-2.691 0-8.979-2.476-17.387-6.771-24.592 5.532-3.882 12.101-5.979 19.011-5.979 18.302.001 33.191 14.894 33.191 33.201zm-93.63-35.82c16.366 0 29.994 11.903 32.702 27.501-2.286-.834-4.651-1.505-7.116-1.93-10.044-1.733-20.018 1.086-29.665 3.813-7.197 2.035-13.995 3.957-20.401 3.957-2.819 0-5.718-.385-8.689-.975.44-17.921 15.144-32.366 33.169-32.366zm30.331 80.267c-3.194-.272-6.387.815-8.754 2.988-2.369 2.174-3.727 5.263-3.727 8.475v17.59c0 7.516-6.114 13.63-13.63 13.63-3.639 0-7.062-1.418-9.637-3.993s-3.993-5.998-3.993-9.637v-19.93c0-6.318-5.13-11.481-11.425-11.51-8.259-.049-16.722.069-25.139.354-6.228.202-11.106 5.256-11.106 11.506v47.39c0 4.818-1.994 9.537-5.47 12.947-3.347 3.283-7.661 5.052-12.221 4.955-9.378-.174-17.009-7.953-17.009-17.341v-43.26c0-3.308-1.426-6.458-3.912-8.642-2.484-2.183-5.788-3.191-9.059-2.766-23.182 2.995-46.319 7.332-69.04 12.906 3.567-8.45 7.27-16.204 13.841-20.886 5.447-3.879 13.886-4.934 22.82-6.051 7.784-.974 15.833-1.98 23.479-4.917 6.977-2.679 13.24-7.261 19.297-11.692 7.516-5.498 14.615-10.691 22.36-12.029 6.687-1.153 14.626 1.09 23.031 3.466 7.864 2.224 15.997 4.523 24.482 4.523s16.618-2.299 24.483-4.523c8.405-2.376 16.346-4.619 23.03-3.466 7.742 1.337 14.836 6.528 22.348 12.023 6.061 4.434 12.327 9.018 19.31 11.698 7.646 2.938 15.695 3.944 23.479 4.917 8.934 1.117 17.373 2.172 22.818 6.049 6.573 4.684 10.276 12.438 13.843 20.887-31.013-7.608-62.707-12.868-94.499-15.661z"/></g></g></svg>