<svg id="Capa_1" enable-background="new 0 0 511.74 511.74" height="512" viewBox="0 0 511.74 511.74" width="512" xmlns="http://www.w3.org/2000/svg"><g><g><path d="m378.169 105.053h-108.012v-71.218h108.012c3.158 0 5.07 3.487 3.373 6.15l-17.406 27.309c-.836 1.311-.836 2.988 0 4.3l17.406 27.309c1.697 2.662-.216 6.15-3.373 6.15z" fill="#ff8087"/><path d="m272.968 202.683h-33.848v-183.348c0-4.418 3.582-8 8-8h17.848c4.418 0 8 3.582 8 8z" fill="#eef5ff"/><path d="m409.065 340.093c0-23.005 16.328-42.185 38.025-46.611 1.883-.384 3.257-2.005 3.257-3.927v-87.459c0-9.941-8.059-18-18-18h-305.956c-35.899 0-65 29.102-65 65v220.944h388.957v-79.408c0-1.922-1.374-3.543-3.257-3.927-21.697-4.427-38.026-23.607-38.026-46.612z" fill="#ffe17d"/><path d="m409.07 340.095c0 23 16.32 42.18 38.02 46.61 1.88.38 3.26 2 3.26 3.93v79.41h-25v-79.41c0-1.93-1.38-3.55-3.26-3.93-21.7-4.43-38.02-23.61-38.02-46.61 0-23.01 16.32-42.19 38.02-46.61 1.88-.39 3.26-2.01 3.26-3.93v-87.46c0-9.94-8.06-18-18-18h25c9.94 0 18 8.06 18 18v87.46c0 1.92-1.38 3.54-3.26 3.93-21.7 4.42-38.02 23.6-38.02 46.61z" fill="#ffd164"/><circle cx="276.753" cy="433.768" fill="#ffd164" r="37.807"/><path d="m496.239 500.4h-480.739c-4.418 0-8-3.582-8-8v-32c0-4.418 3.582-8 8-8h480.739c4.418 0 8 3.582 8 8v32c0 4.419-3.581 8-8 8z" fill="#ffe8c8"/><circle cx="169.304" cy="300.183" fill="#ffd164" r="51.652"/><circle cx="337.044" cy="274.837" fill="#ffd164" r="44.22"/><path d="m381.54 98.905c1.7 2.66-.21 6.15-3.37 6.15h-25c3.16 0 5.07-3.49 3.37-6.15l-17.4-27.31c-.84-1.31-.84-2.99 0-4.3l17.4-27.31c1.7-2.66-.21-6.15-3.37-6.15h25c3.16 0 5.07 3.49 3.37 6.15l-17.4 27.31c-.84 1.31-.84 2.99 0 4.3z" fill="#e6646e"/><path d="m504.24 460.405v32c0 4.41-3.58 8-8 8h-25c4.42 0 8-3.59 8-8v-32c0-4.42-3.58-8-8-8h25c4.42 0 8 3.58 8 8z" fill="#fdd9b4"/></g><g><path d="m496.24 444.9h-38.39v-54.27c0-5.444-3.9-10.184-9.261-11.269-18.554-3.787-32.02-20.299-32.02-39.261 0-18.968 13.466-35.484 32.005-39.269 5.375-1.086 9.275-5.827 9.275-11.271v-87.46c0-14.061-11.439-25.5-25.5-25.5h-151.879v-64.05h97.7c4.2 0 8.063-2.285 10.082-5.964 2.02-3.68 1.872-8.169-.388-11.718l-16.201-25.418 16.203-25.431c2.258-3.545 2.405-8.033.386-11.714-2.019-3.679-5.882-5.964-10.082-5.964h-97.7v-7c0-8.547-6.953-15.5-15.5-15.5h-17.85c-8.547 0-15.5 6.953-15.5 15.5v157.259h-105.23c-39.977 0-72.5 32.523-72.5 72.5v120.03c0 4.142 3.357 7.5 7.5 7.5s7.5-3.358 7.5-7.5v-120.03c0-31.706 25.794-57.5 57.5-57.5h305.961c5.79 0 10.5 4.71 10.5 10.5v84.664c-24.083 6.22-41.28 28.213-41.28 53.336 0 25.112 17.192 47.099 41.28 53.325v51.475h-122.188c.916-3.624 1.398-7.363 1.398-11.13 0-24.984-20.326-45.31-45.311-45.31-24.979 0-45.3 20.326-45.3 45.31 0 3.767.482 7.506 1.398 11.13h-163.958v-40.77c0-4.142-3.357-7.5-7.5-7.5s-7.5 3.358-7.5 7.5v40.77h-38.39c-8.547 0-15.5 6.953-15.5 15.5v32c0 8.547 6.953 15.5 15.5 15.5h409.83c4.143 0 7.5-3.358 7.5-7.5s-3.357-7.5-7.5-7.5h-409.83c-.275 0-.5-.224-.5-.5v-32c0-.276.225-.5.5-.5h480.74c.275 0 .5.224.5.5v32c0 .276-.225.5-.5.5h-35.91c-4.143 0-7.5 3.358-7.5 7.5s3.357 7.5 7.5 7.5h35.91c8.547 0 15.5-6.953 15.5-15.5v-32c0-8.547-6.953-15.5-15.5-15.5zm-124.453-403.56-13.961 21.912c-2.405 3.751-2.41 8.608-.011 12.379l13.971 21.919h-91.316v-56.21zm-125.167-22c0-.276.225-.5.5-.5h17.85c.275 0 .5.224.5.5v157.26h-18.85zm-.17 414.43c0-16.713 13.593-30.31 30.3-30.31 16.713 0 30.311 13.597 30.311 30.31 0 3.825-.73 7.606-2.119 11.13h-56.373c-1.388-3.524-2.119-7.305-2.119-11.13z"/><path d="m228.457 300.186c0-32.617-26.535-59.152-59.152-59.152s-59.152 26.536-59.152 59.152 26.535 59.152 59.152 59.152 59.152-26.536 59.152-59.152zm-103.305 0c0-24.346 19.807-44.152 44.152-44.152s44.152 19.807 44.152 44.152-19.807 44.152-44.152 44.152-44.152-19.807-44.152-44.152z"/><path d="m388.765 274.839c0-28.519-23.202-51.72-51.721-51.72s-51.72 23.202-51.72 51.72 23.201 51.72 51.72 51.72 51.721-23.202 51.721-51.72zm-88.441 0c0-20.248 16.473-36.72 36.72-36.72 20.248 0 36.721 16.473 36.721 36.72s-16.473 36.72-36.721 36.72c-20.247 0-36.72-16.473-36.72-36.72z"/></g></g></svg>