<svg id="Capa_1" enable-background="new 0 0 511.682 511.682" height="512" viewBox="0 0 511.682 511.682" width="512" xmlns="http://www.w3.org/2000/svg"><g><g><path d="m324.685 110.773-20.87 292.17h-230.64l-20.86-292.17z" fill="#ffe17d"/><path d="m324.685 110.773-20.87 292.17h-25l20.87-292.17z" fill="#ffd164"/><path d="m315.965 232.813-3.43 48.08h-248.07l-3.44-48.08z" fill="#eef5ff"/><circle cx="188.497" cy="256.857" fill="#ff8087" r="53.778"/><path d="m315.965 232.813-3.43 48.08h-25l3.43-48.08z" fill="#dfe9fb"/><path d="m461.775 421.744c-136.932 14.004-274.937 14.004-411.87 0-26.522-2.704-45.314-25.802-42.037-50.843 3.279-25.06 26.239-42.727 51.345-40.171 130.744 13.37 262.511 13.37 393.255 0 25.105-2.557 48.066 15.111 51.345 40.171 3.276 25.04-15.516 48.138-42.038 50.843z" fill="#ff8087"/><path d="m504.185 376.573c0 22.76-17.91 42.68-42.41 45.17-4.81.49-9.61.97-14.42 1.42 18.91-6.55 31.83-24.55 31.83-44.69 0-1.95-.12-3.92-.37-5.9-2.6-20.65-17.51-36.49-36.07-40.87 3.24-.32 6.48-.64 9.72-.97 25.11-2.56 48.07 15.11 51.35 40.17.25 1.9.37 3.79.37 5.67z" fill="#e6646e"/><path d="m301.875 29.479h-226.757c-3.847 0-7.15 2.739-7.862 6.519l-8.868 47.089h260.217l-8.868-47.089c-.712-3.78-4.014-6.519-7.862-6.519z" fill="#eef5ff"/><path d="m318.605 83.083h-25l-8.87-47.08c-.71-3.79-4.01-6.52-7.86-6.52h25c3.85 0 7.15 2.73 7.86 6.52z" fill="#dfe9fb"/><path d="m426.086 482.202h-340.492c-30.635 0-55.47-24.835-55.47-55.47 0-30.635 24.835-55.47 55.47-55.47h340.492c30.635 0 55.47 24.835 55.47 55.47 0 30.635-24.835 55.47-55.47 55.47z" fill="#ffe8c8"/><path d="m332.724 131.001h-288.455c-6.627 0-12-5.373-12-12v-35.957c0-6.627 5.373-12 12-12h288.455c6.627 0 12 5.373 12 12v35.956c0 6.628-5.372 12.001-12 12.001z" fill="#c4d7fb"/><path d="m481.555 426.733c0 15.31-6.21 29.18-16.24 39.22-10.04 10.04-23.91 16.25-39.23 16.25h-25c15.32 0 29.19-6.21 39.23-16.25 10.03-10.04 16.24-23.91 16.24-39.22 0-30.64-24.83-55.47-55.47-55.47h25c30.64 0 55.47 24.83 55.47 55.47z" fill="#fdd9b4"/><path d="m344.725 83.043v35.96c0 6.63-5.37 12-12 12h-25c6.63 0 12-5.37 12-12v-35.96c0-6.63-5.37-12-12-12h25c6.63 0 12 5.37 12 12z" fill="#a9c6f9"/><path d="m242.275 256.853c0 29.71-24.08 53.78-53.78 53.78-4.3 0-8.49-.51-12.5-1.46 23.67-5.63 41.28-26.91 41.28-52.32 0-25.4-17.61-46.68-41.28-52.31 4.01-.95 8.2-1.46 12.5-1.46 29.7 0 53.78 24.07 53.78 53.77z" fill="#e6646e"/></g><g><path d="m511.682 376.581c0-2.222-.146-4.46-.433-6.654-1.84-14.052-9.055-26.62-20.317-35.387-11.186-8.707-25.119-12.713-39.223-11.27-44.94 4.595-90.099 7.599-135.324 9.016l13.84-193.785h2.497c10.752 0 19.5-8.748 19.5-19.5v-35.96c0-10.752-8.748-19.5-19.5-19.5h-10.164l-5.448-28.924c-1.375-7.322-7.781-12.636-15.231-12.636h-226.76c-7.45 0-13.856 5.314-15.23 12.632l-5.448 28.928h-10.168c-10.752 0-19.5 8.748-19.5 19.5v35.96c0 10.752 8.748 19.5 19.5 19.5h2.506l13.199 184.77c-1.836-.192-3.717-.29-5.596-.29-27.249 0-50.44 20.182-53.946 46.947-2.55 19.497 6.229 38.478 22.593 49.725-.26 2.335-.406 4.695-.406 7.078 0 34.722 28.248 62.97 62.97 62.97h276.79c4.143 0 7.5-3.358 7.5-7.5s-3.357-7.5-7.5-7.5h-276.791c-26.45 0-47.97-21.519-47.97-47.97 0-12.809 4.991-24.854 14.054-33.917s21.107-14.053 33.916-14.053h340.5c26.451 0 47.971 21.52 47.971 47.97 0 12.815-4.991 24.864-14.051 33.924-9.066 9.058-21.113 14.046-33.92 14.046h-28.71c-4.143 0-7.5 3.358-7.5 7.5s3.357 7.5 7.5 7.5h28.71c16.811 0 32.622-6.546 44.524-18.437 11.896-11.896 18.446-27.711 18.446-44.533 0-2.393-.147-4.75-.408-7.074 14.323-9.877 23.028-25.947 23.028-43.076zm-436.561-51.83-2.597-36.35h63.461c10.733 17.802 30.254 29.735 52.514 29.735s41.781-11.933 52.514-29.735h63.469l-3.163 44.293c-75.497 1.777-151.131-.87-226.198-7.943zm230.433-51.35h-58.064c1.479-5.267 2.287-10.811 2.287-16.543 0-5.73-.808-11.272-2.286-16.537h60.424zm-70.776-16.543c0 25.518-20.761 46.278-46.278 46.278s-46.278-20.76-46.278-46.278 20.761-46.278 46.278-46.278 46.278 20.76 46.278 46.278zm-105.269 16.543h-58.056l-2.363-33.08h60.417c-1.478 5.265-2.286 10.806-2.286 16.537 0 5.732.808 11.277 2.288 16.543zm-89.736-154.4v-35.96c0-2.481 2.019-4.5 4.5-4.5h45.77c4.143 0 7.5-3.358 7.5-7.5s-3.357-7.5-7.5-7.5h-20.339l4.927-26.156c.044-.234.25-.404.489-.404h226.76c.235 0 .446.174.49.408l4.926 26.152h-182.254c-4.143 0-7.5 3.358-7.5 7.5s3.357 7.5 7.5 7.5h207.68c2.481 0 4.5 2.019 4.5 4.5v35.96c0 2.481-2.019 4.5-4.5 4.5h-288.449c-2.482 0-4.5-2.018-4.5-4.5zm275.415 19.5-6.201 86.82h-67.971c-10.732-17.806-30.255-29.742-52.518-29.742s-41.785 11.936-52.518 29.742h-67.962l-6.202-86.82zm110.904 225.26h-340.5c-16.815 0-32.628 6.551-44.523 18.447-6.211 6.211-10.949 13.496-14.074 21.428-8.766-8.169-13.244-19.841-11.686-31.761 2.531-19.323 19.329-33.894 39.073-33.894 1.363 0 2.725.07 4.067.211 130.979 13.394 263.806 13.392 394.783 0 21.074-2.151 40.431 12.96 43.144 33.682.203 1.55.306 3.134.306 4.707 0 10.262-4.456 20.011-12.019 27.073-9.227-23.335-31.994-39.893-58.571-39.893z"/></g></g></svg>