<svg id="Capa_1" enable-background="new 0 0 510.652 510.652" height="512" viewBox="0 0 510.652 510.652" width="512" xmlns="http://www.w3.org/2000/svg"><g><g><path d="m242.155 138.804c-8.338-7.596-18.287-12.115-28.54-13.721-1.099-.172-1.845-1.23-1.632-2.322 3.745-19.26-2.951-39.907-19.214-53.184-16.574-13.531-38.656-15.787-56.986-7.731-1.06.466-2.299-.086-2.665-1.185-3.371-10.114-9.712-19.378-18.9-26.369-23.119-17.59-55.363-14.386-74.559 7.417-20.734 23.549-17.62 59.378 6.466 79.042 17.184 14.029 40.288 15.938 58.993 6.8 2.998 10.361 9.055 19.952 18.043 27.29 8.414 6.869 18.25 10.82 28.293 12.007-4.643 19.829 1.939 41.475 18.777 55.222 24.113 19.686 59.894 15.535 78.8-9.567 16.966-22.525 13.97-54.707-6.876-73.699z" fill="#b4e6a0"/><path d="m249.03 212.5c-4.24 5.63-9.33 10.21-14.95 13.69 13.83-22.2 10.04-51.81-9.6-69.71-8.34-7.59-18.29-12.11-28.54-13.72-1.1-.17-1.85-1.23-1.64-2.32 3.75-19.26-2.95-39.91-19.21-53.19-16.57-13.53-38.66-15.78-56.99-7.73-1.06.47-2.29-.08-2.66-1.18-3.37-10.11-9.71-19.38-18.9-26.37-18.7-14.23-43.37-14.85-62.28-3.03 1.57-2.51 3.37-4.93 5.4-7.23 19.19-21.8 51.44-25.01 74.56-7.42 9.18 6.99 15.53 16.26 18.9 26.37.36 1.1 1.6 1.65 2.66 1.19 18.33-8.06 40.41-5.8 56.99 7.73 16.26 13.27 22.96 33.92 19.21 53.18-.21 1.09.54 2.15 1.63 2.32 10.26 1.61 20.21 6.13 28.54 13.72 20.85 19 23.85 51.18 6.88 73.7z" fill="#96d7a5"/><path d="m201.418 202.167-76.759 78.794 177.952 162.437 47.03-48.285c-4.689-7.821-4.473-18.246 3.234-26.318 2.6-2.724 6.082-4.529 9.873-5.257 7.119-1.368 11.951-.329 16.022 1.675l84.322-86.564c1.577-1.619 1.501-4.222-.169-5.745l-15.626-14.263c-1.521-1.388-3.819-1.364-5.374-.014-10.296 8.931-27.191 9.97-39.989-1.84-4.017-3.707-6.709-8.6-7.575-13.851-1.493-9.057.921-16.76 5.506-22.409 1.347-1.66 1.234-4.06-.345-5.501l-108.638-99.163c-1.594-1.455-4.056-1.383-5.562.163l-41.64 42.753c-1.351 1.387-1.509 3.538-.383 5.112 7.609 10.636 7.857 25.808-3.534 37.181-4.538 4.531-10.806 7.124-17.407 7.352-8.306.288-15.436-2.138-20.938-6.257z" fill="#ffe17d"/><g fill="#ffd164"><path d="m463.09 278.65-14.62 15c-.12-.89-.56-1.74-1.29-2.4l-15.91-14.36c-1.55-1.4-3.88-1.39-5.45-.04-10.4 8.89-27.52 9.85-40.56-2.04-4.09-3.73-6.84-8.64-7.74-13.91-1.56-9.08.85-16.78 5.47-22.42 1.36-1.65 1.23-4.06-.37-5.51l-110.63-99.85c-.66-.6-1.48-.95-2.31-1.03l15.64-16.06c1.51-1.55 3.97-1.62 5.56-.17l108.64 99.17c1.58 1.44 1.69 3.84.35 5.5-4.59 5.65-7 13.35-5.51 22.41.87 5.25 3.56 10.14 7.57 13.85 12.8 11.81 29.7 10.77 39.99 1.84 1.56-1.35 3.86-1.38 5.38.01l15.62 14.26c1.67 1.53 1.75 4.13.17 5.75z"/><circle cx="333.002" cy="311.921" r="35.217"/><circle cx="295.318" cy="205.218" r="24.47"/></g><path d="m104.937 82.234 36.335-57.382c1.219-1.925 3.816-2.471 5.666-1.142 30.599 21.972 39.251 64.859 18.86 97.062-21.141 33.387-66.012 43.464-99.399 22.323z" fill="#ff8087"/><path d="m165.8 120.77c-5.22 8.24-11.88 15.06-19.46 20.34.62-.87 1.21-1.76 1.78-2.66 20.15-31.83 11.94-74.1-17.81-96.28l10.96-17.32c1.22-1.92 3.82-2.47 5.67-1.14 30.6 21.97 39.25 64.86 18.86 97.06z" fill="#e6646e"/><path d="m434.84 324.04c-36.79 0-66.62 29.82-66.62 66.62 0 36.79 29.83 66.62 66.62 66.62s66.62-29.83 66.62-66.62c0-36.8-29.83-66.62-66.62-66.62zm0 106.36c-21.95 0-39.75-17.79-39.75-39.74 0-21.96 17.8-39.75 39.75-39.75s39.75 17.79 39.75 39.75c0 21.95-17.8 39.74-39.75 39.74z" fill="#eef5ff"/><path d="m485.121 487.691h-459.626c-9.941 0-18-8.059-18-18v-420.144c0-15.65 18.593-23.845 30.144-13.286l459.626 420.144c12.126 11.085 4.284 31.286-12.144 31.286z" fill="#ffe8c8"/><path d="m485.47 487.68c.12-4.82-1.68-9.76-5.88-13.6l-459.63-420.14c-3.71-3.39-8.15-4.85-12.46-4.74.27-15.42 18.68-23.42 30.14-12.94l459.62 420.15c12.04 11 4.4 30.99-11.79 31.27z" fill="#fdd9b4"/></g><g><path d="m424.01 480.182h-398.51c-5.79 0-10.5-4.71-10.5-10.5v-330.17c0-4.142-3.358-7.5-7.5-7.5s-7.5 3.358-7.5 7.5v330.17c0 14.061 11.439 25.5 25.5 25.5h398.51c4.142 0 7.5-3.358 7.5-7.5s-3.358-7.5-7.5-7.5z"/><path d="m502.33 450.857-12.062-11.025c11.957-13.488 18.691-31.003 18.691-49.189 0-40.273-32.291-73.122-72.339-74.075l31.863-32.715c2.157-2.225 3.338-5.276 3.241-8.372-.096-3.09-1.462-6.055-3.741-8.129l-15.625-14.255c-4.315-3.945-10.916-4.006-15.344-.151-7.215 6.256-19.833 7.687-29.99-1.685-2.803-2.587-4.674-5.984-5.266-9.556-1.313-7.98 1.416-13.361 3.928-16.46 3.855-4.741 3.377-11.663-1.103-15.771l-108.64-99.16c-4.627-4.223-11.658-4.01-15.989.467l-27.338 28.067c-1.68-1.97-3.481-3.843-5.407-5.598-7.756-7.068-17.032-12.024-27.048-14.504 2.198-20.888-6.201-41.566-22.651-54.993-5.622-4.59-11.883-8.103-18.641-10.5-5.539-14.279-15.026-26.651-27.576-35.665-2.541-1.813-5.761-2.507-8.832-1.905-3.094.607-5.836 2.485-7.52 5.147l-8.873 14.01c-2.253-2.345-4.688-4.53-7.309-6.525-23.234-17.677-55.279-16.759-77.344 1.311-7.45-5.996-17.338-7.331-26.204-3.424-9.381 4.134-15.211 13.074-15.211 23.33v54.98c0 4.142 3.358 7.5 7.5 7.5s7.5-3.358 7.5-7.5v-54.98c0-4.287 2.341-7.877 6.262-9.605 3.921-1.73 8.152-1.033 11.317 1.861l459.633 420.142c4.92 4.494 3.313 9.972 2.703 11.544-.611 1.574-3.122 6.708-9.795 6.708h-26.11c-4.142 0-7.5 3.358-7.5 7.5s3.358 7.5 7.5 7.5h26.11c10.608 0 19.942-6.392 23.78-16.283 3.835-9.886 1.256-20.894-6.57-28.042zm-8.37-60.215c0 14.431-5.32 28.329-14.766 39.066l-8.755-8.003c7.476-8.535 11.651-19.469 11.651-31.063 0-26.054-21.196-47.25-47.25-47.25-13.056 0-25.298 5.334-34.124 14.581l-8.772-8.018c11.132-11.787 26.427-18.433 42.895-18.433 32.6 0 59.121 26.521 59.121 59.12zm-82.165-22.542c6.006-6.159 14.255-9.707 23.045-9.707 17.783 0 32.25 14.467 32.25 32.25 0 7.793-2.768 15.149-7.729 20.937zm-123.46-244.424 103.787 94.73c-4.874 7.35-6.704 16.366-5.161 25.743 1.136 6.856 4.649 13.297 9.893 18.136 15.585 14.38 35.101 12.889 47.587 3.892l10.759 9.816-42.821 43.966c-11.954 3.768-22.767 10.547-31.509 19.873l-9.647-8.818c2.955-5.897 4.496-12.393 4.496-19.102 0-23.556-19.16-42.72-42.71-42.72-7.969 0-15.733 2.24-22.439 6.381l-70.973-64.875c1.982-1.251 3.83-2.691 5.473-4.33 12.286-12.275 14.549-30.159 5.953-44.386zm34.025 162.673c3.352-1.396 6.963-2.157 10.65-2.157 15.279 0 27.71 12.435 27.71 27.72 0 2.863-.437 5.663-1.276 8.334zm-117.725-165.076c-.5 2.501.047 5.139 1.5 7.238 1.458 2.105 3.746 3.55 6.327 3.972 9.188 1.434 17.709 5.533 24.646 11.854 1.808 1.646 3.46 3.435 4.976 5.325l-3.755 3.855c-3.889 3.973-4.373 10.157-1.129 14.732 4.771 6.664 6.917 17.867-2.727 27.504-1.837 1.832-4.161 3.234-6.727 4.113l-66.883-61.136c4.272-4.203 8.055-8.866 11.273-13.954 9.916-15.665 13.93-34.14 11.552-52.55 1.493.965 2.944 2.009 4.339 3.148 13.589 11.089 19.95 28.693 16.608 45.899zm-59.062-89.193c25.243 20.453 31.47 56.899 13.888 84.674-2.745 4.34-5.995 8.298-9.685 11.839l-41.375-37.821zm-35.896 8.17c3.006 2.288 5.695 4.893 8.049 7.765l-20.57 32.478-44.467-40.646c16.67-12.369 39.946-12.563 56.988.403z"/><path d="m295.321 237.174c17.628 0 31.97-14.342 31.97-31.97s-14.342-31.97-31.97-31.97-31.97 14.341-31.97 31.97 14.342 31.97 31.97 31.97zm0-48.94c9.357 0 16.97 7.613 16.97 16.97s-7.613 16.97-16.97 16.97-16.97-7.613-16.97-16.97 7.613-16.97 16.97-16.97z"/></g></g></svg>