<svg id="Capa_1" enable-background="new 0 0 511.58 511.58" height="512" viewBox="0 0 511.58 511.58" width="512" xmlns="http://www.w3.org/2000/svg"><g><g><path d="m278.04 86.566c-17.093 13.341-20.135 38.013-6.794 55.106s38.013 20.135 55.106 6.794 46.458-58.558 33.117-75.651c-13.342-17.093-64.336.41-81.429 13.751z" fill="#b4e6a0"/><circle cx="255.79" cy="124.657" fill="#ff8087" r="40.369"/><path d="m27.768 167.878h456.043v251.584h-456.043z" fill="#ff8087"/><path d="m296.155 124.657c0 22.3-18.07 40.37-40.37 40.37-4.36 0-8.56-.69-12.49-1.98 16.17-5.26 27.86-20.46 27.86-38.39s-11.69-33.13-27.86-38.39c3.93-1.29 8.13-1.98 12.49-1.98 22.3 0 40.37 18.08 40.37 40.37z" fill="#e6646e"/><path d="m326.355 148.467c-10.78 8.41-24.57 10.31-36.63 6.27 4.09-1.38 8.03-3.46 11.63-6.27 17.09-13.34 46.45-58.56 33.11-75.65-2.12-2.71-5.19-4.56-8.93-5.67 14.56-2.7 27.99-1.95 33.93 5.67 13.34 17.09-16.02 62.31-33.11 75.65z" fill="#96d7a5"/><path d="m458.815 167.877h25v251.59h-25z" fill="#e6646e"/><g fill="#ffe8c8"><path d="m454.414 199.296c-20.3 0-31.715-7.639-39.27-12.693-4.967-3.324-5.863-3.923-10.393-3.923-4.528 0-5.423.599-10.389 3.922-7.553 5.054-18.967 12.693-39.267 12.693s-31.714-7.639-39.267-12.693c-4.966-3.323-5.861-3.922-10.39-3.922-4.527 0-5.423.599-10.388 3.922-7.553 5.055-18.967 12.694-39.267 12.694s-31.714-7.639-39.266-12.694c-4.965-3.323-5.861-3.922-10.388-3.922-4.528 0-5.424.599-10.389 3.922-7.553 5.054-18.968 12.693-39.268 12.693-20.299 0-31.713-7.639-39.266-12.693-4.966-3.323-5.861-3.922-10.389-3.922s-5.423.599-10.389 3.922c-7.553 5.054-18.967 12.693-39.267 12.693s-31.714-7.639-39.267-12.693c-6.494-4.344-10.391-11.64-10.391-19.452v-6.133c0-18.463 20.417-29.701 35.965-19.744 1.18.756 2.277 1.49 3.302 2.176 4.966 3.323 5.861 3.922 10.389 3.922s5.424-.599 10.389-3.922c7.553-5.054 18.967-12.693 39.267-12.693s31.714 7.639 39.267 12.694c4.965 3.323 5.861 3.922 10.388 3.922 4.529 0 5.424-.599 10.39-3.922 7.553-5.055 18.967-12.693 39.267-12.693s31.714 7.639 39.266 12.694c4.965 3.323 5.861 3.922 10.388 3.922 4.528 0 5.424-.599 10.389-3.922 7.553-5.054 18.967-12.693 39.266-12.693 20.3 0 31.715 7.639 39.268 12.693 4.965 3.323 5.861 3.922 10.389 3.922s5.424-.599 10.389-3.922c7.553-5.054 18.967-12.693 39.267-12.693 20.301 0 31.716 7.638 39.27 12.693 4.967 3.324 5.862 3.923 10.393 3.923 4.53 0 5.426-.599 10.393-3.923 1.023-.684 2.117-1.416 3.293-2.17 15.553-9.961 35.976 1.282 35.976 19.751v6.113c0 7.814-3.898 15.113-10.393 19.459-7.552 5.053-18.966 12.692-39.267 12.692z"/><path d="m454.414 331.082c-20.3 0-31.715-7.638-39.27-12.693-4.967-3.324-5.863-3.923-10.393-3.923-4.528 0-5.423.599-10.389 3.922-7.553 5.054-18.967 12.693-39.267 12.693s-31.714-7.638-39.267-12.693c-4.966-3.323-5.861-3.922-10.39-3.922-4.527 0-5.423.599-10.388 3.922-7.553 5.055-18.967 12.694-39.267 12.694s-31.714-7.639-39.266-12.694c-4.965-3.323-5.861-3.922-10.388-3.922-4.528 0-5.424.599-10.389 3.922-7.553 5.054-18.968 12.693-39.268 12.693-20.299 0-31.713-7.639-39.266-12.693-4.966-3.323-5.861-3.922-10.389-3.922s-5.423.599-10.389 3.922c-7.553 5.054-18.967 12.693-39.267 12.693s-31.714-7.639-39.267-12.693c-6.492-4.344-10.389-11.641-10.389-19.452v-6.133c0-18.463 20.417-29.701 35.965-19.744 1.18.756 2.277 1.49 3.302 2.176 4.966 3.323 5.861 3.922 10.389 3.922s5.424-.599 10.389-3.922c7.553-5.054 18.967-12.693 39.267-12.693s31.714 7.639 39.267 12.694c4.965 3.323 5.861 3.922 10.388 3.922 4.529 0 5.424-.599 10.39-3.922 7.553-5.055 18.967-12.693 39.267-12.693s31.714 7.639 39.266 12.694c4.965 3.323 5.861 3.922 10.388 3.922 4.528 0 5.424-.599 10.389-3.922 7.553-5.054 18.967-12.693 39.266-12.693 20.3 0 31.715 7.639 39.268 12.693 4.965 3.323 5.861 3.922 10.389 3.922s5.424-.599 10.389-3.922c7.553-5.054 18.967-12.693 39.267-12.693 20.301 0 31.716 7.638 39.27 12.693 4.967 3.324 5.862 3.923 10.393 3.923 4.53 0 5.426-.599 10.393-3.923 1.023-.684 2.117-1.416 3.293-2.17 15.553-9.961 35.976 1.282 35.976 19.751v6.113c0 7.814-3.898 15.113-10.393 19.459-7.554 5.054-18.968 12.692-39.269 12.692z"/><path d="m492.077 394.723h-472.574c-6.627 0-12 5.373-12 12v27.13c0 6.627 5.373 12 12 12h472.573c6.627 0 12-5.373 12-12v-27.13c.001-6.627-5.372-12-11.999-12z"/></g><path d="m504.075 406.727v27.13c0 6.62-5.37 12-12 12h-25c6.63 0 12-5.38 12-12v-27.13c0-6.63-5.37-12-12-12h25c6.63 0 12 5.37 12 12z" fill="#fdd9b4"/><path d="m504.075 292.817v6.11c0 7.82-3.9 15.12-10.39 19.46-3.78 2.53-8.52 5.7-14.86 8.25-6.22 2.5-14 4.39-23.91 4.44 5.8-2.52 10.21-5.54 13.77-7.98 6.49-4.45 10.39-11.94 10.39-19.95v-6.26c0-10.22-5.94-18.28-13.86-21.92.9-.61 1.87-1.25 2.89-1.9 15.55-9.96 35.97 1.28 35.97 19.75z" fill="#fdd9b4"/><path d="m504.075 161.027v6.12c0 7.81-3.9 15.11-10.39 19.46-3.78 2.52-8.52 5.7-14.86 8.24-6.33 2.54-14.26 4.45-24.41 4.45-2.78 0-5.39-.14-7.84-.41 2.63-.69 5.04-1.52 7.25-2.43 6.34-2.61 11.08-5.86 14.86-8.45 6.49-4.46 10.39-11.94 10.39-19.95v-6.27c0-8.99-4.61-16.31-11.11-20.42.05-.03.09-.06.14-.09 15.55-9.96 35.97 1.28 35.97 19.75z" fill="#fdd9b4"/></g><path d="m497.851 192.805c8.597-5.753 13.729-15.358 13.729-25.693v-6.11c0-11.482-6.02-21.629-16.104-27.145-10.048-5.498-21.796-5.097-31.436 1.079-1.104.71-2.131 1.396-3.098 2.041l-.307.205c-3.971 2.661-3.971 2.661-6.225 2.661-2.245 0-2.245 0-6.215-2.66-5.09-3.411-12.783-8.565-23.991-11.539-4.005-1.064-8.11 1.322-9.172 5.326-1.063 4.004 1.322 8.11 5.326 9.172 8.787 2.331 14.721 6.307 19.506 9.513 5.316 3.562 7.742 5.188 14.547 5.188 6.815 0 9.247-1.629 14.561-5.19l.296-.197c.903-.602 1.862-1.243 2.878-1.897 4.938-3.163 10.969-3.366 16.133-.541 5.198 2.843 8.302 8.072 8.302 13.985v6.11c0 5.319-2.644 10.264-7.08 13.232-3.48 2.336-7.811 5.243-13.459 7.506-6.57 2.632-13.646 3.912-21.631 3.912-17.999 0-27.868-6.593-35.09-11.417-5.312-3.565-7.736-5.193-14.57-5.193-6.819 0-9.246 1.626-14.572 5.194-7.202 4.818-17.066 11.416-35.078 11.416-18.022 0-27.892-6.603-35.096-11.421-5.318-3.563-7.746-5.189-14.564-5.189s-9.246 1.626-14.561 5.187c-7.207 4.821-17.077 11.423-35.099 11.423-18.013 0-27.876-6.598-35.086-11.421-5.318-3.563-7.746-5.189-14.564-5.189s-9.246 1.626-14.561 5.187c-7.207 4.821-17.078 11.423-35.099 11.423-17.999 0-27.868-6.593-35.09-11.417-5.312-3.565-7.735-5.193-14.561-5.193-6.834 0-9.258 1.627-14.585 5.203-7.206 4.814-17.076 11.407-35.075 11.407s-27.868-6.593-35.097-11.421c-2.16-1.447-3.955-3.432-5.192-5.741-1.224-2.284-1.871-4.87-1.871-7.478v-6.14c0-5.907 3.1-11.128 8.292-13.969 5.161-2.823 11.193-2.619 16.155.558.983.625 1.908 1.243 2.774 1.821l.393.262c5.316 3.562 7.742 5.188 14.547 5.188 6.806 0 9.232-1.626 14.561-5.197 7.207-4.821 17.078-11.423 35.099-11.423 18.031 0 27.888 6.606 35.118 11.452 5.311 3.548 7.735 5.167 14.533 5.167 6.806 0 9.232-1.626 14.561-5.197 7.207-4.821 17.078-11.423 35.099-11.423 18.018 0 27.887 6.606 35.098 11.432 5.32 3.562 7.749 5.188 14.552 5.188 6.821 0 9.249-1.63 14.585-5.212 7.206-4.814 17.076-11.407 35.075-11.407s27.868 6.593 35.089 11.417c5.321 3.573 7.75 5.203 14.571 5.203 6.811 0 9.24-1.63 14.615-5.239 4.786-3.194 10.743-7.169 19.474-9.468 4.006-1.055 6.398-5.157 5.344-9.162-1.055-4.006-5.16-6.4-9.162-5.344-11.154 2.937-18.568 7.884-23.982 11.497-.006.004-.084.056-.09.06-3.957 2.656-3.957 2.656-6.199 2.656-2.253 0-2.253 0-6.253-2.686-.359-.24-.742-.494-1.123-.748 15.656-20.608 30.656-51.484 17.784-68.082-9.931-12.807-30.998-11.079-46.922-7.372-16.844 3.92-34.781 11.668-44.791 19.324-5.562-2.266-11.637-3.526-18.004-3.526-25.941 0-47.113 20.745-47.836 46.514-.61-.013-1.2-.044-1.824-.044-22.575 0-35.635 8.735-43.46 13.97-3.955 2.65-3.955 2.65-6.199 2.65-2.248 0-2.248 0-6.214-2.65-7.796-5.225-20.843-13.97-43.436-13.97-22.575 0-35.635 8.735-43.46 13.97-3.955 2.65-3.955 2.65-6.199 2.65s-2.245 0-6.229-2.669l-.382-.255c-.954-.637-1.973-1.316-3.033-1.99-9.63-6.168-21.377-6.57-31.423-1.073-10.082 5.51-16.098 15.651-16.098 27.126v6.14c0 5.071 1.262 10.107 3.649 14.562 2.393 4.466 5.875 8.312 10.104 11.144 1.853 1.238 4.014 2.675 6.517 4.145v66.766c-1.418.53-2.816 1.158-4.181 1.905-10.074 5.514-16.089 15.655-16.089 27.128v6.13c0 5.065 1.261 10.102 3.649 14.572 2.388 4.457 5.869 8.298 10.074 11.114 1.86 1.245 4.031 2.692 6.546 4.171v58.433h-.769c-10.752 0-19.5 8.748-19.5 19.5v27.13c0 10.752 8.748 19.5 19.5 19.5h35.76c4.142 0 7.5-3.358 7.5-7.5s-3.358-7.5-7.5-7.5h-35.76c-2.481 0-4.5-2.019-4.5-4.5v-27.13c0-2.481 2.019-4.5 4.5-4.5h472.58c2.481 0 4.5 2.019 4.5 4.5v27.13c0 2.481-2.019 4.5-4.5 4.5h-401.82c-4.142 0-7.5 3.358-7.5 7.5s3.358 7.5 7.5 7.5h401.82c10.752 0 19.5-8.748 19.5-19.5v-27.13c0-10.752-8.748-19.5-19.5-19.5h-.77v-58.43c2.526-1.488 4.7-2.941 6.535-4.172 8.6-5.743 13.735-15.35 13.735-25.697v-6.11c0-11.479-6.018-21.623-16.097-27.137-1.362-.745-2.758-1.372-4.173-1.901v-66.765c2.533-1.491 4.706-2.943 6.541-4.175zm-144.198-115.287c5.891 7.595-3.135 31.233-19.152 51.494-7.334-3.198-16.782-5.79-29.061-5.79-.621 0-1.208.031-1.814.044-.381-13.608-6.46-25.813-15.942-34.303 19.541-11.856 57.965-21.768 65.969-11.445zm-130.733 47.104c0-18.125 14.746-32.87 32.87-32.87s32.87 14.746 32.87 32.87c0 .134-.007.267-.008.401-12.644 2.829-21.016 8.39-26.663 12.162-3.957 2.656-3.957 2.656-6.209 2.656-2.246 0-2.246 0-6.214-2.656-5.617-3.759-13.983-9.327-26.638-12.16-.001-.134-.008-.268-.008-.403zm-165.76 82.14c22.548 0 35.606-8.723 43.45-13.963 3.943-2.647 3.943-2.647 6.209-2.647 2.257 0 2.257 0 6.244 2.676 7.801 5.211 20.858 13.934 43.407 13.934 22.575 0 35.635-8.735 43.444-13.959 3.957-2.651 3.957-2.651 6.215-2.651s2.259 0 6.232 2.662c7.799 5.217 20.852 13.948 43.418 13.948 22.576 0 35.636-8.736 43.444-13.959 3.957-2.651 3.957-2.651 6.216-2.651s2.259 0 6.221 2.654c7.803 5.22 20.862 13.956 43.439 13.956 22.566 0 35.619-8.731 43.434-13.959 3.957-2.651 3.957-2.651 6.216-2.651 2.267 0 2.267 0 6.253 2.676 7.801 5.211 20.858 13.934 43.407 13.934 7.865 0 15.077-1.041 21.9-3.133v58.487c-4.255.619-8.414 2.14-12.232 4.586-.988.628-1.916 1.249-2.795 1.837l-.638.427c-3.978 2.657-3.978 2.657-6.234 2.657-2.247 0-2.247 0-6.221-2.654-7.803-5.22-20.863-13.956-43.439-13.956-22.548 0-35.605 8.723-43.442 13.958-3.963 2.653-3.963 2.653-6.208 2.653-2.255 0-2.255 0-6.254-2.677-7.801-5.211-20.858-13.934-43.406-13.934s-35.605 8.723-43.442 13.958c-3.963 2.653-3.963 2.653-6.218 2.653-2.246 0-2.246 0-6.245-2.677-7.801-5.211-20.858-13.934-43.406-13.934-22.575 0-35.634 8.735-43.463 13.972-3.95 2.639-3.95 2.639-6.197 2.639-2.248 0-2.248 0-6.233-2.662-7.798-5.217-20.851-13.948-43.417-13.948-22.575 0-35.634 8.735-43.463 13.972-3.95 2.639-3.95 2.639-6.197 2.639s-2.247 0-6.186-2.631c-1.064-.72-2.212-1.482-3.461-2.287-3.826-2.448-7.988-3.971-12.243-4.591v-58.486c6.076 1.858 13.288 3.132 21.891 3.132zm439.42 86.02v6.11c0 5.326-2.641 10.269-7.079 13.232-3.68 2.47-7.852 5.269-13.46 7.516-6.57 2.632-13.646 3.912-21.631 3.912-18.018 0-27.887-6.606-35.098-11.432-5.321-3.562-7.75-5.188-14.563-5.188-6.797 0-9.221 1.619-14.613 5.222-4.573 3.061-10.263 6.87-18.438 9.207-3.982 1.138-6.288 5.29-5.149 9.272 1.138 3.982 5.289 6.29 9.272 5.149 10.439-2.984 17.502-7.712 22.729-11.21 3.952-2.64 3.952-2.64 6.2-2.64 2.256 0 2.256 0 6.224 2.656 7.803 5.222 20.862 13.963 43.437 13.963 7.865 0 15.077-1.041 21.9-3.133v51.773h-441.041v-51.774c6.075 1.86 13.288 3.134 21.89 3.134 22.574 0 35.634-8.741 43.442-13.967 3.962-2.652 3.962-2.652 6.218-2.652 2.246 0 2.246 0 6.214 2.656 7.803 5.222 20.862 13.963 43.437 13.963 22.601 0 35.649-8.745 43.46-13.979 3.952-2.64 3.952-2.64 6.199-2.64s2.248 0 6.214 2.65c7.796 5.225 20.843 13.97 43.436 13.97 22.602 0 35.649-8.745 43.46-13.979 3.952-2.64 3.952-2.64 6.2-2.64s2.248 0 6.211 2.647c5.331 3.578 13.388 8.984 25.337 11.89 4.024.98 8.081-1.491 9.06-5.516s-1.491-8.081-5.516-9.06c-9.354-2.274-15.546-6.431-20.562-9.796-5.31-3.547-7.733-5.166-14.53-5.166s-9.221 1.619-14.566 5.19c-7.197 4.824-17.054 11.43-35.094 11.43-18.031 0-27.888-6.606-35.12-11.454-5.31-3.547-7.733-5.166-14.53-5.166s-9.221 1.62-14.565 5.189c-7.198 4.824-17.055 11.43-35.095 11.43-18.018 0-27.887-6.606-35.098-11.432-5.321-3.562-7.75-5.188-14.553-5.188-6.813 0-9.241 1.625-14.566 5.19-7.207 4.824-17.076 11.43-35.094 11.43s-27.887-6.606-35.097-11.432c-2.165-1.45-3.96-3.431-5.188-5.723-1.226-2.294-1.874-4.886-1.874-7.494v-6.13c0-5.906 3.1-11.128 8.291-13.97 5.163-2.825 11.195-2.625 16.118.525 1.128.727 2.181 1.425 3.224 2.13 5.309 3.546 7.731 5.164 14.527 5.164s9.219-1.619 14.562-5.188c7.207-4.821 17.077-11.423 35.098-11.423 18.012 0 27.875 6.598 35.121 11.445 5.31 3.547 7.732 5.166 14.529 5.166 6.796 0 9.22-1.619 14.562-5.188 7.207-4.821 17.077-11.423 35.098-11.423 17.999 0 27.868 6.593 35.098 11.423 5.321 3.562 7.75 5.187 14.552 5.187 6.812 0 9.24-1.625 14.585-5.204 7.207-4.814 17.076-11.407 35.074-11.407s27.867 6.593 35.098 11.423c5.321 3.562 7.75 5.187 14.562 5.187 6.802 0 9.23-1.625 14.576-5.204 7.207-4.814 17.076-11.407 35.074-11.407 18.021 0 27.892 6.603 35.133 11.446 5.309 3.546 7.731 5.164 14.527 5.164 6.806 0 9.237-1.625 14.561-5.18l.657-.439c.785-.525 1.613-1.081 2.518-1.656 4.94-3.164 10.973-3.368 16.139-.542 5.195 2.846 8.296 8.071 8.296 13.981z"/></g></svg>