<svg id="Capa_1" enable-background="new 0 0 511.089 511.089" height="512" viewBox="0 0 511.089 511.089" width="512" xmlns="http://www.w3.org/2000/svg"><g><g><path d="m381.477 99.86 20.09-40.845-45.965-22.608-20.09 40.845c-9.257 18.822-25.994 32.891-46.126 38.775-20.133 5.884-36.869 19.953-46.126 38.775l-59.326 120.619 133.105 65.468 59.326-120.619c9.257-18.822 10.185-40.666 2.557-60.205-7.63-19.539-6.703-41.384 2.555-60.205z" fill="#b4e6a0"/><path d="m378.923 160.068c7.63 19.54 6.7 41.38-2.56 60.2l-59.33 120.62-22.43-11.03 59.33-120.62c9.25-18.82 10.18-40.67 2.55-60.21-3.42-8.76-5.12-17.99-5.12-27.2 0-11.32 2.57-22.62 7.68-33l20.09-40.85 22.43 11.04-20.09 40.84c-5.1 10.38-7.67 21.68-7.67 33.01 0 9.21 1.7 18.44 5.12 27.2z" fill="#96d7a5"/><path d="m401.949 83.873-66.272-32.596c-3.965-1.95-5.598-6.745-3.648-10.709l14.065-28.596c1.95-3.965 6.745-5.598 10.71-3.648l66.272 32.596c3.965 1.95 5.598 6.745 3.648 10.709l-14.065 28.596c-1.95 3.965-6.745 5.598-10.71 3.648z" fill="#aa9ea9"/><circle cx="310.396" cy="193.781" fill="#eef5ff" r="30.454"/><path d="m337.723 207.218c-6.95 14.14-23.39 20.48-37.84 15.15 7.1-2.6 13.25-7.83 16.84-15.15 7.42-15.09 1.21-33.34-13.89-40.76-.97-.48-1.95-.9-2.94-1.26 7.54-2.77 16.16-2.57 23.94 1.26 15.1 7.42 21.31 25.67 13.89 40.76z" fill="#dfe9fb"/><path d="m369.214 503.586h-226.558c-6.035 0-11.13-4.481-11.902-10.467l-33.689-261.475h317.739l-33.689 261.476c-.771 5.985-5.867 10.466-11.901 10.466z" fill="#ff8087"/><path d="m414.803 231.648-33.69 261.47c-.77 5.99-5.86 10.47-11.9 10.47h-25c6.04 0 11.13-4.48 11.9-10.47l33.69-261.47z" fill="#e6646e"/><path d="m420.022 269.013h-328.957c-6.627 0-12-5.373-12-12v-42.166c0-6.627 5.373-12 12-12h328.957c6.627 0 12 5.373 12 12v42.166c0 6.628-5.373 12-12 12z" fill="#aa9ea9"/><path d="m271.586 202.847v133.57c0 6.627-5.373 12-12 12h-102.26c-6.627 0-12-5.373-12-12v-133.57z" fill="#eef5ff"/><path d="m271.583 202.848v133.57c0 6.63-5.37 12-12 12h-25c6.63 0 12-5.37 12-12v-133.57z" fill="#dfe9fb"/><g fill="#9b8e99"><path d="m432.023 214.848v42.16c0 6.63-5.37 12-12 12h-25c6.63 0 12-5.37 12-12v-42.16c0-6.63-5.37-12-12-12h25c6.63 0 12 5.37 12 12z"/><path d="m426.723 51.628-14.06 28.6c-1.95 3.96-6.75 5.59-10.71 3.64l-22.3-10.96c3.94 1.84 8.64.2 10.57-3.72l14.07-28.59c1.95-3.97.31-8.76-3.65-10.71l22.43 11.03c3.97 1.95 5.6 6.75 3.65 10.71z"/></g></g><path d="m420.024 195.348h-28.878c1.276-12.871-.493-25.851-5.236-38.007-3.057-7.83-4.606-16.063-4.606-24.473 0-10.235 2.387-20.502 6.9-29.691l7.009-14.254 3.426 1.685h.001c2.194 1.079 4.521 1.589 6.815 1.589 5.726 0 11.241-3.183 13.934-8.658l14.066-28.597c3.771-7.67.6-16.978-7.068-20.749l-66.272-32.594c-3.715-1.827-7.921-2.097-11.839-.764-3.92 1.335-7.085 4.117-8.91 7.832l-14.065 28.596c-1.828 3.715-2.1 7.919-.765 11.838s4.116 7.084 7.831 8.912l3.427 1.685-7.01 14.25c-8.311 16.891-23.438 29.605-41.504 34.882-11.004 3.216-21.05 8.597-29.863 15.999-8.795 7.396-15.825 16.369-20.893 26.669l-21.569 43.851h-123.891c-10.752 0-19.5 8.748-19.5 19.5v42.17c0 10.752 8.748 19.5 19.5 19.5h4.215l28.037 217.568c1.248 9.693 9.562 17.002 19.338 17.002h19.1c4.142 0 7.5-3.358 7.5-7.5s-3.358-7.5-7.5-7.5h-19.1c-2.256 0-4.174-1.684-4.461-3.918l-27.79-215.651h27.424v59.903c0 10.752 8.748 19.5 19.5 19.5h102.26c10.752 0 19.5-8.748 19.5-19.5v-59.903h49.248c4.143 0 7.5-3.358 7.5-7.5s-3.357-7.5-7.5-7.5h-49.248v-51.17h140.938c2.481 0 4.5 2.019 4.5 4.5v42.17c0 2.481-2.019 4.5-4.5 4.5h-56.69c-4.143 0-7.5 3.358-7.5 7.5s3.357 7.5 7.5 7.5h38.132l-27.79 215.651c-.288 2.234-2.206 3.918-4.462 3.918h-172.46c-4.142 0-7.5 3.358-7.5 7.5s3.358 7.5 7.5 7.5h172.46c9.776 0 18.09-7.309 19.339-17.001l28.037-217.568h3.435c10.752 0 19.5-8.748 19.5-19.5v-42.17c-.002-10.754-8.75-19.502-19.502-19.502zm-81.264-151.465 14.066-28.597c.022-.046.091-.185.286-.252.197-.066.336.002.382.025l66.272 32.596c.247.122.35.422.229.669l-14.065 28.596c-.122.247-.422.351-.671.228h.001l-66.271-32.596c-.046-.022-.187-.091-.253-.287-.067-.196.001-.336.024-.382zm-88.777 114.236c4.144-8.423 9.894-15.761 17.084-21.807 7.208-6.053 15.424-10.456 24.419-13.084 22.094-6.454 40.594-22.001 50.757-42.659l7.01-14.251 32.5 15.985-7.011 14.258c-5.521 11.237-8.438 23.792-8.438 36.307 0 10.283 1.896 20.352 5.633 29.926 4.059 10.404 5.445 21.546 4.111 32.554h-27.748c.546-14.655-7.534-28.929-21.156-35.62-9.098-4.474-19.392-5.136-28.983-1.869-9.598 3.269-17.345 10.081-21.814 19.176-2.835 5.757-4.131 12.035-3.87 18.313h-40.804zm37.532 37.229c-.273-4.002.483-8.021 2.291-11.692 2.704-5.502 7.389-9.622 13.19-11.598 5.804-1.977 12.028-1.574 17.531 1.132 8.432 4.142 13.335 13.084 12.746 22.158zm-196.451 66.171c-2.481 0-4.5-2.019-4.5-4.5v-42.17c0-2.481 2.019-4.5 4.5-4.5h46.762v51.17zm173.022 74.903c0 2.481-2.019 4.5-4.5 4.5h-102.26c-2.481 0-4.5-2.019-4.5-4.5v-126.074h111.26z"/></g></svg>