<svg id="Capa_1" enable-background="new 0 0 510.914 510.914" height="512" viewBox="0 0 510.914 510.914" width="512" xmlns="http://www.w3.org/2000/svg"><g><g><path d="m304.092 63.893h-117.13v-45.522c0-6.627 5.373-12 12-12h93.13c6.627 0 12 5.373 12 12z" fill="#ffe8c8"/><path d="m407.188 376.158c0 49.621-22.561 93.972-57.997 123.351-2.154 1.786-4.868 2.759-7.667 2.759h-188.923c-2.798 0-5.511-.973-7.665-2.759-35.459-29.389-58.068-73.759-58.068-123.362 0-59.05 31.97-110.64 79.54-138.4 14.56-8.5 24.2-23.41 25.96-40.17 2.95-28.09 1.05-56.56-5.74-84.15l-7.983-32.459c-1.24-5.042 2.577-9.911 7.769-9.911h121.238c5.192 0 9.008 4.869 7.769 9.911l-7.983 32.459c-6.79 27.59-8.7 56.06-5.75 84.14 1.78 16.89 11.61 31.76 26.26 40.35 47.41 27.812 79.24 79.302 79.24 138.241z" fill="#eef5ff"/><path d="m407.187 376.16c0 49.62-22.56 93.97-58 123.35-2.15 1.79-4.87 2.76-7.66 2.76h-25c2.79 0 5.51-.97 7.66-2.76 35.44-29.38 58-73.73 58-123.35 0-58.94-31.83-110.43-79.24-138.24-14.65-8.59-24.48-23.46-26.26-40.35-2.95-28.08-1.04-56.55 5.75-84.14l7.98-32.46c1.24-5.04-2.57-9.91-7.77-9.91h25c5.2 0 9.01 4.87 7.77 9.91l-7.98 32.46c-6.79 27.59-8.7 56.06-5.75 84.14 1.78 16.89 11.61 31.76 26.26 40.35 47.41 27.81 79.24 79.3 79.24 138.24z" fill="#dfe9fb"/><path d="m407.187 376.16c0 49.62-22.56 93.97-58 123.35-2.15 1.79-4.87 2.76-7.66 2.76h-188.93c-2.79 0-5.51-.97-7.66-2.76-35.46-29.39-58.07-73.76-58.07-123.36 0-21.83 4.37-42.64 12.28-61.6 9.19 4.97 18.44 9.9 36.82 9.9 37.02 0 37.02-20 74.04-20 37.01 0 37.01 20 74.03 20s37.02-20 74.04-20c18.31 0 27.56 4.89 36.72 9.84 7.98 19.03 12.39 39.94 12.39 61.87z" fill="#ffe17d"/><path d="m304.087 18.37v45.52h-25v-45.52c0-6.63-5.37-12-12-12h25c6.63 0 12 5.37 12 12z" fill="#fdd9b4"/><path d="m407.187 376.16c0 49.62-22.56 93.97-58 123.35-2.15 1.79-4.87 2.76-7.66 2.76h-25c2.79 0 5.51-.97 7.66-2.76 35.44-29.38 58-73.73 58-123.35 0-21.93-8.79-52.39-16.77-71.42 13.62 1.11 21.53 5.31 29.38 9.55 7.98 19.03 12.39 39.94 12.39 61.87z" fill="#ffd164"/><path d="m322.354 97.675h-150.653c-6.627 0-12-5.373-12-12v-26.087c0-6.627 5.373-12 12-12h150.653c6.627 0 12 5.373 12 12v26.087c0 6.628-5.373 12-12 12z" fill="#aa9ea9"/><ellipse cx="331.838" cy="443.729" fill="#b4e6a0" rx="47.909" ry="58.54"/><ellipse cx="370.965" cy="450.647" fill="#b4e6a0" rx="58.54" ry="47.909" transform="matrix(.679 -.734 .734 .679 -211.74 416.685)"/><path d="m406.121 483.2c-16.4 17.7-39.24 24.79-57.84 19.76 11.73-2.84 23.36-9.52 32.84-19.76 21.96-23.73 24.03-57.53 4.62-75.51-4.93-4.56-10.76-7.66-17.09-9.36 15.45-3.76 31.05-.85 42.09 9.36 19.41 17.98 17.34 51.78-4.62 75.51z" fill="#96d7a5"/><path d="m379.747 443.73c0 32.33-21.45 58.54-47.91 58.54-4.32 0-8.52-.7-12.5-2.02 20.4-6.71 35.41-29.47 35.41-56.52s-15.01-49.81-35.41-56.52c3.98-1.32 8.18-2.02 12.5-2.02 26.46 0 47.91 26.21 47.91 58.54z" fill="#96d7a5"/><path d="m334.357 59.59v26.09c0 6.62-5.38 12-12 12h-25c6.62 0 12-5.38 12-12v-26.09c0-6.63-5.38-12-12-12h25c6.62 0 12 5.37 12 12z" fill="#9b8e99"/></g><g><path d="m411.429 401.403c1.146-7.952 1.736-16.038 1.736-24.113 0-29.778-7.908-59.026-22.869-84.583-5.401-9.226-11.671-17.895-18.689-25.896 15.899-1.117 30.696-7.823 42.074-19.201 12.502-12.502 19.387-29.124 19.387-46.803 0-36.503-29.697-66.2-66.2-66.2h-57.401c1.007-6.116 2.242-12.206 3.731-18.257l2.467-10.04h5.16c10.752 0 19.5-8.748 19.5-19.5v-26.09c0-10.752-8.748-19.5-19.5-19.5h-10.76v-21.72c0-10.752-8.748-19.5-19.5-19.5h-93.13c-10.752 0-19.5 8.748-19.5 19.5v21.72h-7.76c-10.752 0-19.5 8.748-19.5 19.5v26.09c0 10.752 8.748 19.5 19.5 19.5h5.173l2.474 10.042c6.572 26.702 8.444 54.148 5.564 81.574-1.505 14.321-9.834 27.21-22.281 34.477-24.87 14.513-45.72 35.312-60.297 60.147-15.022 25.595-22.963 54.895-22.963 84.73 0 50.05 22.154 97.118 60.771 129.124 3.482 2.899 7.907 4.496 12.458 4.496h17.86c4.143 0 7.5-3.358 7.5-7.5s-3.357-7.5-7.5-7.5h-17.86c-1.052 0-2.068-.364-2.874-1.035-35.18-29.157-55.355-72.016-55.355-117.585 0-17.621 3.103-34.86 8.879-51.049 7.844 3.694 17.587 6.848 32.718 6.848 20.407 0 31.127-5.792 40.585-10.901 9.037-4.882 16.842-9.099 33.455-9.099 16.607 0 24.41 4.216 33.445 9.098 9.458 5.11 20.178 10.902 40.585 10.902 20.406 0 31.126-5.792 40.584-10.901 9.037-4.882 16.842-9.099 33.456-9.099 14.958 0 22.96 3.521 30.615 7.577 7.139 17.786 10.998 36.977 10.998 56.634 0 5.888-.345 11.782-1.016 17.613-9.574-2.746-20.301-3.049-31.27-.632-9.632-9.635-22.038-15.452-35.567-15.452-30.553 0-55.409 29.625-55.409 66.04 0 20.541 7.911 38.92 20.291 51.041h-91.259c-4.143 0-7.5 3.358-7.5 7.5s3.357 7.5 7.5 7.5h126.38c.021 0 .042-.003.063-.003 4.743-.007 9.349-.726 13.745-2.075 5.142 1.401 10.499 2.093 15.938 2.092 14.209 0 28.97-4.695 41.848-13.648 29.89-20.801 40.012-58.128 22.562-83.21-3.54-5.086-7.967-9.322-13.042-12.653zm-44.561-251.796c28.231 0 51.2 22.968 51.2 51.2 0 13.673-5.325 26.528-14.993 36.197-9.67 9.668-22.528 14.993-36.207 14.993h-9.981c-8.214-7.308-17.141-13.828-26.668-19.417-12.643-7.413-21.089-20.372-22.596-34.664-1.696-16.14-1.728-32.294-.135-48.31h59.38zm-201.192-62.797v-26.09c0-2.481 2.019-4.5 4.5-4.5h79.449c4.143 0 7.5-3.358 7.5-7.5s-3.357-7.5-7.5-7.5h-56.689v-21.72c0-2.481 2.019-4.5 4.5-4.5h93.13c2.481 0 4.5 2.019 4.5 4.5v21.72h-10.44c-4.143 0-7.5 3.358-7.5 7.5s3.357 7.5 7.5 7.5h36.2c2.481 0 4.5 2.019 4.5 4.5v26.09c0 2.481-2.019 4.5-4.5 4.5h-150.65c-2.482 0-4.5-2.018-4.5-4.5zm190.877 211.269c-20.407 0-31.127 5.792-40.586 10.901-9.036 4.882-16.841 9.099-33.454 9.099-16.614 0-24.418-4.217-33.455-9.099-9.456-5.11-20.174-10.901-40.575-10.901-20.406 0-31.126 5.792-40.584 10.901-9.037 4.882-16.842 9.099-33.456 9.099-12.586 0-20.273-2.509-26.981-5.736 13-27.571 34.124-51.182 61.206-66.985 16.557-9.666 27.636-26.811 29.638-45.864 3.062-29.156 1.07-58.334-5.917-86.727l-1.59-6.456h109.422l-1.587 6.458c-6.993 28.414-8.987 57.589-5.927 86.719 2.004 19.013 13.191 36.221 29.925 46.033 22.99 13.486 41.672 32.618 54.711 55.016-5.664-1.49-12.392-2.458-20.79-2.458zm-66.65 146.78c0-28.143 18.128-51.04 40.409-51.04s40.409 22.896 40.409 51.04-18.128 51.04-40.409 51.04-40.409-22.897-40.409-51.04zm103.441 40.093c-8.621 5.993-18.201 9.598-27.606 10.641 12.202-12.124 19.984-30.364 19.984-50.734 0-13.713-3.527-26.46-9.553-37.028 15.026-1.305 28.501 4.031 35.991 14.792 12.725 18.293 4.282 46.254-18.816 62.329z"/></g></g></svg>