<svg id="Capa_1" enable-background="new 0 0 510.439 510.439" height="512" viewBox="0 0 510.439 510.439" width="512" xmlns="http://www.w3.org/2000/svg"><g><g><path d="m322.699 238.608h-134.96l-10.525-71.117c-2.211-14.941 3.445-30.188 15.395-39.426 3.716-2.873 7.929-5.136 12.486-6.639 10.316-3.402 19.746-9.055 27.223-16.934l11.784-12.417c6.044-6.369 16.192-6.369 22.236 0l11.784 12.417c7.477 7.879 16.907 13.532 27.223 16.934 4.558 1.503 8.77 3.766 12.486 6.639 11.949 9.237 17.606 24.485 15.395 39.426z" fill="#eef5ff"/><path d="m454.65 238.608h-134.96l-10.525-71.117c-2.211-14.941 3.445-30.188 15.395-39.426 3.716-2.873 7.928-5.136 12.486-6.639 10.316-3.402 19.746-9.055 27.223-16.934l11.784-12.417c6.044-6.369 16.192-6.369 22.236 0l11.784 12.417c7.477 7.879 16.907 13.532 27.223 16.934 4.557 1.503 8.77 3.766 12.486 6.639 11.949 9.237 17.606 24.485 15.395 39.426z" fill="#eef5ff"/><path d="m465.178 167.49-10.53 71.12h-25l10.53-71.12c2.21-14.94-3.45-30.19-15.4-39.42-3.71-2.88-7.93-5.14-12.48-6.64-10.32-3.41-19.75-9.06-27.23-16.94l-10.4-10.96 1.38-1.45c6.05-6.37 16.2-6.37 22.24 0l11.78 12.41c7.48 7.88 16.91 13.53 27.23 16.94 4.55 1.5 8.77 3.76 12.48 6.64 11.95 9.23 17.61 24.48 15.4 39.42z" fill="#dfe9fb"/><path d="m190.747 238.608h-134.96l-10.525-71.117c-2.211-14.941 3.445-30.188 15.395-39.426 3.716-2.873 7.929-5.136 12.486-6.639 10.316-3.402 19.746-9.055 27.223-16.934l11.784-12.417c6.044-6.369 16.192-6.369 22.236 0l11.784 12.417c7.477 7.879 16.907 13.532 27.223 16.934 4.558 1.503 8.77 3.766 12.486 6.639 11.949 9.237 17.606 24.485 15.395 39.426z" fill="#eef5ff"/><path d="m333.228 167.49-10.53 71.12h-25l10.53-71.12c2.21-14.94-3.45-30.19-15.4-39.42-3.72-2.88-7.93-5.14-12.49-6.64-10.31-3.41-19.74-9.06-27.22-16.94l-10.4-10.96 1.38-1.45c6.05-6.37 16.19-6.37 22.24 0l11.78 12.41c7.48 7.88 16.91 13.53 27.22 16.94 4.56 1.5 8.77 3.76 12.49 6.64 11.951 9.23 17.61 24.48 15.4 39.42z" fill="#dfe9fb"/><path d="m201.268 167.49-10.52 71.12h-25l10.52-71.12c2.21-14.94-3.44-30.19-15.39-39.42-3.72-2.88-7.93-5.14-12.49-6.64-10.31-3.41-19.74-9.06-27.22-16.94l-10.4-10.96 1.38-1.45c6.04-6.37 16.19-6.37 22.24 0l11.78 12.41c7.48 7.88 16.91 13.53 27.22 16.94 4.56 1.5 8.77 3.76 12.49 6.64 11.95 9.23 17.6 24.48 15.39 39.42z" fill="#dfe9fb"/><path d="m476.479 423.141h-442.521c-6.627 0-12-5.373-12-12v-220.174c0-6.627 5.373-12 12-12h442.522c6.627 0 12 5.373 12 12v220.174c-.001 6.628-5.373 12-12.001 12z" fill="#ffe8c8"/><path d="m488.478 190.97v220.17c0 6.63-5.37 12-12 12h-25c6.63 0 12-5.37 12-12v-220.17c0-6.63-5.37-12-12-12h25c6.631 0 12 5.37 12 12z" fill="#fdd9b4"/><path d="m494.936 384.304h-479.435c-4.418 0-8-3.582-8-8v-150.5c0-4.418 3.582-8 8-8h479.435c4.418 0 8 3.582 8 8v150.5c0 4.419-3.582 8-8 8z" fill="#ff8087"/><path d="m502.938 225.8v150.5c0 4.42-3.58 8-8 8h-25c4.42 0 8-3.58 8-8v-150.5c0-4.41-3.58-8-8-8h25c4.421 0 8 3.59 8 8z" fill="#e6646e"/></g><path d="m495.979 207.861v-19.393c0-10.752-8.748-19.5-19.5-19.5h-3.638c1.821-17.193-5.126-34.024-18.463-44.324-4.431-3.439-9.386-6.077-14.731-7.839-9.44-3.11-17.787-8.291-24.138-14.98l-11.776-12.407c-4.286-4.521-10.318-7.114-16.55-7.117-.003 0-.006 0-.009 0-6.232 0-12.269 2.592-16.563 7.114l-11.78 12.41c-6.348 6.688-14.691 11.868-24.124 14.979-4.849 1.595-9.387 3.929-13.511 6.925-4.13-2.999-8.665-5.331-13.506-6.923-9.437-3.112-17.78-8.293-24.129-14.981l-11.781-12.411c-4.356-4.586-10.237-7.113-16.559-7.113s-12.202 2.526-16.56 7.114l-11.78 12.41c-6.349 6.688-14.692 11.869-24.124 14.979-4.848 1.595-9.386 3.929-13.511 6.925-4.13-2.999-8.665-5.331-13.506-6.923-9.438-3.113-17.782-8.293-24.13-14.981l-11.781-12.411c-4.293-4.521-10.33-7.112-16.563-7.112-.003 0-.006 0-.009 0-6.231.002-12.264 2.596-16.547 7.114l-11.779 12.41c-6.351 6.69-14.697 11.87-24.14 14.981-5.344 1.762-10.3 4.399-14.716 7.827-13.35 10.311-20.298 27.142-18.477 44.335h-3.638c-10.752 0-19.5 8.748-19.5 19.5v19.393c-8.062.538-14.46 7.251-14.46 15.447v150.5c0 8.196 6.398 14.908 14.46 15.447v19.383c0 10.752 8.748 19.5 19.5 19.5h360.5c4.143 0 7.5-3.358 7.5-7.5s-3.357-7.5-7.5-7.5h-360.5c-2.481 0-4.5-2.019-4.5-4.5v-19.33h451.52v19.33c0 2.481-2.019 4.5-4.5 4.5h-47.02c-4.143 0-7.5 3.358-7.5 7.5s3.357 7.5 7.5 7.5h47.02c10.752 0 19.5-8.748 19.5-19.5v-19.383c8.062-.539 14.46-7.251 14.46-15.447v-150.5c-.001-8.196-6.399-14.909-14.461-15.448zm-156.58-76.81c11.782-3.886 22.263-10.421 30.31-18.899l11.779-12.408c1.496-1.575 3.515-2.443 5.686-2.443h.003c2.167.001 4.181.867 5.674 2.441l11.779 12.41c8.051 8.481 18.536 15.017 30.321 18.9 3.714 1.224 7.155 3.055 10.243 5.452 9.608 7.421 14.424 19.831 12.566 32.385l-.012.079h-116.857c1.317-12.444-1.962-24.688-8.939-34.416 2.331-1.461 4.822-2.637 7.447-3.501zm-131.951 0c11.782-3.886 22.264-10.421 30.311-18.899l11.779-12.408c1.495-1.575 3.514-2.443 5.682-2.443s4.187.868 5.681 2.441l11.78 12.409c8.047 8.479 18.528 15.014 30.315 18.902 3.701 1.217 7.147 3.05 10.249 5.451 9.607 7.421 14.423 19.831 12.565 32.385l-.012.079h-116.867c1.318-12.446-1.959-24.689-8.931-34.415 2.332-1.461 4.823-2.638 7.448-3.502zm-154.769 37.84c-1.857-12.556 2.958-24.966 12.58-32.398 3.074-2.386 6.516-4.217 10.228-5.44 11.787-3.884 22.272-10.419 30.323-18.901l11.782-12.412c1.49-1.571 3.504-2.438 5.671-2.438h.003c2.171 0 4.189.867 5.685 2.441l11.78 12.409c8.047 8.479 18.527 15.014 30.315 18.902 3.702 1.217 7.148 3.05 10.249 5.451 9.603 7.417 14.413 19.826 12.556 32.385l-.012.079h-141.149zm-18.719 15.077h442.52c2.481 0 4.5 2.019 4.5 4.5v19.34h-401.19c-4.143 0-7.5 3.358-7.5 7.5s3.357 7.5 7.5 7.5h415.149c.275 0 .5.224.5.5v150.5c0 .271-.229.5-.5.5h-479.439c-.271 0-.5-.229-.5-.5v-150.5c0-.276.225-.5.5-.5h29.29c4.143 0 7.5-3.358 7.5-7.5s-3.357-7.5-7.5-7.5h-15.33v-19.34c0-2.481 2.019-4.5 4.5-4.5z"/></g></svg>