<svg id="Capa_1" enable-background="new 0 0 511.434 511.434" height="512" viewBox="0 0 511.434 511.434" width="512" xmlns="http://www.w3.org/2000/svg"><g><g><circle cx="380.722" cy="285.272" fill="#ffe8c8" r="83.78"/><path d="m464.502 285.272c0 46.27-37.51 83.78-83.78 83.78-4.25 0-8.42-.32-12.5-.93 40.34-6.03 71.28-40.83 71.28-82.85s-30.94-76.82-71.28-82.85c4.08-.61 8.25-.93 12.5-.93 46.27 0 83.78 37.51 83.78 83.78z" fill="#fdd9b4"/><path d="m453.752 244.192h-.01c-1.52-.23-3.14-.35-4.91-.35-22.71 0-22.71 20-45.42 20-22.7 0-22.7-20-45.41-20-22.7 0-22.7 20-45.41 20-5 0-8.89-.97-12.18-2.48 10.28-34.62 42.35-59.87 80.31-59.87 31.34 0 58.67 17.21 73.03 42.7z" fill="#c48d66"/><path d="m453.752 244.192h-.01c-1.52-.23-3.14-.35-4.91-.35-7.9 0-13.05 2.42-17.37 5.58l-2.71-5.23c-12.41-22.04-34.52-37.88-60.53-41.77 4.08-.61 8.25-.93 12.5-.93 31.34 0 58.67 17.21 73.03 42.7z" fill="#b67f5f"/><circle cx="255.722" cy="285.272" fill="#ffe8c8" r="83.78"/><path d="m339.502 285.272c0 46.27-37.51 83.78-83.78 83.78-4.25 0-8.42-.32-12.5-.93 40.34-6.03 71.28-40.83 71.28-82.85s-30.94-76.82-71.28-82.85c4.08-.61 8.25-.93 12.5-.93 46.27 0 83.78 37.51 83.78 83.78z" fill="#fdd9b4"/><path d="m328.732 244.162v.03c-1.51-.23-3.14-.35-4.9-.35-22.71 0-22.71 20-45.42 20-22.7 0-22.7-20-45.41-20-22.7 0-22.7 20-45.41 20-5.01 0-8.9-.97-12.18-2.49 10.29-34.61 42.35-59.86 80.31-59.86 31.33 0 58.64 17.2 73.01 42.67z" fill="#c48d66"/><path d="m328.732 244.162v.03c-1.51-.23-3.14-.35-4.9-.35-7.9 0-13.05 2.42-17.37 5.58l-2.73-5.26c-12.42-22.02-34.51-37.85-60.51-41.74 4.08-.61 8.25-.93 12.5-.93 31.33 0 58.64 17.2 73.01 42.67z" fill="#b67f5f"/><circle cx="130.722" cy="285.272" fill="#ffe8c8" r="83.78"/><path d="m214.502 285.272c0 46.27-37.51 83.78-83.78 83.78-4.25 0-8.42-.32-12.5-.93 40.34-6.03 71.28-40.83 71.28-82.85s-30.94-76.82-71.28-82.85c4.08-.61 8.25-.93 12.5-.93 46.27 0 83.78 37.51 83.78 83.78z" fill="#fdd9b4"/><path d="m203.732 244.152v.04c-1.51-.23-3.14-.35-4.9-.35-22.71 0-22.71 20-45.42 20-22.7 0-22.7-20-45.41-20-22.7 0-22.7 20-45.41 20-5.01 0-8.9-.97-12.18-2.49 10.29-34.61 42.35-59.86 80.31-59.86 31.33 0 58.64 17.19 73.01 42.66z" fill="#c48d66"/><path d="m203.732 244.152v.04c-1.51-.23-3.14-.35-4.9-.35-7.9 0-13.05 2.42-17.37 5.58l-2.73-5.27c-12.42-22.02-34.51-37.84-60.51-41.73 4.08-.61 8.25-.93 12.5-.93 31.33 0 58.64 17.19 73.01 42.66z" fill="#b67f5f"/><path d="m503.792 303.782-22.92 119.98c-1.08 5.65-6.03 9.75-11.79 9.75h-426.73c-5.76 0-10.7-4.1-11.78-9.75l-22.93-119.98c-.94-4.94 2.84-9.51 7.86-9.51h480.43c5.02 0 8.8 4.57 7.86 9.51z" fill="#eef5ff"/><path d="m503.792 303.782-22.92 119.98c-1.08 5.65-6.03 9.75-11.79 9.75h-25c5.76 0 10.71-4.1 11.79-9.75l22.92-119.98c.94-4.94-2.84-9.51-7.86-9.51h25c5.02 0 8.8 4.57 7.86 9.51z" fill="#dfe9fb"/><path d="m302.872 294.272v29.87c0 6.63-5.37 12-12 12h-70.3c-6.63 0-12-5.37-12-12v-29.87z" fill="#c4d7fb"/><path d="m302.872 294.272v29.87c0 6.63-5.37 12-12 12h-25c6.63 0 12-5.37 12-12v-29.87z" fill="#a9c6f9"/></g><path d="m507.888 292.697c-2.954-3.578-7.309-5.629-11.95-5.629h-23.96c.008-.5.02-.999.02-1.5 0-47.807-36.943-87.143-83.78-90.97v-57.68c9.995-3.185 17.256-12.555 17.256-23.591s-7.261-20.406-17.256-23.591v-12.099c0-4.142-3.358-7.5-7.5-7.5s-7.5 3.358-7.5 7.5v12.097c-9.995 3.185-17.256 12.555-17.256 23.591s7.261 20.406 17.256 23.591v57.682c-20.566 1.701-39.992 10.351-55.024 24.484-14.633-13.759-33.791-22.755-54.976-24.487v-57.68c9.995-3.185 17.256-12.555 17.256-23.591s-7.261-20.406-17.256-23.591v-12.096c0-4.142-3.358-7.5-7.5-7.5s-7.5 3.358-7.5 7.5v12.097c-9.995 3.185-17.256 12.555-17.256 23.591s7.261 20.406 17.256 23.591v57.682c-20.566 1.701-39.992 10.351-55.024 24.484-14.633-13.759-33.791-22.755-54.976-24.487v-57.68c9.995-3.185 17.256-12.555 17.256-23.591s-7.261-20.406-17.256-23.591v-12.096c0-4.142-3.358-7.5-7.5-7.5s-7.5 3.358-7.5 7.5v12.097c-9.995 3.185-17.256 12.555-17.256 23.591s7.261 20.406 17.256 23.591v57.68c-46.837 3.827-83.78 43.164-83.78 90.97 0 .501.012 1 .02 1.5h-23.96c-4.64 0-8.996 2.052-11.95 5.629-2.952 3.575-4.142 8.237-3.267 12.778l22.919 119.979c1.752 9.181 9.809 15.844 19.157 15.844h45.34c4.142 0 7.5-3.358 7.5-7.5s-3.358-7.5-7.5-7.5h-45.34c-2.159 0-4.019-1.538-4.423-3.657l-22.922-119.991c-.013-.067-.043-.225.103-.401.148-.18.313-.18.383-.18h185.57v22.37c0 10.752 8.748 19.5 19.5 19.5h70.3c10.752 0 19.5-8.748 19.5-19.5v-22.37h85.68c4.142 0 7.5-3.358 7.5-7.5s-3.358-7.5-7.5-7.5h-49.07c.008-.5.02-.999.02-1.5 0-9.719-1.533-19.086-4.359-27.879 4.269-3.613 8.149-6.061 15.359-6.061 8.524 0 12.396 3.41 17.754 8.13 6.003 5.289 13.476 11.87 27.656 11.87 14.187 0 21.661-6.583 27.667-11.872 5.358-4.719 9.229-8.128 17.753-8.128.062 0 .117.006.179.006 5.104 10.228 7.991 21.748 7.991 33.934 0 .502-.03.999-.04 1.5h-25.91c-4.142 0-7.5 3.358-7.5 7.5s3.358 7.5 7.5 7.5h64.89c.07 0 .235 0 .383.18.146.176.115.333.1.413l-22.92 119.981c-.404 2.118-2.264 3.656-4.423 3.656h-346.38c-4.142 0-7.5 3.358-7.5 7.5s3.358 7.5 7.5 7.5h346.38c9.349 0 17.405-6.664 19.157-15.843l22.917-119.968c.878-4.552-.312-9.214-3.264-12.789zm-127.17-189.127c5.379 0 9.756 4.376 9.756 9.756s-4.376 9.756-9.756 9.756-9.756-4.376-9.756-9.756 4.376-9.756 9.756-9.756zm-65.741 134.038c-8.709 2.023-14.197 6.832-18.806 10.891-5.358 4.719-9.229 8.128-17.753 8.128-8.517 0-12.386-3.409-17.742-8.126-6.005-5.29-13.479-11.874-27.668-11.874-9.71 0-16.273 3.088-21.375 6.731-2.42-4.621-5.224-9.009-8.371-13.124 14.105-13.369 32.879-20.947 52.456-20.947 23.902 0 45.262 11.059 59.259 28.321zm-59.259-134.038c5.379 0 9.756 4.376 9.756 9.756s-4.376 9.756-9.756 9.756-9.756-4.376-9.756-9.756 4.376-9.756 9.756-9.756zm-125 0c5.379 0 9.756 4.376 9.756 9.756s-4.376 9.756-9.756 9.756-9.756-4.376-9.756-9.756 4.376-9.756 9.756-9.756zm0 105.717c23.902 0 45.261 11.059 59.258 28.319-8.712 2.022-14.2 6.833-18.81 10.892-5.358 4.719-9.229 8.128-17.753 8.128-8.517 0-12.386-3.409-17.742-8.126-6.005-5.29-13.479-11.874-27.668-11.874-14.181 0-21.653 6.582-27.657 11.871-5.358 4.719-9.229 8.129-17.753 8.129-.835 0-1.63-.035-2.397-.1 11.447-27.695 38.739-47.239 70.522-47.239zm-76.28 76.28c0-4.956.491-9.798 1.398-14.493 2.151.363 4.392.553 6.756.553 14.188 0 21.663-6.583 27.668-11.874 5.356-4.718 9.226-8.126 17.742-8.126 8.524 0 12.395 3.41 17.753 8.129 6.004 5.289 13.476 11.871 27.657 11.871 14.187 0 21.661-6.583 27.667-11.872 5.358-4.719 9.229-8.128 17.753-8.128.06 0 .114.005.173.006 5.104 10.229 7.992 21.748 7.992 33.935 0 .502-.03.999-.04 1.5h-152.479c-.01-.502-.04-.998-.04-1.501zm240.93 38.87c0 2.481-2.019 4.5-4.5 4.5h-70.3c-2.481 0-4.5-2.019-4.5-4.5v-22.37h79.3zm-73.39-37.37c.008-.5.02-.999.02-1.5 0-9.718-1.532-19.084-4.358-27.875 4.276-3.615 8.157-6.065 15.368-6.065 8.524 0 12.395 3.41 17.753 8.129 6.004 5.289 13.476 11.871 27.657 11.871 14.187 0 21.661-6.583 27.667-11.872 5.358-4.719 9.229-8.128 17.753-8.128.058 0 .111.005.168.006 5.104 10.228 7.991 21.748 7.991 33.934 0 .502-.03.999-.04 1.5zm199.183-38.568c-5.358 4.719-9.229 8.128-17.753 8.128-8.516 0-12.386-3.409-17.742-8.126-6.005-5.291-13.479-11.874-27.668-11.874-9.707 0-16.268 3.085-21.367 6.727-2.42-4.619-5.223-9.006-8.368-13.12 14.105-13.369 32.879-20.947 52.456-20.947 23.902 0 45.261 11.059 59.258 28.319-8.716 2.021-14.206 6.833-18.816 10.893z"/></g></svg>