<svg id="Capa_1" enable-background="new 0 0 508.384 508.384" height="512" viewBox="0 0 508.384 508.384" width="512" xmlns="http://www.w3.org/2000/svg"><g><g><path d="m431.824 390.544h-77.22v-30h70.22c2.209 0 4-1.791 4-4v-131.04c0-2.209-1.791-4-4-4h-70.22v-30h77.22c14.912 0 27 12.088 27 27v145.04c0 14.912-12.088 27-27 27z" fill="#aa9ea9"/><path d="m129.345 274.263-78.606-78.606c-2.52-2.52-.735-6.828 2.828-6.828h75.778z" fill="#aa9ea9"/><path d="m360.611 148.138v307.82h-252v-307.82c0-6.63 5.37-12 12-12h228c6.62 0 12 5.37 12 12z" fill="#eef5ff"/><path d="m360.611 148.138v307.82h-25v-307.82c0-6.63-5.38-12-12-12h25c6.62 0 12 5.37 12 12z" fill="#dfe9fb"/><path d="m360.611 311.438v144.52h-252v-152.47l1.76-.03c25.2 0 25.2 8 50.4 8s25.2-8 50.4-8 25.2 8 50.4 8 25.2-8 50.4-8c24.6 0 25.19 7.62 48.64 7.98z" fill="#c48d66"/><path d="m360.611 311.438v144.52h-25v-148.99c6.57 2.05 12.57 4.28 25 4.47z" fill="#b67f5f"/><path d="m369.432 500.698h-269.652c-4.418 0-8-3.582-8-8v-38.783c0-4.418 3.582-8 8-8h269.652c4.418 0 8 3.582 8 8v38.783c0 4.418-3.581 8-8 8z" fill="#ff8087"/><path d="m276.238 79.688c4.543-7.238 7.16-15.791 7.16-24.968 0-25.971-21.05-47.034-47.034-47.034-25.971 0-47.034 21.063-47.034 47.034 0 9.178 2.617 17.73 7.16 24.968z" fill="#ff8087"/><path d="m283.401 54.718c0 9.18-2.62 17.73-7.16 24.97h-25c4.54-7.24 7.16-15.79 7.16-24.97 0-21.64-14.62-39.88-34.54-45.34 3.98-1.1 8.17-1.69 12.5-1.69 25.99 0 47.04 21.06 47.04 47.03z" fill="#e6646e"/><path d="m315.39 382.916h-161.567c-2.209 0-4-1.791-4-4v-25.391c0-2.209 1.791-4 4-4h161.567c2.209 0 4 1.791 4 4v25.391c0 2.209-1.791 4-4 4z" fill="#c4d7fb"/><path d="m341.629 116.589v-25.82c0-6.63-5.38-12-12-12h-186.53c-6.62 0-12 5.37-12 12v25.82l117.333 19.544z" fill="#eef5ff"/><path d="m341.631 90.768v25.82l-93.2 19.55-13.93-2.32 82.13-17.23v-25.82c0-6.63-5.38-12-12-12h25c6.62 0 12 5.37 12 12z" fill="#dfe9fb"/><path d="m373.929 161.35h-275.13c-4.418 0-8-3.582-8-8v-28.761c0-4.418 3.582-8 8-8h275.13c4.418 0 8 3.582 8 8v28.761c0 4.419-3.581 8-8 8z" fill="#ff8087"/><path d="m381.931 124.588v28.76c0 4.42-3.58 8-8 8h-25c4.42 0 8-3.58 8-8v-28.76c0-4.42-3.58-8-8-8h25c4.42 0 8 3.58 8 8z" fill="#e6646e"/><path d="m319.391 353.528v25.39c0 2.21-1.79 4-4 4h-25c2.21 0 4-1.79 4-4v-25.39c0-2.21-1.79-4-4-4h25c2.21 0 4 1.79 4 4z" fill="#a9c6f9"/><path d="m377.431 453.918v38.78c0 4.42-3.58 8-8 8h-25c4.42 0 8-3.58 8-8v-38.78c0-4.42-3.58-8-8-8h25c4.42 0 8 3.58 8 8z" fill="#e6646e"/></g><g><path d="m431.821 184.184h-63.72v-14.52h4.07c8.547 0 15.5-6.953 15.5-15.5v-28.76c0-8.547-6.953-15.5-15.5-15.5h-24.8v-18.32c0-10.752-8.748-19.5-19.5-19.5h-41.625c1.904-5.613 2.894-11.534 2.894-17.549 0-30.071-24.464-54.535-54.534-54.535s-54.534 24.464-54.534 54.534c0 6.016.99 11.936 2.894 17.549h-41.625c-10.752 0-19.5 8.748-19.5 19.5v18.32h-24.8c-8.547 0-15.5 6.953-15.5 15.5v28.76c0 8.547 6.953 15.5 15.5 15.5h4.06v11.85h-47.53c-4.669 0-8.841 2.787-10.627 7.099-1.787 4.313-.808 9.233 2.494 12.535l55.663 55.663v181.793h-1.32c-8.547 0-15.5 6.953-15.5 15.5v38.78c0 8.547 6.953 15.5 15.5 15.5h199.36c4.142 0 7.5-3.358 7.5-7.5s-3.358-7.5-7.5-7.5h-199.36c-.276 0-.5-.224-.5-.5v-38.78c0-.276.224-.5.5-.5h269.65c.276 0 .5.224.5.5v38.78c0 .276-.224.5-.5.5h-35.29c-4.142 0-7.5 3.358-7.5 7.5s3.358 7.5 7.5 7.5h35.29c8.547 0 15.5-6.953 15.5-15.5v-38.78c0-8.547-6.953-15.5-15.5-15.5h-1.33v-40.38h63.72c19.023 0 34.5-15.477 34.5-34.5v-145.04c0-19.023-15.476-34.499-34.5-34.499zm-63.72 45h53.22v124.04h-53.22zm-15 75.297c-6.633-.566-10.793-1.886-15.426-3.356-6.425-2.04-13.707-4.352-27.468-4.352-13.762 0-21.044 2.312-27.469 4.352-6.167 1.958-11.492 3.648-22.93 3.648-8.181 0-13.232-.867-17.703-2.076v-133.033h110.996zm-41.211 53.358v18.391h-154.567v-18.391zm-116.818-303.305c0-21.799 17.735-39.534 39.534-39.534s39.534 17.735 39.534 39.534c0 6.137-1.429 12.126-4.118 17.549h-70.832c-2.689-5.423-4.118-11.412-4.118-17.549zm-98.531 99.63v-28.76c0-.276.224-.5.5-.5h55.53c4.142 0 7.5-3.358 7.5-7.5s-3.358-7.5-7.5-7.5h-15.73v-18.32c0-2.481 2.019-4.5 4.5-4.5h186.53c2.481 0 4.5 2.019 4.5 4.5v18.32h-144.8c-4.142 0-7.5 3.358-7.5 7.5s3.358 7.5 7.5 7.5h184.6c.276 0 .5.224.5.5v28.76c0 .276-.224.5-.5.5h-275.13c-.276 0-.5-.225-.5-.5zm130.564 15.5v128.767c-4.573-.962-10.158-1.657-17.694-1.657-13.763 0-21.046 2.312-27.471 4.352-6.167 1.958-11.494 3.648-22.933 3.648s-16.765-1.691-22.933-3.648c-5.144-1.633-10.846-3.437-19.974-4.093v-127.369zm-165.088 26.85h39.083v39.083zm54.084 242.09v-126.539c6.638.565 10.8 1.886 15.436 3.357 6.425 2.04 13.708 4.352 27.471 4.352s21.046-2.312 27.471-4.352c6.167-1.958 11.494-3.648 22.933-3.648 8.175 0 13.225.866 17.694 2.074v28.992h-73.283c-6.341 0-11.5 5.159-11.5 11.5v25.391c0 6.341 5.159 11.5 11.5 11.5h161.567c6.341 0 11.5-5.159 11.5-11.5v-25.391c0-6.341-5.159-11.5-11.5-11.5h-73.285v-24.725c4.575.963 10.163 1.659 17.703 1.659 13.762 0 21.044-2.312 27.469-4.352 6.167-1.958 11.492-3.648 22.93-3.648 11.437 0 16.763 1.691 22.929 3.648 5.142 1.632 10.843 3.436 19.965 4.092v119.089h-237zm335.22-74.88c0 10.752-8.748 19.5-19.5 19.5h-63.72v-15h56.72c6.341 0 11.5-5.159 11.5-11.5v-131.04c0-6.341-5.159-11.5-11.5-11.5h-56.72v-15h63.72c10.752 0 19.5 8.748 19.5 19.5z"/></g></g></svg>