<svg id="Capa_1" enable-background="new 0 0 511.604 511.604" height="512" viewBox="0 0 511.604 511.604" width="512" xmlns="http://www.w3.org/2000/svg"><g><g><path d="m250.725 156.606h-75.939l20.416-136.385c.88-5.876 5.926-10.223 11.868-10.223h11.371c5.941 0 10.988 4.348 11.868 10.223z" fill="#ff8087"/><path d="m282.538 501.606h-139.565c-6.627 0-12-5.373-12-12v-32.348h163.565v32.348c0 6.628-5.373 12-12 12z" fill="#c4d7fb"/><path d="m250.722 156.607h-22l-20.41-136.39c-.6-3.99-3.13-7.28-6.55-8.98 1.61-.8 3.41-1.24 5.31-1.24h11.37c5.94 0 10.99 4.35 11.87 10.22z" fill="#e6646e"/><path d="m283.451 148.259h-141.391v-42.13c0-6.627 5.373-12 12-12h117.391c6.627 0 12 5.373 12 12z" fill="#c4d7fb"/><path d="m283.452 106.127v42.13h-25v-42.13c0-6.63-5.37-12-12-12h25c6.63 0 12 5.37 12 12z" fill="#a9c6f9"/><path d="m316.842 141.607v312.39c0 9.94-8.06 18-18 18h-172.17c-9.94 0-18-8.06-18-18v-312.39c0-9.94 8.06-18 18-18h172.17c9.94 0 18 8.06 18 18z" fill="#ffe17d"/><path d="m316.842 141.607v312.39c0 9.94-8.06 18-18 18h-25c9.94 0 18-8.06 18-18v-312.39c0-9.94-8.06-18-18-18h25c9.94 0 18 8.06 18 18z" fill="#ffd164"/><path d="m108.672 242.757h208.17v110.09h-208.17z" fill="#b4e6a0"/><path d="m291.842 242.757h25v110.09h-25z" fill="#96d7a5"/><path d="m294.542 457.257v32.35c0 6.63-5.38 12-12 12h-25c6.62 0 12-5.37 12-12v-32.35z" fill="#a9c6f9"/><path d="m361.255 355.259h-7.367c-2.209 0-4-1.791-4-4v-11.913c0-9.941-8.059-18-18-18h-4.79c-1.169 0-2.28-.512-3.04-1.401l-37.218-43.529c-2.358-2.758-6.875-1.204-7.036 2.421l-1.726 38.686c-.095 2.138-1.856 3.822-3.996 3.822h-4.373c-9.941 0-18 8.059-18 18v11.913c0 2.209-1.791 4-4 4h-7.367c-9.941 0-18 8.059-18 18v45.652h156.913v-45.652c0-9.941-8.059-17.999-18-17.999z" fill="#ff8087"/><path d="m379.252 373.257v45.65h-25v-45.65c0-9.94-8.06-18-18-18h-7.36c-2.21 0-4-1.79-4-4v-11.91c0-9.94-8.06-18-18-18h-4.79c-1.17 0-2.28-.51-3.04-1.4l-20.05-23.44.79-17.67c.16-3.62 4.68-5.18 7.04-2.42l37.22 43.53c.76.89 1.87 1.4 3.04 1.4h4.79c9.94 0 18 8.06 18 18v11.91c0 2.21 1.79 4 4 4h7.36c9.94 0 18 8.06 18 18z" fill="#e6646e"/><path d="m325.842 501.606h-50.087c-42.574 0-77.087-34.513-77.087-77.087v-17.957c0-4.418 3.582-8 8-8h188.261c4.418 0 8 3.582 8 8v17.957c0 42.574-34.513 77.087-77.087 77.087z" fill="#eef5ff"/><path d="m402.932 406.567v17.95c0 42.58-34.52 77.09-77.09 77.09h-25c42.57 0 77.09-34.51 77.09-77.09v-17.95c0-4.42-3.58-8-8-8h25c4.42 0 8 3.58 8 8z" fill="#dfe9fb"/></g><g><path d="m395.43 393.561h-8.177v-17.801c0-14.061-11.439-25.5-25.5-25.5h-3.86v-8.42c0-14.061-11.439-25.5-25.5-25.5h-3.178l-5.373-6.283v-110.667c0-4.143-3.358-7.5-7.5-7.5s-7.5 3.357-7.5 7.5v38.37h-193.17v-93.66c0-5.79 4.71-10.5 10.5-10.5h172.17c5.79 0 10.5 4.71 10.5 10.5v20.29c0 4.143 3.358 7.5 7.5 7.5s7.5-3.357 7.5-7.5v-20.29c0-14.061-11.439-25.5-25.5-25.5h-7.89v-9.97c0-10.752-8.748-19.5-19.5-19.5h-22.869l-11.363-75.938c-1.151-7.644-7.601-13.192-15.337-13.192h-18.26c-7.729 0-14.175 5.548-15.328 13.198l-11.372 75.932h-22.859c-10.752 0-19.5 8.748-19.5 19.5v9.97h-7.89c-14.061 0-25.5 11.439-25.5 25.5v249.81c0 4.143 3.358 7.5 7.5 7.5s7.5-3.357 7.5-7.5v-31.07h103.198c-2.238 3.792-3.529 8.207-3.529 12.92v17.801h-8.174c-8.547 0-15.5 6.953-15.5 15.5v17.956c0 14.455 3.651 28.07 10.069 39.983h-75.565c-5.79 0-10.5-4.71-10.5-10.5v-27.591c0-4.143-3.358-7.5-7.5-7.5s-7.5 3.357-7.5 7.5v27.591c0 12.976 9.745 23.712 22.3 25.292v10.308c0 10.752 8.748 19.5 19.5 19.5h133.629c.052 0 .102.004.154.004h50.087c46.642 0 84.587-37.945 84.587-84.587v-17.956c0-8.547-6.953-15.5-15.5-15.5zm-192.8-378.134c.037-.247.245-.427.494-.427h18.26c.255 0 .467.18.503.42l11.031 73.71h-41.327zm-53.567 93.203c0-2.481 2.019-4.5 4.5-4.5h117.39c2.481 0 4.5 2.019 4.5 4.5v9.97h-126.39zm-33.39 144.13h193.17v39.754l-15.808-18.488c-3.095-3.607-7.997-4.934-12.489-3.381-4.49 1.551-7.526 5.62-7.735 10.362l-1.571 35.333h-1.026c-14.061 0-25.5 11.439-25.5 25.5v6h-129.04v-95.08zm114.67 123c0-5.79 4.71-10.5 10.5-10.5h7.37c6.341 0 11.5-5.159 11.5-11.5v-11.92c0-5.79 4.71-10.5 10.5-10.5h4.37c6.156 0 11.204-4.818 11.493-10.987l1.327-29.833 31.459 36.792c2.188 2.561 5.374 4.028 8.742 4.028h4.79c5.79 0 10.5 4.71 10.5 10.5v11.92c0 6.341 5.159 11.5 11.5 11.5h7.36c5.79 0 10.5 4.71 10.5 10.5v17.801h-141.91v-17.801zm-87.869 120.84c-2.481 0-4.5-2.019-4.5-4.5v-10.1h74.083c4.743 5.53 10.179 10.443 16.183 14.6zm253.456-69.583c0 38.37-31.217 69.587-69.587 69.587h-50.034c-.02 0-.034-.004-.055-.004h-.151c-38.3-.084-69.433-31.265-69.433-69.583v-17.956c0-.275.224-.5.5-.5h188.26c.276 0 .5.225.5.5z"/></g></g></svg>