<svg id="Capa_1" enable-background="new 0 0 511.12 511.12" height="512" viewBox="0 0 511.12 511.12" width="512" xmlns="http://www.w3.org/2000/svg"><g><g><path d="m495.62 429.335h-195.478v-36.783h195.478c4.418 0 8 3.582 8 8v20.783c0 4.418-3.581 8-8 8z" fill="#aa9ea9"/><path d="m503.62 400.555v20.78c0 4.42-3.58 8-8 8h-25c4.42 0 8-3.58 8-8v-20.78c0-4.42-3.58-8-8-8h25c4.42 0 8 3.58 8 8z" fill="#9b8e99"/><path d="m259.836 452.766h-189.378c-34.771 0-62.958-28.187-62.958-62.958v-16.685c0-2.209 1.791-4 4-4h307.294c2.209 0 4 1.791 4 4v16.685c0 34.77-28.187 62.958-62.958 62.958z" fill="#ff8087"/><path d="m64.224 101.453-12.8 9.454c-12.4 9.159-15.028 26.636-5.869 39.036l13.742 18.606c1.312 1.777 3.817 2.154 5.594.841l10.457-7.723c1.777-1.312 4.282-.936 5.594.841l16.483 22.317c1.312 1.777 3.817 2.154 5.594.841l17.487-12.916c1.777-1.312 2.154-3.817.841-5.594l-16.483-22.317c-1.312-1.777-.936-4.281.841-5.594l10.457-7.724c1.777-1.312 2.154-3.817.841-5.594l-13.742-18.606c-9.16-12.399-26.637-15.027-39.037-5.868z" fill="#eef5ff"/><path d="m284.17 167.272-9.879-12.475c-9.57-12.085-27.126-14.124-39.211-4.554l-18.133 14.36c-1.732 1.371-2.024 3.887-.653 5.619l8.071 10.191c1.371 1.732 1.079 4.248-.653 5.619l-21.75 17.224c-1.732 1.371-2.024 3.887-.653 5.619l13.496 17.043c1.371 1.732 3.887 2.024 5.619.653l21.75-17.224c1.732-1.371 4.248-1.079 5.619.653l8.071 10.191c1.371 1.732 3.887 2.024 5.619.653l18.133-14.36c12.086-9.571 14.125-27.127 4.554-39.212z" fill="#eef5ff"/><circle cx="190.812" cy="90.442" fill="#ff8087" r="32.087"/><circle cx="100.091" cy="266.224" fill="#ff8087" r="32.087"/><circle cx="239.594" cy="305.922" fill="#ff8087" r="32.087"/><g fill="#e6646e"><path d="m322.79 373.125v16.68c0 34.77-28.18 62.96-62.95 62.96h-25c34.77 0 62.95-28.19 62.95-62.96v-16.68c0-2.21-1.79-4-4-4h25c2.21 0 4 1.79 4 4z"/><path d="m222.9 90.445c0 17.72-14.37 32.08-32.09 32.08-4.43 0-8.66-.9-12.5-2.52 11.51-4.88 19.59-16.27 19.59-29.56s-8.08-24.69-19.59-29.57c3.84-1.62 8.07-2.52 12.5-2.52 17.72 0 32.09 14.37 32.09 32.09z"/><path d="m132.18 266.225c0 17.72-14.37 32.09-32.09 32.09-4.43 0-8.66-.9-12.5-2.52 11.51-4.88 19.59-16.28 19.59-29.57s-8.08-24.69-19.59-29.57c3.84-1.62 8.07-2.52 12.5-2.52 17.72 0 32.09 14.37 32.09 32.09z"/><path d="m271.68 305.925c0 17.72-14.36 32.08-32.09 32.08-4.43 0-8.66-.9-12.5-2.52 11.52-4.88 19.59-16.27 19.59-29.56s-8.07-24.69-19.59-29.57c3.84-1.62 8.07-2.52 12.5-2.52 17.73 0 32.09 14.37 32.09 32.09z"/></g><path d="m279.62 206.485-18.14 14.36c-1.73 1.37-4.24 1.08-5.62-.65l-7.15-9.03 5.91-4.68c12.08-9.57 14.12-27.13 4.55-39.21l-9.88-12.48c-2.62-3.3-5.84-5.86-9.38-7.62 11.58-5.82 26.02-2.93 34.38 7.62l9.88 12.48c9.57 12.08 7.53 29.64-4.55 39.21z" fill="#dfe9fb"/><path d="m120.51 172.755-17.49 12.91c-1.78 1.31-4.28.94-5.59-.84l-6.45-8.73 4.53-3.34c1.77-1.32 2.15-3.82.84-5.6l-16.49-22.32c-1.31-1.77-.93-4.28.84-5.59l10.46-7.72c1.78-1.32 2.16-3.82.84-5.6l-13.74-18.6c-2.71-3.67-6.14-6.48-9.96-8.38 11.92-5.99 26.77-2.71 34.96 8.38l13.74 18.6c1.32 1.78.94 4.28-.84 5.6l-10.46 7.72c-1.77 1.31-2.15 3.82-.84 5.59l16.49 22.32c1.31 1.78.93 4.28-.84 5.6z" fill="#dfe9fb"/></g><g><path d="m495.62 385.047h-165.33v-11.93c0-6.341-5.159-11.5-11.5-11.5h-251.29c-4.142 0-7.5 3.357-7.5 7.5s3.358 7.5 7.5 7.5h247.79v13.19c0 30.581-24.875 55.46-55.45 55.46h-189.38c-30.581 0-55.46-24.879-55.46-55.46v-13.19h17.5c4.142 0 7.5-3.357 7.5-7.5s-3.358-7.5-7.5-7.5h-21c-6.341 0-11.5 5.159-11.5 11.5v16.69c0 38.852 31.608 70.46 70.46 70.46h189.38c20.79 0 39.498-9.059 52.405-23.431h134.785c4.142 0 7.5-3.357 7.5-7.5s-3.358-7.5-7.5-7.5h-124.472c3.443-6.716 5.847-14.047 6.979-21.79h166.083c.276 0 .5.225.5.5v20.79c0 .271-.229.5-.5.5h-13.59c-4.142 0-7.5 3.357-7.5 7.5s3.358 7.5 7.5 7.5h13.59c8.547 0 15.5-6.953 15.5-15.5v-20.79c0-8.546-6.953-15.499-15.5-15.499z"/><path d="m53.264 173.001c1.825 2.472 4.502 4.084 7.54 4.541 3.041.457 6.073-.296 8.543-2.121l7.642-5.645 14.404 19.503c2.252 3.048 5.736 4.662 9.265 4.662 2.373-.001 4.767-.73 6.818-2.245l17.486-12.917c5.1-3.767 6.185-10.98 2.418-16.082l-14.404-19.502 7.642-5.645c5.1-3.767 6.185-10.981 2.418-16.082l-13.742-18.605c-5.62-7.608-13.866-12.573-23.22-13.98-9.354-1.404-18.696.915-26.304 6.534l-12.801 9.454c-7.609 5.62-12.574 13.867-13.98 23.221s.914 18.695 6.534 26.305zm2.615-56.063 12.801-9.454c4.386-3.239 9.771-4.581 15.162-3.767 5.392.811 10.146 3.673 13.385 8.059l11.663 15.79-7.642 5.645c-2.471 1.824-4.083 4.503-4.54 7.54-.457 3.038.297 6.072 2.122 8.542l14.404 19.502-11.856 8.757-14.403-19.502c-1.825-2.472-4.503-4.084-7.542-4.541-.579-.087-1.158-.13-1.733-.13-2.441 0-4.809.775-6.809 2.252l-7.641 5.645-11.663-15.791c-6.687-9.054-4.761-21.86 4.292-28.547z"/><path d="m210.414 174.875 5.898 7.447-19.008 15.052c-4.97 3.938-5.811 11.184-1.875 16.154l13.497 17.044c1.907 2.407 4.637 3.928 7.688 4.282.452.053.902.079 1.35.079 2.579 0 5.065-.861 7.117-2.486l19.006-15.051 5.897 7.446c1.907 2.409 4.638 3.931 7.69 4.285 3.052.356 6.059-.501 8.466-2.408l18.133-14.359c7.416-5.872 12.101-14.281 13.191-23.677 1.091-9.396-1.542-18.655-7.415-26.07l-9.879-12.476c-12.124-15.309-34.44-17.9-49.747-5.777l-18.134 14.36c-4.971 3.939-5.811 11.186-1.875 16.155zm29.322-18.754c8.824-6.986 21.689-5.493 28.675 3.33l9.879 12.476c3.385 4.274 4.903 9.611 4.274 15.027s-3.33 10.263-7.604 13.647l-15.389 12.187-5.898-7.448c-3.936-4.969-11.182-5.81-16.154-1.875l-19.006 15.051-9.15-11.555 19.006-15.05c2.409-1.907 3.93-4.639 4.285-7.69.354-3.051-.501-6.057-2.408-8.466l-5.898-7.447z"/><path d="m190.812 130.026c21.828 0 39.587-17.759 39.587-39.587s-17.759-39.587-39.587-39.587-39.587 17.759-39.587 39.587 17.758 39.587 39.587 39.587zm0-64.174c13.557 0 24.587 11.029 24.587 24.587s-11.03 24.587-24.587 24.587-24.587-11.029-24.587-24.587 11.029-24.587 24.587-24.587z"/><path d="m100.091 226.635c-21.828 0-39.587 17.759-39.587 39.587s17.759 39.587 39.587 39.587 39.587-17.759 39.587-39.587-17.759-39.587-39.587-39.587zm0 64.174c-13.557 0-24.587-11.029-24.587-24.587s11.03-24.587 24.587-24.587 24.587 11.029 24.587 24.587-11.03 24.587-24.587 24.587z"/><path d="m200.007 305.919c0 21.828 17.759 39.587 39.587 39.587s39.587-17.759 39.587-39.587-17.759-39.587-39.587-39.587-39.587 17.759-39.587 39.587zm64.174 0c0 13.558-11.03 24.587-24.587 24.587s-24.587-11.029-24.587-24.587 11.03-24.587 24.587-24.587 24.587 11.03 24.587 24.587z"/></g></g></svg>