<svg id="Capa_1" enable-background="new 0 0 511.52 511.52" height="512" viewBox="0 0 511.52 511.52" width="512" xmlns="http://www.w3.org/2000/svg"><g><g><path d="m389.821 259.63h-268.124v-234.128c0-9.941 8.059-18 18-18h232.124c9.941 0 18 8.059 18 18z" fill="#c48d66"/><g fill="#b67f5f"><path d="m228.292 121.913h-53.457c-4.418 0-8-3.582-8-8v-53.456c0-4.418 3.582-8 8-8h53.457c4.418 0 8 3.582 8 8v53.457c0 4.418-3.582 7.999-8 7.999z"/><path d="m336.683 121.913h-53.457c-4.418 0-8-3.582-8-8v-53.456c0-4.418 3.582-8 8-8h53.457c4.418 0 8 3.582 8 8v53.457c0 4.418-3.581 7.999-8 7.999z"/><path d="m228.292 237.315h-53.457c-4.418 0-8-3.582-8-8v-53.457c0-4.418 3.582-8 8-8h53.457c4.418 0 8 3.582 8 8v53.457c0 4.419-3.582 8-8 8z"/><path d="m336.683 237.315h-53.457c-4.418 0-8-3.582-8-8v-53.457c0-4.418 3.582-8 8-8h53.457c4.418 0 8 3.582 8 8v53.457c0 4.419-3.581 8-8 8z"/><path d="m389.824 25.499v234.13h-25v-234.13c0-9.94-8.06-18-18-18h25c9.94 0 18 8.06 18 18z"/></g><path d="m382.634 504.02h-253.749c-9.941 0-18-8.059-18-18v-262.39h289.748v262.39c.001 9.941-8.058 18-17.999 18z" fill="#ff8087"/><path d="m400.634 223.629v262.39c0 9.94-8.06 18-18 18h-25c9.94 0 18-8.06 18-18v-262.39z" fill="#e6646e"/><path d="m170.885 436.02v-189.868h169.748v189.868c0 4.418-3.582 8-8 8h-153.748c-4.418 0-8-3.581-8-8z" fill="#ffe17d"/><path d="m340.634 246.149v189.87c0 4.42-3.58 8-8 8h-25c4.42 0 8-3.58 8-8v-189.87z" fill="#ffd164"/><path d="m406.891 318.354-44.255 7.262c-2.093.343-4.236-.158-5.959-1.394l-75.297-54.026c-2.059-1.477-4.695-1.892-7.108-1.117l-34.464 11.059c-2.262.726-4.084 2.419-4.974 4.622l-11.921 29.518c-1.699 4.206-6.55 6.16-10.69 4.305l-52.081-23.339c-2.045-.917-4.381-.933-6.439-.046l-46.845 20.2c-2.64 1.139-5.584-.798-5.584-3.673v-98.095c0-4.418 3.582-8 8-8h292.969c4.418 0 8 3.582 8 8v100.777c.001 1.959-1.418 3.63-3.352 3.947z" fill="#eef5ff"/><path d="m410.244 213.629v100.78c0 1.96-1.42 3.63-3.35 3.94l-44.26 7.27c-2.09.34-4.23-.16-5.96-1.4l-1.96-1.41 27.18-4.46c1.93-.31 3.35-1.98 3.35-3.94v-100.78c0-4.42-3.58-8-8-8h25c4.421 0 8 3.58 8 8z" fill="#dfe9fb"/></g><g><path d="m402.244 198.129h-4.925v-172.629c0-14.061-11.439-25.5-25.5-25.5h-38.21c-4.143 0-7.5 3.357-7.5 7.5s3.357 7.5 7.5 7.5h38.21c5.79 0 10.5 4.71 10.5 10.5v172.629h-30.14v-22.27c0-8.547-6.953-15.5-15.5-15.5h-53.45c-8.547 0-15.5 6.953-15.5 15.5v22.27h-23.94v-22.27c0-8.547-6.953-15.5-15.5-15.5h-53.45c-8.547 0-15.5 6.953-15.5 15.5v22.27h-30.139v-172.629c0-5.79 4.71-10.5 10.5-10.5h158.91c4.143 0 7.5-3.357 7.5-7.5s-3.357-7.5-7.5-7.5h-158.91c-14.061 0-25.5 11.439-25.5 25.5v172.629h-4.924c-8.547 0-15.5 6.953-15.5 15.5v98.093c0 3.882 1.937 7.474 5.18 9.607 1.365.898 2.877 1.461 4.434 1.721v162.97c0 14.061 11.439 25.5 25.5 25.5h32.46c4.142 0 7.5-3.357 7.5-7.5s-3.358-7.5-7.5-7.5h-32.46c-5.79 0-10.5-4.71-10.5-10.5v-167.43l38.285-16.508c.128-.057.275-.055.401.002l6.314 2.83v131.106c0 8.547 6.953 15.5 15.5 15.5h153.74c8.547 0 15.5-6.953 15.5-15.5v-108.703l4.175 2.995c2.662 1.911 5.789 2.91 9.005 2.91.843 0 1.693-.068 2.542-.207l29.278-4.804v157.809c0 5.79-4.71 10.5-10.5 10.5h-186.28c-4.142 0-7.5 3.357-7.5 7.5s3.358 7.5 7.5 7.5h186.28c14.061 0 25.5-11.439 25.5-25.5v-160.271c5.572-.927 9.614-5.693 9.614-11.344v-100.776c0-8.547-6.953-15.5-15.5-15.5zm-119.515-22.27c0-.275.225-.5.5-.5h53.45c.275 0 .5.225.5.5v22.27h-54.45zm-108.389 0c0-.275.224-.5.5-.5h53.45c.276 0 .5.225.5.5v22.27h-54.45zm158.79 260.161c0 .275-.225.5-.5.5h-153.74c-.276 0-.5-.225-.5-.5v-124.384l30.768 13.789c3.879 1.737 8.186 1.819 12.127.232 3.943-1.588 6.991-4.632 8.583-8.573l11.92-29.518c.056-.139.17-.245.311-.29l34.463-11.059c.152-.047.317-.021.445.07l56.122 40.267v119.466zm28.295-117.807c-.13.023-.268-.009-.375-.087l-75.297-54.024c-2.658-1.908-5.845-2.901-9.058-2.901-1.585 0-3.177.241-4.714.734l-34.468 11.06c-4.394 1.411-7.905 4.675-9.634 8.954l-11.92 29.518c-.02.049-.08.197-.277.277-.197.078-.338.017-.391-.007l-52.083-23.341c-3.952-1.771-8.499-1.802-12.475-.087l-41.958 18.091v-92.771c0-.275.224-.5.5-.5h292.969c.275 0 .5.225.5.5v97.804z"/><path d="m174.836 44.955c-8.547 0-15.5 6.953-15.5 15.5v53.457c0 8.547 6.953 15.5 15.5 15.5h53.457c8.547 0 15.5-6.953 15.5-15.5v-53.457c0-8.547-6.953-15.5-15.5-15.5zm53.956 15.5v53.457c0 .275-.224.5-.5.5h-53.457c-.276 0-.5-.225-.5-.5v-53.457c0-.275.224-.5.5-.5h53.457c.276 0 .5.225.5.5z"/><path d="m267.728 60.455v53.457c0 8.547 6.953 15.5 15.5 15.5h53.456c8.547 0 15.5-6.953 15.5-15.5v-53.457c0-8.547-6.953-15.5-15.5-15.5h-53.456c-8.547 0-15.5 6.953-15.5 15.5zm69.456 0v53.457c0 .275-.225.5-.5.5h-53.456c-.275 0-.5-.225-.5-.5v-53.457c0-.275.225-.5.5-.5h53.456c.275 0 .5.225.5.5z"/></g></g></svg>