<svg id="Capa_1" enable-background="new 0 0 511.544 511.544" height="512" viewBox="0 0 511.544 511.544" width="512" xmlns="http://www.w3.org/2000/svg"><g><g><path d="m370.883 218.612c-30.387-21.17-56.781-47.564-77.951-77.951-8.696-12.482-4.735-29.752 8.479-37.29.512-.292 1.024-.584 1.536-.876 11.599-6.616 26.393-3.391 34.028 7.564 17.525 25.142 39.367 46.984 64.509 64.509 10.954 7.636 14.179 22.43 7.564 34.028-.292.512-.584 1.024-.876 1.536-7.536 13.215-24.806 17.176-37.289 8.48z" fill="#ff8087"/><path d="m477.063 53.752-19.271-19.271c-10.643-10.643-27.899-10.643-38.542 0l-22.259 22.259c-1.562 1.562-1.562 4.095 0 5.657l11.267 11.267c1.562 1.562 1.562 4.095 0 5.657l-23.149 23.149c-1.562 1.562-1.562 4.095 0 5.657l18.31 18.31c1.562 1.562 4.095 1.562 5.657 0l23.149-23.149c1.562-1.562 4.095-1.562 5.657 0l11.267 11.267c1.562 1.562 4.095 1.562 5.657 0l22.259-22.259c10.642-10.644 10.642-27.9-.002-38.544z" fill="#eef5ff"/><path d="m340.993 256.446-21.187 21.187c-3.124 3.124-8.19 3.124-11.314 0l-74.581-74.581c-3.124-3.124-3.124-8.19 0-11.314l21.187-21.187c3.124-3.124 8.19-3.124 11.314 0l74.581 74.581c3.125 3.125 3.125 8.19 0 11.314z" fill="#b4e6a0"/><path d="m247.822 341.673c-30.387-21.17-56.781-47.564-77.951-77.951-8.696-12.482-4.735-29.752 8.479-37.29.512-.292 1.024-.584 1.536-.876 11.599-6.616 26.393-3.391 34.028 7.564 17.525 25.142 39.367 46.984 64.509 64.509 10.954 7.636 14.179 22.43 7.564 34.028-.292.512-.584 1.024-.876 1.536-7.536 13.215-24.806 17.176-37.289 8.48z" fill="#ff8087"/><path d="m125.176 432.026-65.05 65.05c-9.37 9.37-24.57 9.37-33.94 0l-11.71-11.72c-9.38-9.37-9.38-24.56 0-33.94l65.04-65.04c3.13-3.13 8.19-3.13 11.32 0l34.34 34.34c3.12 3.12 3.12 8.19 0 11.31z" fill="#aa9ea9"/><path d="m125.176 432.026-65.05 65.05c-9.37 9.37-24.57 9.37-33.94 0l-11.71-11.72c-1.02-1.02-1.93-2.1-2.72-3.25 9.35 6.55 22.34 5.64 30.69-2.71l65.05-65.05c3.12-3.12 3.12-8.19 0-11.31l17.68 17.68c3.12 3.12 3.12 8.19 0 11.31z" fill="#9b8e99"/><path d="m180.642 330.903 46.22 46.22c1.668 1.668 1.558 4.437-.28 5.917-21.379 17.218-58.082 11.275-83.718-14.36s-31.578-62.339-14.36-83.718c1.48-1.838 4.248-1.948 5.917-.28z" fill="#ffe17d"/><path d="m125.176 432.026-14.9 14.9-45.66-45.65 14.9-14.9c3.13-3.13 8.19-3.13 11.32 0l34.34 34.34c3.12 3.12 3.12 8.19 0 11.31z" fill="#c4d7fb"/><path d="m477.066 92.296-22.26 22.26c-1.56 1.56-4.1 1.56-5.66 0l-11.26-11.27c-1.57-1.56-4.1-1.56-5.66 0l-23.15 23.15c-1.56 1.56-4.1 1.56-5.66 0l-17.68-17.68c1.57 1.56 4.1 1.56 5.66 0l23.15-23.15c1.56-1.56 4.1-1.56 5.66 0l11.26 11.27c1.57 1.56 4.1 1.56 5.66 0l22.26-22.26c10.64-10.64 10.64-27.9 0-38.54l17.68 17.68c10.64 10.64 10.64 27.9 0 38.54z" fill="#dfe9fb"/><path d="m340.996 256.446-21.19 21.19c-3.12 3.12-8.19 3.12-11.31 0l-17.75-17.75c3.16 3.16 8.29 3.16 11.45 0l21.87-21.86c2.08-2.09 2.79-5.03 2.12-7.7l14.81 14.81c3.12 3.12 3.12 8.19 0 11.31z" fill="#96d7a5"/><path d="m285.986 331.656c-.29.51-.58 1.03-.87 1.54-7.54 13.21-24.81 17.17-37.29 8.48-8.54-5.95-16.78-12.32-24.66-19.07 1.63 1.16 3.27 2.31 4.93 3.44 12.59 8.59 30.44 4.05 38.54-9.73.31-.53.63-1.07.94-1.6 4.41-7.5 4.96-16.15 2.12-23.45 2.86 2.18 5.77 4.3 8.73 6.36 10.95 7.64 14.18 22.43 7.56 34.03z" fill="#e6646e"/><path d="m409.046 208.596c-.29.51-.58 1.02-.87 1.54-7.54 13.21-24.81 17.17-37.29 8.48-6.8-4.74-13.4-9.74-19.79-14.99 12.59 8.25 30.29 3.56 38.44-10.21.31-.54.63-1.07.95-1.61 4.48-7.58 5.08-16.31 2.23-23.63 2.87 2.19 5.8 4.32 8.77 6.39 10.95 7.64 14.18 22.43 7.56 34.03z" fill="#e6646e"/><path d="m226.586 383.036c-21.38 17.22-58.09 11.28-83.72-14.36-3.02-3.02-5.77-6.19-8.23-9.47 24.6 18.51 55.4 21.35 74.27 6.16 1.84-1.48 1.95-4.25.28-5.92l17.68 17.68c1.66 1.67 1.55 4.43-.28 5.91z" fill="#ffd164"/><path d="m125.176 432.026-14.9 14.9-17.68-17.68 14.9-14.9c3.12-3.12 3.12-8.19 0-11.31l17.68 17.68c3.12 3.12 3.12 8.19 0 11.31z" fill="#a9c6f9"/></g><g><path d="m509.347 2.196c-2.93-2.928-7.678-2.928-10.607.001l-31.266 31.275-4.337-4.337c-13.55-13.551-35.599-13.551-49.148 0l-22.259 22.259c-2.173 2.172-3.37 5.061-3.37 8.132 0 3.072 1.197 5.96 3.369 8.132l8.792 8.792-20.674 20.674c-4.484 4.484-4.484 11.779 0 16.263l3.856 3.856-17.205 17.198c-8.435-8.956-16.232-18.535-23.327-28.713-9.903-14.207-28.775-18.416-43.898-9.79l-1.535.876c-8.147 4.646-14.004 12.56-16.069 21.71-2.057 9.114-.179 18.729 5.152 26.381 9.432 13.539 19.828 26.254 31.12 38.091l-14.197 14.197-31.978-31.978c-2.927-2.937-6.822-4.554-10.968-4.553-4.146 0-8.041 1.617-10.958 4.544l-21.181 21.181c-2.937 2.926-4.554 6.821-4.554 10.967s1.617 8.041 4.544 10.959l3.44 3.44c2.929 2.929 7.678 2.929 10.606 0 2.929-2.929 2.929-7.678 0-10.606l-3.449-3.449c-.035-.035-.142-.142-.142-.343s.107-.308.151-.352l21.199-21.199c.035-.035.142-.142.342-.142.201 0 .308.107.352.151l74.588 74.588c.035.035.142.142.142.343s-.107.308-.151.352l-21.199 21.199c-.035.035-.142.142-.342.142-.201 0-.308-.107-.352-.151l-46.39-46.39c-2.929-2.929-7.678-2.929-10.606 0-2.929 2.929-2.929 7.678 0 10.606l3.797 3.797-17.202 17.202c-8.435-8.956-16.231-18.534-23.326-28.713-9.902-14.208-28.775-18.415-43.898-9.789l-1.535.875c-8.147 4.646-14.004 12.56-16.069 21.71-2.057 9.114-.179 18.729 5.152 26.381 9.432 13.539 19.828 26.254 31.12 38.091l-14.196 14.196-40.917-40.917c-2.31-2.31-5.5-3.527-8.771-3.359-3.24.174-6.262 1.719-8.291 4.238-18.463 22.926-13.898 60.479 9.804 88.213l-24.465 24.465-11.875-11.875c-6.047-6.027-15.875-6.024-21.909.009l-33.47 33.48c-2.928 2.93-2.928 7.678.001 10.607 2.93 2.928 7.678 2.928 10.607-.001l13.261-13.265 35.04 35.04-44.838 44.839c-6.433 6.433-16.9 6.433-23.333 0l-11.71-11.71c-6.433-6.433-6.433-16.9 0-23.333l6.83-6.83c2.929-2.929 2.929-7.678 0-10.607-2.93-2.928-7.678-2.929-10.607 0l-6.83 6.83c-12.281 12.282-12.281 32.265 0 44.546l11.71 11.71c6.141 6.142 14.206 9.212 22.273 9.211 8.065 0 16.133-3.071 22.273-9.211l65.05-65.05c6.033-6.032 6.037-15.86 0-21.917l-11.863-11.865 24.479-24.479c16.21 13.852 35.763 21.186 53.799 21.186 12.822 0 24.874-3.696 34.398-11.368 2.519-2.028 4.064-5.05 4.238-8.291.175-3.264-1.049-6.461-3.359-8.771l-40.917-40.917 14.196-14.196c11.837 11.292 24.552 21.688 38.091 31.12 5.619 3.915 12.296 5.967 19.056 5.967 2.446 0 4.903-.269 7.325-.815 9.15-2.065 17.064-7.922 21.71-16.068l.876-1.536c8.626-15.123 4.418-33.995-9.79-43.897-10.178-7.095-19.757-14.891-28.713-23.326l17.202-17.202 31.978 31.978c2.927 2.937 6.822 4.554 10.968 4.553 4.146 0 8.041-1.617 10.958-4.544l21.181-21.181c2.936-2.926 4.553-6.821 4.553-10.967s-1.617-8.041-4.544-10.959l-31.985-31.987 14.197-14.197c11.837 11.292 24.552 21.688 38.091 31.12 5.619 3.915 12.296 5.967 19.056 5.967 2.446 0 4.903-.269 7.325-.815 9.15-2.065 17.064-7.922 21.707-16.063l.88-1.542c8.626-15.123 4.417-33.994-9.79-43.897-10.178-7.094-19.756-14.89-28.711-23.325l17.205-17.198 3.847 3.847c2.242 2.242 5.187 3.363 8.131 3.363 2.945 0 5.89-1.121 8.132-3.363l20.674-20.674 8.791 8.791c2.172 2.173 5.061 3.37 8.133 3.37s5.96-1.197 8.131-3.369l22.259-22.259c13.55-13.551 13.55-35.599 0-49.149l-4.328-4.328 31.268-31.277c2.928-2.929 2.927-7.677-.002-10.606zm-389.436 424.481-9.605 9.605-35.042-35.042 9.604-9.606c.193-.193.513-.189.704 0l34.331 34.331c.198.199.201.518.008.712zm28.299-63.343c-21.463-21.463-28.073-51.528-16.133-70.474l86.607 86.606c-18.946 11.942-49.01 5.332-70.474-16.132zm131.306-35.435-.876 1.537c-2.603 4.563-6.858 7.712-11.983 8.869-5.088 1.149-10.239.144-14.504-2.827-29.756-20.73-55.354-46.329-76.084-76.084-2.972-4.266-3.976-9.417-2.828-14.505 1.157-5.125 4.306-9.38 8.867-11.982l1.538-.877c2.852-1.626 5.993-2.404 9.105-2.404 5.838 0 11.567 2.738 15.055 7.741 18.09 25.952 40.421 48.284 66.374 66.374 7.669 5.346 10.013 15.958 5.336 24.158zm123.06-123.059-.875 1.535c-2.603 4.563-6.858 7.712-11.983 8.869-5.088 1.148-10.239.145-14.504-2.827-29.756-20.73-55.354-46.328-76.084-76.084-2.972-4.266-3.976-9.417-2.827-14.504 1.156-5.125 4.306-9.381 8.87-11.984l1.535-.876c2.851-1.626 5.994-2.403 9.105-2.403 5.838 0 11.567 2.737 15.055 7.741 18.09 25.952 40.421 48.283 66.373 66.373 7.668 5.345 10.013 15.958 5.335 24.16zm69.226-117.89-19.785 19.784-8.792-8.792c-2.172-2.172-5.06-3.368-8.132-3.368-3.071 0-5.959 1.196-8.131 3.368l-20.674 20.674-13.36-13.36 20.674-20.674c2.172-2.172 3.368-5.06 3.368-8.131 0-3.072-1.196-5.96-3.368-8.132l-8.792-8.792 19.784-19.785c7.702-7.702 20.233-7.702 27.936 0l19.271 19.271c7.703 7.702 7.703 20.235.001 27.937z"/></g></g></svg>