<svg id="Capa_1" enable-background="new 0 0 511.801 511.801" height="512" viewBox="0 0 511.801 511.801" width="512" xmlns="http://www.w3.org/2000/svg"><g><g><path d="m371.725 61.509c0-29.391-51.857-53.217-115.826-53.217s-115.826 23.826-115.826 53.217c0 10.028 6.039 19.407 16.533 27.413 1.958 1.494 3.076 3.841 3.076 6.303v162.979h196.696v-166.499c0-2.308 1.019-4.478 2.735-6.021 8.063-7.254 12.612-15.47 12.612-24.175z" fill="#ffe8c8"/><path d="m371.729 61.51c0 8.7-4.55 16.92-12.62 24.17-1.71 1.55-2.73 3.72-2.73 6.02v166.5h-25v-166.5c0-2.3 1.02-4.47 2.73-6.02 8.07-7.25 12.62-15.47 12.62-24.17 0-27.45-45.24-50.05-103.33-52.91 4.1-.21 8.28-.31 12.5-.31 63.97 0 115.83 23.83 115.83 53.22z" fill="#fdd9b4"/><path d="m487.577 451.466h-463.357v-232.835c0-30.251 24.523-54.774 54.774-54.774h353.809c30.251 0 54.774 24.523 54.774 54.774z" fill="#ff8087"/><path d="m487.579 218.63v232.84h-25v-232.84c0-30.25-24.52-54.77-54.78-54.77h25c30.26 0 54.78 24.52 54.78 54.77z" fill="#e6646e"/><path d="m496.296 503.509h-480.794c-4.418 0-8-3.582-8-8v-44.261c0-4.418 3.582-8 8-8h480.793c4.418 0 8 3.582 8 8v44.261c.001 4.418-3.581 8-7.999 8z" fill="#aa9ea9"/><path d="m418.116 409.596h-24.087c-2.209 0-4-1.791-4-4v-179.826c0-2.209 1.791-4 4-4h24.087c2.209 0 4 1.791 4 4v179.826c0 2.209-1.791 4-4 4z" fill="#eef5ff"/><path d="m443.029 284.379h-73.913c-2.209 0-4 1.791-4 4v27.739c0 2.209 1.791 4 4 4h73.913c2.209 0 4-1.791 4-4v-27.739c0-2.21-1.791-4-4-4z" fill="#aa9ea9"/><circle cx="89.823" cy="398.302" fill="#b4e6a0" r="17.511"/><circle cx="148.605" cy="398.302" fill="#ffe17d" r="17.511"/><circle cx="255.899" cy="252.933" fill="#eef5ff" r="52.141"/><path d="m296.629 285.49c-13.11 16.4-34.11 22.79-53.25 18.06 10.77-2.64 20.79-8.73 28.25-18.06 17.98-22.49 14.32-55.3-8.17-73.29-6.09-4.87-12.94-8.15-20.04-9.89 15.19-3.74 31.88-.63 45.04 9.89 22.49 17.99 26.15 50.8 8.17 73.29z" fill="#dfe9fb"/><g fill="#9b8e99"><path d="m447.029 288.38v27.74c0 2.21-1.79 4-4 4h-25c2.21 0 4-1.79 4-4v-27.74c0-2.21-1.79-4-4-4h25c2.21 0 4 1.79 4 4z"/><path d="m504.299 451.25v44.26c0 4.42-3.58 8-8 8h-25c4.42 0 8-3.58 8-8v-44.26c0-4.42-3.58-8-8-8h25c4.42 0 8 3.58 8 8z"/></g></g><g><path d="m496.301 435.75h-1.221v-217.119c0-34.336-27.938-62.271-62.279-62.271h-68.92v-64.66c0-.135.104-.315.241-.44 9.884-8.879 15.108-19.166 15.108-29.749 0-17.315-13.6-33.1-38.295-44.447-22.839-10.495-53.039-16.274-85.035-16.274s-62.195 5.779-85.035 16.273c-24.695 11.348-38.295 27.132-38.295 44.448 0 12.117 6.741 23.658 19.468 33.354.087.066.143.21.143.365v61.13h-73.181c-34.341 0-62.279 27.935-62.279 62.271v35.619c0 4.143 3.357 7.5 7.5 7.5s7.5-3.357 7.5-7.5v-35.619c0-26.065 21.209-47.271 47.279-47.271h353.801c26.07 0 47.279 21.205 47.279 47.271v217.119h-448.359v-146.5c0-4.143-3.357-7.5-7.5-7.5s-7.5 3.357-7.5 7.5v146.5h-1.221c-8.547 0-15.5 6.953-15.5 15.5v44.261c0 8.547 6.953 15.5 15.5 15.5h413.101c4.143 0 7.5-3.357 7.5-7.5s-3.357-7.5-7.5-7.5h-413.101c-.275 0-.5-.225-.5-.5v-44.261c0-.275.225-.5.5-.5h480.801c.275 0 .5.225.5.5v44.261c0 .275-.225.5-.5.5h-32.7c-4.143 0-7.5 3.357-7.5 7.5s3.357 7.5 7.5 7.5h32.7c8.547 0 15.5-6.953 15.5-15.5v-44.261c0-8.547-6.953-15.5-15.5-15.5zm-335.146-352.796c-6.197-4.722-13.585-12.275-13.585-21.443 0-10.953 10.773-22.186 29.558-30.816 20.917-9.611 48.893-14.904 78.772-14.904s57.855 5.293 78.772 14.904c18.784 8.631 29.558 19.863 29.558 30.816 0 6.296-3.409 12.551-10.157 18.612-3.3 2.991-5.192 7.211-5.192 11.577v64.66h-181.7v-61.13c0-4.785-2.243-9.367-6.026-12.276z"/><path d="m418.12 214.271h-24.09c-6.341 0-11.5 5.159-11.5 11.5v51.108h-13.412c-6.341 0-11.5 5.159-11.5 11.5v27.739c0 6.341 5.159 11.5 11.5 11.5h13.412v77.982c0 6.341 5.159 11.5 11.5 11.5h24.09c6.341 0 11.5-5.159 11.5-11.5v-77.982h13.411c6.341 0 11.5-5.159 11.5-11.5v-27.739c0-6.341-5.159-11.5-11.5-11.5h-13.411v-51.108c0-6.341-5.159-11.5-11.5-11.5zm-20.59 15h17.09v47.608h-17.09zm17.09 172.83h-17.09v-74.482h17.09zm24.911-89.483h-66.913v-20.739h66.913z"/><path d="m114.835 398.303c0-13.791-11.22-25.011-25.011-25.011s-25.011 11.22-25.011 25.011 11.22 25.011 25.011 25.011 25.011-11.22 25.011-25.011zm-35.022 0c0-5.52 4.491-10.011 10.011-10.011s10.011 4.491 10.011 10.011-4.491 10.011-10.011 10.011-10.011-4.492-10.011-10.011z"/><path d="m173.618 398.303c0-13.791-11.221-25.011-25.012-25.011s-25.011 11.22-25.011 25.011 11.22 25.011 25.011 25.011 25.012-11.22 25.012-25.011zm-35.022 0c0-5.52 4.491-10.011 10.011-10.011 5.521 0 10.012 4.491 10.012 10.011s-4.491 10.011-10.012 10.011c-5.52-.001-10.011-4.492-10.011-10.011z"/><path d="m255.785 312.582c2.229 0 4.475-.124 6.724-.375 15.833-1.766 30.03-9.59 39.978-22.034 20.534-25.688 16.342-63.291-9.346-83.826-25.685-20.533-63.291-16.344-83.826 9.347-20.534 25.688-16.342 63.291 9.346 83.825h-.001c10.676 8.534 23.653 13.063 37.125 13.063zm-44.251-54.703c-1.04-9.326.84-18.526 5.312-26.565l34.372 27.477c1.382 1.105 3.035 1.642 4.678 1.642 2.201 0 4.382-.964 5.863-2.817 2.586-3.235 2.061-7.954-1.176-10.541l-34.371-27.476c8.343-7.439 18.998-11.288 29.734-11.288 9.776 0 19.617 3.188 27.829 9.754 19.227 15.37 22.365 43.517 6.995 62.744-7.445 9.313-18.072 15.171-29.923 16.492-11.85 1.318-23.507-2.053-32.82-9.498-.001 0-.001 0-.001 0-9.314-7.447-15.171-18.073-16.492-29.924z"/></g></g></svg>