<svg id="Capa_1" enable-background="new 0 0 508.562 508.562" height="512" viewBox="0 0 508.562 508.562" width="512" xmlns="http://www.w3.org/2000/svg"><g><g><circle cx="254.281" cy="127.812" fill="#ff8087" r="27.837"/><path d="m282.116 127.815c0 15.37-12.46 27.83-27.84 27.83-3.91 0-7.63-.8-11-2.26 9.91-4.26 16.84-14.1 16.84-25.57s-6.93-21.32-16.84-25.58c3.37-1.45 7.09-2.26 11-2.26 15.38 0 27.84 12.46 27.84 27.84z" fill="#e6646e"/><path d="m403.064 249.171h-297.566v-82.435c0-6.627 5.373-12 12-12h273.565c6.627 0 12 5.373 12 12v82.435z" fill="#ffe17d"/><path d="m140.02 292.475h-57.13v-85.696c0-9.941 8.059-18 18-18h21.13c9.941 0 18 8.059 18 18z" fill="#ffe8c8"/><path d="m254.281 292.475h-57.13v-85.696c0-9.941 8.059-18 18-18h21.13c9.941 0 18 8.059 18 18z" fill="#ffe8c8"/><path d="m197.151 292.475h-57.13v-85.696c0-9.941 8.059-18 18-18h21.13c9.941 0 18 8.059 18 18z" fill="#ffe8c8"/><path d="m403.066 166.735v82.44h-25v-82.44c0-6.63-5.38-12-12-12h25c6.62 0 12 5.37 12 12z" fill="#ffd164"/><path d="m311.411 292.475h-57.13v-85.696c0-9.941 8.059-18 18-18h21.13c9.941 0 18 8.059 18 18z" fill="#ffe8c8"/><path d="m368.542 292.475h-57.13v-85.696c0-9.941 8.059-18 18-18h21.13c9.941 0 18 8.059 18 18z" fill="#ffe8c8"/><path d="m425.672 292.323h-57.13v-85.696c0-9.941 8.059-18 18-18h21.13c9.941 0 18 8.059 18 18z" fill="#ffe8c8"/><path d="m225.39 319.063h57.783v117.391h-57.783z" fill="#c4d7fb"/><g fill="#fdd9b4"><path d="m425.676 206.625v85.7h-25v-85.7c0-9.29-7.04-16.93-16.07-17.9.63-.07 1.28-.1 1.94-.1h21.13c9.94 0 18 8.06 18 18z"/><path d="m368.546 206.775v85.7h-25v-85.7c0-9.28-7.03-16.93-16.06-17.9.63-.07 1.28-.1 1.93-.1h21.13c9.94 0 18 8.06 18 18z"/><path d="m311.416 206.775v85.7h-25v-85.7c0-9.29-7.04-16.93-16.07-17.9.63-.07 1.28-.1 1.93-.1h21.14c9.94 0 18 8.06 18 18z"/><path d="m254.276 206.775v85.7h-25v-85.7c0-9.28-7.02-16.93-16.06-17.9.63-.07 1.28-.1 1.93-.1h21.13c9.95 0 18 8.06 18 18z"/></g><path d="m258.176 319.065h25v117.39h-25z" fill="#a9c6f9"/><path d="m197.146 206.775v85.7h-25v-85.7c0-9.28-7.02-16.93-16.06-17.9.63-.07 1.28-.1 1.93-.1h21.13c9.95 0 18 8.06 18 18z" fill="#fdd9b4"/><path d="m140.016 206.775v85.7h-25v-85.7c0-9.28-7.02-16.93-16.06-17.9.63-.07 1.28-.1 1.93-.1h21.13c9.95 0 18 8.06 18 18z" fill="#fdd9b4"/><path d="m473.72 346.135h-438.878c-6.53 0-12.31-4.225-14.292-10.447l-12.675-39.79c-1.644-5.16 2.207-10.428 7.623-10.428h477.568c5.416 0 9.266 5.268 7.623 10.428l-12.675 39.79c-1.984 6.222-7.764 10.447-14.294 10.447z" fill="#eef5ff"/><path d="m415.534 470.106h-322.506c-8.853 0-14.658-9.258-10.802-17.227l12.959-26.779c1.336-2.761 4.134-4.515 7.201-4.515h303.79c3.068 0 5.865 1.754 7.201 4.515l12.959 26.779c3.856 7.969-1.949 17.227-10.802 17.227z" fill="#eef5ff"/><path d="m500.686 295.895-12.67 39.79c-1.99 6.22-7.77 10.45-14.3 10.45h-25c6.53 0 12.31-4.23 14.3-10.45l12.67-39.79c1.65-5.16-2.21-10.43-7.62-10.43h25c5.41 0 9.27 5.27 7.62 10.43z" fill="#dfe9fb"/><path d="m415.536 470.105h-25c8.85 0 14.66-9.26 10.8-17.23l-12.96-26.78c-1.34-2.76-4.13-4.51-7.2-4.51h25c3.07 0 5.86 1.75 7.2 4.51l12.96 26.78c3.86 7.97-1.95 17.23-10.8 17.23z" fill="#dfe9fb"/></g><path d="m505.576 281.391c-2.952-4.036-7.514-6.351-12.515-6.351h-59.89v-71.34c0-13.083-9.906-23.891-22.61-25.332v-14.558c0-10.752-8.748-19.5-19.5-19.5h-107.262c3.702-5.625 5.822-12.33 5.822-19.43 0-13.654-7.793-25.515-19.161-31.394 6.142-17.672 18.339-41.567 39.951-44.679 4.1-.591 6.944-4.394 6.354-8.493s-4.39-6.939-8.493-6.354c-28.624 4.123-44.117 31.267-52.341 55.633-.547-.025-1.097-.042-1.65-.042-19.486 0-35.34 15.849-35.34 35.33 0 7.1 2.119 13.805 5.822 19.43h-107.262c-10.752 0-19.5 8.748-19.5 19.5v14.708c-12.704 1.44-22.61 12.248-22.61 25.332v71.19h-59.89c-5.001 0-9.563 2.314-12.515 6.351-2.909 3.977-3.755 9.154-2.261 13.856l12.68 39.788c2.984 9.375 11.599 15.675 21.437 15.675h183.05v60.45h-115.51c-5.896 0-11.37 3.428-13.951 8.743l-12.962 26.784c-2.939 6.084-2.55 13.133 1.042 18.855 3.59 5.721 9.766 9.137 16.522 9.137h22.34c4.142 0 7.5-3.357 7.5-7.5s-3.358-7.5-7.5-7.5h-22.34c-2.25 0-3.418-1.475-3.816-2.109-.398-.635-1.22-2.331-.243-4.354l12.956-26.771c.084-.174.263-.286.454-.286h303.8c.191 0 .369.112.449.276l12.958 26.776c.979 2.026.158 3.723-.24 4.357-.398.635-1.566 2.109-3.816 2.109h-265.16c-4.142 0-7.5 3.357-7.5 7.5s3.358 7.5 7.5 7.5h265.16c6.756 0 12.932-3.416 16.522-9.137 3.591-5.723 3.98-12.771 1.039-18.859l-12.964-26.79c-2.577-5.306-8.051-8.733-13.947-8.733h-115.51v-60.45h119.38c4.142 0 7.5-3.357 7.5-7.5s-3.358-7.5-7.5-7.5h-375.214c-3.278 0-6.148-2.1-7.144-5.228l-12.678-39.784c-.025-.079-.078-.244.074-.451s.325-.207.409-.207h477.56c.083 0 .257 0 .409.207s.099.372.076.445l-12.681 39.792c-.995 3.126-3.866 5.226-7.144 5.226h-28.67c-4.142 0-7.5 3.357-7.5 7.5s3.358 7.5 7.5 7.5h28.67c9.837 0 18.452-6.3 21.436-15.673l12.682-39.796c1.491-4.695.645-9.873-2.264-13.849zm-229.905 129.769h-42.78v-60.45h42.78zm142.5-207.46v71.34h-42.13v-71.19-.15c0-5.79 4.71-10.5 10.5-10.5h21.13c5.79 0 10.5 4.71 10.5 10.5zm-270.65.15c0-5.79 4.71-10.5 10.5-10.5h21.13c5.79 0 10.5 4.71 10.5 10.5v71.19h-42.13zm57.13 0c0-5.79 4.71-10.5 10.5-10.5h21.13c5.79 0 10.5 4.71 10.5 10.5v71.19h-42.13zm57.13 0c0-5.79 4.71-10.5 10.5-10.5h21.13c5.79 0 10.5 4.71 10.5 10.5v71.19h-42.13zm57.13 0c0-5.79 4.71-10.5 10.5-10.5h21.13c5.79 0 10.5 4.71 10.5 10.5v71.19h-42.13zm-84.97-78.97c0-11.21 9.125-20.33 20.34-20.33s20.34 9.12 20.34 20.33c0 8.973-5.876 16.836-14.379 19.43h-11.922c-8.503-2.594-14.379-10.457-14.379-19.43zm-116.44 34.43h273.56c2.481 0 4.5 2.019 4.5 4.5v14.39h-9.02c-7.058 0-13.454 2.884-18.076 7.533-4.61-4.561-10.943-7.384-17.924-7.384h-21.13c-7.019 0-13.384 2.851-18 7.456-4.616-4.604-10.981-7.456-18-7.456h-21.13c-7.019 0-13.384 2.851-18 7.456-4.616-4.604-10.981-7.456-18-7.456h-21.13c-7.019 0-13.384 2.851-18 7.456-4.616-4.604-10.981-7.456-18-7.456h-21.13c-7.019 0-13.384 2.851-18 7.456-4.616-4.604-10.981-7.456-18-7.456h-9.02v-14.54c0-2.481 2.019-4.499 4.5-4.499zm-27.11 44.54c0-5.79 4.71-10.5 10.5-10.5h21.13c5.79 0 10.5 4.71 10.5 10.5v71.19h-42.13z"/></g></svg>