<svg id="Capa_1" enable-background="new 0 0 511.061 511.061" height="512" viewBox="0 0 511.061 511.061" width="512" xmlns="http://www.w3.org/2000/svg"><g><g><path d="m447.512 247.379c0-17.153-7.751-32.488-19.934-42.718-1.091-.916-1.604-2.348-1.344-3.749.613-3.3.942-6.699.942-10.176 0-31.677-26.409-57.187-58.411-55.713-27.958 1.287-50.903 23.541-52.978 51.451-1.466 19.713 7.333 37.446 21.593 48.443-.916 4.009-1.415 8.176-1.415 12.463 0 9.794 2.532 18.993 6.966 26.992-7.969 9.007-13.067 20.605-13.872 33.374-25.474 5.779-44.332 28.977-43.352 56.419 1.047 29.321 25.135 53.065 54.467 53.717 29.251.65 53.517-21.227 56.681-49.485.181-1.612 1.322-2.948 2.884-3.385 23.499-6.563 40.742-28.114 40.742-53.707 0-8.879-2.081-17.269-5.773-24.72-.684-1.381-.503-3.033.464-4.233 7.713-9.567 12.34-21.727 12.34-34.973z" fill="#b4e6a0"/><path d="m434.706 286.58c3.69 7.45 5.77 15.84 5.77 24.72 0 25.6-17.24 47.15-40.74 53.71-1.56.44-2.7 1.77-2.88 3.39-3.17 28.25-27.43 50.13-56.68 49.48-3.84-.08-7.6-.56-11.22-1.4 22.79-5.22 40.25-24.42 42.9-48.08.18-1.62 1.32-2.95 2.88-3.39 23.5-6.56 40.74-28.11 40.74-53.71 0-8.88-2.08-17.27-5.77-24.72-.68-1.38-.5-3.03.46-4.23 7.72-9.56 12.35-21.73 12.35-34.97 0-17.15-7.76-32.49-19.94-42.72-1.09-.92-1.6-2.35-1.34-3.75.61-3.3.94-6.7.94-10.18 0-26.5-18.49-48.69-43.27-54.36 3.19-.74 6.49-1.2 9.86-1.35 32-1.47 58.41 24.04 58.41 55.71 0 3.48-.33 6.88-.94 10.18-.26 1.4.25 2.83 1.34 3.75 12.18 10.23 19.94 25.57 19.94 42.72 0 13.24-4.63 25.41-12.35 34.97-.96 1.2-1.139 2.85-.46 4.23z" fill="#96d7a5"/><path d="m391.738 180.552c0-95.576-73.469-173.056-164.097-173.056s-164.097 77.48-164.097 173.056c0 40.534 13.221 77.806 35.355 107.299 4.899 6.527 6.346 15.059 3.518 22.714-5.879 15.913-9.119 33.215-9.119 51.322 0 78.246 60.147 141.677 134.342 141.677s134.343-63.431 134.343-141.677c0-18.107-3.24-35.409-9.119-51.322-2.828-7.655-1.381-16.187 3.518-22.714 22.135-29.493 35.356-66.765 35.356-107.299z" fill="#eef5ff"/><path d="m352.866 310.56c5.88 15.92 9.12 33.22 9.12 51.33 0 78.24-60.15 141.67-134.35 141.67-4.21 0-8.38-.2-12.5-.61 68.34-6.64 121.85-67.26 121.85-141.06 0-18.11-3.24-35.41-9.12-51.33-2.83-7.65-1.38-16.18 3.52-22.71 22.13-29.49 35.35-66.76 35.35-107.3 0-91.14-66.81-165.82-151.6-172.56 4.12-.32 8.29-.49 12.5-.49 90.63 0 164.1 77.48 164.1 173.05 0 40.54-13.22 77.81-35.35 107.3-4.9 6.53-6.349 15.06-3.52 22.71z" fill="#dfe9fb"/><path d="m227.641 463.565c-52.021 0-94.343-45.612-94.343-101.677 0-12.93 2.234-25.534 6.641-37.461 7.523-20.366 4.141-43.016-9.05-60.588-17.889-23.836-27.345-52.637-27.345-83.286 0-73.368 55.67-133.057 124.097-133.057s124.097 59.689 124.097 133.057c0 30.649-9.456 59.45-27.348 83.289-13.186 17.566-16.569 40.215-9.049 60.581 4.408 11.932 6.643 24.535 6.643 37.465 0 56.065-42.323 101.677-94.343 101.677z" fill="#ff8087"/><path d="m324.386 263.84c-13.18 17.57-16.57 40.22-9.05 60.58 4.41 11.93 6.65 24.54 6.65 37.47 0 56.06-42.32 101.67-94.35 101.67-4.24 0-8.41-.3-12.5-.89 46.14-6.61 81.85-49.29 81.85-100.78 0-12.93-2.24-25.54-6.65-37.47-7.52-20.36-4.13-43.01 9.05-60.58 17.9-23.84 27.35-52.64 27.35-83.29 0-68.85-49.02-125.64-111.6-132.38 4.11-.44 8.28-.67 12.5-.67 68.43 0 124.1 59.68 124.1 133.05 0 30.65-9.449 59.45-27.35 83.29z" fill="#e6646e"/><circle cx="227.641" cy="151.604" fill="#eef5ff" r="39.13"/><path d="m266.767 151.6c0 21.62-17.51 39.13-39.13 39.13-4.37 0-8.57-.72-12.5-2.04 15.49-5.21 26.63-19.84 26.63-37.09 0-17.24-11.14-31.88-26.63-37.09 3.93-1.32 8.13-2.04 12.5-2.04 21.62 0 39.13 17.52 39.13 39.13z" fill="#dfe9fb"/></g><g><path d="m359.24 180.55c0-77.499-59.035-140.55-131.6-140.55-72.559 0-131.59 63.051-131.59 140.55 0 32.291 9.974 62.648 28.843 87.793 11.651 15.521 14.646 35.518 8.014 53.485-4.716 12.745-7.106 26.225-7.106 40.063 0 60.196 45.686 109.17 101.841 109.17 32.005 0 61.524-15.688 80.99-43.042 2.402-3.375 1.613-8.058-1.762-10.459-3.376-2.404-8.058-1.612-10.459 1.762-8.167 11.477-18.379 20.541-29.866 26.798 4.095-74.883-38.95-162.671-60.656-201.75 9.862-17.32 16.501-33.565 20.814-46.158.314.006.626.024.942.024 25.712 0 46.63-20.919 46.63-46.631s-20.918-46.631-46.63-46.631-46.631 20.919-46.631 46.631c0 20.144 12.842 37.343 30.767 43.849-8.808 24.999-26.92 63.709-61.367 95.372-1.862-11.206-6.41-22.011-13.523-31.487-16.904-22.525-25.84-49.77-25.84-78.788-.001-69.23 52.302-125.551 116.59-125.551 64.293 0 116.6 56.321 116.6 125.55 0 29.009-8.938 56.254-25.85 78.789-14.72 19.623-18.491 44.924-10.086 67.682 4.104 11.103 6.186 22.835 6.186 34.87 0 9.594-1.327 19.039-3.944 28.072-1.152 3.979 1.139 8.138 5.117 9.291 3.976 1.146 8.138-1.139 9.291-5.117 3.01-10.391 4.536-21.239 4.536-32.246 0-13.816-2.394-27.298-7.115-40.069-6.632-17.957-3.636-37.95 8.015-53.479 18.873-25.154 28.849-55.512 28.849-87.793zm-163.227-28.946c0-17.441 14.189-31.631 31.631-31.631 17.44 0 31.63 14.189 31.63 31.631s-14.189 31.631-31.63 31.631c-17.442 0-31.631-14.189-31.631-31.631zm.822 107.478c22.692 42.211 61.182 125.487 54.162 193.538-7.498 2.258-15.337 3.44-23.356 3.44-47.884 0-86.841-42.244-86.841-94.17 0-12.056 2.077-23.783 6.177-34.862 2.032-5.505 3.346-11.157 3.972-16.842 19.268-15.712 34.278-33.573 45.886-51.104z"/><path d="m455.011 247.38c0-18.053-7.653-35.114-21.057-47.118.482-3.168.727-6.365.727-9.531 0-26.778-17.052-50.662-41.965-59.566-20.467-75.627-86.723-131.165-165.075-131.165-45.937 0-89.095 18.852-121.524 53.082-2.849 3.007-2.721 7.754.286 10.603s7.754 2.721 10.603-.286c29.567-31.211 68.858-48.399 110.635-48.399 86.35 0 156.6 74.266 156.6 165.55 0 37.748-11.708 73.295-33.863 102.805-6.525 8.713-8.223 19.856-4.542 29.805 5.743 15.551 8.655 31.946 8.655 48.731 0 73.981-56.904 134.17-126.85 134.17-69.94 0-126.841-60.188-126.841-134.17 0-16.785 2.912-33.181 8.654-48.728 3.684-9.959 1.981-21.104-4.555-29.814-22.144-29.509-33.849-65.057-33.849-102.799 0-32.354 8.826-63.691 25.524-90.627 2.183-3.521 1.099-8.145-2.422-10.326-3.521-2.184-8.145-1.099-10.326 2.422-18.172 29.311-27.776 63.383-27.776 98.531 0 41.015 12.743 79.675 36.852 111.802 3.464 4.616 4.392 10.45 2.483 15.61-6.36 17.22-9.585 35.364-9.585 53.929 0 82.253 63.63 149.17 141.841 149.17 57.341 0 106.843-35.967 129.182-87.573 24.53-6.149 43.402-26.808 47.185-51.927 26.007-8.32 43.973-32.769 43.973-60.261 0-9.077-1.876-17.813-5.589-26.02 8.152-10.88 12.619-24.25 12.619-37.9zm-27.022 42.529c3.312 6.686 4.991 13.883 4.991 21.391 0 21.576-14.498 40.692-35.274 46.492-4.524 1.274-7.782 5.114-8.299 9.772-1.821 16.238-11.9 30.252-25.986 37.511 3.941-13.677 6.069-28.174 6.069-43.185 0-18.564-3.225-36.709-9.586-53.933-1.907-5.155-.98-10.992 2.474-15.604 24.115-32.121 36.862-70.782 36.862-111.804 0-10.538-.872-20.866-2.526-30.914 13.965 8.631 22.967 24.099 22.967 41.095 0 2.925-.274 5.891-.814 8.812-.75 4.041.735 8.198 3.891 10.861 10.965 9.21 17.254 22.688 17.254 36.977 0 11.146-3.691 21.61-10.696 30.284-2.786 3.478-3.301 8.293-1.327 12.245z"/></g></g></svg>