<svg id="Capa_1" enable-background="new 0 0 507.764 507.764" height="512" viewBox="0 0 507.764 507.764" width="512" xmlns="http://www.w3.org/2000/svg"><g><g><path d="m323.802 218.974v263.29c0 9.94-8.06 18-18 18h-245.74c-9.94 0-18-8.06-18-18v-263.29c0-44.18 35.82-80 80-80h15.98c2.21 0 4-1.79 4-4v-96.69h81.78v96.69c0 2.21 1.79 4 4 4h15.98c44.18 0 80 35.82 80 80z" fill="#ffe17d"/><path d="m323.802 218.974v263.29c0 9.94-8.06 18-18 18h-25c9.94 0 18-8.06 18-18v-263.29c0-44.18-35.82-80-80-80h-15.98c-2.21 0-4-1.79-4-4v-96.69h25v96.69c0 2.21 1.79 4 4 4h15.98c44.18 0 80 35.82 80 80z" fill="#ffd164"/><path d="m240.486 69.057h-115.108c-6.627 0-12-5.373-12-12v-37.557c0-6.627 5.373-12 12-12h115.109c6.627 0 12 5.373 12 12v37.557c-.001 6.628-5.373 12-12.001 12z" fill="#aa9ea9"/><path d="m42.062 272.664h281.74v93.91h-281.74z" fill="#aa9ea9"/><path d="m298.802 272.664h25v93.91h-25z" fill="#9b8e99"/><circle cx="182.932" cy="319.621" fill="#eef5ff" r="88.826"/><path d="m271.762 319.624c0 49.05-39.77 88.82-88.83 88.82-4.24 0-8.42-.3-12.5-.88 43.14-6.07 76.33-43.13 76.33-87.94 0-44.82-33.19-81.88-76.33-87.95 4.08-.58 8.26-.88 12.5-.88 49.059 0 88.83 39.77 88.83 88.83z" fill="#dfe9fb"/><circle cx="182.932" cy="319.621" fill="#ff8087" r="35.168"/><path d="m465.652 406.804-10.05 89.91c-.22 2.02-1.93 3.55-3.97 3.55h-83.6c-2.04 0-3.75-1.53-3.98-3.55l-10.04-89.91c-.53-4.74 3.18-8.89 7.95-8.89h95.74c4.77 0 8.48 4.15 7.95 8.89z" fill="#eef5ff"/><path d="m465.652 406.804-10.05 89.91c-.22 2.02-1.93 3.55-3.97 3.55h-25c2.04 0 3.75-1.53 3.97-3.55l10.05-89.91c.53-4.74-3.18-8.89-7.95-8.89h25c4.77 0 8.48 4.15 7.95 8.89z" fill="#dfe9fb"/><path d="m461.282 445.914-5.68 50.8c-.22 2.02-1.93 3.55-3.97 3.55h-83.6c-2.04 0-3.75-1.53-3.98-3.55l-5.44-48.7c2.57 1.68 5.63 3 10.42 3 13.2 0 13.2-10 26.4-10 13.19 0 13.19 10 26.39 10s13.2-10 26.4-10c6.51 0 9.81 2.43 13.06 4.9z" fill="#ffe17d"/><path d="m461.282 445.914-5.68 50.8c-.22 2.02-1.93 3.55-3.97 3.55h-25c2.04 0 3.75-1.53 3.97-3.55l5.68-50.8c-.19-.14-.37-.28-.56-.43 3.08-2.31 6.37-4.47 12.5-4.47 6.51 0 9.81 2.43 13.06 4.9z" fill="#ffd164"/><path d="m252.482 19.504v37.55c0 6.63-5.37 12-12 12h-25c6.63 0 12-5.37 12-12v-37.55c0-6.63-5.37-12-12-12h25c6.63 0 12 5.37 12 12z" fill="#9b8e99"/><path d="m218.102 319.624c0 19.42-15.75 35.17-35.17 35.17-4.4 0-8.62-.81-12.5-2.29 13.25-5.04 22.67-17.86 22.67-32.88s-9.42-27.84-22.67-32.88c3.88-1.48 8.1-2.29 12.5-2.29 19.42 0 35.17 15.74 35.17 35.17z" fill="#e6646e"/></g><g><path d="m243.803 131.47h-12.479v-54.92h9.159c10.752 0 19.5-8.748 19.5-19.5v-37.55c0-10.752-8.748-19.5-19.5-19.5h-20.029c-4.143 0-7.5 3.357-7.5 7.5s3.357 7.5 7.5 7.5h20.029c2.481 0 4.5 2.019 4.5 4.5v37.55c0 2.481-2.019 4.5-4.5 4.5h-115.1c-2.481 0-4.5-2.019-4.5-4.5v-37.55c0-2.481 2.019-4.5 4.5-4.5h60.07c4.143 0 7.5-3.357 7.5-7.5s-3.357-7.5-7.5-7.5h-60.07c-10.752 0-19.5 8.748-19.5 19.5v37.55c0 10.752 8.748 19.5 19.5 19.5h9.16v54.92h-12.48c-48.248 0-87.5 39.252-87.5 87.5v263.29c0 14.061 11.439 25.5 25.5 25.5h28.09c4.143 0 7.5-3.357 7.5-7.5s-3.357-7.5-7.5-7.5h-28.09c-5.79 0-10.5-4.71-10.5-10.5v-108.19h53.958c17.381 25.269 46.493 41.873 79.413 41.873s62.032-16.604 79.413-41.873h53.956v108.19c0 5.79-4.71 10.5-10.5 10.5h-182.65c-4.143 0-7.5 3.357-7.5 7.5s3.357 7.5 7.5 7.5h182.65c14.061 0 25.5-11.439 25.5-25.5v-263.29c0-48.248-39.252-87.5-87.5-87.5zm-194.24 227.6v-78.91h45.502c-5.432 12.048-8.458 25.406-8.458 39.457 0 14.05 3.025 27.406 8.456 39.453zm133.371 41.873c-44.844 0-81.326-36.482-81.326-81.326s36.482-81.326 81.326-81.326 81.326 36.482 81.326 81.326-36.482 81.326-81.326 81.326zm87.87-41.873c5.431-12.047 8.456-25.403 8.456-39.453 0-14.051-3.026-27.409-8.458-39.457h45.5v78.91zm45.499-93.91h-53.959c-17.382-25.267-46.492-41.869-79.41-41.869s-62.029 16.602-79.41 41.869h-53.961v-46.19c0-39.977 32.523-72.5 72.5-72.5h15.98c6.341 0 11.5-5.159 11.5-11.5v-58.42h66.78v58.42c0 6.341 5.159 11.5 11.5 11.5h15.979c39.977 0 72.5 32.523 72.5 72.5v46.19z"/><path d="m182.934 276.949c-23.527 0-42.669 19.141-42.669 42.668s19.142 42.669 42.669 42.669 42.668-19.142 42.668-42.669-19.141-42.668-42.668-42.668zm0 70.337c-15.257 0-27.669-12.412-27.669-27.669 0-15.256 12.412-27.668 27.669-27.668 15.256 0 27.668 12.412 27.668 27.668 0 15.257-12.412 27.669-27.668 27.669z"/><path d="m469.253 395.575c-2.937-3.283-7.147-5.166-11.552-5.166h-95.74c-4.405 0-8.616 1.883-11.553 5.166s-4.341 7.677-3.853 12.055l10.045 89.909c.649 5.829 5.563 10.225 11.429 10.225h83.603c5.863 0 10.777-4.395 11.43-10.223l10.044-89.912c.488-4.377-.916-8.771-3.853-12.054zm-107.665 10.001c.148-.167.312-.167.373-.167h95.74c.062 0 .224 0 .372.167.149.166.131.328.124.388l-3.166 28.342c-1.976-.49-4.217-.796-6.81-.796-9.12 0-14.096 3.77-17.729 6.521-2.96 2.243-4.591 3.479-8.671 3.479s-5.711-1.235-8.671-3.479c-3.631-2.752-8.604-6.521-17.719-6.521-9.12 0-14.096 3.77-17.729 6.521-2.96 2.243-4.591 3.479-8.671 3.479-1.386 0-2.475-.151-3.419-.417l-4.148-37.128c-.007-.061-.025-.223.124-.389zm86.913 87.188h-77.34l-3.833-34.305c.552.03 1.115.052 1.703.052 9.12 0 14.096-3.77 17.729-6.521 2.96-2.243 4.591-3.479 8.671-3.479 4.072 0 5.701 1.234 8.659 3.476 3.633 2.754 8.608 6.524 17.73 6.524 9.12 0 14.096-3.77 17.729-6.521 2.96-2.243 4.591-3.479 8.671-3.479 2.233 0 3.74.39 5.103 1.077z"/></g></g></svg>