<svg id="Capa_1" enable-background="new 0 0 510.58 510.58" height="512" viewBox="0 0 510.58 510.58" width="512" xmlns="http://www.w3.org/2000/svg"><g><g><path d="m441.121 158.744v71.91c-11.07-3.09-18.86-7.59-29-11.09v-60.82z" fill="#e6646e"/><path d="m278.079 162.054c13.855-13.855 37.835-60.299 23.98-74.154s-60.299 10.125-74.154 23.98-13.855 36.319 0 50.174c13.856 13.855 36.319 13.855 50.174 0z" fill="#b4e6a0"/><path d="m235.288 111.88c-13.855-13.855-60.299-37.835-74.154-23.98s10.125 60.299 23.98 74.154 36.319 13.855 50.174 0 13.855-36.319 0-50.174z" fill="#b4e6a0"/><path d="m235.291 162.054c-10.17 10.17-24.96 12.87-37.59 8.13 4.59-1.73 8.9-4.44 12.59-8.13 13.85-13.86 13.85-36.32 0-50.17-8.45-8.45-28.99-20.65-46.89-25.75 16.07-9.76 58.71 12.57 71.89 25.75 13.85 13.85 13.85 36.31 0 50.17z" fill="#96d7a5"/><path d="m278.081 162.054c-10.17 10.17-24.96 12.87-37.59 8.13 4.59-1.73 8.9-4.44 12.59-8.13 13.85-13.86 37.83-60.3 23.98-74.15-.68-.68-1.44-1.27-2.27-1.77 11.47-3.28 21.86-3.64 27.27 1.77 13.85 13.85-10.13 60.29-23.98 74.15z" fill="#96d7a5"/><path d="m441.121 158.744v221.42h-419.05v-197.42c0-13.26 10.75-24 24-24z" fill="#ffe8c8"/><path d="m412.121 158.744h29v221.42h-29z" fill="#fdd9b4"/><path d="m441.121 158.744v71.91c-20.6-5.76-29.86-16.37-63.96-16.37-46.8 0-46.8 20-93.6 20s-46.8-20-93.6-20-46.8 20-93.6 20c-39.28 0-45.59-14.1-74.29-18.62v-32.92c0-13.26 10.75-24 24-24z" fill="#ff8087"/><path d="m441.121 158.744v71.91c-11.07-3.09-18.86-7.59-29-11.09v-60.82z" fill="#e6646e"/><path d="m430.597 142.151v208.213c0 2.209-1.791 4-4 4h-407.098c-6.627 0-12 5.373-12 12v48.484c0 6.627 5.373 12 12 12h471.581c6.627 0 12-5.373 12-12v-272.697c0-6.627-5.373-12-12-12h-48.484c-6.627 0-11.999 5.372-11.999 12z" fill="#c48d66"/><path d="m503.081 142.154v272.69c0 6.63-5.37 12-12 12h-25c6.63 0 12-5.37 12-12v-272.69c0-6.63-5.37-12-12-12h25c6.63 0 12 5.37 12 12z" fill="#b67f5f"/></g><path d="m491.08 122.64h-48.48c-10.752 0-19.5 8.748-19.5 19.5v9.09h-46.16c-4.142 0-7.5 3.357-7.5 7.5s3.358 7.5 7.5 7.5h46.16v49.519c-11.128-4.65-23.578-8.98-45.94-8.98-24.936 0-37.549 5.391-49.748 10.604-11.308 4.832-21.988 9.396-43.853 9.396s-32.545-4.564-43.853-9.396c-12.198-5.213-24.812-10.604-49.748-10.604-24.935 0-37.549 5.391-49.747 10.604-11.308 4.832-21.988 9.396-43.853 9.396-21.855 0-32.534-4.564-43.841-9.396-6.765-2.891-13.724-5.862-22.939-7.924v-26.719c0-9.098 7.402-16.5 16.5-16.5h295.86c4.142 0 7.5-3.357 7.5-7.5s-3.358-7.5-7.5-7.5h-46.788c12.932-20.775 26.55-53.915 11.821-68.643-16.428-16.432-56.583 2.916-75.762 16.554-8.562-6.138-19.853-12.344-30.621-16.626-21.1-8.393-36.714-8.366-45.153.07-14.729 14.728-1.111 47.868 11.821 68.644h-121.176c-17.369 0-31.5 14.131-31.5 31.5v164.773c-8.374 2.19-14.58 9.798-14.58 18.848v48.49c0 10.752 8.748 19.5 19.5 19.5h49.42c4.142 0 7.5-3.357 7.5-7.5s-3.358-7.5-7.5-7.5h-49.42c-2.481 0-4.5-2.019-4.5-4.5v-48.49c0-2.481 2.019-4.5 4.5-4.5h407.1c6.341 0 11.5-5.159 11.5-11.5v-208.21c0-2.481 2.019-4.5 4.5-4.5h48.48c2.481 0 4.5 2.019 4.5 4.5v272.7c0 2.481-2.019 4.5-4.5 4.5h-387.16c-4.142 0-7.5 3.357-7.5 7.5s3.358 7.5 7.5 7.5h387.16c10.752 0 19.5-8.748 19.5-19.5v-272.7c0-10.752-8.747-19.5-19.5-19.5zm-194.713-29.446c2.488 2.488 3.417 10.812-2.157 26.082-4.565 12.506-11.543 24.469-17.167 31.954h-26.689c4.949-14.07 2.281-30.089-7.608-41.873 18.925-12.694 47.08-22.704 53.621-16.163zm-128.166 26.082c-5.574-15.271-4.646-23.594-2.157-26.083 2.948-2.943 13.057-3.08 29.004 3.261 14.913 5.932 28.925 15.102 34.542 20.722 9.142 9.135 10.715 23.225 4.253 34.055h-48.475c-5.624-7.486-12.603-19.449-17.167-31.955zm-138.621 227.574v-121.955c6.356 1.708 11.596 3.942 17.044 6.27 12.197 5.213 24.81 10.604 49.736 10.604 24.936 0 37.549-5.391 49.748-10.604 11.308-4.832 21.988-9.396 43.853-9.396s32.545 4.564 43.853 9.396c12.198 5.213 24.812 10.604 49.747 10.604s37.549-5.391 49.747-10.604c11.308-4.832 21.988-9.396 43.853-9.396 21.866 0 32.545 4.56 43.852 9.387.684.292 1.389.59 2.088.886v114.808z"/></g></svg>