<svg id="Capa_1" enable-background="new 0 0 510.06 510.06" height="512" viewBox="0 0 510.06 510.06" width="512" xmlns="http://www.w3.org/2000/svg"><g><g><path d="m373.635 214.248 123.189-74.47c2.635-1.593 2.558-5.441-.139-6.927l-126.087-69.45c-2.697-1.486-5.991.506-5.929 3.584l2.898 143.919c.061 3.08 3.433 4.937 6.068 3.344z" fill="#ffe17d"/><path d="m496.82 139.782-123.19 74.47c-2.63 1.59-6-.27-6.06-3.35l-.3-15.07 110.28-66.67c2.62-1.58 2.56-5.38-.08-6.89l19.21 10.58c2.7 1.49 2.78 5.33.14 6.93z" fill="#ffd164"/><path d="m410.691 195.877c-.854 0-1.703.021-2.548.058-1.517.067-2.978-.639-3.815-1.906-10.936-16.554-29.056-27.939-49.917-29.733-1.775-.153-3.281-1.366-3.799-3.07-8.324-27.364-33.756-47.276-63.841-47.276-20.478 0-38.796 9.23-51.035 23.753-1.525 1.809-4.16 2.13-6.056.714-14.164-10.582-31.739-16.85-50.78-16.85-43.69 0-79.651 32.993-84.384 75.42-.224 2.011-1.79 3.601-3.797 3.86-33.563 4.345-59.308 33.611-58.028 68.644 1.259 34.467 29.112 62.587 63.567 64.152 30.182 1.37 56.194-17.324 65.838-43.872 5.433 1.09 11.05 1.67 16.804 1.67 34.897 0 58.53 15.165 71.597-14.926 8.221 4.136 26.716-20.695 36.448-20.292 7.367 28.835 30.542 41.257 61.673 41.257 1.703 0 3.385-.085 5.056-.21 12.053 19.78 34.107 32.796 59.138 32.02 35.406-1.098 64.069-30.259 64.593-65.678.552-37.315-29.528-67.735-66.714-67.735z" fill="#b4e6a0"/><path d="m477.41 263.612c-.53 35.42-29.19 64.58-64.6 65.68-5.01.15-9.9-.24-14.62-1.15 30.47-5.84 53.74-32.65 54.22-64.53.55-37.31-29.53-67.73-66.72-67.73-.85 0-1.7.02-2.55.05-1.51.07-2.97-.64-3.81-1.9-10.94-16.56-29.06-27.94-49.92-29.74-1.77-.15-3.28-1.36-3.8-3.07-7.14-23.47-26.87-41.46-51.34-46.1 4.05-.77 8.23-1.17 12.5-1.17 30.09 0 55.52 19.91 63.84 47.27.52 1.71 2.03 2.92 3.8 3.07 20.86 1.8 38.98 13.18 49.92 29.74.84 1.26 2.3 1.97 3.81 1.9.85-.03 1.7-.05 2.55-.05 37.19 0 67.27 30.42 66.72 67.73z" fill="#96d7a5"/><path d="m502.56 258.472v75.41c0 83.32-67.54 150.86-150.86 150.86h-193.34c-83.32 0-150.86-67.54-150.86-150.86v-75.41c0-8.28 6.71-15 15-15h465.06c8.29 0 15 6.72 15 15z" fill="#eef5ff"/><path d="m502.56 258.472v75.41c0 83.32-67.54 150.86-150.86 150.86h-25c83.32 0 150.86-67.54 150.86-150.86v-75.41c0-8.28-6.71-15-15-15h25c8.29 0 15 6.72 15 15z" fill="#dfe9fb"/><path d="m502.56 258.472v42.89h-495.06v-42.89c0-8.28 6.71-15 15-15h465.06c8.29 0 15 6.72 15 15z" fill="#c4d7fb"/><path d="m258.383 170.045 34.449-139.765c.737-2.99-2.039-5.656-4.997-4.799l-138.265 40.048c-2.958.857-3.879 4.594-1.658 6.727l103.816 99.717c2.221 2.133 5.918 1.062 6.655-1.928z" fill="#ffe17d"/><path d="m502.56 258.472v42.89h-25v-42.89c0-8.28-6.71-15-15-15h25c8.29 0 15 6.72 15 15z" fill="#a9c6f9"/><path d="m292.83 30.282-34.45 139.76c-.73 2.99-4.43 4.06-6.65 1.93l-10.87-10.44 30.84-125.13c.73-2.96-1.99-5.61-4.92-4.82l21.06-6.1c2.95-.86 5.73 1.81 4.99 4.8z" fill="#ffd164"/></g><g><path d="m487.56 235.968h-7.578c-4.953-12.83-13.527-24.261-24.556-32.601-8.355-6.318-17.752-10.705-27.738-13.035l73.019-44.14c3.503-2.123 5.627-5.982 5.544-10.073-.083-4.09-2.363-7.86-5.953-9.841l-126.075-69.446c-3.584-1.979-7.989-1.893-11.495.223-3.508 2.117-5.637 5.976-5.557 10.075l1.82 90.157c-.617-.086-1.229-.19-1.85-.261-4.743-14.095-13.837-26.708-25.778-35.695-12.938-9.736-28.357-14.882-44.593-14.882-1.684 0-3.363.063-5.035.175l18.375-74.543c.985-3.981-.241-8.219-3.2-11.059-2.958-2.839-7.238-3.888-11.156-2.748l-138.254 40.045c-3.939 1.131-6.998 4.305-7.983 8.284-.985 3.981.241 8.218 3.197 11.054l37.928 36.432c-.581-.011-1.161-.031-1.743-.031-46.333 0-85.269 34.1-91.536 79.691-24.44 3.975-45.14 19.81-55.44 42.219h-9.424c-12.407 0-22.5 10.093-22.5 22.5v75.41c0 87.32 71.04 158.36 158.36 158.36h12.65c4.142 0 7.5-3.358 7.5-7.5s-3.358-7.5-7.5-7.5h-12.65c-79.048 0-143.359-64.311-143.359-143.36v-25.016h480.06v25.016c0 79.049-64.311 143.36-143.36 143.36h-145.69c-4.142 0-7.5 3.358-7.5 7.5s3.358 7.5 7.5 7.5h145.69c87.32 0 158.36-71.04 158.36-158.36v-75.41c0-12.406-10.094-22.5-22.5-22.5zm-115.269-163.076 115.463 63.603-80.544 48.689c-8.654-11.146-20.126-19.435-33.14-24.159zm-88.195-38.521-30.349 123.119c-.968 1.051-1.901 2.142-2.771 3.295-.026-.004-.051-.006-.077-.01l-93.415-89.729zm-269.096 259.491v-35.394c0-4.136 3.364-7.5 7.5-7.5h364.51c4.142 0 7.5-3.358 7.5-7.5s-3.358-7.5-7.5-7.5h-266.454c3.428-.984 6.27-3.564 7.608-7.107 3.35-9.05 10.927-15.828 20.264-18.129 5.037-1.236 10.302-1.108 15.226.369 3.966 1.192 8.149-1.06 9.339-5.027 1.191-3.967-1.06-8.148-5.027-9.339-7.486-2.248-15.48-2.445-23.121-.569-13.459 3.318-24.501 12.749-29.914 25.393-2.001.183-3.988.517-5.933.996-8.429 2.074-15.851 6.782-21.288 13.413h-38.804c9.252-15.072 24.847-25.368 42.775-27.692 5.438-.703 9.669-4.999 10.293-10.467 4.371-39.194 37.441-68.751 76.926-68.751 6.81 0 13.553.894 20.074 2.638l32.299 31.025c-12.469 4.509-22.12 15.057-25.201 28.664-.915 4.04 1.619 8.056 5.659 8.971.558.126 1.114.187 1.663.187 3.426 0 6.52-2.363 7.308-5.845 2.582-11.402 12.564-19.366 24.275-19.366 1.757 0 3.518.187 5.23.553 4.55.979 9.21-.926 11.871-4.848 5.419-7.987 14.398-12.756 24.02-12.756 5.175 0 10.256 1.381 14.696 3.994 3.569 2.102 8.167.911 10.268-2.659s.911-8.167-2.659-10.268c-6.743-3.969-14.456-6.067-22.304-6.067-4.816 0-9.519.803-13.963 2.292l5.78-23.447c2.912-.437 5.873-.678 8.857-.678 26.262 0 49.034 16.859 56.665 41.952 1.419 4.667 5.479 7.949 10.331 8.36 18.105 1.562 34.254 11.186 44.325 26.43 2.279 3.417 6.254 5.432 10.316 5.233.761-.027 1.522-.045 2.283-.045 22.476 0 42.959 12.995 52.892 32.59h-41.575c-4.142 0-7.5 3.358-7.5 7.5s3.358 7.5 7.5 7.5h65.55c4.135 0 7.5 3.364 7.5 7.5v35.394z"/></g></g></svg>