<svg id="Capa_1" enable-background="new 0 0 510.134 510.134" height="512" viewBox="0 0 510.134 510.134" width="512" xmlns="http://www.w3.org/2000/svg"><g><g><path d="m57.29 368.008c-19.868 0-22.616 1.613-34.23-3.827-6.186-2.898-10.363-8.901-10.952-15.707-1.873-21.661-8.425-39.436-1.57-60.292 8.162-24.834 37.758-38.962 52.915-59.706 15.279-20.91 19.77-53.349 40.68-68.628 20.744-15.157 52.917-9.605 77.75-17.767 24.073-7.912 46.605-31.698 73.183-31.698 26.577 0 49.109 23.786 73.182 31.698 24.834 8.162 57.007 2.609 77.751 17.767 20.91 15.279 25.401 47.718 40.68 68.628 15.157 20.744 44.753 34.873 52.915 59.706 6.855 20.856.303 38.632-1.57 60.294-.589 6.805-4.765 12.808-10.951 15.706-11.611 5.439-14.358 3.827-34.223 3.827-24.721-.001-370.836-.001-395.56-.001z" fill="#b4e6a0"/><path d="m498.027 348.475c-.59 6.81-4.77 12.81-10.95 15.71-11.61 5.44-14.36 3.82-34.23 3.82h-3.13c3.88-.4 7.26-1.43 12.36-3.82 6.18-2.9 10.36-8.9 10.95-15.71 1.87-21.66 8.42-39.44 1.57-60.29-8.16-24.84-37.76-38.97-52.92-59.71-15.28-20.91-19.77-53.35-40.68-68.63-20.74-15.16-52.91-9.6-77.75-17.76-20.21-6.65-39.33-24.48-60.68-30.02 4.08-1.07 8.24-1.68 12.5-1.68 26.58 0 49.11 23.78 73.18 31.7 24.84 8.16 57.01 2.6 77.75 17.76 20.91 15.28 25.4 47.72 40.68 68.63 15.16 20.74 44.76 34.87 52.92 59.71 6.85 20.85.3 38.63-1.57 60.29z" fill="#96d7a5"/><path d="m181.427 262.305c0 43.15-34.98 78.13-78.13 78.13-28.75 0-53.87-15.53-67.43-38.67-6.79-11.58-10.69-25.07-10.69-39.46 0-43.15 34.98-78.13 78.12-78.13 11.72 0 22.85 2.58 32.83 7.21 26.75 12.41 45.3 39.5 45.3 70.92z" fill="#ff8087"/><path d="m492.38 183.67-54.4-38.622c-2.774-1.969-6.454-1.917-9.262.002-5.521 3.772-12.236 5.963-19.536 5.871-16.347-.205-30.415-12.38-32.926-28.534-.765-4.921-.444-9.708.763-14.148.876-3.222-.254-6.651-2.977-8.584l-21.564-15.309c-3.603-2.558-8.597-1.711-11.154 1.892l-61.388 86.467 152.948 108.587 61.388-86.467c2.558-3.603 1.711-8.597-1.892-11.155z" fill="#ffe17d"/><path d="m181.427 262.305c0 43.15-34.98 78.13-78.13 78.13-28.75 0-53.87-15.53-67.43-38.67 17.91-48.47 54.13-88.06 100.26-110.38 26.75 12.41 45.3 39.5 45.3 70.92z" fill="#e6646e"/><path d="m494.277 194.825-61.39 86.47-20.39-14.47 61.39-86.47c2.46-3.46 1.77-8.22-1.49-10.86l19.98 14.18c3.61 2.55 4.45 7.55 1.9 11.15z" fill="#ffd164"/><path d="m437.543 427.263h-364.953c-13.255 0-24-10.745-24-24v-32.499c0-109.987 89.162-199.149 199.149-199.149h14.656c109.987 0 199.149 89.162 199.149 199.149v32.499c-.001 13.255-10.746 24-24.001 24z" fill="#ffe8c8"/><path d="m461.547 370.765v32.5c0 13.25-10.75 24-24 24h-25c13.25 0 24-10.75 24-24v-32.5c0-108.25-86.37-196.33-193.95-199.08 1.71-.05 3.42-.07 5.14-.07h14.66c109.98 0 199.15 89.16 199.15 199.15z" fill="#fdd9b4"/></g><g><path d="m506.722 285.844c-5.575-16.974-19.307-28.908-32.587-40.45-1.34-1.165-2.7-2.349-4.053-3.538l30.315-42.696c4.938-6.972 3.286-16.663-3.679-21.601l-54.395-38.617c-5.263-3.742-12.431-3.774-17.836-.081-4.472 3.053-9.75 4.637-15.214 4.564-12.657-.163-23.666-9.699-25.606-22.189-.582-3.722-.384-7.435.584-11.015 1.71-6.257-.641-12.958-5.863-16.683l-21.576-15.314c-3.383-2.396-7.499-3.331-11.585-2.63-4.079.699-7.641 2.945-10.016 6.308l-28.948 40.77c-.655-.393-1.316-.788-1.963-1.177-15.215-9.149-30.948-18.611-49.233-18.611-18.28 0-34.006 9.456-49.214 18.601-9.106 5.476-17.707 10.647-26.307 13.473-9.097 2.988-19.416 3.994-30.341 5.059-17.379 1.693-35.351 3.444-49.49 13.779-9.872 7.205-16.234 17.525-20.737 26.427-35.4 10.507-61.302 43.318-61.302 82.082 0 .11.004.22.005.331-7.078 7.803-11.648 15.239-14.27 23.209-5.522 16.816-3.199 31.959-.951 46.603.826 5.384 1.68 10.951 2.174 16.674.819 9.454 6.657 17.827 15.241 21.854 8.629 4.042 13.594 4.758 21.001 4.757.069 0 .141-.001.21-.001v27.532c0 17.369 14.131 31.5 31.5 31.5h46.89c4.142 0 7.5-3.358 7.5-7.5s-3.358-7.5-7.5-7.5h-46.89c-9.098 0-16.5-7.402-16.5-16.5v-32.5c0-105.676 85.974-191.65 191.65-191.65h14.66c34.107 0 67.595 9.073 96.844 26.238 3.571 2.097 8.167.9 10.265-2.672 2.096-3.572.899-8.167-2.673-10.264-22.565-13.243-47.466-22.018-73.273-25.943l53.893-75.902c.03-.043.112-.159.309-.193.207-.034.338.056.375.082l21.556 15.3c.132.094.14.329.085.527-1.525 5.643-1.838 11.452-.931 17.259 3.05 19.627 20.348 34.622 40.238 34.878 8.566.105 16.833-2.375 23.864-7.177.202-.138.491-.216.687-.077l54.403 38.623c.229.162.28.467.123.689l-50.394 70.975c-11.112-17.813-24.984-34.03-41.345-47.98-3.151-2.688-7.886-2.311-10.573.841s-2.312 7.886.841 10.573c42.806 36.5 67.356 89.668 67.356 145.873v32.5c0 9.098-7.402 16.5-16.5 16.5h-283.07c-4.142 0-7.5 3.358-7.5 7.5s3.358 7.5 7.5 7.5h283.07c17.369 0 31.5-14.131 31.5-31.5v-27.532c.07 0 .144.001.214.001 7.41 0 12.378-.716 21.001-4.759 8.579-4.025 14.418-12.399 15.237-21.855.493-5.721 1.348-11.288 2.174-16.672 2.249-14.643 4.572-29.785-.95-46.603zm-480.479 71.552c-3.752-1.761-6.306-5.427-6.664-9.565-.537-6.215-1.429-12.032-2.292-17.657-2.161-14.081-4.027-26.24.375-39.644.711-2.162 1.644-4.298 2.81-6.441 4.19 16.02 12.975 30.544 25.529 41.84-2.507 11.287-4.095 22.915-4.667 34.806-6.383.032-8.97-.472-15.091-3.339zm24.218-48.225c-11.411-12.828-17.785-29.375-17.785-46.866 0-38.94 31.68-70.62 70.62-70.62 10.635 0 20.953 2.353 30.375 6.852-39.107 25.987-68.905 64.916-83.21 110.634zm211.936-145.056h-14.66c-35.956 0-69.791 9.238-99.271 25.454-13.546-8.435-29.059-12.884-45.169-12.884-1.687 0-3.36.063-5.023.159 3.22-4.7 6.538-8.197 10.289-10.934 10.831-7.917 26.018-9.396 42.097-10.963 11.256-1.097 22.895-2.231 33.568-5.737 10.202-3.352 19.938-9.207 29.354-14.869 14.074-8.463 27.367-16.456 41.484-16.456 14.122 0 27.422 7.998 41.504 16.466.323.194.657.393.982.589l-21.058 29.658c-4.683-.319-9.384-.483-14.097-.483zm230.45 166.058c-.863 5.625-1.756 11.441-2.292 17.655-.359 4.141-2.912 7.807-6.663 9.566-6.119 2.87-8.706 3.374-15.1 3.341-1.446-29.912-9.336-58.81-22.836-84.899l15.4-21.689c.983.859 1.97 1.725 2.94 2.568 12.286 10.678 23.891 20.765 28.176 33.81 4.402 13.408 2.536 25.568.375 39.648z"/></g></g></svg>