<svg id="Capa_1" enable-background="new 0 0 511.641 511.641" height="512" viewBox="0 0 511.641 511.641" width="512" xmlns="http://www.w3.org/2000/svg"><g><g><path d="m209.623 449.123h-134.251c-6.627 0-12-5.373-12-12v-27.652h158.251v27.652c0 6.627-5.373 12-12 12z" fill="#eef5ff"/><path d="m254.22 119.384h-223.445v-44.87c0-6.627 5.373-12 12-12h199.445c6.627 0 12 5.373 12 12z" fill="#eef5ff"/><path d="m221.623 409.467v27.66c0 6.62-5.37 12-12 12h-25c6.63 0 12-5.38 12-12v-27.66z" fill="#dfe9fb"/><path d="m254.224 74.517v44.87h-25v-44.87c0-6.63-5.38-12-12-12h25c6.619 0 12 5.37 12 12z" fill="#dfe9fb"/><path d="m229.953 418.923h-174.912c-4.217 0-7.711-3.274-7.983-7.483l-18.568-286.546h228.014l-18.567 286.547c-.273 4.208-3.766 7.482-7.984 7.482z" fill="#ffe17d"/><path d="m256.503 124.897-18.57 286.54c-.27 4.21-3.76 7.49-7.98 7.49h-25c4.22 0 7.71-3.28 7.98-7.49l18.57-286.54z" fill="#ffd164"/><path d="m265.497 145.166h-246c-6.627 0-12-5.373-12-12v-26.478c0-6.627 5.373-12 12-12h246c6.627 0 12 5.373 12 12v26.478c0 6.628-5.372 12-12 12z" fill="#ff8087"/><path d="m250.751 331.059h-216.508c-2.108 0-3.854-1.636-3.991-3.739l-7.215-110.301c-.151-2.307 1.68-4.261 3.991-4.261h230.938c2.312 0 4.142 1.954 3.991 4.261l-7.215 110.301c-.137 2.103-1.883 3.739-3.991 3.739z" fill="#ff8087"/><path d="m261.953 217.017-7.21 110.3c-.14 2.11-1.88 3.74-3.99 3.74h-27c2.11 0 3.85-1.63 3.99-3.74l7.21-110.3c.16-2.3-1.68-4.26-3.99-4.26h27c2.31 0 4.15 1.96 3.99 4.26z" fill="#e6646e"/><path d="m354.983 150.817c-82.37 0-149.15 66.78-149.15 149.15 0 82.38 66.78 149.16 149.15 149.16 82.38 0 149.16-66.78 149.16-149.16 0-82.37-66.78-149.15-149.16-149.15zm45.21 149.15c0 24.97-20.24 45.21-45.21 45.21s-45.21-20.24-45.21-45.21 20.24-45.21 45.21-45.21 45.21 20.24 45.21 45.21z" fill="#ffe8c8"/><path d="m354.983 150.817c-4.21 0-8.38.17-12.49.52 76.52 6.35 136.65 70.47 136.65 148.63 0 78.17-60.13 142.29-136.65 148.64 4.11.35 8.28.52 12.49.52 82.38 0 149.16-66.78 149.16-149.16 0-82.37-66.78-149.15-149.16-149.15z" fill="#fdd9b4"/><path d="m450.103 269.067c-3.38-10.42-2.7-22.99-9.01-31.66-6.37-8.75-18.58-11.97-27.34-18.34-8.66-6.3-15.46-16.97-25.87-20.35-10.05-3.26-21.76 1.27-32.9 1.27-11.13 0-22.85-4.53-32.89-1.27-10.42 3.38-17.21 14.05-25.88 20.35-8.75 6.37-20.97 9.58-27.34 18.34-6.3 8.66-5.63 21.24-9.01 31.65-3.26 10.05-11.31 19.78-11.31 30.91 0 11.14 8.05 20.86 11.31 30.91 3.38 10.41 2.71 22.99 9.01 31.65 6.37 8.76 18.59 11.97 27.34 18.34 8.67 6.31 15.46 16.97 25.87 20.35 10.05 3.26 21.77-1.26 32.9-1.26 11.14 0 22.85 4.52 32.9 1.26 10.41-3.38 17.21-14.04 25.87-20.35 8.76-6.37 20.97-9.58 27.34-18.33 6.31-8.67 5.63-21.25 9.01-31.66 3.26-10.05 11.31-19.77 11.31-30.91 0-11.13-8.05-20.86-11.31-30.9zm-95.12 76.11c-24.97 0-45.21-20.24-45.21-45.21s20.24-45.21 45.21-45.21 45.21 20.24 45.21 45.21-20.24 45.21-45.21 45.21z" fill="#c48d66"/><path d="m450.103 269.067c-3.38-10.42-2.7-22.99-9.01-31.66-6.37-8.75-18.58-11.97-27.34-18.34-8.66-6.3-15.46-16.97-25.87-20.35-7.29-2.37-15.46-.63-23.65.5 9.66 3.81 16.24 13.83 24.52 19.85 8.76 6.37 20.97 9.59 27.34 18.34 6.31 8.67 5.63 21.24 9.01 31.66 3.26 10.04 11.31 19.77 11.31 30.9 0 11.14-8.05 20.86-11.31 30.91-3.38 10.41-2.7 22.99-9.01 31.66-6.37 8.75-18.58 11.96-27.34 18.33-8.28 6.03-14.86 16.04-24.52 19.85 8.19 1.13 16.36 2.87 23.65.5 10.41-3.38 17.21-14.04 25.87-20.35 8.76-6.37 20.97-9.58 27.34-18.33 6.31-8.67 5.63-21.25 9.01-31.66 3.26-10.05 11.31-19.77 11.31-30.91 0-11.13-8.05-20.86-11.31-30.9z" fill="#b67f5f"/><path d="m277.494 106.687v26.48c0 6.63-5.37 12-12 12h-25c6.63 0 12-5.37 12-12v-26.48c0-6.63-5.37-12-12-12h25c6.629 0 12 5.37 12 12z" fill="#e6646e"/></g><g><path d="m354.987 143.314c-35.331 0-67.963 11.761-94.198 31.568l1.44-22.214h3.271c10.752 0 19.5-8.748 19.5-19.5v-26.48c0-10.752-8.748-19.5-19.5-19.5h-3.78v-12.67c0-10.752-8.748-19.5-19.5-19.5h-199.441c-10.752 0-19.5 8.748-19.5 19.5v12.67h-3.779c-10.752 0-19.5 8.748-19.5 19.5v26.48c0 10.752 8.748 19.5 19.5 19.5h3.27l3.411 52.635c-2.859.214-5.571 1.489-7.542 3.592-2.165 2.311-3.289 5.45-3.083 8.613l7.211 110.309c.4 6.024 5.44 10.742 11.473 10.742h.581l4.755 73.361c.522 8.136 7.315 14.509 15.465 14.509h.83v10.69c0 10.752 8.748 19.5 19.5 19.5h134.25c10.752 0 19.5-8.748 19.5-19.5v-10.69h.829c8.156 0 14.954-6.374 15.475-14.505l.007-.1c28.269 27.694 66.95 44.8 109.557 44.8 86.379 0 156.653-70.275 156.653-156.654s-70.276-156.656-156.655-156.656zm-339.987-10.146v-26.48c0-2.481 2.019-4.5 4.5-4.5h168.83c4.143 0 7.5-3.358 7.5-7.5s-3.357-7.5-7.5-7.5h-150.051v-12.67c0-2.481 2.019-4.5 4.5-4.5h199.44c2.481 0 4.5 2.019 4.5 4.5v12.67h-23.39c-4.143 0-7.5 3.358-7.5 7.5s3.357 7.5 7.5 7.5h42.17c2.481 0 4.5 2.019 4.5 4.5v26.48c0 2.481-2.019 4.5-4.5 4.5h-246c-2.48 0-4.499-2.019-4.499-4.5zm232.197 19.5-2.333 35.999c-5.234 5.179-10.103 10.724-14.571 16.592h-189.084l-3.408-52.59h209.396zm-216.429 67.59h189.413c-13.869 23.367-21.848 50.622-21.848 79.71 0 8.017.608 15.894 1.775 23.59h-162.587zm199.181 191.17h-109.019c-4.143 0-7.5 3.358-7.5 7.5s3.357 7.5 7.5 7.5h93.19v10.69c0 2.481-2.019 4.5-4.5 4.5h-134.25c-2.481 0-4.5-2.019-4.5-4.5v-10.69h15.06c4.143 0 7.5-3.358 7.5-7.5s-3.357-7.5-7.5-7.5h-30.89c-.257 0-.479-.211-.496-.476l-4.692-72.395h153.296c5.404 21.252 15.163 40.782 28.268 57.583l-.961 14.818c-.017.264-.239.47-.506.47zm125.038 30.195c-78.108 0-141.654-63.546-141.654-141.654s63.546-141.654 141.654-141.654 141.653 63.545 141.653 141.654-63.544 141.654-141.653 141.654z"/><path d="m354.987 247.26c-29.063 0-52.709 23.645-52.709 52.708s23.646 52.708 52.709 52.708 52.708-23.645 52.708-52.708-23.644-52.708-52.708-52.708zm0 90.417c-20.793 0-37.709-16.916-37.709-37.708s16.916-37.708 37.709-37.708c20.792 0 37.708 16.916 37.708 37.708s-16.916 37.708-37.708 37.708z"/><path d="m461.608 276.533c-1.731-3.447-3.368-6.702-4.369-9.788-1.069-3.293-1.698-7.016-2.364-10.957-1.257-7.444-2.682-15.881-7.714-22.796-5.075-6.974-12.68-10.93-19.389-14.42-3.522-1.833-6.85-3.563-9.601-5.565-2.695-1.961-5.329-4.564-8.118-7.32-5.407-5.343-11.536-11.399-19.854-14.1-7.997-2.597-16.034-1.409-23.807-.261-4.027.595-7.832 1.157-11.406 1.157s-7.379-.562-11.406-1.157c-7.772-1.148-15.81-2.335-23.808.261-8.316 2.7-14.445 8.756-19.853 14.099-2.788 2.755-5.423 5.358-8.117 7.319-2.752 2.003-6.079 3.733-9.602 5.566-6.709 3.49-14.313 7.446-19.389 14.419-5.032 6.916-6.457 15.353-7.714 22.796-.666 3.941-1.295 7.664-2.363 10.957-1.002 3.085-2.638 6.34-4.37 9.786-3.426 6.817-7.31 14.545-7.31 23.438 0 8.892 3.883 16.619 7.309 23.436 1.731 3.447 3.368 6.702 4.369 9.788 1.069 3.292 1.698 7.016 2.364 10.957 1.257 7.444 2.682 15.881 7.714 22.796 5.075 6.974 12.68 10.93 19.389 14.42 3.522 1.833 6.85 3.564 9.602 5.566 2.694 1.961 5.329 4.564 8.117 7.32 5.407 5.343 11.536 11.399 19.853 14.099 7.998 2.597 16.035 1.409 23.808.261 4.028-.595 7.832-1.157 11.407-1.157 3.574 0 7.378.562 11.405 1.157 4.341.641 8.763 1.294 13.215 1.294 3.521 0 7.062-.409 10.593-1.556 8.316-2.7 14.445-8.756 19.853-14.099 2.789-2.756 5.423-5.358 8.117-7.319 2.752-2.003 6.079-3.733 9.601-5.566 6.71-3.49 14.314-7.446 19.389-14.42 5.033-6.916 6.458-15.353 7.715-22.796.666-3.942 1.295-7.665 2.363-10.958 1.002-3.085 2.638-6.34 4.37-9.786 3.426-6.817 7.31-14.545 7.31-23.438 0-8.89-3.883-16.616-7.309-23.433zm-13.403 40.137c-1.907 3.795-3.88 7.72-5.234 11.889-1.409 4.341-2.16 8.79-2.887 13.093-1.077 6.378-2.095 12.403-5.053 16.467-2.999 4.122-8.432 6.948-14.183 9.939-3.857 2.006-7.845 4.081-11.505 6.745-3.608 2.626-6.773 5.753-9.834 8.778-4.632 4.577-9.007 8.9-13.942 10.502-4.649 1.511-10.64.626-16.983-.311-4.386-.648-8.921-1.318-13.597-1.318-4.677 0-9.212.67-13.599 1.318-6.342.937-12.332 1.822-16.983.311-4.936-1.603-9.311-5.925-13.942-10.502-3.061-3.024-6.226-6.152-9.834-8.778-3.66-2.664-7.648-4.738-11.505-6.745-5.751-2.992-11.184-5.818-14.183-9.94-2.958-4.063-3.976-10.088-5.053-16.467-.727-4.302-1.478-8.751-2.887-13.092-1.354-4.17-3.326-8.095-5.234-11.891-2.937-5.845-5.711-11.365-5.711-16.7s2.774-10.857 5.712-16.702c1.907-3.795 3.88-7.72 5.234-11.889 1.409-4.341 2.16-8.79 2.887-13.092 1.077-6.378 2.095-12.403 5.053-16.467 2.999-4.121 8.432-6.947 14.183-9.939 3.856-2.006 7.845-4.082 11.505-6.745 3.608-2.626 6.773-5.753 9.834-8.777 4.632-4.577 9.007-8.9 13.942-10.502 4.652-1.51 10.643-.625 16.982.312 4.387.648 8.922 1.318 13.599 1.318s9.212-.67 13.599-1.318c6.343-.936 12.331-1.821 16.982-.312 4.936 1.603 9.311 5.926 13.942 10.503 3.061 3.024 6.226 6.152 9.834 8.778 3.66 2.663 7.647 4.738 11.505 6.744 5.751 2.992 11.184 5.818 14.183 9.939 2.958 4.064 3.976 10.089 5.053 16.467.727 4.302 1.478 8.751 2.887 13.092 1.354 4.17 3.326 8.095 5.234 11.891 2.937 5.845 5.711 11.365 5.711 16.7s-2.774 10.856-5.712 16.701z"/></g></g></svg>